<?xml version="1.0" standalone="no"?>
<!DOCTYPE svg PUBLIC "-//W3C//DTD SVG 1.1//EN" "http://www.w3.org/Graphics/SVG/1.1/DTD/svg11.dtd" >
<svg xmlns="http://www.w3.org/2000/svg" xmlns:xlink="http://www.w3.org/1999/xlink" version="1.1">
<metadata>
Created by FontForge 20170910 at Mon Oct 30 14:13:18 2017
 By Jimmy Wärting
Copyright 2016 The Oswald Project Authors (https://github.com/googlefonts/OswaldFont)
</metadata>
<defs>
<font id="Oswald-Bold" horiz-adv-x="0" >
  <font-face 
    font-family="Oswald"
    font-weight="700"
    font-stretch="normal"
    units-per-em="1000"
    panose-1="0 0 8 0 0 0 0 0 0 0"
    ascent="800"
    descent="-200"
    x-height="578"
    cap-height="810"
    bbox="-223 -357 1390 1318"
    underline-thickness="50"
    underline-position="-100"
    unicode-range="U+000D-FB02"
  />
<missing-glyph horiz-adv-x="667" 
d="M82 810h502v-810h-502v810zM481 90v630h-296v-630h296z" />
    <glyph glyph-name="f_f" unicode="ff" horiz-adv-x="609" 
d="M72 468h-55v110h55v43q0 58 11 93.5t45.5 55.5t101.5 20q42 0 78 -5v-121q-22 5 -35 5q-38 0 -38 -45v-46h73v-110h-73v-468h-163v468zM361 468h-55v110h55v43q0 58 11 93.5t45.5 55.5t101.5 20q42 0 78 -5v-121q-22 5 -35 5q-38 0 -38 -45v-46h73v-110h-73v-468h-163
v468z" />
    <glyph glyph-name="f_f_i" unicode="ffi" horiz-adv-x="803" 
d="M66 470h-56v108h56v43q0 58 11 93.5t45.5 55.5t102.5 20q31 0 66 -5v-121q-20 4 -30 4q-17 0 -25 -10t-8 -34v-46h103v43q0 58 11.5 93.5t46 55.5t101.5 20q33 0 69 -5v-121q-20 4 -32 4q-17 0 -25 -10t-8 -34v-46h263v-578h-162v470h-101v-470h-163v470h-103v-470h-162
v470zM609 789h148v-113h-148v113z" />
    <glyph glyph-name="f_f_l" unicode="ffl" horiz-adv-x="858" 
d="M804 785v-785h-163v696q-13 2 -35 2q-36 0 -53.5 -10t-22.5 -26t-5 -42v-42h62v-110h-62v-468h-163v468h-127v-468h-163v468h-55v110h55v43q0 58 11 93.5t45.5 55.5t101.5 20q42 0 78 -5v-121q-22 5 -35 5q-38 0 -38 -45v-46h127v43q0 55 14.5 94t65 65.5t151.5 26.5
q93 0 211 -22z" />
    <glyph glyph-name="fi" unicode="fi" horiz-adv-x="551" 
d="M69 468h-55v110h55v43q0 83 34.5 126.5t119.5 43.5q31 0 70 -6v-111q-14 2 -23 2q-19 0 -28.5 -11t-9.5 -38v-49h269v-578h-161v468h-108v-468h-163v468zM350 789h151v-113h-151v113z" />
    <glyph glyph-name="fl" unicode="fl" horiz-adv-x="551" 
d="M66 464h-56v114h56v43q0 55 14 94t64.5 65.5t151.5 26.5q93 0 211 -22v-785h-162v696q-14 2 -36 2q-36 0 -53.5 -10t-22.5 -26t-5 -42v-42h62v-114h-62v-464h-162v464z" />
    <glyph glyph-name=".notdef" horiz-adv-x="667" 
d="M82 810h502v-810h-502v810zM481 90v630h-296v-630h296z" />
    <glyph glyph-name="NULL" 
 />
    <glyph glyph-name="NULL" 
 />
    <glyph glyph-name="nonmarkingreturn" unicode="&#xd;" horiz-adv-x="256" 
 />
    <glyph glyph-name="space" unicode=" " horiz-adv-x="256" 
 />
    <glyph glyph-name="A" unicode="A" horiz-adv-x="551" 
d="M174 810h204l151 -810h-165l-27 171h-119l-28 -171h-169zM320 278l-43 316l-43 -316h86z" />
    <glyph glyph-name="Aacute" unicode="&#xc1;" horiz-adv-x="551" 
d="M174 810h204l151 -810h-165l-27 171h-119l-28 -171h-169zM320 278l-43 316l-43 -316h86zM285 1075h166l-126 -201h-103z" />
    <glyph glyph-name="Abreve" unicode="&#x102;" horiz-adv-x="551" 
d="M174 810h204l151 -810h-165l-27 171h-119l-28 -171h-169zM320 278l-43 316l-43 -316h86zM161.5 915.5q-42.5 40.5 -42.5 115.5h92q0 -38 15 -55.5t50 -17.5q34 0 49.5 18t15.5 55h92q0 -74 -42.5 -115t-114.5 -41t-114.5 40.5z" />
    <glyph glyph-name="uni1EAE" unicode="&#x1eae;" horiz-adv-x="551" 
d="M174 810h204l151 -810h-165l-27 171h-119l-28 -171h-169zM320 278l-43 316l-43 -316h86zM280 1181h133l-110 -116h-94zM161.5 911.5q-42.5 40.5 -42.5 115.5h92q0 -38 15 -55.5t50 -17.5q34 0 49.5 18t15.5 55h92q0 -74 -42.5 -115t-114.5 -41t-114.5 40.5z" />
    <glyph glyph-name="uni1EB6" unicode="&#x1eb6;" horiz-adv-x="551" 
d="M174 810h204l151 -810h-165l-27 171h-119l-28 -171h-169zM320 278l-43 316l-43 -316h86zM205 -70h140v-138h-140v138zM161.5 915.5q-42.5 40.5 -42.5 115.5h92q0 -38 15 -55.5t50 -17.5q34 0 49.5 18t15.5 55h92q0 -74 -42.5 -115t-114.5 -41t-114.5 40.5z" />
    <glyph glyph-name="uni1EB0" unicode="&#x1eb0;" horiz-adv-x="551" 
d="M174 810h204l151 -810h-165l-27 171h-119l-28 -171h-169zM320 278l-43 316l-43 -316h86zM139 1181h132l71 -116h-93zM161.5 911.5q-42.5 40.5 -42.5 115.5h92q0 -38 15 -55.5t50 -17.5q34 0 49.5 18t15.5 55h92q0 -74 -42.5 -115t-114.5 -41t-114.5 40.5z" />
    <glyph glyph-name="uni1EB2" unicode="&#x1eb2;" horiz-adv-x="551" 
d="M174 810h204l151 -810h-165l-27 171h-119l-28 -171h-169zM320 278l-43 316l-43 -316h86zM243 1083q18 15 27.5 29t9.5 31q0 19 -12.5 29.5t-33.5 10.5q-23 0 -51 -10v68q43 16 83 16q52 0 83.5 -25.5t31.5 -73.5q0 -43 -25 -72t-67 -52zM161.5 915.5
q-42.5 40.5 -42.5 115.5h92q0 -38 15 -55.5t50 -17.5q34 0 49.5 18t15.5 55h92q0 -74 -42.5 -115t-114.5 -41t-114.5 40.5z" />
    <glyph glyph-name="uni1EB4" unicode="&#x1eb4;" horiz-adv-x="551" 
d="M174 810h204l151 -810h-165l-27 171h-119l-28 -171h-169zM320 278l-43 316l-43 -316h86zM161.5 915.5q-42.5 40.5 -42.5 115.5h92q0 -38 15 -55.5t50 -17.5q34 0 49.5 18t15.5 55h92q0 -74 -42.5 -115t-114.5 -41t-114.5 40.5zM323 1091.5q-16 6.5 -36 19.5
q-18 10 -30.5 15.5t-24.5 5.5q-36 0 -36 -41h-78q-2 142 90 142q17 0 31 -5.5t35 -17.5q17 -10 30 -15.5t27 -5.5q31 0 31 38h72q0 -63 -15 -102.5t-62 -39.5q-18 0 -34 6.5z" />
    <glyph glyph-name="uni01CD" unicode="&#x1cd;" horiz-adv-x="551" 
d="M174 810h204l151 -810h-165l-27 171h-119l-28 -171h-169zM320 278l-43 316l-43 -316h86zM109 1058h116l51 -110l51 110h116l-88 -187h-158z" />
    <glyph glyph-name="Acircumflex" unicode="&#xc2;" horiz-adv-x="551" 
d="M174 810h204l151 -810h-165l-27 171h-119l-28 -171h-169zM320 278l-43 316l-43 -316h86zM208 1073h133l98 -192h-120l-44 119l-43 -119h-119z" />
    <glyph glyph-name="uni1EA4" unicode="&#x1ea4;" horiz-adv-x="551" 
d="M174 810h204l151 -810h-165l-27 171h-119l-28 -171h-169zM320 278l-43 316l-43 -316h86zM464 1122h121l-88 -123h-86zM208 1048h133l98 -167h-116l-48 100l-47 -100h-115z" />
    <glyph glyph-name="uni1EAC" unicode="&#x1eac;" horiz-adv-x="551" 
d="M174 810h204l151 -810h-165l-27 171h-119l-28 -171h-169zM320 278l-43 316l-43 -316h86zM208 1048h133l98 -167h-116l-48 100l-47 -100h-115zM205 -70h140v-138h-140v138z" />
    <glyph glyph-name="uni1EA6" unicode="&#x1ea6;" horiz-adv-x="551" 
d="M174 810h204l151 -810h-165l-27 171h-119l-28 -171h-169zM320 278l-43 316l-43 -316h86zM352 1122h122l53 -123h-87zM208 1048h133l98 -167h-116l-48 100l-47 -100h-115z" />
    <glyph glyph-name="uni1EA8" unicode="&#x1ea8;" horiz-adv-x="551" 
d="M174 810h204l151 -810h-165l-27 171h-119l-28 -171h-169zM320 278l-43 316l-43 -316h86zM406 1022q18 15 27.5 29t9.5 31q0 19 -12.5 29.5t-33.5 10.5q-25 0 -51 -10v68q42 16 82 16q52 0 83.5 -25.5t31.5 -73.5q0 -44 -24 -72.5t-67 -51.5zM208 1048h133l98 -167h-116
l-48 100l-47 -100h-115z" />
    <glyph glyph-name="uni1EAA" unicode="&#x1eaa;" horiz-adv-x="551" 
d="M174 810h204l151 -810h-165l-27 171h-119l-28 -171h-169zM320 278l-43 316l-43 -316h86zM208 1048h133l98 -167h-116l-48 100l-47 -100h-115zM323 1103.5q-16 6.5 -36 19.5q-18 10 -30.5 15.5t-24.5 5.5q-36 0 -36 -41h-78q-2 142 90 142q17 0 31 -5.5t35 -17.5
q17 -10 30 -15.5t27 -5.5q31 0 31 38h72q0 -63 -15 -102.5t-62 -39.5q-18 0 -34 6.5z" />
    <glyph glyph-name="uni0200" unicode="&#x200;" horiz-adv-x="551" 
d="M174 810h204l151 -810h-165l-27 171h-119l-28 -171h-169zM320 278l-43 316l-43 -316h86zM53 1077h124l64 -207h-88zM236 1077h119l59 -207h-86z" />
    <glyph glyph-name="Adieresis" unicode="&#xc4;" horiz-adv-x="551" 
d="M174 810h204l151 -810h-165l-27 171h-119l-28 -171h-169zM320 278l-43 316l-43 -316h86zM102 1042h130v-148h-130v148zM320 1042h130v-148h-130v148z" />
    <glyph glyph-name="uni1EA0" unicode="&#x1ea0;" horiz-adv-x="551" 
d="M174 810h204l151 -810h-165l-27 171h-119l-28 -171h-169zM320 278l-43 316l-43 -316h86zM205 -70h140v-138h-140v138z" />
    <glyph glyph-name="Agrave" unicode="&#xc0;" horiz-adv-x="551" 
d="M174 810h204l151 -810h-165l-27 171h-119l-28 -171h-169zM320 278l-43 316l-43 -316h86zM101 1075h168l61 -201h-102z" />
    <glyph glyph-name="uni1EA2" unicode="&#x1ea2;" horiz-adv-x="551" 
d="M174 810h204l151 -810h-165l-27 171h-119l-28 -171h-169zM320 278l-43 316l-43 -316h86zM221 911q39 19 55.5 31t16.5 33q0 35 -57 35q-32 0 -62 -7v68q48 13 102 13q53 0 87.5 -24t34.5 -75q0 -48 -32.5 -77t-89.5 -49z" />
    <glyph glyph-name="uni0202" unicode="&#x202;" horiz-adv-x="551" 
d="M174 810h204l151 -810h-165l-27 171h-119l-28 -171h-169zM320 278l-43 316l-43 -316h86zM160.5 998.5q41.5 41.5 115.5 41.5t115.5 -41.5t41.5 -117.5h-92q0 40 -15 58t-50 18t-50 -18t-15 -58h-92q0 76 41.5 117.5z" />
    <glyph glyph-name="Amacron" unicode="&#x100;" horiz-adv-x="551" 
d="M174 810h204l151 -810h-165l-27 171h-119l-28 -171h-169zM320 278l-43 316l-43 -316h86zM138 975h276v-77h-276v77z" />
    <glyph glyph-name="Aogonek" unicode="&#x104;" horiz-adv-x="551" 
d="M174 810h204l151 -810h-165l-27 171h-119l-28 -171h-169zM320 278l-43 316l-43 -316h86zM386 -237.5q-46 22.5 -46 85.5q0 38 23 80.5t55 71.5h73q-36 -66 -36 -121q0 -31 18 -45t46 -14q15 0 29 2l-16 -79q-12 -3 -33 -3q-67 0 -113 22.5z" />
    <glyph glyph-name="Aring" unicode="&#xc5;" horiz-adv-x="551" 
d="M174 810h204l151 -810h-165l-27 171h-119l-28 -171h-169zM320 278l-43 316l-43 -316h86zM192 882.5q-33 28.5 -33 80.5t33 81t83 29t84 -29t34 -81t-33.5 -80.5t-84.5 -28.5q-50 0 -83 28.5zM312 926q13 15 13 37q0 23 -13 38t-37 15q-23 0 -36 -15t-13 -38q0 -22 13 -37
t36 -15q24 0 37 15z" />
    <glyph glyph-name="Aringacute" unicode="&#x1fa;" horiz-adv-x="551" 
d="M174 810h204l151 -810h-165l-27 171h-119l-28 -171h-169zM320 278l-43 316l-43 -316h86zM192 882.5q-33 28.5 -33 80.5t33 81t83 29t84 -29t34 -81t-33.5 -80.5t-84.5 -28.5q-50 0 -83 28.5zM312 926q13 15 13 37q0 23 -13 38t-37 15q-23 0 -36 -15t-13 -38q0 -22 13 -37
t36 -15q24 0 37 15zM285 1318h166l-126 -201h-103z" />
    <glyph glyph-name="Atilde" unicode="&#xc3;" horiz-adv-x="551" 
d="M174 810h204l151 -810h-165l-27 171h-119l-28 -171h-169zM320 278l-43 316l-43 -316h86zM323 906.5q-16 6.5 -36 19.5q-18 10 -30.5 15.5t-24.5 5.5q-36 0 -36 -41h-78q-2 142 90 142q17 0 31 -5.5t35 -17.5q17 -10 30 -15.5t27 -5.5q31 0 31 38h72q0 -63 -15 -102.5
t-62 -39.5q-18 0 -34 6.5z" />
    <glyph glyph-name="AE" unicode="&#xc6;" horiz-adv-x="708" 
d="M340 798h349v-122h-170v-195h120v-125h-120v-235h170v-121h-323v169h-131l-69 -169h-179zM366 281v253l-95 -253h95z" />
    <glyph glyph-name="AEacute" unicode="&#x1fc;" horiz-adv-x="708" 
d="M340 798h349v-122h-170v-195h120v-125h-120v-235h170v-121h-323v169h-131l-69 -169h-179zM366 281v253l-95 -253h95zM451 1075h166l-126 -201h-103z" />
    <glyph glyph-name="B" unicode="B" horiz-adv-x="588" 
d="M60 810h211q79 0 134.5 -16.5t89.5 -63.5t34 -132q0 -72 -31 -112t-88 -51q70 -9 107 -59t37 -136q0 -240 -245 -240h-249v810zM274 486q57 0 77.5 26t20.5 81q0 48 -26 72.5t-76 24.5h-31v-204h35zM277 125q57 0 80.5 28.5t23.5 89.5q0 69 -23.5 97t-81.5 28h-37v-243
h38z" />
    <glyph glyph-name="uni1E02" unicode="&#x1e02;" horiz-adv-x="588" 
d="M60 810h211q79 0 134.5 -16.5t89.5 -63.5t34 -132q0 -72 -31 -112t-88 -51q70 -9 107 -59t37 -136q0 -240 -245 -240h-249v810zM274 486q57 0 77.5 26t20.5 81q0 48 -26 72.5t-76 24.5h-31v-204h35zM277 125q57 0 80.5 28.5t23.5 89.5q0 69 -23.5 97t-81.5 28h-37v-243
h38zM218 1038h154v-154h-154v154z" />
    <glyph glyph-name="C" unicode="C" horiz-adv-x="563" 
d="M104.5 57.5q-55.5 69.5 -55.5 200.5v292q0 134 55 202.5t188 68.5q127 0 180 -61t53 -173v-70h-175v81q0 47 -10 72t-48 25t-50 -26.5t-12 -73.5v-381q0 -48 12.5 -73.5t49.5 -25.5t47.5 25.5t10.5 73.5v85h175v-70q0 -114 -53 -177.5t-180 -63.5q-132 0 -187.5 69.5z
" />
    <glyph glyph-name="Cacute" unicode="&#x106;" horiz-adv-x="563" 
d="M104.5 57.5q-55.5 69.5 -55.5 200.5v292q0 134 55 202.5t188 68.5q127 0 180 -61t53 -173v-70h-175v81q0 47 -10 72t-48 25t-50 -26.5t-12 -73.5v-381q0 -48 12.5 -73.5t49.5 -25.5t47.5 25.5t10.5 73.5v85h175v-70q0 -114 -53 -177.5t-180 -63.5q-132 0 -187.5 69.5z
M299 1075h166l-126 -201h-103z" />
    <glyph glyph-name="Ccaron" unicode="&#x10c;" horiz-adv-x="563" 
d="M104.5 57.5q-55.5 69.5 -55.5 200.5v292q0 134 55 202.5t188 68.5q127 0 180 -61t53 -173v-70h-175v81q0 47 -10 72t-48 25t-50 -26.5t-12 -73.5v-381q0 -48 12.5 -73.5t49.5 -25.5t47.5 25.5t10.5 73.5v85h175v-70q0 -114 -53 -177.5t-180 -63.5q-132 0 -187.5 69.5z
M123 1058h116l51 -110l51 110h116l-88 -187h-158z" />
    <glyph glyph-name="Ccedilla" unicode="&#xc7;" horiz-adv-x="563" 
d="M104.5 57.5q-55.5 69.5 -55.5 200.5v292q0 134 55 202.5t188 68.5q127 0 180 -61t53 -173v-70h-175v81q0 47 -10 72t-48 25t-50 -26.5t-12 -73.5v-381q0 -48 12.5 -73.5t49.5 -25.5t47.5 25.5t10.5 73.5v85h175v-70q0 -114 -53 -177.5t-180 -63.5q-132 0 -187.5 69.5z
M226 -265v70q28 -8 57 -8q62 0 62 35q0 25 -27.5 37.5t-64.5 14.5v116h59v-66q64 0 100.5 -26t36.5 -78q0 -54 -42 -80.5t-105 -26.5q-40 0 -76 12z" />
    <glyph glyph-name="Ccircumflex" unicode="&#x108;" horiz-adv-x="563" 
d="M104.5 57.5q-55.5 69.5 -55.5 200.5v292q0 134 55 202.5t188 68.5q127 0 180 -61t53 -173v-70h-175v81q0 47 -10 72t-48 25t-50 -26.5t-12 -73.5v-381q0 -48 12.5 -73.5t49.5 -25.5t47.5 25.5t10.5 73.5v85h175v-70q0 -114 -53 -177.5t-180 -63.5q-132 0 -187.5 69.5z
M222 1073h133l98 -192h-120l-44 119l-43 -119h-119z" />
    <glyph glyph-name="Cdotaccent" unicode="&#x10a;" horiz-adv-x="563" 
d="M104.5 57.5q-55.5 69.5 -55.5 200.5v292q0 134 55 202.5t188 68.5q127 0 180 -61t53 -173v-70h-175v81q0 47 -10 72t-48 25t-50 -26.5t-12 -73.5v-381q0 -48 12.5 -73.5t49.5 -25.5t47.5 25.5t10.5 73.5v85h175v-70q0 -114 -53 -177.5t-180 -63.5q-132 0 -187.5 69.5z
M213 1038h154v-154h-154v154z" />
    <glyph glyph-name="D" unicode="D" horiz-adv-x="586" 
d="M60 810h205q105 0 164 -26t83.5 -81.5t24.5 -148.5v-294q0 -94 -24.5 -150t-83 -83t-162.5 -27h-207v810zM267 124q39 0 57.5 11.5t23.5 33t5 63.5v353q0 39 -5.5 59.5t-24 30.5t-57.5 10h-27v-561h28z" />
    <glyph glyph-name="uni01F1" unicode="&#x1f1;" horiz-adv-x="1011" 
d="M60 810h205q105 0 164 -26t83.5 -81.5t24.5 -148.5v-294q0 -94 -24.5 -150t-83 -83t-162.5 -27h-207v810zM267 124q39 0 57.5 11.5t23.5 33t5 63.5v353q0 39 -5.5 59.5t-24 30.5t-57.5 10h-27v-561h28zM607 108l198 581h-189v121h365v-101l-201 -588h203v-121h-376v108z
" />
    <glyph glyph-name="uni01C4" unicode="&#x1c4;" horiz-adv-x="1011" 
d="M60 810h205q105 0 164 -26t83.5 -81.5t24.5 -148.5v-294q0 -94 -24.5 -150t-83 -83t-162.5 -27h-207v810zM267 124q39 0 57.5 11.5t23.5 33t5 63.5v353q0 39 -5.5 59.5t-24 30.5t-57.5 10h-27v-561h28zM607 108l198 581h-189v121h365v-101l-201 -588h203v-121h-376v108z
M628 1058h116l51 -110l51 110h116l-88 -187h-158z" />
    <glyph glyph-name="Eth" unicode="&#xd0;" horiz-adv-x="563" 
d="M51 370h-44v89h44v351h206q105 0 164 -26t83.5 -81.5t24.5 -148.5v-294q0 -94 -24.5 -150t-83 -83t-162.5 -27h-208v370zM259 124q39 0 57.5 11.5t24 33t5.5 63.5v353q0 39 -5.5 59.5t-24 30.5t-57.5 10h-28v-226h41v-89h-41v-246h28z" />
    <glyph glyph-name="Dcaron" unicode="&#x10e;" horiz-adv-x="586" 
d="M60 810h205q105 0 164 -26t83.5 -81.5t24.5 -148.5v-294q0 -94 -24.5 -150t-83 -83t-162.5 -27h-207v810zM267 124q39 0 57.5 11.5t23.5 33t5 63.5v353q0 39 -5.5 59.5t-24 30.5t-57.5 10h-27v-561h28zM126 1058h116l51 -110l51 110h116l-88 -187h-158z" />
    <glyph glyph-name="Dcroat" unicode="&#x110;" horiz-adv-x="589" 
d="M64 374h-51v82h51v354h205q106 0 165 -26t83 -81.5t24 -148.5v-294q0 -94 -24.5 -150t-83 -83t-161.5 -27h-208v374zM275 124q39 0 57.5 11.5t24 33t5.5 63.5v353q0 39 -6 59.5t-24.5 30.5t-56.5 10h-36v-229h49v-82h-49v-250h36z" />
    <glyph glyph-name="uni1E0A" unicode="&#x1e0a;" horiz-adv-x="586" 
d="M60 810h205q105 0 164 -26t83.5 -81.5t24.5 -148.5v-294q0 -94 -24.5 -150t-83 -83t-162.5 -27h-207v810zM267 124q39 0 57.5 11.5t23.5 33t5 63.5v353q0 39 -5.5 59.5t-24 30.5t-57.5 10h-27v-561h28zM216 1038h154v-154h-154v154z" />
    <glyph glyph-name="uni01F2" unicode="&#x1f2;" horiz-adv-x="978" 
d="M60 810h205q105 0 164 -26t83.5 -81.5t24.5 -148.5v-294q0 -94 -24.5 -150t-83 -83t-162.5 -27h-207v810zM267 124q39 0 57.5 11.5t23.5 33t5 63.5v353q0 39 -5.5 59.5t-24 30.5t-57.5 10h-27v-561h28zM621 105l159 354h-147v119h317v-99l-161 -360h163v-119h-331v105z
" />
    <glyph glyph-name="uni01C5" unicode="&#x1c5;" horiz-adv-x="978" 
d="M60 810h205q105 0 164 -26t83.5 -81.5t24.5 -148.5v-294q0 -94 -24.5 -150t-83 -83t-162.5 -27h-207v810zM267 124q39 0 57.5 11.5t23.5 33t5 63.5v353q0 39 -5.5 59.5t-24 30.5t-57.5 10h-27v-561h28zM621 105l159 354h-147v119h317v-99l-161 -360h163v-119h-331v105z
M615 826h116l51 -110l51 110h116l-88 -187h-158z" />
    <glyph glyph-name="E" unicode="E" horiz-adv-x="447" 
d="M60 810h364v-122h-185v-201h141v-124h-141v-242h187v-121h-366v810z" />
    <glyph glyph-name="Eacute" unicode="&#xc9;" horiz-adv-x="447" 
d="M60 810h364v-122h-185v-201h141v-124h-141v-242h187v-121h-366v810zM253 1075h166l-126 -201h-103z" />
    <glyph glyph-name="Ebreve" unicode="&#x114;" horiz-adv-x="447" 
d="M60 810h364v-122h-185v-201h141v-124h-141v-242h187v-121h-366v810zM129.5 915.5q-42.5 40.5 -42.5 115.5h92q0 -38 15 -55.5t50 -17.5q34 0 49.5 18t15.5 55h92q0 -74 -42.5 -115t-114.5 -41t-114.5 40.5z" />
    <glyph glyph-name="Ecaron" unicode="&#x11a;" horiz-adv-x="447" 
d="M60 810h364v-122h-185v-201h141v-124h-141v-242h187v-121h-366v810zM77 1058h116l51 -110l51 110h116l-88 -187h-158z" />
    <glyph glyph-name="Ecircumflex" unicode="&#xca;" horiz-adv-x="447" 
d="M60 810h364v-122h-185v-201h141v-124h-141v-242h187v-121h-366v810zM176 1073h133l98 -192h-120l-44 119l-43 -119h-119z" />
    <glyph glyph-name="uni1EBE" unicode="&#x1ebe;" horiz-adv-x="447" 
d="M60 810h364v-122h-185v-201h141v-124h-141v-242h187v-121h-366v810zM432 1122h121l-88 -123h-86zM176 1048h133l98 -167h-116l-48 100l-47 -100h-115z" />
    <glyph glyph-name="uni1EC6" unicode="&#x1ec6;" horiz-adv-x="447" 
d="M60 810h364v-122h-185v-201h141v-124h-141v-242h187v-121h-366v810zM176 1048h133l98 -167h-116l-48 100l-47 -100h-115zM154 -70h140v-138h-140v138z" />
    <glyph glyph-name="uni1EC0" unicode="&#x1ec0;" horiz-adv-x="447" 
d="M60 810h364v-122h-185v-201h141v-124h-141v-242h187v-121h-366v810zM320 1122h122l53 -123h-87zM176 1048h133l98 -167h-116l-48 100l-47 -100h-115z" />
    <glyph glyph-name="uni1EC2" unicode="&#x1ec2;" horiz-adv-x="447" 
d="M60 810h364v-122h-185v-201h141v-124h-141v-242h187v-121h-366v810zM374 1022q18 15 27.5 29t9.5 31q0 19 -12.5 29.5t-33.5 10.5q-25 0 -51 -10v68q42 16 82 16q52 0 83.5 -25.5t31.5 -73.5q0 -44 -24 -72.5t-67 -51.5zM176 1048h133l98 -167h-116l-48 100l-47 -100
h-115z" />
    <glyph glyph-name="uni1EC4" unicode="&#x1ec4;" horiz-adv-x="447" 
d="M60 810h364v-122h-185v-201h141v-124h-141v-242h187v-121h-366v810zM176 1048h133l98 -167h-116l-48 100l-47 -100h-115zM291 1103.5q-16 6.5 -36 19.5q-18 10 -30.5 15.5t-24.5 5.5q-36 0 -36 -41h-78q-2 142 90 142q17 0 31 -5.5t35 -17.5q17 -10 30 -15.5t27 -5.5
q31 0 31 38h72q0 -63 -15 -102.5t-62 -39.5q-18 0 -34 6.5z" />
    <glyph glyph-name="uni0204" unicode="&#x204;" horiz-adv-x="447" 
d="M60 810h364v-122h-185v-201h141v-124h-141v-242h187v-121h-366v810zM21 1077h124l64 -207h-88zM204 1077h119l59 -207h-86z" />
    <glyph glyph-name="Edieresis" unicode="&#xcb;" horiz-adv-x="447" 
d="M60 810h364v-122h-185v-201h141v-124h-141v-242h187v-121h-366v810zM70 1042h130v-148h-130v148zM288 1042h130v-148h-130v148z" />
    <glyph glyph-name="Edotaccent" unicode="&#x116;" horiz-adv-x="447" 
d="M60 810h364v-122h-185v-201h141v-124h-141v-242h187v-121h-366v810zM167 1038h154v-154h-154v154z" />
    <glyph glyph-name="uni1EB8" unicode="&#x1eb8;" horiz-adv-x="447" 
d="M60 810h364v-122h-185v-201h141v-124h-141v-242h187v-121h-366v810zM154 -70h140v-138h-140v138z" />
    <glyph glyph-name="Egrave" unicode="&#xc8;" horiz-adv-x="447" 
d="M60 810h364v-122h-185v-201h141v-124h-141v-242h187v-121h-366v810zM69 1075h168l61 -201h-102z" />
    <glyph glyph-name="uni1EBA" unicode="&#x1eba;" horiz-adv-x="447" 
d="M60 810h364v-122h-185v-201h141v-124h-141v-242h187v-121h-366v810zM189 911q39 19 55.5 31t16.5 33q0 35 -57 35q-32 0 -62 -7v68q48 13 102 13q53 0 87.5 -24t34.5 -75q0 -48 -32.5 -77t-89.5 -49z" />
    <glyph glyph-name="uni0206" unicode="&#x206;" horiz-adv-x="447" 
d="M60 810h364v-122h-185v-201h141v-124h-141v-242h187v-121h-366v810zM128.5 998.5q41.5 41.5 115.5 41.5t115.5 -41.5t41.5 -117.5h-92q0 40 -15 58t-50 18t-50 -18t-15 -58h-92q0 76 41.5 117.5z" />
    <glyph glyph-name="Emacron" unicode="&#x112;" horiz-adv-x="447" 
d="M60 810h364v-122h-185v-201h141v-124h-141v-242h187v-121h-366v810zM106 975h276v-77h-276v77z" />
    <glyph glyph-name="Eogonek" unicode="&#x118;" horiz-adv-x="447" 
d="M60 810h364v-122h-185v-201h141v-124h-141v-242h187v-121h-366v810zM246 -237.5q-46 22.5 -46 85.5q0 38 23 80.5t55 71.5h73q-36 -66 -36 -121q0 -31 18 -45t46 -14q15 0 29 2l-16 -79q-12 -3 -33 -3q-67 0 -113 22.5z" />
    <glyph glyph-name="uni1EBC" unicode="&#x1ebc;" horiz-adv-x="447" 
d="M60 810h364v-122h-185v-201h141v-124h-141v-242h187v-121h-366v810zM291 906.5q-16 6.5 -36 19.5q-18 10 -30.5 15.5t-24.5 5.5q-36 0 -36 -41h-78q-2 142 90 142q17 0 31 -5.5t35 -17.5q17 -10 30 -15.5t27 -5.5q31 0 31 38h72q0 -63 -15 -102.5t-62 -39.5
q-18 0 -34 6.5z" />
    <glyph glyph-name="uni01B7" unicode="&#x1b7;" horiz-adv-x="503" 
d="M425 426q43 -66 43 -188q0 -118 -53 -185.5t-168 -67.5q-121 0 -172.5 66t-51.5 188v29h167v-29q0 -70 13 -98.5t46 -28.5q32 0 43 27.5t11 94.5q0 62 -9 96t-33 49.5t-71 15.5h-87v89l152 205h-208v121h388v-101l-165 -216q112 -1 155 -67z" />
    <glyph glyph-name="uni01EE" unicode="&#x1ee;" horiz-adv-x="503" 
d="M425 426q43 -66 43 -188q0 -118 -53 -185.5t-168 -67.5q-121 0 -172.5 66t-51.5 188v29h167v-29q0 -70 13 -98.5t46 -28.5q32 0 43 27.5t11 94.5q0 62 -9 96t-33 49.5t-71 15.5h-87v89l152 205h-208v121h388v-101l-165 -216q112 -1 155 -67zM85 1058h116l51 -110l51 110
h116l-88 -187h-158z" />
    <glyph glyph-name="F" unicode="F" horiz-adv-x="434" 
d="M60 810h350v-121h-171v-204h149v-125h-149v-360h-179v810z" />
    <glyph glyph-name="uni1E1E" unicode="&#x1e1e;" horiz-adv-x="434" 
d="M60 810h350v-121h-171v-204h149v-125h-149v-360h-179v810zM141 1038h154v-154h-154v154z" />
    <glyph glyph-name="G" unicode="G" horiz-adv-x="582" 
d="M100 61q-51 73 -51 207v272q0 137 55.5 209t187.5 72q127 0 182 -62t55 -175v-52h-175v66q0 48 -11 72.5t-49 24.5q-39 0 -50.5 -27t-11.5 -75v-375q0 -48 14.5 -75.5t52.5 -27.5q70 0 70 105v95h-73v105h234v-420h-118l-10 67q-38 -79 -131 -79q-120 0 -171 73z" />
    <glyph glyph-name="uni01F4" unicode="&#x1f4;" horiz-adv-x="582" 
d="M100 61q-51 73 -51 207v272q0 137 55.5 209t187.5 72q127 0 182 -62t55 -175v-52h-175v66q0 48 -11 72.5t-49 24.5q-39 0 -50.5 -27t-11.5 -75v-375q0 -48 14.5 -75.5t52.5 -27.5q70 0 70 105v95h-73v105h234v-420h-118l-10 67q-38 -79 -131 -79q-120 0 -171 73z
M300 1075h166l-126 -201h-103z" />
    <glyph glyph-name="Gbreve" unicode="&#x11e;" horiz-adv-x="582" 
d="M100 61q-51 73 -51 207v272q0 137 55.5 209t187.5 72q127 0 182 -62t55 -175v-52h-175v66q0 48 -11 72.5t-49 24.5q-39 0 -50.5 -27t-11.5 -75v-375q0 -48 14.5 -75.5t52.5 -27.5q70 0 70 105v95h-73v105h234v-420h-118l-10 67q-38 -79 -131 -79q-120 0 -171 73z
M176.5 915.5q-42.5 40.5 -42.5 115.5h92q0 -38 15 -55.5t50 -17.5q34 0 49.5 18t15.5 55h92q0 -74 -42.5 -115t-114.5 -41t-114.5 40.5z" />
    <glyph glyph-name="Gcaron" unicode="&#x1e6;" horiz-adv-x="582" 
d="M100 61q-51 73 -51 207v272q0 137 55.5 209t187.5 72q127 0 182 -62t55 -175v-52h-175v66q0 48 -11 72.5t-49 24.5q-39 0 -50.5 -27t-11.5 -75v-375q0 -48 14.5 -75.5t52.5 -27.5q70 0 70 105v95h-73v105h234v-420h-118l-10 67q-38 -79 -131 -79q-120 0 -171 73z
M124 1058h116l51 -110l51 110h116l-88 -187h-158z" />
    <glyph glyph-name="Gcircumflex" unicode="&#x11c;" horiz-adv-x="582" 
d="M100 61q-51 73 -51 207v272q0 137 55.5 209t187.5 72q127 0 182 -62t55 -175v-52h-175v66q0 48 -11 72.5t-49 24.5q-39 0 -50.5 -27t-11.5 -75v-375q0 -48 14.5 -75.5t52.5 -27.5q70 0 70 105v95h-73v105h234v-420h-118l-10 67q-38 -79 -131 -79q-120 0 -171 73z
M223 1073h133l98 -192h-120l-44 119l-43 -119h-119z" />
    <glyph glyph-name="Gcommaaccent" unicode="&#x122;" horiz-adv-x="582" 
d="M100 61q-51 73 -51 207v272q0 137 55.5 209t187.5 72q127 0 182 -62t55 -175v-52h-175v66q0 48 -11 72.5t-49 24.5q-39 0 -50.5 -27t-11.5 -75v-375q0 -48 14.5 -75.5t52.5 -27.5q70 0 70 105v95h-73v105h234v-420h-118l-10 67q-38 -79 -131 -79q-120 0 -171 73z
M228 -302q33 6 52 24t19 57h-85v152h154l-1 -130q0 -154 -126 -157z" />
    <glyph glyph-name="Gdotaccent" unicode="&#x120;" horiz-adv-x="582" 
d="M100 61q-51 73 -51 207v272q0 137 55.5 209t187.5 72q127 0 182 -62t55 -175v-52h-175v66q0 48 -11 72.5t-49 24.5q-39 0 -50.5 -27t-11.5 -75v-375q0 -48 14.5 -75.5t52.5 -27.5q70 0 70 105v95h-73v105h234v-420h-118l-10 67q-38 -79 -131 -79q-120 0 -171 73z
M214 1038h154v-154h-154v154z" />
    <glyph glyph-name="uni01E4" unicode="&#x1e4;" horiz-adv-x="582" 
d="M586 189h-56v-189h-118l-10 67q-38 -79 -131 -79q-120 0 -171 73t-51 207v272q0 137 55.5 209t187.5 72q127 0 182 -62t55 -175v-52h-175v66q0 48 -11 72.5t-49 24.5q-39 0 -50.5 -27t-11.5 -75v-375q0 -48 14.5 -75.5t52.5 -27.5q31 0 47.5 20t20.5 54h-46v89h48v37h-73
v105h234v-142h56v-89z" />
    <glyph glyph-name="H" unicode="H" horiz-adv-x="610" 
d="M63 810h179v-328h125v328h180v-810h-180v354h-125v-354h-179v810z" />
    <glyph glyph-name="Hbar" unicode="&#x126;" horiz-adv-x="540" 
d="M38 615h-51v56h51v139h179v-139h117v139h180v-139h39v-56h-39v-615h-180v354h-117v-354h-179v615zM334 482v133h-117v-133h117z" />
    <glyph glyph-name="uni021E" unicode="&#x21e;" horiz-adv-x="610" 
d="M63 810h179v-328h125v328h180v-810h-180v354h-125v-354h-179v810zM138 1058h116l51 -110l51 110h116l-88 -187h-158z" />
    <glyph glyph-name="Hcircumflex" unicode="&#x124;" horiz-adv-x="610" 
d="M63 810h179v-328h125v328h180v-810h-180v354h-125v-354h-179v810zM237 1073h133l98 -192h-120l-44 119l-43 -119h-119z" />
    <glyph glyph-name="I" unicode="I" horiz-adv-x="301" 
d="M61 810h179v-810h-179v810z" />
    <glyph glyph-name="IJ" unicode="&#x132;" horiz-adv-x="650" 
d="M61 810h179v-810h-179v810zM314 104q39 0 59 6t29 23.5t9 52.5v624h179v-632q0 -69 -17 -112t-58.5 -65t-113.5 -22h-87v125z" />
    <glyph glyph-name="Iacute" unicode="&#xcd;" horiz-adv-x="301" 
d="M61 810h179v-810h-179v810zM159 1075h166l-126 -201h-103z" />
    <glyph glyph-name="Ibreve" unicode="&#x12c;" horiz-adv-x="301" 
d="M61 810h179v-810h-179v810zM35.5 915.5q-42.5 40.5 -42.5 115.5h92q0 -38 15 -55.5t50 -17.5q34 0 49.5 18t15.5 55h92q0 -74 -42.5 -115t-114.5 -41t-114.5 40.5z" />
    <glyph glyph-name="Icircumflex" unicode="&#xce;" horiz-adv-x="301" 
d="M61 810h179v-810h-179v810zM82 1073h133l98 -192h-120l-44 119l-43 -119h-119z" />
    <glyph glyph-name="uni0208" unicode="&#x208;" horiz-adv-x="301" 
d="M61 810h179v-810h-179v810zM-73 1077h124l64 -207h-88zM110 1077h119l59 -207h-86z" />
    <glyph glyph-name="Idieresis" unicode="&#xcf;" horiz-adv-x="301" 
d="M61 810h179v-810h-179v810zM-24 1042h130v-148h-130v148zM194 1042h130v-148h-130v148z" />
    <glyph glyph-name="Idotaccent" unicode="&#x130;" horiz-adv-x="301" 
d="M61 810h179v-810h-179v810zM73 1038h154v-154h-154v154z" />
    <glyph glyph-name="uni1ECA" unicode="&#x1eca;" horiz-adv-x="301" 
d="M61 810h179v-810h-179v810zM80 -70h140v-138h-140v138z" />
    <glyph glyph-name="Igrave" unicode="&#xcc;" horiz-adv-x="301" 
d="M61 810h179v-810h-179v810zM-25 1075h168l61 -201h-102z" />
    <glyph glyph-name="uni1EC8" unicode="&#x1ec8;" horiz-adv-x="301" 
d="M61 810h179v-810h-179v810zM95 911q39 19 55.5 31t16.5 33q0 35 -57 35q-32 0 -62 -7v68q48 13 102 13q53 0 87.5 -24t34.5 -75q0 -48 -32.5 -77t-89.5 -49z" />
    <glyph glyph-name="uni020A" unicode="&#x20a;" horiz-adv-x="301" 
d="M61 810h179v-810h-179v810zM34.5 998.5q41.5 41.5 115.5 41.5t115.5 -41.5t41.5 -117.5h-92q0 40 -15 58t-50 18t-50 -18t-15 -58h-92q0 76 41.5 117.5z" />
    <glyph glyph-name="Imacron" unicode="&#x12a;" horiz-adv-x="301" 
d="M61 810h179v-810h-179v810zM12 975h276v-77h-276v77z" />
    <glyph glyph-name="Iogonek" unicode="&#x12e;" horiz-adv-x="301" 
d="M61 810h179v-810h-179v810zM83 -237.5q-46 22.5 -46 85.5q0 38 23 80.5t55 71.5h73q-36 -66 -36 -121q0 -31 18 -45t46 -14q15 0 29 2l-16 -79q-12 -3 -33 -3q-67 0 -113 22.5z" />
    <glyph glyph-name="Itilde" unicode="&#x128;" horiz-adv-x="301" 
d="M61 810h179v-810h-179v810zM197 906.5q-16 6.5 -36 19.5q-18 10 -30.5 15.5t-24.5 5.5q-36 0 -36 -41h-78q-2 142 90 142q17 0 31 -5.5t35 -17.5q17 -10 30 -15.5t27 -5.5q31 0 31 38h72q0 -63 -15 -102.5t-62 -39.5q-18 0 -34 6.5z" />
    <glyph glyph-name="J" unicode="J" horiz-adv-x="349" 
d="M13 104q39 0 59 6t29 23.5t9 52.5v624h179v-632q0 -69 -17 -112t-58.5 -65t-113.5 -22h-87v125z" />
    <glyph glyph-name="Jcircumflex" unicode="&#x134;" horiz-adv-x="349" 
d="M13 104q39 0 59 6t29 23.5t9 52.5v624h179v-632q0 -69 -17 -112t-58.5 -65t-113.5 -22h-87v125zM132 1073h133l98 -192h-120l-44 119l-43 -119h-119z" />
    <glyph glyph-name="K" unicode="K" horiz-adv-x="567" 
d="M60 810h179v-331l136 331h175l-150 -366l157 -444h-182l-117 358l-19 -32v-326h-179v810z" />
    <glyph glyph-name="uni01E8" unicode="&#x1e8;" horiz-adv-x="567" 
d="M60 810h179v-331l136 331h175l-150 -366l157 -444h-182l-117 358l-19 -32v-326h-179v810zM130 1058h116l51 -110l51 110h116l-88 -187h-158z" />
    <glyph glyph-name="Kcommaaccent" unicode="&#x136;" horiz-adv-x="567" 
d="M60 810h179v-331l136 331h175l-150 -366l157 -444h-182l-117 358l-19 -32v-326h-179v810zM221 -302q33 6 52 24t19 57h-85v152h154l-1 -130q0 -154 -126 -157z" />
    <glyph glyph-name="L" unicode="L" horiz-adv-x="443" 
d="M60 810h179v-689h186v-121h-365v810z" />
    <glyph glyph-name="uni01C7" unicode="&#x1c7;" horiz-adv-x="792" 
d="M60 810h179v-689h186v-121h-365v810zM456 104q39 0 59 6t29 23.5t9 52.5v624h179v-632q0 -69 -17 -112t-58.5 -65t-113.5 -22h-87v125z" />
    <glyph glyph-name="Lacute" unicode="&#x139;" horiz-adv-x="443" 
d="M60 810h179v-689h186v-121h-365v810zM158 1075h166l-126 -201h-103z" />
    <glyph glyph-name="Lcaron" unicode="&#x13d;" horiz-adv-x="443" 
d="M60 810h179v-689h186v-121h-365v810zM315 569q71 18 71 88h-86v154h154v-134q0 -149 -129 -160z" />
    <glyph glyph-name="Lcommaaccent" unicode="&#x13b;" horiz-adv-x="443" 
d="M60 810h179v-689h186v-121h-365v810zM179 -302q33 6 52 24t19 57h-85v152h154l-1 -130q0 -154 -126 -157z" />
    <glyph glyph-name="Ldot" unicode="&#x13f;" horiz-adv-x="443" 
d="M60 810h179v-689h186v-121h-365v810zM316 530h111v-152h-111v152z" />
    <glyph glyph-name="uni01C8" unicode="&#x1c8;" horiz-adv-x="720" 
d="M60 810h179v-689h186v-121h-365v810zM507 789h163v-113h-163v113zM434 -167v117q18 -4 29 -4q44 0 44 49v583h163v-603q0 -70 -38.5 -112.5t-110.5 -42.5q-45 0 -87 13z" />
    <glyph glyph-name="Lslash" unicode="&#x141;" horiz-adv-x="450" 
d="M68 358l-60 -28v98l60 28v354h179v-270l98 47v-98l-98 -47v-321h186v-121h-365v358z" />
    <glyph glyph-name="M" unicode="M" horiz-adv-x="704" 
d="M71 810h192l89 -471l96 471h185l14 -810h-127l-15 539l-94 -539h-113l-100 543l-12 -543h-129z" />
    <glyph glyph-name="uni1E40" unicode="&#x1e40;" horiz-adv-x="704" 
d="M71 810h192l89 -471l96 471h185l14 -810h-127l-15 539l-94 -539h-113l-100 543l-12 -543h-129zM275 1038h154v-154h-154v154z" />
    <glyph glyph-name="N" unicode="N" horiz-adv-x="561" 
d="M60 810h126l166 -390v390h148v-810h-121l-166 420v-420h-153v810z" />
    <glyph glyph-name="uni01CA" unicode="&#x1ca;" horiz-adv-x="910" 
d="M60 810h126l166 -390v390h148v-810h-121l-166 420v-420h-153v810zM574 104q39 0 59 6t29 23.5t9 52.5v624h179v-632q0 -69 -17 -112t-58.5 -65t-113.5 -22h-87v125z" />
    <glyph glyph-name="Nacute" unicode="&#x143;" horiz-adv-x="561" 
d="M60 810h126l166 -390v390h148v-810h-121l-166 420v-420h-153v810zM289 1075h166l-126 -201h-103z" />
    <glyph glyph-name="Ncaron" unicode="&#x147;" horiz-adv-x="561" 
d="M60 810h126l166 -390v390h148v-810h-121l-166 420v-420h-153v810zM113 1058h116l51 -110l51 110h116l-88 -187h-158z" />
    <glyph glyph-name="Ncommaaccent" unicode="&#x145;" horiz-adv-x="561" 
d="M60 810h126l166 -390v390h148v-810h-121l-166 420v-420h-153v810zM217 -302q33 6 52 24t19 57h-85v152h154l-1 -130q0 -154 -126 -157z" />
    <glyph glyph-name="Eng" unicode="&#x14a;" horiz-adv-x="568" 
d="M245 -102q68 0 94 19t26 68v91l-150 344v-420h-152v810h127l167 -390v390h147v-810q0 -73 -15.5 -118t-56 -68t-113.5 -23h-74v107z" />
    <glyph glyph-name="uni01CB" unicode="&#x1cb;" horiz-adv-x="838" 
d="M60 810h126l166 -390v390h148v-810h-121l-166 420v-420h-153v810zM625 789h163v-113h-163v113zM552 -167v117q18 -4 29 -4q44 0 44 49v583h163v-603q0 -70 -38.5 -112.5t-110.5 -42.5q-45 0 -87 13z" />
    <glyph glyph-name="Ntilde" unicode="&#xd1;" horiz-adv-x="561" 
d="M60 810h126l166 -390v390h148v-810h-121l-166 420v-420h-153v810zM327 906.5q-16 6.5 -36 19.5q-18 10 -30.5 15.5t-24.5 5.5q-36 0 -36 -41h-78q-2 142 90 142q17 0 31 -5.5t35 -17.5q17 -10 30 -15.5t27 -5.5q31 0 31 38h72q0 -63 -15 -102.5t-62 -39.5q-18 0 -34 6.5z
" />
    <glyph glyph-name="O" unicode="O" horiz-adv-x="586" 
d="M105 55.5q-56 67.5 -56 199.5v301q0 132 56 198.5t187 66.5q132 0 188.5 -67t56.5 -198v-301q0 -132 -56.5 -199.5t-188.5 -67.5q-131 0 -187 67.5zM342 140.5q12 25.5 12 69.5v390q0 45 -12 70t-50 25q-36 0 -48 -25.5t-12 -69.5v-390q0 -44 11 -69.5t49 -25.5t50 25.5z
" />
    <glyph glyph-name="Oacute" unicode="&#xd3;" horiz-adv-x="586" 
d="M105 55.5q-56 67.5 -56 199.5v301q0 132 56 198.5t187 66.5q132 0 188.5 -67t56.5 -198v-301q0 -132 -56.5 -199.5t-188.5 -67.5q-131 0 -187 67.5zM342 140.5q12 25.5 12 69.5v390q0 45 -12 70t-50 25q-36 0 -48 -25.5t-12 -69.5v-390q0 -44 11 -69.5t49 -25.5t50 25.5z
M302 1075h166l-126 -201h-103z" />
    <glyph glyph-name="Obreve" unicode="&#x14e;" horiz-adv-x="586" 
d="M105 55.5q-56 67.5 -56 199.5v301q0 132 56 198.5t187 66.5q132 0 188.5 -67t56.5 -198v-301q0 -132 -56.5 -199.5t-188.5 -67.5q-131 0 -187 67.5zM342 140.5q12 25.5 12 69.5v390q0 45 -12 70t-50 25q-36 0 -48 -25.5t-12 -69.5v-390q0 -44 11 -69.5t49 -25.5t50 25.5z
M178.5 915.5q-42.5 40.5 -42.5 115.5h92q0 -38 15 -55.5t50 -17.5q34 0 49.5 18t15.5 55h92q0 -74 -42.5 -115t-114.5 -41t-114.5 40.5z" />
    <glyph glyph-name="Ocircumflex" unicode="&#xd4;" horiz-adv-x="586" 
d="M105 55.5q-56 67.5 -56 199.5v301q0 132 56 198.5t187 66.5q132 0 188.5 -67t56.5 -198v-301q0 -132 -56.5 -199.5t-188.5 -67.5q-131 0 -187 67.5zM342 140.5q12 25.5 12 69.5v390q0 45 -12 70t-50 25q-36 0 -48 -25.5t-12 -69.5v-390q0 -44 11 -69.5t49 -25.5t50 25.5z
M225 1073h133l98 -192h-120l-44 119l-43 -119h-119z" />
    <glyph glyph-name="uni1ED0" unicode="&#x1ed0;" horiz-adv-x="586" 
d="M105 55.5q-56 67.5 -56 199.5v301q0 132 56 198.5t187 66.5q132 0 188.5 -67t56.5 -198v-301q0 -132 -56.5 -199.5t-188.5 -67.5q-131 0 -187 67.5zM342 140.5q12 25.5 12 69.5v390q0 45 -12 70t-50 25q-36 0 -48 -25.5t-12 -69.5v-390q0 -44 11 -69.5t49 -25.5t50 25.5z
M481 1122h121l-88 -123h-86zM225 1048h133l98 -167h-116l-48 100l-47 -100h-115z" />
    <glyph glyph-name="uni1ED8" unicode="&#x1ed8;" horiz-adv-x="586" 
d="M105 55.5q-56 67.5 -56 199.5v301q0 132 56 198.5t187 66.5q132 0 188.5 -67t56.5 -198v-301q0 -132 -56.5 -199.5t-188.5 -67.5q-131 0 -187 67.5zM342 140.5q12 25.5 12 69.5v390q0 45 -12 70t-50 25q-36 0 -48 -25.5t-12 -69.5v-390q0 -44 11 -69.5t49 -25.5t50 25.5z
M225 1048h133l98 -167h-116l-48 100l-47 -100h-115zM223 -70h140v-138h-140v138z" />
    <glyph glyph-name="uni1ED2" unicode="&#x1ed2;" horiz-adv-x="586" 
d="M105 55.5q-56 67.5 -56 199.5v301q0 132 56 198.5t187 66.5q132 0 188.5 -67t56.5 -198v-301q0 -132 -56.5 -199.5t-188.5 -67.5q-131 0 -187 67.5zM342 140.5q12 25.5 12 69.5v390q0 45 -12 70t-50 25q-36 0 -48 -25.5t-12 -69.5v-390q0 -44 11 -69.5t49 -25.5t50 25.5z
M369 1122h122l53 -123h-87zM225 1048h133l98 -167h-116l-48 100l-47 -100h-115z" />
    <glyph glyph-name="uni1ED4" unicode="&#x1ed4;" horiz-adv-x="586" 
d="M105 55.5q-56 67.5 -56 199.5v301q0 132 56 198.5t187 66.5q132 0 188.5 -67t56.5 -198v-301q0 -132 -56.5 -199.5t-188.5 -67.5q-131 0 -187 67.5zM342 140.5q12 25.5 12 69.5v390q0 45 -12 70t-50 25q-36 0 -48 -25.5t-12 -69.5v-390q0 -44 11 -69.5t49 -25.5t50 25.5z
M423 1022q18 15 27.5 29t9.5 31q0 19 -12.5 29.5t-33.5 10.5q-25 0 -51 -10v68q42 16 82 16q52 0 83.5 -25.5t31.5 -73.5q0 -44 -24 -72.5t-67 -51.5zM225 1048h133l98 -167h-116l-48 100l-47 -100h-115z" />
    <glyph glyph-name="uni1ED6" unicode="&#x1ed6;" horiz-adv-x="586" 
d="M105 55.5q-56 67.5 -56 199.5v301q0 132 56 198.5t187 66.5q132 0 188.5 -67t56.5 -198v-301q0 -132 -56.5 -199.5t-188.5 -67.5q-131 0 -187 67.5zM342 140.5q12 25.5 12 69.5v390q0 45 -12 70t-50 25q-36 0 -48 -25.5t-12 -69.5v-390q0 -44 11 -69.5t49 -25.5t50 25.5z
M225 1048h133l98 -167h-116l-48 100l-47 -100h-115zM340 1103.5q-16 6.5 -36 19.5q-18 10 -30.5 15.5t-24.5 5.5q-36 0 -36 -41h-78q-2 142 90 142q17 0 31 -5.5t35 -17.5q17 -10 30 -15.5t27 -5.5q31 0 31 38h72q0 -63 -15 -102.5t-62 -39.5q-18 0 -34 6.5z" />
    <glyph glyph-name="uni020C" unicode="&#x20c;" horiz-adv-x="586" 
d="M105 55.5q-56 67.5 -56 199.5v301q0 132 56 198.5t187 66.5q132 0 188.5 -67t56.5 -198v-301q0 -132 -56.5 -199.5t-188.5 -67.5q-131 0 -187 67.5zM342 140.5q12 25.5 12 69.5v390q0 45 -12 70t-50 25q-36 0 -48 -25.5t-12 -69.5v-390q0 -44 11 -69.5t49 -25.5t50 25.5z
M70 1077h124l64 -207h-88zM253 1077h119l59 -207h-86z" />
    <glyph glyph-name="Odieresis" unicode="&#xd6;" horiz-adv-x="586" 
d="M105 55.5q-56 67.5 -56 199.5v301q0 132 56 198.5t187 66.5q132 0 188.5 -67t56.5 -198v-301q0 -132 -56.5 -199.5t-188.5 -67.5q-131 0 -187 67.5zM342 140.5q12 25.5 12 69.5v390q0 45 -12 70t-50 25q-36 0 -48 -25.5t-12 -69.5v-390q0 -44 11 -69.5t49 -25.5t50 25.5z
M119 1042h130v-148h-130v148zM337 1042h130v-148h-130v148z" />
    <glyph glyph-name="uni022A" unicode="&#x22a;" horiz-adv-x="586" 
d="M105 55.5q-56 67.5 -56 199.5v301q0 132 56 198.5t187 66.5q132 0 188.5 -67t56.5 -198v-301q0 -132 -56.5 -199.5t-188.5 -67.5q-131 0 -187 67.5zM342 140.5q12 25.5 12 69.5v390q0 45 -12 70t-50 25q-36 0 -48 -25.5t-12 -69.5v-390q0 -44 11 -69.5t49 -25.5t50 25.5z
M119 1042h130v-148h-130v148zM337 1042h130v-148h-130v148zM155 1207h276v-77h-276v77z" />
    <glyph glyph-name="uni0230" unicode="&#x230;" horiz-adv-x="586" 
d="M105 55.5q-56 67.5 -56 199.5v301q0 132 56 198.5t187 66.5q132 0 188.5 -67t56.5 -198v-301q0 -132 -56.5 -199.5t-188.5 -67.5q-131 0 -187 67.5zM342 140.5q12 25.5 12 69.5v390q0 45 -12 70t-50 25q-36 0 -48 -25.5t-12 -69.5v-390q0 -44 11 -69.5t49 -25.5t50 25.5z
M216 1038h154v-154h-154v154zM155 1203h276v-77h-276v77z" />
    <glyph glyph-name="uni1ECC" unicode="&#x1ecc;" horiz-adv-x="586" 
d="M105 55.5q-56 67.5 -56 199.5v301q0 132 56 198.5t187 66.5q132 0 188.5 -67t56.5 -198v-301q0 -132 -56.5 -199.5t-188.5 -67.5q-131 0 -187 67.5zM342 140.5q12 25.5 12 69.5v390q0 45 -12 70t-50 25q-36 0 -48 -25.5t-12 -69.5v-390q0 -44 11 -69.5t49 -25.5t50 25.5z
M223 -70h140v-138h-140v138z" />
    <glyph glyph-name="Ograve" unicode="&#xd2;" horiz-adv-x="586" 
d="M105 55.5q-56 67.5 -56 199.5v301q0 132 56 198.5t187 66.5q132 0 188.5 -67t56.5 -198v-301q0 -132 -56.5 -199.5t-188.5 -67.5q-131 0 -187 67.5zM342 140.5q12 25.5 12 69.5v390q0 45 -12 70t-50 25q-36 0 -48 -25.5t-12 -69.5v-390q0 -44 11 -69.5t49 -25.5t50 25.5z
M118 1075h168l61 -201h-102z" />
    <glyph glyph-name="uni1ECE" unicode="&#x1ece;" horiz-adv-x="586" 
d="M105 55.5q-56 67.5 -56 199.5v301q0 132 56 198.5t187 66.5q132 0 188.5 -67t56.5 -198v-301q0 -132 -56.5 -199.5t-188.5 -67.5q-131 0 -187 67.5zM342 140.5q12 25.5 12 69.5v390q0 45 -12 70t-50 25q-36 0 -48 -25.5t-12 -69.5v-390q0 -44 11 -69.5t49 -25.5t50 25.5z
M238 911q39 19 55.5 31t16.5 33q0 35 -57 35q-32 0 -62 -7v68q48 13 102 13q53 0 87.5 -24t34.5 -75q0 -48 -32.5 -77t-89.5 -49z" />
    <glyph glyph-name="Ohorn" unicode="&#x1a0;" horiz-adv-x="586" 
d="M105 55.5q-56 67.5 -56 199.5v301q0 132 56 198.5t187 66.5q132 0 188.5 -67t56.5 -198v-301q0 -132 -56.5 -199.5t-188.5 -67.5q-131 0 -187 67.5zM342 140.5q12 25.5 12 69.5v390q0 45 -12 70t-50 25q-36 0 -48 -25.5t-12 -69.5v-390q0 -44 11 -69.5t49 -25.5t50 25.5z
M344 810h20q29 0 41.5 20.5t12.5 65.5h114q0 -74 -45.5 -112.5t-122.5 -38.5h-20v65z" />
    <glyph glyph-name="uni1EDA" unicode="&#x1eda;" horiz-adv-x="586" 
d="M105 55.5q-56 67.5 -56 199.5v301q0 132 56 198.5t187 66.5q132 0 188.5 -67t56.5 -198v-301q0 -132 -56.5 -199.5t-188.5 -67.5q-131 0 -187 67.5zM342 140.5q12 25.5 12 69.5v390q0 45 -12 70t-50 25q-36 0 -48 -25.5t-12 -69.5v-390q0 -44 11 -69.5t49 -25.5t50 25.5z
M344 810h20q29 0 41.5 20.5t12.5 65.5h114q0 -74 -45.5 -112.5t-122.5 -38.5h-20v65zM302 1075h166l-126 -201h-103z" />
    <glyph glyph-name="uni1EE2" unicode="&#x1ee2;" horiz-adv-x="586" 
d="M105 55.5q-56 67.5 -56 199.5v301q0 132 56 198.5t187 66.5q132 0 188.5 -67t56.5 -198v-301q0 -132 -56.5 -199.5t-188.5 -67.5q-131 0 -187 67.5zM342 140.5q12 25.5 12 69.5v390q0 45 -12 70t-50 25q-36 0 -48 -25.5t-12 -69.5v-390q0 -44 11 -69.5t49 -25.5t50 25.5z
M344 810h20q29 0 41.5 20.5t12.5 65.5h114q0 -74 -45.5 -112.5t-122.5 -38.5h-20v65zM223 -70h140v-138h-140v138z" />
    <glyph glyph-name="uni1EDC" unicode="&#x1edc;" horiz-adv-x="586" 
d="M105 55.5q-56 67.5 -56 199.5v301q0 132 56 198.5t187 66.5q132 0 188.5 -67t56.5 -198v-301q0 -132 -56.5 -199.5t-188.5 -67.5q-131 0 -187 67.5zM342 140.5q12 25.5 12 69.5v390q0 45 -12 70t-50 25q-36 0 -48 -25.5t-12 -69.5v-390q0 -44 11 -69.5t49 -25.5t50 25.5z
M344 810h20q29 0 41.5 20.5t12.5 65.5h114q0 -74 -45.5 -112.5t-122.5 -38.5h-20v65zM118 1075h168l61 -201h-102z" />
    <glyph glyph-name="uni1EDE" unicode="&#x1ede;" horiz-adv-x="586" 
d="M105 55.5q-56 67.5 -56 199.5v301q0 132 56 198.5t187 66.5q132 0 188.5 -67t56.5 -198v-301q0 -132 -56.5 -199.5t-188.5 -67.5q-131 0 -187 67.5zM342 140.5q12 25.5 12 69.5v390q0 45 -12 70t-50 25q-36 0 -48 -25.5t-12 -69.5v-390q0 -44 11 -69.5t49 -25.5t50 25.5z
M344 810h20q29 0 41.5 20.5t12.5 65.5h114q0 -74 -45.5 -112.5t-122.5 -38.5h-20v65zM238 911q39 19 55.5 31t16.5 33q0 35 -57 35q-32 0 -62 -7v68q48 13 102 13q53 0 87.5 -24t34.5 -75q0 -48 -32.5 -77t-89.5 -49z" />
    <glyph glyph-name="uni1EE0" unicode="&#x1ee0;" horiz-adv-x="586" 
d="M105 55.5q-56 67.5 -56 199.5v301q0 132 56 198.5t187 66.5q132 0 188.5 -67t56.5 -198v-301q0 -132 -56.5 -199.5t-188.5 -67.5q-131 0 -187 67.5zM342 140.5q12 25.5 12 69.5v390q0 45 -12 70t-50 25q-36 0 -48 -25.5t-12 -69.5v-390q0 -44 11 -69.5t49 -25.5t50 25.5z
M344 810h20q29 0 41.5 20.5t12.5 65.5h114q0 -74 -45.5 -112.5t-122.5 -38.5h-20v65zM340 906.5q-16 6.5 -36 19.5q-18 10 -30.5 15.5t-24.5 5.5q-36 0 -36 -41h-78q-2 142 90 142q17 0 31 -5.5t35 -17.5q17 -10 30 -15.5t27 -5.5q31 0 31 38h72q0 -63 -15 -102.5t-62 -39.5
q-18 0 -34 6.5z" />
    <glyph glyph-name="Ohungarumlaut" unicode="&#x150;" horiz-adv-x="586" 
d="M105 55.5q-56 67.5 -56 199.5v301q0 132 56 198.5t187 66.5q132 0 188.5 -67t56.5 -198v-301q0 -132 -56.5 -199.5t-188.5 -67.5q-131 0 -187 67.5zM342 140.5q12 25.5 12 69.5v390q0 45 -12 70t-50 25q-36 0 -48 -25.5t-12 -69.5v-390q0 -44 11 -69.5t49 -25.5t50 25.5z
M217 1081h132l-108 -216h-84zM399 1081h140l-120 -216h-84z" />
    <glyph glyph-name="uni020E" unicode="&#x20e;" horiz-adv-x="586" 
d="M105 55.5q-56 67.5 -56 199.5v301q0 132 56 198.5t187 66.5q132 0 188.5 -67t56.5 -198v-301q0 -132 -56.5 -199.5t-188.5 -67.5q-131 0 -187 67.5zM342 140.5q12 25.5 12 69.5v390q0 45 -12 70t-50 25q-36 0 -48 -25.5t-12 -69.5v-390q0 -44 11 -69.5t49 -25.5t50 25.5z
M177.5 998.5q41.5 41.5 115.5 41.5t115.5 -41.5t41.5 -117.5h-92q0 40 -15 58t-50 18t-50 -18t-15 -58h-92q0 76 41.5 117.5z" />
    <glyph glyph-name="Omacron" unicode="&#x14c;" horiz-adv-x="586" 
d="M105 55.5q-56 67.5 -56 199.5v301q0 132 56 198.5t187 66.5q132 0 188.5 -67t56.5 -198v-301q0 -132 -56.5 -199.5t-188.5 -67.5q-131 0 -187 67.5zM342 140.5q12 25.5 12 69.5v390q0 45 -12 70t-50 25q-36 0 -48 -25.5t-12 -69.5v-390q0 -44 11 -69.5t49 -25.5t50 25.5z
M155 975h276v-77h-276v77z" />
    <glyph glyph-name="uni01EA" unicode="&#x1ea;" horiz-adv-x="586" 
d="M105 55.5q-56 67.5 -56 199.5v301q0 132 56 198.5t187 66.5q132 0 188.5 -67t56.5 -198v-301q0 -132 -56.5 -199.5t-188.5 -67.5q-131 0 -187 67.5zM342 140.5q12 25.5 12 69.5v390q0 45 -12 70t-50 25q-36 0 -48 -25.5t-12 -69.5v-390q0 -44 11 -69.5t49 -25.5t50 25.5z
M250 -237.5q-46 22.5 -46 85.5q0 38 23 80.5t55 71.5h73q-36 -66 -36 -121q0 -31 18 -45t46 -14q15 0 29 2l-16 -79q-12 -3 -33 -3q-67 0 -113 22.5z" />
    <glyph glyph-name="Oslash" unicode="&#xd8;" horiz-adv-x="572" 
d="M516 695q21 -57 21 -139v-301q0 -132 -56.5 -199.5t-188.5 -67.5q-79 0 -133 26l-39 -104l-39 16l42 112q-74 63 -74 217v301q0 132 56 198.5t187 66.5q70 0 117 -19l31 82l40 -15l-32 -86q47 -31 68 -88zM232 329l119 316q-5 24 -18.5 37t-40.5 13q-36 0 -48 -25.5
t-12 -69.5v-271zM342 140.5q12 25.5 12 69.5v323l-122 -325q0 -43 11.5 -68t48.5 -25q38 0 50 25.5z" />
    <glyph glyph-name="Oslashacute" unicode="&#x1fe;" horiz-adv-x="572" 
d="M516 695q21 -57 21 -139v-301q0 -132 -56.5 -199.5t-188.5 -67.5q-79 0 -133 26l-39 -104l-39 16l42 112q-74 63 -74 217v301q0 132 56 198.5t187 66.5q70 0 117 -19l31 82l40 -15l-32 -86q47 -31 68 -88zM232 329l119 316q-5 24 -18.5 37t-40.5 13q-36 0 -48 -25.5
t-12 -69.5v-271zM342 140.5q12 25.5 12 69.5v323l-122 -325q0 -43 11.5 -68t48.5 -25q38 0 50 25.5zM295 1075h166l-126 -201h-103z" />
    <glyph glyph-name="Otilde" unicode="&#xd5;" horiz-adv-x="586" 
d="M105 55.5q-56 67.5 -56 199.5v301q0 132 56 198.5t187 66.5q132 0 188.5 -67t56.5 -198v-301q0 -132 -56.5 -199.5t-188.5 -67.5q-131 0 -187 67.5zM342 140.5q12 25.5 12 69.5v390q0 45 -12 70t-50 25q-36 0 -48 -25.5t-12 -69.5v-390q0 -44 11 -69.5t49 -25.5t50 25.5z
M340 906.5q-16 6.5 -36 19.5q-18 10 -30.5 15.5t-24.5 5.5q-36 0 -36 -41h-78q-2 142 90 142q17 0 31 -5.5t35 -17.5q17 -10 30 -15.5t27 -5.5q31 0 31 38h72q0 -63 -15 -102.5t-62 -39.5q-18 0 -34 6.5z" />
    <glyph glyph-name="uni022C" unicode="&#x22c;" horiz-adv-x="586" 
d="M105 55.5q-56 67.5 -56 199.5v301q0 132 56 198.5t187 66.5q132 0 188.5 -67t56.5 -198v-301q0 -132 -56.5 -199.5t-188.5 -67.5q-131 0 -187 67.5zM342 140.5q12 25.5 12 69.5v390q0 45 -12 70t-50 25q-36 0 -48 -25.5t-12 -69.5v-390q0 -44 11 -69.5t49 -25.5t50 25.5z
M340 906.5q-16 6.5 -36 19.5q-18 10 -30.5 15.5t-24.5 5.5q-36 0 -36 -41h-78q-2 142 90 142q17 0 31 -5.5t35 -17.5q17 -10 30 -15.5t27 -5.5q31 0 31 38h72q0 -63 -15 -102.5t-62 -39.5q-18 0 -34 6.5zM155 1213h276v-77h-276v77z" />
    <glyph glyph-name="OE" unicode="&#x152;" horiz-adv-x="718" 
d="M106 71.5q-57 71.5 -57 206.5v242q0 287 244 287h398v-122h-168v-204h124v-125h-124v-235h169v-121h-397q-132 0 -189 71.5zM345 124v556h-50q-43 0 -55 -34t-12 -94v-308q0 -56 12.5 -88t54.5 -32h50z" />
    <glyph glyph-name="P" unicode="P" horiz-adv-x="571" 
d="M60 810h272q107 0 160 -60.5t53 -174.5q0 -130 -61.5 -180.5t-172.5 -50.5h-72v-344h-179v810zM299 469q47 0 62.5 25t15.5 84q0 54 -15 80t-64 26h-59v-215h60z" />
    <glyph glyph-name="uni1E56" unicode="&#x1e56;" horiz-adv-x="571" 
d="M60 810h272q107 0 160 -60.5t53 -174.5q0 -130 -61.5 -180.5t-172.5 -50.5h-72v-344h-179v810zM299 469q47 0 62.5 25t15.5 84q0 54 -15 80t-64 26h-59v-215h60zM209 1038h154v-154h-154v154z" />
    <glyph glyph-name="Thorn" unicode="&#xde;" horiz-adv-x="562" 
d="M51 810h180v-108h78q122 0 180 -53t58 -172q0 -95 -26.5 -147.5t-79.5 -74t-141 -21.5h-69v-234h-180v810zM288 361q52 0 74 24.5t22 82.5q0 55 -21 80t-71 25h-61v-212h57z" />
    <glyph glyph-name="Q" unicode="Q" horiz-adv-x="586" 
d="M389 -100.5q-50 43.5 -80 89.5q-5 -1 -17 -1q-131 0 -187 67.5t-56 199.5v301q0 132 56 198.5t187 66.5q132 0 188.5 -67t56.5 -198v-301q0 -89 -25.5 -148.5t-81.5 -88.5q51 -55 83 -71l-38 -106q-36 15 -86 58.5zM342 140.5q12 25.5 12 69.5v390q0 45 -12 70t-50 25
t-49 -24.5t-11 -70.5v-390q0 -44 11 -69.5t49 -25.5t50 25.5z" />
    <glyph glyph-name="R" unicode="R" horiz-adv-x="600" 
d="M60 810h223q133 0 201 -47t68 -167q0 -81 -21 -129t-78 -75l111 -392h-185l-89 363h-51v-363h-179v810zM289 466q54 0 75.5 28.5t21.5 85.5q0 55 -20 82.5t-69 27.5h-58v-224h50z" />
    <glyph glyph-name="Racute" unicode="&#x154;" horiz-adv-x="600" 
d="M60 810h223q133 0 201 -47t68 -167q0 -81 -21 -129t-78 -75l111 -392h-185l-89 363h-51v-363h-179v810zM289 466q54 0 75.5 28.5t21.5 85.5q0 55 -20 82.5t-69 27.5h-58v-224h50zM309 1075h166l-126 -201h-103z" />
    <glyph glyph-name="Rcaron" unicode="&#x158;" horiz-adv-x="600" 
d="M60 810h223q133 0 201 -47t68 -167q0 -81 -21 -129t-78 -75l111 -392h-185l-89 363h-51v-363h-179v810zM289 466q54 0 75.5 28.5t21.5 85.5q0 55 -20 82.5t-69 27.5h-58v-224h50zM133 1058h116l51 -110l51 110h116l-88 -187h-158z" />
    <glyph glyph-name="Rcommaaccent" unicode="&#x156;" horiz-adv-x="600" 
d="M60 810h223q133 0 201 -47t68 -167q0 -81 -21 -129t-78 -75l111 -392h-185l-89 363h-51v-363h-179v810zM289 466q54 0 75.5 28.5t21.5 85.5q0 55 -20 82.5t-69 27.5h-58v-224h50zM237 -302q33 6 52 24t19 57h-85v152h154l-1 -130q0 -154 -126 -157z" />
    <glyph glyph-name="uni0210" unicode="&#x210;" horiz-adv-x="600" 
d="M60 810h223q133 0 201 -47t68 -167q0 -81 -21 -129t-78 -75l111 -392h-185l-89 363h-51v-363h-179v810zM289 466q54 0 75.5 28.5t21.5 85.5q0 55 -20 82.5t-69 27.5h-58v-224h50zM77 1077h124l64 -207h-88zM260 1077h119l59 -207h-86z" />
    <glyph glyph-name="uni0212" unicode="&#x212;" horiz-adv-x="600" 
d="M60 810h223q133 0 201 -47t68 -167q0 -81 -21 -129t-78 -75l111 -392h-185l-89 363h-51v-363h-179v810zM289 466q54 0 75.5 28.5t21.5 85.5q0 55 -20 82.5t-69 27.5h-58v-224h50zM184.5 998.5q41.5 41.5 115.5 41.5t115.5 -41.5t41.5 -117.5h-92q0 40 -15 58t-50 18
t-50 -18t-15 -58h-92q0 76 41.5 117.5z" />
    <glyph glyph-name="S" unicode="S" horiz-adv-x="514" 
d="M102.5 49.5q-56.5 61.5 -60.5 195.5l153 23q1 -77 18.5 -110.5t52.5 -33.5q45 0 45 59q0 47 -21.5 81t-67.5 73l-70 61q-52 44 -80.5 93.5t-28.5 117.5q0 102 60.5 157t166.5 55q115 0 156.5 -67t44.5 -163l-154 -19q-2 63 -11.5 90.5t-41.5 27.5q-23 0 -35.5 -19.5
t-12.5 -43.5q0 -41 18.5 -69t59.5 -64l67 -59q60 -51 93 -108t33 -135q0 -57 -26.5 -103.5t-74.5 -73.5t-111 -27q-116 0 -172.5 61.5z" />
    <glyph glyph-name="Sacute" unicode="&#x15a;" horiz-adv-x="514" 
d="M102.5 49.5q-56.5 61.5 -60.5 195.5l153 23q1 -77 18.5 -110.5t52.5 -33.5q45 0 45 59q0 47 -21.5 81t-67.5 73l-70 61q-52 44 -80.5 93.5t-28.5 117.5q0 102 60.5 157t166.5 55q115 0 156.5 -67t44.5 -163l-154 -19q-2 63 -11.5 90.5t-41.5 27.5q-23 0 -35.5 -19.5
t-12.5 -43.5q0 -41 18.5 -69t59.5 -64l67 -59q60 -51 93 -108t33 -135q0 -57 -26.5 -103.5t-74.5 -73.5t-111 -27q-116 0 -172.5 61.5zM266 1075h166l-126 -201h-103z" />
    <glyph glyph-name="Scaron" unicode="&#x160;" horiz-adv-x="514" 
d="M102.5 49.5q-56.5 61.5 -60.5 195.5l153 23q1 -77 18.5 -110.5t52.5 -33.5q45 0 45 59q0 47 -21.5 81t-67.5 73l-70 61q-52 44 -80.5 93.5t-28.5 117.5q0 102 60.5 157t166.5 55q115 0 156.5 -67t44.5 -163l-154 -19q-2 63 -11.5 90.5t-41.5 27.5q-23 0 -35.5 -19.5
t-12.5 -43.5q0 -41 18.5 -69t59.5 -64l67 -59q60 -51 93 -108t33 -135q0 -57 -26.5 -103.5t-74.5 -73.5t-111 -27q-116 0 -172.5 61.5zM90 1058h116l51 -110l51 110h116l-88 -187h-158z" />
    <glyph glyph-name="Scedilla" unicode="&#x15e;" horiz-adv-x="514" 
d="M102.5 49.5q-56.5 61.5 -60.5 195.5l153 23q1 -77 18.5 -110.5t52.5 -33.5q45 0 45 59q0 47 -21.5 81t-67.5 73l-70 61q-52 44 -80.5 93.5t-28.5 117.5q0 102 60.5 157t166.5 55q115 0 156.5 -67t44.5 -163l-154 -19q-2 63 -11.5 90.5t-41.5 27.5q-23 0 -35.5 -19.5
t-12.5 -43.5q0 -41 18.5 -69t59.5 -64l67 -59q60 -51 93 -108t33 -135q0 -57 -26.5 -103.5t-74.5 -73.5t-111 -27q-116 0 -172.5 61.5zM201 -265v70q28 -8 57 -8q62 0 62 35q0 25 -27.5 37.5t-64.5 14.5v116h59v-66q64 0 100.5 -26t36.5 -78q0 -54 -42 -80.5t-105 -26.5
q-40 0 -76 12z" />
    <glyph glyph-name="Scircumflex" unicode="&#x15c;" horiz-adv-x="514" 
d="M102.5 49.5q-56.5 61.5 -60.5 195.5l153 23q1 -77 18.5 -110.5t52.5 -33.5q45 0 45 59q0 47 -21.5 81t-67.5 73l-70 61q-52 44 -80.5 93.5t-28.5 117.5q0 102 60.5 157t166.5 55q115 0 156.5 -67t44.5 -163l-154 -19q-2 63 -11.5 90.5t-41.5 27.5q-23 0 -35.5 -19.5
t-12.5 -43.5q0 -41 18.5 -69t59.5 -64l67 -59q60 -51 93 -108t33 -135q0 -57 -26.5 -103.5t-74.5 -73.5t-111 -27q-116 0 -172.5 61.5zM189 1073h133l98 -192h-120l-44 119l-43 -119h-119z" />
    <glyph glyph-name="Scommaaccent" unicode="&#x218;" horiz-adv-x="514" 
d="M102.5 49.5q-56.5 61.5 -60.5 195.5l153 23q1 -77 18.5 -110.5t52.5 -33.5q45 0 45 59q0 47 -21.5 81t-67.5 73l-70 61q-52 44 -80.5 93.5t-28.5 117.5q0 102 60.5 157t166.5 55q115 0 156.5 -67t44.5 -163l-154 -19q-2 63 -11.5 90.5t-41.5 27.5q-23 0 -35.5 -19.5
t-12.5 -43.5q0 -41 18.5 -69t59.5 -64l67 -59q60 -51 93 -108t33 -135q0 -57 -26.5 -103.5t-74.5 -73.5t-111 -27q-116 0 -172.5 61.5zM194 -302q33 6 52 24t19 57h-85v152h154l-1 -130q0 -154 -126 -157z" />
    <glyph glyph-name="uni1E60" unicode="&#x1e60;" horiz-adv-x="514" 
d="M102.5 49.5q-56.5 61.5 -60.5 195.5l153 23q1 -77 18.5 -110.5t52.5 -33.5q45 0 45 59q0 47 -21.5 81t-67.5 73l-70 61q-52 44 -80.5 93.5t-28.5 117.5q0 102 60.5 157t166.5 55q115 0 156.5 -67t44.5 -163l-154 -19q-2 63 -11.5 90.5t-41.5 27.5q-23 0 -35.5 -19.5
t-12.5 -43.5q0 -41 18.5 -69t59.5 -64l67 -59q60 -51 93 -108t33 -135q0 -57 -26.5 -103.5t-74.5 -73.5t-111 -27q-116 0 -172.5 61.5zM180 1038h154v-154h-154v154z" />
    <glyph glyph-name="uni1E9E" unicode="&#x1e9e;" horiz-adv-x="622" 
d="M552.5 374.5q36.5 -53.5 36.5 -139.5q0 -128 -65 -187.5t-193 -59.5h-30v122h19q47 0 72 30t25 92q0 61 -23.5 91.5t-73.5 30.5h-9v118l109 208q-32 15 -72 15q-114 0 -114 -133v-562h-180v557q0 122 69 193t207 71q65 0 118 -14t103 -41v-119l-107 -201
q72 -18 108.5 -71.5z" />
    <glyph glyph-name="uni018F" unicode="&#x18f;" horiz-adv-x="582" 
d="M109 51.5q-64 63.5 -64 184.5v185h305v185q0 48 -15 68.5t-47 20.5q-30 0 -45 -20.5t-15 -68.5v-115h-183v83q0 121 64 184t182 63q112 0 177 -68t65 -189v-320q0 -121 -64.5 -188.5t-177.5 -67.5q-118 0 -182 63.5zM335 135q15 21 15 67v111h-122v-111q0 -46 15 -67
t46 -21t46 21z" />
    <glyph glyph-name="T" unicode="T" horiz-adv-x="445" 
d="M133 677h-122v133h423v-133h-121v-677h-180v677z" />
    <glyph glyph-name="Tbar" unicode="&#x166;" horiz-adv-x="447" 
d="M313 677v-221h93v-87h-93v-369h-180v369h-87v87h87v221h-122v133h423v-133h-121z" />
    <glyph glyph-name="Tcaron" unicode="&#x164;" horiz-adv-x="445" 
d="M133 677h-122v133h423v-133h-121v-677h-180v677zM55 1058h116l51 -110l51 110h116l-88 -187h-158z" />
    <glyph glyph-name="uni0162" unicode="&#x162;" horiz-adv-x="445" 
d="M133 677h-122v133h423v-133h-121v-677h-180v677zM166 -265v70q28 -8 57 -8q62 0 62 35q0 25 -27.5 37.5t-64.5 14.5v116h59v-66q64 0 100.5 -26t36.5 -78q0 -54 -42 -80.5t-105 -26.5q-40 0 -76 12z" />
    <glyph glyph-name="uni021A" unicode="&#x21a;" horiz-adv-x="445" 
d="M133 677h-122v133h423v-133h-121v-677h-180v677zM159 -302q33 6 52 24t19 57h-85v152h154l-1 -130q0 -154 -126 -157z" />
    <glyph glyph-name="uni1E6A" unicode="&#x1e6a;" horiz-adv-x="445" 
d="M133 677h-122v133h423v-133h-121v-677h-180v677zM145 1038h154v-154h-154v154z" />
    <glyph glyph-name="U" unicode="U" horiz-adv-x="588" 
d="M150 17.5q-53 29.5 -74.5 87t-21.5 146.5v559h177v-586q0 -49 12.5 -78t50.5 -29t50 29t12 78v586h178v-559q0 -89 -22 -146.5t-74.5 -87t-143.5 -29.5t-144 29.5z" />
    <glyph glyph-name="Uacute" unicode="&#xda;" horiz-adv-x="588" 
d="M150 17.5q-53 29.5 -74.5 87t-21.5 146.5v559h177v-586q0 -49 12.5 -78t50.5 -29t50 29t12 78v586h178v-559q0 -89 -22 -146.5t-74.5 -87t-143.5 -29.5t-144 29.5zM303 1075h166l-126 -201h-103z" />
    <glyph glyph-name="Ubreve" unicode="&#x16c;" horiz-adv-x="588" 
d="M150 17.5q-53 29.5 -74.5 87t-21.5 146.5v559h177v-586q0 -49 12.5 -78t50.5 -29t50 29t12 78v586h178v-559q0 -89 -22 -146.5t-74.5 -87t-143.5 -29.5t-144 29.5zM179.5 915.5q-42.5 40.5 -42.5 115.5h92q0 -38 15 -55.5t50 -17.5q34 0 49.5 18t15.5 55h92
q0 -74 -42.5 -115t-114.5 -41t-114.5 40.5z" />
    <glyph glyph-name="uni01D3" unicode="&#x1d3;" horiz-adv-x="588" 
d="M150 17.5q-53 29.5 -74.5 87t-21.5 146.5v559h177v-586q0 -49 12.5 -78t50.5 -29t50 29t12 78v586h178v-559q0 -89 -22 -146.5t-74.5 -87t-143.5 -29.5t-144 29.5zM127 1058h116l51 -110l51 110h116l-88 -187h-158z" />
    <glyph glyph-name="Ucircumflex" unicode="&#xdb;" horiz-adv-x="588" 
d="M150 17.5q-53 29.5 -74.5 87t-21.5 146.5v559h177v-586q0 -49 12.5 -78t50.5 -29t50 29t12 78v586h178v-559q0 -89 -22 -146.5t-74.5 -87t-143.5 -29.5t-144 29.5zM226 1073h133l98 -192h-120l-44 119l-43 -119h-119z" />
    <glyph glyph-name="uni0214" unicode="&#x214;" horiz-adv-x="588" 
d="M150 17.5q-53 29.5 -74.5 87t-21.5 146.5v559h177v-586q0 -49 12.5 -78t50.5 -29t50 29t12 78v586h178v-559q0 -89 -22 -146.5t-74.5 -87t-143.5 -29.5t-144 29.5zM71 1077h124l64 -207h-88zM254 1077h119l59 -207h-86z" />
    <glyph glyph-name="Udieresis" unicode="&#xdc;" horiz-adv-x="588" 
d="M150 17.5q-53 29.5 -74.5 87t-21.5 146.5v559h177v-586q0 -49 12.5 -78t50.5 -29t50 29t12 78v586h178v-559q0 -89 -22 -146.5t-74.5 -87t-143.5 -29.5t-144 29.5zM120 1042h130v-148h-130v148zM338 1042h130v-148h-130v148z" />
    <glyph glyph-name="uni1EE4" unicode="&#x1ee4;" horiz-adv-x="588" 
d="M150 17.5q-53 29.5 -74.5 87t-21.5 146.5v559h177v-586q0 -49 12.5 -78t50.5 -29t50 29t12 78v586h178v-559q0 -89 -22 -146.5t-74.5 -87t-143.5 -29.5t-144 29.5zM224 -70h140v-138h-140v138z" />
    <glyph glyph-name="Ugrave" unicode="&#xd9;" horiz-adv-x="588" 
d="M150 17.5q-53 29.5 -74.5 87t-21.5 146.5v559h177v-586q0 -49 12.5 -78t50.5 -29t50 29t12 78v586h178v-559q0 -89 -22 -146.5t-74.5 -87t-143.5 -29.5t-144 29.5zM119 1075h168l61 -201h-102z" />
    <glyph glyph-name="uni1EE6" unicode="&#x1ee6;" horiz-adv-x="588" 
d="M150 17.5q-53 29.5 -74.5 87t-21.5 146.5v559h177v-586q0 -49 12.5 -78t50.5 -29t50 29t12 78v586h178v-559q0 -89 -22 -146.5t-74.5 -87t-143.5 -29.5t-144 29.5zM239 911q39 19 55.5 31t16.5 33q0 35 -57 35q-32 0 -62 -7v68q48 13 102 13q53 0 87.5 -24t34.5 -75
q0 -48 -32.5 -77t-89.5 -49z" />
    <glyph glyph-name="Uhorn" unicode="&#x1af;" horiz-adv-x="588" 
d="M150 17.5q-53 29.5 -74.5 87t-21.5 146.5v559h177v-586q0 -49 12.5 -78t50.5 -29t50 29t12 78v586h178v-559q0 -89 -22 -146.5t-74.5 -87t-143.5 -29.5t-144 29.5zM425 810h10q29 0 41.5 20.5t12.5 65.5h114q0 -74 -45.5 -112.5t-122.5 -38.5h-10v65z" />
    <glyph glyph-name="uni1EE8" unicode="&#x1ee8;" horiz-adv-x="588" 
d="M150 17.5q-53 29.5 -74.5 87t-21.5 146.5v559h177v-586q0 -49 12.5 -78t50.5 -29t50 29t12 78v586h178v-559q0 -89 -22 -146.5t-74.5 -87t-143.5 -29.5t-144 29.5zM425 810h10q29 0 41.5 20.5t12.5 65.5h114q0 -74 -45.5 -112.5t-122.5 -38.5h-10v65zM303 1075h166
l-126 -201h-103z" />
    <glyph glyph-name="uni1EF0" unicode="&#x1ef0;" horiz-adv-x="588" 
d="M150 17.5q-53 29.5 -74.5 87t-21.5 146.5v559h177v-586q0 -49 12.5 -78t50.5 -29t50 29t12 78v586h178v-559q0 -89 -22 -146.5t-74.5 -87t-143.5 -29.5t-144 29.5zM425 810h10q29 0 41.5 20.5t12.5 65.5h114q0 -74 -45.5 -112.5t-122.5 -38.5h-10v65zM224 -70h140v-138
h-140v138z" />
    <glyph glyph-name="uni1EEA" unicode="&#x1eea;" horiz-adv-x="588" 
d="M150 17.5q-53 29.5 -74.5 87t-21.5 146.5v559h177v-586q0 -49 12.5 -78t50.5 -29t50 29t12 78v586h178v-559q0 -89 -22 -146.5t-74.5 -87t-143.5 -29.5t-144 29.5zM425 810h10q29 0 41.5 20.5t12.5 65.5h114q0 -74 -45.5 -112.5t-122.5 -38.5h-10v65zM119 1075h168
l61 -201h-102z" />
    <glyph glyph-name="uni1EEC" unicode="&#x1eec;" horiz-adv-x="588" 
d="M150 17.5q-53 29.5 -74.5 87t-21.5 146.5v559h177v-586q0 -49 12.5 -78t50.5 -29t50 29t12 78v586h178v-559q0 -89 -22 -146.5t-74.5 -87t-143.5 -29.5t-144 29.5zM425 810h10q29 0 41.5 20.5t12.5 65.5h114q0 -74 -45.5 -112.5t-122.5 -38.5h-10v65zM239 911
q39 19 55.5 31t16.5 33q0 35 -57 35q-32 0 -62 -7v68q48 13 102 13q53 0 87.5 -24t34.5 -75q0 -48 -32.5 -77t-89.5 -49z" />
    <glyph glyph-name="uni1EEE" unicode="&#x1eee;" horiz-adv-x="588" 
d="M150 17.5q-53 29.5 -74.5 87t-21.5 146.5v559h177v-586q0 -49 12.5 -78t50.5 -29t50 29t12 78v586h178v-559q0 -89 -22 -146.5t-74.5 -87t-143.5 -29.5t-144 29.5zM425 810h10q29 0 41.5 20.5t12.5 65.5h114q0 -74 -45.5 -112.5t-122.5 -38.5h-10v65zM341 906.5
q-16 6.5 -36 19.5q-18 10 -30.5 15.5t-24.5 5.5q-36 0 -36 -41h-78q-2 142 90 142q17 0 31 -5.5t35 -17.5q17 -10 30 -15.5t27 -5.5q31 0 31 38h72q0 -63 -15 -102.5t-62 -39.5q-18 0 -34 6.5z" />
    <glyph glyph-name="Uhungarumlaut" unicode="&#x170;" horiz-adv-x="588" 
d="M150 17.5q-53 29.5 -74.5 87t-21.5 146.5v559h177v-586q0 -49 12.5 -78t50.5 -29t50 29t12 78v586h178v-559q0 -89 -22 -146.5t-74.5 -87t-143.5 -29.5t-144 29.5zM218 1081h132l-108 -216h-84zM400 1081h140l-120 -216h-84z" />
    <glyph glyph-name="uni0216" unicode="&#x216;" horiz-adv-x="588" 
d="M150 17.5q-53 29.5 -74.5 87t-21.5 146.5v559h177v-586q0 -49 12.5 -78t50.5 -29t50 29t12 78v586h178v-559q0 -89 -22 -146.5t-74.5 -87t-143.5 -29.5t-144 29.5zM178.5 998.5q41.5 41.5 115.5 41.5t115.5 -41.5t41.5 -117.5h-92q0 40 -15 58t-50 18t-50 -18t-15 -58
h-92q0 76 41.5 117.5z" />
    <glyph glyph-name="Umacron" unicode="&#x16a;" horiz-adv-x="588" 
d="M150 17.5q-53 29.5 -74.5 87t-21.5 146.5v559h177v-586q0 -49 12.5 -78t50.5 -29t50 29t12 78v586h178v-559q0 -89 -22 -146.5t-74.5 -87t-143.5 -29.5t-144 29.5zM156 975h276v-77h-276v77z" />
    <glyph glyph-name="Uogonek" unicode="&#x172;" horiz-adv-x="588" 
d="M150 17.5q-53 29.5 -74.5 87t-21.5 146.5v559h177v-586q0 -49 12.5 -78t50.5 -29t50 29t12 78v586h178v-559q0 -89 -22 -146.5t-74.5 -87t-143.5 -29.5t-144 29.5zM251 -237.5q-46 22.5 -46 85.5q0 38 23 80.5t55 71.5h73q-36 -66 -36 -121q0 -31 18 -45t46 -14
q15 0 29 2l-16 -79q-12 -3 -33 -3q-67 0 -113 22.5z" />
    <glyph glyph-name="Uring" unicode="&#x16e;" horiz-adv-x="588" 
d="M150 17.5q-53 29.5 -74.5 87t-21.5 146.5v559h177v-586q0 -49 12.5 -78t50.5 -29t50 29t12 78v586h178v-559q0 -89 -22 -146.5t-74.5 -87t-143.5 -29.5t-144 29.5zM210 882.5q-33 28.5 -33 80.5t33 81t83 29t84 -29t34 -81t-33.5 -80.5t-84.5 -28.5q-50 0 -83 28.5z
M330 926q13 15 13 37q0 23 -13 38t-37 15q-23 0 -36 -15t-13 -38q0 -22 13 -37t36 -15q24 0 37 15z" />
    <glyph glyph-name="Utilde" unicode="&#x168;" horiz-adv-x="588" 
d="M150 17.5q-53 29.5 -74.5 87t-21.5 146.5v559h177v-586q0 -49 12.5 -78t50.5 -29t50 29t12 78v586h178v-559q0 -89 -22 -146.5t-74.5 -87t-143.5 -29.5t-144 29.5zM341 906.5q-16 6.5 -36 19.5q-18 10 -30.5 15.5t-24.5 5.5q-36 0 -36 -41h-78q-2 142 90 142
q17 0 31 -5.5t35 -17.5q17 -10 30 -15.5t27 -5.5q31 0 31 38h72q0 -63 -15 -102.5t-62 -39.5q-18 0 -34 6.5z" />
    <glyph glyph-name="V" unicode="V" horiz-adv-x="526" 
d="M22 810h153l87 -550l81 550h162l-148 -810h-189z" />
    <glyph glyph-name="W" unicode="W" horiz-adv-x="697" 
d="M27 810h152l48 -472l61 471h119l64 -468l49 469h150l-97 -810h-156l-69 489l-65 -489h-158z" />
    <glyph glyph-name="Wacute" unicode="&#x1e82;" horiz-adv-x="697" 
d="M27 810h152l48 -472l61 471h119l64 -468l49 469h150l-97 -810h-156l-69 489l-65 -489h-158zM358 1075h166l-126 -201h-103z" />
    <glyph glyph-name="Wcircumflex" unicode="&#x174;" horiz-adv-x="697" 
d="M27 810h152l48 -472l61 471h119l64 -468l49 469h150l-97 -810h-156l-69 489l-65 -489h-158zM281 1073h133l98 -192h-120l-44 119l-43 -119h-119z" />
    <glyph glyph-name="Wdieresis" unicode="&#x1e84;" horiz-adv-x="697" 
d="M27 810h152l48 -472l61 471h119l64 -468l49 469h150l-97 -810h-156l-69 489l-65 -489h-158zM175 1042h130v-148h-130v148zM393 1042h130v-148h-130v148z" />
    <glyph glyph-name="Wgrave" unicode="&#x1e80;" horiz-adv-x="697" 
d="M27 810h152l48 -472l61 471h119l64 -468l49 469h150l-97 -810h-156l-69 489l-65 -489h-158zM174 1075h168l61 -201h-102z" />
    <glyph glyph-name="X" unicode="X" horiz-adv-x="515" 
d="M164 436l-150 374h169l89 -219l72 219h149l-142 -421l158 -389h-168l-99 242l-87 -242h-148z" />
    <glyph glyph-name="Y" unicode="Y" horiz-adv-x="493" 
d="M162 331l-154 479h169l77 -256l69 256h162l-151 -479v-331h-172v331z" />
    <glyph glyph-name="Yacute" unicode="&#xdd;" horiz-adv-x="493" 
d="M162 331l-154 479h169l77 -256l69 256h162l-151 -479v-331h-172v331zM256 1075h166l-126 -201h-103z" />
    <glyph glyph-name="Ycircumflex" unicode="&#x176;" horiz-adv-x="493" 
d="M162 331l-154 479h169l77 -256l69 256h162l-151 -479v-331h-172v331zM179 1073h133l98 -192h-120l-44 119l-43 -119h-119z" />
    <glyph glyph-name="Ydieresis" unicode="&#x178;" horiz-adv-x="493" 
d="M162 331l-154 479h169l77 -256l69 256h162l-151 -479v-331h-172v331zM73 1042h130v-148h-130v148zM291 1042h130v-148h-130v148z" />
    <glyph glyph-name="uni1EF4" unicode="&#x1ef4;" horiz-adv-x="493" 
d="M162 331l-154 479h169l77 -256l69 256h162l-151 -479v-331h-172v331zM177 -70h140v-138h-140v138z" />
    <glyph glyph-name="Ygrave" unicode="&#x1ef2;" horiz-adv-x="493" 
d="M162 331l-154 479h169l77 -256l69 256h162l-151 -479v-331h-172v331zM72 1075h168l61 -201h-102z" />
    <glyph glyph-name="uni1EF6" unicode="&#x1ef6;" horiz-adv-x="493" 
d="M162 331l-154 479h169l77 -256l69 256h162l-151 -479v-331h-172v331zM192 911q39 19 55.5 31t16.5 33q0 35 -57 35q-32 0 -62 -7v68q48 13 102 13q53 0 87.5 -24t34.5 -75q0 -48 -32.5 -77t-89.5 -49z" />
    <glyph glyph-name="uni0232" unicode="&#x232;" horiz-adv-x="493" 
d="M162 331l-154 479h169l77 -256l69 256h162l-151 -479v-331h-172v331zM109 975h276v-77h-276v77z" />
    <glyph glyph-name="uni1EF8" unicode="&#x1ef8;" horiz-adv-x="493" 
d="M162 331l-154 479h169l77 -256l69 256h162l-151 -479v-331h-172v331zM294 906.5q-16 6.5 -36 19.5q-18 10 -30.5 15.5t-24.5 5.5q-36 0 -36 -41h-78q-2 142 90 142q17 0 31 -5.5t35 -17.5q17 -10 30 -15.5t27 -5.5q31 0 31 38h72q0 -63 -15 -102.5t-62 -39.5
q-18 0 -34 6.5z" />
    <glyph glyph-name="Z" unicode="Z" horiz-adv-x="433" 
d="M29 108l198 581h-189v121h365v-101l-201 -588h203v-121h-376v108z" />
    <glyph glyph-name="Zacute" unicode="&#x179;" horiz-adv-x="433" 
d="M29 108l198 581h-189v121h365v-101l-201 -588h203v-121h-376v108zM226 1075h166l-126 -201h-103z" />
    <glyph glyph-name="Zcaron" unicode="&#x17d;" horiz-adv-x="433" 
d="M29 108l198 581h-189v121h365v-101l-201 -588h203v-121h-376v108zM50 1058h116l51 -110l51 110h116l-88 -187h-158z" />
    <glyph glyph-name="Zdotaccent" unicode="&#x17b;" horiz-adv-x="433" 
d="M29 108l198 581h-189v121h365v-101l-201 -588h203v-121h-376v108zM140 1038h154v-154h-154v154z" />
    <glyph glyph-name="a" unicode="a" horiz-adv-x="476" 
d="M97.5 10.5q-30.5 20.5 -46 53t-15.5 67.5q0 67 34 110t81.5 67t122.5 50v58q0 25 -7.5 38t-26.5 13t-27 -12t-9 -34l-4 -42l-152 6q4 104 55 153.5t152 49.5q85 0 130 -47.5t45 -126.5v-270q0 -88 10 -144h-146q-9 67 -13 82q-12 -40 -40 -66t-71 -26q-42 0 -72.5 20.5z
M274 129v158q-45 -26 -68 -54.5t-23 -69.5q0 -29 12 -46t33 -17q25 0 46 29z" />
    <glyph glyph-name="aacute" unicode="&#xe1;" horiz-adv-x="476" 
d="M97.5 10.5q-30.5 20.5 -46 53t-15.5 67.5q0 67 34 110t81.5 67t122.5 50v58q0 25 -7.5 38t-26.5 13t-27 -12t-9 -34l-4 -42l-152 6q4 104 55 153.5t152 49.5q85 0 130 -47.5t45 -126.5v-270q0 -88 10 -144h-146q-9 67 -13 82q-12 -40 -40 -66t-71 -26q-42 0 -72.5 20.5z
M274 129v158q-45 -26 -68 -54.5t-23 -69.5q0 -29 12 -46t33 -17q25 0 46 29zM263 843h166l-126 -201h-103z" />
    <glyph glyph-name="abreve" unicode="&#x103;" horiz-adv-x="476" 
d="M97.5 10.5q-30.5 20.5 -46 53t-15.5 67.5q0 67 34 110t81.5 67t122.5 50v58q0 25 -7.5 38t-26.5 13t-27 -12t-9 -34l-4 -42l-152 6q4 104 55 153.5t152 49.5q85 0 130 -47.5t45 -126.5v-270q0 -88 10 -144h-146q-9 67 -13 82q-12 -40 -40 -66t-71 -26q-42 0 -72.5 20.5z
M274 129v158q-45 -26 -68 -54.5t-23 -69.5q0 -29 12 -46t33 -17q25 0 46 29zM139.5 683.5q-42.5 40.5 -42.5 115.5h92q0 -38 15 -55.5t50 -17.5q34 0 49.5 18t15.5 55h92q0 -74 -42.5 -115t-114.5 -41t-114.5 40.5z" />
    <glyph glyph-name="uni1EAF" unicode="&#x1eaf;" horiz-adv-x="476" 
d="M97.5 10.5q-30.5 20.5 -46 53t-15.5 67.5q0 67 34 110t81.5 67t122.5 50v58q0 25 -7.5 38t-26.5 13t-27 -12t-9 -34l-4 -42l-152 6q4 104 55 153.5t152 49.5q85 0 130 -47.5t45 -126.5v-270q0 -88 10 -144h-146q-9 67 -13 82q-12 -40 -40 -66t-71 -26q-42 0 -72.5 20.5z
M274 129v158q-45 -26 -68 -54.5t-23 -69.5q0 -29 12 -46t33 -17q25 0 46 29zM258 949h133l-110 -116h-94zM139.5 679.5q-42.5 40.5 -42.5 115.5h92q0 -38 15 -55.5t50 -17.5q34 0 49.5 18t15.5 55h92q0 -74 -42.5 -115t-114.5 -41t-114.5 40.5z" />
    <glyph glyph-name="uni1EB7" unicode="&#x1eb7;" horiz-adv-x="476" 
d="M97.5 10.5q-30.5 20.5 -46 53t-15.5 67.5q0 67 34 110t81.5 67t122.5 50v58q0 25 -7.5 38t-26.5 13t-27 -12t-9 -34l-4 -42l-152 6q4 104 55 153.5t152 49.5q85 0 130 -47.5t45 -126.5v-270q0 -88 10 -144h-146q-9 67 -13 82q-12 -40 -40 -66t-71 -26q-42 0 -72.5 20.5z
M274 129v158q-45 -26 -68 -54.5t-23 -69.5q0 -29 12 -46t33 -17q25 0 46 29zM169 -70h140v-138h-140v138zM139.5 683.5q-42.5 40.5 -42.5 115.5h92q0 -38 15 -55.5t50 -17.5q34 0 49.5 18t15.5 55h92q0 -74 -42.5 -115t-114.5 -41t-114.5 40.5z" />
    <glyph glyph-name="uni1EB1" unicode="&#x1eb1;" horiz-adv-x="476" 
d="M97.5 10.5q-30.5 20.5 -46 53t-15.5 67.5q0 67 34 110t81.5 67t122.5 50v58q0 25 -7.5 38t-26.5 13t-27 -12t-9 -34l-4 -42l-152 6q4 104 55 153.5t152 49.5q85 0 130 -47.5t45 -126.5v-270q0 -88 10 -144h-146q-9 67 -13 82q-12 -40 -40 -66t-71 -26q-42 0 -72.5 20.5z
M274 129v158q-45 -26 -68 -54.5t-23 -69.5q0 -29 12 -46t33 -17q25 0 46 29zM117 949h132l71 -116h-93zM139.5 679.5q-42.5 40.5 -42.5 115.5h92q0 -38 15 -55.5t50 -17.5q34 0 49.5 18t15.5 55h92q0 -74 -42.5 -115t-114.5 -41t-114.5 40.5z" />
    <glyph glyph-name="uni1EB3" unicode="&#x1eb3;" horiz-adv-x="476" 
d="M97.5 10.5q-30.5 20.5 -46 53t-15.5 67.5q0 67 34 110t81.5 67t122.5 50v58q0 25 -7.5 38t-26.5 13t-27 -12t-9 -34l-4 -42l-152 6q4 104 55 153.5t152 49.5q85 0 130 -47.5t45 -126.5v-270q0 -88 10 -144h-146q-9 67 -13 82q-12 -40 -40 -66t-71 -26q-42 0 -72.5 20.5z
M274 129v158q-45 -26 -68 -54.5t-23 -69.5q0 -29 12 -46t33 -17q25 0 46 29zM221 851q18 15 27.5 29t9.5 31q0 19 -12.5 29.5t-33.5 10.5q-23 0 -51 -10v68q43 16 83 16q52 0 83.5 -25.5t31.5 -73.5q0 -43 -25 -72t-67 -52zM139.5 683.5q-42.5 40.5 -42.5 115.5h92
q0 -38 15 -55.5t50 -17.5q34 0 49.5 18t15.5 55h92q0 -74 -42.5 -115t-114.5 -41t-114.5 40.5z" />
    <glyph glyph-name="uni1EB5" unicode="&#x1eb5;" horiz-adv-x="476" 
d="M97.5 10.5q-30.5 20.5 -46 53t-15.5 67.5q0 67 34 110t81.5 67t122.5 50v58q0 25 -7.5 38t-26.5 13t-27 -12t-9 -34l-4 -42l-152 6q4 104 55 153.5t152 49.5q85 0 130 -47.5t45 -126.5v-270q0 -88 10 -144h-146q-9 67 -13 82q-12 -40 -40 -66t-71 -26q-42 0 -72.5 20.5z
M274 129v158q-45 -26 -68 -54.5t-23 -69.5q0 -29 12 -46t33 -17q25 0 46 29zM139.5 683.5q-42.5 40.5 -42.5 115.5h92q0 -38 15 -55.5t50 -17.5q34 0 49.5 18t15.5 55h92q0 -74 -42.5 -115t-114.5 -41t-114.5 40.5zM301 859.5q-16 6.5 -36 19.5q-18 10 -30.5 15.5t-24.5 5.5
q-36 0 -36 -41h-78q-2 142 90 142q17 0 31 -5.5t35 -17.5q17 -10 30 -15.5t27 -5.5q31 0 31 38h72q0 -63 -15 -102.5t-62 -39.5q-18 0 -34 6.5z" />
    <glyph glyph-name="uni01CE" unicode="&#x1ce;" horiz-adv-x="476" 
d="M97.5 10.5q-30.5 20.5 -46 53t-15.5 67.5q0 67 34 110t81.5 67t122.5 50v58q0 25 -7.5 38t-26.5 13t-27 -12t-9 -34l-4 -42l-152 6q4 104 55 153.5t152 49.5q85 0 130 -47.5t45 -126.5v-270q0 -88 10 -144h-146q-9 67 -13 82q-12 -40 -40 -66t-71 -26q-42 0 -72.5 20.5z
M274 129v158q-45 -26 -68 -54.5t-23 -69.5q0 -29 12 -46t33 -17q25 0 46 29zM87 826h116l51 -110l51 110h116l-88 -187h-158z" />
    <glyph glyph-name="acircumflex" unicode="&#xe2;" horiz-adv-x="476" 
d="M97.5 10.5q-30.5 20.5 -46 53t-15.5 67.5q0 67 34 110t81.5 67t122.5 50v58q0 25 -7.5 38t-26.5 13t-27 -12t-9 -34l-4 -42l-152 6q4 104 55 153.5t152 49.5q85 0 130 -47.5t45 -126.5v-270q0 -88 10 -144h-146q-9 67 -13 82q-12 -40 -40 -66t-71 -26q-42 0 -72.5 20.5z
M274 129v158q-45 -26 -68 -54.5t-23 -69.5q0 -29 12 -46t33 -17q25 0 46 29zM186 841h133l98 -192h-120l-44 119l-43 -119h-119z" />
    <glyph glyph-name="uni1EA5" unicode="&#x1ea5;" horiz-adv-x="476" 
d="M97.5 10.5q-30.5 20.5 -46 53t-15.5 67.5q0 67 34 110t81.5 67t122.5 50v58q0 25 -7.5 38t-26.5 13t-27 -12t-9 -34l-4 -42l-152 6q4 104 55 153.5t152 49.5q85 0 130 -47.5t45 -126.5v-270q0 -88 10 -144h-146q-9 67 -13 82q-12 -40 -40 -66t-71 -26q-42 0 -72.5 20.5z
M274 129v158q-45 -26 -68 -54.5t-23 -69.5q0 -29 12 -46t33 -17q25 0 46 29zM442 890h121l-88 -123h-86zM186 816h133l98 -167h-116l-48 100l-47 -100h-115z" />
    <glyph glyph-name="uni1EAD" unicode="&#x1ead;" horiz-adv-x="476" 
d="M97.5 10.5q-30.5 20.5 -46 53t-15.5 67.5q0 67 34 110t81.5 67t122.5 50v58q0 25 -7.5 38t-26.5 13t-27 -12t-9 -34l-4 -42l-152 6q4 104 55 153.5t152 49.5q85 0 130 -47.5t45 -126.5v-270q0 -88 10 -144h-146q-9 67 -13 82q-12 -40 -40 -66t-71 -26q-42 0 -72.5 20.5z
M274 129v158q-45 -26 -68 -54.5t-23 -69.5q0 -29 12 -46t33 -17q25 0 46 29zM169 -70h140v-138h-140v138zM186 816h133l98 -167h-116l-48 100l-47 -100h-115z" />
    <glyph glyph-name="uni1EA7" unicode="&#x1ea7;" horiz-adv-x="476" 
d="M97.5 10.5q-30.5 20.5 -46 53t-15.5 67.5q0 67 34 110t81.5 67t122.5 50v58q0 25 -7.5 38t-26.5 13t-27 -12t-9 -34l-4 -42l-152 6q4 104 55 153.5t152 49.5q85 0 130 -47.5t45 -126.5v-270q0 -88 10 -144h-146q-9 67 -13 82q-12 -40 -40 -66t-71 -26q-42 0 -72.5 20.5z
M274 129v158q-45 -26 -68 -54.5t-23 -69.5q0 -29 12 -46t33 -17q25 0 46 29zM330 890h122l53 -123h-87zM186 816h133l98 -167h-116l-48 100l-47 -100h-115z" />
    <glyph glyph-name="uni1EA9" unicode="&#x1ea9;" horiz-adv-x="476" 
d="M97.5 10.5q-30.5 20.5 -46 53t-15.5 67.5q0 67 34 110t81.5 67t122.5 50v58q0 25 -7.5 38t-26.5 13t-27 -12t-9 -34l-4 -42l-152 6q4 104 55 153.5t152 49.5q85 0 130 -47.5t45 -126.5v-270q0 -88 10 -144h-146q-9 67 -13 82q-12 -40 -40 -66t-71 -26q-42 0 -72.5 20.5z
M274 129v158q-45 -26 -68 -54.5t-23 -69.5q0 -29 12 -46t33 -17q25 0 46 29zM384 790q18 15 27.5 29t9.5 31q0 19 -12.5 29.5t-33.5 10.5q-25 0 -51 -10v68q42 16 82 16q52 0 83.5 -25.5t31.5 -73.5q0 -44 -24 -72.5t-67 -51.5zM186 816h133l98 -167h-116l-48 100l-47 -100
h-115z" />
    <glyph glyph-name="uni1EAB" unicode="&#x1eab;" horiz-adv-x="476" 
d="M97.5 10.5q-30.5 20.5 -46 53t-15.5 67.5q0 67 34 110t81.5 67t122.5 50v58q0 25 -7.5 38t-26.5 13t-27 -12t-9 -34l-4 -42l-152 6q4 104 55 153.5t152 49.5q85 0 130 -47.5t45 -126.5v-270q0 -88 10 -144h-146q-9 67 -13 82q-12 -40 -40 -66t-71 -26q-42 0 -72.5 20.5z
M274 129v158q-45 -26 -68 -54.5t-23 -69.5q0 -29 12 -46t33 -17q25 0 46 29zM186 816h133l98 -167h-116l-48 100l-47 -100h-115zM301 871.5q-16 6.5 -36 19.5q-18 10 -30.5 15.5t-24.5 5.5q-36 0 -36 -41h-78q-2 142 90 142q17 0 31 -5.5t35 -17.5q17 -10 30 -15.5t27 -5.5
q31 0 31 38h72q0 -63 -15 -102.5t-62 -39.5q-18 0 -34 6.5z" />
    <glyph glyph-name="uni0201" unicode="&#x201;" horiz-adv-x="476" 
d="M97.5 10.5q-30.5 20.5 -46 53t-15.5 67.5q0 67 34 110t81.5 67t122.5 50v58q0 25 -7.5 38t-26.5 13t-27 -12t-9 -34l-4 -42l-152 6q4 104 55 153.5t152 49.5q85 0 130 -47.5t45 -126.5v-270q0 -88 10 -144h-146q-9 67 -13 82q-12 -40 -40 -66t-71 -26q-42 0 -72.5 20.5z
M274 129v158q-45 -26 -68 -54.5t-23 -69.5q0 -29 12 -46t33 -17q25 0 46 29zM31 845h124l64 -207h-88zM214 845h119l59 -207h-86z" />
    <glyph glyph-name="adieresis" unicode="&#xe4;" horiz-adv-x="476" 
d="M97.5 10.5q-30.5 20.5 -46 53t-15.5 67.5q0 67 34 110t81.5 67t122.5 50v58q0 25 -7.5 38t-26.5 13t-27 -12t-9 -34l-4 -42l-152 6q4 104 55 153.5t152 49.5q85 0 130 -47.5t45 -126.5v-270q0 -88 10 -144h-146q-9 67 -13 82q-12 -40 -40 -66t-71 -26q-42 0 -72.5 20.5z
M274 129v158q-45 -26 -68 -54.5t-23 -69.5q0 -29 12 -46t33 -17q25 0 46 29zM80 810h130v-148h-130v148zM298 810h130v-148h-130v148z" />
    <glyph glyph-name="uni1EA1" unicode="&#x1ea1;" horiz-adv-x="476" 
d="M97.5 10.5q-30.5 20.5 -46 53t-15.5 67.5q0 67 34 110t81.5 67t122.5 50v58q0 25 -7.5 38t-26.5 13t-27 -12t-9 -34l-4 -42l-152 6q4 104 55 153.5t152 49.5q85 0 130 -47.5t45 -126.5v-270q0 -88 10 -144h-146q-9 67 -13 82q-12 -40 -40 -66t-71 -26q-42 0 -72.5 20.5z
M274 129v158q-45 -26 -68 -54.5t-23 -69.5q0 -29 12 -46t33 -17q25 0 46 29zM169 -70h140v-138h-140v138z" />
    <glyph glyph-name="agrave" unicode="&#xe0;" horiz-adv-x="476" 
d="M97.5 10.5q-30.5 20.5 -46 53t-15.5 67.5q0 67 34 110t81.5 67t122.5 50v58q0 25 -7.5 38t-26.5 13t-27 -12t-9 -34l-4 -42l-152 6q4 104 55 153.5t152 49.5q85 0 130 -47.5t45 -126.5v-270q0 -88 10 -144h-146q-9 67 -13 82q-12 -40 -40 -66t-71 -26q-42 0 -72.5 20.5z
M274 129v158q-45 -26 -68 -54.5t-23 -69.5q0 -29 12 -46t33 -17q25 0 46 29zM79 843h168l61 -201h-102z" />
    <glyph glyph-name="uni1EA3" unicode="&#x1ea3;" horiz-adv-x="476" 
d="M97.5 10.5q-30.5 20.5 -46 53t-15.5 67.5q0 67 34 110t81.5 67t122.5 50v58q0 25 -7.5 38t-26.5 13t-27 -12t-9 -34l-4 -42l-152 6q4 104 55 153.5t152 49.5q85 0 130 -47.5t45 -126.5v-270q0 -88 10 -144h-146q-9 67 -13 82q-12 -40 -40 -66t-71 -26q-42 0 -72.5 20.5z
M274 129v158q-45 -26 -68 -54.5t-23 -69.5q0 -29 12 -46t33 -17q25 0 46 29zM199 679q39 19 55.5 31t16.5 33q0 35 -57 35q-32 0 -62 -7v68q48 13 102 13q53 0 87.5 -24t34.5 -75q0 -48 -32.5 -77t-89.5 -49z" />
    <glyph glyph-name="uni0203" unicode="&#x203;" horiz-adv-x="476" 
d="M97.5 10.5q-30.5 20.5 -46 53t-15.5 67.5q0 67 34 110t81.5 67t122.5 50v58q0 25 -7.5 38t-26.5 13t-27 -12t-9 -34l-4 -42l-152 6q4 104 55 153.5t152 49.5q85 0 130 -47.5t45 -126.5v-270q0 -88 10 -144h-146q-9 67 -13 82q-12 -40 -40 -66t-71 -26q-42 0 -72.5 20.5z
M274 129v158q-45 -26 -68 -54.5t-23 -69.5q0 -29 12 -46t33 -17q25 0 46 29zM138.5 766.5q41.5 41.5 115.5 41.5t115.5 -41.5t41.5 -117.5h-92q0 40 -15 58t-50 18t-50 -18t-15 -58h-92q0 76 41.5 117.5z" />
    <glyph glyph-name="amacron" unicode="&#x101;" horiz-adv-x="476" 
d="M97.5 10.5q-30.5 20.5 -46 53t-15.5 67.5q0 67 34 110t81.5 67t122.5 50v58q0 25 -7.5 38t-26.5 13t-27 -12t-9 -34l-4 -42l-152 6q4 104 55 153.5t152 49.5q85 0 130 -47.5t45 -126.5v-270q0 -88 10 -144h-146q-9 67 -13 82q-12 -40 -40 -66t-71 -26q-42 0 -72.5 20.5z
M274 129v158q-45 -26 -68 -54.5t-23 -69.5q0 -29 12 -46t33 -17q25 0 46 29zM116 743h276v-77h-276v77z" />
    <glyph glyph-name="aogonek" unicode="&#x105;" horiz-adv-x="476" 
d="M97.5 10.5q-30.5 20.5 -46 53t-15.5 67.5q0 67 34 110t81.5 67t122.5 50v58q0 25 -7.5 38t-26.5 13t-27 -12t-9 -34l-4 -42l-152 6q4 104 55 153.5t152 49.5q85 0 130 -47.5t45 -126.5v-270q0 -88 10 -144h-146q-9 67 -13 82q-12 -40 -40 -66t-71 -26q-42 0 -72.5 20.5z
M274 129v158q-45 -26 -68 -54.5t-23 -69.5q0 -29 12 -46t33 -17q25 0 46 29zM305 -237.5q-46 22.5 -46 85.5q0 38 23 80.5t55 71.5h73q-36 -66 -36 -121q0 -31 18 -45t46 -14q15 0 29 2l-16 -79q-12 -3 -33 -3q-67 0 -113 22.5z" />
    <glyph glyph-name="aring" unicode="&#xe5;" horiz-adv-x="476" 
d="M97.5 10.5q-30.5 20.5 -46 53t-15.5 67.5q0 67 34 110t81.5 67t122.5 50v58q0 25 -7.5 38t-26.5 13t-27 -12t-9 -34l-4 -42l-152 6q4 104 55 153.5t152 49.5q85 0 130 -47.5t45 -126.5v-270q0 -88 10 -144h-146q-9 67 -13 82q-12 -40 -40 -66t-71 -26q-42 0 -72.5 20.5z
M274 129v158q-45 -26 -68 -54.5t-23 -69.5q0 -29 12 -46t33 -17q25 0 46 29zM170 650.5q-33 28.5 -33 80.5t33 81t83 29t84 -29t34 -81t-33.5 -80.5t-84.5 -28.5q-50 0 -83 28.5zM290 694q13 15 13 37q0 23 -13 38t-37 15q-23 0 -36 -15t-13 -38q0 -22 13 -37t36 -15
q24 0 37 15z" />
    <glyph glyph-name="aringacute" unicode="&#x1fb;" horiz-adv-x="476" 
d="M97.5 10.5q-30.5 20.5 -46 53t-15.5 67.5q0 67 34 110t81.5 67t122.5 50v58q0 25 -7.5 38t-26.5 13t-27 -12t-9 -34l-4 -42l-152 6q4 104 55 153.5t152 49.5q85 0 130 -47.5t45 -126.5v-270q0 -88 10 -144h-146q-9 67 -13 82q-12 -40 -40 -66t-71 -26q-42 0 -72.5 20.5z
M274 129v158q-45 -26 -68 -54.5t-23 -69.5q0 -29 12 -46t33 -17q25 0 46 29zM170 650.5q-33 28.5 -33 80.5t33 81t83 29t84 -29t34 -81t-33.5 -80.5t-84.5 -28.5q-50 0 -83 28.5zM290 694q13 15 13 37q0 23 -13 38t-37 15q-23 0 -36 -15t-13 -38q0 -22 13 -37t36 -15
q24 0 37 15zM263 1086h166l-126 -201h-103z" />
    <glyph glyph-name="atilde" unicode="&#xe3;" horiz-adv-x="476" 
d="M97.5 10.5q-30.5 20.5 -46 53t-15.5 67.5q0 67 34 110t81.5 67t122.5 50v58q0 25 -7.5 38t-26.5 13t-27 -12t-9 -34l-4 -42l-152 6q4 104 55 153.5t152 49.5q85 0 130 -47.5t45 -126.5v-270q0 -88 10 -144h-146q-9 67 -13 82q-12 -40 -40 -66t-71 -26q-42 0 -72.5 20.5z
M274 129v158q-45 -26 -68 -54.5t-23 -69.5q0 -29 12 -46t33 -17q25 0 46 29zM301 674.5q-16 6.5 -36 19.5q-18 10 -30.5 15.5t-24.5 5.5q-36 0 -36 -41h-78q-2 142 90 142q17 0 31 -5.5t35 -17.5q17 -10 30 -15.5t27 -5.5q31 0 31 38h72q0 -63 -15 -102.5t-62 -39.5
q-18 0 -34 6.5z" />
    <glyph glyph-name="ae" unicode="&#xe6;" horiz-adv-x="679" 
d="M485 202h150v-47q0 -80 -42 -123.5t-122 -43.5q-47 0 -87 25t-49 70q-17 -45 -57.5 -70t-88.5 -25q-70 0 -111.5 39t-41.5 106q0 79 47 121t126 61l60 14v81q0 31 -8 44t-26 13q-20 0 -29.5 -18.5t-9.5 -66.5l-158 5q0 201 181 201q48 0 80 -16.5t45 -43.5
q16 27 53.5 43.5t84.5 16.5q78 0 118 -38t40 -101q0 -68 -38.5 -101.5t-111.5 -50.5l-66 -15v-114q0 -33 6 -48.5t25 -15.5t24.5 14.5t5.5 45.5v38zM423 356l16 3q34 7 50 22.5t16 42.5q0 20 -10 33t-29 13q-43 0 -43 -56v-58zM269 257l-31 -13q-31 -14 -45 -34.5t-14 -51.5
q0 -27 11.5 -43.5t34.5 -16.5q44 0 44 62v97z" />
    <glyph glyph-name="aeacute" unicode="&#x1fd;" horiz-adv-x="679" 
d="M485 202h150v-47q0 -80 -42 -123.5t-122 -43.5q-47 0 -87 25t-49 70q-17 -45 -57.5 -70t-88.5 -25q-70 0 -111.5 39t-41.5 106q0 79 47 121t126 61l60 14v81q0 31 -8 44t-26 13q-20 0 -29.5 -18.5t-9.5 -66.5l-158 5q0 201 181 201q48 0 80 -16.5t45 -43.5
q16 27 53.5 43.5t84.5 16.5q78 0 118 -38t40 -101q0 -68 -38.5 -101.5t-111.5 -50.5l-66 -15v-114q0 -33 6 -48.5t25 -15.5t24.5 14.5t5.5 45.5v38zM423 356l16 3q34 7 50 22.5t16 42.5q0 20 -10 33t-29 13q-43 0 -43 -56v-58zM269 257l-31 -13q-31 -14 -45 -34.5t-14 -51.5
q0 -27 11.5 -43.5t34.5 -16.5q44 0 44 62v97zM350 843h166l-126 -201h-103z" />
    <glyph glyph-name="b" unicode="b" horiz-adv-x="506" 
d="M214 44v-44h-163v810h163v-274q29 26 62 39t64 13q63 0 93.5 -47t30.5 -123v-249q0 -83 -33 -131t-93 -48q-62 0 -124 54zM291 113q10 18 10 47v270q0 27 -9.5 43.5t-30.5 16.5q-23 0 -47 -19v-360q22 -16 45 -16q22 0 32 18z" />
    <glyph glyph-name="uni1E03" unicode="&#x1e03;" horiz-adv-x="506" 
d="M214 44v-44h-163v810h163v-274q29 26 62 39t64 13q63 0 93.5 -47t30.5 -123v-249q0 -83 -33 -131t-93 -48q-62 0 -124 54zM291 113q10 18 10 47v270q0 27 -9.5 43.5t-30.5 16.5q-23 0 -47 -19v-360q22 -16 45 -16q22 0 32 18zM56 1038h154v-154h-154v154z" />
    <glyph glyph-name="c" unicode="c" horiz-adv-x="468" 
d="M92 41q-53 51 -53 142v212q0 92 52.5 142.5t147.5 50.5q94 0 144.5 -44t50.5 -130v-61h-157v66q0 33 -9.5 45.5t-28.5 12.5t-27.5 -15.5t-8.5 -52.5v-240q0 -37 9 -52t28 -15t28 13t9 44v77h157v-70q0 -86 -51 -131t-144 -45q-94 0 -147 51z" />
    <glyph glyph-name="cacute" unicode="&#x107;" horiz-adv-x="468" 
d="M92 41q-53 51 -53 142v212q0 92 52.5 142.5t147.5 50.5q94 0 144.5 -44t50.5 -130v-61h-157v66q0 33 -9.5 45.5t-28.5 12.5t-27.5 -15.5t-8.5 -52.5v-240q0 -37 9 -52t28 -15t28 13t9 44v77h157v-70q0 -86 -51 -131t-144 -45q-94 0 -147 51zM244 843h166l-126 -201h-103z
" />
    <glyph glyph-name="ccaron" unicode="&#x10d;" horiz-adv-x="468" 
d="M92 41q-53 51 -53 142v212q0 92 52.5 142.5t147.5 50.5q94 0 144.5 -44t50.5 -130v-61h-157v66q0 33 -9.5 45.5t-28.5 12.5t-27.5 -15.5t-8.5 -52.5v-240q0 -37 9 -52t28 -15t28 13t9 44v77h157v-70q0 -86 -51 -131t-144 -45q-94 0 -147 51zM68 826h116l51 -110l51 110
h116l-88 -187h-158z" />
    <glyph glyph-name="ccedilla" unicode="&#xe7;" horiz-adv-x="468" 
d="M92 41q-53 51 -53 142v212q0 92 52.5 142.5t147.5 50.5q94 0 144.5 -44t50.5 -130v-61h-157v66q0 33 -9.5 45.5t-28.5 12.5t-27.5 -15.5t-8.5 -52.5v-240q0 -37 9 -52t28 -15t28 13t9 44v77h157v-70q0 -86 -51 -131t-144 -45q-94 0 -147 51zM179 -265v70q28 -8 57 -8
q62 0 62 35q0 25 -27.5 37.5t-64.5 14.5v116h59v-66q64 0 100.5 -26t36.5 -78q0 -54 -42 -80.5t-105 -26.5q-40 0 -76 12z" />
    <glyph glyph-name="ccircumflex" unicode="&#x109;" horiz-adv-x="468" 
d="M92 41q-53 51 -53 142v212q0 92 52.5 142.5t147.5 50.5q94 0 144.5 -44t50.5 -130v-61h-157v66q0 33 -9.5 45.5t-28.5 12.5t-27.5 -15.5t-8.5 -52.5v-240q0 -37 9 -52t28 -15t28 13t9 44v77h157v-70q0 -86 -51 -131t-144 -45q-94 0 -147 51zM167 841h133l98 -192h-120
l-44 119l-43 -119h-119z" />
    <glyph glyph-name="cdotaccent" unicode="&#x10b;" horiz-adv-x="468" 
d="M92 41q-53 51 -53 142v212q0 92 52.5 142.5t147.5 50.5q94 0 144.5 -44t50.5 -130v-61h-157v66q0 33 -9.5 45.5t-28.5 12.5t-27.5 -15.5t-8.5 -52.5v-240q0 -37 9 -52t28 -15t28 13t9 44v77h157v-70q0 -86 -51 -131t-144 -45q-94 0 -147 51zM158 806h154v-154h-154v154z
" />
    <glyph glyph-name="d" unicode="d" horiz-adv-x="503" 
d="M76.5 35q-34.5 45 -34.5 133v239q0 83 34.5 132t99.5 49q61 0 114 -46v268h163v-810h-163v45q-57 -55 -114 -55q-65 0 -99.5 45zM290 109v365q-24 13 -42 13q-21 0 -31.5 -17.5t-10.5 -45.5v-266q0 -29 10 -46.5t31 -17.5q19 0 43 15z" />
    <glyph glyph-name="eth" unicode="&#xf0;" horiz-adv-x="520" 
d="M112 41.5q-58 55.5 -58 169.5v169q0 61 23.5 107t64 70.5t88.5 24.5q42 0 76 -18q-1 37 -7.5 66.5t-16.5 42.5l-87 -46l-18 41l79 42q-11 15 -42 23.5t-78 8.5l7 102q167 0 230 -68l86 47l18 -41l-75 -41q28 -49 47.5 -118.5t19.5 -179.5v-228q0 -126 -55.5 -177.5
t-151.5 -51.5q-92 0 -150 55.5zM297 114q9 20 9 59v292q-22 12 -37 12q-23 0 -35 -17t-16.5 -56t-4.5 -115q0 -81 3.5 -120t14.5 -57t35 -18q22 0 31 20z" />
    <glyph glyph-name="dcaron" unicode="&#x10f;" horiz-adv-x="640" 
d="M76.5 35q-34.5 45 -34.5 133v239q0 83 34.5 132t99.5 49q61 0 114 -46v268h163v-810h-163v45q-57 -55 -114 -55q-65 0 -99.5 45zM290 109v365q-24 13 -42 13q-21 0 -31.5 -17.5t-10.5 -45.5v-266q0 -29 10 -46.5t31 -17.5q19 0 43 15zM518 569q71 18 71 88h-86v154h154
v-134q0 -149 -129 -160z" />
    <glyph glyph-name="dcroat" unicode="&#x111;" horiz-adv-x="500" 
d="M73.5 35q-34.5 45 -34.5 133v239q0 83 34.5 132t99.5 49q59 0 112 -46v139h-134v66h134v63h163v-63h49v-66h-49v-681h-163v45q-53 -55 -112 -55q-65 0 -99.5 45zM285 109v365q-24 13 -40 13q-21 0 -31.5 -17.5t-10.5 -45.5v-266q0 -29 10 -46.5t31 -17.5q19 0 41 15z" />
    <glyph glyph-name="uni1E0B" unicode="&#x1e0b;" horiz-adv-x="503" 
d="M76.5 35q-34.5 45 -34.5 133v239q0 83 34.5 132t99.5 49q61 0 114 -46v268h163v-810h-163v45q-57 -55 -114 -55q-65 0 -99.5 45zM290 109v365q-24 13 -42 13q-21 0 -31.5 -17.5t-10.5 -45.5v-266q0 -29 10 -46.5t31 -17.5q19 0 43 15zM294 1038h154v-154h-154v154z" />
    <glyph glyph-name="uni01F3" unicode="&#x1f3;" horiz-adv-x="895" 
d="M76.5 35q-34.5 45 -34.5 133v239q0 83 34.5 132t99.5 49q61 0 114 -46v268h163v-810h-163v45q-57 -55 -114 -55q-65 0 -99.5 45zM290 109v365q-24 13 -42 13q-21 0 -31.5 -17.5t-10.5 -45.5v-266q0 -29 10 -46.5t31 -17.5q19 0 43 15zM538 105l159 354h-147v119h317v-99
l-161 -360h163v-119h-331v105z" />
    <glyph glyph-name="uni01C6" unicode="&#x1c6;" horiz-adv-x="895" 
d="M76.5 35q-34.5 45 -34.5 133v239q0 83 34.5 132t99.5 49q61 0 114 -46v268h163v-810h-163v45q-57 -55 -114 -55q-65 0 -99.5 45zM290 109v365q-24 13 -42 13q-21 0 -31.5 -17.5t-10.5 -45.5v-266q0 -29 10 -46.5t31 -17.5q19 0 43 15zM538 105l159 354h-147v119h317v-99
l-161 -360h163v-119h-331v105zM532 826h116l51 -110l51 110h116l-88 -187h-158z" />
    <glyph glyph-name="e" unicode="e" horiz-adv-x="470" 
d="M92 40.5q-53 50.5 -53 142.5v212q0 92 53 142.5t148 50.5q96 0 144 -49t48 -144v-116h-232v-111q0 -62 40 -62q42 0 42 56v61h150v-56q0 -87 -50.5 -132t-141.5 -45q-95 0 -148 50.5zM282 355v58q0 32 -11.5 45.5t-31.5 13.5q-19 0 -29 -15t-10 -53v-49h82z" />
    <glyph glyph-name="eacute" unicode="&#xe9;" horiz-adv-x="470" 
d="M92 40.5q-53 50.5 -53 142.5v212q0 92 53 142.5t148 50.5q96 0 144 -49t48 -144v-116h-232v-111q0 -62 40 -62q42 0 42 56v61h150v-56q0 -87 -50.5 -132t-141.5 -45q-95 0 -148 50.5zM282 355v58q0 32 -11.5 45.5t-31.5 13.5q-19 0 -29 -15t-10 -53v-49h82zM247 843h166
l-126 -201h-103z" />
    <glyph glyph-name="ebreve" unicode="&#x115;" horiz-adv-x="470" 
d="M92 40.5q-53 50.5 -53 142.5v212q0 92 53 142.5t148 50.5q96 0 144 -49t48 -144v-116h-232v-111q0 -62 40 -62q42 0 42 56v61h150v-56q0 -87 -50.5 -132t-141.5 -45q-95 0 -148 50.5zM282 355v58q0 32 -11.5 45.5t-31.5 13.5q-19 0 -29 -15t-10 -53v-49h82zM123.5 683.5
q-42.5 40.5 -42.5 115.5h92q0 -38 15 -55.5t50 -17.5q34 0 49.5 18t15.5 55h92q0 -74 -42.5 -115t-114.5 -41t-114.5 40.5z" />
    <glyph glyph-name="ecaron" unicode="&#x11b;" horiz-adv-x="470" 
d="M92 40.5q-53 50.5 -53 142.5v212q0 92 53 142.5t148 50.5q96 0 144 -49t48 -144v-116h-232v-111q0 -62 40 -62q42 0 42 56v61h150v-56q0 -87 -50.5 -132t-141.5 -45q-95 0 -148 50.5zM282 355v58q0 32 -11.5 45.5t-31.5 13.5q-19 0 -29 -15t-10 -53v-49h82zM71 826h116
l51 -110l51 110h116l-88 -187h-158z" />
    <glyph glyph-name="ecircumflex" unicode="&#xea;" horiz-adv-x="470" 
d="M92 40.5q-53 50.5 -53 142.5v212q0 92 53 142.5t148 50.5q96 0 144 -49t48 -144v-116h-232v-111q0 -62 40 -62q42 0 42 56v61h150v-56q0 -87 -50.5 -132t-141.5 -45q-95 0 -148 50.5zM282 355v58q0 32 -11.5 45.5t-31.5 13.5q-19 0 -29 -15t-10 -53v-49h82zM170 841h133
l98 -192h-120l-44 119l-43 -119h-119z" />
    <glyph glyph-name="uni1EBF" unicode="&#x1ebf;" horiz-adv-x="470" 
d="M92 40.5q-53 50.5 -53 142.5v212q0 92 53 142.5t148 50.5q96 0 144 -49t48 -144v-116h-232v-111q0 -62 40 -62q42 0 42 56v61h150v-56q0 -87 -50.5 -132t-141.5 -45q-95 0 -148 50.5zM282 355v58q0 32 -11.5 45.5t-31.5 13.5q-19 0 -29 -15t-10 -53v-49h82zM426 890h121
l-88 -123h-86zM170 816h133l98 -167h-116l-48 100l-47 -100h-115z" />
    <glyph glyph-name="uni1EC7" unicode="&#x1ec7;" horiz-adv-x="470" 
d="M92 40.5q-53 50.5 -53 142.5v212q0 92 53 142.5t148 50.5q96 0 144 -49t48 -144v-116h-232v-111q0 -62 40 -62q42 0 42 56v61h150v-56q0 -87 -50.5 -132t-141.5 -45q-95 0 -148 50.5zM282 355v58q0 32 -11.5 45.5t-31.5 13.5q-19 0 -29 -15t-10 -53v-49h82zM165 -70h140
v-138h-140v138zM170 816h133l98 -167h-116l-48 100l-47 -100h-115z" />
    <glyph glyph-name="uni1EC1" unicode="&#x1ec1;" horiz-adv-x="470" 
d="M92 40.5q-53 50.5 -53 142.5v212q0 92 53 142.5t148 50.5q96 0 144 -49t48 -144v-116h-232v-111q0 -62 40 -62q42 0 42 56v61h150v-56q0 -87 -50.5 -132t-141.5 -45q-95 0 -148 50.5zM282 355v58q0 32 -11.5 45.5t-31.5 13.5q-19 0 -29 -15t-10 -53v-49h82zM314 890h122
l53 -123h-87zM170 816h133l98 -167h-116l-48 100l-47 -100h-115z" />
    <glyph glyph-name="uni1EC3" unicode="&#x1ec3;" horiz-adv-x="470" 
d="M92 40.5q-53 50.5 -53 142.5v212q0 92 53 142.5t148 50.5q96 0 144 -49t48 -144v-116h-232v-111q0 -62 40 -62q42 0 42 56v61h150v-56q0 -87 -50.5 -132t-141.5 -45q-95 0 -148 50.5zM282 355v58q0 32 -11.5 45.5t-31.5 13.5q-19 0 -29 -15t-10 -53v-49h82zM368 790
q18 15 27.5 29t9.5 31q0 19 -12.5 29.5t-33.5 10.5q-25 0 -51 -10v68q42 16 82 16q52 0 83.5 -25.5t31.5 -73.5q0 -44 -24 -72.5t-67 -51.5zM170 816h133l98 -167h-116l-48 100l-47 -100h-115z" />
    <glyph glyph-name="uni1EC5" unicode="&#x1ec5;" horiz-adv-x="470" 
d="M92 40.5q-53 50.5 -53 142.5v212q0 92 53 142.5t148 50.5q96 0 144 -49t48 -144v-116h-232v-111q0 -62 40 -62q42 0 42 56v61h150v-56q0 -87 -50.5 -132t-141.5 -45q-95 0 -148 50.5zM282 355v58q0 32 -11.5 45.5t-31.5 13.5q-19 0 -29 -15t-10 -53v-49h82zM170 816h133
l98 -167h-116l-48 100l-47 -100h-115zM285 871.5q-16 6.5 -36 19.5q-18 10 -30.5 15.5t-24.5 5.5q-36 0 -36 -41h-78q-2 142 90 142q17 0 31 -5.5t35 -17.5q17 -10 30 -15.5t27 -5.5q31 0 31 38h72q0 -63 -15 -102.5t-62 -39.5q-18 0 -34 6.5z" />
    <glyph glyph-name="uni0205" unicode="&#x205;" horiz-adv-x="470" 
d="M92 40.5q-53 50.5 -53 142.5v212q0 92 53 142.5t148 50.5q96 0 144 -49t48 -144v-116h-232v-111q0 -62 40 -62q42 0 42 56v61h150v-56q0 -87 -50.5 -132t-141.5 -45q-95 0 -148 50.5zM282 355v58q0 32 -11.5 45.5t-31.5 13.5q-19 0 -29 -15t-10 -53v-49h82zM15 845h124
l64 -207h-88zM198 845h119l59 -207h-86z" />
    <glyph glyph-name="edieresis" unicode="&#xeb;" horiz-adv-x="470" 
d="M92 40.5q-53 50.5 -53 142.5v212q0 92 53 142.5t148 50.5q96 0 144 -49t48 -144v-116h-232v-111q0 -62 40 -62q42 0 42 56v61h150v-56q0 -87 -50.5 -132t-141.5 -45q-95 0 -148 50.5zM282 355v58q0 32 -11.5 45.5t-31.5 13.5q-19 0 -29 -15t-10 -53v-49h82zM64 810h130
v-148h-130v148zM282 810h130v-148h-130v148z" />
    <glyph glyph-name="edotaccent" unicode="&#x117;" horiz-adv-x="470" 
d="M92 40.5q-53 50.5 -53 142.5v212q0 92 53 142.5t148 50.5q96 0 144 -49t48 -144v-116h-232v-111q0 -62 40 -62q42 0 42 56v61h150v-56q0 -87 -50.5 -132t-141.5 -45q-95 0 -148 50.5zM282 355v58q0 32 -11.5 45.5t-31.5 13.5q-19 0 -29 -15t-10 -53v-49h82zM161 806h154
v-154h-154v154z" />
    <glyph glyph-name="uni1EB9" unicode="&#x1eb9;" horiz-adv-x="470" 
d="M92 40.5q-53 50.5 -53 142.5v212q0 92 53 142.5t148 50.5q96 0 144 -49t48 -144v-116h-232v-111q0 -62 40 -62q42 0 42 56v61h150v-56q0 -87 -50.5 -132t-141.5 -45q-95 0 -148 50.5zM282 355v58q0 32 -11.5 45.5t-31.5 13.5q-19 0 -29 -15t-10 -53v-49h82zM165 -70h140
v-138h-140v138z" />
    <glyph glyph-name="egrave" unicode="&#xe8;" horiz-adv-x="470" 
d="M92 40.5q-53 50.5 -53 142.5v212q0 92 53 142.5t148 50.5q96 0 144 -49t48 -144v-116h-232v-111q0 -62 40 -62q42 0 42 56v61h150v-56q0 -87 -50.5 -132t-141.5 -45q-95 0 -148 50.5zM282 355v58q0 32 -11.5 45.5t-31.5 13.5q-19 0 -29 -15t-10 -53v-49h82zM63 843h168
l61 -201h-102z" />
    <glyph glyph-name="uni1EBB" unicode="&#x1ebb;" horiz-adv-x="470" 
d="M92 40.5q-53 50.5 -53 142.5v212q0 92 53 142.5t148 50.5q96 0 144 -49t48 -144v-116h-232v-111q0 -62 40 -62q42 0 42 56v61h150v-56q0 -87 -50.5 -132t-141.5 -45q-95 0 -148 50.5zM282 355v58q0 32 -11.5 45.5t-31.5 13.5q-19 0 -29 -15t-10 -53v-49h82zM183 679
q39 19 55.5 31t16.5 33q0 35 -57 35q-32 0 -62 -7v68q48 13 102 13q53 0 87.5 -24t34.5 -75q0 -48 -32.5 -77t-89.5 -49z" />
    <glyph glyph-name="uni0207" unicode="&#x207;" horiz-adv-x="470" 
d="M92 40.5q-53 50.5 -53 142.5v212q0 92 53 142.5t148 50.5q96 0 144 -49t48 -144v-116h-232v-111q0 -62 40 -62q42 0 42 56v61h150v-56q0 -87 -50.5 -132t-141.5 -45q-95 0 -148 50.5zM282 355v58q0 32 -11.5 45.5t-31.5 13.5q-19 0 -29 -15t-10 -53v-49h82zM122.5 766.5
q41.5 41.5 115.5 41.5t115.5 -41.5t41.5 -117.5h-92q0 40 -15 58t-50 18t-50 -18t-15 -58h-92q0 76 41.5 117.5z" />
    <glyph glyph-name="emacron" unicode="&#x113;" horiz-adv-x="470" 
d="M92 40.5q-53 50.5 -53 142.5v212q0 92 53 142.5t148 50.5q96 0 144 -49t48 -144v-116h-232v-111q0 -62 40 -62q42 0 42 56v61h150v-56q0 -87 -50.5 -132t-141.5 -45q-95 0 -148 50.5zM282 355v58q0 32 -11.5 45.5t-31.5 13.5q-19 0 -29 -15t-10 -53v-49h82zM100 743h276
v-77h-276v77z" />
    <glyph glyph-name="eogonek" unicode="&#x119;" horiz-adv-x="470" 
d="M92 40.5q-53 50.5 -53 142.5v212q0 92 53 142.5t148 50.5q96 0 144 -49t48 -144v-116h-232v-111q0 -62 40 -62q42 0 42 56v61h150v-56q0 -87 -50.5 -132t-141.5 -45q-95 0 -148 50.5zM282 355v58q0 32 -11.5 45.5t-31.5 13.5q-19 0 -29 -15t-10 -53v-49h82zM202 -227.5
q-46 22.5 -46 85.5q0 38 23 80.5t55 71.5h73q-36 -66 -36 -121q0 -31 18 -45t46 -14q15 0 29 2l-16 -79q-12 -3 -33 -3q-67 0 -113 22.5z" />
    <glyph glyph-name="uni1EBD" unicode="&#x1ebd;" horiz-adv-x="470" 
d="M92 40.5q-53 50.5 -53 142.5v212q0 92 53 142.5t148 50.5q96 0 144 -49t48 -144v-116h-232v-111q0 -62 40 -62q42 0 42 56v61h150v-56q0 -87 -50.5 -132t-141.5 -45q-95 0 -148 50.5zM282 355v58q0 32 -11.5 45.5t-31.5 13.5q-19 0 -29 -15t-10 -53v-49h82zM285 674.5
q-16 6.5 -36 19.5q-18 10 -30.5 15.5t-24.5 5.5q-36 0 -36 -41h-78q-2 142 90 142q17 0 31 -5.5t35 -17.5q17 -10 30 -15.5t27 -5.5q31 0 31 38h72q0 -63 -15 -102.5t-62 -39.5q-18 0 -34 6.5z" />
    <glyph glyph-name="uni0259" unicode="&#x259;" horiz-adv-x="470" 
d="M86 37q-48 49 -48 144v116h231v112q0 63 -39 63q-42 0 -42 -56v-61h-150v57q0 86 50.5 131t141.5 45q94 0 147.5 -50.5t53.5 -142.5v-213q0 -93 -53 -143.5t-148 -50.5q-96 0 -144 49zM259.5 119.5q9.5 15.5 9.5 52.5v49h-81v-57q0 -33 11 -46.5t31 -13.5t29.5 15.5z" />
    <glyph glyph-name="uni0292" unicode="&#x292;" horiz-adv-x="485" 
d="M415.5 229q42.5 -61 42.5 -180t-52 -186.5t-168 -67.5t-166 66.5t-50 188.5v29h160v-29q0 -79 12.5 -110t45.5 -31t44 30.5t11 104.5q0 65 -8.5 100t-32 51t-69.5 16h-64v95l122 153h-186v119h356v-99l-147 -183q107 -6 149.5 -67z" />
    <glyph glyph-name="uni01EF" unicode="&#x1ef;" horiz-adv-x="485" 
d="M415.5 229q42.5 -61 42.5 -180t-52 -186.5t-168 -67.5t-166 66.5t-50 188.5v29h160v-29q0 -79 12.5 -110t45.5 -31t44 30.5t11 104.5q0 65 -8.5 100t-32 51t-69.5 16h-64v95l122 153h-186v119h356v-99l-147 -183q107 -6 149.5 -67zM76 826h116l51 -110l51 110h116
l-88 -187h-158z" />
    <glyph glyph-name="f" unicode="f" horiz-adv-x="320" 
d="M72 468h-55v110h55v43q0 58 11 93.5t45.5 55.5t101.5 20q42 0 78 -5v-121q-22 5 -35 5q-38 0 -38 -45v-46h73v-110h-73v-468h-163v468z" />
    <glyph glyph-name="uni1E1F" unicode="&#x1e1f;" horiz-adv-x="320" 
d="M72 468h-55v110h55v43q0 58 11 93.5t45.5 55.5t101.5 20q42 0 78 -5v-121q-22 5 -35 5q-38 0 -38 -45v-46h73v-110h-73v-468h-163v468zM119 1013h154v-154h-154v154z" />
    <glyph glyph-name="g" unicode="g" horiz-adv-x="501" 
d="M82 -170.5q-57 29.5 -57 88.5q0 74 90 115q-80 22 -80 92q0 33 15.5 58t48.5 54q-57 51 -57 150q0 97 53.5 149t153.5 52q89 0 137 -45q23 37 70 60l21 10l38 -78q-14 -5 -42.5 -17.5t-47.5 -23.5q23 -48 23 -108q0 -95 -50.5 -147t-148.5 -52q-54 0 -99 16
q-15 -21 -15 -35q0 -12 12.5 -19t42.5 -11l152 -17q73 -8 108.5 -47t35.5 -104q0 -85 -58.5 -127.5t-188.5 -42.5q-100 0 -157 29.5zM285 306q9 22 9 81t-9 81.5t-36 22.5t-36 -22t-9 -82q0 -58 9 -80.5t36 -22.5t36 22zM346.5 -72q27.5 10 27.5 36q0 21 -18.5 30.5
t-68.5 14.5l-107 11q-34 -26 -34 -54q0 -25 26.5 -36.5t87.5 -11.5q59 0 86.5 10z" />
    <glyph glyph-name="uni01F5" unicode="&#x1f5;" horiz-adv-x="501" 
d="M82 -170.5q-57 29.5 -57 88.5q0 74 90 115q-80 22 -80 92q0 33 15.5 58t48.5 54q-57 51 -57 150q0 97 53.5 149t153.5 52q89 0 137 -45q23 37 70 60l21 10l38 -78q-14 -5 -42.5 -17.5t-47.5 -23.5q23 -48 23 -108q0 -95 -50.5 -147t-148.5 -52q-54 0 -99 16
q-15 -21 -15 -35q0 -12 12.5 -19t42.5 -11l152 -17q73 -8 108.5 -47t35.5 -104q0 -85 -58.5 -127.5t-188.5 -42.5q-100 0 -157 29.5zM285 306q9 22 9 81t-9 81.5t-36 22.5t-36 -22t-9 -82q0 -58 9 -80.5t36 -22.5t36 22zM346.5 -72q27.5 10 27.5 36q0 21 -18.5 30.5
t-68.5 14.5l-107 11q-34 -26 -34 -54q0 -25 26.5 -36.5t87.5 -11.5q59 0 86.5 10zM260 843h166l-126 -201h-103z" />
    <glyph glyph-name="gbreve" unicode="&#x11f;" horiz-adv-x="501" 
d="M82 -170.5q-57 29.5 -57 88.5q0 74 90 115q-80 22 -80 92q0 33 15.5 58t48.5 54q-57 51 -57 150q0 97 53.5 149t153.5 52q89 0 137 -45q23 37 70 60l21 10l38 -78q-14 -5 -42.5 -17.5t-47.5 -23.5q23 -48 23 -108q0 -95 -50.5 -147t-148.5 -52q-54 0 -99 16
q-15 -21 -15 -35q0 -12 12.5 -19t42.5 -11l152 -17q73 -8 108.5 -47t35.5 -104q0 -85 -58.5 -127.5t-188.5 -42.5q-100 0 -157 29.5zM285 306q9 22 9 81t-9 81.5t-36 22.5t-36 -22t-9 -82q0 -58 9 -80.5t36 -22.5t36 22zM346.5 -72q27.5 10 27.5 36q0 21 -18.5 30.5
t-68.5 14.5l-107 11q-34 -26 -34 -54q0 -25 26.5 -36.5t87.5 -11.5q59 0 86.5 10zM136.5 683.5q-42.5 40.5 -42.5 115.5h92q0 -38 15 -55.5t50 -17.5q34 0 49.5 18t15.5 55h92q0 -74 -42.5 -115t-114.5 -41t-114.5 40.5z" />
    <glyph glyph-name="gcaron" unicode="&#x1e7;" horiz-adv-x="501" 
d="M82 -170.5q-57 29.5 -57 88.5q0 74 90 115q-80 22 -80 92q0 33 15.5 58t48.5 54q-57 51 -57 150q0 97 53.5 149t153.5 52q89 0 137 -45q23 37 70 60l21 10l38 -78q-14 -5 -42.5 -17.5t-47.5 -23.5q23 -48 23 -108q0 -95 -50.5 -147t-148.5 -52q-54 0 -99 16
q-15 -21 -15 -35q0 -12 12.5 -19t42.5 -11l152 -17q73 -8 108.5 -47t35.5 -104q0 -85 -58.5 -127.5t-188.5 -42.5q-100 0 -157 29.5zM285 306q9 22 9 81t-9 81.5t-36 22.5t-36 -22t-9 -82q0 -58 9 -80.5t36 -22.5t36 22zM346.5 -72q27.5 10 27.5 36q0 21 -18.5 30.5
t-68.5 14.5l-107 11q-34 -26 -34 -54q0 -25 26.5 -36.5t87.5 -11.5q59 0 86.5 10zM84 826h116l51 -110l51 110h116l-88 -187h-158z" />
    <glyph glyph-name="gcircumflex" unicode="&#x11d;" horiz-adv-x="501" 
d="M82 -170.5q-57 29.5 -57 88.5q0 74 90 115q-80 22 -80 92q0 33 15.5 58t48.5 54q-57 51 -57 150q0 97 53.5 149t153.5 52q89 0 137 -45q23 37 70 60l21 10l38 -78q-14 -5 -42.5 -17.5t-47.5 -23.5q23 -48 23 -108q0 -95 -50.5 -147t-148.5 -52q-54 0 -99 16
q-15 -21 -15 -35q0 -12 12.5 -19t42.5 -11l152 -17q73 -8 108.5 -47t35.5 -104q0 -85 -58.5 -127.5t-188.5 -42.5q-100 0 -157 29.5zM285 306q9 22 9 81t-9 81.5t-36 22.5t-36 -22t-9 -82q0 -58 9 -80.5t36 -22.5t36 22zM346.5 -72q27.5 10 27.5 36q0 21 -18.5 30.5
t-68.5 14.5l-107 11q-34 -26 -34 -54q0 -25 26.5 -36.5t87.5 -11.5q59 0 86.5 10zM183 841h133l98 -192h-120l-44 119l-43 -119h-119z" />
    <glyph glyph-name="gcommaaccent" unicode="&#x123;" horiz-adv-x="501" 
d="M82 -170.5q-57 29.5 -57 88.5q0 74 90 115q-80 22 -80 92q0 33 15.5 58t48.5 54q-57 51 -57 150q0 97 53.5 149t153.5 52q89 0 137 -45q23 37 70 60l21 10l38 -78q-14 -5 -42.5 -17.5t-47.5 -23.5q23 -48 23 -108q0 -95 -50.5 -147t-148.5 -52q-54 0 -99 16
q-15 -21 -15 -35q0 -12 12.5 -19t42.5 -11l152 -17q73 -8 108.5 -47t35.5 -104q0 -85 -58.5 -127.5t-188.5 -42.5q-100 0 -157 29.5zM285 306q9 22 9 81t-9 81.5t-36 22.5t-36 -22t-9 -82q0 -58 9 -80.5t36 -22.5t36 22zM346.5 -72q27.5 10 27.5 36q0 21 -18.5 30.5
t-68.5 14.5l-107 11q-34 -26 -34 -54q0 -25 26.5 -36.5t87.5 -11.5q59 0 86.5 10zM314 878q-33 -6 -52 -24t-19 -57h85v-152h-154l1 130q0 154 126 157z" />
    <glyph glyph-name="gdotaccent" unicode="&#x121;" horiz-adv-x="501" 
d="M82 -170.5q-57 29.5 -57 88.5q0 74 90 115q-80 22 -80 92q0 33 15.5 58t48.5 54q-57 51 -57 150q0 97 53.5 149t153.5 52q89 0 137 -45q23 37 70 60l21 10l38 -78q-14 -5 -42.5 -17.5t-47.5 -23.5q23 -48 23 -108q0 -95 -50.5 -147t-148.5 -52q-54 0 -99 16
q-15 -21 -15 -35q0 -12 12.5 -19t42.5 -11l152 -17q73 -8 108.5 -47t35.5 -104q0 -85 -58.5 -127.5t-188.5 -42.5q-100 0 -157 29.5zM285 306q9 22 9 81t-9 81.5t-36 22.5t-36 -22t-9 -82q0 -58 9 -80.5t36 -22.5t36 22zM346.5 -72q27.5 10 27.5 36q0 21 -18.5 30.5
t-68.5 14.5l-107 11q-34 -26 -34 -54q0 -25 26.5 -36.5t87.5 -11.5q59 0 86.5 10zM174 806h154v-154h-154v154z" />
    <glyph glyph-name="uni01E5" unicode="&#x1e5;" horiz-adv-x="501" 
d="M522 -53h-37q-7 -74 -66 -110.5t-180 -36.5q-101 0 -157.5 31.5t-56.5 96.5q0 13 1 19h-35v51h57q25 31 65 49q-37 11 -57.5 31.5t-20.5 46.5q0 33 15.5 58t48.5 54q-57 51 -57 150q0 97 53.5 149t153.5 52q89 0 137 -45q23 37 70 60l21 10l38 -78q-14 -5 -42.5 -17.5
t-47.5 -23.5q23 -48 23 -108q0 -95 -50.5 -147t-148.5 -52q-54 0 -99 16q-15 -17 -15 -28q0 -9 11.5 -13.5t43.5 -7.5l152 -18q67 -7 102 -41.5t41 -96.5h37v-51zM213 469q-9 -22 -9 -82q0 -58 9 -80.5t36 -22.5t36 22t9 81t-9 81.5t-36 22.5t-36 -22zM146 -2h222
q-7 11 -25.5 16.5t-55.5 9.5l-107 11q-26 -20 -34 -37zM333.5 -80.5q26.5 8.5 35.5 27.5h-223q9 -18 36 -27t78 -9q47 0 73.5 8.5z" />
    <glyph glyph-name="h" unicode="h" horiz-adv-x="509" 
d="M52 810h162v-283q61 61 142 61q50 0 78 -37.5t28 -97.5v-453h-162v430q0 22 -7.5 32.5t-25.5 10.5q-21 0 -53 -21v-452h-162v810z" />
    <glyph glyph-name="hbar" unicode="&#x127;" horiz-adv-x="510" 
d="M52 671h-46v75h46v64h163v-64h118v-75h-118v-144q61 61 141 61q51 0 78.5 -37.5t27.5 -97.5v-453h-162v430q0 22 -7 32.5t-25 10.5q-21 0 -53 -21v-452h-163v671z" />
    <glyph glyph-name="uni021F" unicode="&#x21f;" horiz-adv-x="509" 
d="M52 810h162v-283q61 61 142 61q50 0 78 -37.5t28 -97.5v-453h-162v430q0 22 -7.5 32.5t-25.5 10.5q-21 0 -53 -21v-452h-162v810zM170 1020h116l51 -110l51 110h116l-88 -187h-158z" />
    <glyph glyph-name="hcircumflex" unicode="&#x125;" horiz-adv-x="509" 
d="M52 810h162v-283q61 61 142 61q50 0 78 -37.5t28 -97.5v-453h-162v430q0 22 -7.5 32.5t-25.5 10.5q-21 0 -53 -21v-452h-162v810zM65 1073h133l98 -192h-120l-44 119l-43 -119h-119z" />
    <glyph glyph-name="i" unicode="i" horiz-adv-x="265" 
d="M51 789h164v-113h-164v113zM52 578h163v-578h-163v578z" />
    <glyph glyph-name="dotlessi" unicode="&#x131;" horiz-adv-x="280" 
d="M59 578h163v-578h-163v578z" />
    <glyph glyph-name="iacute" unicode="&#xed;" horiz-adv-x="280" 
d="M59 578h163v-578h-163v578zM150 843h166l-126 -201h-103z" />
    <glyph glyph-name="ibreve" unicode="&#x12d;" horiz-adv-x="280" 
d="M59 578h163v-578h-163v578zM26.5 683.5q-42.5 40.5 -42.5 115.5h92q0 -38 15 -55.5t50 -17.5q34 0 49.5 18t15.5 55h92q0 -74 -42.5 -115t-114.5 -41t-114.5 40.5z" />
    <glyph glyph-name="icircumflex" unicode="&#xee;" horiz-adv-x="280" 
d="M59 578h163v-578h-163v578zM73 841h133l98 -192h-120l-44 119l-43 -119h-119z" />
    <glyph glyph-name="uni0209" unicode="&#x209;" horiz-adv-x="280" 
d="M59 578h163v-578h-163v578zM-82 845h124l64 -207h-88zM101 845h119l59 -207h-86z" />
    <glyph glyph-name="idieresis" unicode="&#xef;" horiz-adv-x="280" 
d="M59 578h163v-578h-163v578zM-33 810h130v-148h-130v148zM185 810h130v-148h-130v148z" />
    <glyph glyph-name="i.loclTRK" horiz-adv-x="280" 
d="M59 578h163v-578h-163v578zM64 806h154v-154h-154v154z" />
    <glyph glyph-name="uni1ECB" unicode="&#x1ecb;" horiz-adv-x="265" 
d="M51 789h164v-113h-164v113zM52 578h163v-578h-163v578zM63 -70h140v-138h-140v138z" />
    <glyph glyph-name="igrave" unicode="&#xec;" horiz-adv-x="280" 
d="M59 578h163v-578h-163v578zM-34 843h168l61 -201h-102z" />
    <glyph glyph-name="uni1EC9" unicode="&#x1ec9;" horiz-adv-x="280" 
d="M59 578h163v-578h-163v578zM86 679q39 19 55.5 31t16.5 33q0 35 -57 35q-32 0 -62 -7v68q48 13 102 13q53 0 87.5 -24t34.5 -75q0 -48 -32.5 -77t-89.5 -49z" />
    <glyph glyph-name="uni020B" unicode="&#x20b;" horiz-adv-x="280" 
d="M59 578h163v-578h-163v578zM25.5 766.5q41.5 41.5 115.5 41.5t115.5 -41.5t41.5 -117.5h-92q0 40 -15 58t-50 18t-50 -18t-15 -58h-92q0 76 41.5 117.5z" />
    <glyph glyph-name="ij" unicode="&#x133;" horiz-adv-x="542" 
d="M51 789h164v-113h-164v113zM52 578h163v-578h-163v578zM329 789h163v-113h-163v113zM256 -167v117q18 -4 29 -4q44 0 44 49v583h163v-603q0 -70 -38.5 -112.5t-110.5 -42.5q-45 0 -87 13z" />
    <glyph glyph-name="imacron" unicode="&#x12b;" horiz-adv-x="280" 
d="M59 578h163v-578h-163v578zM3 743h276v-77h-276v77z" />
    <glyph glyph-name="iogonek" unicode="&#x12f;" horiz-adv-x="265" 
d="M51 789h164v-113h-164v113zM52 578h163v-578h-163v578zM66 -237.5q-46 22.5 -46 85.5q0 38 23 80.5t55 71.5h73q-36 -66 -36 -121q0 -31 18 -45t46 -14q15 0 29 2l-16 -79q-12 -3 -33 -3q-67 0 -113 22.5z" />
    <glyph glyph-name="itilde" unicode="&#x129;" horiz-adv-x="280" 
d="M59 578h163v-578h-163v578zM188 674.5q-16 6.5 -36 19.5q-18 10 -30.5 15.5t-24.5 5.5q-36 0 -36 -41h-78q-2 142 90 142q17 0 31 -5.5t35 -17.5q17 -10 30 -15.5t27 -5.5q31 0 31 38h72q0 -63 -15 -102.5t-62 -39.5q-18 0 -34 6.5z" />
    <glyph glyph-name="j" unicode="j" horiz-adv-x="277" 
d="M64 789h163v-113h-163v113zM-9 -167v117q18 -4 29 -4q44 0 44 49v583h163v-603q0 -70 -38.5 -112.5t-110.5 -42.5q-45 0 -87 13z" />
    <glyph glyph-name="uni0237" unicode="&#x237;" horiz-adv-x="277" 
d="M-9 -167v117q18 -4 29 -4q44 0 44 49v583h163v-603q0 -70 -38.5 -112.5t-110.5 -42.5q-45 0 -87 13z" />
    <glyph glyph-name="jcircumflex" unicode="&#x135;" horiz-adv-x="277" 
d="M-9 -167v117q18 -4 29 -4q44 0 44 49v583h163v-603q0 -70 -38.5 -112.5t-110.5 -42.5q-45 0 -87 13zM78 841h133l98 -192h-120l-44 119l-43 -119h-119z" />
    <glyph glyph-name="k" unicode="k" horiz-adv-x="541" 
d="M51 810h162v-449l142 217h183l-154 -237l152 -341h-178l-102 275l-43 -55v-220h-162v810z" />
    <glyph glyph-name="uni01E9" unicode="&#x1e9;" horiz-adv-x="541" 
d="M51 810h162v-449l142 217h183l-154 -237l152 -341h-178l-102 275l-43 -55v-220h-162v810zM183 999h116l51 -110l51 110h116l-88 -187h-158z" />
    <glyph glyph-name="kcommaaccent" unicode="&#x137;" horiz-adv-x="541" 
d="M51 810h162v-449l142 217h183l-154 -237l152 -341h-178l-102 275l-43 -55v-220h-162v810zM208 -302q33 6 52 24t19 57h-85v152h154l-1 -130q0 -154 -126 -157z" />
    <glyph glyph-name="kgreenlandic" unicode="&#x138;" horiz-adv-x="508" 
d="M50 578h163v-241l111 241h176l-118 -257l120 -321h-171l-92 267l-26 -38v-229h-163v578z" />
    <glyph glyph-name="l" unicode="l" horiz-adv-x="274" 
d="M58 810h162v-810h-162v810z" />
    <glyph glyph-name="lacute" unicode="&#x13a;" horiz-adv-x="274" 
d="M58 810h162v-810h-162v810zM148 1075h166l-126 -201h-103z" />
    <glyph glyph-name="lcaron" unicode="&#x13e;" horiz-adv-x="408" 
d="M58 810h162v-810h-162v810zM284 569q71 18 71 88h-86v154h154v-134q0 -149 -129 -160z" />
    <glyph glyph-name="lcommaaccent" unicode="&#x13c;" horiz-adv-x="274" 
d="M58 810h162v-810h-162v810zM76 -302q33 6 52 24t19 57h-85v152h154l-1 -130q0 -154 -126 -157z" />
    <glyph glyph-name="ldot" unicode="&#x140;" horiz-adv-x="363" 
d="M58 810h162v-810h-162v810zM265 517h111v-152h-111v152z" />
    <glyph glyph-name="uni01C9" unicode="&#x1c9;" horiz-adv-x="551" 
d="M58 810h162v-810h-162v810zM338 789h163v-113h-163v113zM265 -167v117q18 -4 29 -4q44 0 44 49v583h163v-603q0 -70 -38.5 -112.5t-110.5 -42.5q-45 0 -87 13z" />
    <glyph glyph-name="lslash" unicode="&#x142;" horiz-adv-x="334" 
d="M87 414l-67 -29v91l67 29v305h162v-236l77 33v-91l-77 -32v-484h-162v414z" />
    <glyph glyph-name="m" unicode="m" horiz-adv-x="753" 
d="M51 578h160v-46q58 57 137 57q35 0 60.5 -17.5t38.5 -51.5q61 69 147 69q51 0 81.5 -37.5t30.5 -102.5v-449h-160v432q0 24 -8.5 34.5t-25.5 10.5q-11 0 -26 -5.5t-28 -15.5v-7v-449h-158v432q0 45 -35 45q-23 0 -54 -21v-456h-160v578z" />
    <glyph glyph-name="uni1E41" unicode="&#x1e41;" horiz-adv-x="753" 
d="M51 578h160v-46q58 57 137 57q35 0 60.5 -17.5t38.5 -51.5q61 69 147 69q51 0 81.5 -37.5t30.5 -102.5v-449h-160v432q0 24 -8.5 34.5t-25.5 10.5q-11 0 -26 -5.5t-28 -15.5v-7v-449h-158v432q0 45 -35 45q-23 0 -54 -21v-456h-160v578zM299 806h154v-154h-154v154z" />
    <glyph glyph-name="n" unicode="n" horiz-adv-x="507" 
d="M51 578h163v-58q68 68 139 68q52 0 79.5 -37.5t27.5 -97.5v-453h-162v430q0 22 -7.5 32.5t-25.5 10.5q-20 0 -51 -21v-452h-163v578z" />
    <glyph glyph-name="nacute" unicode="&#x144;" horiz-adv-x="507" 
d="M51 578h163v-58q68 68 139 68q52 0 79.5 -37.5t27.5 -97.5v-453h-162v430q0 22 -7.5 32.5t-25.5 10.5q-20 0 -51 -21v-452h-163v578zM263 843h166l-126 -201h-103z" />
    <glyph glyph-name="napostrophe" unicode="&#x149;" horiz-adv-x="585" 
d="M47 680q32 8 51.5 27.5t19.5 59.5h-86v154h155v-133q-2 -151 -130 -161zM143 578h163v-58q68 68 139 68q52 0 79.5 -37.5t27.5 -97.5v-453h-162v430q0 22 -7.5 32.5t-25.5 10.5q-20 0 -51 -21v-452h-163v578z" />
    <glyph glyph-name="ncaron" unicode="&#x148;" horiz-adv-x="507" 
d="M51 578h163v-58q68 68 139 68q52 0 79.5 -37.5t27.5 -97.5v-453h-162v430q0 22 -7.5 32.5t-25.5 10.5q-20 0 -51 -21v-452h-163v578zM87 826h116l51 -110l51 110h116l-88 -187h-158z" />
    <glyph glyph-name="ncommaaccent" unicode="&#x146;" horiz-adv-x="507" 
d="M51 578h163v-58q68 68 139 68q52 0 79.5 -37.5t27.5 -97.5v-453h-162v430q0 22 -7.5 32.5t-25.5 10.5q-20 0 -51 -21v-452h-163v578zM191 -302q33 6 52 24t19 57h-85v152h154l-1 -130q0 -154 -126 -157z" />
    <glyph glyph-name="eng" unicode="&#x14b;" horiz-adv-x="476" 
d="M178 -92q47 0 70 7.5t32 25.5t9 54v435q0 22 -7 32.5t-25 10.5q-21 0 -52 -21v-452h-163v578h163v-51q61 61 140 61q51 0 79 -37.5t28 -97.5v-459q0 -69 -20.5 -110t-67 -60t-127.5 -19h-59v103z" />
    <glyph glyph-name="uni01CC" unicode="&#x1cc;" horiz-adv-x="784" 
d="M51 578h163v-58q68 68 139 68q52 0 79.5 -37.5t27.5 -97.5v-453h-162v430q0 22 -7.5 32.5t-25.5 10.5q-20 0 -51 -21v-452h-163v578zM571 789h163v-113h-163v113zM498 -167v117q18 -4 29 -4q44 0 44 49v583h163v-603q0 -70 -38.5 -112.5t-110.5 -42.5q-45 0 -87 13z" />
    <glyph glyph-name="ntilde" unicode="&#xf1;" horiz-adv-x="507" 
d="M51 578h163v-58q68 68 139 68q52 0 79.5 -37.5t27.5 -97.5v-453h-162v430q0 22 -7.5 32.5t-25.5 10.5q-20 0 -51 -21v-452h-163v578zM301 674.5q-16 6.5 -36 19.5q-18 10 -30.5 15.5t-24.5 5.5q-36 0 -36 -41h-78q-2 142 90 142q17 0 31 -5.5t35 -17.5q17 -10 30 -15.5
t27 -5.5q31 0 31 38h72q0 -63 -15 -102.5t-62 -39.5q-18 0 -34 6.5z" />
    <glyph glyph-name="o" unicode="o" horiz-adv-x="483" 
d="M92.5 38q-53.5 48 -53.5 141v220q0 93 53.5 141t148.5 48t149 -48.5t54 -140.5v-220q0 -92 -54 -140.5t-149 -48.5t-148.5 48zM274 115.5q9 17.5 9 52.5v242q0 35 -9 52.5t-32 17.5t-32.5 -18t-9.5 -52v-242q0 -35 9.5 -52.5t32.5 -17.5t32 17.5z" />
    <glyph glyph-name="oacute" unicode="&#xf3;" horiz-adv-x="483" 
d="M92.5 38q-53.5 48 -53.5 141v220q0 93 53.5 141t148.5 48t149 -48.5t54 -140.5v-220q0 -92 -54 -140.5t-149 -48.5t-148.5 48zM274 115.5q9 17.5 9 52.5v242q0 35 -9 52.5t-32 17.5t-32.5 -18t-9.5 -52v-242q0 -35 9.5 -52.5t32.5 -17.5t32 17.5zM250 843h166l-126 -201
h-103z" />
    <glyph glyph-name="obreve" unicode="&#x14f;" horiz-adv-x="483" 
d="M92.5 38q-53.5 48 -53.5 141v220q0 93 53.5 141t148.5 48t149 -48.5t54 -140.5v-220q0 -92 -54 -140.5t-149 -48.5t-148.5 48zM274 115.5q9 17.5 9 52.5v242q0 35 -9 52.5t-32 17.5t-32.5 -18t-9.5 -52v-242q0 -35 9.5 -52.5t32.5 -17.5t32 17.5zM126.5 683.5
q-42.5 40.5 -42.5 115.5h92q0 -38 15 -55.5t50 -17.5q34 0 49.5 18t15.5 55h92q0 -74 -42.5 -115t-114.5 -41t-114.5 40.5z" />
    <glyph glyph-name="ocircumflex" unicode="&#xf4;" horiz-adv-x="483" 
d="M92.5 38q-53.5 48 -53.5 141v220q0 93 53.5 141t148.5 48t149 -48.5t54 -140.5v-220q0 -92 -54 -140.5t-149 -48.5t-148.5 48zM274 115.5q9 17.5 9 52.5v242q0 35 -9 52.5t-32 17.5t-32.5 -18t-9.5 -52v-242q0 -35 9.5 -52.5t32.5 -17.5t32 17.5zM173 841h133l98 -192
h-120l-44 119l-43 -119h-119z" />
    <glyph glyph-name="uni1ED1" unicode="&#x1ed1;" horiz-adv-x="483" 
d="M92.5 38q-53.5 48 -53.5 141v220q0 93 53.5 141t148.5 48t149 -48.5t54 -140.5v-220q0 -92 -54 -140.5t-149 -48.5t-148.5 48zM274 115.5q9 17.5 9 52.5v242q0 35 -9 52.5t-32 17.5t-32.5 -18t-9.5 -52v-242q0 -35 9.5 -52.5t32.5 -17.5t32 17.5zM429 890h121l-88 -123
h-86zM173 816h133l98 -167h-116l-48 100l-47 -100h-115z" />
    <glyph glyph-name="uni1ED9" unicode="&#x1ed9;" horiz-adv-x="483" 
d="M92.5 38q-53.5 48 -53.5 141v220q0 93 53.5 141t148.5 48t149 -48.5t54 -140.5v-220q0 -92 -54 -140.5t-149 -48.5t-148.5 48zM274 115.5q9 17.5 9 52.5v242q0 35 -9 52.5t-32 17.5t-32.5 -18t-9.5 -52v-242q0 -35 9.5 -52.5t32.5 -17.5t32 17.5zM172 -70h140v-138h-140
v138zM173 816h133l98 -167h-116l-48 100l-47 -100h-115z" />
    <glyph glyph-name="uni1ED3" unicode="&#x1ed3;" horiz-adv-x="483" 
d="M92.5 38q-53.5 48 -53.5 141v220q0 93 53.5 141t148.5 48t149 -48.5t54 -140.5v-220q0 -92 -54 -140.5t-149 -48.5t-148.5 48zM274 115.5q9 17.5 9 52.5v242q0 35 -9 52.5t-32 17.5t-32.5 -18t-9.5 -52v-242q0 -35 9.5 -52.5t32.5 -17.5t32 17.5zM317 890h122l53 -123
h-87zM173 816h133l98 -167h-116l-48 100l-47 -100h-115z" />
    <glyph glyph-name="uni1ED5" unicode="&#x1ed5;" horiz-adv-x="483" 
d="M92.5 38q-53.5 48 -53.5 141v220q0 93 53.5 141t148.5 48t149 -48.5t54 -140.5v-220q0 -92 -54 -140.5t-149 -48.5t-148.5 48zM274 115.5q9 17.5 9 52.5v242q0 35 -9 52.5t-32 17.5t-32.5 -18t-9.5 -52v-242q0 -35 9.5 -52.5t32.5 -17.5t32 17.5zM371 790q18 15 27.5 29
t9.5 31q0 19 -12.5 29.5t-33.5 10.5q-25 0 -51 -10v68q42 16 82 16q52 0 83.5 -25.5t31.5 -73.5q0 -44 -24 -72.5t-67 -51.5zM173 816h133l98 -167h-116l-48 100l-47 -100h-115z" />
    <glyph glyph-name="uni1ED7" unicode="&#x1ed7;" horiz-adv-x="483" 
d="M92.5 38q-53.5 48 -53.5 141v220q0 93 53.5 141t148.5 48t149 -48.5t54 -140.5v-220q0 -92 -54 -140.5t-149 -48.5t-148.5 48zM274 115.5q9 17.5 9 52.5v242q0 35 -9 52.5t-32 17.5t-32.5 -18t-9.5 -52v-242q0 -35 9.5 -52.5t32.5 -17.5t32 17.5zM173 816h133l98 -167
h-116l-48 100l-47 -100h-115zM288 871.5q-16 6.5 -36 19.5q-18 10 -30.5 15.5t-24.5 5.5q-36 0 -36 -41h-78q-2 142 90 142q17 0 31 -5.5t35 -17.5q17 -10 30 -15.5t27 -5.5q31 0 31 38h72q0 -63 -15 -102.5t-62 -39.5q-18 0 -34 6.5z" />
    <glyph glyph-name="uni020D" unicode="&#x20d;" horiz-adv-x="483" 
d="M92.5 38q-53.5 48 -53.5 141v220q0 93 53.5 141t148.5 48t149 -48.5t54 -140.5v-220q0 -92 -54 -140.5t-149 -48.5t-148.5 48zM274 115.5q9 17.5 9 52.5v242q0 35 -9 52.5t-32 17.5t-32.5 -18t-9.5 -52v-242q0 -35 9.5 -52.5t32.5 -17.5t32 17.5zM18 845h124l64 -207h-88
zM201 845h119l59 -207h-86z" />
    <glyph glyph-name="odieresis" unicode="&#xf6;" horiz-adv-x="483" 
d="M92.5 38q-53.5 48 -53.5 141v220q0 93 53.5 141t148.5 48t149 -48.5t54 -140.5v-220q0 -92 -54 -140.5t-149 -48.5t-148.5 48zM274 115.5q9 17.5 9 52.5v242q0 35 -9 52.5t-32 17.5t-32.5 -18t-9.5 -52v-242q0 -35 9.5 -52.5t32.5 -17.5t32 17.5zM67 810h130v-148h-130
v148zM285 810h130v-148h-130v148z" />
    <glyph glyph-name="uni022B" unicode="&#x22b;" horiz-adv-x="483" 
d="M92.5 38q-53.5 48 -53.5 141v220q0 93 53.5 141t148.5 48t149 -48.5t54 -140.5v-220q0 -92 -54 -140.5t-149 -48.5t-148.5 48zM274 115.5q9 17.5 9 52.5v242q0 35 -9 52.5t-32 17.5t-32.5 -18t-9.5 -52v-242q0 -35 9.5 -52.5t32.5 -17.5t32 17.5zM67 810h130v-148h-130
v148zM285 810h130v-148h-130v148zM103 975h276v-77h-276v77z" />
    <glyph glyph-name="uni0231" unicode="&#x231;" horiz-adv-x="483" 
d="M92.5 38q-53.5 48 -53.5 141v220q0 93 53.5 141t148.5 48t149 -48.5t54 -140.5v-220q0 -92 -54 -140.5t-149 -48.5t-148.5 48zM274 115.5q9 17.5 9 52.5v242q0 35 -9 52.5t-32 17.5t-32.5 -18t-9.5 -52v-242q0 -35 9.5 -52.5t32.5 -17.5t32 17.5zM164 806h154v-154h-154
v154zM103 971h276v-77h-276v77z" />
    <glyph glyph-name="uni1ECD" unicode="&#x1ecd;" horiz-adv-x="483" 
d="M92.5 38q-53.5 48 -53.5 141v220q0 93 53.5 141t148.5 48t149 -48.5t54 -140.5v-220q0 -92 -54 -140.5t-149 -48.5t-148.5 48zM274 115.5q9 17.5 9 52.5v242q0 35 -9 52.5t-32 17.5t-32.5 -18t-9.5 -52v-242q0 -35 9.5 -52.5t32.5 -17.5t32 17.5zM172 -70h140v-138h-140
v138z" />
    <glyph glyph-name="ograve" unicode="&#xf2;" horiz-adv-x="483" 
d="M92.5 38q-53.5 48 -53.5 141v220q0 93 53.5 141t148.5 48t149 -48.5t54 -140.5v-220q0 -92 -54 -140.5t-149 -48.5t-148.5 48zM274 115.5q9 17.5 9 52.5v242q0 35 -9 52.5t-32 17.5t-32.5 -18t-9.5 -52v-242q0 -35 9.5 -52.5t32.5 -17.5t32 17.5zM66 843h168l61 -201
h-102z" />
    <glyph glyph-name="uni1ECF" unicode="&#x1ecf;" horiz-adv-x="483" 
d="M92.5 38q-53.5 48 -53.5 141v220q0 93 53.5 141t148.5 48t149 -48.5t54 -140.5v-220q0 -92 -54 -140.5t-149 -48.5t-148.5 48zM274 115.5q9 17.5 9 52.5v242q0 35 -9 52.5t-32 17.5t-32.5 -18t-9.5 -52v-242q0 -35 9.5 -52.5t32.5 -17.5t32 17.5zM186 679q39 19 55.5 31
t16.5 33q0 35 -57 35q-32 0 -62 -7v68q48 13 102 13q53 0 87.5 -24t34.5 -75q0 -48 -32.5 -77t-89.5 -49z" />
    <glyph glyph-name="ohorn" unicode="&#x1a1;" horiz-adv-x="483" 
d="M92.5 38q-53.5 48 -53.5 141v220q0 93 53.5 141t148.5 48t149 -48.5t54 -140.5v-220q0 -92 -54 -140.5t-149 -48.5t-148.5 48zM274 115.5q9 17.5 9 52.5v242q0 35 -9 52.5t-32 17.5t-32.5 -18t-9.5 -52v-242q0 -35 9.5 -52.5t32.5 -17.5t32 17.5zM266 578h10
q29 0 41.5 20.5t12.5 65.5h114q0 -74 -45.5 -112.5t-122.5 -38.5h-10v65z" />
    <glyph glyph-name="uni1EDB" unicode="&#x1edb;" horiz-adv-x="483" 
d="M92.5 38q-53.5 48 -53.5 141v220q0 93 53.5 141t148.5 48t149 -48.5t54 -140.5v-220q0 -92 -54 -140.5t-149 -48.5t-148.5 48zM274 115.5q9 17.5 9 52.5v242q0 35 -9 52.5t-32 17.5t-32.5 -18t-9.5 -52v-242q0 -35 9.5 -52.5t32.5 -17.5t32 17.5zM266 578h10
q29 0 41.5 20.5t12.5 65.5h114q0 -74 -45.5 -112.5t-122.5 -38.5h-10v65zM250 874h166l-126 -201h-103z" />
    <glyph glyph-name="uni1EE3" unicode="&#x1ee3;" horiz-adv-x="483" 
d="M92.5 38q-53.5 48 -53.5 141v220q0 93 53.5 141t148.5 48t149 -48.5t54 -140.5v-220q0 -92 -54 -140.5t-149 -48.5t-148.5 48zM274 115.5q9 17.5 9 52.5v242q0 35 -9 52.5t-32 17.5t-32.5 -18t-9.5 -52v-242q0 -35 9.5 -52.5t32.5 -17.5t32 17.5zM266 578h10
q29 0 41.5 20.5t12.5 65.5h114q0 -74 -45.5 -112.5t-122.5 -38.5h-10v65zM171 -70h140v-138h-140v138z" />
    <glyph glyph-name="uni1EDD" unicode="&#x1edd;" horiz-adv-x="483" 
d="M92.5 38q-53.5 48 -53.5 141v220q0 93 53.5 141t148.5 48t149 -48.5t54 -140.5v-220q0 -92 -54 -140.5t-149 -48.5t-148.5 48zM274 115.5q9 17.5 9 52.5v242q0 35 -9 52.5t-32 17.5t-32.5 -18t-9.5 -52v-242q0 -35 9.5 -52.5t32.5 -17.5t32 17.5zM266 578h10
q29 0 41.5 20.5t12.5 65.5h114q0 -74 -45.5 -112.5t-122.5 -38.5h-10v65zM66 874h168l61 -201h-102z" />
    <glyph glyph-name="uni1EDF" unicode="&#x1edf;" horiz-adv-x="483" 
d="M92.5 38q-53.5 48 -53.5 141v220q0 93 53.5 141t148.5 48t149 -48.5t54 -140.5v-220q0 -92 -54 -140.5t-149 -48.5t-148.5 48zM274 115.5q9 17.5 9 52.5v242q0 35 -9 52.5t-32 17.5t-32.5 -18t-9.5 -52v-242q0 -35 9.5 -52.5t32.5 -17.5t32 17.5zM266 578h10
q29 0 41.5 20.5t12.5 65.5h114q0 -74 -45.5 -112.5t-122.5 -38.5h-10v65zM186 710q39 19 55.5 31t16.5 33q0 35 -57 35q-32 0 -62 -7v68q48 13 102 13q53 0 87.5 -24t34.5 -75q0 -48 -32.5 -77t-89.5 -49z" />
    <glyph glyph-name="uni1EE1" unicode="&#x1ee1;" horiz-adv-x="483" 
d="M92.5 38q-53.5 48 -53.5 141v220q0 93 53.5 141t148.5 48t149 -48.5t54 -140.5v-220q0 -92 -54 -140.5t-149 -48.5t-148.5 48zM274 115.5q9 17.5 9 52.5v242q0 35 -9 52.5t-32 17.5t-32.5 -18t-9.5 -52v-242q0 -35 9.5 -52.5t32.5 -17.5t32 17.5zM266 578h10
q29 0 41.5 20.5t12.5 65.5h114q0 -74 -45.5 -112.5t-122.5 -38.5h-10v65zM288 705.5q-16 6.5 -36 19.5q-18 10 -30.5 15.5t-24.5 5.5q-36 0 -36 -41h-78q-2 142 90 142q17 0 31 -5.5t35 -17.5q17 -10 30 -15.5t27 -5.5q31 0 31 38h72q0 -63 -15 -102.5t-62 -39.5
q-18 0 -34 6.5z" />
    <glyph glyph-name="ohungarumlaut" unicode="&#x151;" horiz-adv-x="483" 
d="M92.5 38q-53.5 48 -53.5 141v220q0 93 53.5 141t148.5 48t149 -48.5t54 -140.5v-220q0 -92 -54 -140.5t-149 -48.5t-148.5 48zM274 115.5q9 17.5 9 52.5v242q0 35 -9 52.5t-32 17.5t-32.5 -18t-9.5 -52v-242q0 -35 9.5 -52.5t32.5 -17.5t32 17.5zM165 849h132l-108 -216
h-84zM347 849h140l-120 -216h-84z" />
    <glyph glyph-name="uni020F" unicode="&#x20f;" horiz-adv-x="483" 
d="M92.5 38q-53.5 48 -53.5 141v220q0 93 53.5 141t148.5 48t149 -48.5t54 -140.5v-220q0 -92 -54 -140.5t-149 -48.5t-148.5 48zM274 115.5q9 17.5 9 52.5v242q0 35 -9 52.5t-32 17.5t-32.5 -18t-9.5 -52v-242q0 -35 9.5 -52.5t32.5 -17.5t32 17.5zM125.5 766.5
q41.5 41.5 115.5 41.5t115.5 -41.5t41.5 -117.5h-92q0 40 -15 58t-50 18t-50 -18t-15 -58h-92q0 76 41.5 117.5z" />
    <glyph glyph-name="omacron" unicode="&#x14d;" horiz-adv-x="483" 
d="M92.5 38q-53.5 48 -53.5 141v220q0 93 53.5 141t148.5 48t149 -48.5t54 -140.5v-220q0 -92 -54 -140.5t-149 -48.5t-148.5 48zM274 115.5q9 17.5 9 52.5v242q0 35 -9 52.5t-32 17.5t-32.5 -18t-9.5 -52v-242q0 -35 9.5 -52.5t32.5 -17.5t32 17.5zM103 743h276v-77h-276
v77z" />
    <glyph glyph-name="uni01EB" unicode="&#x1eb;" horiz-adv-x="483" 
d="M92.5 38q-53.5 48 -53.5 141v220q0 93 53.5 141t148.5 48t149 -48.5t54 -140.5v-220q0 -92 -54 -140.5t-149 -48.5t-148.5 48zM274 115.5q9 17.5 9 52.5v242q0 35 -9 52.5t-32 17.5t-32.5 -18t-9.5 -52v-242q0 -35 9.5 -52.5t32.5 -17.5t32 17.5zM208 -235.5
q-46 22.5 -46 85.5q0 38 23 80.5t55 71.5h73q-36 -66 -36 -121q0 -31 18 -45t46 -14q15 0 29 2l-16 -79q-12 -3 -33 -3q-67 0 -113 22.5z" />
    <glyph glyph-name="oslash" unicode="&#xf8;" horiz-adv-x="477" 
d="M444 399v-220q0 -92 -54 -140.5t-149 -48.5q-55 0 -98 17l-39 -96l-37 16l40 99q-68 49 -68 153v220q0 93 53.5 141t148.5 48q49 0 87 -13l39 98l39 -16l-40 -99q78 -49 78 -159zM200 258l78 194q-8 28 -36 28q-23 0 -32.5 -18t-9.5 -52v-152zM274 115.5q9 17.5 9 52.5
v185l-82 -203q3 -52 41 -52q23 0 32 17.5z" />
    <glyph glyph-name="oslashacute" unicode="&#x1ff;" horiz-adv-x="477" 
d="M444 399v-220q0 -92 -54 -140.5t-149 -48.5q-55 0 -98 17l-39 -96l-37 16l40 99q-68 49 -68 153v220q0 93 53.5 141t148.5 48q49 0 87 -13l39 98l39 -16l-40 -99q78 -49 78 -159zM200 258l78 194q-8 28 -36 28q-23 0 -32.5 -18t-9.5 -52v-152zM274 115.5q9 17.5 9 52.5
v185l-82 -203q3 -52 41 -52q23 0 32 17.5zM248 843h166l-126 -201h-103z" />
    <glyph glyph-name="otilde" unicode="&#xf5;" horiz-adv-x="483" 
d="M92.5 38q-53.5 48 -53.5 141v220q0 93 53.5 141t148.5 48t149 -48.5t54 -140.5v-220q0 -92 -54 -140.5t-149 -48.5t-148.5 48zM274 115.5q9 17.5 9 52.5v242q0 35 -9 52.5t-32 17.5t-32.5 -18t-9.5 -52v-242q0 -35 9.5 -52.5t32.5 -17.5t32 17.5zM288 674.5
q-16 6.5 -36 19.5q-18 10 -30.5 15.5t-24.5 5.5q-36 0 -36 -41h-78q-2 142 90 142q17 0 31 -5.5t35 -17.5q17 -10 30 -15.5t27 -5.5q31 0 31 38h72q0 -63 -15 -102.5t-62 -39.5q-18 0 -34 6.5z" />
    <glyph glyph-name="uni022D" unicode="&#x22d;" horiz-adv-x="483" 
d="M92.5 38q-53.5 48 -53.5 141v220q0 93 53.5 141t148.5 48t149 -48.5t54 -140.5v-220q0 -92 -54 -140.5t-149 -48.5t-148.5 48zM274 115.5q9 17.5 9 52.5v242q0 35 -9 52.5t-32 17.5t-32.5 -18t-9.5 -52v-242q0 -35 9.5 -52.5t32.5 -17.5t32 17.5zM288 674.5
q-16 6.5 -36 19.5q-18 10 -30.5 15.5t-24.5 5.5q-36 0 -36 -41h-78q-2 142 90 142q17 0 31 -5.5t35 -17.5q17 -10 30 -15.5t27 -5.5q31 0 31 38h72q0 -63 -15 -102.5t-62 -39.5q-18 0 -34 6.5zM103 981h276v-77h-276v77z" />
    <glyph glyph-name="oe" unicode="&#x153;" horiz-adv-x="705" 
d="M88.5 35q-47.5 48 -47.5 139v252q0 87 48 131.5t131 44.5q44 0 85.5 -20t54.5 -54q14 35 54.5 54.5t82.5 19.5q173 0 173 -202v-122h-221v-103q0 -86 36 -86q17 0 24.5 15t7.5 46v77h153v-76q0 -77 -43 -120.5t-125 -43.5q-54 0 -92 19t-54 54q-40 -73 -145 -73
q-75 0 -122.5 48zM269 107q10 18 10 62v265q0 68 -39 68t-39 -68v-264q0 -81 37 -81q21 0 31 18zM519 364v81q0 26 -10 41.5t-26 15.5q-15 0 -24.5 -15t-9.5 -42v-81h70z" />
    <glyph glyph-name="p" unicode="p" horiz-adv-x="505" 
d="M51 578h163v-42q28 26 61 39t64 13q63 0 93.5 -47t30.5 -123v-249q0 -83 -33 -131t-93 -48q-61 0 -123 54v-234h-163v768zM289.5 113q10.5 18 10.5 47v270q0 26 -10 43t-30 17q-24 0 -46 -20v-360q23 -15 43 -15q22 0 32.5 18z" />
    <glyph glyph-name="uni1E57" unicode="&#x1e57;" horiz-adv-x="505" 
d="M51 578h163v-42q28 26 61 39t64 13q63 0 93.5 -47t30.5 -123v-249q0 -83 -33 -131t-93 -48q-61 0 -123 54v-234h-163v768zM289.5 113q10.5 18 10.5 47v270q0 26 -10 43t-30 17q-24 0 -46 -20v-360q23 -15 43 -15q22 0 32.5 18zM175 806h154v-154h-154v154z" />
    <glyph glyph-name="thorn" unicode="&#xfe;" horiz-adv-x="494" 
d="M46 810h163v-274q59 52 125 52q62 0 92.5 -47t30.5 -123v-249q0 -82 -33 -130.5t-93 -48.5q-59 0 -122 53v-233h-163v1000zM283 113q10 18 10 47v270q0 27 -9.5 43.5t-30.5 16.5q-22 0 -44 -20v-360q22 -15 43 -15t31 18z" />
    <glyph glyph-name="q" unicode="q" horiz-adv-x="504" 
d="M292 48q-60 -58 -116 -58q-66 0 -100 45t-34 133v239q0 83 34.5 132t99.5 49q62 0 116 -49v39h163v-768h-163v238zM292 110v362q-23 15 -43 15q-22 0 -33 -17.5t-11 -45.5v-266q0 -29 11 -46.5t32 -17.5q18 0 44 16z" />
    <glyph glyph-name="r" unicode="r" horiz-adv-x="383" 
d="M53 578h163v-96q30 53 58 78t66 25q14 0 25 -3v-162q-30 12 -53 12q-53 0 -96 -56v-376h-163v578z" />
    <glyph glyph-name="racute" unicode="&#x155;" horiz-adv-x="383" 
d="M53 578h163v-96q30 53 58 78t66 25q14 0 25 -3v-162q-30 12 -53 12q-53 0 -96 -56v-376h-163v578zM207 843h166l-126 -201h-103z" />
    <glyph glyph-name="rcaron" unicode="&#x159;" horiz-adv-x="383" 
d="M53 578h163v-96q30 53 58 78t66 25q14 0 25 -3v-162q-30 12 -53 12q-53 0 -96 -56v-376h-163v578zM31 826h116l51 -110l51 110h116l-88 -187h-158z" />
    <glyph glyph-name="rcommaaccent" unicode="&#x157;" horiz-adv-x="383" 
d="M53 578h163v-96q30 53 58 78t66 25q14 0 25 -3v-162q-30 12 -53 12q-53 0 -96 -56v-376h-163v578zM72 -302q33 6 52 24t19 57h-85v152h154l-1 -130q0 -154 -126 -157z" />
    <glyph glyph-name="uni0211" unicode="&#x211;" horiz-adv-x="383" 
d="M53 578h163v-96q30 53 58 78t66 25q14 0 25 -3v-162q-30 12 -53 12q-53 0 -96 -56v-376h-163v578zM-25 845h124l64 -207h-88zM158 845h119l59 -207h-86z" />
    <glyph glyph-name="uni0213" unicode="&#x213;" horiz-adv-x="383" 
d="M53 578h163v-96q30 53 58 78t66 25q14 0 25 -3v-162q-30 12 -53 12q-53 0 -96 -56v-376h-163v578zM82.5 766.5q41.5 41.5 115.5 41.5t115.5 -41.5t41.5 -117.5h-92q0 40 -15 58t-50 18t-50 -18t-15 -58h-92q0 76 41.5 117.5z" />
    <glyph glyph-name="s" unicode="s" horiz-adv-x="424" 
d="M101.5 24.5q-50.5 34.5 -81.5 110.5l111 49q16 -40 37.5 -62t47.5 -22q38 0 38 30q0 22 -15 39.5t-65 58.5l-42 35q-52 44 -75.5 80t-23.5 86q0 46 24.5 82t65.5 56.5t88 20.5q71 0 118.5 -38.5t67.5 -110.5l-105 -48q-10 32 -31 57.5t-46 25.5q-16 0 -25.5 -9t-9.5 -24
q0 -18 19.5 -39t61.5 -55l41 -36q50 -42 77 -78.5t27 -85.5t-24.5 -84.5t-65 -54t-87.5 -18.5q-77 0 -127.5 34.5z" />
    <glyph glyph-name="sacute" unicode="&#x15b;" horiz-adv-x="424" 
d="M101.5 24.5q-50.5 34.5 -81.5 110.5l111 49q16 -40 37.5 -62t47.5 -22q38 0 38 30q0 22 -15 39.5t-65 58.5l-42 35q-52 44 -75.5 80t-23.5 86q0 46 24.5 82t65.5 56.5t88 20.5q71 0 118.5 -38.5t67.5 -110.5l-105 -48q-10 32 -31 57.5t-46 25.5q-16 0 -25.5 -9t-9.5 -24
q0 -18 19.5 -39t61.5 -55l41 -36q50 -42 77 -78.5t27 -85.5t-24.5 -84.5t-65 -54t-87.5 -18.5q-77 0 -127.5 34.5zM221 843h166l-126 -201h-103z" />
    <glyph glyph-name="scaron" unicode="&#x161;" horiz-adv-x="424" 
d="M101.5 24.5q-50.5 34.5 -81.5 110.5l111 49q16 -40 37.5 -62t47.5 -22q38 0 38 30q0 22 -15 39.5t-65 58.5l-42 35q-52 44 -75.5 80t-23.5 86q0 46 24.5 82t65.5 56.5t88 20.5q71 0 118.5 -38.5t67.5 -110.5l-105 -48q-10 32 -31 57.5t-46 25.5q-16 0 -25.5 -9t-9.5 -24
q0 -18 19.5 -39t61.5 -55l41 -36q50 -42 77 -78.5t27 -85.5t-24.5 -84.5t-65 -54t-87.5 -18.5q-77 0 -127.5 34.5zM45 826h116l51 -110l51 110h116l-88 -187h-158z" />
    <glyph glyph-name="scedilla" unicode="&#x15f;" horiz-adv-x="424" 
d="M101.5 24.5q-50.5 34.5 -81.5 110.5l111 49q16 -40 37.5 -62t47.5 -22q38 0 38 30q0 22 -15 39.5t-65 58.5l-42 35q-52 44 -75.5 80t-23.5 86q0 46 24.5 82t65.5 56.5t88 20.5q71 0 118.5 -38.5t67.5 -110.5l-105 -48q-10 32 -31 57.5t-46 25.5q-16 0 -25.5 -9t-9.5 -24
q0 -18 19.5 -39t61.5 -55l41 -36q50 -42 77 -78.5t27 -85.5t-24.5 -84.5t-65 -54t-87.5 -18.5q-77 0 -127.5 34.5zM156 -265v70q28 -8 57 -8q62 0 62 35q0 25 -27.5 37.5t-64.5 14.5v116h59v-66q64 0 100.5 -26t36.5 -78q0 -54 -42 -80.5t-105 -26.5q-40 0 -76 12z" />
    <glyph glyph-name="scircumflex" unicode="&#x15d;" horiz-adv-x="424" 
d="M101.5 24.5q-50.5 34.5 -81.5 110.5l111 49q16 -40 37.5 -62t47.5 -22q38 0 38 30q0 22 -15 39.5t-65 58.5l-42 35q-52 44 -75.5 80t-23.5 86q0 46 24.5 82t65.5 56.5t88 20.5q71 0 118.5 -38.5t67.5 -110.5l-105 -48q-10 32 -31 57.5t-46 25.5q-16 0 -25.5 -9t-9.5 -24
q0 -18 19.5 -39t61.5 -55l41 -36q50 -42 77 -78.5t27 -85.5t-24.5 -84.5t-65 -54t-87.5 -18.5q-77 0 -127.5 34.5zM144 841h133l98 -192h-120l-44 119l-43 -119h-119z" />
    <glyph glyph-name="scommaaccent" unicode="&#x219;" horiz-adv-x="424" 
d="M101.5 24.5q-50.5 34.5 -81.5 110.5l111 49q16 -40 37.5 -62t47.5 -22q38 0 38 30q0 22 -15 39.5t-65 58.5l-42 35q-52 44 -75.5 80t-23.5 86q0 46 24.5 82t65.5 56.5t88 20.5q71 0 118.5 -38.5t67.5 -110.5l-105 -48q-10 32 -31 57.5t-46 25.5q-16 0 -25.5 -9t-9.5 -24
q0 -18 19.5 -39t61.5 -55l41 -36q50 -42 77 -78.5t27 -85.5t-24.5 -84.5t-65 -54t-87.5 -18.5q-77 0 -127.5 34.5zM149 -302q33 6 52 24t19 57h-85v152h154l-1 -130q0 -154 -126 -157z" />
    <glyph glyph-name="uni1E61" unicode="&#x1e61;" horiz-adv-x="424" 
d="M101.5 24.5q-50.5 34.5 -81.5 110.5l111 49q16 -40 37.5 -62t47.5 -22q38 0 38 30q0 22 -15 39.5t-65 58.5l-42 35q-52 44 -75.5 80t-23.5 86q0 46 24.5 82t65.5 56.5t88 20.5q71 0 118.5 -38.5t67.5 -110.5l-105 -48q-10 32 -31 57.5t-46 25.5q-16 0 -25.5 -9t-9.5 -24
q0 -18 19.5 -39t61.5 -55l41 -36q50 -42 77 -78.5t27 -85.5t-24.5 -84.5t-65 -54t-87.5 -18.5q-77 0 -127.5 34.5zM135 806h154v-154h-154v154z" />
    <glyph glyph-name="germandbls" unicode="&#xdf;" horiz-adv-x="542" 
d="M254 109q53 0 77 27.5t24 93.5q0 58 -23.5 90t-68.5 32v124q35 0 53.5 32t18.5 93q0 53 -15.5 80.5t-49.5 27.5q-35 0 -48 -28t-13 -83v-598h-163v598q0 95 51 159.5t159 64.5q111 0 164 -56t53 -162q0 -127 -118 -174q163 -43 163 -220q0 -117 -67.5 -171t-196.5 -54
v124z" />
    <glyph glyph-name="longs" unicode="&#x17f;" horiz-adv-x="320" 
d="M72 468h-55v110h55v43q0 58 11 93.5t45.5 55.5t101.5 20q42 0 78 -5v-121q-22 5 -35 5q-38 0 -38 -45v-624h-163v468z" />
    <glyph glyph-name="t" unicode="t" horiz-adv-x="354" 
d="M131 12.5q-35 18.5 -49 53.5t-14 91v314h-56v107h56v176h165v-176h82v-107h-82v-298q0 -24 13.5 -35.5t37.5 -11.5q20 0 44 4v-128q-48 -8 -98 -8q-64 0 -99 18.5z" />
    <glyph glyph-name="tbar" unicode="&#x167;" horiz-adv-x="337" 
d="M328 130v-128q-48 -8 -98 -8q-64 0 -99 18.5t-49 53.5t-14 91v146h-55v70h55v98h-56v107h56v176h165v-176h82v-107h-82v-98h82v-70h-82v-130q0 -24 13.5 -35.5t37.5 -11.5q20 0 44 4z" />
    <glyph glyph-name="tcaron" unicode="&#x165;" horiz-adv-x="436" 
d="M131 12.5q-35 18.5 -49 53.5t-14 91v314h-56v107h56v176h165v-176h82v-107h-82v-298q0 -24 13.5 -35.5t37.5 -11.5q20 0 44 4v-128q-48 -8 -98 -8q-64 0 -99 18.5zM292 677q71 18 71 88h-86v154h154v-134q0 -149 -129 -160z" />
    <glyph glyph-name="uni0163" unicode="&#x163;" horiz-adv-x="354" 
d="M131 12.5q-35 18.5 -49 53.5t-14 91v314h-56v107h56v176h165v-176h82v-107h-82v-298q0 -24 13.5 -35.5t37.5 -11.5q20 0 44 4v-128q-48 -8 -98 -8q-64 0 -99 18.5zM162 -265v70q28 -8 57 -8q62 0 62 35q0 25 -27.5 37.5t-64.5 14.5v116h59v-66q64 0 100.5 -26t36.5 -78
q0 -54 -42 -80.5t-105 -26.5q-40 0 -76 12z" />
    <glyph glyph-name="uni021B" unicode="&#x21b;" horiz-adv-x="354" 
d="M131 12.5q-35 18.5 -49 53.5t-14 91v314h-56v107h56v176h165v-176h82v-107h-82v-298q0 -24 13.5 -35.5t37.5 -11.5q20 0 44 4v-128q-48 -8 -98 -8q-64 0 -99 18.5zM155 -302q33 6 52 24t19 57h-85v152h154l-1 -130q0 -154 -126 -157z" />
    <glyph glyph-name="uni1E6B" unicode="&#x1e6b;" horiz-adv-x="354" 
d="M131 12.5q-35 18.5 -49 53.5t-14 91v314h-56v107h56v176h165v-176h82v-107h-82v-298q0 -24 13.5 -35.5t37.5 -11.5q20 0 44 4v-128q-48 -8 -98 -8q-64 0 -99 18.5zM73 982h154v-154h-154v154z" />
    <glyph glyph-name="u" unicode="u" horiz-adv-x="504" 
d="M73 27.5q-28 37.5 -28 97.5v453h163v-434q0 -22 8 -33t26 -11q16 0 48 18v460h162v-578h-162v53q-68 -63 -137 -63q-52 0 -80 37.5z" />
    <glyph glyph-name="uacute" unicode="&#xfa;" horiz-adv-x="504" 
d="M73 27.5q-28 37.5 -28 97.5v453h163v-434q0 -22 8 -33t26 -11q16 0 48 18v460h162v-578h-162v53q-68 -63 -137 -63q-52 0 -80 37.5zM261 843h166l-126 -201h-103z" />
    <glyph glyph-name="ubreve" unicode="&#x16d;" horiz-adv-x="504" 
d="M73 27.5q-28 37.5 -28 97.5v453h163v-434q0 -22 8 -33t26 -11q16 0 48 18v460h162v-578h-162v53q-68 -63 -137 -63q-52 0 -80 37.5zM137.5 683.5q-42.5 40.5 -42.5 115.5h92q0 -38 15 -55.5t50 -17.5q34 0 49.5 18t15.5 55h92q0 -74 -42.5 -115t-114.5 -41t-114.5 40.5z
" />
    <glyph glyph-name="uni01D4" unicode="&#x1d4;" horiz-adv-x="504" 
d="M73 27.5q-28 37.5 -28 97.5v453h163v-434q0 -22 8 -33t26 -11q16 0 48 18v460h162v-578h-162v53q-68 -63 -137 -63q-52 0 -80 37.5zM85 826h116l51 -110l51 110h116l-88 -187h-158z" />
    <glyph glyph-name="ucircumflex" unicode="&#xfb;" horiz-adv-x="504" 
d="M73 27.5q-28 37.5 -28 97.5v453h163v-434q0 -22 8 -33t26 -11q16 0 48 18v460h162v-578h-162v53q-68 -63 -137 -63q-52 0 -80 37.5zM184 841h133l98 -192h-120l-44 119l-43 -119h-119z" />
    <glyph glyph-name="uni0215" unicode="&#x215;" horiz-adv-x="504" 
d="M73 27.5q-28 37.5 -28 97.5v453h163v-434q0 -22 8 -33t26 -11q16 0 48 18v460h162v-578h-162v53q-68 -63 -137 -63q-52 0 -80 37.5zM29 845h124l64 -207h-88zM212 845h119l59 -207h-86z" />
    <glyph glyph-name="udieresis" unicode="&#xfc;" horiz-adv-x="504" 
d="M73 27.5q-28 37.5 -28 97.5v453h163v-434q0 -22 8 -33t26 -11q16 0 48 18v460h162v-578h-162v53q-68 -63 -137 -63q-52 0 -80 37.5zM78 810h130v-148h-130v148zM296 810h130v-148h-130v148z" />
    <glyph glyph-name="uni1EE5" unicode="&#x1ee5;" horiz-adv-x="504" 
d="M73 27.5q-28 37.5 -28 97.5v453h163v-434q0 -22 8 -33t26 -11q16 0 48 18v460h162v-578h-162v53q-68 -63 -137 -63q-52 0 -80 37.5zM182 -70h140v-138h-140v138z" />
    <glyph glyph-name="ugrave" unicode="&#xf9;" horiz-adv-x="504" 
d="M73 27.5q-28 37.5 -28 97.5v453h163v-434q0 -22 8 -33t26 -11q16 0 48 18v460h162v-578h-162v53q-68 -63 -137 -63q-52 0 -80 37.5zM77 843h168l61 -201h-102z" />
    <glyph glyph-name="uni1EE7" unicode="&#x1ee7;" horiz-adv-x="504" 
d="M73 27.5q-28 37.5 -28 97.5v453h163v-434q0 -22 8 -33t26 -11q16 0 48 18v460h162v-578h-162v53q-68 -63 -137 -63q-52 0 -80 37.5zM197 679q39 19 55.5 31t16.5 33q0 35 -57 35q-32 0 -62 -7v68q48 13 102 13q53 0 87.5 -24t34.5 -75q0 -48 -32.5 -77t-89.5 -49z" />
    <glyph glyph-name="uhorn" unicode="&#x1b0;" horiz-adv-x="504" 
d="M73 27.5q-28 37.5 -28 97.5v453h163v-434q0 -22 8 -33t26 -11q16 0 48 18v460h162v-578h-162v53q-68 -63 -137 -63q-52 0 -80 37.5zM340 578h10q29 0 41.5 20.5t12.5 65.5h114q0 -74 -45.5 -112.5t-122.5 -38.5h-10v65z" />
    <glyph glyph-name="uni1EE9" unicode="&#x1ee9;" horiz-adv-x="504" 
d="M73 27.5q-28 37.5 -28 97.5v453h163v-434q0 -22 8 -33t26 -11q16 0 48 18v460h162v-578h-162v53q-68 -63 -137 -63q-52 0 -80 37.5zM340 578h10q29 0 41.5 20.5t12.5 65.5h114q0 -74 -45.5 -112.5t-122.5 -38.5h-10v65zM258 843h166l-126 -201h-103z" />
    <glyph glyph-name="uni1EF1" unicode="&#x1ef1;" horiz-adv-x="504" 
d="M73 27.5q-28 37.5 -28 97.5v453h163v-434q0 -22 8 -33t26 -11q16 0 48 18v460h162v-578h-162v53q-68 -63 -137 -63q-52 0 -80 37.5zM340 578h10q29 0 41.5 20.5t12.5 65.5h114q0 -74 -45.5 -112.5t-122.5 -38.5h-10v65zM186 -70h140v-138h-140v138z" />
    <glyph glyph-name="uni1EEB" unicode="&#x1eeb;" horiz-adv-x="504" 
d="M73 27.5q-28 37.5 -28 97.5v453h163v-434q0 -22 8 -33t26 -11q16 0 48 18v460h162v-578h-162v53q-68 -63 -137 -63q-52 0 -80 37.5zM340 578h10q29 0 41.5 20.5t12.5 65.5h114q0 -74 -45.5 -112.5t-122.5 -38.5h-10v65zM74 843h168l61 -201h-102z" />
    <glyph glyph-name="uni1EED" unicode="&#x1eed;" horiz-adv-x="504" 
d="M73 27.5q-28 37.5 -28 97.5v453h163v-434q0 -22 8 -33t26 -11q16 0 48 18v460h162v-578h-162v53q-68 -63 -137 -63q-52 0 -80 37.5zM340 578h10q29 0 41.5 20.5t12.5 65.5h114q0 -74 -45.5 -112.5t-122.5 -38.5h-10v65zM194 679q39 19 55.5 31t16.5 33q0 35 -57 35
q-32 0 -62 -7v68q48 13 102 13q53 0 87.5 -24t34.5 -75q0 -48 -32.5 -77t-89.5 -49z" />
    <glyph glyph-name="uni1EEF" unicode="&#x1eef;" horiz-adv-x="504" 
d="M73 27.5q-28 37.5 -28 97.5v453h163v-434q0 -22 8 -33t26 -11q16 0 48 18v460h162v-578h-162v53q-68 -63 -137 -63q-52 0 -80 37.5zM340 578h10q29 0 41.5 20.5t12.5 65.5h114q0 -74 -45.5 -112.5t-122.5 -38.5h-10v65zM296 674.5q-16 6.5 -36 19.5q-18 10 -30.5 15.5
t-24.5 5.5q-36 0 -36 -41h-78q-2 142 90 142q17 0 31 -5.5t35 -17.5q17 -10 30 -15.5t27 -5.5q31 0 31 38h72q0 -63 -15 -102.5t-62 -39.5q-18 0 -34 6.5z" />
    <glyph glyph-name="uhungarumlaut" unicode="&#x171;" horiz-adv-x="504" 
d="M73 27.5q-28 37.5 -28 97.5v453h163v-434q0 -22 8 -33t26 -11q16 0 48 18v460h162v-578h-162v53q-68 -63 -137 -63q-52 0 -80 37.5zM176 849h132l-108 -216h-84zM358 849h140l-120 -216h-84z" />
    <glyph glyph-name="uni0217" unicode="&#x217;" horiz-adv-x="504" 
d="M73 27.5q-28 37.5 -28 97.5v453h163v-434q0 -22 8 -33t26 -11q16 0 48 18v460h162v-578h-162v53q-68 -63 -137 -63q-52 0 -80 37.5zM136.5 766.5q41.5 41.5 115.5 41.5t115.5 -41.5t41.5 -117.5h-92q0 40 -15 58t-50 18t-50 -18t-15 -58h-92q0 76 41.5 117.5z" />
    <glyph glyph-name="umacron" unicode="&#x16b;" horiz-adv-x="504" 
d="M73 27.5q-28 37.5 -28 97.5v453h163v-434q0 -22 8 -33t26 -11q16 0 48 18v460h162v-578h-162v53q-68 -63 -137 -63q-52 0 -80 37.5zM114 743h276v-77h-276v77z" />
    <glyph glyph-name="uogonek" unicode="&#x173;" horiz-adv-x="504" 
d="M73 27.5q-28 37.5 -28 97.5v453h163v-434q0 -22 8 -33t26 -11q16 0 48 18v460h162v-578h-162v53q-68 -63 -137 -63q-52 0 -80 37.5zM304 -237.5q-46 22.5 -46 85.5q0 38 23 80.5t55 71.5h73q-36 -66 -36 -121q0 -31 18 -45t46 -14q15 0 29 2l-16 -79q-12 -3 -33 -3
q-67 0 -113 22.5z" />
    <glyph glyph-name="uring" unicode="&#x16f;" horiz-adv-x="504" 
d="M73 27.5q-28 37.5 -28 97.5v453h163v-434q0 -22 8 -33t26 -11q16 0 48 18v460h162v-578h-162v53q-68 -63 -137 -63q-52 0 -80 37.5zM168 650.5q-33 28.5 -33 80.5t33 81t83 29t84 -29t34 -81t-33.5 -80.5t-84.5 -28.5q-50 0 -83 28.5zM288 694q13 15 13 37q0 23 -13 38
t-37 15q-23 0 -36 -15t-13 -38q0 -22 13 -37t36 -15q24 0 37 15z" />
    <glyph glyph-name="utilde" unicode="&#x169;" horiz-adv-x="504" 
d="M73 27.5q-28 37.5 -28 97.5v453h163v-434q0 -22 8 -33t26 -11q16 0 48 18v460h162v-578h-162v53q-68 -63 -137 -63q-52 0 -80 37.5zM299 674.5q-16 6.5 -36 19.5q-18 10 -30.5 15.5t-24.5 5.5q-36 0 -36 -41h-78q-2 142 90 142q17 0 31 -5.5t35 -17.5q17 -10 30 -15.5
t27 -5.5q31 0 31 38h72q0 -63 -15 -102.5t-62 -39.5q-18 0 -34 6.5z" />
    <glyph glyph-name="v" unicode="v" horiz-adv-x="421" 
d="M10 578h156l48 -369l44 369h156l-119 -578h-169z" />
    <glyph glyph-name="w" unicode="w" horiz-adv-x="597" 
d="M21 578h136l42 -328l45 328h118l39 -336l49 336h126l-86 -578h-140l-50 325l-56 -325h-138z" />
    <glyph glyph-name="wacute" unicode="&#x1e83;" horiz-adv-x="597" 
d="M21 578h136l42 -328l45 328h118l39 -336l49 336h126l-86 -578h-140l-50 325l-56 -325h-138zM308 843h166l-126 -201h-103z" />
    <glyph glyph-name="wcircumflex" unicode="&#x175;" horiz-adv-x="597" 
d="M21 578h136l42 -328l45 328h118l39 -336l49 336h126l-86 -578h-140l-50 325l-56 -325h-138zM231 841h133l98 -192h-120l-44 119l-43 -119h-119z" />
    <glyph glyph-name="wdieresis" unicode="&#x1e85;" horiz-adv-x="597" 
d="M21 578h136l42 -328l45 328h118l39 -336l49 336h126l-86 -578h-140l-50 325l-56 -325h-138zM125 810h130v-148h-130v148zM343 810h130v-148h-130v148z" />
    <glyph glyph-name="wgrave" unicode="&#x1e81;" horiz-adv-x="597" 
d="M21 578h136l42 -328l45 328h118l39 -336l49 336h126l-86 -578h-140l-50 325l-56 -325h-138zM124 843h168l61 -201h-102z" />
    <glyph glyph-name="x" unicode="x" horiz-adv-x="442" 
d="M134 317l-117 261h164l62 -139l55 139h125l-114 -285l131 -293h-166l-70 159l-58 -159h-135z" />
    <glyph glyph-name="y" unicode="y" horiz-adv-x="448" 
d="M67 -55q48 0 70.5 10.5t22.5 38.5q0 25 -21 97l-136 487h153l73 -334l55 334h154l-133 -592q-19 -85 -69 -119.5t-132 -34.5h-37v113z" />
    <glyph glyph-name="yacute" unicode="&#xfd;" horiz-adv-x="448" 
d="M67 -55q48 0 70.5 10.5t22.5 38.5q0 25 -21 97l-136 487h153l73 -334l55 334h154l-133 -592q-19 -85 -69 -119.5t-132 -34.5h-37v113zM233 843h166l-126 -201h-103z" />
    <glyph glyph-name="ycircumflex" unicode="&#x177;" horiz-adv-x="448" 
d="M67 -55q48 0 70.5 10.5t22.5 38.5q0 25 -21 97l-136 487h153l73 -334l55 334h154l-133 -592q-19 -85 -69 -119.5t-132 -34.5h-37v113zM156 841h133l98 -192h-120l-44 119l-43 -119h-119z" />
    <glyph glyph-name="ydieresis" unicode="&#xff;" horiz-adv-x="448" 
d="M67 -55q48 0 70.5 10.5t22.5 38.5q0 25 -21 97l-136 487h153l73 -334l55 334h154l-133 -592q-19 -85 -69 -119.5t-132 -34.5h-37v113zM50 810h130v-148h-130v148zM268 810h130v-148h-130v148z" />
    <glyph glyph-name="uni1EF5" unicode="&#x1ef5;" horiz-adv-x="448" 
d="M67 -55q48 0 70.5 10.5t22.5 38.5q0 25 -21 97l-136 487h153l73 -334l55 334h154l-133 -592q-19 -85 -69 -119.5t-132 -34.5h-37v113zM333 -70h140v-138h-140v138z" />
    <glyph glyph-name="ygrave" unicode="&#x1ef3;" horiz-adv-x="448" 
d="M67 -55q48 0 70.5 10.5t22.5 38.5q0 25 -21 97l-136 487h153l73 -334l55 334h154l-133 -592q-19 -85 -69 -119.5t-132 -34.5h-37v113zM49 843h168l61 -201h-102z" />
    <glyph glyph-name="uni1EF7" unicode="&#x1ef7;" horiz-adv-x="448" 
d="M67 -55q48 0 70.5 10.5t22.5 38.5q0 25 -21 97l-136 487h153l73 -334l55 334h154l-133 -592q-19 -85 -69 -119.5t-132 -34.5h-37v113zM169 679q39 19 55.5 31t16.5 33q0 35 -57 35q-32 0 -62 -7v68q48 13 102 13q53 0 87.5 -24t34.5 -75q0 -48 -32.5 -77t-89.5 -49z" />
    <glyph glyph-name="uni0233" unicode="&#x233;" horiz-adv-x="448" 
d="M67 -55q48 0 70.5 10.5t22.5 38.5q0 25 -21 97l-136 487h153l73 -334l55 334h154l-133 -592q-19 -85 -69 -119.5t-132 -34.5h-37v113zM86 743h276v-77h-276v77z" />
    <glyph glyph-name="uni1EF9" unicode="&#x1ef9;" horiz-adv-x="448" 
d="M67 -55q48 0 70.5 10.5t22.5 38.5q0 25 -21 97l-136 487h153l73 -334l55 334h154l-133 -592q-19 -85 -69 -119.5t-132 -34.5h-37v113zM271 674.5q-16 6.5 -36 19.5q-18 10 -30.5 15.5t-24.5 5.5q-36 0 -36 -41h-78q-2 142 90 142q17 0 31 -5.5t35 -17.5q17 -10 30 -15.5
t27 -5.5q31 0 31 38h72q0 -63 -15 -102.5t-62 -39.5q-18 0 -34 6.5z" />
    <glyph glyph-name="z" unicode="z" horiz-adv-x="392" 
d="M35 105l159 354h-147v119h317v-99l-161 -360h163v-119h-331v105z" />
    <glyph glyph-name="zacute" unicode="&#x17a;" horiz-adv-x="392" 
d="M35 105l159 354h-147v119h317v-99l-161 -360h163v-119h-331v105zM205 843h166l-126 -201h-103z" />
    <glyph glyph-name="zcaron" unicode="&#x17e;" horiz-adv-x="392" 
d="M35 105l159 354h-147v119h317v-99l-161 -360h163v-119h-331v105zM29 826h116l51 -110l51 110h116l-88 -187h-158z" />
    <glyph glyph-name="zdotaccent" unicode="&#x17c;" horiz-adv-x="392" 
d="M35 105l159 354h-147v119h317v-99l-161 -360h163v-119h-331v105zM119 806h154v-154h-154v154z" />
    <glyph glyph-name="f_f_ij" horiz-adv-x="1080" 
d="M66 470h-56v108h56v43q0 58 11 93.5t45.5 55.5t102.5 20q31 0 66 -5v-121q-20 4 -30 4q-17 0 -25 -10t-8 -34v-46h103v43q0 58 11.5 93.5t46 55.5t101.5 20q33 0 69 -5v-121q-20 4 -32 4q-17 0 -25 -10t-8 -34v-46h263v-578h-162v470h-101v-470h-163v470h-103v-470h-162
v470zM609 789h148v-113h-148v113zM867 789h163v-113h-163v113zM794 -167v117q18 -4 29 -4q44 0 44 49v583h163v-603q0 -70 -38.5 -112.5t-110.5 -42.5q-45 0 -87 13z" />
    <glyph glyph-name="f_ij" horiz-adv-x="828" 
d="M69 468h-55v110h55v43q0 83 34.5 126.5t119.5 43.5q31 0 70 -6v-111q-14 2 -23 2q-19 0 -28.5 -11t-9.5 -38v-49h269v-578h-161v468h-108v-468h-163v468zM350 789h151v-113h-151v113zM615 789h163v-113h-163v113zM542 -167v117q18 -4 29 -4q44 0 44 49v583h163v-603
q0 -70 -38.5 -112.5t-110.5 -42.5q-45 0 -87 13z" />
    <glyph glyph-name="ordfeminine" unicode="&#xaa;" horiz-adv-x="483" 
d="M86 346.5q-30 33.5 -30 86.5q0 54 30.5 88.5t74.5 54t117 43.5v54q0 43 -29 43q-19 0 -26 -15.5t-11 -57.5l-141 4q1 88 51 131t139 43q81 0 121.5 -42.5t40.5 -114.5v-342h-128l-9 67q-14 -34 -43 -55t-72 -21q-55 0 -85 33.5zM258.5 416q11.5 7 19.5 19v128
q-37 -17 -60.5 -47t-23.5 -58q0 -22 12 -35.5t29 -13.5q12 0 23.5 7z" />
    <glyph glyph-name="ordmasculine" unicode="&#xba;" horiz-adv-x="483" 
d="M115 353.5q-46 40.5 -46 116.5v195q0 76 46 116.5t126 40.5q79 0 126 -41t47 -116v-195q0 -75 -47 -116t-126 -41q-80 0 -126 40.5zM281 471v193q0 30 -9.5 45t-30.5 15q-40 0 -40 -60v-193q0 -60 40 -60t40 60z" />
    <glyph glyph-name="uni0410" unicode="&#x410;" horiz-adv-x="551" 
d="M174 810h204l151 -810h-165l-27 171h-119l-28 -171h-169zM320 278l-43 316l-43 -316h86z" />
    <glyph glyph-name="uni0411" unicode="&#x411;" horiz-adv-x="554" 
d="M63 810h402v-136h-223v-206h38q240 0 240 -234q0 -94 -32.5 -145.5t-88 -70t-135.5 -18.5h-201v810zM265 117q48 0 68.5 26.5t20.5 84.5q0 56 -19 86t-72 30h-21v-227h23z" />
    <glyph glyph-name="uni0412" unicode="&#x412;" horiz-adv-x="588" 
d="M60 810h211q79 0 134.5 -16.5t89.5 -63.5t34 -132q0 -72 -31 -112t-88 -51q70 -9 107 -59t37 -136q0 -240 -245 -240h-249v810zM274 486q57 0 77.5 26t20.5 81q0 48 -26 72.5t-76 24.5h-31v-204h35zM277 125q57 0 80.5 28.5t23.5 89.5q0 69 -23.5 97t-81.5 28h-37v-243
h38z" />
    <glyph glyph-name="uni0413" unicode="&#x413;" horiz-adv-x="463" 
d="M63 810h375v-133h-196v-677h-179v810z" />
    <glyph glyph-name="uni0403" unicode="&#x403;" horiz-adv-x="463" 
d="M63 810h375v-133h-196v-677h-179v810zM241 1075h166l-126 -201h-103z" />
    <glyph glyph-name="uni0490" unicode="&#x490;" horiz-adv-x="461" 
d="M63 810h270v131h105v-264h-196v-677h-179v810z" />
    <glyph glyph-name="uni0414" unicode="&#x414;" horiz-adv-x="693" 
d="M18 128h23q60 19 95 110t49 289l22 283h377v-682h91v-303h-118l-9 175h-397l-10 -175h-123v303zM417 128v555h-75l-9 -174q-8 -134 -26.5 -209.5t-40.5 -108.5t-56 -63h207z" />
    <glyph glyph-name="uni0415" unicode="&#x415;" horiz-adv-x="447" 
d="M60 810h364v-122h-185v-201h141v-124h-141v-242h187v-121h-366v810z" />
    <glyph glyph-name="uni0400" unicode="&#x400;" horiz-adv-x="447" 
d="M60 810h364v-122h-185v-201h141v-124h-141v-242h187v-121h-366v810zM69 1075h168l61 -201h-102z" />
    <glyph glyph-name="uni0401" unicode="&#x401;" horiz-adv-x="447" 
d="M60 810h364v-122h-185v-201h141v-124h-141v-242h187v-121h-366v810zM70 1042h130v-148h-130v148zM288 1042h130v-148h-130v148z" />
    <glyph glyph-name="uni0416" unicode="&#x416;" horiz-adv-x="795" 
d="M176 407l-166 403h167l141 -379h8v379h142v-379h9l141 379h167l-166 -403l170 -407h-160l-152 393h-9v-393h-142v393h-8l-152 -393h-160z" />
    <glyph glyph-name="uni0417" unicode="&#x417;" horiz-adv-x="526" 
d="M94 51q-51 66 -51 188v29h168v-31q0 -61 12.5 -86t45.5 -25q32 0 43.5 25t11.5 82q0 65 -19.5 94.5t-73.5 30.5q-3 1 -45 1v109h41q56 1 76.5 30t20.5 94q0 48 -15 72.5t-48 24.5q-31 0 -44.5 -25t-14.5 -72v-45h-168v49q0 108 61.5 167t166.5 59q107 0 166.5 -56
t59.5 -163q0 -69 -28 -118t-71 -61q47 -18 73 -61.5t26 -124.5q0 -119 -53 -186t-169 -67q-121 0 -172 66z" />
    <glyph glyph-name="uni0418" unicode="&#x418;" horiz-adv-x="590" 
d="M63 810h141v-464l207 464h116v-810h-144v472l-211 -472h-109v810z" />
    <glyph glyph-name="uni0419" unicode="&#x419;" horiz-adv-x="590" 
d="M63 810h141v-464l207 464h116v-810h-144v472l-211 -472h-109v810zM193.5 915.5q-42.5 40.5 -42.5 115.5h92q0 -38 15 -55.5t50 -17.5q34 0 49.5 18t15.5 55h92q0 -74 -42.5 -115t-114.5 -41t-114.5 40.5z" />
    <glyph glyph-name="uni040D" unicode="&#x40d;" horiz-adv-x="590" 
d="M63 810h141v-464l207 464h116v-810h-144v472l-211 -472h-109v810zM133 1075h168l61 -201h-102z" />
    <glyph glyph-name="uni041A" unicode="&#x41a;" horiz-adv-x="572" 
d="M63 810h179v-321h18l119 321h178l-148 -380l153 -430h-184l-118 353h-18v-353h-179v810z" />
    <glyph glyph-name="uni040C" unicode="&#x40c;" horiz-adv-x="572" 
d="M63 810h179v-321h18l119 321h178l-148 -380l153 -430h-184l-118 353h-18v-353h-179v810zM296 1075h166l-126 -201h-103z" />
    <glyph glyph-name="uni041B" unicode="&#x41b;" horiz-adv-x="656" 
d="M7 126q57 -1 78 15t29.5 66.5t19.5 199.5l3 41l26 362h429v-810h-178v673h-89l-16 -259q-13 -187 -28 -263.5t-63.5 -114t-159.5 -37.5q-33 0 -51 1v126z" />
    <glyph glyph-name="uni041C" unicode="&#x41c;" horiz-adv-x="704" 
d="M71 810h192l89 -471l96 471h185l14 -810h-127l-15 539l-94 -539h-113l-100 543l-12 -543h-129z" />
    <glyph glyph-name="uni041D" unicode="&#x41d;" horiz-adv-x="610" 
d="M63 810h179v-328h125v328h180v-810h-180v354h-125v-354h-179v810z" />
    <glyph glyph-name="uni041E" unicode="&#x41e;" horiz-adv-x="586" 
d="M105 55.5q-56 67.5 -56 199.5v301q0 132 56 198.5t187 66.5q132 0 188.5 -67t56.5 -198v-301q0 -132 -56.5 -199.5t-188.5 -67.5q-131 0 -187 67.5zM342 140.5q12 25.5 12 69.5v390q0 45 -12 70t-50 25q-36 0 -48 -25.5t-12 -69.5v-390q0 -44 11 -69.5t49 -25.5t50 25.5z
" />
    <glyph glyph-name="uni041F" unicode="&#x41f;" horiz-adv-x="605" 
d="M60 810h485v-810h-176v682h-133v-682h-176v810z" />
    <glyph glyph-name="uni0420" unicode="&#x420;" horiz-adv-x="571" 
d="M60 810h272q107 0 160 -60.5t53 -174.5q0 -130 -61.5 -180.5t-172.5 -50.5h-72v-344h-179v810zM299 469q47 0 62.5 25t15.5 84q0 54 -15 80t-64 26h-59v-215h60z" />
    <glyph glyph-name="uni0421" unicode="&#x421;" horiz-adv-x="563" 
d="M104.5 57.5q-55.5 69.5 -55.5 200.5v292q0 134 55 202.5t188 68.5q127 0 180 -61t53 -173v-70h-175v81q0 47 -10 72t-48 25t-50 -26.5t-12 -73.5v-381q0 -48 12.5 -73.5t49.5 -25.5t47.5 25.5t10.5 73.5v85h175v-70q0 -114 -53 -177.5t-180 -63.5q-132 0 -187.5 69.5z
" />
    <glyph glyph-name="uni0422" unicode="&#x422;" horiz-adv-x="445" 
d="M133 677h-122v133h423v-133h-121v-677h-180v677z" />
    <glyph glyph-name="uni0423" unicode="&#x423;" horiz-adv-x="554" 
d="M53 -41q78 -2 117 17t39 68q0 15 -5 38l-182 728h166l70 -333l33 -217l24 218l59 332h168l-168 -755q-20 -93 -53 -138.5t-93.5 -61.5t-174.5 -14v118z" />
    <glyph glyph-name="uni040E" unicode="&#x40e;" horiz-adv-x="554" 
d="M53 -41q78 -2 117 17t39 68q0 15 -5 38l-182 728h166l70 -333l33 -217l24 218l59 332h168l-168 -755q-20 -93 -53 -138.5t-93.5 -61.5t-174.5 -14v118zM162.5 915.5q-42.5 40.5 -42.5 115.5h92q0 -38 15 -55.5t50 -17.5q34 0 49.5 18t15.5 55h92q0 -74 -42.5 -115
t-114.5 -41t-114.5 40.5z" />
    <glyph glyph-name="uni0424" unicode="&#x424;" horiz-adv-x="759" 
d="M307 92q-30 -3 -62 -3q-56 0 -101.5 23t-71.5 68t-26 108v244q0 57 27.5 102.5t77 71t113.5 25.5q19 0 43 -2v128h144v-128q24 2 40 2q65 0 115.5 -25.5t78 -70.5t27.5 -103v-245q0 -62 -26 -107t-70 -68.5t-97 -23.5q-32 0 -68 3v-120h-144v121zM307 202v420
q-12 2 -22 2q-37 0 -59 -24.5t-22 -65.5v-249q0 -85 83 -85q12 0 20 2zM534 223.5q20 22.5 20 61.5v249q0 44 -19.5 67t-54.5 23q-11 0 -29 -2v-419q12 -2 21 -2q42 0 62 22.5z" />
    <glyph glyph-name="uni0425" unicode="&#x425;" horiz-adv-x="515" 
d="M164 436l-150 374h169l89 -219l72 219h149l-142 -421l158 -389h-168l-99 242l-87 -242h-148z" />
    <glyph glyph-name="uni0427" unicode="&#x427;" horiz-adv-x="609" 
d="M367 333q-50 -7 -98 -7q-60 0 -111 23t-82.5 67t-31.5 105v289h179v-288q0 -29 6 -47t27 -28.5t63 -10.5q24 0 48 4v370h179v-810h-179v333z" />
    <glyph glyph-name="uni0426" unicode="&#x426;" horiz-adv-x="686" 
d="M513 0h-450v810h179v-689h136v689h179v-689h110v-296h-131z" />
    <glyph glyph-name="uni0428" unicode="&#x428;" horiz-adv-x="825" 
d="M63 810h169v-682h99v682h168v-682h95v682h168v-810h-699v810z" />
    <glyph glyph-name="uni0429" unicode="&#x429;" horiz-adv-x="916" 
d="M721 0h-658v810h169v-689h99v689h168v-689h95v689h169v-689h110v-296h-131z" />
    <glyph glyph-name="uni040F" unicode="&#x40f;" horiz-adv-x="599" 
d="M231 0h-171v810h179v-675h121v675h179v-810h-166l-7 -175h-129z" />
    <glyph glyph-name="uni042C" unicode="&#x42c;" horiz-adv-x="556" 
d="M63 810h179v-342h40q238 0 238 -234q0 -94 -32.5 -145.5t-88 -70t-134.5 -18.5h-202v810zM266 117q47 0 68 27t21 85q0 55 -19 85t-72 30h-22v-227h24z" />
    <glyph glyph-name="uni042A" unicode="&#x42a;" horiz-adv-x="632" 
d="M134 688h-146v122h325v-342h46q239 0 239 -234q0 -94 -32.5 -145.5t-88 -70t-134.5 -18.5h-209v688zM344 117q47 0 68 27t21 85q0 55 -19.5 85t-72.5 30h-28v-227h31z" />
    <glyph glyph-name="uni042B" unicode="&#x42b;" horiz-adv-x="831" 
d="M63 810h179v-342h40q239 0 239 -234q0 -94 -32.5 -145.5t-87.5 -70t-135 -18.5h-203v810zM589 810h179v-810h-179v810zM267 117q47 0 68 27t21 85q0 55 -19 85t-72 30h-23v-227h25z" />
    <glyph glyph-name="uni0409" unicode="&#x409;" horiz-adv-x="888" 
d="M10 0v126q45 -1 67.5 10.5t34.5 46t18 107.5l35 520h430v-342h32q240 0 240 -234q0 -94 -32.5 -145.5t-88 -70t-135.5 -18.5h-194v673h-90l-25 -387q-7 -113 -31 -174.5t-71 -87t-126 -24.5h-64zM613 117q47 0 68 27t21 85q0 55 -19.5 85t-71.5 30h-16v-227h18z" />
    <glyph glyph-name="uni040A" unicode="&#x40a;" horiz-adv-x="835" 
d="M63 811h179v-333h114v333h179v-343h30q239 0 239 -234q0 -94 -32.5 -145.5t-88 -70t-134.5 -18.5l-193 1v342h-114v-342h-179v810zM549 117q50 0 70 27t20 88q0 58 -19.5 85t-71.5 27h-13v-227h14z" />
    <glyph glyph-name="uni0405" unicode="&#x405;" horiz-adv-x="514" 
d="M102.5 49.5q-56.5 61.5 -60.5 195.5l153 23q1 -77 18.5 -110.5t52.5 -33.5q45 0 45 59q0 47 -21.5 81t-67.5 73l-70 61q-52 44 -80.5 93.5t-28.5 117.5q0 102 60.5 157t166.5 55q115 0 156.5 -67t44.5 -163l-154 -19q-2 63 -11.5 90.5t-41.5 27.5q-23 0 -35.5 -19.5
t-12.5 -43.5q0 -41 18.5 -69t59.5 -64l67 -59q60 -51 93 -108t33 -135q0 -57 -26.5 -103.5t-74.5 -73.5t-111 -27q-116 0 -172.5 61.5z" />
    <glyph glyph-name="uni0404" unicode="&#x404;" horiz-adv-x="553" 
d="M104.5 57.5q-55.5 69.5 -55.5 200.5v292q0 134 55 202.5t188 68.5q127 0 180 -61t53 -173v-48h-175v59q0 47 -10 72t-48 25t-50 -26.5t-12 -73.5v-138h130v-97h-130v-146q0 -48 12.5 -73.5t49.5 -25.5t47.5 25.5t10.5 73.5v55h175v-40q0 -114 -53 -177.5t-180 -63.5
q-132 0 -187.5 69.5z" />
    <glyph glyph-name="uni042D" unicode="&#x42d;" horiz-adv-x="575" 
d="M103 51.5q-53 61.5 -53 172.5v43h175v-53q0 -48 10 -72.5t48 -24.5t49.5 26.5t11.5 74.5v142h-134v90h134v148q0 48 -12.5 73.5t-48.5 25.5q-37 0 -47.5 -25.5t-10.5 -73.5v-56h-175v40q0 114 53 178t180 64q132 0 187.5 -69.5t55.5 -201.5v-291q0 -134 -55.5 -203
t-187.5 -69q-127 0 -180 61.5z" />
    <glyph glyph-name="uni0406" unicode="&#x406;" horiz-adv-x="277" 
d="M54 810h178v-810h-178v810z" />
    <glyph glyph-name="uni0407" unicode="&#x407;" horiz-adv-x="277" 
d="M54 810h178v-810h-178v810zM-35 1042h130v-148h-130v148zM183 1042h130v-148h-130v148z" />
    <glyph glyph-name="uni0408" unicode="&#x408;" horiz-adv-x="325" 
d="M4 104q39 -1 59.5 5.5t29.5 24t9 52.5v624h178v-632q-1 -69 -18 -112t-58 -65t-113 -22h-87v125z" />
    <glyph glyph-name="uni040B" unicode="&#x40b;" horiz-adv-x="635" 
d="M120 677h-110v133h402v-133h-113v-200q50 7 88 7q96 0 150 -50.5t54 -144.5v-289h-179v288q0 44 -12.5 65t-53.5 21q-24 0 -47 -4v-370h-179v677z" />
    <glyph glyph-name="uni042E" unicode="&#x42e;" horiz-adv-x="825" 
d="M378.5 59q-50.5 71 -50.5 206v79h-88v-344h-177v810h177v-334h88v70q0 134 50.5 204.5t173.5 70.5q122 0 173 -70.5t51 -204.5v-281q0 -134 -51 -205.5t-173 -71.5q-123 0 -173.5 71zM598.5 140.5q10.5 25.5 10.5 69.5v390q0 45 -10.5 70t-46.5 25t-46.5 -25t-10.5 -70
v-390q0 -44 10.5 -69.5t46.5 -25.5t46.5 25.5z" />
    <glyph glyph-name="uni042F" unicode="&#x42f;" horiz-adv-x="606" 
d="M164 360q-48 29 -76.5 83.5t-28.5 124.5q0 134 68.5 188t206.5 54h208v-810h-178v320h-32h-11l-118 -320h-193zM364 446v241h-28q-110 0 -110 -120q0 -121 112 -121h26z" />
    <glyph glyph-name="uni0402" unicode="&#x402;" horiz-adv-x="629" 
d="M107 685h-115v125h432v-125h-140v-239q62 45 135 45q45 0 84.5 -17.5t63 -50.5t23.5 -77v-148q0 -74 -20.5 -116.5t-67.5 -62t-128 -19.5h-39v102q48 0 70 22.5t22 73.5v129q0 23 -16.5 42t-46.5 19q-35 0 -80 -30v-358h-177v685z" />
    <glyph glyph-name="uni0462" unicode="&#x462;" horiz-adv-x="618" 
d="M583 234q0 -94 -32.5 -145.5t-88 -70t-135.5 -18.5h-202v568h-115v122h115v120h179v-120h176v-122h-176v-100h40q239 0 239 -234zM396.5 143.5q20.5 26.5 20.5 84.5q0 56 -19 86t-72 30h-22v-227h24q48 0 68.5 26.5z" />
    <glyph glyph-name="uni046A" unicode="&#x46a;" horiz-adv-x="759" 
d="M754 0h-159l-137 375h-8v-375h-141v375h-7l-138 -375h-158l221 509l-180 301h658l-174 -301zM498 689h-242l126 -207z" />
    <glyph glyph-name="uni0492" unicode="&#x492;" horiz-adv-x="476" 
d="M280 689v-204h130v-126h-130v-359h-179v359h-91v126h91v325h350v-121h-171z" />
    <glyph glyph-name="uni0496" unicode="&#x496;" horiz-adv-x="832" 
d="M738 -175l-18 175h-91l-152 393h-9v-393h-142v393h-8l-152 -393h-160l170 407l-166 403h167l141 -379h8v379h142v-379h9l141 379h167l-166 -403l130 -312l66 33l22 -252z" />
    <glyph glyph-name="uni049A" unicode="&#x49a;" horiz-adv-x="600" 
d="M506 -175l-18 175h-113l-117 358l-19 -32v-326h-179v810h179v-331l136 331h175l-150 -366l123 -347l60 31l22 -252z" />
    <glyph glyph-name="uni04A2" unicode="&#x4a2;" horiz-adv-x="628" 
d="M535 -175l-18 175h-150v354h-125v-354h-179v810h179v-328h125v328h180v-715l65 33l22 -252z" />
    <glyph glyph-name="uni04AE" unicode="&#x4ae;" horiz-adv-x="493" 
d="M162 331l-154 479h169l77 -256l69 256h162l-151 -479v-331h-172v331z" />
    <glyph glyph-name="uni04B0" unicode="&#x4b0;" horiz-adv-x="502" 
d="M358 385h126v-110h-143v-275h-172v275h-143v110h126l-137 425h169l77 -256l69 256h162z" />
    <glyph glyph-name="uni04BA" unicode="&#x4ba;" horiz-adv-x="606" 
d="M239 477q50 7 90 7q109 0 171 -50.5t62 -144.5v-289h-179v288q0 29 -6 47t-27 28.5t-63 10.5q-25 0 -48 -4v-370h-179v810h179v-333z" />
    <glyph glyph-name="uni04C9" unicode="&#x4c9;" horiz-adv-x="628" 
d="M612 128l-17 -252l-110 -51l8 175h-126v354h-125v-354h-179v810h179v-328h125v328h180v-711z" />
    <glyph glyph-name="uni04D8" unicode="&#x4d8;" horiz-adv-x="582" 
d="M109 51.5q-64 63.5 -64 184.5v185h305v185q0 48 -15 68.5t-47 20.5q-30 0 -45 -20.5t-15 -68.5v-115h-183v83q0 121 64 184t182 63q112 0 177 -68t65 -189v-320q0 -121 -64.5 -188.5t-177.5 -67.5q-118 0 -182 63.5zM335 135q15 21 15 67v111h-122v-111q0 -46 15 -67
t46 -21t46 21z" />
    <glyph glyph-name="uni04E8" unicode="&#x4e8;" horiz-adv-x="586" 
d="M480.5 754q56.5 -67 56.5 -198v-301q0 -132 -56.5 -199.5t-188.5 -67.5q-131 0 -187 67.5t-56 199.5v301q0 132 56 198.5t187 66.5q132 0 188.5 -67zM244 669.5q-12 -25.5 -12 -69.5v-125h122v125q0 45 -12 70t-50 25q-36 0 -48 -25.5zM342 140.5q12 25.5 12 69.5v155
h-122v-155q0 -44 11 -69.5t49 -25.5t50 25.5z" />
    <glyph glyph-name="uni0430" unicode="&#x430;" horiz-adv-x="476" 
d="M97.5 10.5q-30.5 20.5 -46 53t-15.5 67.5q0 67 34 110t81.5 67t122.5 50v58q0 25 -7.5 38t-26.5 13t-27 -12t-9 -34l-4 -42l-152 6q4 104 55 153.5t152 49.5q85 0 130 -47.5t45 -126.5v-270q0 -88 10 -144h-146q-9 67 -13 82q-12 -40 -40 -66t-71 -26q-42 0 -72.5 20.5z
M274 129v158q-45 -26 -68 -54.5t-23 -69.5q0 -29 12 -46t33 -17q25 0 46 29z" />
    <glyph glyph-name="uni0431" unicode="&#x431;" horiz-adv-x="483" 
d="M121 16.5q-43 26.5 -59.5 76t-16.5 128.5v323q0 112 33 165.5t98 76.5q33 13 90 24q47 11 77.5 21t57.5 27l6 -131q-25 -13 -53 -20t-67 -14q-5 -1 -33.5 -6.5t-50.5 -14.5q-26 -10 -37 -37t-11 -76v-44q39 45 137 45q54 0 86.5 -20.5t48 -66t15.5 -124.5v-141
q0 -85 -24 -133t-67 -66.5t-107 -18.5q-80 0 -123 26.5zM274.5 105q8.5 10 11.5 36t3 83v154q0 51 -8 69.5t-33 18.5q-18 0 -29.5 -15.5t-16.5 -52.5v-173q0 -56 3 -82.5t12.5 -37t29.5 -10.5q19 0 27.5 10z" />
    <glyph glyph-name="uni0432" unicode="&#x432;" horiz-adv-x="505" 
d="M51 578h205q83 0 128 -17.5t61 -48.5t16 -78q0 -54 -23 -81.5t-66 -39.5q59 -15 81 -50t22 -96q0 -58 -21.5 -94.5t-71.5 -54.5t-135 -18h-196v578zM254 350q27 0 39 17.5t12 52.5q0 36 -13 55t-50 19h-29v-144h41zM240 90q27 0 42.5 4.5t25 22.5t9.5 55q0 42 -9 61.5
t-24 24t-43 4.5h-28v-172h27z" />
    <glyph glyph-name="uni0433" unicode="&#x433;" horiz-adv-x="352" 
d="M51 578h288v-110h-125v-468h-163v578z" />
    <glyph glyph-name="uni0453" unicode="&#x453;" horiz-adv-x="352" 
d="M51 578h288v-110h-125v-468h-163v578zM215 843h166l-126 -201h-103z" />
    <glyph glyph-name="uni0491" unicode="&#x491;" horiz-adv-x="353" 
d="M51 578h210v122h83v-232h-130v-468h-163v578z" />
    <glyph glyph-name="uni0434" unicode="&#x434;" horiz-adv-x="607" 
d="M32 99q65 31 98.5 99.5t40.5 191.5l17 188h318v-478h84v-257h-117l-11 157h-302l-9 -157h-119v256zM357 100v381h-48l-12 -130q-6 -103 -28.5 -161t-60.5 -90h149z" />
    <glyph glyph-name="uni0435" unicode="&#x435;" horiz-adv-x="470" 
d="M92 40.5q-53 50.5 -53 142.5v212q0 92 53 142.5t148 50.5q96 0 144 -49t48 -144v-116h-232v-111q0 -62 40 -62q42 0 42 56v61h150v-56q0 -87 -50.5 -132t-141.5 -45q-95 0 -148 50.5zM282 355v58q0 32 -11.5 45.5t-31.5 13.5q-19 0 -29 -15t-10 -53v-49h82z" />
    <glyph glyph-name="uni0450" unicode="&#x450;" horiz-adv-x="470" 
d="M92 40.5q-53 50.5 -53 142.5v212q0 92 53 142.5t148 50.5q96 0 144 -49t48 -144v-116h-232v-111q0 -62 40 -62q42 0 42 56v61h150v-56q0 -87 -50.5 -132t-141.5 -45q-95 0 -148 50.5zM282 355v58q0 32 -11.5 45.5t-31.5 13.5q-19 0 -29 -15t-10 -53v-49h82zM63 843h168
l61 -201h-102z" />
    <glyph glyph-name="uni0451" unicode="&#x451;" horiz-adv-x="470" 
d="M92 40.5q-53 50.5 -53 142.5v212q0 92 53 142.5t148 50.5q96 0 144 -49t48 -144v-116h-232v-111q0 -62 40 -62q42 0 42 56v61h150v-56q0 -87 -50.5 -132t-141.5 -45q-95 0 -148 50.5zM282 355v58q0 32 -11.5 45.5t-31.5 13.5q-19 0 -29 -15t-10 -53v-49h82zM64 810h130
v-148h-130v148zM282 810h130v-148h-130v148z" />
    <glyph glyph-name="uni0436" unicode="&#x436;" horiz-adv-x="660" 
d="M122 291l-108 287h141l92 -274h12v274h136v-274h11l98 274h143l-115 -287l121 -291h-135l-112 279h-11v-279h-136v279h-12l-105 -279h-135z" />
    <glyph glyph-name="uni0437" unicode="&#x437;" horiz-adv-x="450" 
d="M106.5 16q-40.5 27 -54.5 71t-14 105h129q0 -47 14.5 -69t45.5 -22q32 0 44 20.5t12 57.5q0 43 -24 60.5t-84 17.5v84q40 0 60.5 7t28.5 22t8 43q0 63 -52 63q-31 0 -43.5 -18t-12.5 -61h-128q0 88 42.5 139.5t149.5 51.5q97 0 144.5 -44.5t47.5 -117.5
q0 -54 -23.5 -84.5t-61.5 -41.5q42 -16 65 -46.5t23 -94.5q0 -78 -49.5 -124t-150.5 -46q-76 0 -116.5 27z" />
    <glyph glyph-name="uni0438" unicode="&#x438;" horiz-adv-x="508" 
d="M51 578h129v-309l151 309h127v-578h-132v306l-147 -306h-128v578z" />
    <glyph glyph-name="uni0439" unicode="&#x439;" horiz-adv-x="508" 
d="M51 578h129v-309l151 309h127v-578h-132v306l-147 -306h-128v578zM141.5 683.5q-42.5 40.5 -42.5 115.5h92q0 -38 15 -55.5t50 -17.5q34 0 49.5 18t15.5 55h92q0 -74 -42.5 -115t-114.5 -41t-114.5 40.5z" />
    <glyph glyph-name="uni045D" unicode="&#x45d;" horiz-adv-x="508" 
d="M51 578h129v-309l151 309h127v-578h-132v306l-147 -306h-128v578zM81 843h168l61 -201h-102z" />
    <glyph glyph-name="uni043A" unicode="&#x43a;" horiz-adv-x="513" 
d="M51 578h163v-228h24l88 228h175l-114 -273l117 -305h-172l-94 256h-24v-256h-163v578z" />
    <glyph glyph-name="uni045C" unicode="&#x45c;" horiz-adv-x="513" 
d="M51 578h163v-228h24l88 228h175l-114 -273l117 -305h-172l-94 256h-24v-256h-163v578zM286 843h166l-126 -201h-103z" />
    <glyph glyph-name="uni043B" unicode="&#x43b;" horiz-adv-x="567" 
d="M13 109q44 0 66 18.5t33 63.5t18 138l19 249h367v-578h-163v468h-66l-14 -171q-9 -125 -30.5 -188t-67.5 -89t-134 -26h-28v115z" />
    <glyph glyph-name="uni043C" unicode="&#x43c;" horiz-adv-x="582" 
d="M52 578h120l118 -277l119 277h120l2 -578h-127v304l-89 -214h-48l-90 215v-305h-127z" />
    <glyph glyph-name="uni043D" unicode="&#x43d;" horiz-adv-x="525" 
d="M51 578h163v-224h97v224h164v-578h-164v242h-97v-242h-163v578z" />
    <glyph glyph-name="uni043E" unicode="&#x43e;" horiz-adv-x="483" 
d="M92.5 38q-53.5 48 -53.5 141v220q0 93 53.5 141t148.5 48t149 -48.5t54 -140.5v-220q0 -92 -54 -140.5t-149 -48.5t-148.5 48zM274 115.5q9 17.5 9 52.5v242q0 35 -9 52.5t-32 17.5t-32.5 -18t-9.5 -52v-242q0 -35 9.5 -52.5t32.5 -17.5t32 17.5z" />
    <glyph glyph-name="uni043F" unicode="&#x43f;" horiz-adv-x="511" 
d="M51 578h410v-578h-163v467h-84v-467h-163v578z" />
    <glyph glyph-name="uni0440" unicode="&#x440;" horiz-adv-x="505" 
d="M51 578h163v-42q28 26 61 39t64 13q63 0 93.5 -47t30.5 -123v-249q0 -83 -33 -131t-93 -48q-61 0 -123 54v-234h-163v768zM289.5 113q10.5 18 10.5 47v270q0 26 -10 43t-30 17q-24 0 -46 -20v-360q23 -15 43 -15q22 0 32.5 18z" />
    <glyph glyph-name="uni0441" unicode="&#x441;" horiz-adv-x="468" 
d="M92 41q-53 51 -53 142v212q0 92 52.5 142.5t147.5 50.5q94 0 144.5 -44t50.5 -130v-61h-157v66q0 33 -9.5 45.5t-28.5 12.5t-27.5 -15.5t-8.5 -52.5v-240q0 -37 9 -52t28 -15t28 13t9 44v77h157v-70q0 -86 -51 -131t-144 -45q-94 0 -147 51z" />
    <glyph glyph-name="uni0442" unicode="&#x442;" horiz-adv-x="405" 
d="M121 468h-105v110h372v-110h-105v-468h-162v468z" />
    <glyph glyph-name="uni0443" unicode="&#x443;" horiz-adv-x="448" 
d="M67 -55q48 0 70.5 10.5t22.5 38.5q0 25 -21 97l-136 487h153l73 -334l55 334h154l-133 -592q-19 -85 -69 -119.5t-132 -34.5h-37v113z" />
    <glyph glyph-name="uni045E" unicode="&#x45e;" horiz-adv-x="448" 
d="M67 -55q48 0 70.5 10.5t22.5 38.5q0 25 -21 97l-136 487h153l73 -334l55 334h154l-133 -592q-19 -85 -69 -119.5t-132 -34.5h-37v113zM120.5 683.5q-42.5 40.5 -42.5 115.5h92q0 -38 15 -55.5t50 -17.5q34 0 49.5 18t15.5 55h92q0 -74 -42.5 -115t-114.5 -41t-114.5 40.5
z" />
    <glyph glyph-name="uni0444" unicode="&#x444;" horiz-adv-x="697" 
d="M277 8h-17q-49 0 -99 19.5t-85 65.5t-35 120v163q0 67 32 112t82.5 66.5t104.5 21.5h17v233h141v-233h20q55 0 104.5 -21.5t81 -66.5t31.5 -112v-163q0 -74 -35 -120t-84.5 -65.5t-97.5 -19.5h-20v-180h-141v180zM277 105v380h-14q-31 0 -50.5 -24.5t-19.5 -70.5v-188
q0 -46 19 -71.5t52 -25.5h13zM429 105q31 0 52.5 26t21.5 71v188q0 45 -20.5 70t-52.5 25h-12v-380h11z" />
    <glyph glyph-name="uni0445" unicode="&#x445;" horiz-adv-x="442" 
d="M134 317l-117 261h164l62 -139l55 139h125l-114 -285l131 -293h-166l-70 159l-58 -159h-135z" />
    <glyph glyph-name="uni0447" unicode="&#x447;" horiz-adv-x="496" 
d="M282 233q-27 -3 -53 -3q-106 0 -148 36.5t-42 108.5v203h162v-193q0 -33 12.5 -47.5t48.5 -15.5l20 1v255h163v-578h-163v233z" />
    <glyph glyph-name="uni0446" unicode="&#x446;" horiz-adv-x="567" 
d="M419 0h-369v578h164v-478h87v478h163v-478h83v-257h-117z" />
    <glyph glyph-name="uni0448" unicode="&#x448;" horiz-adv-x="712" 
d="M50 578h152v-468h77v468h152v-468h77v468h152v-578h-610v578z" />
    <glyph glyph-name="uni0449" unicode="&#x449;" horiz-adv-x="776" 
d="M614 0h-566v578h152v-478h77v478h152v-478h77v478h152v-478h83v-257h-117z" />
    <glyph glyph-name="uni045F" unicode="&#x45f;" horiz-adv-x="518" 
d="M196 0h-145v578h163v-479h90v479h162v-578h-135l-10 -157h-115z" />
    <glyph glyph-name="uni044C" unicode="&#x44c;" horiz-adv-x="492" 
d="M51 578h163v-232h5q126 0 185.5 -37.5t59.5 -132.5q0 -94 -56.5 -135t-187.5 -41h-169v578zM217 93q55 0 77 17.5t22 61.5q0 45 -21.5 61t-75.5 17h-5v-157h3z" />
    <glyph glyph-name="uni044A" unicode="&#x44a;" horiz-adv-x="558" 
d="M116 468h-110v110h272v-232h6q126 0 185.5 -39t59.5 -138q0 -91 -56.5 -130t-187.5 -39h-169v468zM282 93q55 1 77 17t22 58q0 47 -22 64t-75 18h-6v-157h4z" />
    <glyph glyph-name="uni044B" unicode="&#x44b;" horiz-adv-x="740" 
d="M51 578h163v-232h5q126 0 185.5 -38t59.5 -134q0 -94 -56.5 -134t-187.5 -40h-169v578zM526 578h163v-578h-163v578zM217 93q55 0 77 17.5t22 61.5q0 45 -21.5 61t-75.5 17h-5v-157h3z" />
    <glyph glyph-name="uni0459" unicode="&#x459;" horiz-adv-x="810" 
d="M34 109q44 0 66.5 18.5t33 63.5t17.5 136l19 251h368v-233h6q123 0 181.5 -37.5t58.5 -131.5q0 -93 -57 -134.5t-182 -41.5h-170v468h-67l-13 -176q-10 -125 -32 -187.5t-67.5 -86.5t-132.5 -24h-29v115zM542 93q52 0 73 17.5t21 60.5q0 44 -22 61t-73 17h-3v-156h4z" />
    <glyph glyph-name="uni045A" unicode="&#x45a;" horiz-adv-x="725" 
d="M51 578h163v-231h84v232h163v-233h10q118 -2 173.5 -41.5t55.5 -134.5q0 -90 -55.5 -129.5t-182.5 -39.5h-164v213h-84v-214h-163v578zM466 94q48 2 67.5 18.5t19.5 55.5q0 45 -19.5 62t-67.5 19h-5v-155h5z" />
    <glyph glyph-name="uni0455" unicode="&#x455;" horiz-adv-x="424" 
d="M101.5 24.5q-50.5 34.5 -81.5 110.5l111 49q16 -40 37.5 -62t47.5 -22q38 0 38 30q0 22 -15 39.5t-65 58.5l-42 35q-52 44 -75.5 80t-23.5 86q0 46 24.5 82t65.5 56.5t88 20.5q71 0 118.5 -38.5t67.5 -110.5l-105 -48q-10 32 -31 57.5t-46 25.5q-16 0 -25.5 -9t-9.5 -24
q0 -18 19.5 -39t61.5 -55l41 -36q50 -42 77 -78.5t27 -85.5t-24.5 -84.5t-65 -54t-87.5 -18.5q-77 0 -127.5 34.5z" />
    <glyph glyph-name="uni0454" unicode="&#x454;" horiz-adv-x="461" 
d="M92 41q-53 51 -53 142v212q0 92 52.5 142.5t147.5 50.5q94 0 145 -44t51 -130v-40h-158v41q0 33 -9 45.5t-28 12.5t-28 -15t-9 -53v-75h133v-72h-133v-85q0 -38 9 -52.5t29 -14.5q19 0 27.5 13t8.5 44v52h158v-49q0 -87 -51 -131.5t-145 -44.5t-147 51z" />
    <glyph glyph-name="uni044D" unicode="&#x44d;" horiz-adv-x="476" 
d="M93 33.5q-51 43.5 -51 129.5v30h157v-31q0 -33 9.5 -45t28.5 -12t28 15t9 53v78h-133v69h133v86q0 37 -9 51.5t-28 14.5t-28.5 -13t-9.5 -44v-41h-157v39q0 86 51.5 130.5t143.5 44.5q95 0 147.5 -51t52.5 -142v-213q0 -91 -52.5 -141.5t-147.5 -50.5q-93 0 -144 43.5z
" />
    <glyph glyph-name="uni0456" unicode="&#x456;" horiz-adv-x="265" 
d="M51 789h164v-113h-164v113zM52 578h163v-578h-163v578z" />
    <glyph glyph-name="uni0457" unicode="&#x457;" horiz-adv-x="280" 
d="M59 578h163v-578h-163v578zM-33 810h130v-148h-130v148zM185 810h130v-148h-130v148z" />
    <glyph glyph-name="uni0458" unicode="&#x458;" horiz-adv-x="277" 
d="M64 789h163v-113h-163v113zM-9 -167v117q18 -4 29 -4q44 0 44 49v583h163v-603q0 -70 -38.5 -112.5t-110.5 -42.5q-45 0 -87 13z" />
    <glyph glyph-name="uni045B" unicode="&#x45b;" horiz-adv-x="518" 
d="M442.5 433q28.5 -49 28.5 -129v-304h-163v311q0 31 -8.5 46.5t-29.5 15.5q-18 0 -51 -15v-358h-163v592h-64v81h64v137h163v-137h126v-81h-126v-140q72 30 122 30q73 0 101.5 -49z" />
    <glyph glyph-name="uni044E" unicode="&#x44e;" horiz-adv-x="701" 
d="M330 38q-50 48 -50 141v54h-69v-233h-160v578h160v-231h69v52q0 93 50 141t140 48q89 0 140 -48.5t51 -140.5v-220q0 -92 -51 -140.5t-140 -48.5q-90 0 -140 48zM500.5 123q8.5 17 8.5 52v228q0 35 -8.5 52t-30.5 17q-21 0 -29.5 -17.5t-8.5 -51.5v-228q0 -34 8.5 -51.5
t29.5 -17.5q22 0 30.5 17z" />
    <glyph glyph-name="uni044F" unicode="&#x44f;" horiz-adv-x="516" 
d="M107 240q-35 18 -53 60t-18 97q0 84 51.5 132.5t162.5 48.5h215v-578h-162v206q-25 0 -49 2l-65 -208h-172zM303 302v184h-7q-55 0 -83.5 -22.5t-28.5 -65.5q0 -94 112 -96h7z" />
    <glyph glyph-name="uni0452" unicode="&#x452;" horiz-adv-x="510" 
d="M442.5 433q28.5 -49 28.5 -129v-201q0 -110 -23.5 -166t-77.5 -77t-156 -21h-23v81h18q44 0 65.5 19.5t27.5 55.5t6 102v214q0 31 -8.5 46.5t-29.5 15.5q-18 0 -51 -15v-358h-163v592h-64v81h64v137h163v-137h126v-81h-126v-140q72 30 122 30q73 0 101.5 -49z" />
    <glyph glyph-name="uni0463" unicode="&#x463;" horiz-adv-x="531" 
d="M444.5 307q59.5 -39 59.5 -138q0 -91 -57 -130t-188 -39h-169v468h-92v110h92v232h163v-232h140v-110h-140v-122h6q126 0 185.5 -39zM334 110q22 16 22 58q0 47 -22 64t-75 18h-6v-157h4q55 1 77 17z" />
    <glyph glyph-name="uni046B" unicode="&#x46b;" horiz-adv-x="611" 
d="M604 0h-134l-94 241h-7v-241h-126v241h-7l-94 -241h-135l158 347l-138 231h553l-133 -227zM391 477h-174l89 -154z" />
    <glyph glyph-name="uni0493" unicode="&#x493;" horiz-adv-x="406" 
d="M235 457v-113h114v-110h-114v-234h-163v234h-72v110h72v234h321v-121h-158z" />
    <glyph glyph-name="uni0497" unicode="&#x497;" horiz-adv-x="696" 
d="M698 100v-257h-117l-11 157h-52l-112 279h-11v-279h-136v279h-12l-105 -279h-135l115 291l-108 287h141l92 -274h12v274h136v-274h11l98 274h143l-115 -287l79 -191h87z" />
    <glyph glyph-name="uni049B" unicode="&#x49b;" horiz-adv-x="550" 
d="M551 100v-257h-117l-11 157h-91l-94 256h-24v-256h-163v578h163v-228h24l88 228h175l-114 -273l79 -205h85z" />
    <glyph glyph-name="uni04A3" unicode="&#x4a3;" horiz-adv-x="555" 
d="M553 100v-257h-117l-11 157h-114v242h-97v-242h-163v578h163v-224h97v224h164v-478h78z" />
    <glyph glyph-name="uni04AF" unicode="&#x4af;" horiz-adv-x="447" 
d="M157 80l-154 498h146l78 -299l65 299h146l-139 -496v-257h-142v255z" />
    <glyph glyph-name="uni04B1" unicode="&#x4b1;" horiz-adv-x="448" 
d="M301 90h110v-93h-112v-172h-142v172h-115v93h112l-151 488h146l78 -299l65 299h146z" />
    <glyph glyph-name="uni04BB" unicode="&#x4bb;" horiz-adv-x="509" 
d="M52 810h162v-283q61 61 142 61q50 0 78 -37.5t28 -97.5v-453h-162v430q0 22 -7.5 32.5t-25.5 10.5q-21 0 -53 -21v-452h-162v810z" />
    <glyph glyph-name="uni04CA" unicode="&#x4ca;" horiz-adv-x="555" 
d="M553 100l-63 -257h-117l27 157h-89v242h-97v-242h-163v578h163v-224h97v224h164v-478h78z" />
    <glyph glyph-name="uni04D9" unicode="&#x4d9;" horiz-adv-x="470" 
d="M86 37q-48 49 -48 144v116h231v112q0 63 -39 63q-42 0 -42 -56v-61h-150v57q0 86 50.5 131t141.5 45q94 0 147.5 -50.5t53.5 -142.5v-213q0 -93 -53 -143.5t-148 -50.5q-96 0 -144 49zM259.5 119.5q9.5 15.5 9.5 52.5v49h-81v-57q0 -33 11 -46.5t31 -13.5t29.5 15.5z" />
    <glyph glyph-name="uni04E9" unicode="&#x4e9;" horiz-adv-x="483" 
d="M390 539.5q54 -48.5 54 -140.5v-220q0 -92 -54 -140.5t-149 -48.5t-148.5 48t-53.5 141v220q0 93 53.5 141t148.5 48t149 -48.5zM209.5 462q-9.5 -18 -9.5 -52v-78h83v78q0 35 -9 52.5t-32 17.5t-32.5 -18zM274 115.5q9 17.5 9 52.5v86h-83v-86q0 -35 9.5 -52.5
t32.5 -17.5t32 17.5z" />
    <glyph glyph-name="Pi" unicode="&#x3a0;" horiz-adv-x="611" 
d="M51 810h508v-810h-158v681h-191v-681h-159v810z" />
    <glyph glyph-name="pi" unicode="&#x3c0;" horiz-adv-x="589" 
d="M411.5 6.5q-47.5 16.5 -65.5 48.5t-18 86v331h-84v-472h-163v472h-62v106h540v-106h-69v-266q0 -47 3.5 -67t16.5 -27.5t43 -7.5l-7 -114q-87 0 -134.5 16.5z" />
    <glyph glyph-name="uni212B" unicode="&#x212b;" horiz-adv-x="551" 
d="M174 810h204l151 -810h-165l-27 171h-119l-28 -171h-169zM320 278l-43 316l-43 -316h86zM192 816.5q-33 28.5 -33 80.5t33 81t83 29t84 -29t34 -81t-33.5 -80.5t-84.5 -28.5q-50 0 -83 28.5zM312 860q13 15 13 37q0 23 -13 38t-37 15q-23 0 -36 -15t-13 -38q0 -22 13 -37
t36 -15q24 0 37 15z" />
    <glyph glyph-name="uni212A" unicode="&#x212a;" horiz-adv-x="567" 
d="M60 810h179v-331l136 331h175l-150 -366l157 -444h-182l-117 358l-19 -32v-326h-179v810z" />
    <glyph glyph-name="zero" unicode="0" horiz-adv-x="550" 
d="M111 48q-57 63 -57 169v367q0 111 55.5 174.5t165.5 63.5t165 -63.5t55 -174.5v-367q0 -105 -57.5 -168.5t-162.5 -63.5q-107 0 -164 63zM315.5 160q9.5 26 9.5 61v359q0 40 -8.5 66.5t-41.5 26.5t-41.5 -26t-8.5 -67v-359q0 -87 50 -87q31 0 40.5 26z" />
    <glyph glyph-name="one" unicode="1" horiz-adv-x="389" 
d="M133 645q-11 -6 -58 -26q-8 -3 -25 -10t-28 -13v124q120 62 147 90h131v-810h-167v645z" />
    <glyph glyph-name="two" unicode="2" horiz-adv-x="514" 
d="M41 118l194 298l12 18q38 57 56 95.5t18 80.5q0 34 -13.5 51.5t-38.5 17.5q-38 0 -53 -29.5t-15 -81.5v-40h-162v43q0 114 55.5 182t171.5 68q107 0 163.5 -56t56.5 -158q0 -46 -14.5 -87t-34.5 -74t-62 -94l-148 -221h237v-131h-423v118z" />
    <glyph glyph-name="three" unicode="3" horiz-adv-x="514" 
d="M89 51q-51 66 -51 188v29h167v-29q0 -62 12.5 -87.5t46.5 -25.5q32 0 43 25t11 83q0 64 -18 93.5t-67 30.5h-31v115h27q51 0 70 27.5t19 91.5q0 49 -13 73t-46 24q-31 0 -42.5 -25.5t-11.5 -74.5v-42h-167v49q0 109 58.5 167.5t162.5 58.5q106 0 165 -56t59 -163
q0 -69 -28 -117.5t-71 -60.5q46 -17 72.5 -61t26.5 -126q0 -118 -53 -185.5t-169 -67.5q-121 0 -172 66z" />
    <glyph glyph-name="four" unicode="4" horiz-adv-x="524" 
d="M274 182h-249v123l211 505h194v-504h75v-124h-75v-182h-156v182zM274 306v337l-122 -337h122z" />
    <glyph glyph-name="five" unicode="5" horiz-adv-x="509" 
d="M123 15.5q-46 30.5 -63 84.5t-17 137h161q0 -71 11.5 -99.5t45.5 -28.5q27 0 39.5 18.5t15.5 52t3 98.5q0 68 -13 103.5t-50 35.5q-51 0 -64 -74h-144l15 467h378v-140h-244l-9 -167q11 16 46.5 27.5t72.5 11.5q82 0 125.5 -68t43.5 -192q0 -97 -17 -160.5t-65 -100
t-139 -36.5q-86 0 -132 30.5z" />
    <glyph glyph-name="six" unicode="6" horiz-adv-x="538" 
d="M107 60q-55 72 -55 194v293q0 132 48.5 203t174.5 71q112 0 159 -51t47 -157l1 -14h-157q0 54 -8.5 75t-40.5 21q-23 0 -34.5 -14t-15.5 -47t-4 -100v-72q13 21 41 33t64 12q88 0 129 -64t41 -169q0 -138 -50 -212t-171 -74q-114 0 -169 72zM319.5 142q9.5 31 9.5 106
q0 49 -3 74.5t-14 41t-36 15.5q-17 0 -32 -10t-22 -22v-132q0 -104 56 -104q32 0 41.5 31z" />
    <glyph glyph-name="seven" unicode="7" horiz-adv-x="439" 
d="M241 683h-221v127h384v-115l-176 -695h-163z" />
    <glyph glyph-name="eight" unicode="8" horiz-adv-x="521" 
d="M90.5 53.5q-52.5 66.5 -52.5 183.5q0 65 23.5 115.5t70.5 73.5q-35 26 -58 72.5t-23 112.5q0 99 54.5 154.5t154.5 55.5t153.5 -55t53.5 -152q0 -69 -21.5 -116.5t-57.5 -71.5q47 -23 70.5 -75.5t23.5 -120.5q0 -114 -53 -178.5t-169 -64.5q-117 0 -169.5 66.5zM310 607
q0 41 -13 65t-37 24q-25 0 -38.5 -23.5t-13.5 -64.5q0 -122 52 -122q50 0 50 121zM299.5 131.5q12.5 21.5 15 47t2.5 63.5q0 52 -11.5 82t-45.5 30q-35 0 -46 -33.5t-11 -92.5q0 -50 11 -84t46 -34q27 0 39.5 21.5z" />
    <glyph glyph-name="nine" unicode="9" horiz-adv-x="538" 
d="M101.5 39.5q-46.5 51.5 -46.5 157.5v13h156q0 -54 9.5 -75t41.5 -21q23 0 33.5 14t14.5 47t4 100v72q-13 -21 -41 -33t-63 -12q-88 0 -129.5 68t-41.5 175q0 133 52.5 204.5t169.5 71.5q115 0 169 -67.5t54 -189.5v-302q0 -131 -49 -202.5t-174 -71.5q-113 0 -159.5 51.5
zM314 462v132q0 48 -11 76t-42 28q-32 0 -41.5 -31.5t-9.5 -105.5q0 -49 3 -74.5t14 -41t36 -15.5q30 0 51 32z" />
    <glyph glyph-name="uni00B9" unicode="&#xb9;" horiz-adv-x="376" 
d="M157 753l-92 -36v105l131 66h83v-455h-122v320z" />
    <glyph glyph-name="uni00B2" unicode="&#xb2;" horiz-adv-x="474" 
d="M81 513l115 116q46 45 63.5 72t17.5 54q0 45 -37 45q-23 0 -33 -20.5t-10 -61.5h-118v16q0 74 40.5 119t123.5 45q71 0 112 -38.5t41 -105.5q0 -48 -21 -85t-67 -82l-58 -57h150v-97h-319v80z" />
    <glyph glyph-name="uni00B3" unicode="&#xb3;" horiz-adv-x="474" 
d="M115.5 458.5q-35.5 35.5 -35.5 100.5v16h117v-4q0 -50 42 -50q40 0 40 47q0 29 -13.5 43.5t-46.5 14.5h-26v72h23q32 0 45.5 13t13.5 41q0 48 -37 48q-41 0 -41 -50v-4h-117v16q0 66 41 101t117 35q73 0 114.5 -31.5t41.5 -92.5q0 -40 -19 -67t-47 -38q32 -10 50.5 -35.5
t18.5 -74.5q0 -64 -42 -100t-117 -36q-87 0 -122.5 35.5z" />
    <glyph glyph-name="uni2074" unicode="&#x2074;" horiz-adv-x="483" 
d="M241 534h-177v74l196 280h103v-278h44v-76h-44v-101h-122v101zM241 610l-1 133l-92 -133h93z" />
    <glyph glyph-name="fraction" unicode="&#x2044;" horiz-adv-x="172" 
d="M219 810h96l-386 -810h-97z" />
    <glyph glyph-name="onehalf" unicode="&#xbd;" horiz-adv-x="895" 
d="M118 675l-92 -36v105l131 66h83v-455h-122v320zM550 810h96l-386 -810h-97zM527 80l115 116q46 45 63.5 72t17.5 54q0 45 -37 45q-23 0 -33 -20.5t-10 -61.5h-118v16q0 74 40.5 119t123.5 45q71 0 112 -38.5t41 -105.5q0 -48 -21 -85t-67 -82l-58 -57h150v-97h-319v80z
" />
    <glyph glyph-name="onequarter" unicode="&#xbc;" horiz-adv-x="852" 
d="M126 675l-92 -36v105l131 66h83v-455h-122v320zM558 810h96l-386 -810h-97zM628 101h-177v74l196 280h103v-278h44v-76h-44v-101h-122v101zM628 177l-1 133l-92 -133h93z" />
    <glyph glyph-name="threequarters" unicode="&#xbe;" horiz-adv-x="922" 
d="M95.5 381.5q-35.5 35.5 -35.5 100.5v16h117v-4q0 -50 42 -50q40 0 40 47q0 29 -13.5 43.5t-46.5 14.5h-26v72h23q32 0 45.5 13t13.5 41q0 48 -37 48q-41 0 -41 -50v-4h-117v16q0 66 41 101t117 35q73 0 114.5 -31.5t41.5 -92.5q0 -40 -19 -67t-47 -38q32 -10 50.5 -35.5
t18.5 -74.5q0 -64 -42 -100t-117 -36q-87 0 -122.5 35.5zM639 810h96l-386 -810h-97zM710 101h-177v74l196 280h103v-278h44v-76h-44v-101h-122v101zM710 177l-1 133l-92 -133h93z" />
    <glyph glyph-name="asterisk" unicode="*" horiz-adv-x="423" 
d="M75 507l72 102l-107 41l36 97l97 -54l-13 117h122l-13 -117l98 54l36 -98l-108 -41l73 -101l-97 -57l-50 106l-51 -106z" />
    <glyph glyph-name="backslash" unicode="\" horiz-adv-x="422" 
d="M43 810h88l248 -810h-87z" />
    <glyph glyph-name="periodcentered" unicode="&#xb7;" horiz-adv-x="226" 
d="M37 452h154v-152h-154v152z" />
    <glyph glyph-name="bullet" unicode="&#x2022;" horiz-adv-x="478" 
d="M150 209q-41 21 -66 62.5t-25 99.5q0 60 25 102t66 63.5t88 21.5t88 -21.5t66 -64t25 -101.5q0 -58 -25 -99.5t-66 -62.5t-88 -21t-88 21z" />
    <glyph glyph-name="colon" unicode=":" horiz-adv-x="278" 
d="M67 564h152v-152h-152v152zM67 208h152v-152h-152v152z" />
    <glyph glyph-name="comma" unicode="," horiz-adv-x="238" 
d="M58 -87q32 8 51.5 27.5t19.5 59.5h-86v154h155v-133q-2 -151 -130 -161z" />
    <glyph glyph-name="ellipsis" unicode="&#x2026;" horiz-adv-x="664" 
d="M480 155h155v-155h-155v155zM30 154h154v-154h-154v154zM253 154h155v-154h-155v154z" />
    <glyph glyph-name="exclam" unicode="!" horiz-adv-x="257" 
d="M49 808h162l-59 -602h-56zM46 152h154v-152h-154v152z" />
    <glyph glyph-name="exclamdown" unicode="&#xa1;" horiz-adv-x="237" 
d="M48 652h154v-152h-154v152zM96 446h56l47 -602h-162z" />
    <glyph glyph-name="numbersign" unicode="#" horiz-adv-x="534" 
d="M102 269h-55l3 101h66l14 116h-79l2 104h95l25 220h106l-26 -220h78l25 220h105l-26 -220h53l-3 -104h-68l-13 -116h79l-3 -101h-90l-33 -269h-104l32 269h-78l-32 -269h-104zM299 370l14 116h-78l-15 -116h79z" />
    <glyph glyph-name="period" unicode="." horiz-adv-x="244" 
d="M46 154h154v-154h-154v154z" />
    <glyph glyph-name="question" unicode="?" horiz-adv-x="484" 
d="M129 342q72 56 115.5 126t43.5 144q0 70 -53 70q-24 0 -37.5 -14t-13.5 -39q0 -24 12 -55l-147 -34q-17 49 -17 94q0 88 54 137.5t153 49.5q100 0 155 -53t55 -151q0 -89 -44 -166t-128 -140v-98h-148v129zM124 155h159v-155h-159v155z" />
    <glyph glyph-name="questiondown" unicode="&#xbf;" horiz-adv-x="484" 
d="M350 300q-72 -56 -115.5 -126t-43.5 -144q0 -70 53 -70q24 0 37.5 14t13.5 39q0 24 -12 55l147 34q17 -49 17 -94q0 -88 -54 -137.5t-153 -49.5q-100 0 -155 53t-55 151q0 89 44 166t128 140v98h148v-129zM355 487h-159v155h159v-155z" />
    <glyph glyph-name="quotedbl" unicode="&#x22;" horiz-adv-x="360" 
d="M25 810h139l-65 -301h-74v301zM209 810h139l-64 -301h-75v301z" />
    <glyph glyph-name="quotesingle" unicode="'" horiz-adv-x="170" 
d="M25 810h133l-54 -301h-79v301z" />
    <glyph glyph-name="semicolon" unicode=";" horiz-adv-x="285" 
d="M67 575h153v-153h-153v153zM81 -65q71 12 71 82h-84v153h153v-133q0 -75 -32.5 -114.5t-96.5 -39.5z" />
    <glyph glyph-name="slash" unicode="/" horiz-adv-x="422" 
d="M291 810h88l-249 -810h-87z" />
    <glyph glyph-name="underscore" unicode="_" horiz-adv-x="368" 
d="M0 -58h368v-109h-368v109z" />
    <glyph glyph-name="periodcentered.loclCAT" horiz-adv-x="219" 
d="M54 452h111v-152h-111v152z" />
    <glyph glyph-name="braceleft" unicode="{" horiz-adv-x="374" 
d="M190.5 -173q-48.5 20 -63 63t-14.5 131v80q0 78 -3.5 108t-16 39.5t-45.5 9.5v118q33 0 45.5 10t16 39.5t3.5 107.5v80q0 88 14.5 131.5t63 63.5t152.5 20v-109q-37 0 -53 -8t-21.5 -31t-5.5 -76v-90q0 -91 -18.5 -138.5t-67.5 -58.5q49 -11 67.5 -58t18.5 -138v-91
q0 -53 5.5 -76t21.5 -30.5t53 -7.5v-109q-104 0 -152.5 20z" />
    <glyph glyph-name="braceright" unicode="}" horiz-adv-x="379" 
d="M37 -84q37 0 53 7.5t21.5 30.5t5.5 76v91q0 91 18.5 138t68.5 58q-50 11 -68.5 58.5t-18.5 138.5v90q0 53 -5.5 76t-21.5 31t-53 8v109q104 0 152.5 -20t63 -63.5t14.5 -131.5v-80q0 -78 3.5 -107.5t16 -39.5t45.5 -10v-118q-33 0 -45.5 -9.5t-16 -39.5t-3.5 -108v-80
q0 -88 -14.5 -131t-63 -63t-152.5 -20v109z" />
    <glyph glyph-name="bracketleft" unicode="[" horiz-adv-x="332" 
d="M52 810h251v-63h-124v-869h123v-63h-251z" />
    <glyph glyph-name="bracketright" unicode="]" horiz-adv-x="324" 
d="M22 -122h123l-1 869h-123v63h251l1 -995h-251v63z" />
    <glyph glyph-name="parenleft" unicode="(" horiz-adv-x="338" 
d="M146.5 -113q-52.5 66 -68.5 170t-16 259q0 164 15.5 269t68.5 169.5t157 64.5v-114q-37 0 -56.5 -44t-27 -127t-7.5 -218q0 -133 8 -215t28 -123.5t55 -41.5v-115q-104 0 -156.5 66z" />
    <glyph glyph-name="parenright" unicode=")" horiz-adv-x="328" 
d="M35 -64q35 0 54.5 42t27.5 123.5t8 215.5q0 136 -7 218.5t-26.5 126t-56.5 43.5v114q104 0 157 -64t68.5 -169t15.5 -269q0 -155 -16 -259.5t-68.5 -170.5t-156.5 -66v115z" />
    <glyph glyph-name="emdash" unicode="&#x2014;" horiz-adv-x="992" 
d="M3 438h987v-110h-987v110z" />
    <glyph glyph-name="endash" unicode="&#x2013;" horiz-adv-x="499" 
d="M3 422h493v-111h-493v111z" />
    <glyph glyph-name="hyphen" unicode="-" horiz-adv-x="386" 
d="M64 403h259v-104h-259v104z" />
    <glyph glyph-name="uni2010" unicode="&#x2010;" horiz-adv-x="600" 
d="M64 403h259v-104h-259v104z" />
    <glyph glyph-name="uni00AD" unicode="&#xad;" horiz-adv-x="372" 
d="M65 364h250v-105h-250v105z" />
    <glyph glyph-name="guillemotleft" unicode="&#xab;" horiz-adv-x="488" 
d="M37 271v56l197 234v-156l-102 -106l102 -106v-156zM253 271v56l197 234v-156l-102 -106l102 -106v-156z" />
    <glyph glyph-name="guillemotright" unicode="&#xbb;" horiz-adv-x="494" 
d="M45 193l104 107l-104 105v156l199 -234v-56l-199 -234v156zM261 193l104 107l-104 105v156l199 -234v-56l-199 -234v156z" />
    <glyph glyph-name="guilsinglleft" unicode="&#x2039;" horiz-adv-x="288" 
d="M38 242v85l206 220v-157l-107 -104l107 -107v-157z" />
    <glyph glyph-name="guilsinglright" unicode="&#x203a;" horiz-adv-x="276" 
d="M41 192l111 106l-111 106v156l206 -234v-56l-206 -234v156z" />
    <glyph glyph-name="quotedblbase" unicode="&#x201e;" horiz-adv-x="433" 
d="M258 -58q36 1 48.5 23.5t12.5 66.5h-69v143h143q0 -45 -2 -111q-3 -91 -29 -131.5t-92 -41.5zM70 -58q36 1 48.5 23.5t12.5 66.5h-69v143h143q0 -45 -2 -111q-3 -91 -29 -131.5t-92 -41.5z" />
    <glyph glyph-name="quotedblleft" unicode="&#x201c;" horiz-adv-x="433" 
d="M25 645q3 91 29 132t92 41l12 -51q-36 -1 -48.5 -23.5t-12.5 -66.5h70v-143h-144q0 47 2 111zM230 645q3 91 29 132t92 41l12 -51q-36 -1 -48.5 -23.5t-12.5 -66.5h70v-143h-144q0 47 2 111z" />
    <glyph glyph-name="quotedblright" unicode="&#x201d;" horiz-adv-x="433" 
d="M70 577q36 1 48.5 23.5t12.5 66.5h-69v143h143q0 -45 -2 -111q-3 -91 -29 -131.5t-92 -41.5zM275 577q36 1 48.5 23.5t12.5 66.5h-69v143h143q0 -45 -2 -111q-3 -91 -29 -131.5t-92 -41.5z" />
    <glyph glyph-name="quoteleft" unicode="&#x2018;" horiz-adv-x="228" 
d="M25 645q3 91 29 132t92 41l12 -51q-36 -1 -48.5 -23.5t-12.5 -66.5h70v-143h-144q0 47 2 111z" />
    <glyph glyph-name="quoteright" unicode="&#x2019;" horiz-adv-x="228" 
d="M70 577q36 1 48.5 23.5t12.5 66.5h-69v143h143q0 -45 -2 -111q-3 -91 -29 -131.5t-92 -41.5z" />
    <glyph glyph-name="quotesinglbase" unicode="&#x201a;" horiz-adv-x="244" 
d="M70 -58q36 1 48.5 23.5t12.5 66.5h-69v143h143q0 -45 -2 -111q-3 -91 -29 -131.5t-92 -41.5z" />
    <glyph glyph-name="uni27E8" unicode="&#x27e8;" horiz-adv-x="370" 
d="M37 275v86l299 452v-165l-214 -329l214 -331v-165z" />
    <glyph glyph-name="uni27E9" unicode="&#x27e9;" horiz-adv-x="370" 
d="M32 -12l214 331l-214 329v165l300 -452v-86l-300 -452v165z" />
    <glyph glyph-name="uni00A0" unicode="&#xa0;" horiz-adv-x="256" 
 />
    <glyph glyph-name="uni20B5" unicode="&#x20b5;" horiz-adv-x="563" 
d="M350 517v81q0 47 -10 72t-48 25t-50 -26.5t-12 -73.5v-381q0 -48 12.5 -73.5t49.5 -25.5t47.5 25.5t10.5 73.5v85h175v-70q0 -107 -47 -170t-159 -70v-99h-51v99q-119 6 -169 75t-50 194v292q0 128 50 196t169 74v94h51v-94q112 -6 159 -66.5t47 -166.5v-70h-175z" />
    <glyph glyph-name="cent" unicode="&#xa2;" horiz-adv-x="457" 
d="M212 -9q-83 7 -128.5 57t-45.5 135v212q0 86 45.5 135.5t128.5 56.5v122h42v-121q86 -4 132.5 -48t46.5 -126v-61h-158v62q0 33 -9 45.5t-28 12.5q-20 0 -29 -15t-9 -53v-232q0 -38 9.5 -52.5t28.5 -14.5t28 13t9 44v73h158v-70q0 -82 -46.5 -126.5t-132.5 -49.5v-122
h-42v123z" />
    <glyph glyph-name="colonmonetary" unicode="&#x20a1;" horiz-adv-x="563" 
d="M381 516v49l-59 -448q32 7 45.5 30t13.5 66v85h144v-69q0 -111 -50 -174.5t-170 -67.5l-13 -97h-51l13 99q-24 2 -35 5l-14 -104h-51l16 119q-65 28 -93 91t-28 158v291q0 130 52 198.5t176 72.5l12 94h51l-13 -95q15 -1 36 -5l13 100h51l-15 -114q60 -25 86.5 -79.5
t26.5 -134.5v-70h-144zM271 115l75 568q-17 9 -35 10l-75 -568q14 -7 35 -10zM199 231l61 460q-33 -7 -47 -30.5t-14 -66.5v-363z" />
    <glyph glyph-name="currency" unicode="&#xa4;" horiz-adv-x="555" 
d="M40 201l80 79q-26 28 -40.5 65t-14.5 78q0 40 14.5 77t40.5 66l-80 79l15 15l79 -79q28 27 65 41.5t78 14.5t78 -14.5t65 -41.5l79 79l15 -15l-79 -79q25 -29 39 -65.5t14 -77.5t-14 -78t-40 -65l80 -79l-15 -15l-79 79q-29 -27 -65.5 -42t-77.5 -14q-41 -1 -77.5 14
t-65.5 42l-79 -79zM360.5 277q37.5 23 59 61.5t21.5 84.5t-21.5 85t-59 61.5t-83.5 22.5q-45 0 -82.5 -22.5t-59 -61.5t-21.5 -85q0 -45 21.5 -84t59 -62t82.5 -23q46 0 83.5 23z" />
    <glyph glyph-name="dollar" unicode="$" horiz-adv-x="485" 
d="M232 -11q-104 5 -155 66.5t-55 189.5l153 23q1 -77 18 -110.5t52 -33.5q45 0 45 59q0 47 -21.5 80.5t-66.5 73.5l-71 61q-54 48 -81.5 94t-27.5 117q0 94 53.5 148.5t147.5 61.5v95h51v-94q103 -6 138.5 -71.5t38.5 -157.5l-155 -19q-2 64 -11.5 91.5t-40.5 26.5
q-24 0 -36.5 -19.5t-12.5 -43.5q0 -43 19.5 -70.5t58.5 -62.5l68 -59q60 -55 92.5 -110.5t32.5 -132.5q0 -81 -49.5 -137.5t-133.5 -64.5v-100h-51v99z" />
    <glyph glyph-name="dong" unicode="&#x20ab;" horiz-adv-x="500" 
d="M73.5 35q-34.5 45 -34.5 133v239q0 83 34.5 132t99.5 49q59 0 112 -46v139h-134v66h134v63h163v-63h49v-66h-49v-681h-163v45q-53 -55 -112 -55q-65 0 -99.5 45zM285 109v365q-24 13 -40 13q-21 0 -31.5 -17.5t-10.5 -45.5v-266q0 -29 10 -46.5t31 -17.5q19 0 41 15z
M60.7666 -60h384.093v-104h-384.093v104z" />
    <glyph glyph-name="Euro" unicode="&#x20ac;" horiz-adv-x="560" 
d="M113.5 57.5q-55.5 69.5 -55.5 200.5v58h-50v56h50v60h-50v56h50v62q0 134 55.5 202.5t188.5 68.5q127 0 179.5 -61t52.5 -173v-49h-175v60q0 47 -10 72t-47 25q-38 0 -50 -26.5t-12 -73.5v-107h104v-56h-104v-60h104v-56h-104v-102q0 -48 12.5 -73.5t49.5 -25.5t47 25.5
t10 73.5v42h175v-27q0 -114 -52.5 -177.5t-179.5 -63.5q-133 0 -188.5 69.5z" />
    <glyph glyph-name="florin" unicode="&#x192;" horiz-adv-x="461" 
d="M21 -175l13 121q18 -4 34 -4q19 0 30 10.5t14 33.5l50 478h-57v114h69l5 45q6 56 21 91.5t51.5 55.5t103.5 20q40 0 77 -5l-13 -121q-25 5 -34 5q-40 0 -43 -45l-5 -46h63v-114h-75l-51 -476q-6 -58 -20.5 -93t-51 -55t-104.5 -20q-27 0 -77 5z" />
    <glyph glyph-name="franc" unicode="&#x20a3;" horiz-adv-x="434" 
d="M239 689v-204h149v-125h-149v-111h100v-95h-100v-154h-179v154h-60v95h60v561h350v-121h-171z" />
    <glyph glyph-name="uni20B2" unicode="&#x20b2;" horiz-adv-x="582" 
d="M530 420v-420h-118l-10 67q-27 -56 -83 -73v-104h-51v98q-118 1 -168.5 73.5t-50.5 206.5v272q0 131 50 202.5t169 77.5v94h51v-94q113 -6 161.5 -67.5t48.5 -168.5v-52h-175v66q0 48 -11 72.5t-49 24.5q-39 0 -50.5 -27t-11.5 -75v-375q0 -48 14.5 -75.5t52.5 -27.5
q70 0 70 105v95h-73v105h234z" />
    <glyph glyph-name="uni20AD" unicode="&#x20ad;" horiz-adv-x="647" 
d="M448 0l-221 377v-377h-157v399h-57v96h57v315h157v-295l179 295h171l-188 -315h162v-96h-163l230 -399h-170z" />
    <glyph glyph-name="lira" unicode="&#x20a4;" horiz-adv-x="490" 
d="M244.5 654.5q-6.5 -29.5 -6.5 -101.5v-67h119v-94h-119v-54h119v-95h-119v-105h217v-138h-434v92l60 28v123h-60v96h60v53h-60v95h60v52q0 92 13 151t56 95t127 36q106 0 145 -56.5t39 -163.5v-24h-143q0 55 -7 81t-33 26q-27 0 -33.5 -29.5z" />
    <glyph glyph-name="uni20BA" unicode="&#x20ba;" horiz-adv-x="586" 
d="M537 319v-59q0 -94 -24.5 -150t-83 -83t-162.5 -27h-207v373l-51 -14v95l51 14v59l-51 -14v95l51 14v188h179v-139l208 57v-95l-208 -57v-59l208 57v-95l-208 -57v-298h28q39 0 57.5 11.5t23.5 33t5 63.5v87h184z" />
    <glyph glyph-name="uni20BC" unicode="&#x20bc;" horiz-adv-x="588" 
d="M487.5 629.5q46.5 -62.5 46.5 -185.5v-444h-161v479q0 40 -11 63t-37 31v-573h-62v573q-26 -8 -37.5 -31t-11.5 -63v-479h-160v444q0 123 46.5 185.5t162.5 69.5v111h62v-111q116 -7 162.5 -69.5z" />
    <glyph glyph-name="uni20A6" unicode="&#x20a6;" horiz-adv-x="561" 
d="M500 499v-164h51v-93h-51v-242h-121l-96 242h-70v-242h-153v242h-51v94h51v163h-51v94h51v217h126l92 -217h74v217h148v-218h51v-93h-51zM312 514l40 -94v94h-40zM253 320l-40 100v-100h40z" />
    <glyph glyph-name="peseta" unicode="&#x20a7;" horiz-adv-x="1317" 
d="M60 810h272q107 0 160 -60.5t53 -174.5q0 -130 -61.5 -180.5t-172.5 -50.5h-72v-344h-179v810zM299 469q47 0 62.5 25t15.5 84q0 54 -15 80t-64 26h-59v-215h60zM691 12.5q-35 18.5 -49 53.5t-14 91v314h-56v107h56v176h165v-176h82v-107h-82v-298q0 -24 13.5 -35.5
t37.5 -11.5q20 0 44 4v-128q-48 -8 -98 -8q-64 0 -99 18.5zM994.5 24.5q-50.5 34.5 -81.5 110.5l111 49q16 -40 37.5 -62t47.5 -22q38 0 38 30q0 22 -15 39.5t-65 58.5l-42 35q-52 44 -75.5 80t-23.5 86q0 46 24.5 82t65.5 56.5t88 20.5q71 0 118.5 -38.5t67.5 -110.5
l-105 -48q-10 32 -31 57.5t-46 25.5q-16 0 -25.5 -9t-9.5 -24q0 -18 19.5 -39t61.5 -55l41 -36q50 -42 77 -78.5t27 -85.5t-24.5 -84.5t-65 -54t-87.5 -18.5q-77 0 -127.5 34.5z" />
    <glyph glyph-name="uni20B1" unicode="&#x20b1;" horiz-adv-x="629" 
d="M595 555h-51v-24v-18h51v-75h-58q-19 -101 -78 -141.5t-150 -40.5h-72v-256h-158v438h-51v76h51v41h-51v76h51v179h252q169 0 205 -180h59v-75zM237 631l141 -1q-9 29 -28 44.5t-53 15.5h-60v-59zM237 511l150 -1v24v24h-150v-47zM352 391q19 15 27 47h-142v-62h61
q35 0 54 15z" />
    <glyph glyph-name="uni20BD" unicode="&#x20bd;" horiz-adv-x="569" 
d="M237 297v-94h205v-75h-205v-128h-158v128h-51v76h51v606h252q112 0 162.5 -63t50.5 -197q0 -130 -57 -191.5t-178 -61.5h-72zM237 417h61q48 0 68.5 30t20.5 101q0 79 -19.5 110.5t-70.5 31.5h-60v-273z" />
    <glyph glyph-name="uni20B9" unicode="&#x20b9;" horiz-adv-x="579" 
d="M466 690q23 -31 33 -79h57v-120h-56q-8 -51 -35 -88t-81 -58q52 -29 79 -108l84 -237h-185l-68 206q-15 47 -38.5 66t-74.5 19h-118v120h174q44 0 66.5 20t29.5 60h-270v120h270q-8 40 -34 59.5t-81 19.5h-155v120h493v-120h-90z" />
    <glyph glyph-name="sterling" unicode="&#xa3;" horiz-adv-x="490" 
d="M21 92l60 28v201h-60v127h60v91q0 92 13 151t56 95t127 36q73 0 113 -27.5t55 -75t16 -117.5v-24h-143q0 55 -7 81t-33 26q-27 0 -33.5 -29.5t-6.5 -101.5v-106h119v-126h-119v-183h217v-138h-434v92z" />
    <glyph glyph-name="uni20A9" unicode="&#x20a9;" horiz-adv-x="697" 
d="M633 501l-20 -167h65v-94h-76l-29 -240h-156l-34 240h-68l-32 -240h-158l-29 240h-76v94h65l-21 167h-44v94h33l-26 215h152l22 -215h59l28 214h119l29 -215h61l23 216h150l-26 -216h34v-93h-45zM210 509l17 -171l22 171h-39zM448 509l23 -168l18 168h-41zM370 334
l-22 155l-21 -155h43z" />
    <glyph glyph-name="yen" unicode="&#xa5;" horiz-adv-x="475" 
d="M155 120h-84v80h84v66h-84v83h63l-133 461h168l78 -311l68 311h163l-131 -461h63v-83h-84v-66h84v-80h-84v-120h-171v120z" />
    <glyph glyph-name="uni2219" unicode="&#x2219;" horiz-adv-x="226" 
d="M37 452h154v-152h-154v152z" />
    <glyph glyph-name="uni2052" unicode="&#x2052;" horiz-adv-x="485" 
d="M45 810h134v-143h-134v143zM322 810h91l-249 -810h-90zM306 143h135v-143h-135v143z" />
    <glyph glyph-name="uni2215" unicode="&#x2215;" horiz-adv-x="422" 
d="M291 810h88l-249 -810h-87z" />
    <glyph glyph-name="plus" unicode="+" horiz-adv-x="448" 
d="M170 367h-144v95h144v156h108v-156h145v-95h-145v-160h-108v160z" />
    <glyph glyph-name="minus" unicode="&#x2212;" horiz-adv-x="473" 
d="M69 441h335v-104h-335v104z" />
    <glyph glyph-name="multiply" unicode="&#xd7;" horiz-adv-x="486" 
d="M54 300l116 116l-116 115l74 75l116 -116l114 116l74 -73l-115 -117l115 -116l-73 -73l-115 115l-115 -115z" />
    <glyph glyph-name="divide" unicode="&#xf7;" horiz-adv-x="456" 
d="M183 654h100v-123h-100v123zM35 462h386v-87h-386v87zM183 300h100v-123h-100v123z" />
    <glyph glyph-name="equal" unicode="=" horiz-adv-x="443" 
d="M63 536h317v-99h-317v99zM63 346h317v-99h-317v99z" />
    <glyph glyph-name="notequal" unicode="&#x2260;" horiz-adv-x="453" 
d="M135 247h-63v99h93l28 91h-121v99h151l31 100h88l-31 -100h79v-99h-109l-29 -91h138v-99h-168l-35 -110h-86z" />
    <glyph glyph-name="greater" unicode="&#x3e;" horiz-adv-x="398" 
d="M54 241l194 140l-194 138v141l310 -217v-126l-310 -217v141z" />
    <glyph glyph-name="less" unicode="&#x3c;" horiz-adv-x="398" 
d="M31 317v126l310 217v-141l-193 -139l193 -139v-141z" />
    <glyph glyph-name="greaterequal" unicode="&#x2265;" horiz-adv-x="420" 
d="M53 298l194 140l-194 137v142l311 -218v-125l-311 -217v141zM46 111h335v-104h-335v104z" />
    <glyph glyph-name="lessequal" unicode="&#x2264;" horiz-adv-x="402" 
d="M45 374v126l310 218v-142l-193 -139l193 -139v-141zM30 105h335v-105h-335v105z" />
    <glyph glyph-name="plusminus" unicode="&#xb1;" horiz-adv-x="483" 
d="M191 315h-126v96h126v129h102v-129h125v-96h-125v-130h-102v130zM65 99h353v-99h-353v99z" />
    <glyph glyph-name="approxequal" unicode="&#x2248;" horiz-adv-x="481" 
d="M283.5 422.5q-22.5 8.5 -55.5 25.5q-25 13 -41 19.5t-27 6.5q-12 0 -32 -13.5t-36 -35.5l-51 68q21 36 54 65t63 29q20 0 42.5 -8.5t57.5 -25.5q24 -12 39 -18t26 -6q13 0 31.5 13.5t36.5 33.5l57 -57q-19 -41 -53.5 -73t-67.5 -32q-21 0 -43.5 8.5zM283.5 207.5
q-22.5 8.5 -55.5 25.5q-25 13 -41 19.5t-27 6.5q-12 0 -32 -13.5t-36 -35.5l-51 68q21 36 54 65t63 29q20 0 42.5 -8.5t57.5 -25.5q19 -10 36.5 -17.5t28.5 -7.5q13 0 31.5 13.5t36.5 34.5l57 -58q-19 -40 -53.5 -72t-67.5 -32q-21 0 -43.5 8.5z" />
    <glyph glyph-name="asciitilde" unicode="~" horiz-adv-x="481" 
d="M282.5 341.5q-23.5 8.5 -54.5 24.5q-28 13 -42.5 19t-25.5 6q-13 0 -33 -13t-35 -35l-52 68q21 36 54.5 64.5t63.5 28.5q20 0 40.5 -7.5t59.5 -25.5q24 -12 39 -18t26 -6q13 0 31.5 13.5t36.5 33.5l57 -58q-19 -40 -53.5 -71.5t-67.5 -31.5q-21 0 -44.5 8.5z" />
    <glyph glyph-name="logicalnot" unicode="&#xac;" horiz-adv-x="499" 
d="M371 363h-325v109h405v-267h-80v158z" />
    <glyph glyph-name="emptyset" unicode="&#x2205;" horiz-adv-x="515" 
d="M435 544q37 -51 37 -123q0 -61 -27 -108t-76 -73.5t-111 -26.5q-70 0 -123 33l-50 -50l-53 53l49 49q-37 51 -37 123q0 60 27 107t76 73.5t111 26.5q68 0 122 -32l49 49l54 -53zM156 373l153 152q-23 12 -51 12q-48 0 -79 -32.5t-31 -83.5q0 -26 8 -48zM359 469
l-154 -153q26 -13 53 -13q47 0 78.5 33t31.5 85q0 27 -9 48z" />
    <glyph glyph-name="infinity" unicode="&#x221e;" horiz-adv-x="678" 
d="M62 184q-42 47 -42 124t41 124.5t118 47.5q50 0 89.5 -21t81.5 -70q39 45 74.5 64.5t80.5 19.5q73 -1 113 -45.5t40 -119.5q0 -76 -41.5 -120t-115.5 -44q-50 0 -85.5 21.5t-71.5 64.5q-39 -46 -75.5 -69.5t-86.5 -23.5q-78 0 -120 47zM282 306q-35 40 -58.5 53.5
t-46.5 13.5q-27 0 -44 -19t-17 -46q0 -28 18 -46.5t46 -18.5q47 0 102 63zM544.5 262q17.5 17 17.5 46q0 30 -17.5 46.5t-43.5 16.5q-18 0 -38 -12.5t-51 -47.5q32 -39 51 -52.5t38 -13.5q26 0 43.5 17z" />
    <glyph glyph-name="integral" unicode="&#x222b;" horiz-adv-x="341" 
d="M15 -186v122q25 -5 35 -5q39 0 39 45v677q0 57 11 92t45.5 55t101.5 20q41 0 77 -5v-120q-5 1 -15.5 2.5t-18.5 1.5q-39 0 -39 -45v-676q0 -58 -11 -93t-45.5 -55t-101.5 -20q-38 0 -78 4z" />
    <glyph glyph-name="product" unicode="&#x220f;" horiz-adv-x="611" 
d="M51 810h508v-1000h-158v871h-191v-871h-159v1000z" />
    <glyph glyph-name="summation" unicode="&#x2211;" horiz-adv-x="429" 
d="M153 329l-126 481h376v-122h-187l113 -356l-117 -401h193v-121h-378z" />
    <glyph glyph-name="radical" unicode="&#x221a;" horiz-adv-x="579" 
d="M149 475h-124v103h256l53 -358l71 590h162l-139 -810h-191z" />
    <glyph glyph-name="uni00B5" unicode="&#xb5;" horiz-adv-x="491" 
d="M41 578h163v-430q0 -22 7 -32.5t25 -10.5q20 0 47 19v454h163v-578h-163v46q-28 -32 -58 -42q-13 -5 -20 -5v-186h-163z" />
    <glyph glyph-name="partialdiff" unicode="&#x2202;" horiz-adv-x="527" 
d="M96.5 25.5q-59.5 38.5 -59.5 117.5v18l20 223q4 74 45 117.5t104 43.5q37 0 74 -14.5t61 -35.5q3 21 3 45q0 76 -46 117t-151 51l36 111q123 0 217 -64t94 -238q0 -15 -21 -279q-10 -114 -43.5 -168.5t-78 -68.5t-112.5 -14q-83 0 -142.5 38.5zM282.5 103.5
q17.5 12.5 20.5 50.5l28 274q-32 17 -58 17t-40.5 -16t-17.5 -44l-23 -235v-8q0 -23 13 -37t37 -14q23 0 40.5 12.5z" />
    <glyph glyph-name="percent" unicode="%" horiz-adv-x="1006" 
d="M89 402q-44 52 -44 163v36q0 112 42.5 161t146.5 49t147 -48.5t43 -159.5v-40q0 -110 -44 -161.5t-146 -51.5q-101 0 -145 52zM581 810h90l-248 -810h-91zM271 467q12 13 15 36.5t3 67.5v25q0 45 -3 66.5t-14.5 32.5t-37.5 11t-37.5 -11t-14.5 -32.5t-3 -65.5v-27
q0 -64 10 -90t45 -26q25 0 37 13zM625.5 51q-43.5 52 -43.5 163v36q0 112 42.5 161t145.5 49q104 0 147 -48.5t43 -159.5v-39q0 -110 -44 -162t-146 -52q-101 0 -144.5 52zM807 116q12 13 15 36.5t3 66.5v27q0 45 -3 66t-14.5 32t-37.5 11t-37.5 -11t-14.5 -32.5t-3 -65.5
v-27q0 -64 10 -90t45 -26q25 0 37 13z" />
    <glyph glyph-name="perthousand" unicode="&#x2030;" horiz-adv-x="1439" 
d="M89.5 402q-43.5 52 -43.5 163v36q0 112 42.5 161t145.5 49q104 0 147.5 -48.5t43.5 -159.5v-40q0 -110 -44.5 -161.5t-146.5 -51.5q-101 0 -144.5 52zM581 810h91l-249 -810h-90zM280 480.5q10 26.5 10 90.5v25q0 44 -3 66t-15 33t-38 11q-25 0 -37 -11t-15 -32.5
t-3 -65.5v-27q0 -64 10 -90t45 -26q36 0 46 26.5zM625.5 51q-43.5 52 -43.5 163v36q0 112 42.5 161t145.5 49q104 0 147.5 -48.5t43.5 -159.5v-39q0 -110 -44.5 -162t-146.5 -52q-101 0 -144.5 52zM1055 51q-44 52 -44 163v36q0 111 43 160.5t146 49.5q104 0 147 -48.5
t43 -159.5v-39q0 -110 -44 -162t-146 -52q-101 0 -145 52zM816 129.5q10 26.5 10 89.5v27q0 44 -3 65.5t-15 32.5t-38 11q-25 0 -37 -11t-15 -32.5t-3 -65.5v-27q0 -64 10 -90t45 -26q36 0 46 26.5zM1237 116q12 13 15 36t3 67v27q0 45 -3 66t-14.5 32t-37.5 11t-37.5 -11
t-14 -32t-2.5 -66v-27q0 -64 9.5 -90t44.5 -26q25 0 37 13z" />
    <glyph glyph-name="lozenge" unicode="&#x25ca;" horiz-adv-x="487" 
d="M35 290l175 288h59l183 -288l-182 -290h-58zM349 290l-109 177l-102 -177l104 -184z" />
    <glyph glyph-name="at" unicode="@" horiz-adv-x="950" 
d="M160.5 -21.5q-108.5 104.5 -108.5 293.5q0 34 5 79q14 138 76 241.5t166.5 160.5t243.5 57q125 0 210 -46.5t126.5 -129t41.5 -191.5q0 -30 -3 -60q-6 -69 -35 -133.5t-84.5 -107t-134.5 -42.5q-45 0 -81.5 18.5t-48.5 55.5q-14 -30 -43.5 -48.5t-66.5 -18.5
q-73 0 -115.5 55t-42.5 139q0 65 24 137.5t75.5 123.5t127.5 51q32 0 47 -20t27 -50l10 64h130l-43 -327q0 -5 -2 -20t-2 -28q0 -36 15 -41q4 -1 12 -1q26 0 52 25.5t44.5 69.5t22.5 97q3 30 3 59q0 129 -67.5 200.5t-210.5 71.5q-163 0 -251 -100t-105 -260q-5 -47 -5 -81
q0 -300 318 -300q38 0 96.5 9.5t101.5 23.5l18 -99q-133 -32 -232 -32q-203 0 -311.5 104.5zM503.5 224q16.5 6 22.5 20l31 236q-1 7 -11 10.5t-19 3.5q-38 0 -65 -27t-41 -68.5t-15 -85.5q0 -44 16.5 -71t50.5 -26q14 2 30.5 8z" />
    <glyph glyph-name="ampersand" unicode="&#x26;" horiz-adv-x="570" 
d="M92 40.5q-53 52.5 -53 141.5q0 72 29.5 129t85.5 116q-39 67 -60 118t-21 99q0 77 47 127.5t130 50.5q77 0 126 -48t49 -124q0 -46 -16 -84t-38.5 -66.5t-58.5 -66.5l-24 -26l95 -178q12 21 20 71.5t10 97.5h110q0 -83 -15.5 -142t-45.5 -116q10 -13 28.5 -22.5
t37.5 -10.5v-119q-4 -1 -11 -2t-17 -1q-35 0 -67.5 20.5t-56.5 50.5q-54 -68 -145 -68q-86 0 -139 52.5zM281.5 570.5q17.5 47.5 17.5 82.5q0 25 -13.5 39.5t-33.5 14.5q-21 0 -34 -17.5t-13 -45.5q0 -62 37 -151q22 30 39.5 77.5zM309 139l-99 183q-42 -68 -42 -133
q0 -41 18 -66.5t51 -25.5q43 0 72 42z" />
    <glyph glyph-name="paragraph" unicode="&#xb6;" horiz-adv-x="521" 
d="M188 490q-70 2 -111.5 44t-41.5 116q0 85 54 122.5t141 37.5h223v-906h-89v813h-81v-813h-95v586z" />
    <glyph glyph-name="section" unicode="&#xa7;" horiz-adv-x="473" 
d="M112.5 38.5q-45.5 44.5 -64.5 119.5l108 28q10 -30 31.5 -54.5t48.5 -24.5t42 13t15 36q0 26 -17.5 46t-61.5 47l-88 56q-37 22 -57.5 51t-20.5 69q0 45 25.5 78t61.5 44q-37 21 -64.5 58.5t-27.5 78.5q0 47 26 82t69.5 53.5t95.5 18.5q76 0 124.5 -45.5t66.5 -121.5
l-106 -26q-11 37 -28.5 59t-48.5 22q-26 0 -41 -11.5t-15 -34.5t15.5 -38.5t30.5 -25t19 -12.5l75 -46q92 -58 92 -138q0 -39 -20.5 -67t-58.5 -53q42 -35 62.5 -67.5t20.5 -74.5q0 -73 -50.5 -118.5t-138.5 -45.5q-75 0 -120.5 44.5zM285 382q11 11 11 26q0 10 -7.5 22.5
t-23.5 22.5l-49 29q-20 -5 -31.5 -18t-11.5 -29q0 -11 5 -20.5t15 -15.5l64 -38q17 10 28 21z" />
    <glyph glyph-name="copyright" unicode="&#xa9;" horiz-adv-x="884" 
d="M217.5 47.5q-89.5 60.5 -132 156t-42.5 203.5q0 107 42.5 202.5t132 155.5t224.5 60q134 0 223.5 -60t132 -155.5t42.5 -202.5q0 -108 -42 -204t-131.5 -156t-224.5 -60t-224.5 60.5zM639.5 80q79.5 53 118 139.5t38.5 186.5t-38.5 185.5t-118 138t-196.5 52.5
t-196.5 -52.5t-118 -138t-38.5 -185.5t38.5 -186.5t118 -139.5t196.5 -53t196.5 53zM282 173q-57 50 -57 139v195q0 89 57 138t159 49t157 -42.5t55 -125.5v-57h-170v58q0 32 -10.5 44.5t-30.5 12.5q-22 0 -32 -15t-10 -53v-215q0 -38 10.5 -52t31.5 -14t31 13t10 44v65h170
v-63q0 -84 -55.5 -127.5t-156.5 -43.5q-102 0 -159 50z" />
    <glyph glyph-name="registered" unicode="&#xae;" horiz-adv-x="890" 
d="M222.5 46.5q-89.5 60.5 -132 155.5t-42.5 202t42.5 202.5t132 155.5t223.5 60t223 -60t131.5 -155.5t42.5 -202.5t-42 -202.5t-131.5 -155.5t-223.5 -60t-223.5 60.5zM632 90.5q76 51.5 113 134.5t37 179t-37 179t-112.5 134t-187.5 51q-113 0 -189 -51t-112.5 -133.5
t-36.5 -179.5q0 -96 36.5 -179t113 -134.5t188.5 -51.5q111 0 187 51.5zM277 660h166q91 0 137 -31t46 -107q0 -49 -15.5 -78t-56.5 -48l88 -243h-138l-68 218h-28v-218h-131v507zM430 436q40 0 56.5 20t16.5 57q0 70 -62 70h-33v-147h22z" />
    <glyph glyph-name="trademark" unicode="&#x2122;" horiz-adv-x="869" 
d="M153 716h-95v94h295v-94h-91v-397h-109v397zM391 810h119l82 -300l84 300h119v-491h-93v279l-83 -279h-50l-86 281v-281h-92v491z" />
    <glyph glyph-name="degree" unicode="&#xb0;" horiz-adv-x="540" 
d="M164.5 449q-45.5 25 -70.5 70t-25 104q0 90 55 144t145 54q91 0 147 -54t56 -144t-55.5 -144.5t-147.5 -54.5q-59 0 -104.5 25zM342 543.5q26 30.5 26 79.5t-26 79t-73 30q-46 0 -72 -30t-26 -79t26 -79.5t72 -30.5q47 0 73 30.5z" />
    <glyph glyph-name="bar" unicode="|" horiz-adv-x="262" 
d="M65 810h133v-990h-134z" />
    </font>
</defs>
</svg>
