<?xml version="1.0" standalone="no"?>
<!DOCTYPE svg PUBLIC "-//W3C//DTD SVG 1.1//EN" "http://www.w3.org/Graphics/SVG/1.1/DTD/svg11.dtd" >
<svg xmlns="http://www.w3.org/2000/svg" xmlns:xlink="http://www.w3.org/1999/xlink" version="1.1">
<metadata>
Created by FontForge 20201107 at Wed Oct  5 17:17:46 2016
 By Jimmy Wärting
Copyright 2010 The Bangers Project Authors (contact@sansoxygen.com)
</metadata>
<defs>
<font id="Bangers-Regular" horiz-adv-x="493" >
  <font-face 
    font-family="Bangers"
    font-weight="400"
    font-stretch="normal"
    units-per-em="1000"
    panose-1="0 0 5 0 0 0 0 0 0 0"
    ascent="800"
    descent="-200"
    x-height="707"
    cap-height="725"
    bbox="-663 -356 1188 1401"
    underline-thickness="0"
    underline-position="0"
    unicode-range="U+000D-2265"
  />
<missing-glyph horiz-adv-x="193" 
 />
    <glyph glyph-name=".notdef" horiz-adv-x="193" 
 />
    <glyph glyph-name="NULL" horiz-adv-x="0" 
 />
    <glyph glyph-name="NULL" horiz-adv-x="0" 
 />
    <glyph glyph-name="nonmarkingreturn" unicode="&#xd;" horiz-adv-x="195" 
 />
    <glyph glyph-name="space" unicode=" " horiz-adv-x="195" 
 />
    <glyph glyph-name="A" unicode="A" horiz-adv-x="433" 
d="M313 11l-54 -9q4 33 8 65q3 28 5.5 56t4.5 48h-87l-40 -144q-22 -3 -52 -6.5t-56 -6.5q-32 -4 -63 -8q40 133 79 262q16 54 33.5 113t35 117.5t33.5 112.5t28 99q68 5 138.5 12t137.5 19q-3 -32 -6.5 -79.5t-6.5 -103.5t-6 -117t-6 -120q-5 -138 -11 -293q-30 -5 -60 -8
q-25 -4 -55 -9zM214 271q4 0 14.5 0.5t22 1t21.5 1t14 1.5q0 6 1.5 20.5t3 33t3.5 40.5t4 43q4 51 10 110l6 87l-15 -1l-23 -86z" />
    <glyph glyph-name="Aacute" unicode="&#xc1;" horiz-adv-x="433" 
d="M313 11l-54 -9q4 33 8 65q3 28 5.5 56t4.5 48h-87l-40 -144q-22 -3 -52 -6.5t-56 -6.5q-32 -4 -63 -8q40 133 79 262q16 54 33.5 113t35 117.5t33.5 112.5t28 99q68 5 138.5 12t137.5 19q-3 -32 -6.5 -79.5t-6.5 -103.5t-6 -117t-6 -120q-5 -138 -11 -293q-30 -5 -60 -8
q-25 -4 -55 -9zM214 271q4 0 14.5 0.5t22 1t21.5 1t14 1.5q0 6 1.5 20.5t3 33t3.5 40.5t4 43q4 51 10 110l6 87l-15 -1l-23 -86zM331 796.5q-68 -24.5 -127 -46.5q-1 11 -1 20v18q0 16 0.5 32.5t0.5 34.5q68 69 128 123t112 111q5 -67 5.5 -125t8.5 -119q-59 -24 -127 -48.5
z" />
    <glyph glyph-name="Abreve" unicode="&#x102;" horiz-adv-x="433" 
d="M313 11l-54 -9q4 33 8 65q3 28 5.5 56t4.5 48h-87l-40 -144q-22 -3 -52 -6.5t-56 -6.5q-32 -4 -63 -8q40 133 79 262q16 54 33.5 113t35 117.5t33.5 112.5t28 99q68 5 138.5 12t137.5 19q-3 -32 -6.5 -79.5t-6.5 -103.5t-6 -117t-6 -120q-5 -138 -11 -293q-30 -5 -60 -8
q-25 -4 -55 -9zM214 271q4 0 14.5 0.5t22 1t21.5 1t14 1.5q0 6 1.5 20.5t3 33t3.5 40.5t4 43q4 51 10 110l6 87l-15 -1l-23 -86zM431 863q-29 -47 -61.5 -70t-74.5 -23q-55 0 -90.5 56t-31.5 120q10 9 22 20q11 9 22.5 19.5t24.5 20.5q-2 -49 10.5 -78.5t50.5 -29.5
q32 0 48.5 14.5t29.5 38.5t33 65q13 -11 23 -19.5t18 -16.5l16 -16q-11 -54 -40 -101z" />
    <glyph glyph-name="uni1EAE" unicode="&#x1eae;" horiz-adv-x="433" 
d="M313 11l-54 -9q4 33 8 65q3 28 5.5 56t4.5 48h-87l-40 -144q-22 -3 -52 -6.5t-56 -6.5q-32 -4 -63 -8q40 133 79 262q16 54 33.5 113t35 117.5t33.5 112.5t28 99q68 5 138.5 12t137.5 19q-3 -32 -6.5 -79.5t-6.5 -103.5t-6 -117t-6 -120q-5 -138 -11 -293q-30 -5 -60 -8
q-25 -4 -55 -9zM214 271q4 0 14.5 0.5t22 1t21.5 1t14 1.5q0 6 1.5 20.5t3 33t3.5 40.5t4 43q4 51 10 110l6 87l-15 -1l-23 -86zM431 863q-29 -47 -61.5 -70t-74.5 -23q-55 0 -90.5 56t-31.5 120q10 9 22 20q11 9 22.5 19.5t24.5 20.5q-2 -49 10.5 -78.5t50.5 -29.5
q32 0 48.5 14.5t29.5 38.5t33 65q13 -11 23 -19.5t18 -16.5l16 -16q-11 -54 -40 -101zM387 1084.5q-68 -24.5 -127 -46.5q-1 11 -1 20v18q0 16 0.5 32.5t0.5 34.5q68 69 128 123t112 111q5 -67 5.5 -125t8.5 -119q-59 -24 -127 -48.5z" />
    <glyph glyph-name="uni1EB6" unicode="&#x1eb6;" horiz-adv-x="433" 
d="M313 11l-54 -9q4 33 8 65q3 28 5.5 56t4.5 48h-87l-40 -144q-22 -3 -52 -6.5t-56 -6.5q-32 -4 -63 -8q40 133 79 262q16 54 33.5 113t35 117.5t33.5 112.5t28 99q68 5 138.5 12t137.5 19q-3 -32 -6.5 -79.5t-6.5 -103.5t-6 -117t-6 -120q-5 -138 -11 -293q-30 -5 -60 -8
q-25 -4 -55 -9zM214 271q4 0 14.5 0.5t22 1t21.5 1t14 1.5q0 6 1.5 20.5t3 33t3.5 40.5t4 43q4 51 10 110l6 87l-15 -1l-23 -86zM302.5 -145.5q-6.5 -16.5 -20.5 -30t-34 -21.5t-45 -8q-40 0 -60 26t-20 60q0 16 5.5 32t16.5 28.5t28 20.5t40 8q49 0 72.5 -25t23.5 -57
q0 -17 -6.5 -33.5zM471 862q-29 -47 -61.5 -70t-74.5 -23q-55 0 -90.5 56t-31.5 120q10 9 22 20q11 9 22.5 19.5t24.5 20.5q-2 -49 10.5 -78.5t50.5 -29.5q32 0 48.5 14.5t29.5 38.5t33 65q13 -11 23 -19.5t18 -16.5l16 -16q-11 -54 -40 -101z" />
    <glyph glyph-name="uni1EB0" unicode="&#x1eb0;" horiz-adv-x="433" 
d="M313 11l-54 -9q4 33 8 65q3 28 5.5 56t4.5 48h-87l-40 -144q-22 -3 -52 -6.5t-56 -6.5q-32 -4 -63 -8q40 133 79 262q16 54 33.5 113t35 117.5t33.5 112.5t28 99q68 5 138.5 12t137.5 19q-3 -32 -6.5 -79.5t-6.5 -103.5t-6 -117t-6 -120q-5 -138 -11 -293q-30 -5 -60 -8
q-25 -4 -55 -9zM214 271q4 0 14.5 0.5t22 1t21.5 1t14 1.5q0 6 1.5 20.5t3 33t3.5 40.5t4 43q4 51 10 110l6 87l-15 -1l-23 -86zM431 863q-29 -47 -61.5 -70t-74.5 -23q-55 0 -90.5 56t-31.5 120q10 9 22 20q11 9 22.5 19.5t24.5 20.5q-2 -49 10.5 -78.5t50.5 -29.5
q32 0 48.5 14.5t29.5 38.5t33 65q13 -11 23 -19.5t18 -16.5l16 -16q-11 -54 -40 -101zM377 1040q-51 12 -98 24q-41 9 -84 20.5t-72 20.5q6 29 14 70.5t15 80.5q9 46 18 94q39 -42 78 -82q33 -35 70.5 -75t65.5 -72z" />
    <glyph glyph-name="uni1EB2" unicode="&#x1eb2;" horiz-adv-x="433" 
d="M313 11l-54 -9q4 33 8 65q3 28 5.5 56t4.5 48h-87l-40 -144q-22 -3 -52 -6.5t-56 -6.5q-32 -4 -63 -8q40 133 79 262q16 54 33.5 113t35 117.5t33.5 112.5t28 99q68 5 138.5 12t137.5 19q-3 -32 -6.5 -79.5t-6.5 -103.5t-6 -117t-6 -120q-5 -138 -11 -293q-30 -5 -60 -8
q-25 -4 -55 -9zM214 271q4 0 14.5 0.5t22 1t21.5 1t14 1.5q0 6 1.5 20.5t3 33t3.5 40.5t4 43q4 51 10 110l6 87l-15 -1l-23 -86zM431 863q-29 -47 -61.5 -70t-74.5 -23q-55 0 -90.5 56t-31.5 120q10 9 22 20q11 9 22.5 19.5t24.5 20.5q-2 -49 10.5 -78.5t50.5 -29.5
q32 0 48.5 14.5t29.5 38.5t33 65q13 -11 23 -19.5t18 -16.5l16 -16q-11 -54 -40 -101zM321 1033q0 17 4.5 31t12.5 24.5t16.5 19t16 15t12.5 12t5 10.5q0 2 -3 5.5t-8 3.5q-7 0 -15.5 -5t-18 -12t-19.5 -15l-16 59q24 19 45.5 27.5t43.5 8.5q10 0 23 -2.5t20 -7t16 -15
t12 -39.5q0 -17 -5 -28t-12.5 -19.5t-17.5 -15.5t-19 -14.5t-15.5 -17t-10.5 -21.5l-19 -2z" />
    <glyph glyph-name="uni1EB4" unicode="&#x1eb4;" horiz-adv-x="433" 
d="M313 11l-54 -9q4 33 8 65q3 28 5.5 56t4.5 48h-87l-40 -144q-22 -3 -52 -6.5t-56 -6.5q-32 -4 -63 -8q40 133 79 262q16 54 33.5 113t35 117.5t33.5 112.5t28 99q68 5 138.5 12t137.5 19q-3 -32 -6.5 -79.5t-6.5 -103.5t-6 -117t-6 -120q-5 -138 -11 -293q-30 -5 -60 -8
q-25 -4 -55 -9zM214 271q4 0 14.5 0.5t22 1t21.5 1t14 1.5q0 6 1.5 20.5t3 33t3.5 40.5t4 43q4 51 10 110l6 87l-15 -1l-23 -86zM431 863q-29 -47 -61.5 -70t-74.5 -23q-55 0 -90.5 56t-31.5 120q10 9 22 20q11 9 22.5 19.5t24.5 20.5q-2 -49 10.5 -78.5t50.5 -29.5
q32 0 48.5 14.5t29.5 38.5t33 65q13 -11 23 -19.5t18 -16.5l16 -16q-11 -54 -40 -101zM292 1122.5q-14 -8.5 -26.5 -20.5t-24.5 -25t-22 -22q-13 9 -22.5 17t-17.5 14t-14 13l6 13t17 32.5t26.5 42.5t34.5 42.5t41 33t48 13.5q24 0 42.5 -14t32.5 -30t22.5 -29t13.5 -13
q15 0 29 10.5t27 25.5t25 30t22 24q12 -9 22 -17t18 -14t14 -13q-21 -49 -48 -87q-11 -17 -25 -32t-30 -27t-33.5 -19.5t-37.5 -7.5q-24 0 -36.5 10.5t-22.5 23.5t-20.5 23.5t-31.5 10.5q-15 0 -29 -8.5z" />
    <glyph glyph-name="Acircumflex" unicode="&#xc2;" horiz-adv-x="433" 
d="M313 11l-54 -9q4 33 8 65q3 28 5.5 56t4.5 48h-87l-40 -144q-22 -3 -52 -6.5t-56 -6.5q-32 -4 -63 -8q40 133 79 262q16 54 33.5 113t35 117.5t33.5 112.5t28 99q68 5 138.5 12t137.5 19q-3 -32 -6.5 -79.5t-6.5 -103.5t-6 -117t-6 -120q-5 -138 -11 -293q-30 -5 -60 -8
q-25 -4 -55 -9zM214 271q4 0 14.5 0.5t22 1t21.5 1t14 1.5q0 6 1.5 20.5t3 33t3.5 40.5t4 43q4 51 10 110l6 87l-15 -1l-23 -86zM298 843q-15 -16 -30 -33t-30 -33t-25 -27q-13 11 -23 20.5t-16 17.5q-9 9 -15 17q28 41 58 80q25 33 54.5 69t55.5 62q39 -6 54.5 -5t17.5 -1
q8 -27 17.5 -62t18.5 -66l22 -74l-24 -20q-10 -9 -23 -18.5t-25 -18.5l-61 118q-11 -10 -26 -26z" />
    <glyph glyph-name="uni1EA4" unicode="&#x1ea4;" horiz-adv-x="433" 
d="M313 11l-54 -9q4 33 8 65q3 28 5.5 56t4.5 48h-87l-40 -144q-22 -3 -52 -6.5t-56 -6.5q-32 -4 -63 -8q40 133 79 262q16 54 33.5 113t35 117.5t33.5 112.5t28 99q68 5 138.5 12t137.5 19q-3 -32 -6.5 -79.5t-6.5 -103.5t-6 -117t-6 -120q-5 -138 -11 -293q-30 -5 -60 -8
q-25 -4 -55 -9zM214 271q4 0 14.5 0.5t22 1t21.5 1t14 1.5q0 6 1.5 20.5t3 33t3.5 40.5t4 43q4 51 10 110l6 87l-15 -1l-23 -86zM298 843q-15 -16 -30 -33t-30 -33t-25 -27q-13 11 -23 20.5t-16 17.5q-9 9 -15 17q28 41 58 80q25 33 54.5 69t55.5 62q39 -6 54.5 -5t17.5 -1
q8 -27 17.5 -62t18.5 -66l22 -74l-24 -20q-10 -9 -23 -18.5t-25 -18.5l-61 118q-11 -10 -26 -26zM376 1091.5q-68 -24.5 -127 -46.5q-1 11 -1 20v18q0 16 0.5 32.5t0.5 34.5q68 69 128 123t112 111q5 -67 5.5 -125t8.5 -119q-59 -24 -127 -48.5z" />
    <glyph glyph-name="uni1EAC" unicode="&#x1eac;" horiz-adv-x="433" 
d="M313 11l-54 -9q4 33 8 65q3 28 5.5 56t4.5 48h-87l-40 -144q-22 -3 -52 -6.5t-56 -6.5q-32 -4 -63 -8q40 133 79 262q16 54 33.5 113t35 117.5t33.5 112.5t28 99q68 5 138.5 12t137.5 19q-3 -32 -6.5 -79.5t-6.5 -103.5t-6 -117t-6 -120q-5 -138 -11 -293q-30 -5 -60 -8
q-25 -4 -55 -9zM214 271q4 0 14.5 0.5t22 1t21.5 1t14 1.5q0 6 1.5 20.5t3 33t3.5 40.5t4 43q4 51 10 110l6 87l-15 -1l-23 -86zM298 843q-15 -16 -30 -33t-30 -33t-25 -27q-13 11 -23 20.5t-16 17.5q-9 9 -15 17q28 41 58 80q25 33 54.5 69t55.5 62q39 -6 54.5 -5t17.5 -1
q8 -27 17.5 -62t18.5 -66l22 -74l-24 -20q-10 -9 -23 -18.5t-25 -18.5l-61 118q-11 -10 -26 -26zM302.5 -145.5q-6.5 -16.5 -20.5 -30t-34 -21.5t-45 -8q-40 0 -60 26t-20 60q0 16 5.5 32t16.5 28.5t28 20.5t40 8q49 0 72.5 -25t23.5 -57q0 -17 -6.5 -33.5z" />
    <glyph glyph-name="uni1EA6" unicode="&#x1ea6;" horiz-adv-x="433" 
d="M313 11l-54 -9q4 33 8 65q3 28 5.5 56t4.5 48h-87l-40 -144q-22 -3 -52 -6.5t-56 -6.5q-32 -4 -63 -8q40 133 79 262q16 54 33.5 113t35 117.5t33.5 112.5t28 99q68 5 138.5 12t137.5 19q-3 -32 -6.5 -79.5t-6.5 -103.5t-6 -117t-6 -120q-5 -138 -11 -293q-30 -5 -60 -8
q-25 -4 -55 -9zM214 271q4 0 14.5 0.5t22 1t21.5 1t14 1.5q0 6 1.5 20.5t3 33t3.5 40.5t4 43q4 51 10 110l6 87l-15 -1l-23 -86zM298 843q-15 -16 -30 -33t-30 -33t-25 -27q-13 11 -23 20.5t-16 17.5q-9 9 -15 17q28 41 58 80q25 33 54.5 69t55.5 62q39 -6 54.5 -5t17.5 -1
q8 -27 17.5 -62t18.5 -66l22 -74l-24 -20q-10 -9 -23 -18.5t-25 -18.5l-61 118q-11 -10 -26 -26zM366 1047q-51 12 -98 24q-41 9 -84 20.5t-72 20.5q6 29 14 70.5t15 80.5q9 46 18 94q39 -42 78 -82q33 -35 70.5 -75t65.5 -72z" />
    <glyph glyph-name="uni1EA8" unicode="&#x1ea8;" horiz-adv-x="433" 
d="M313 11l-54 -9q4 33 8 65q3 28 5.5 56t4.5 48h-87l-40 -144q-22 -3 -52 -6.5t-56 -6.5q-32 -4 -63 -8q40 133 79 262q16 54 33.5 113t35 117.5t33.5 112.5t28 99q68 5 138.5 12t137.5 19q-3 -32 -6.5 -79.5t-6.5 -103.5t-6 -117t-6 -120q-5 -138 -11 -293q-30 -5 -60 -8
q-25 -4 -55 -9zM214 271q4 0 14.5 0.5t22 1t21.5 1t14 1.5q0 6 1.5 20.5t3 33t3.5 40.5t4 43q4 51 10 110l6 87l-15 -1l-23 -86zM298 843q-15 -16 -30 -33t-30 -33t-25 -27q-13 11 -23 20.5t-16 17.5q-9 9 -15 17q28 41 58 80q25 33 54.5 69t55.5 62q39 -6 54.5 -5t17.5 -1
q8 -27 17.5 -62t18.5 -66l22 -74l-24 -20q-10 -9 -23 -18.5t-25 -18.5l-61 118q-11 -10 -26 -26zM310 1040q0 17 4.5 31t12.5 24.5t16.5 19t16 15t12.5 12t5 10.5q0 2 -3 5.5t-8 3.5q-7 0 -15.5 -5t-18 -12t-19.5 -15l-16 59q24 19 45.5 27.5t43.5 8.5q10 0 23 -2.5t20 -7
t16 -15t12 -39.5q0 -17 -5 -28t-12.5 -19.5t-17.5 -15.5t-19 -14.5t-15.5 -17t-10.5 -21.5l-19 -2z" />
    <glyph glyph-name="uni1EAA" unicode="&#x1eaa;" horiz-adv-x="433" 
d="M313 11l-54 -9q4 33 8 65q3 28 5.5 56t4.5 48h-87l-40 -144q-22 -3 -52 -6.5t-56 -6.5q-32 -4 -63 -8q40 133 79 262q16 54 33.5 113t35 117.5t33.5 112.5t28 99q68 5 138.5 12t137.5 19q-3 -32 -6.5 -79.5t-6.5 -103.5t-6 -117t-6 -120q-5 -138 -11 -293q-30 -5 -60 -8
q-25 -4 -55 -9zM214 271q4 0 14.5 0.5t22 1t21.5 1t14 1.5q0 6 1.5 20.5t3 33t3.5 40.5t4 43q4 51 10 110l6 87l-15 -1l-23 -86zM298 843q-15 -16 -30 -33t-30 -33t-25 -27q-13 11 -23 20.5t-16 17.5q-9 9 -15 17q28 41 58 80q25 33 54.5 69t55.5 62q39 -6 54.5 -5t17.5 -1
q8 -27 17.5 -62t18.5 -66l22 -74l-24 -20q-10 -9 -23 -18.5t-25 -18.5l-61 118q-11 -10 -26 -26zM281 1129.5q-14 -8.5 -26.5 -20.5t-24.5 -25t-22 -22q-13 9 -22.5 17t-17.5 14t-14 13l6 13t17 32.5t26.5 42.5t34.5 42.5t41 33t48 13.5q24 0 42.5 -14t32.5 -30t22.5 -29
t13.5 -13q15 0 29 10.5t27 25.5t25 30t22 24q12 -9 22 -17t18 -14t14 -13q-21 -49 -48 -87q-11 -17 -25 -32t-30 -27t-33.5 -19.5t-37.5 -7.5q-24 0 -36.5 10.5t-22.5 23.5t-20.5 23.5t-31.5 10.5q-15 0 -29 -8.5z" />
    <glyph glyph-name="uni0200" unicode="&#x200;" horiz-adv-x="433" 
d="M313 11l-54 -9q4 33 8 65q3 28 5.5 56t4.5 48h-87l-40 -144q-22 -3 -52 -6.5t-56 -6.5q-32 -4 -63 -8q40 133 79 262q16 54 33.5 113t35 117.5t33.5 112.5t28 99q68 5 138.5 12t137.5 19q-3 -32 -6.5 -79.5t-6.5 -103.5t-6 -117t-6 -120q-5 -138 -11 -293q-30 -5 -60 -8
q-25 -4 -55 -9zM214 271q4 0 14.5 0.5t22 1t21.5 1t14 1.5q0 6 1.5 20.5t3 33t3.5 40.5t4 43q4 51 10 110l6 87l-15 -1l-23 -86zM247 732q-51 12 -98 24q-41 9 -84 20.5t-72 20.5q6 29 14 70.5t15 80.5q9 46 18 94q39 -42 78 -82q33 -35 70.5 -75t65.5 -72zM536 707
q-51 12 -98 24q-41 9 -84 20.5t-72 20.5q6 29 14 70.5t15 80.5q9 46 18 94q39 -42 78 -82q33 -35 70.5 -75t65.5 -72z" />
    <glyph glyph-name="Adieresis" unicode="&#xc4;" horiz-adv-x="433" 
d="M313 11l-54 -9q4 33 8 65q3 28 5.5 56t4.5 48h-87l-40 -144q-22 -3 -52 -6.5t-56 -6.5q-32 -4 -63 -8q40 133 79 262q16 54 33.5 113t35 117.5t33.5 112.5t28 99q68 5 138.5 12t137.5 19q-3 -32 -6.5 -79.5t-6.5 -103.5t-6 -117t-6 -120q-5 -138 -11 -293q-30 -5 -60 -8
q-25 -4 -55 -9zM214 271q4 0 14.5 0.5t22 1t21.5 1t14 1.5q0 6 1.5 20.5t3 33t3.5 40.5t4 43q4 51 10 110l6 87l-15 -1l-23 -86zM484 873.5q-7 -16.5 -20.5 -29.5t-33 -21.5t-46.5 -8.5q-40 0 -60 26.5t-20 59.5q0 17 5.5 33t16.5 28t28.5 20t40.5 8q48 0 72 -25t24 -56
q0 -18 -7 -34.5zM251.5 873.5q-6.5 -16.5 -20.5 -29.5t-34 -21.5t-45 -8.5q-40 0 -60 26.5t-20 59.5q0 17 5.5 33t16.5 28t28 20t40 8q49 0 72.5 -25t23.5 -56q0 -18 -6.5 -34.5z" />
    <glyph glyph-name="uni1EA0" unicode="&#x1ea0;" horiz-adv-x="433" 
d="M313 11l-54 -9q4 33 8 65q3 28 5.5 56t4.5 48h-87l-40 -144q-22 -3 -52 -6.5t-56 -6.5q-32 -4 -63 -8q40 133 79 262q16 54 33.5 113t35 117.5t33.5 112.5t28 99q68 5 138.5 12t137.5 19q-3 -32 -6.5 -79.5t-6.5 -103.5t-6 -117t-6 -120q-5 -138 -11 -293q-30 -5 -60 -8
q-25 -4 -55 -9zM214 271q4 0 14.5 0.5t22 1t21.5 1t14 1.5q0 6 1.5 20.5t3 33t3.5 40.5t4 43q4 51 10 110l6 87l-15 -1l-23 -86zM302.5 -145.5q-6.5 -16.5 -20.5 -30t-34 -21.5t-45 -8q-40 0 -60 26t-20 60q0 16 5.5 32t16.5 28.5t28 20.5t40 8q49 0 72.5 -25t23.5 -57
q0 -17 -6.5 -33.5z" />
    <glyph glyph-name="Agrave" unicode="&#xc0;" horiz-adv-x="433" 
d="M313 11l-54 -9q4 33 8 65q3 28 5.5 56t4.5 48h-87l-40 -144q-22 -3 -52 -6.5t-56 -6.5q-32 -4 -63 -8q40 133 79 262q16 54 33.5 113t35 117.5t33.5 112.5t28 99q68 5 138.5 12t137.5 19q-3 -32 -6.5 -79.5t-6.5 -103.5t-6 -117t-6 -120q-5 -138 -11 -293q-30 -5 -60 -8
q-25 -4 -55 -9zM214 271q4 0 14.5 0.5t22 1t21.5 1t14 1.5q0 6 1.5 20.5t3 33t3.5 40.5t4 43q4 51 10 110l6 87l-15 -1l-23 -86zM321 752q-51 12 -98 24q-41 9 -84 20.5t-72 20.5q6 29 14 70.5t15 80.5q9 46 18 94q39 -42 78 -82q33 -35 70.5 -75t65.5 -72z" />
    <glyph glyph-name="uni1EA2" unicode="&#x1ea2;" horiz-adv-x="433" 
d="M313 11l-54 -9q4 33 8 65q3 28 5.5 56t4.5 48h-87l-40 -144q-22 -3 -52 -6.5t-56 -6.5q-32 -4 -63 -8q40 133 79 262q16 54 33.5 113t35 117.5t33.5 112.5t28 99q68 5 138.5 12t137.5 19q-3 -32 -6.5 -79.5t-6.5 -103.5t-6 -117t-6 -120q-5 -138 -11 -293q-30 -5 -60 -8
q-25 -4 -55 -9zM214 271q4 0 14.5 0.5t22 1t21.5 1t14 1.5q0 6 1.5 20.5t3 33t3.5 40.5t4 43q4 51 10 110l6 87l-15 -1l-23 -86zM265 745q0 17 4.5 31t12.5 24.5t16.5 19t16 15t12.5 12t5 10.5q0 2 -3 5.5t-8 3.5q-7 0 -15.5 -5t-18 -12t-19.5 -15l-16 59q24 19 45.5 27.5
t43.5 8.5q10 0 23 -2.5t20 -7t16 -15t12 -39.5q0 -17 -5 -28t-12.5 -19.5t-17.5 -15.5t-19 -14.5t-15.5 -17t-10.5 -21.5l-19 -2z" />
    <glyph glyph-name="uni0202" unicode="&#x202;" horiz-adv-x="433" 
d="M313 11l-54 -9q4 33 8 65q3 28 5.5 56t4.5 48h-87l-40 -144q-22 -3 -52 -6.5t-56 -6.5q-32 -4 -63 -8q40 133 79 262q16 54 33.5 113t35 117.5t33.5 112.5t28 99q68 5 138.5 12t137.5 19q-3 -32 -6.5 -79.5t-6.5 -103.5t-6 -117t-6 -120q-5 -138 -11 -293q-30 -5 -60 -8
q-25 -4 -55 -9zM214 271q4 0 14.5 0.5t22 1t21.5 1t14 1.5q0 6 1.5 20.5t3 33t3.5 40.5t4 43q4 51 10 110l6 87l-15 -1l-23 -86zM171 884q29 47 61.5 70t74.5 23q55 0 90.5 -56t31.5 -120q-10 -9 -22 -20q-11 -9 -22.5 -19.5t-24.5 -20.5q2 49 -10.5 78.5t-50.5 29.5
q-32 0 -48.5 -14.5t-29.5 -38.5t-33 -65q-13 11 -23 19.5t-18 16.5l-16 16q11 54 40 101z" />
    <glyph glyph-name="Amacron" unicode="&#x100;" horiz-adv-x="433" 
d="M313 11l-54 -9q4 33 8 65q3 28 5.5 56t4.5 48h-87l-40 -144q-22 -3 -52 -6.5t-56 -6.5q-32 -4 -63 -8q40 133 79 262q16 54 33.5 113t35 117.5t33.5 112.5t28 99q68 5 138.5 12t137.5 19q-3 -32 -6.5 -79.5t-6.5 -103.5t-6 -117t-6 -120q-5 -138 -11 -293q-30 -5 -60 -8
q-25 -4 -55 -9zM214 271q4 0 14.5 0.5t22 1t21.5 1t14 1.5q0 6 1.5 20.5t3 33t3.5 40.5t4 43q4 51 10 110l6 87l-15 -1l-23 -86zM262.5 779q-32.5 -2 -63.5 -4.5t-58.5 -5t-47.5 -4.5q-5 17 -6 45t-1 54v40q0 10 1 18l374 32l16 -162q-79 -5 -151 -9q-31 -2 -63.5 -4z" />
    <glyph glyph-name="Aogonek" unicode="&#x104;" horiz-adv-x="433" 
d="M313 11l-54 -9q4 33 8 65q3 28 5.5 56t4.5 48h-87l-40 -144q-22 -3 -52 -6.5t-56 -6.5q-32 -4 -63 -8q40 133 79 262q16 54 33.5 113t35 117.5t33.5 112.5t28 99q68 5 138.5 12t137.5 19q-3 -32 -6.5 -79.5t-6.5 -103.5t-6 -117t-6 -120q-5 -138 -11 -293q-30 -5 -60 -8
q-25 -4 -55 -9zM214 271q4 0 14.5 0.5t22 1t21.5 1t14 1.5q0 6 1.5 20.5t3 33t3.5 40.5t4 43q4 51 10 110l6 87l-15 -1l-23 -86zM427.5 -125q-22.5 -9 -45.5 -9q-30 0 -54.5 7.5t-42.5 20.5t-28 30.5t-10 38.5q0 39 40 78q1 0 10 1.5l21 3.5t29 4q-4 -18 -4 -30
q0 -25 14.5 -41t35.5 -16q28 0 53 28l20 -88q-16 -19 -38.5 -28z" />
    <glyph glyph-name="Aring" unicode="&#xc5;" horiz-adv-x="433" 
d="M313 11l-54 -9q4 33 8 65q3 28 5.5 56t4.5 48h-87l-40 -144q-22 -3 -52 -6.5t-56 -6.5q-32 -4 -63 -8q40 133 79 262q16 54 33.5 113t35 117.5t33.5 112.5t28 99q68 5 138.5 12t137.5 19q-3 -32 -6.5 -79.5t-6.5 -103.5t-6 -117t-6 -120q-5 -138 -11 -293q-30 -5 -60 -8
q-25 -4 -55 -9zM214 271q4 0 14.5 0.5t22 1t21.5 1t14 1.5q0 6 1.5 20.5t3 33t3.5 40.5t4 43q4 51 10 110l6 87l-15 -1l-23 -86zM388 835.5q-8 -21.5 -24.5 -38.5t-40 -28t-53.5 -11q-25 0 -44 9.5t-32.5 25t-19.5 35.5t-6 41t6.5 42t21.5 37t37 26t51 10q28 0 49 -9t35 -23
t21 -33t7 -40q0 -22 -8 -43.5zM242 828.5q14 -17.5 39 -17.5q31 0 47.5 19.5t16.5 41.5q0 21 -14.5 37t-43.5 16q-30 0 -44.5 -18t-14.5 -40q0 -21 14 -38.5z" />
    <glyph glyph-name="Aringacute" unicode="&#x1fa;" horiz-adv-x="433" 
d="M313 11l-54 -9q4 33 8 65q3 28 5.5 56t4.5 48h-87l-40 -144q-22 -3 -52 -6.5t-56 -6.5q-32 -4 -63 -8q40 133 79 262q16 54 33.5 113t35 117.5t33.5 112.5t28 99q68 5 138.5 12t137.5 19q-3 -32 -6.5 -79.5t-6.5 -103.5t-6 -117t-6 -120q-5 -138 -11 -293q-30 -5 -60 -8
q-25 -4 -55 -9zM214 271q4 0 14.5 0.5t22 1t21.5 1t14 1.5q0 6 1.5 20.5t3 33t3.5 40.5t4 43q4 51 10 110l6 87l-15 -1l-23 -86zM388 835.5q-8 -21.5 -24.5 -38.5t-40 -28t-53.5 -11q-25 0 -44 9.5t-32.5 25t-19.5 35.5t-6 41t6.5 42t21.5 37t37 26t51 10q28 0 49 -9t35 -23
t21 -33t7 -40q0 -22 -8 -43.5zM242 828.5q14 -17.5 39 -17.5q31 0 47.5 19.5t16.5 41.5q0 21 -14.5 37t-43.5 16q-30 0 -44.5 -18t-14.5 -40q0 -21 14 -38.5zM331 1059.5q-68 -24.5 -127 -46.5q-1 11 -1 20v18q0 16 0.5 32.5t0.5 34.5q68 69 128 123t112 111q5 -67 5.5 -125
t8.5 -119q-59 -24 -127 -48.5z" />
    <glyph glyph-name="Atilde" unicode="&#xc3;" horiz-adv-x="433" 
d="M313 11l-54 -9q4 33 8 65q3 28 5.5 56t4.5 48h-87l-40 -144q-22 -3 -52 -6.5t-56 -6.5q-32 -4 -63 -8q40 133 79 262q16 54 33.5 113t35 117.5t33.5 112.5t28 99q68 5 138.5 12t137.5 19q-3 -32 -6.5 -79.5t-6.5 -103.5t-6 -117t-6 -120q-5 -138 -11 -293q-30 -5 -60 -8
q-25 -4 -55 -9zM214 271q4 0 14.5 0.5t22 1t21.5 1t14 1.5q0 6 1.5 20.5t3 33t3.5 40.5t4 43q4 51 10 110l6 87l-15 -1l-23 -86zM236 834.5q-14 -8.5 -26.5 -20.5t-24.5 -25t-22 -22q-13 9 -22.5 17t-17.5 14t-14 13l6 13t17 32.5t26.5 42.5t34.5 42.5t41 33t48 13.5
q24 0 42.5 -14t32.5 -30t22.5 -29t13.5 -13q15 0 29 10.5t27 25.5t25 30t22 24q12 -9 22 -17t18 -14t14 -13q-21 -49 -48 -87q-11 -17 -25 -32t-30 -27t-33.5 -19.5t-37.5 -7.5q-24 0 -36.5 10.5t-22.5 23.5t-20.5 23.5t-31.5 10.5q-15 0 -29 -8.5z" />
    <glyph glyph-name="AE" unicode="&#xc6;" horiz-adv-x="516" 
d="M246 -1v3h-2q7 33 13 63t11.5 58t8.5 48h-73l-52 -144q-22 -3 -53.5 -6.5t-59.5 -6.5q-33 -4 -68 -8q52 133 102 262q22 54 44.5 113t44.5 117.5t42 112.5t36 99q34 3 63.5 4t59.5 1.5t63 1.5t75 5l104 8l-39 -121q-6 1 -16 2t-22 1.5t-28 0.5l-25 -179q13 2 26 3
q11 1 24 1t24 1q-4 -28 -7.5 -55t-8.5 -55q-11 -1 -23.5 -1.5t-23.5 -1.5q-12 -1 -25 -2l-26 -183l84 6l-10 -114zM236 271q4 0 12.5 0.5l17 1l17 1t12.5 1.5q1 9 5 31t9 52t11.5 64.5l13 69t12.5 65.5t10 52l-10 -1l-33 -86z" />
    <glyph glyph-name="AEacute" unicode="&#x1fc;" horiz-adv-x="516" 
d="M246 -1v3h-2q7 33 13 63t11.5 58t8.5 48h-73l-52 -144q-22 -3 -53.5 -6.5t-59.5 -6.5q-33 -4 -68 -8q52 133 102 262q22 54 44.5 113t44.5 117.5t42 112.5t36 99q34 3 63.5 4t59.5 1.5t63 1.5t75 5l104 8l-39 -121q-6 1 -16 2t-22 1.5t-28 0.5l-25 -179q13 2 26 3
q11 1 24 1t24 1q-4 -28 -7.5 -55t-8.5 -55q-11 -1 -23.5 -1.5t-23.5 -1.5q-12 -1 -25 -2l-26 -183l84 6l-10 -114zM236 271q4 0 12.5 0.5l17 1l17 1t12.5 1.5q1 9 5 31t9 52t11.5 64.5l13 69t12.5 65.5t10 52l-10 -1l-33 -86zM508 793.5q-68 -24.5 -127 -46.5q-1 11 -1 20
v18q0 16 0.5 32.5t0.5 34.5q68 69 128 123t112 111q5 -67 5.5 -125t8.5 -119q-59 -24 -127 -48.5z" />
    <glyph glyph-name="B" unicode="B" horiz-adv-x="428" 
d="M435 175q-17 -35 -46 -63.5t-67.5 -50t-81 -36t-87 -22t-85.5 -7.5q-37 0 -69 6q48 175 76.5 352.5t54.5 357.5q52 11 108 19.5t116 8.5q25 0 53 -6t51 -22t38.5 -42t15.5 -66q0 -38 -12.5 -71t-32 -60t-44.5 -46.5t-51 -29.5q13 -7 27 -20t26 -30.5t19.5 -41.5t7.5 -54
q0 -41 -17 -76zM215.5 312.5q-3.5 -18.5 -6.5 -35.5t-6.5 -35.5t-7.5 -43.5q19 2 43 7t46 15.5t37 28t15 42.5q0 18 -9.5 30t-24 20t-31.5 11.5t-32 3.5h-8.5t-7.5 -1q-4 -24 -7.5 -42.5zM263.5 571q-2.5 -15 -5.5 -31.5t-6.5 -32.5t-5.5 -28q22 4 44 11t39.5 15.5t28 18.5
t10.5 22q0 15 -9 24.5t-23.5 15.5t-30 8.5t-27.5 2.5h-10q-2 -11 -4.5 -26z" />
    <glyph glyph-name="C" unicode="C" horiz-adv-x="414" 
d="M373.5 119.5q-29.5 -40.5 -62 -68t-65.5 -40.5t-64 -13t-56.5 14t-44.5 42t-30.5 69t-11.5 96q0 94 26 185.5t73 164.5t111.5 117.5t142.5 44.5q24 0 46 -10t38 -28t25.5 -44t9.5 -58v-12.5t-1 -13.5l-131 -35q-12 25 -28 25t-33.5 -18.5t-34.5 -48t-33 -66t-28 -73.5
t-19.5 -70.5t-7.5 -54.5q0 -32 8.5 -45t22.5 -13q11 0 25 8.5t26 22t22 30.5t14 34l114 -46q-24 -55 -53.5 -95.5z" />
    <glyph glyph-name="Cacute" unicode="&#x106;" horiz-adv-x="414" 
d="M373.5 119.5q-29.5 -40.5 -62 -68t-65.5 -40.5t-64 -13t-56.5 14t-44.5 42t-30.5 69t-11.5 96q0 94 26 185.5t73 164.5t111.5 117.5t142.5 44.5q24 0 46 -10t38 -28t25.5 -44t9.5 -58v-12.5t-1 -13.5l-131 -35q-12 25 -28 25t-33.5 -18.5t-34.5 -48t-33 -66t-28 -73.5
t-19.5 -70.5t-7.5 -54.5q0 -32 8.5 -45t22.5 -13q11 0 25 8.5t26 22t22 30.5t14 34l114 -46q-24 -55 -53.5 -95.5zM441 806.5q-68 -24.5 -127 -46.5q-1 11 -1 20v18q0 16 0.5 32.5t0.5 34.5q68 69 128 123t112 111q5 -67 5.5 -125t8.5 -119q-59 -24 -127 -48.5z" />
    <glyph glyph-name="Ccaron" unicode="&#x10c;" horiz-adv-x="414" 
d="M373.5 119.5q-29.5 -40.5 -62 -68t-65.5 -40.5t-64 -13t-56.5 14t-44.5 42t-30.5 69t-11.5 96q0 94 26 185.5t73 164.5t111.5 117.5t142.5 44.5q24 0 46 -10t38 -28t25.5 -44t9.5 -58v-12.5t-1 -13.5l-131 -35q-12 25 -28 25t-33.5 -18.5t-34.5 -48t-33 -66t-28 -73.5
t-19.5 -70.5t-7.5 -54.5q0 -32 8.5 -45t22.5 -13q11 0 25 8.5t26 22t22 30.5t14 34l114 -46q-24 -55 -53.5 -95.5zM436 831q-28 -38 -53 -65q-13 1 -24 1.5t-18 0.5q-10 0 -16 -0.5t-10 -0.5t-4 1q-9 26 -20.5 60.5t-22.5 65.5q-12 36 -25 73q11 10 22 21q11 9 23 19.5
t24 20.5l67 -115q10 11 24 28t28.5 34.5t28 34t24.5 28.5q13 -11 23 -20t18 -17l16 -15q-27 -43 -54 -83q-23 -34 -51 -72z" />
    <glyph glyph-name="Ccedilla" unicode="&#xc7;" horiz-adv-x="414" 
d="M373.5 119.5q-29.5 -40.5 -62 -68t-65.5 -40.5t-64 -13t-56.5 14t-44.5 42t-30.5 69t-11.5 96q0 94 26 185.5t73 164.5t111.5 117.5t142.5 44.5q24 0 46 -10t38 -28t25.5 -44t9.5 -58v-12.5t-1 -13.5l-131 -35q-12 25 -28 25t-33.5 -18.5t-34.5 -48t-33 -66t-28 -73.5
t-19.5 -70.5t-7.5 -54.5q0 -32 8.5 -45t22.5 -13q11 0 25 8.5t26 22t22 30.5t14 34l114 -46q-24 -55 -53.5 -95.5zM306.5 -106.5q-10.5 -17.5 -28.5 -30.5t-42.5 -20.5t-53.5 -7.5q-24 0 -46.5 9t-37.5 28l19 88q26 -28 53 -28q22 0 36.5 16t14.5 41q0 12 -5 30
q18 -2 29.5 -4t21 -3.5t10.5 -1.5q40 -39 40 -78q0 -21 -10.5 -38.5z" />
    <glyph glyph-name="Ccircumflex" unicode="&#x108;" horiz-adv-x="414" 
d="M373.5 119.5q-29.5 -40.5 -62 -68t-65.5 -40.5t-64 -13t-56.5 14t-44.5 42t-30.5 69t-11.5 96q0 94 26 185.5t73 164.5t111.5 117.5t142.5 44.5q24 0 46 -10t38 -28t25.5 -44t9.5 -58v-12.5t-1 -13.5l-131 -35q-12 25 -28 25t-33.5 -18.5t-34.5 -48t-33 -66t-28 -73.5
t-19.5 -70.5t-7.5 -54.5q0 -32 8.5 -45t22.5 -13q11 0 25 8.5t26 22t22 30.5t14 34l114 -46q-24 -55 -53.5 -95.5zM408 853q-15 -16 -30 -33t-30 -33t-25 -27q-13 11 -23 20.5t-16 17.5q-9 9 -15 17q28 41 58 80q25 33 54.5 69t55.5 62q39 -6 54.5 -5t17.5 -1
q8 -27 17.5 -62t18.5 -66l22 -74l-24 -20q-10 -9 -23 -18.5t-25 -18.5l-61 118q-11 -10 -26 -26z" />
    <glyph glyph-name="Cdotaccent" unicode="&#x10a;" horiz-adv-x="414" 
d="M373.5 119.5q-29.5 -40.5 -62 -68t-65.5 -40.5t-64 -13t-56.5 14t-44.5 42t-30.5 69t-11.5 96q0 94 26 185.5t73 164.5t111.5 117.5t142.5 44.5q24 0 46 -10t38 -28t25.5 -44t9.5 -58v-12.5t-1 -13.5l-131 -35q-12 25 -28 25t-33.5 -18.5t-34.5 -48t-33 -66t-28 -73.5
t-19.5 -70.5t-7.5 -54.5q0 -32 8.5 -45t22.5 -13q11 0 25 8.5t26 22t22 30.5t14 34l114 -46q-24 -55 -53.5 -95.5zM481.5 837.5q-6.5 -16.5 -20.5 -30t-34 -21.5t-45 -8q-40 0 -60 26t-20 60q0 16 5.5 32t16.5 28.5t28 20.5t40 8q49 0 72.5 -25t23.5 -57q0 -17 -6.5 -33.5z
" />
    <glyph glyph-name="D" unicode="D" horiz-adv-x="441" 
d="M494 400.5q-15 -58.5 -42 -116t-66.5 -110t-89.5 -92t-109.5 -63.5t-126.5 -24q-14 0 -28 1.5t-28 3.5q27 138 53 269q10 55 21 114.5t21 117.5t19.5 111t15.5 96q43 8 87 15t90 7q54 0 91.5 -17t61 -47t34.5 -70t11 -85q0 -52 -15 -110.5zM250 476q-12 -54 -24 -109
t-24 -115t-23 -131q24 16 46.5 43.5t42.5 63.5t36.5 76t28.5 78t18.5 71t6.5 57q0 37 -20.5 58t-64.5 21q-11 -59 -23 -113z" />
    <glyph glyph-name="uni01C4" unicode="&#x1c4;" horiz-adv-x="872" 
d="M494 400.5q-15 -58.5 -42 -116t-66.5 -110t-89.5 -92t-109.5 -63.5t-126.5 -24q-14 0 -28 1.5t-28 3.5q27 138 53 269q10 55 21 114.5t21 117.5t19.5 111t15.5 96q43 8 87 15t90 7q54 0 91.5 -17t61 -47t34.5 -70t11 -85q0 -52 -15 -110.5zM250 476q-12 -54 -24 -109
t-24 -115t-23 -131q24 16 46.5 43.5t42.5 63.5t36.5 76t28.5 78t18.5 71t6.5 57q0 37 -20.5 58t-64.5 21q-11 -59 -23 -113zM834 39q-29 -1 -68.5 -3t-85.5 -5t-90 -6.5t-81.5 -7.5t-59.5 -8l1 146l284 387q-17 0 -48 -3.5t-62.5 -7.5t-54.5 -8l-24 -2l19 157l409 29
l-26 -138l-273 -388q20 0 53.5 2t69.5 4t78 5l-3 -152q-9 0 -38 -1zM868 821q-28 -38 -53 -65q-13 1 -24 1.5t-18 0.5q-10 0 -16 -0.5t-10 -0.5t-4 1q-9 26 -20.5 60.5t-22.5 65.5q-12 36 -25 73q11 10 22 21q11 9 23 19.5t24 20.5l67 -115q10 11 24 28t28.5 34.5t28 34
t24.5 28.5q13 -11 23 -20t18 -17l16 -15q-27 -43 -54 -83q-23 -34 -51 -72z" />
    <glyph glyph-name="Eth" unicode="&#xd0;" horiz-adv-x="445" 
d="M489.5 381q-11.5 -57 -33.5 -111t-54 -103t-72.5 -85.5t-89.5 -58t-104 -21.5q-32 0 -62.5 9.5t-60.5 30.5q8 39 17 86q8 40 19 91.5t21 111.5q-7 -1 -13.5 -1h-11.5h-11l33 106q3 -1 7 -1h16q14 74 26 144.5t20 128.5q43 8 87 15t90 7q51 0 87.5 -18.5t58.5 -51t32 -76
t10 -93.5q0 -53 -11.5 -110zM193.5 231q-9.5 -51 -22.5 -110q36 22 68 64.5t57 94.5t40 107.5t15 102.5q0 25 -5 46.5t-16 37.5t-27 25t-37 9q-10 -45 -18.5 -87t-16.5 -86q11 0 21 0.5t18 0.5t16 1l-24 -108h-15q-7 0 -15.5 0.5t-18.5 0.5q-10 -48 -19.5 -99z" />
    <glyph glyph-name="Dcaron" unicode="&#x10e;" horiz-adv-x="441" 
d="M494 400.5q-15 -58.5 -42 -116t-66.5 -110t-89.5 -92t-109.5 -63.5t-126.5 -24q-14 0 -28 1.5t-28 3.5q27 138 53 269q10 55 21 114.5t21 117.5t19.5 111t15.5 96q43 8 87 15t90 7q54 0 91.5 -17t61 -47t34.5 -70t11 -85q0 -52 -15 -110.5zM250 476q-12 -54 -24 -109
t-24 -115t-23 -131q24 16 46.5 43.5t42.5 63.5t36.5 76t28.5 78t18.5 71t6.5 57q0 37 -20.5 58t-64.5 21q-11 -59 -23 -113zM357 821q-28 -38 -53 -65q-13 1 -24 1.5t-18 0.5q-10 0 -16 -0.5t-10 -0.5t-4 1q-9 26 -20.5 60.5t-22.5 65.5q-12 36 -25 73q11 10 22 21
q11 9 23 19.5t24 20.5l67 -115q10 11 24 28t28.5 34.5t28 34t24.5 28.5q13 -11 23 -20t18 -17l16 -15q-27 -43 -54 -83q-23 -34 -51 -72z" />
    <glyph glyph-name="Dcroat" unicode="&#x110;" horiz-adv-x="445" 
d="M489.5 381q-11.5 -57 -33.5 -111t-54 -103t-72.5 -85.5t-89.5 -58t-104 -21.5q-32 0 -62.5 9.5t-60.5 30.5q8 39 17 86q8 40 19 91.5t21 111.5q-7 -1 -13.5 -1h-11.5h-11l33 106q3 -1 7 -1h16q14 74 26 144.5t20 128.5q43 8 87 15t90 7q51 0 87.5 -18.5t58.5 -51t32 -76
t10 -93.5q0 -53 -11.5 -110zM193.5 231q-9.5 -51 -22.5 -110q36 22 68 64.5t57 94.5t40 107.5t15 102.5q0 25 -5 46.5t-16 37.5t-27 25t-37 9q-10 -45 -18.5 -87t-16.5 -86q11 0 21 0.5t18 0.5t16 1l-24 -108h-15q-7 0 -15.5 0.5t-18.5 0.5q-10 -48 -19.5 -99z" />
    <glyph glyph-name="uni01C5" unicode="&#x1c5;" horiz-adv-x="872" 
d="M494 400.5q-15 -58.5 -42 -116t-66.5 -110t-89.5 -92t-109.5 -63.5t-126.5 -24q-14 0 -28 1.5t-28 3.5q27 138 53 269q10 55 21 114.5t21 117.5t19.5 111t15.5 96q43 8 87 15t90 7q54 0 91.5 -17t61 -47t34.5 -70t11 -85q0 -52 -15 -110.5zM250 476q-12 -54 -24 -109
t-24 -115t-23 -131q24 16 46.5 43.5t42.5 63.5t36.5 76t28.5 78t18.5 71t6.5 57q0 37 -20.5 58t-64.5 21q-11 -59 -23 -113zM834 39q-29 -1 -68.5 -3t-85.5 -5t-90 -6.5t-81.5 -7.5t-59.5 -8l1 146l284 387q-17 0 -48 -3.5t-62.5 -7.5t-54.5 -8l-24 -2l19 157l409 29
l-26 -138l-273 -388q20 0 53.5 2t69.5 4t78 5l-3 -152q-9 0 -38 -1zM889 821q-28 -38 -53 -65q-13 1 -24 1.5t-18 0.5q-10 0 -16 -0.5t-10 -0.5t-4 1q-9 26 -20.5 60.5t-22.5 65.5q-12 36 -25 73q11 10 22 21q11 9 23 19.5t24 20.5l67 -115q10 11 24 28t28.5 34.5t28 34
t24.5 28.5q13 -11 23 -20t18 -17l16 -15q-27 -43 -54 -83q-23 -34 -51 -72z" />
    <glyph glyph-name="E" unicode="E" horiz-adv-x="341" 
d="M8 -1l131 711l316 27q-7 -22 -12 -45q-5 -19 -9.5 -39.5t-7.5 -36.5q-10 -1 -28.5 -1.5t-39.5 -1t-42.5 -0.5h-37.5l-35 -179q31 2 58 3q22 1 45 1t34 1q-4 -28 -7.5 -55t-8.5 -55q-10 -1 -32.5 -1.5t-45.5 -1.5q-26 -1 -57 -2l-34 -184l146 23l-10 -114z" />
    <glyph glyph-name="Eacute" unicode="&#xc9;" horiz-adv-x="341" 
d="M8 -1l131 711l316 27q-7 -22 -12 -45q-5 -19 -9.5 -39.5t-7.5 -36.5q-10 -1 -28.5 -1.5t-39.5 -1t-42.5 -0.5h-37.5l-35 -179q31 2 58 3q22 1 45 1t34 1q-4 -28 -7.5 -55t-8.5 -55q-10 -1 -32.5 -1.5t-45.5 -1.5q-26 -1 -57 -2l-34 -184l146 23l-10 -114zM314 825.5
q-68 -24.5 -127 -46.5q-1 11 -1 20v18q0 16 0.5 32.5t0.5 34.5q68 69 128 123t112 111q5 -67 5.5 -125t8.5 -119q-59 -24 -127 -48.5z" />
    <glyph glyph-name="Ebreve" unicode="&#x114;" horiz-adv-x="341" 
d="M8 -1l131 711l316 27q-7 -22 -12 -45q-5 -19 -9.5 -39.5t-7.5 -36.5q-10 -1 -28.5 -1.5t-39.5 -1t-42.5 -0.5h-37.5l-35 -179q31 2 58 3q22 1 45 1t34 1q-4 -28 -7.5 -55t-8.5 -55q-10 -1 -32.5 -1.5t-45.5 -1.5q-26 -1 -57 -2l-34 -184l146 23l-10 -114zM414 892
q-29 -47 -61.5 -70t-74.5 -23q-55 0 -90.5 56t-31.5 120q10 9 22 20q11 9 22.5 19.5t24.5 20.5q-2 -49 10.5 -78.5t50.5 -29.5q32 0 48.5 14.5t29.5 38.5t33 65q13 -11 23 -19.5t18 -16.5l16 -16q-11 -54 -40 -101z" />
    <glyph glyph-name="Ecaron" unicode="&#x11a;" horiz-adv-x="341" 
d="M8 -1l131 711l316 27q-7 -22 -12 -45q-5 -19 -9.5 -39.5t-7.5 -36.5q-10 -1 -28.5 -1.5t-39.5 -1t-42.5 -0.5h-37.5l-35 -179q31 2 58 3q22 1 45 1t34 1q-4 -28 -7.5 -55t-8.5 -55q-10 -1 -32.5 -1.5t-45.5 -1.5q-26 -1 -57 -2l-34 -184l146 23l-10 -114zM309 850
q-28 -38 -53 -65q-13 1 -24 1.5t-18 0.5q-10 0 -16 -0.5t-10 -0.5t-4 1q-9 26 -20.5 60.5t-22.5 65.5q-12 36 -25 73q11 10 22 21q11 9 23 19.5t24 20.5l67 -115q10 11 24 28t28.5 34.5t28 34t24.5 28.5q13 -11 23 -20t18 -17l16 -15q-27 -43 -54 -83q-23 -34 -51 -72z" />
    <glyph glyph-name="Ecircumflex" unicode="&#xca;" horiz-adv-x="341" 
d="M8 -1l131 711l316 27q-7 -22 -12 -45q-5 -19 -9.5 -39.5t-7.5 -36.5q-10 -1 -28.5 -1.5t-39.5 -1t-42.5 -0.5h-37.5l-35 -179q31 2 58 3q22 1 45 1t34 1q-4 -28 -7.5 -55t-8.5 -55q-10 -1 -32.5 -1.5t-45.5 -1.5q-26 -1 -57 -2l-34 -184l146 23l-10 -114zM281 872
q-15 -16 -30 -33t-30 -33t-25 -27q-13 11 -23 20.5t-16 17.5q-9 9 -15 17q28 41 58 80q25 33 54.5 69t55.5 62q39 -6 54.5 -5t17.5 -1q8 -27 17.5 -62t18.5 -66l22 -74l-24 -20q-10 -9 -23 -18.5t-25 -18.5l-61 118q-11 -10 -26 -26z" />
    <glyph glyph-name="uni1EBE" unicode="&#x1ebe;" horiz-adv-x="341" 
d="M8 -1l131 711l316 27q-7 -22 -12 -45q-5 -19 -9.5 -39.5t-7.5 -36.5q-10 -1 -28.5 -1.5t-39.5 -1t-42.5 -0.5h-37.5l-35 -179q31 2 58 3q22 1 45 1t34 1q-4 -28 -7.5 -55t-8.5 -55q-10 -1 -32.5 -1.5t-45.5 -1.5q-26 -1 -57 -2l-34 -184l146 23l-10 -114zM284 861
q-15 -16 -30 -33t-30 -33t-25 -27q-13 11 -23 20.5t-16 17.5q-9 9 -15 17q28 41 58 80q25 33 54.5 69t55.5 62q39 -6 54.5 -5t17.5 -1q8 -27 17.5 -62t18.5 -66l22 -74l-24 -20q-10 -9 -23 -18.5t-25 -18.5l-61 118q-11 -10 -26 -26zM528.5 957q-43.5 -16 -81.5 -30
q-1 7 -1 13v12q0 10 0.5 20.5t0.5 22.5q43 44 82 79t72 72q4 -43 4 -80.5t6 -77.5q-39 -15 -82.5 -31z" />
    <glyph glyph-name="uni1EC6" unicode="&#x1ec6;" horiz-adv-x="341" 
d="M8 -1l131 711l316 27q-7 -22 -12 -45q-5 -19 -9.5 -39.5t-7.5 -36.5q-10 -1 -28.5 -1.5t-39.5 -1t-42.5 -0.5h-37.5l-35 -179q31 2 58 3q22 1 45 1t34 1q-4 -28 -7.5 -55t-8.5 -55q-10 -1 -32.5 -1.5t-45.5 -1.5q-26 -1 -57 -2l-34 -184l146 23l-10 -114zM281 872
q-15 -16 -30 -33t-30 -33t-25 -27q-13 11 -23 20.5t-16 17.5q-9 9 -15 17q28 41 58 80q25 33 54.5 69t55.5 62q39 -6 54.5 -5t17.5 -1q8 -27 17.5 -62t18.5 -66l22 -74l-24 -20q-10 -9 -23 -18.5t-25 -18.5l-61 118q-11 -10 -26 -26zM256.5 -145.5q-6.5 -16.5 -20.5 -30
t-34 -21.5t-45 -8q-40 0 -60 26t-20 60q0 16 5.5 32t16.5 28.5t28 20.5t40 8q49 0 72.5 -25t23.5 -57q0 -17 -6.5 -33.5z" />
    <glyph glyph-name="uni1EC0" unicode="&#x1ec0;" horiz-adv-x="341" 
d="M8 -1l131 711l316 27q-7 -22 -12 -45q-5 -19 -9.5 -39.5t-7.5 -36.5q-10 -1 -28.5 -1.5t-39.5 -1t-42.5 -0.5h-37.5l-35 -179q31 2 58 3q22 1 45 1t34 1q-4 -28 -7.5 -55t-8.5 -55q-10 -1 -32.5 -1.5t-45.5 -1.5q-26 -1 -57 -2l-34 -184l146 23l-10 -114zM278 840
q-15 -16 -30 -33t-30 -33t-25 -27q-13 11 -23 20.5t-16 17.5q-9 9 -15 17q28 41 58 80q25 33 54.5 69t55.5 62q39 -6 54.5 -5t17.5 -1q8 -27 17.5 -62t18.5 -66l22 -74l-24 -20q-10 -9 -23 -18.5t-25 -18.5l-61 118q-11 -10 -26 -26zM220 952q-33 8 -64 16q-27 6 -55 13.5
t-47 13.5q4 19 9 46t10 53q6 30 12 61q25 -27 51 -53q21 -23 45.5 -49.5t43.5 -47.5z" />
    <glyph glyph-name="uni1EC2" unicode="&#x1ec2;" horiz-adv-x="341" 
d="M8 -1l131 711l316 27q-7 -22 -12 -45q-5 -19 -9.5 -39.5t-7.5 -36.5q-10 -1 -28.5 -1.5t-39.5 -1t-42.5 -0.5h-37.5l-35 -179q31 2 58 3q22 1 45 1t34 1q-4 -28 -7.5 -55t-8.5 -55q-10 -1 -32.5 -1.5t-45.5 -1.5q-26 -1 -57 -2l-34 -184l146 23l-10 -114zM291 855
q-15 -16 -30 -33t-30 -33t-25 -27q-13 11 -23 20.5t-16 17.5q-9 9 -15 17q28 41 58 80q25 33 54.5 69t55.5 62q39 -6 54.5 -5t17.5 -1q8 -27 17.5 -62t18.5 -66l22 -74l-24 -20q-10 -9 -23 -18.5t-25 -18.5l-61 118q-11 -10 -26 -26zM454 939q0 17 4.5 31t12.5 24.5t16.5 19
t16 15t12.5 12t5 10.5q0 2 -3 5.5t-8 3.5q-7 0 -15.5 -5t-18 -12t-19.5 -15l-16 59q24 19 45.5 27.5t43.5 8.5q10 0 23 -2.5t20 -7t16 -15t12 -39.5q0 -17 -5 -28t-12.5 -19.5t-17.5 -15.5t-19 -14.5t-15.5 -17t-10.5 -21.5l-19 -2z" />
    <glyph glyph-name="uni1EC4" unicode="&#x1ec4;" horiz-adv-x="341" 
d="M8 -1l131 711l316 27q-7 -22 -12 -45q-5 -19 -9.5 -39.5t-7.5 -36.5q-10 -1 -28.5 -1.5t-39.5 -1t-42.5 -0.5h-37.5l-35 -179q31 2 58 3q22 1 45 1t34 1q-4 -28 -7.5 -55t-8.5 -55q-10 -1 -32.5 -1.5t-45.5 -1.5q-26 -1 -57 -2l-34 -184l146 23l-10 -114zM283 848
q-15 -16 -30 -33t-30 -33t-25 -27q-13 11 -23 20.5t-16 17.5q-9 9 -15 17q28 41 58 80q25 33 54.5 69t55.5 62q39 -6 54.5 -5t17.5 -1q8 -27 17.5 -62t18.5 -66l22 -74l-24 -20q-10 -9 -23 -18.5t-25 -18.5l-61 118q-11 -10 -26 -26zM301 1134.5q-14 -8.5 -26.5 -20.5
t-24.5 -25t-22 -22q-13 9 -22.5 17t-17.5 14t-14 13l6 13t17 32.5t26.5 42.5t34.5 42.5t41 33t48 13.5q24 0 42.5 -14t32.5 -30t22.5 -29t13.5 -13q15 0 29 10.5t27 25.5t25 30t22 24q12 -9 22 -17t18 -14t14 -13q-21 -49 -48 -87q-11 -17 -25 -32t-30 -27t-33.5 -19.5
t-37.5 -7.5q-24 0 -36.5 10.5t-22.5 23.5t-20.5 23.5t-31.5 10.5q-15 0 -29 -8.5z" />
    <glyph glyph-name="uni0204" unicode="&#x204;" horiz-adv-x="341" 
d="M8 -1l131 711l316 27q-7 -22 -12 -45q-5 -19 -9.5 -39.5t-7.5 -36.5q-10 -1 -28.5 -1.5t-39.5 -1t-42.5 -0.5h-37.5l-35 -179q31 2 58 3q22 1 45 1t34 1q-4 -28 -7.5 -55t-8.5 -55q-10 -1 -32.5 -1.5t-45.5 -1.5q-26 -1 -57 -2l-34 -184l146 23l-10 -114zM230 761
q-51 12 -98 24q-41 9 -84 20.5t-72 20.5q6 29 14 70.5t15 80.5q9 46 18 94q39 -42 78 -82q33 -35 70.5 -75t65.5 -72zM519 736q-51 12 -98 24q-41 9 -84 20.5t-72 20.5q6 29 14 70.5t15 80.5q9 46 18 94q39 -42 78 -82q33 -35 70.5 -75t65.5 -72z" />
    <glyph glyph-name="Edieresis" unicode="&#xcb;" horiz-adv-x="341" 
d="M8 -1l131 711l316 27q-7 -22 -12 -45q-5 -19 -9.5 -39.5t-7.5 -36.5q-10 -1 -28.5 -1.5t-39.5 -1t-42.5 -0.5h-37.5l-35 -179q31 2 58 3q22 1 45 1t34 1q-4 -28 -7.5 -55t-8.5 -55q-10 -1 -32.5 -1.5t-45.5 -1.5q-26 -1 -57 -2l-34 -184l146 23l-10 -114zM467 902.5
q-7 -16.5 -20.5 -29.5t-33 -21.5t-46.5 -8.5q-40 0 -60 26.5t-20 59.5q0 17 5.5 33t16.5 28t28.5 20t40.5 8q48 0 72 -25t24 -56q0 -18 -7 -34.5zM234.5 902.5q-6.5 -16.5 -20.5 -29.5t-34 -21.5t-45 -8.5q-40 0 -60 26.5t-20 59.5q0 17 5.5 33t16.5 28t28 20t40 8
q49 0 72.5 -25t23.5 -56q0 -18 -6.5 -34.5z" />
    <glyph glyph-name="Edotaccent" unicode="&#x116;" horiz-adv-x="341" 
d="M8 -1l131 711l316 27q-7 -22 -12 -45q-5 -19 -9.5 -39.5t-7.5 -36.5q-10 -1 -28.5 -1.5t-39.5 -1t-42.5 -0.5h-37.5l-35 -179q31 2 58 3q22 1 45 1t34 1q-4 -28 -7.5 -55t-8.5 -55q-10 -1 -32.5 -1.5t-45.5 -1.5q-26 -1 -57 -2l-34 -184l146 23l-10 -114zM354.5 856.5
q-6.5 -16.5 -20.5 -30t-34 -21.5t-45 -8q-40 0 -60 26t-20 60q0 16 5.5 32t16.5 28.5t28 20.5t40 8q49 0 72.5 -25t23.5 -57q0 -17 -6.5 -33.5z" />
    <glyph glyph-name="uni1EB8" unicode="&#x1eb8;" horiz-adv-x="341" 
d="M8 -1l131 711l316 27q-7 -22 -12 -45q-5 -19 -9.5 -39.5t-7.5 -36.5q-10 -1 -28.5 -1.5t-39.5 -1t-42.5 -0.5h-37.5l-35 -179q31 2 58 3q22 1 45 1t34 1q-4 -28 -7.5 -55t-8.5 -55q-10 -1 -32.5 -1.5t-45.5 -1.5q-26 -1 -57 -2l-34 -184l146 23l-10 -114zM256.5 -145.5
q-6.5 -16.5 -20.5 -30t-34 -21.5t-45 -8q-40 0 -60 26t-20 60q0 16 5.5 32t16.5 28.5t28 20.5t40 8q49 0 72.5 -25t23.5 -57q0 -17 -6.5 -33.5z" />
    <glyph glyph-name="Egrave" unicode="&#xc8;" horiz-adv-x="341" 
d="M8 -1l131 711l316 27q-7 -22 -12 -45q-5 -19 -9.5 -39.5t-7.5 -36.5q-10 -1 -28.5 -1.5t-39.5 -1t-42.5 -0.5h-37.5l-35 -179q31 2 58 3q22 1 45 1t34 1q-4 -28 -7.5 -55t-8.5 -55q-10 -1 -32.5 -1.5t-45.5 -1.5q-26 -1 -57 -2l-34 -184l146 23l-10 -114zM304 781
q-51 12 -98 24q-41 9 -84 20.5t-72 20.5q6 29 14 70.5t15 80.5q9 46 18 94q39 -42 78 -82q33 -35 70.5 -75t65.5 -72z" />
    <glyph glyph-name="uni1EBA" unicode="&#x1eba;" horiz-adv-x="341" 
d="M8 -1l131 711l316 27q-7 -22 -12 -45q-5 -19 -9.5 -39.5t-7.5 -36.5q-10 -1 -28.5 -1.5t-39.5 -1t-42.5 -0.5h-37.5l-35 -179q31 2 58 3q22 1 45 1t34 1q-4 -28 -7.5 -55t-8.5 -55q-10 -1 -32.5 -1.5t-45.5 -1.5q-26 -1 -57 -2l-34 -184l146 23l-10 -114zM248 774
q0 17 4.5 31t12.5 24.5t16.5 19t16 15t12.5 12t5 10.5q0 2 -3 5.5t-8 3.5q-7 0 -15.5 -5t-18 -12t-19.5 -15l-16 59q24 19 45.5 27.5t43.5 8.5q10 0 23 -2.5t20 -7t16 -15t12 -39.5q0 -17 -5 -28t-12.5 -19.5t-17.5 -15.5t-19 -14.5t-15.5 -17t-10.5 -21.5l-19 -2z" />
    <glyph glyph-name="uni0206" unicode="&#x206;" horiz-adv-x="341" 
d="M8 -1l131 711l316 27q-7 -22 -12 -45q-5 -19 -9.5 -39.5t-7.5 -36.5q-10 -1 -28.5 -1.5t-39.5 -1t-42.5 -0.5h-37.5l-35 -179q31 2 58 3q22 1 45 1t34 1q-4 -28 -7.5 -55t-8.5 -55q-10 -1 -32.5 -1.5t-45.5 -1.5q-26 -1 -57 -2l-34 -184l146 23l-10 -114zM154 913
q29 47 61.5 70t74.5 23q55 0 90.5 -56t31.5 -120q-10 -9 -22 -20q-11 -9 -22.5 -19.5t-24.5 -20.5q2 49 -10.5 78.5t-50.5 29.5q-32 0 -48.5 -14.5t-29.5 -38.5t-33 -65q-13 11 -23 19.5t-18 16.5l-16 16q11 54 40 101z" />
    <glyph glyph-name="Emacron" unicode="&#x112;" horiz-adv-x="341" 
d="M8 -1l131 711l316 27q-7 -22 -12 -45q-5 -19 -9.5 -39.5t-7.5 -36.5q-10 -1 -28.5 -1.5t-39.5 -1t-42.5 -0.5h-37.5l-35 -179q31 2 58 3q22 1 45 1t34 1q-4 -28 -7.5 -55t-8.5 -55q-10 -1 -32.5 -1.5t-45.5 -1.5q-26 -1 -57 -2l-34 -184l146 23l-10 -114zM245.5 808
q-32.5 -2 -63.5 -4.5t-58.5 -5t-47.5 -4.5q-5 17 -6 45t-1 54v40q0 10 1 18l374 32l16 -162q-79 -5 -151 -9q-31 -2 -63.5 -4z" />
    <glyph glyph-name="Eogonek" unicode="&#x118;" horiz-adv-x="341" 
d="M8 -1l131 711l316 27q-7 -22 -12 -45q-5 -19 -9.5 -39.5t-7.5 -36.5q-10 -1 -28.5 -1.5t-39.5 -1t-42.5 -0.5h-37.5l-35 -179q31 2 58 3q22 1 45 1t34 1q-4 -28 -7.5 -55t-8.5 -55q-10 -1 -32.5 -1.5t-45.5 -1.5q-26 -1 -57 -2l-34 -184l146 23l-10 -114zM315.5 -125
q-22.5 -9 -45.5 -9q-30 0 -54.5 7.5t-42.5 20.5t-28 30.5t-10 38.5q0 39 40 78q1 0 10 1.5l21 3.5t29 4q-4 -18 -4 -30q0 -25 14.5 -41t35.5 -16q28 0 53 28l20 -88q-16 -19 -38.5 -28z" />
    <glyph glyph-name="uni1EBC" unicode="&#x1ebc;" horiz-adv-x="341" 
d="M8 -1l131 711l316 27q-7 -22 -12 -45q-5 -19 -9.5 -39.5t-7.5 -36.5q-10 -1 -28.5 -1.5t-39.5 -1t-42.5 -0.5h-37.5l-35 -179q31 2 58 3q22 1 45 1t34 1q-4 -28 -7.5 -55t-8.5 -55q-10 -1 -32.5 -1.5t-45.5 -1.5q-26 -1 -57 -2l-34 -184l146 23l-10 -114zM219 863.5
q-14 -8.5 -26.5 -20.5t-24.5 -25t-22 -22q-13 9 -22.5 17t-17.5 14t-14 13l6 13t17 32.5t26.5 42.5t34.5 42.5t41 33t48 13.5q24 0 42.5 -14t32.5 -30t22.5 -29t13.5 -13q15 0 29 10.5t27 25.5t25 30t22 24q12 -9 22 -17t18 -14t14 -13q-21 -49 -48 -87q-11 -17 -25 -32
t-30 -27t-33.5 -19.5t-37.5 -7.5q-24 0 -36.5 10.5t-22.5 23.5t-20.5 23.5t-31.5 10.5q-15 0 -29 -8.5z" />
    <glyph glyph-name="F" unicode="F" horiz-adv-x="341" 
d="M62 12q-33 -7 -58 -13q12 43 23.5 96.5t23 112.5t22 119.5t20.5 116.5q21 133 42 275l335 17l-29 -123h-157l-31 -178q31 1 59 1h47t37 1q-3 -28 -7.5 -55t-8.5 -54q-13 0 -37 0.5t-49.5 1.5t-57.5 2l-46 -295q-34 -6 -67 -13q-28 -5 -61 -12z" />
    <glyph glyph-name="G" unicode="G" horiz-adv-x="499" 
d="M504 203.5q-33 -75.5 -79.5 -126.5t-100 -76t-101.5 -25q-37 0 -70.5 16t-58 48.5t-38.5 81.5t-14 115q0 129 37 225t93.5 160t121 95t120.5 31q40 0 69.5 -14t48.5 -37.5t27.5 -55t8.5 -66.5l-137 -26q-9 40 -24 57t-34 17q-25 0 -55 -35.5t-56 -91.5t-44 -123t-20 -132
q0 -62 18.5 -88.5t47.5 -26.5q20 0 41.5 10t38.5 28.5t28.5 43t12.5 53.5l-107 -16l19 99q47 6 92 12q38 5 80.5 12t74.5 13q-7 -102 -40 -177.5z" />
    <glyph glyph-name="Gbreve" unicode="&#x11e;" horiz-adv-x="499" 
d="M504 203.5q-33 -75.5 -79.5 -126.5t-100 -76t-101.5 -25q-37 0 -70.5 16t-58 48.5t-38.5 81.5t-14 115q0 129 37 225t93.5 160t121 95t120.5 31q40 0 69.5 -14t48.5 -37.5t27.5 -55t8.5 -66.5l-137 -26q-9 40 -24 57t-34 17q-25 0 -55 -35.5t-56 -91.5t-44 -123t-20 -132
q0 -62 18.5 -88.5t47.5 -26.5q20 0 41.5 10t38.5 28.5t28.5 43t12.5 53.5l-107 -16l19 99q47 6 92 12q38 5 80.5 12t74.5 13q-7 -102 -40 -177.5zM528 863q-29 -47 -61.5 -70t-74.5 -23q-55 0 -90.5 56t-31.5 120q10 9 22 20q11 9 22.5 19.5t24.5 20.5q-2 -49 10.5 -78.5
t50.5 -29.5q32 0 48.5 14.5t29.5 38.5t33 65q13 -11 23 -19.5t18 -16.5l16 -16q-11 -54 -40 -101z" />
    <glyph glyph-name="Gcaron" unicode="&#x1e6;" horiz-adv-x="499" 
d="M504 203.5q-33 -75.5 -79.5 -126.5t-100 -76t-101.5 -25q-37 0 -70.5 16t-58 48.5t-38.5 81.5t-14 115q0 129 37 225t93.5 160t121 95t120.5 31q40 0 69.5 -14t48.5 -37.5t27.5 -55t8.5 -66.5l-137 -26q-9 40 -24 57t-34 17q-25 0 -55 -35.5t-56 -91.5t-44 -123t-20 -132
q0 -62 18.5 -88.5t47.5 -26.5q20 0 41.5 10t38.5 28.5t28.5 43t12.5 53.5l-107 -16l19 99q47 6 92 12q38 5 80.5 12t74.5 13q-7 -102 -40 -177.5zM423 821q-28 -38 -53 -65q-13 1 -24 1.5t-18 0.5q-10 0 -16 -0.5t-10 -0.5t-4 1q-9 26 -20.5 60.5t-22.5 65.5q-12 36 -25 73
q11 10 22 21q11 9 23 19.5t24 20.5l67 -115q10 11 24 28t28.5 34.5t28 34t24.5 28.5q13 -11 23 -20t18 -17l16 -15q-27 -43 -54 -83q-23 -34 -51 -72z" />
    <glyph glyph-name="Gcircumflex" unicode="&#x11c;" horiz-adv-x="499" 
d="M504 203.5q-33 -75.5 -79.5 -126.5t-100 -76t-101.5 -25q-37 0 -70.5 16t-58 48.5t-38.5 81.5t-14 115q0 129 37 225t93.5 160t121 95t120.5 31q40 0 69.5 -14t48.5 -37.5t27.5 -55t8.5 -66.5l-137 -26q-9 40 -24 57t-34 17q-25 0 -55 -35.5t-56 -91.5t-44 -123t-20 -132
q0 -62 18.5 -88.5t47.5 -26.5q20 0 41.5 10t38.5 28.5t28.5 43t12.5 53.5l-107 -16l19 99q47 6 92 12q38 5 80.5 12t74.5 13q-7 -102 -40 -177.5zM395 843q-15 -16 -30 -33t-30 -33t-25 -27q-13 11 -23 20.5t-16 17.5q-9 9 -15 17q28 41 58 80q25 33 54.5 69t55.5 62
q39 -6 54.5 -5t17.5 -1q8 -27 17.5 -62t18.5 -66l22 -74l-24 -20q-10 -9 -23 -18.5t-25 -18.5l-61 118q-11 -10 -26 -26z" />
    <glyph glyph-name="Gcommaaccent" unicode="&#x122;" horiz-adv-x="499" 
d="M504 203.5q-33 -75.5 -79.5 -126.5t-100 -76t-101.5 -25q-37 0 -70.5 16t-58 48.5t-38.5 81.5t-14 115q0 129 37 225t93.5 160t121 95t120.5 31q40 0 69.5 -14t48.5 -37.5t27.5 -55t8.5 -66.5l-137 -26q-9 40 -24 57t-34 17q-25 0 -55 -35.5t-56 -91.5t-44 -123t-20 -132
q0 -62 18.5 -88.5t47.5 -26.5q20 0 41.5 10t38.5 28.5t28.5 43t12.5 53.5l-107 -16l19 99q47 6 92 12q38 5 80.5 12t74.5 13q-7 -102 -40 -177.5zM88 -356q8 40 17 81.5t17 80t14.5 71.5t9.5 58q8 0 25.5 -0.5t26.5 -0.5h36.5t45 1t47.5 2q-8 -37 -21.5 -87.5t-28.5 -100.5
t-32 -105h-157z" />
    <glyph glyph-name="Gdotaccent" unicode="&#x120;" horiz-adv-x="499" 
d="M504 203.5q-33 -75.5 -79.5 -126.5t-100 -76t-101.5 -25q-37 0 -70.5 16t-58 48.5t-38.5 81.5t-14 115q0 129 37 225t93.5 160t121 95t120.5 31q40 0 69.5 -14t48.5 -37.5t27.5 -55t8.5 -66.5l-137 -26q-9 40 -24 57t-34 17q-25 0 -55 -35.5t-56 -91.5t-44 -123t-20 -132
q0 -62 18.5 -88.5t47.5 -26.5q20 0 41.5 10t38.5 28.5t28.5 43t12.5 53.5l-107 -16l19 99q47 6 92 12q38 5 80.5 12t74.5 13q-7 -102 -40 -177.5zM468.5 827.5q-6.5 -16.5 -20.5 -30t-34 -21.5t-45 -8q-40 0 -60 26t-20 60q0 16 5.5 32t16.5 28.5t28 20.5t40 8
q49 0 72.5 -25t23.5 -57q0 -17 -6.5 -33.5z" />
    <glyph glyph-name="H" unicode="H" horiz-adv-x="442" 
d="M9 -2q26 138 51 271q9 56 20 116.5t21 119.5t19 114.5t16 101.5l162 11q-17 -70 -33.5 -146t-30.5 -148l99 11q14 71 25 137.5t29 137.5q23 4 51 6.5t52 4.5t40.5 3.5l16.5 1.5q-14 -45 -26.5 -98.5t-24.5 -111t-23 -116.5t-20 -112q-22 -127 -41 -260l-156 -18
q13 60 23 117q10 48 20.5 100t16.5 89l-97 -9q-7 -38 -16.5 -88t-17.5 -95l-22 -108z" />
    <glyph glyph-name="Hbar" unicode="&#x126;" horiz-adv-x="577" 
d="M640 547l-543 -58l20 109l538 59zM78 -2q26 138 51 271q10 56 20.5 116.5t21 119.5t19 114.5t15.5 101.5l162 11q-16 -70 -33 -146t-30 -148l98 11q14 71 25 137.5t29 137.5q23 4 51 6.5t52 4.5t40.5 3.5l16.5 1.5q-13 -45 -26 -98.5t-24.5 -111t-23 -116.5t-20.5 -112
q-22 -127 -41 -260l-156 -18q13 60 24 117q9 48 19.5 100t17.5 89l-98 -9q-7 -38 -16 -88t-18 -95l-22 -108z" />
    <glyph glyph-name="Hcircumflex" unicode="&#x124;" horiz-adv-x="442" 
d="M9 -2q26 138 51 271q9 56 20 116.5t21 119.5t19 114.5t16 101.5l162 11q-17 -70 -33.5 -146t-30.5 -148l99 11q14 71 25 137.5t29 137.5q23 4 51 6.5t52 4.5t40.5 3.5l16.5 1.5q-14 -45 -26.5 -98.5t-24.5 -111t-23 -116.5t-20 -112q-22 -127 -41 -260l-156 -18
q13 60 23 117q10 48 20.5 100t16.5 89l-97 -9q-7 -38 -16.5 -88t-17.5 -95l-22 -108zM365 843q-15 -16 -30 -33t-30 -33t-25 -27q-13 11 -23 20.5t-16 17.5q-9 9 -15 17q28 41 58 80q25 33 54.5 69t55.5 62q39 -6 54.5 -5t17.5 -1q8 -27 17.5 -62t18.5 -66l22 -74l-24 -20
q-10 -9 -23 -18.5t-25 -18.5l-61 118q-11 -10 -26 -26z" />
    <glyph glyph-name="I" unicode="I" horiz-adv-x="200" 
d="M123 17.5q-26 -2.5 -54 -6t-50.5 -6.5t-24.5 -4q12 43 24 95.5t24.5 110t24 116.5t22.5 114q25 128 49 263l156 25q-26 -134 -52 -263q-11 -55 -22.5 -114t-22 -117t-21 -112.5t-18.5 -98.5q-9 0 -35 -2.5z" />
    <glyph glyph-name="IJ" unicode="&#x132;" horiz-adv-x="474" 
d="M123 17.5q-26 -2.5 -54 -6t-50.5 -6.5t-24.5 -4q12 43 24 95.5t24.5 110t24 116.5t22.5 114q25 128 49 263l156 25q-26 -134 -52 -263q-11 -55 -22.5 -114t-22 -117t-21 -112.5t-18.5 -98.5q-9 0 -35 -2.5zM459 174.5q-13 -47.5 -34.5 -86t-52 -64t-72.5 -25.5
q-28 0 -60.5 12t-71.5 41l69 154q5 -10 19.5 -17.5t31.5 -7.5q12 0 21.5 20t16.5 46.5t11 54.5t6 45q19 97 36 193.5t40 192.5q45 4 88.5 12.5t87.5 20.5q-15 -51 -31 -116t-31 -133t-28.5 -133.5t-23.5 -117.5q-9 -44 -22 -91.5z" />
    <glyph glyph-name="Iacute" unicode="&#xcd;" horiz-adv-x="200" 
d="M123 17.5q-26 -2.5 -54 -6t-50.5 -6.5t-24.5 -4q12 43 24 95.5t24.5 110t24 116.5t22.5 114q25 128 49 263l156 25q-26 -134 -52 -263q-11 -55 -22.5 -114t-22 -117t-21 -112.5t-18.5 -98.5q-9 0 -35 -2.5zM320 796.5q-68 -24.5 -127 -46.5q-1 11 -1 20v18q0 16 0.5 32.5
t0.5 34.5q68 69 128 123t112 111q5 -67 5.5 -125t8.5 -119q-59 -24 -127 -48.5z" />
    <glyph glyph-name="Ibreve" unicode="&#x12c;" horiz-adv-x="200" 
d="M123 17.5q-26 -2.5 -54 -6t-50.5 -6.5t-24.5 -4q12 43 24 95.5t24.5 110t24 116.5t22.5 114q25 128 49 263l156 25q-26 -134 -52 -263q-11 -55 -22.5 -114t-22 -117t-21 -112.5t-18.5 -98.5q-9 0 -35 -2.5zM420 863q-29 -47 -61.5 -70t-74.5 -23q-55 0 -90.5 56
t-31.5 120q10 9 22 20q11 9 22.5 19.5t24.5 20.5q-2 -49 10.5 -78.5t50.5 -29.5q32 0 48.5 14.5t29.5 38.5t33 65q13 -11 23 -19.5t18 -16.5l16 -16q-11 -54 -40 -101z" />
    <glyph glyph-name="Icircumflex" unicode="&#xce;" horiz-adv-x="200" 
d="M123 17.5q-26 -2.5 -54 -6t-50.5 -6.5t-24.5 -4q12 43 24 95.5t24.5 110t24 116.5t22.5 114q25 128 49 263l156 25q-26 -134 -52 -263q-11 -55 -22.5 -114t-22 -117t-21 -112.5t-18.5 -98.5q-9 0 -35 -2.5zM287 843q-15 -16 -30 -33t-30 -33t-25 -27q-13 11 -23 20.5
t-16 17.5q-9 9 -15 17q28 41 58 80q25 33 54.5 69t55.5 62q39 -6 54.5 -5t17.5 -1q8 -27 17.5 -62t18.5 -66l22 -74l-24 -20q-10 -9 -23 -18.5t-25 -18.5l-61 118q-11 -10 -26 -26z" />
    <glyph glyph-name="uni0208" unicode="&#x208;" horiz-adv-x="200" 
d="M123 17.5q-26 -2.5 -54 -6t-50.5 -6.5t-24.5 -4q12 43 24 95.5t24.5 110t24 116.5t22.5 114q25 128 49 263l156 25q-26 -134 -52 -263q-11 -55 -22.5 -114t-22 -117t-21 -112.5t-18.5 -98.5q-9 0 -35 -2.5zM236 732q-51 12 -98 24q-41 9 -84 20.5t-72 20.5q6 29 14 70.5
t15 80.5q9 46 18 94q39 -42 78 -82q33 -35 70.5 -75t65.5 -72zM525 707q-51 12 -98 24q-41 9 -84 20.5t-72 20.5q6 29 14 70.5t15 80.5q9 46 18 94q39 -42 78 -82q33 -35 70.5 -75t65.5 -72z" />
    <glyph glyph-name="Idieresis" unicode="&#xcf;" horiz-adv-x="200" 
d="M123 17.5q-26 -2.5 -54 -6t-50.5 -6.5t-24.5 -4q12 43 24 95.5t24.5 110t24 116.5t22.5 114q25 128 49 263l156 25q-26 -134 -52 -263q-11 -55 -22.5 -114t-22 -117t-21 -112.5t-18.5 -98.5q-9 0 -35 -2.5zM473 873.5q-7 -16.5 -20.5 -29.5t-33 -21.5t-46.5 -8.5
q-40 0 -60 26.5t-20 59.5q0 17 5.5 33t16.5 28t28.5 20t40.5 8q48 0 72 -25t24 -56q0 -18 -7 -34.5zM240.5 873.5q-6.5 -16.5 -20.5 -29.5t-34 -21.5t-45 -8.5q-40 0 -60 26.5t-20 59.5q0 17 5.5 33t16.5 28t28 20t40 8q49 0 72.5 -25t23.5 -56q0 -18 -6.5 -34.5z" />
    <glyph glyph-name="Idotaccent" unicode="&#x130;" horiz-adv-x="200" 
d="M123 17.5q-26 -2.5 -54 -6t-50.5 -6.5t-24.5 -4q12 43 24 95.5t24.5 110t24 116.5t22.5 114q25 128 49 263l156 25q-26 -134 -52 -263q-11 -55 -22.5 -114t-22 -117t-21 -112.5t-18.5 -98.5q-9 0 -35 -2.5zM360.5 827.5q-6.5 -16.5 -20.5 -30t-34 -21.5t-45 -8
q-40 0 -60 26t-20 60q0 16 5.5 32t16.5 28.5t28 20.5t40 8q49 0 72.5 -25t23.5 -57q0 -17 -6.5 -33.5z" />
    <glyph glyph-name="uni1ECA" unicode="&#x1eca;" horiz-adv-x="200" 
d="M123 17.5q-26 -2.5 -54 -6t-50.5 -6.5t-24.5 -4q12 43 24 95.5t24.5 110t24 116.5t22.5 114q25 128 49 263l156 25q-26 -134 -52 -263q-11 -55 -22.5 -114t-22 -117t-21 -112.5t-18.5 -98.5q-9 0 -35 -2.5zM186.5 -145.5q-6.5 -16.5 -20.5 -30t-34 -21.5t-45 -8
q-40 0 -60 26t-20 60q0 16 5.5 32t16.5 28.5t28 20.5t40 8q49 0 72.5 -25t23.5 -57q0 -17 -6.5 -33.5z" />
    <glyph glyph-name="Igrave" unicode="&#xcc;" horiz-adv-x="200" 
d="M123 17.5q-26 -2.5 -54 -6t-50.5 -6.5t-24.5 -4q12 43 24 95.5t24.5 110t24 116.5t22.5 114q25 128 49 263l156 25q-26 -134 -52 -263q-11 -55 -22.5 -114t-22 -117t-21 -112.5t-18.5 -98.5q-9 0 -35 -2.5zM310 752q-51 12 -98 24q-41 9 -84 20.5t-72 20.5q6 29 14 70.5
t15 80.5q9 46 18 94q39 -42 78 -82q33 -35 70.5 -75t65.5 -72z" />
    <glyph glyph-name="uni1EC8" unicode="&#x1ec8;" horiz-adv-x="200" 
d="M123 17.5q-26 -2.5 -54 -6t-50.5 -6.5t-24.5 -4q12 43 24 95.5t24.5 110t24 116.5t22.5 114q25 128 49 263l156 25q-26 -134 -52 -263q-11 -55 -22.5 -114t-22 -117t-21 -112.5t-18.5 -98.5q-9 0 -35 -2.5zM254 745q0 17 4.5 31t12.5 24.5t16.5 19t16 15t12.5 12t5 10.5
q0 2 -3 5.5t-8 3.5q-7 0 -15.5 -5t-18 -12t-19.5 -15l-16 59q24 19 45.5 27.5t43.5 8.5q10 0 23 -2.5t20 -7t16 -15t12 -39.5q0 -17 -5 -28t-12.5 -19.5t-17.5 -15.5t-19 -14.5t-15.5 -17t-10.5 -21.5l-19 -2z" />
    <glyph glyph-name="uni020A" unicode="&#x20a;" horiz-adv-x="200" 
d="M123 17.5q-26 -2.5 -54 -6t-50.5 -6.5t-24.5 -4q12 43 24 95.5t24.5 110t24 116.5t22.5 114q25 128 49 263l156 25q-26 -134 -52 -263q-11 -55 -22.5 -114t-22 -117t-21 -112.5t-18.5 -98.5q-9 0 -35 -2.5zM160 884q29 47 61.5 70t74.5 23q55 0 90.5 -56t31.5 -120
q-10 -9 -22 -20q-11 -9 -22.5 -19.5t-24.5 -20.5q2 49 -10.5 78.5t-50.5 29.5q-32 0 -48.5 -14.5t-29.5 -38.5t-33 -65q-13 11 -23 19.5t-18 16.5l-16 16q11 54 40 101z" />
    <glyph glyph-name="Imacron" unicode="&#x12a;" horiz-adv-x="200" 
d="M123 17.5q-26 -2.5 -54 -6t-50.5 -6.5t-24.5 -4q12 43 24 95.5t24.5 110t24 116.5t22.5 114q25 128 49 263l156 25q-26 -134 -52 -263q-11 -55 -22.5 -114t-22 -117t-21 -112.5t-18.5 -98.5q-9 0 -35 -2.5zM251.5 779q-32.5 -2 -63.5 -4.5t-58.5 -5t-47.5 -4.5
q-5 17 -6 45t-1 54v40q0 10 1 18l374 32l16 -162q-79 -5 -151 -9q-31 -2 -63.5 -4z" />
    <glyph glyph-name="Iogonek" unicode="&#x12e;" horiz-adv-x="200" 
d="M123 17.5q-26 -2.5 -54 -6t-50.5 -6.5t-24.5 -4q12 43 24 95.5t24.5 110t24 116.5t22.5 114q25 128 49 263l156 25q-26 -134 -52 -263q-11 -55 -22.5 -114t-22 -117t-21 -112.5t-18.5 -98.5q-9 0 -35 -2.5zM194.5 -125q-22.5 -9 -45.5 -9q-30 0 -54.5 7.5t-42.5 20.5
t-28 30.5t-10 38.5q0 39 40 78q1 0 10 1.5l21 3.5t29 4q-4 -18 -4 -30q0 -25 14.5 -41t35.5 -16q28 0 53 28l20 -88q-16 -19 -38.5 -28z" />
    <glyph glyph-name="Itilde" unicode="&#x128;" horiz-adv-x="200" 
d="M123 17.5q-26 -2.5 -54 -6t-50.5 -6.5t-24.5 -4q12 43 24 95.5t24.5 110t24 116.5t22.5 114q25 128 49 263l156 25q-26 -134 -52 -263q-11 -55 -22.5 -114t-22 -117t-21 -112.5t-18.5 -98.5q-9 0 -35 -2.5zM225 834.5q-14 -8.5 -26.5 -20.5t-24.5 -25t-22 -22
q-13 9 -22.5 17t-17.5 14t-14 13l6 13t17 32.5t26.5 42.5t34.5 42.5t41 33t48 13.5q24 0 42.5 -14t32.5 -30t22.5 -29t13.5 -13q15 0 29 10.5t27 25.5t25 30t22 24q12 -9 22 -17t18 -14t14 -13q-21 -49 -48 -87q-11 -17 -25 -32t-30 -27t-33.5 -19.5t-37.5 -7.5
q-24 0 -36.5 10.5t-22.5 23.5t-20.5 23.5t-31.5 10.5q-15 0 -29 -8.5z" />
    <glyph glyph-name="J" unicode="J" horiz-adv-x="279" 
d="M264 174.5q-13 -47.5 -34.5 -86t-52 -64t-72.5 -25.5q-28 0 -60.5 12t-71.5 41l69 154q5 -10 19.5 -17.5t31.5 -7.5q12 0 21.5 20t16.5 46.5t11 54.5t6 45q19 97 36 193.5t40 192.5q45 4 88.5 12.5t87.5 20.5q-15 -51 -31 -116t-31 -133t-28.5 -133.5t-23.5 -117.5
q-9 -44 -22 -91.5z" />
    <glyph glyph-name="Jcircumflex" unicode="&#x134;" horiz-adv-x="279" 
d="M264 174.5q-13 -47.5 -34.5 -86t-52 -64t-72.5 -25.5q-28 0 -60.5 12t-71.5 41l69 154q5 -10 19.5 -17.5t31.5 -7.5q12 0 21.5 20t16.5 46.5t11 54.5t6 45q19 97 36 193.5t40 192.5q45 4 88.5 12.5t87.5 20.5q-15 -51 -31 -116t-31 -133t-28.5 -133.5t-23.5 -117.5
q-9 -44 -22 -91.5zM337 843q-15 -16 -30 -33t-30 -33t-25 -27q-13 11 -23 20.5t-16 17.5q-9 9 -15 17q28 41 58 80q25 33 54.5 69t55.5 62q39 -6 54.5 -5t17.5 -1q8 -27 17.5 -62t18.5 -66l22 -74l-24 -20q-10 -9 -23 -18.5t-25 -18.5l-61 118q-11 -10 -26 -26z" />
    <glyph glyph-name="K" unicode="K" horiz-adv-x="462" 
d="M7 -1q30 140 56 272q10 57 21 118t20.5 121t17 116.5t11.5 102.5q23 -2 52 -3.5t54 -3.5q30 -2 60 -2q-1 -4 -3 -15t-5 -26.5t-6.5 -34.5t-7.5 -38l-18 -99l6 1q10 16 28.5 44.5t38.5 60.5t39 61.5t32 50.5q50 4 100 9t100 13q-47 -63 -91 -124q-19 -26 -38.5 -54
t-38.5 -55t-35.5 -52t-29.5 -46q22 -101 52 -195t61 -192q-23 1 -47 1.5t-47 0.5q-29 0 -56 -0.5t-56 -1.5q-9 65 -19.5 136.5t-19.5 136.5l-18 -21q-7 -30 -15.5 -74t-16.5 -85q-9 -48 -19 -99z" />
    <glyph glyph-name="Kcommaaccent" unicode="&#x136;" horiz-adv-x="462" 
d="M7 -1q30 140 56 272q10 57 21 118t20.5 121t17 116.5t11.5 102.5q23 -2 52 -3.5t54 -3.5q30 -2 60 -2q-1 -4 -3 -15t-5 -26.5t-6.5 -34.5t-7.5 -38l-18 -99l6 1q10 16 28.5 44.5t38.5 60.5t39 61.5t32 50.5q50 4 100 9t100 13q-47 -63 -91 -124q-19 -26 -38.5 -54
t-38.5 -55t-35.5 -52t-29.5 -46q22 -101 52 -195t61 -192q-23 1 -47 1.5t-47 0.5q-29 0 -56 -0.5t-56 -1.5q-9 65 -19.5 136.5t-19.5 136.5l-18 -21q-7 -30 -15.5 -74t-16.5 -85q-9 -48 -19 -99zM69 -356q8 40 17 81.5t17 80t14.5 71.5t9.5 58q8 0 25.5 -0.5t26.5 -0.5h36.5
t45 1t47.5 2q-8 -37 -21.5 -87.5t-28.5 -100.5t-32 -105h-157z" />
    <glyph glyph-name="L" unicode="L" horiz-adv-x="302" 
d="M210.5 30q-34.5 -2 -69.5 -6t-68.5 -10.5t-60.5 -15.5q6 45 14 100t18.5 114t21 119t21.5 115q25 131 53 267l175 23q-27 -116 -52 -226q-11 -47 -22 -97.5t-21 -98.5t-18 -93t-13 -80q25 2 53.5 2.5t50.5 0.5q1 -19 3 -37.5t4.5 -33.5t4 -26.5t2.5 -15.5q-8 0 -15.5 0.5
t-15.5 0.5q-31 0 -65.5 -2z" />
    <glyph glyph-name="uni01C7" unicode="&#x1c7;" horiz-adv-x="581" 
d="M210.5 30q-34.5 -2 -69.5 -6t-68.5 -10.5t-60.5 -15.5q6 45 14 100t18.5 114t21 119t21.5 115q25 131 53 267l175 23q-27 -116 -52 -226q-11 -47 -22 -97.5t-21 -98.5t-18 -93t-13 -80q25 2 53.5 2.5t50.5 0.5q1 -19 3 -37.5t4.5 -33.5t4 -26.5t2.5 -15.5q-8 0 -15.5 0.5
t-15.5 0.5q-31 0 -65.5 -2zM566 174.5q-13 -47.5 -34.5 -86t-52 -64t-72.5 -25.5q-28 0 -60.5 12t-71.5 41l69 154q5 -10 19.5 -17.5t31.5 -7.5q12 0 21.5 20t16.5 46.5t11 54.5t6 45q19 97 36 193.5t40 192.5q45 4 88.5 12.5t87.5 20.5q-15 -51 -31 -116t-31 -133
t-28.5 -133.5t-23.5 -117.5q-9 -44 -22 -91.5z" />
    <glyph glyph-name="Lacute" unicode="&#x139;" horiz-adv-x="302" 
d="M210.5 30q-34.5 -2 -69.5 -6t-68.5 -10.5t-60.5 -15.5q6 45 14 100t18.5 114t21 119t21.5 115q25 131 53 267l175 23q-27 -116 -52 -226q-11 -47 -22 -97.5t-21 -98.5t-18 -93t-13 -80q25 2 53.5 2.5t50.5 0.5q1 -19 3 -37.5t4.5 -33.5t4 -26.5t2.5 -15.5q-8 0 -15.5 0.5
t-15.5 0.5q-31 0 -65.5 -2zM293 796.5q-68 -24.5 -127 -46.5q-1 11 -1 20v18q0 16 0.5 32.5t0.5 34.5q68 69 128 123t112 111q5 -67 5.5 -125t8.5 -119q-59 -24 -127 -48.5z" />
    <glyph glyph-name="Lcaron" unicode="&#x13d;" horiz-adv-x="521" 
d="M210.5 30q-34.5 -2 -69.5 -6t-68.5 -10.5t-60.5 -15.5q6 45 14 100t18.5 114t21 119t21.5 115q25 131 53 267l175 23q-27 -116 -52 -226q-11 -47 -22 -97.5t-21 -98.5t-18 -93t-13 -80q25 2 53.5 2.5t50.5 0.5q1 -19 3 -37.5t4.5 -33.5t4 -26.5t2.5 -15.5q-8 0 -15.5 0.5
t-15.5 0.5q-31 0 -65.5 -2zM330 430q8 40 17 81.5t17 80t14.5 71.5t9.5 58q8 0 25.5 -0.5t26.5 -0.5h36.5t45 1t47.5 2q-8 -37 -21.5 -87.5t-28.5 -100.5t-32 -105h-157z" />
    <glyph glyph-name="Lcommaaccent" unicode="&#x13b;" horiz-adv-x="302" 
d="M210.5 30q-34.5 -2 -69.5 -6t-68.5 -10.5t-60.5 -15.5q6 45 14 100t18.5 114t21 119t21.5 115q25 131 53 267l175 23q-27 -116 -52 -226q-11 -47 -22 -97.5t-21 -98.5t-18 -93t-13 -80q25 2 53.5 2.5t50.5 0.5q1 -19 3 -37.5t4.5 -33.5t4 -26.5t2.5 -15.5q-8 0 -15.5 0.5
t-15.5 0.5q-31 0 -65.5 -2zM-11 -356q8 40 17 81.5t17 80t14.5 71.5t9.5 58q8 0 25.5 -0.5t26.5 -0.5h36.5t45 1t47.5 2q-8 -37 -21.5 -87.5t-28.5 -100.5t-32 -105h-157z" />
    <glyph glyph-name="Ldot" unicode="&#x13f;" horiz-adv-x="562" 
d="M210.5 30q-34.5 -2 -69.5 -6t-68.5 -10.5t-60.5 -15.5q6 45 14 100t18.5 114t21 119t21.5 115q25 131 53 267l175 23q-27 -116 -52 -226q-11 -47 -22 -97.5t-21 -98.5t-18 -93t-13 -80q25 2 53.5 2.5t50.5 0.5q1 -19 3 -37.5t4.5 -33.5t4 -26.5t2.5 -15.5q-8 0 -15.5 0.5
t-15.5 0.5q-31 0 -65.5 -2zM539.5 346q-8.5 -19 -24.5 -33.5t-40 -23t-55 -8.5q-21 0 -38 8t-27.5 21.5t-16.5 30.5t-6 34q0 19 6 36.5t18.5 31t31 22.5t44.5 9q58 0 87 -27.5t29 -62.5q0 -19 -8.5 -38z" />
    <glyph glyph-name="uni01C8" unicode="&#x1c8;" horiz-adv-x="581" 
d="M210.5 30q-34.5 -2 -69.5 -6t-68.5 -10.5t-60.5 -15.5q6 45 14 100t18.5 114t21 119t21.5 115q25 131 53 267l175 23q-27 -116 -52 -226q-11 -47 -22 -97.5t-21 -98.5t-18 -93t-13 -80q25 2 53.5 2.5t50.5 0.5q1 -19 3 -37.5t4.5 -33.5t4 -26.5t2.5 -15.5q-8 0 -15.5 0.5
t-15.5 0.5q-31 0 -65.5 -2zM566 174.5q-13 -47.5 -34.5 -86t-52 -64t-72.5 -25.5q-28 0 -60.5 12t-71.5 41l69 154q5 -10 19.5 -17.5t31.5 -7.5q12 0 21.5 20t16.5 46.5t11 54.5t6 45q19 97 36 193.5t40 192.5q45 4 88.5 12.5t87.5 20.5q-15 -51 -31 -116t-31 -133
t-28.5 -133.5t-23.5 -117.5q-9 -44 -22 -91.5z" />
    <glyph glyph-name="Lslash" unicode="&#x141;" horiz-adv-x="309" 
d="M216.5 30q-34.5 -2 -69.5 -6t-68.5 -10.5t-60.5 -15.5q8 69 22.5 157t30.5 178q-8 -4 -16 -6.5t-13 -4.5q-7 -3 -12 -5l11 124q8 2 17 5q7 2 16.5 5t20.5 7q10 54 18.5 100t16.5 81q8 40 16 74l175 23q-7 -29 -15 -63q-8 -29 -17 -69t-19 -85q16 5 33 11.5t31 11.5
q17 6 31 13l3 -120l-126 -42q-14 -71 -27 -137t-20 -115q25 2 53 2.5t51 0.5q1 -19 3 -37.5t4.5 -33.5t4 -26.5t2.5 -15.5q-8 0 -15.5 0.5t-15.5 0.5q-31 0 -65.5 -2z" />
    <glyph glyph-name="M" unicode="M" horiz-adv-x="619" 
d="M-30 6q44 133 84 261q17 54 35 113t36 117t33.5 112t27.5 100q55 0 104 6t106 11q-3 -22 -6.5 -49.5t-8 -57.5t-9.5 -62t-12 -82t-19 -125h13q29 76 48 126.5t31 82.5t24.5 62.5t24 58t21.5 48.5q25 2 47 5t44 6.5t44.5 7t49.5 8.5q-10 -58 -19 -119t-16 -121.5
t-13.5 -119.5t-11.5 -112q-12 -124 -21 -242l-174 -31q0 5 1.5 27t4 54t7 71l9 78t9.5 75.5t10 62.5h-9q-14 -42 -31 -88.5t-34.5 -94.5t-34.5 -94t-30 -88q-35 -1 -60 -2.5t-58 -3.5l32 371h-15q-2 -13 -10 -43.5t-18.5 -70t-22.5 -82t-22.5 -79t-17.5 -60t-8 -26.5z" />
    <glyph glyph-name="N" unicode="N" horiz-adv-x="453" 
d="M6 -5q28 141 54 275q10 56 21.5 117.5t21.5 121t18.5 115t13.5 101.5q31 2 60 4q26 2 53 3.5t48 3.5q13 -77 23 -147q5 -30 10.5 -62.5t10.5 -62.5t10 -57.5t10 -48.5q4 21 9 48.5t11 58t12.5 62.5t12.5 62q15 70 31 146l122 15q-34 -150 -60 -284q-12 -58 -23.5 -117
t-21.5 -114t-17 -101.5t-11 -78.5q-3 0 -23.5 -4.5t-47 -10.5t-53 -12.5t-39.5 -10.5q-7 81 -15 154q-3 31 -7 64t-7.5 63t-7 56.5t-6.5 44.5q-3 -18 -8 -44t-10 -55.5t-10 -61t-11 -61.5q-13 -71 -28 -148z" />
    <glyph glyph-name="uni01CA" unicode="&#x1ca;" horiz-adv-x="732" 
d="M6 -5q28 141 54 275q10 56 21.5 117.5t21.5 121t18.5 115t13.5 101.5q31 2 60 4q26 2 53 3.5t48 3.5q13 -77 23 -147q5 -30 10.5 -62.5t10.5 -62.5t10 -57.5t10 -48.5q4 21 9 48.5t11 58t12.5 62.5t12.5 62q15 70 31 146l122 15q-34 -150 -60 -284q-12 -58 -23.5 -117
t-21.5 -114t-17 -101.5t-11 -78.5q-3 0 -23.5 -4.5t-47 -10.5t-53 -12.5t-39.5 -10.5q-7 81 -15 154q-3 31 -7 64t-7.5 63t-7 56.5t-6.5 44.5q-3 -18 -8 -44t-10 -55.5t-10 -61t-11 -61.5q-13 -71 -28 -148zM717 174.5q-13 -47.5 -34.5 -86t-52 -64t-72.5 -25.5
q-28 0 -60.5 12t-71.5 41l69 154q5 -10 19.5 -17.5t31.5 -7.5q12 0 21.5 20t16.5 46.5t11 54.5t6 45q19 97 36 193.5t40 192.5q45 4 88.5 12.5t87.5 20.5q-15 -51 -31 -116t-31 -133t-28.5 -133.5t-23.5 -117.5q-9 -44 -22 -91.5z" />
    <glyph glyph-name="Nacute" unicode="&#x143;" horiz-adv-x="453" 
d="M6 -5q28 141 54 275q10 56 21.5 117.5t21.5 121t18.5 115t13.5 101.5q31 2 60 4q26 2 53 3.5t48 3.5q13 -77 23 -147q5 -30 10.5 -62.5t10.5 -62.5t10 -57.5t10 -48.5q4 21 9 48.5t11 58t12.5 62.5t12.5 62q15 70 31 146l122 15q-34 -150 -60 -284q-12 -58 -23.5 -117
t-21.5 -114t-17 -101.5t-11 -78.5q-3 0 -23.5 -4.5t-47 -10.5t-53 -12.5t-39.5 -10.5q-7 81 -15 154q-3 31 -7 64t-7.5 63t-7 56.5t-6.5 44.5q-3 -18 -8 -44t-10 -55.5t-10 -61t-11 -61.5q-13 -71 -28 -148zM424 796.5q-68 -24.5 -127 -46.5q-1 11 -1 20v18q0 16 0.5 32.5
t0.5 34.5q68 69 128 123t112 111q5 -67 5.5 -125t8.5 -119q-59 -24 -127 -48.5z" />
    <glyph glyph-name="Ncaron" unicode="&#x147;" horiz-adv-x="453" 
d="M6 -5q28 141 54 275q10 56 21.5 117.5t21.5 121t18.5 115t13.5 101.5q31 2 60 4q26 2 53 3.5t48 3.5q13 -77 23 -147q5 -30 10.5 -62.5t10.5 -62.5t10 -57.5t10 -48.5q4 21 9 48.5t11 58t12.5 62.5t12.5 62q15 70 31 146l122 15q-34 -150 -60 -284q-12 -58 -23.5 -117
t-21.5 -114t-17 -101.5t-11 -78.5q-3 0 -23.5 -4.5t-47 -10.5t-53 -12.5t-39.5 -10.5q-7 81 -15 154q-3 31 -7 64t-7.5 63t-7 56.5t-6.5 44.5q-3 -18 -8 -44t-10 -55.5t-10 -61t-11 -61.5q-13 -71 -28 -148zM419 821q-28 -38 -53 -65q-13 1 -24 1.5t-18 0.5q-10 0 -16 -0.5
t-10 -0.5t-4 1q-9 26 -20.5 60.5t-22.5 65.5q-12 36 -25 73q11 10 22 21q11 9 23 19.5t24 20.5l67 -115q10 11 24 28t28.5 34.5t28 34t24.5 28.5q13 -11 23 -20t18 -17l16 -15q-27 -43 -54 -83q-23 -34 -51 -72z" />
    <glyph glyph-name="Ncommaaccent" unicode="&#x145;" horiz-adv-x="453" 
d="M6 -5q28 141 54 275q10 56 21.5 117.5t21.5 121t18.5 115t13.5 101.5q31 2 60 4q26 2 53 3.5t48 3.5q13 -77 23 -147q5 -30 10.5 -62.5t10.5 -62.5t10 -57.5t10 -48.5q4 21 9 48.5t11 58t12.5 62.5t12.5 62q15 70 31 146l122 15q-34 -150 -60 -284q-12 -58 -23.5 -117
t-21.5 -114t-17 -101.5t-11 -78.5q-3 0 -23.5 -4.5t-47 -10.5t-53 -12.5t-39.5 -10.5q-7 81 -15 154q-3 31 -7 64t-7.5 63t-7 56.5t-6.5 44.5q-3 -18 -8 -44t-10 -55.5t-10 -61t-11 -61.5q-13 -71 -28 -148zM65 -356q8 40 17 81.5t17 80t14.5 71.5t9.5 58q8 0 25.5 -0.5
t26.5 -0.5h36.5t45 1t47.5 2q-8 -37 -21.5 -87.5t-28.5 -100.5t-32 -105h-157z" />
    <glyph glyph-name="Eng" unicode="&#x14a;" horiz-adv-x="453" 
d="M368 -105q-43 -78 -120 -78q-33 0 -65 14t-68 39l58 128q32 -36 55 -36q13 0 24 12.5t10 27.5l-22 232l-8 64q-1 9 -2.5 26.5t-3.5 29.5l-7 45l-8 -45q-9 -47 -10 -55q-2 -15 -11 -61q-2 -22 -10 -61l-28 -148l-146 -34l54 275q5 33 12 66l9 52q8 41 22 121q6 38 8 52
q3 17 10 62q10 63 14 102l60 4l53 3q16 1 28 2t20 2q15 -87 23 -147l10 -63q8 -42 11 -62l6 -34l4 -24l10 -48l9 48q4 23 7 38l4 20q10 50 13 62l12 63l31 146l122 15q-23 -101 -60 -284l-23 -117l-22 -115q-12 -61 -17 -101q-5 -29 -5 -28l-6 -38q-14 -94 -57 -172z" />
    <glyph glyph-name="uni019D" unicode="&#x19d;" horiz-adv-x="465" 
d="M152 29q-5 -38 -24.5 -87t-56 -86t-89.5 -37q-32 0 -64 14t-68 39l57 128q16 -18 29 -27t26 -9q15 0 28.5 10t17.5 30l52 266q5 33 12 66l9 52q8 41 22 121q6 38 8 52q3 17 10 62q10 63 14 102l60 4l53 3q16 1 28 2t20 2q15 -87 23 -147l10 -63q8 -42 11 -62l6 -34l4 -24
l10 -48l9 48q4 23 7 38l4 20q10 50 13 62l12 63l31 146l122 15q-23 -101 -60 -284l-23 -117l-22 -115q-12 -61 -17 -101l-8 -56l-3 -22l-163 -38l-22 217l-8 64q-1 9 -2.5 26.5t-3.5 29.5l-7 45l-8 -45q-9 -47 -10 -55q-2 -15 -11 -61q-2 -22 -10 -61z" />
    <glyph glyph-name="uni01CB" unicode="&#x1cb;" horiz-adv-x="732" 
d="M6 -5q28 141 54 275q10 56 21.5 117.5t21.5 121t18.5 115t13.5 101.5q31 2 60 4q26 2 53 3.5t48 3.5q13 -77 23 -147q5 -30 10.5 -62.5t10.5 -62.5t10 -57.5t10 -48.5q4 21 9 48.5t11 58t12.5 62.5t12.5 62q15 70 31 146l122 15q-34 -150 -60 -284q-12 -58 -23.5 -117
t-21.5 -114t-17 -101.5t-11 -78.5q-3 0 -23.5 -4.5t-47 -10.5t-53 -12.5t-39.5 -10.5q-7 81 -15 154q-3 31 -7 64t-7.5 63t-7 56.5t-6.5 44.5q-3 -18 -8 -44t-10 -55.5t-10 -61t-11 -61.5q-13 -71 -28 -148zM717 174.5q-13 -47.5 -34.5 -86t-52 -64t-72.5 -25.5
q-28 0 -60.5 12t-71.5 41l69 154q5 -10 19.5 -17.5t31.5 -7.5q12 0 21.5 20t16.5 46.5t11 54.5t6 45q19 97 36 193.5t40 192.5q45 4 88.5 12.5t87.5 20.5q-15 -51 -31 -116t-31 -133t-28.5 -133.5t-23.5 -117.5q-9 -44 -22 -91.5z" />
    <glyph glyph-name="Ntilde" unicode="&#xd1;" horiz-adv-x="453" 
d="M6 -5q28 141 54 275q10 56 21.5 117.5t21.5 121t18.5 115t13.5 101.5q31 2 60 4q26 2 53 3.5t48 3.5q13 -77 23 -147q5 -30 10.5 -62.5t10.5 -62.5t10 -57.5t10 -48.5q4 21 9 48.5t11 58t12.5 62.5t12.5 62q15 70 31 146l122 15q-34 -150 -60 -284q-12 -58 -23.5 -117
t-21.5 -114t-17 -101.5t-11 -78.5q-3 0 -23.5 -4.5t-47 -10.5t-53 -12.5t-39.5 -10.5q-7 81 -15 154q-3 31 -7 64t-7.5 63t-7 56.5t-6.5 44.5q-3 -18 -8 -44t-10 -55.5t-10 -61t-11 -61.5q-13 -71 -28 -148zM329 834.5q-14 -8.5 -26.5 -20.5t-24.5 -25t-22 -22
q-13 9 -22.5 17t-17.5 14t-14 13l6 13t17 32.5t26.5 42.5t34.5 42.5t41 33t48 13.5q24 0 42.5 -14t32.5 -30t22.5 -29t13.5 -13q15 0 29 10.5t27 25.5t25 30t22 24q12 -9 22 -17t18 -14t14 -13q-21 -49 -48 -87q-11 -17 -25 -32t-30 -27t-33.5 -19.5t-37.5 -7.5
q-24 0 -36.5 10.5t-22.5 23.5t-20.5 23.5t-31.5 10.5q-15 0 -29 -8.5z" />
    <glyph glyph-name="O" unicode="O" 
d="M542.5 386.5q-17.5 -72.5 -46.5 -133t-67.5 -108t-80.5 -81t-85 -51t-82 -17.5q-33 0 -60 12.5t-47 37t-31.5 63t-11.5 92.5q0 56 14 118t38 123t59 116t77 97.5t90 67.5t100 25q45 0 74.5 -18.5t46 -48t23.5 -66.5t7 -74q0 -82 -17.5 -154.5zM184 204q4 -12 11 -21
t17.5 -15.5t22.5 -6.5q45 0 80 31t58 76t35.5 96t12.5 93q0 12 -1.5 26t-6 26t-14 20.5t-25.5 8.5q-32 0 -59 -16t-48.5 -42.5t-37.5 -60t-27.5 -68t-16.5 -67.5t-5 -57q0 -11 4 -23z" />
    <glyph glyph-name="Oacute" unicode="&#xd3;" 
d="M542.5 386.5q-17.5 -72.5 -46.5 -133t-67.5 -108t-80.5 -81t-85 -51t-82 -17.5q-33 0 -60 12.5t-47 37t-31.5 63t-11.5 92.5q0 56 14 118t38 123t59 116t77 97.5t90 67.5t100 25q45 0 74.5 -18.5t46 -48t23.5 -66.5t7 -74q0 -82 -17.5 -154.5zM184 204q4 -12 11 -21
t17.5 -15.5t22.5 -6.5q45 0 80 31t58 76t35.5 96t12.5 93q0 12 -1.5 26t-6 26t-14 20.5t-25.5 8.5q-32 0 -59 -16t-48.5 -42.5t-37.5 -60t-27.5 -68t-16.5 -67.5t-5 -57q0 -11 4 -23zM463 825.5q-68 -24.5 -127 -46.5q-1 11 -1 20v18q0 16 0.5 32.5t0.5 34.5q68 69 128 123
t112 111q5 -67 5.5 -125t8.5 -119q-59 -24 -127 -48.5z" />
    <glyph glyph-name="Obreve" unicode="&#x14e;" 
d="M542.5 386.5q-17.5 -72.5 -46.5 -133t-67.5 -108t-80.5 -81t-85 -51t-82 -17.5q-33 0 -60 12.5t-47 37t-31.5 63t-11.5 92.5q0 56 14 118t38 123t59 116t77 97.5t90 67.5t100 25q45 0 74.5 -18.5t46 -48t23.5 -66.5t7 -74q0 -82 -17.5 -154.5zM184 204q4 -12 11 -21
t17.5 -15.5t22.5 -6.5q45 0 80 31t58 76t35.5 96t12.5 93q0 12 -1.5 26t-6 26t-14 20.5t-25.5 8.5q-32 0 -59 -16t-48.5 -42.5t-37.5 -60t-27.5 -68t-16.5 -67.5t-5 -57q0 -11 4 -23zM563 892q-29 -47 -61.5 -70t-74.5 -23q-55 0 -90.5 56t-31.5 120q10 9 22 20
q11 9 22.5 19.5t24.5 20.5q-2 -49 10.5 -78.5t50.5 -29.5q32 0 48.5 14.5t29.5 38.5t33 65q13 -11 23 -19.5t18 -16.5l16 -16q-11 -54 -40 -101z" />
    <glyph glyph-name="Ocircumflex" unicode="&#xd4;" 
d="M542.5 386.5q-17.5 -72.5 -46.5 -133t-67.5 -108t-80.5 -81t-85 -51t-82 -17.5q-33 0 -60 12.5t-47 37t-31.5 63t-11.5 92.5q0 56 14 118t38 123t59 116t77 97.5t90 67.5t100 25q45 0 74.5 -18.5t46 -48t23.5 -66.5t7 -74q0 -82 -17.5 -154.5zM184 204q4 -12 11 -21
t17.5 -15.5t22.5 -6.5q45 0 80 31t58 76t35.5 96t12.5 93q0 12 -1.5 26t-6 26t-14 20.5t-25.5 8.5q-32 0 -59 -16t-48.5 -42.5t-37.5 -60t-27.5 -68t-16.5 -67.5t-5 -57q0 -11 4 -23zM430 872q-15 -16 -30 -33t-30 -33t-25 -27q-13 11 -23 20.5t-16 17.5q-9 9 -15 17
q28 41 58 80q25 33 54.5 69t55.5 62q39 -6 54.5 -5t17.5 -1q8 -27 17.5 -62t18.5 -66l22 -74l-24 -20q-10 -9 -23 -18.5t-25 -18.5l-61 118q-11 -10 -26 -26z" />
    <glyph glyph-name="uni1ED0" unicode="&#x1ed0;" 
d="M542.5 386.5q-17.5 -72.5 -46.5 -133t-67.5 -108t-80.5 -81t-85 -51t-82 -17.5q-33 0 -60 12.5t-47 37t-31.5 63t-11.5 92.5q0 56 14 118t38 123t59 116t77 97.5t90 67.5t100 25q45 0 74.5 -18.5t46 -48t23.5 -66.5t7 -74q0 -82 -17.5 -154.5zM184 204q4 -12 11 -21
t17.5 -15.5t22.5 -6.5q45 0 80 31t58 76t35.5 96t12.5 93q0 12 -1.5 26t-6 26t-14 20.5t-25.5 8.5q-32 0 -59 -16t-48.5 -42.5t-37.5 -60t-27.5 -68t-16.5 -67.5t-5 -57q0 -11 4 -23zM433 861q-15 -16 -30 -33t-30 -33t-25 -27q-13 11 -23 20.5t-16 17.5q-9 9 -15 17
q28 41 58 80q25 33 54.5 69t55.5 62q39 -6 54.5 -5t17.5 -1q8 -27 17.5 -62t18.5 -66l22 -74l-24 -20q-10 -9 -23 -18.5t-25 -18.5l-61 118q-11 -10 -26 -26zM677.5 957q-43.5 -16 -81.5 -30q-1 7 -1 13v12q0 10 0.5 20.5t0.5 22.5q43 44 82 79t72 72q4 -43 4 -80.5t6 -77.5
q-39 -15 -82.5 -31z" />
    <glyph glyph-name="uni1ED8" unicode="&#x1ed8;" 
d="M542.5 386.5q-17.5 -72.5 -46.5 -133t-67.5 -108t-80.5 -81t-85 -51t-82 -17.5q-33 0 -60 12.5t-47 37t-31.5 63t-11.5 92.5q0 56 14 118t38 123t59 116t77 97.5t90 67.5t100 25q45 0 74.5 -18.5t46 -48t23.5 -66.5t7 -74q0 -82 -17.5 -154.5zM184 204q4 -12 11 -21
t17.5 -15.5t22.5 -6.5q45 0 80 31t58 76t35.5 96t12.5 93q0 12 -1.5 26t-6 26t-14 20.5t-25.5 8.5q-32 0 -59 -16t-48.5 -42.5t-37.5 -60t-27.5 -68t-16.5 -67.5t-5 -57q0 -11 4 -23zM430 872q-15 -16 -30 -33t-30 -33t-25 -27q-13 11 -23 20.5t-16 17.5q-9 9 -15 17
q28 41 58 80q25 33 54.5 69t55.5 62q39 -6 54.5 -5t17.5 -1q8 -27 17.5 -62t18.5 -66l22 -74l-24 -20q-10 -9 -23 -18.5t-25 -18.5l-61 118q-11 -10 -26 -26zM247.5 -145.5q-6.5 -16.5 -20.5 -30t-34 -21.5t-45 -8q-40 0 -60 26t-20 60q0 16 5.5 32t16.5 28.5t28 20.5t40 8
q49 0 72.5 -25t23.5 -57q0 -17 -6.5 -33.5z" />
    <glyph glyph-name="uni1ED2" unicode="&#x1ed2;" 
d="M542.5 386.5q-17.5 -72.5 -46.5 -133t-67.5 -108t-80.5 -81t-85 -51t-82 -17.5q-33 0 -60 12.5t-47 37t-31.5 63t-11.5 92.5q0 56 14 118t38 123t59 116t77 97.5t90 67.5t100 25q45 0 74.5 -18.5t46 -48t23.5 -66.5t7 -74q0 -82 -17.5 -154.5zM184 204q4 -12 11 -21
t17.5 -15.5t22.5 -6.5q45 0 80 31t58 76t35.5 96t12.5 93q0 12 -1.5 26t-6 26t-14 20.5t-25.5 8.5q-32 0 -59 -16t-48.5 -42.5t-37.5 -60t-27.5 -68t-16.5 -67.5t-5 -57q0 -11 4 -23zM427 840q-15 -16 -30 -33t-30 -33t-25 -27q-13 11 -23 20.5t-16 17.5q-9 9 -15 17
q28 41 58 80q25 33 54.5 69t55.5 62q39 -6 54.5 -5t17.5 -1q8 -27 17.5 -62t18.5 -66l22 -74l-24 -20q-10 -9 -23 -18.5t-25 -18.5l-61 118q-11 -10 -26 -26zM369 952q-33 8 -64 16q-27 6 -55 13.5t-47 13.5q4 19 9 46t10 53q6 30 12 61q25 -27 51 -53q21 -23 45.5 -49.5
t43.5 -47.5z" />
    <glyph glyph-name="uni1ED4" unicode="&#x1ed4;" 
d="M542.5 386.5q-17.5 -72.5 -46.5 -133t-67.5 -108t-80.5 -81t-85 -51t-82 -17.5q-33 0 -60 12.5t-47 37t-31.5 63t-11.5 92.5q0 56 14 118t38 123t59 116t77 97.5t90 67.5t100 25q45 0 74.5 -18.5t46 -48t23.5 -66.5t7 -74q0 -82 -17.5 -154.5zM184 204q4 -12 11 -21
t17.5 -15.5t22.5 -6.5q45 0 80 31t58 76t35.5 96t12.5 93q0 12 -1.5 26t-6 26t-14 20.5t-25.5 8.5q-32 0 -59 -16t-48.5 -42.5t-37.5 -60t-27.5 -68t-16.5 -67.5t-5 -57q0 -11 4 -23zM440 855q-15 -16 -30 -33t-30 -33t-25 -27q-13 11 -23 20.5t-16 17.5q-9 9 -15 17
q28 41 58 80q25 33 54.5 69t55.5 62q39 -6 54.5 -5t17.5 -1q8 -27 17.5 -62t18.5 -66l22 -74l-24 -20q-10 -9 -23 -18.5t-25 -18.5l-61 118q-11 -10 -26 -26zM603 939q0 17 4.5 31t12.5 24.5t16.5 19t16 15t12.5 12t5 10.5q0 2 -3 5.5t-8 3.5q-7 0 -15.5 -5t-18 -12
t-19.5 -15l-16 59q24 19 45.5 27.5t43.5 8.5q10 0 23 -2.5t20 -7t16 -15t12 -39.5q0 -17 -5 -28t-12.5 -19.5t-17.5 -15.5t-19 -14.5t-15.5 -17t-10.5 -21.5l-19 -2z" />
    <glyph glyph-name="uni1ED6" unicode="&#x1ed6;" 
d="M542.5 386.5q-17.5 -72.5 -46.5 -133t-67.5 -108t-80.5 -81t-85 -51t-82 -17.5q-33 0 -60 12.5t-47 37t-31.5 63t-11.5 92.5q0 56 14 118t38 123t59 116t77 97.5t90 67.5t100 25q45 0 74.5 -18.5t46 -48t23.5 -66.5t7 -74q0 -82 -17.5 -154.5zM184 204q4 -12 11 -21
t17.5 -15.5t22.5 -6.5q45 0 80 31t58 76t35.5 96t12.5 93q0 12 -1.5 26t-6 26t-14 20.5t-25.5 8.5q-32 0 -59 -16t-48.5 -42.5t-37.5 -60t-27.5 -68t-16.5 -67.5t-5 -57q0 -11 4 -23zM432 848q-15 -16 -30 -33t-30 -33t-25 -27q-13 11 -23 20.5t-16 17.5q-9 9 -15 17
q28 41 58 80q25 33 54.5 69t55.5 62q39 -6 54.5 -5t17.5 -1q8 -27 17.5 -62t18.5 -66l22 -74l-24 -20q-10 -9 -23 -18.5t-25 -18.5l-61 118q-11 -10 -26 -26zM450 1134.5q-14 -8.5 -26.5 -20.5t-24.5 -25t-22 -22q-13 9 -22.5 17t-17.5 14t-14 13l6 13t17 32.5t26.5 42.5
t34.5 42.5t41 33t48 13.5q24 0 42.5 -14t32.5 -30t22.5 -29t13.5 -13q15 0 29 10.5t27 25.5t25 30t22 24q12 -9 22 -17t18 -14t14 -13q-21 -49 -48 -87q-11 -17 -25 -32t-30 -27t-33.5 -19.5t-37.5 -7.5q-24 0 -36.5 10.5t-22.5 23.5t-20.5 23.5t-31.5 10.5q-15 0 -29 -8.5z
" />
    <glyph glyph-name="uni020C" unicode="&#x20c;" 
d="M542.5 386.5q-17.5 -72.5 -46.5 -133t-67.5 -108t-80.5 -81t-85 -51t-82 -17.5q-33 0 -60 12.5t-47 37t-31.5 63t-11.5 92.5q0 56 14 118t38 123t59 116t77 97.5t90 67.5t100 25q45 0 74.5 -18.5t46 -48t23.5 -66.5t7 -74q0 -82 -17.5 -154.5zM184 204q4 -12 11 -21
t17.5 -15.5t22.5 -6.5q45 0 80 31t58 76t35.5 96t12.5 93q0 12 -1.5 26t-6 26t-14 20.5t-25.5 8.5q-32 0 -59 -16t-48.5 -42.5t-37.5 -60t-27.5 -68t-16.5 -67.5t-5 -57q0 -11 4 -23zM379 761q-51 12 -98 24q-41 9 -84 20.5t-72 20.5q6 29 14 70.5t15 80.5q9 46 18 94
q39 -42 78 -82q33 -35 70.5 -75t65.5 -72zM668 736q-51 12 -98 24q-41 9 -84 20.5t-72 20.5q6 29 14 70.5t15 80.5q9 46 18 94q39 -42 78 -82q33 -35 70.5 -75t65.5 -72z" />
    <glyph glyph-name="Odieresis" unicode="&#xd6;" 
d="M542.5 386.5q-17.5 -72.5 -46.5 -133t-67.5 -108t-80.5 -81t-85 -51t-82 -17.5q-33 0 -60 12.5t-47 37t-31.5 63t-11.5 92.5q0 56 14 118t38 123t59 116t77 97.5t90 67.5t100 25q45 0 74.5 -18.5t46 -48t23.5 -66.5t7 -74q0 -82 -17.5 -154.5zM184 204q4 -12 11 -21
t17.5 -15.5t22.5 -6.5q45 0 80 31t58 76t35.5 96t12.5 93q0 12 -1.5 26t-6 26t-14 20.5t-25.5 8.5q-32 0 -59 -16t-48.5 -42.5t-37.5 -60t-27.5 -68t-16.5 -67.5t-5 -57q0 -11 4 -23zM616 902.5q-7 -16.5 -20.5 -29.5t-33 -21.5t-46.5 -8.5q-40 0 -60 26.5t-20 59.5
q0 17 5.5 33t16.5 28t28.5 20t40.5 8q48 0 72 -25t24 -56q0 -18 -7 -34.5zM383.5 902.5q-6.5 -16.5 -20.5 -29.5t-34 -21.5t-45 -8.5q-40 0 -60 26.5t-20 59.5q0 17 5.5 33t16.5 28t28 20t40 8q49 0 72.5 -25t23.5 -56q0 -18 -6.5 -34.5z" />
    <glyph glyph-name="uni022A" unicode="&#x22a;" 
d="M542.5 386.5q-17.5 -72.5 -46.5 -133t-67.5 -108t-80.5 -81t-85 -51t-82 -17.5q-33 0 -60 12.5t-47 37t-31.5 63t-11.5 92.5q0 56 14 118t38 123t59 116t77 97.5t90 67.5t100 25q45 0 74.5 -18.5t46 -48t23.5 -66.5t7 -74q0 -82 -17.5 -154.5zM184 204q4 -12 11 -21
t17.5 -15.5t22.5 -6.5q45 0 80 31t58 76t35.5 96t12.5 93q0 12 -1.5 26t-6 26t-14 20.5t-25.5 8.5q-32 0 -59 -16t-48.5 -42.5t-37.5 -60t-27.5 -68t-16.5 -67.5t-5 -57q0 -11 4 -23zM616 902.5q-7 -16.5 -20.5 -29.5t-33 -21.5t-46.5 -8.5q-40 0 -60 26.5t-20 59.5
q0 17 5.5 33t16.5 28t28.5 20t40.5 8q48 0 72 -25t24 -56q0 -18 -7 -34.5zM383.5 902.5q-6.5 -16.5 -20.5 -29.5t-34 -21.5t-45 -8.5q-40 0 -60 26.5t-20 59.5q0 17 5.5 33t16.5 28t28 20t40 8q49 0 72.5 -25t23.5 -56q0 -18 -6.5 -34.5zM394.5 1076q-32.5 -2 -63.5 -4.5
t-58.5 -5t-47.5 -4.5q-5 17 -6 45t-1 54v40q0 10 1 18l374 32l16 -162q-79 -5 -151 -9q-31 -2 -63.5 -4z" />
    <glyph glyph-name="uni0230" unicode="&#x230;" 
d="M542.5 386.5q-17.5 -72.5 -46.5 -133t-67.5 -108t-80.5 -81t-85 -51t-82 -17.5q-33 0 -60 12.5t-47 37t-31.5 63t-11.5 92.5q0 56 14 118t38 123t59 116t77 97.5t90 67.5t100 25q45 0 74.5 -18.5t46 -48t23.5 -66.5t7 -74q0 -82 -17.5 -154.5zM184 204q4 -12 11 -21
t17.5 -15.5t22.5 -6.5q45 0 80 31t58 76t35.5 96t12.5 93q0 12 -1.5 26t-6 26t-14 20.5t-25.5 8.5q-32 0 -59 -16t-48.5 -42.5t-37.5 -60t-27.5 -68t-16.5 -67.5t-5 -57q0 -11 4 -23zM503.5 856.5q-6.5 -16.5 -20.5 -30t-34 -21.5t-45 -8q-40 0 -60 26t-20 60q0 16 5.5 32
t16.5 28.5t28 20.5t40 8q49 0 72.5 -25t23.5 -57q0 -17 -6.5 -33.5zM398.5 1030q-32.5 -2 -63.5 -4.5t-58.5 -5t-47.5 -4.5q-5 17 -6 45t-1 54v40q0 10 1 18l374 32l16 -162q-79 -5 -151 -9q-31 -2 -63.5 -4z" />
    <glyph glyph-name="uni1ECC" unicode="&#x1ecc;" 
d="M542.5 386.5q-17.5 -72.5 -46.5 -133t-67.5 -108t-80.5 -81t-85 -51t-82 -17.5q-33 0 -60 12.5t-47 37t-31.5 63t-11.5 92.5q0 56 14 118t38 123t59 116t77 97.5t90 67.5t100 25q45 0 74.5 -18.5t46 -48t23.5 -66.5t7 -74q0 -82 -17.5 -154.5zM184 204q4 -12 11 -21
t17.5 -15.5t22.5 -6.5q45 0 80 31t58 76t35.5 96t12.5 93q0 12 -1.5 26t-6 26t-14 20.5t-25.5 8.5q-32 0 -59 -16t-48.5 -42.5t-37.5 -60t-27.5 -68t-16.5 -67.5t-5 -57q0 -11 4 -23zM247.5 -145.5q-6.5 -16.5 -20.5 -30t-34 -21.5t-45 -8q-40 0 -60 26t-20 60q0 16 5.5 32
t16.5 28.5t28 20.5t40 8q49 0 72.5 -25t23.5 -57q0 -17 -6.5 -33.5z" />
    <glyph glyph-name="Ograve" unicode="&#xd2;" 
d="M542.5 386.5q-17.5 -72.5 -46.5 -133t-67.5 -108t-80.5 -81t-85 -51t-82 -17.5q-33 0 -60 12.5t-47 37t-31.5 63t-11.5 92.5q0 56 14 118t38 123t59 116t77 97.5t90 67.5t100 25q45 0 74.5 -18.5t46 -48t23.5 -66.5t7 -74q0 -82 -17.5 -154.5zM184 204q4 -12 11 -21
t17.5 -15.5t22.5 -6.5q45 0 80 31t58 76t35.5 96t12.5 93q0 12 -1.5 26t-6 26t-14 20.5t-25.5 8.5q-32 0 -59 -16t-48.5 -42.5t-37.5 -60t-27.5 -68t-16.5 -67.5t-5 -57q0 -11 4 -23zM453 781q-51 12 -98 24q-41 9 -84 20.5t-72 20.5q6 29 14 70.5t15 80.5q9 46 18 94
q39 -42 78 -82q33 -35 70.5 -75t65.5 -72z" />
    <glyph glyph-name="uni1ECE" unicode="&#x1ece;" 
d="M542.5 386.5q-17.5 -72.5 -46.5 -133t-67.5 -108t-80.5 -81t-85 -51t-82 -17.5q-33 0 -60 12.5t-47 37t-31.5 63t-11.5 92.5q0 56 14 118t38 123t59 116t77 97.5t90 67.5t100 25q45 0 74.5 -18.5t46 -48t23.5 -66.5t7 -74q0 -82 -17.5 -154.5zM184 204q4 -12 11 -21
t17.5 -15.5t22.5 -6.5q45 0 80 31t58 76t35.5 96t12.5 93q0 12 -1.5 26t-6 26t-14 20.5t-25.5 8.5q-32 0 -59 -16t-48.5 -42.5t-37.5 -60t-27.5 -68t-16.5 -67.5t-5 -57q0 -11 4 -23zM397 774q0 17 4.5 31t12.5 24.5t16.5 19t16 15t12.5 12t5 10.5q0 2 -3 5.5t-8 3.5
q-7 0 -15.5 -5t-18 -12t-19.5 -15l-16 59q24 19 45.5 27.5t43.5 8.5q10 0 23 -2.5t20 -7t16 -15t12 -39.5q0 -17 -5 -28t-12.5 -19.5t-17.5 -15.5t-19 -14.5t-15.5 -17t-10.5 -21.5l-19 -2z" />
    <glyph glyph-name="Ohorn" unicode="&#x1a0;" 
d="M542.5 386.5q-17.5 -72.5 -46.5 -133t-67.5 -108t-80.5 -81t-85 -51t-82 -17.5q-33 0 -60 12.5t-47 37t-31.5 63t-11.5 92.5q0 56 14 118t38 123t59 116t77 97.5t90 67.5t100 25q45 0 74.5 -18.5t46 -48t23.5 -66.5t7 -74q0 -82 -17.5 -154.5zM184 204q4 -12 11 -21
t17.5 -15.5t22.5 -6.5q45 0 80 31t58 76t35.5 96t12.5 93q0 12 -1.5 26t-6 26t-14 20.5t-25.5 8.5q-32 0 -59 -16t-48.5 -42.5t-37.5 -60t-27.5 -68t-16.5 -67.5t-5 -57q0 -11 4 -23zM519 612q78 0 79.5 57.5t-0.5 106.5q13 -10 24.5 -20.5t22.5 -19.5q12 -11 22 -20
q4 -64 -30.5 -115.5t-104.5 -60.5z" />
    <glyph glyph-name="uni1EDA" unicode="&#x1eda;" 
d="M542.5 386.5q-17.5 -72.5 -46.5 -133t-67.5 -108t-80.5 -81t-85 -51t-82 -17.5q-33 0 -60 12.5t-47 37t-31.5 63t-11.5 92.5q0 56 14 118t38 123t59 116t77 97.5t90 67.5t100 25q45 0 74.5 -18.5t46 -48t23.5 -66.5t7 -74q0 -82 -17.5 -154.5zM184 204q4 -12 11 -21
t17.5 -15.5t22.5 -6.5q45 0 80 31t58 76t35.5 96t12.5 93q0 12 -1.5 26t-6 26t-14 20.5t-25.5 8.5q-32 0 -59 -16t-48.5 -42.5t-37.5 -60t-27.5 -68t-16.5 -67.5t-5 -57q0 -11 4 -23zM519 612q78 0 79.5 57.5t-0.5 106.5q13 -10 24.5 -20.5t22.5 -19.5q12 -11 22 -20
q4 -64 -30.5 -115.5t-104.5 -60.5zM463 825.5q-68 -24.5 -127 -46.5q-1 11 -1 20v18q0 16 0.5 32.5t0.5 34.5q68 69 128 123t112 111q5 -67 5.5 -125t8.5 -119q-59 -24 -127 -48.5z" />
    <glyph glyph-name="uni1EE2" unicode="&#x1ee2;" 
d="M542.5 386.5q-17.5 -72.5 -46.5 -133t-67.5 -108t-80.5 -81t-85 -51t-82 -17.5q-33 0 -60 12.5t-47 37t-31.5 63t-11.5 92.5q0 56 14 118t38 123t59 116t77 97.5t90 67.5t100 25q45 0 74.5 -18.5t46 -48t23.5 -66.5t7 -74q0 -82 -17.5 -154.5zM184 204q4 -12 11 -21
t17.5 -15.5t22.5 -6.5q45 0 80 31t58 76t35.5 96t12.5 93q0 12 -1.5 26t-6 26t-14 20.5t-25.5 8.5q-32 0 -59 -16t-48.5 -42.5t-37.5 -60t-27.5 -68t-16.5 -67.5t-5 -57q0 -11 4 -23zM519 612q78 0 79.5 57.5t-0.5 106.5q13 -10 24.5 -20.5t22.5 -19.5q12 -11 22 -20
q4 -64 -30.5 -115.5t-104.5 -60.5zM247.5 -145.5q-6.5 -16.5 -20.5 -30t-34 -21.5t-45 -8q-40 0 -60 26t-20 60q0 16 5.5 32t16.5 28.5t28 20.5t40 8q49 0 72.5 -25t23.5 -57q0 -17 -6.5 -33.5z" />
    <glyph glyph-name="uni1EDC" unicode="&#x1edc;" 
d="M542.5 386.5q-17.5 -72.5 -46.5 -133t-67.5 -108t-80.5 -81t-85 -51t-82 -17.5q-33 0 -60 12.5t-47 37t-31.5 63t-11.5 92.5q0 56 14 118t38 123t59 116t77 97.5t90 67.5t100 25q45 0 74.5 -18.5t46 -48t23.5 -66.5t7 -74q0 -82 -17.5 -154.5zM184 204q4 -12 11 -21
t17.5 -15.5t22.5 -6.5q45 0 80 31t58 76t35.5 96t12.5 93q0 12 -1.5 26t-6 26t-14 20.5t-25.5 8.5q-32 0 -59 -16t-48.5 -42.5t-37.5 -60t-27.5 -68t-16.5 -67.5t-5 -57q0 -11 4 -23zM519 612q78 0 79.5 57.5t-0.5 106.5q13 -10 24.5 -20.5t22.5 -19.5q12 -11 22 -20
q4 -64 -30.5 -115.5t-104.5 -60.5zM453 781q-51 12 -98 24q-41 9 -84 20.5t-72 20.5q6 29 14 70.5t15 80.5q9 46 18 94q39 -42 78 -82q33 -35 70.5 -75t65.5 -72z" />
    <glyph glyph-name="uni1EDE" unicode="&#x1ede;" 
d="M542.5 386.5q-17.5 -72.5 -46.5 -133t-67.5 -108t-80.5 -81t-85 -51t-82 -17.5q-33 0 -60 12.5t-47 37t-31.5 63t-11.5 92.5q0 56 14 118t38 123t59 116t77 97.5t90 67.5t100 25q45 0 74.5 -18.5t46 -48t23.5 -66.5t7 -74q0 -82 -17.5 -154.5zM184 204q4 -12 11 -21
t17.5 -15.5t22.5 -6.5q45 0 80 31t58 76t35.5 96t12.5 93q0 12 -1.5 26t-6 26t-14 20.5t-25.5 8.5q-32 0 -59 -16t-48.5 -42.5t-37.5 -60t-27.5 -68t-16.5 -67.5t-5 -57q0 -11 4 -23zM519 612q78 0 79.5 57.5t-0.5 106.5q13 -10 24.5 -20.5t22.5 -19.5q12 -11 22 -20
q4 -64 -30.5 -115.5t-104.5 -60.5zM397 774q0 17 4.5 31t12.5 24.5t16.5 19t16 15t12.5 12t5 10.5q0 2 -3 5.5t-8 3.5q-7 0 -15.5 -5t-18 -12t-19.5 -15l-16 59q24 19 45.5 27.5t43.5 8.5q10 0 23 -2.5t20 -7t16 -15t12 -39.5q0 -17 -5 -28t-12.5 -19.5t-17.5 -15.5
t-19 -14.5t-15.5 -17t-10.5 -21.5l-19 -2z" />
    <glyph glyph-name="uni1EE0" unicode="&#x1ee0;" 
d="M542.5 386.5q-17.5 -72.5 -46.5 -133t-67.5 -108t-80.5 -81t-85 -51t-82 -17.5q-33 0 -60 12.5t-47 37t-31.5 63t-11.5 92.5q0 56 14 118t38 123t59 116t77 97.5t90 67.5t100 25q45 0 74.5 -18.5t46 -48t23.5 -66.5t7 -74q0 -82 -17.5 -154.5zM184 204q4 -12 11 -21
t17.5 -15.5t22.5 -6.5q45 0 80 31t58 76t35.5 96t12.5 93q0 12 -1.5 26t-6 26t-14 20.5t-25.5 8.5q-32 0 -59 -16t-48.5 -42.5t-37.5 -60t-27.5 -68t-16.5 -67.5t-5 -57q0 -11 4 -23zM519 612q78 0 79.5 57.5t-0.5 106.5q13 -10 24.5 -20.5t22.5 -19.5q12 -11 22 -20
q4 -64 -30.5 -115.5t-104.5 -60.5zM368 863.5q-14 -8.5 -26.5 -20.5t-24.5 -25t-22 -22q-13 9 -22.5 17t-17.5 14t-14 13l6 13t17 32.5t26.5 42.5t34.5 42.5t41 33t48 13.5q24 0 42.5 -14t32.5 -30t22.5 -29t13.5 -13q15 0 29 10.5t27 25.5t25 30t22 24q12 -9 22 -17t18 -14
t14 -13q-21 -49 -48 -87q-11 -17 -25 -32t-30 -27t-33.5 -19.5t-37.5 -7.5q-24 0 -36.5 10.5t-22.5 23.5t-20.5 23.5t-31.5 10.5q-15 0 -29 -8.5z" />
    <glyph glyph-name="Ohungarumlaut" unicode="&#x150;" 
d="M542.5 386.5q-17.5 -72.5 -46.5 -133t-67.5 -108t-80.5 -81t-85 -51t-82 -17.5q-33 0 -60 12.5t-47 37t-31.5 63t-11.5 92.5q0 56 14 118t38 123t59 116t77 97.5t90 67.5t100 25q45 0 74.5 -18.5t46 -48t23.5 -66.5t7 -74q0 -82 -17.5 -154.5zM184 204q4 -12 11 -21
t17.5 -15.5t22.5 -6.5q45 0 80 31t58 76t35.5 96t12.5 93q0 12 -1.5 26t-6 26t-14 20.5t-25.5 8.5q-32 0 -59 -16t-48.5 -42.5t-37.5 -60t-27.5 -68t-16.5 -67.5t-5 -57q0 -11 4 -23zM574.5 818.5q-58.5 -24.5 -116.5 -46.5q-6 14 -10 23t-8 17.5t-15.5 18t-2.5 22.5
q43 64 84.5 129t86.5 128q26 -61 49.5 -122t49.5 -121q-59 -24 -117.5 -48.5zM288.5 818.5q-58.5 -24.5 -116.5 -46.5q-6 14 -10 23t-8 17.5t-8 17.5t-11 23q43 65 85 129.5t87 127.5q26 -61 49.5 -122t49.5 -121q-59 -24 -117.5 -48.5z" />
    <glyph glyph-name="uni020E" unicode="&#x20e;" 
d="M542.5 386.5q-17.5 -72.5 -46.5 -133t-67.5 -108t-80.5 -81t-85 -51t-82 -17.5q-33 0 -60 12.5t-47 37t-31.5 63t-11.5 92.5q0 56 14 118t38 123t59 116t77 97.5t90 67.5t100 25q45 0 74.5 -18.5t46 -48t23.5 -66.5t7 -74q0 -82 -17.5 -154.5zM184 204q4 -12 11 -21
t17.5 -15.5t22.5 -6.5q45 0 80 31t58 76t35.5 96t12.5 93q0 12 -1.5 26t-6 26t-14 20.5t-25.5 8.5q-32 0 -59 -16t-48.5 -42.5t-37.5 -60t-27.5 -68t-16.5 -67.5t-5 -57q0 -11 4 -23zM303 913q29 47 61.5 70t74.5 23q55 0 90.5 -56t31.5 -120q-10 -9 -22 -20
q-11 -9 -22.5 -19.5t-24.5 -20.5q2 49 -10.5 78.5t-50.5 29.5q-32 0 -48.5 -14.5t-29.5 -38.5t-33 -65q-13 11 -23 19.5t-18 16.5l-16 16q11 54 40 101z" />
    <glyph glyph-name="Omacron" unicode="&#x14c;" 
d="M542.5 386.5q-17.5 -72.5 -46.5 -133t-67.5 -108t-80.5 -81t-85 -51t-82 -17.5q-33 0 -60 12.5t-47 37t-31.5 63t-11.5 92.5q0 56 14 118t38 123t59 116t77 97.5t90 67.5t100 25q45 0 74.5 -18.5t46 -48t23.5 -66.5t7 -74q0 -82 -17.5 -154.5zM184 204q4 -12 11 -21
t17.5 -15.5t22.5 -6.5q45 0 80 31t58 76t35.5 96t12.5 93q0 12 -1.5 26t-6 26t-14 20.5t-25.5 8.5q-32 0 -59 -16t-48.5 -42.5t-37.5 -60t-27.5 -68t-16.5 -67.5t-5 -57q0 -11 4 -23zM394.5 808q-32.5 -2 -63.5 -4.5t-58.5 -5t-47.5 -4.5q-5 17 -6 45t-1 54v40q0 10 1 18
l374 32l16 -162q-79 -5 -151 -9q-31 -2 -63.5 -4z" />
    <glyph glyph-name="uni01EA" unicode="&#x1ea;" 
d="M542.5 386.5q-17.5 -72.5 -46.5 -133t-67.5 -108t-80.5 -81t-85 -51t-82 -17.5q-33 0 -60 12.5t-47 37t-31.5 63t-11.5 92.5q0 56 14 118t38 123t59 116t77 97.5t90 67.5t100 25q45 0 74.5 -18.5t46 -48t23.5 -66.5t7 -74q0 -82 -17.5 -154.5zM184 204q4 -12 11 -21
t17.5 -15.5t22.5 -6.5q45 0 80 31t58 76t35.5 96t12.5 93q0 12 -1.5 26t-6 26t-14 20.5t-25.5 8.5q-32 0 -59 -16t-48.5 -42.5t-37.5 -60t-27.5 -68t-16.5 -67.5t-5 -57q0 -11 4 -23zM303.5 -125q-22.5 -9 -45.5 -9q-30 0 -54.5 7.5t-42.5 20.5t-28 30.5t-10 38.5
q0 39 40 78q1 0 10 1.5l21 3.5t29 4q-4 -18 -4 -30q0 -25 14.5 -41t35.5 -16q28 0 53 28l20 -88q-16 -19 -38.5 -28z" />
    <glyph glyph-name="Oslash" unicode="&#xd8;" 
d="M49 -8l-50 48l48 56q-16 45 -16 105q0 56 14 118t38 123t59 116t77 97.5t90 67.5t100 25q39 0 66 -14t45 -38l35 46l51 -38l17 20l-73 -94q5 -22 7.5 -44.5t2.5 -44.5q0 -82 -17.5 -154.5t-46.5 -133t-67.5 -108t-80.5 -81t-85 -51t-82 -17.5q-60 0 -99 39zM247 168
q28 0 53.5 15t47 39t38 55.5t29 63t18.5 62.5t6 54q0 16 -2 27l-241 -303q26 -13 51 -13zM173.5 258.5q0.5 -6.5 1.5 -12.5l238 287q-25 43 -59 43q-32 0 -63.5 -29.5t-58 -75t-43 -99.5t-16.5 -101q0 -6 0.5 -12.5z" />
    <glyph glyph-name="Oslashacute" unicode="&#x1fe;" 
d="M49 -8l-50 48l48 56q-16 45 -16 105q0 56 14 118t38 123t59 116t77 97.5t90 67.5t100 25q39 0 66 -14t45 -38l35 46l51 -38l17 20l-73 -94q5 -22 7.5 -44.5t2.5 -44.5q0 -82 -17.5 -154.5t-46.5 -133t-67.5 -108t-80.5 -81t-85 -51t-82 -17.5q-60 0 -99 39zM247 168
q28 0 53.5 15t47 39t38 55.5t29 63t18.5 62.5t6 54q0 16 -2 27l-241 -303q26 -13 51 -13zM173.5 258.5q0.5 -6.5 1.5 -12.5l238 287q-25 43 -59 43q-32 0 -63.5 -29.5t-58 -75t-43 -99.5t-16.5 -101q0 -6 0.5 -12.5zM458 823.5q-68 -24.5 -127 -46.5q-1 11 -1 20v18
q0 16 0.5 32.5t0.5 34.5q68 69 128 123t112 111q5 -67 5.5 -125t8.5 -119q-59 -24 -127 -48.5z" />
    <glyph glyph-name="Otilde" unicode="&#xd5;" 
d="M542.5 386.5q-17.5 -72.5 -46.5 -133t-67.5 -108t-80.5 -81t-85 -51t-82 -17.5q-33 0 -60 12.5t-47 37t-31.5 63t-11.5 92.5q0 56 14 118t38 123t59 116t77 97.5t90 67.5t100 25q45 0 74.5 -18.5t46 -48t23.5 -66.5t7 -74q0 -82 -17.5 -154.5zM184 204q4 -12 11 -21
t17.5 -15.5t22.5 -6.5q45 0 80 31t58 76t35.5 96t12.5 93q0 12 -1.5 26t-6 26t-14 20.5t-25.5 8.5q-32 0 -59 -16t-48.5 -42.5t-37.5 -60t-27.5 -68t-16.5 -67.5t-5 -57q0 -11 4 -23zM368 863.5q-14 -8.5 -26.5 -20.5t-24.5 -25t-22 -22q-13 9 -22.5 17t-17.5 14t-14 13
l6 13t17 32.5t26.5 42.5t34.5 42.5t41 33t48 13.5q24 0 42.5 -14t32.5 -30t22.5 -29t13.5 -13q15 0 29 10.5t27 25.5t25 30t22 24q12 -9 22 -17t18 -14t14 -13q-21 -49 -48 -87q-11 -17 -25 -32t-30 -27t-33.5 -19.5t-37.5 -7.5q-24 0 -36.5 10.5t-22.5 23.5t-20.5 23.5
t-31.5 10.5q-15 0 -29 -8.5z" />
    <glyph glyph-name="uni022C" unicode="&#x22c;" 
d="M542.5 386.5q-17.5 -72.5 -46.5 -133t-67.5 -108t-80.5 -81t-85 -51t-82 -17.5q-33 0 -60 12.5t-47 37t-31.5 63t-11.5 92.5q0 56 14 118t38 123t59 116t77 97.5t90 67.5t100 25q45 0 74.5 -18.5t46 -48t23.5 -66.5t7 -74q0 -82 -17.5 -154.5zM184 204q4 -12 11 -21
t17.5 -15.5t22.5 -6.5q45 0 80 31t58 76t35.5 96t12.5 93q0 12 -1.5 26t-6 26t-14 20.5t-25.5 8.5q-32 0 -59 -16t-48.5 -42.5t-37.5 -60t-27.5 -68t-16.5 -67.5t-5 -57q0 -11 4 -23zM368 863.5q-14 -8.5 -26.5 -20.5t-24.5 -25t-22 -22q-13 9 -22.5 17t-17.5 14t-14 13
l6 13t17 32.5t26.5 42.5t34.5 42.5t41 33t48 13.5q24 0 42.5 -14t32.5 -30t22.5 -29t13.5 -13q15 0 29 10.5t27 25.5t25 30t22 24q12 -9 22 -17t18 -14t14 -13q-21 -49 -48 -87q-11 -17 -25 -32t-30 -27t-33.5 -19.5t-37.5 -7.5q-24 0 -36.5 10.5t-22.5 23.5t-20.5 23.5
t-31.5 10.5q-15 0 -29 -8.5zM441.5 1079q-32.5 -2 -63.5 -4.5t-58.5 -5t-47.5 -4.5q-5 17 -6 45t-1 54v40q0 10 1 18l374 32l16 -162q-79 -5 -151 -9q-31 -2 -63.5 -4z" />
    <glyph glyph-name="OE" unicode="&#x152;" horiz-adv-x="561" 
d="M248 10q-58 0 -98 17.5t-65.5 47.5t-37.5 71.5t-12 87.5q0 50 13 105t35.5 107t55 100t72 85t84.5 61t94 28l286 19q-7 -22 -12 -45q-5 -19 -10 -39.5t-7 -36.5h-12q-22 0 -53.5 2.5t-59.5 2.5l-35 -180q18 -1 35 -1q15 -1 32 -1h31h16q-4 -28 -7.5 -55t-8.5 -55
q-4 0 -8.5 -0.5t-9.5 -0.5q-13 0 -29.5 0.5t-32.5 1.5t-31 2l-35 -185l123 16l-10 -114l-293 -41h-10zM199.5 199.5q21.5 -28.5 70.5 -28.5h8t9 1l69 374q-32 -5 -63.5 -33.5t-57.5 -69t-41.5 -87t-15.5 -86.5q0 -42 21.5 -70.5z" />
    <glyph glyph-name="P" unicode="P" horiz-adv-x="379" 
d="M-3 -1q30 135 57 264q11 54 23 114t23 118t21 112t17 99q29 9 57 15.5t57.5 11.5t55.5 5q45 0 75.5 -15t49.5 -40.5t27 -59.5t8 -73q0 -56 -20.5 -108t-55 -92.5t-79 -64.5t-92.5 -24h-11q-8 -34 -15 -74t-12 -74q-7 -40 -13 -80zM254 492q-11 -59 -24 -126
q16 4 33.5 18.5t32.5 38t24 54.5t9 65q0 37 -16.5 56t-36.5 19q-11 -66 -22 -125z" />
    <glyph glyph-name="Thorn" unicode="&#xde;" horiz-adv-x="386" 
d="M1 -1q30 142 57 276q11 58 23 119.5t23 121t21 115t17 99.5q42 5 74.5 8.5t59 6.5t32.5 3l-21 -100q46 0 78 -15.5t52.5 -42t29.5 -61.5t9 -74q0 -56 -21 -107t-55.5 -90.5t-79 -63t-91.5 -23.5h-11q-8 -34 -12 -59.5t-7 -43.5q-4 -20 -5 -35zM242 402q-11 -59 -23 -126
q15 4 33 19t32.5 38t23.5 54t9 65q0 37 -16.5 56t-35.5 19q-12 -66 -23 -125z" />
    <glyph glyph-name="Q" unicode="Q" horiz-adv-x="525" 
d="M486.5 -4.5q-20.5 -25.5 -35.5 -43.5q-20 28 -41.5 57t-41.5 59l-5 8q-46 -39 -92.5 -59.5t-89.5 -20.5q-33 0 -60 12.5t-47 37t-31.5 63t-11.5 92.5q0 56 14 118t38 123t59 116t77 97.5t90 67.5t100 25q45 0 74.5 -18.5t46 -48t23.5 -66.5t7 -74q0 -98 -24 -180.5
t-62 -148.5l95 -112q-22 -29 -44 -56q-18 -23 -38.5 -48.5zM184 204q4 -12 11 -21t17.5 -15.5t22.5 -6.5q35 0 64 19l-40 66q42 32 64.5 50l32.5 26q12 10 14 12l22 -25q13 37 21 76t8 72q0 12 -1.5 26t-6 26t-14 20.5t-25.5 8.5q-32 0 -59 -16t-48.5 -42.5t-37.5 -60
t-27.5 -68t-16.5 -67.5t-5 -57q0 -11 4 -23z" />
    <glyph glyph-name="R" unicode="R" horiz-adv-x="444" 
d="M4 -1q27 133 52 260q9 54 20 112.5t20.5 116t18 111t13.5 97.5q57 18 123 26.5t131 8.5q39 0 64.5 -9t40 -25.5t20.5 -38.5t6 -49q0 -40 -14 -78.5t-37.5 -73t-54 -63t-65.5 -46.5q18 -40 38.5 -87.5t38.5 -90.5q20 -50 41 -100l-155 -54q-20 69 -36 130q-7 25 -14 51.5
t-13 50t-10 41.5t-5 28l-13 -4q-6 -32 -14.5 -78t-15.5 -89q-9 -51 -18 -105zM239 433q19 2 46.5 16t52.5 33.5t43 40.5t18 37q0 11 -7 17.5t-19.5 10t-27.5 4.5t-31 1q-11 0 -22.5 -0.5t-20.5 -0.5z" />
    <glyph glyph-name="Racute" unicode="&#x154;" horiz-adv-x="444" 
d="M4 -1q27 133 52 260q9 54 20 112.5t20.5 116t18 111t13.5 97.5q57 18 123 26.5t131 8.5q39 0 64.5 -9t40 -25.5t20.5 -38.5t6 -49q0 -40 -14 -78.5t-37.5 -73t-54 -63t-65.5 -46.5q18 -40 38.5 -87.5t38.5 -90.5q20 -50 41 -100l-155 -54q-20 69 -36 130q-7 25 -14 51.5
t-13 50t-10 41.5t-5 28l-13 -4q-6 -32 -14.5 -78t-15.5 -89q-9 -51 -18 -105zM239 433q19 2 46.5 16t52.5 33.5t43 40.5t18 37q0 11 -7 17.5t-19.5 10t-27.5 4.5t-31 1q-11 0 -22.5 -0.5t-20.5 -0.5zM417 796.5q-68 -24.5 -127 -46.5q-1 11 -1 20v18q0 16 0.5 32.5t0.5 34.5
q68 69 128 123t112 111q5 -67 5.5 -125t8.5 -119q-59 -24 -127 -48.5z" />
    <glyph glyph-name="Rcaron" unicode="&#x158;" horiz-adv-x="444" 
d="M4 -1q27 133 52 260q9 54 20 112.5t20.5 116t18 111t13.5 97.5q57 18 123 26.5t131 8.5q39 0 64.5 -9t40 -25.5t20.5 -38.5t6 -49q0 -40 -14 -78.5t-37.5 -73t-54 -63t-65.5 -46.5q18 -40 38.5 -87.5t38.5 -90.5q20 -50 41 -100l-155 -54q-20 69 -36 130q-7 25 -14 51.5
t-13 50t-10 41.5t-5 28l-13 -4q-6 -32 -14.5 -78t-15.5 -89q-9 -51 -18 -105zM239 433q19 2 46.5 16t52.5 33.5t43 40.5t18 37q0 11 -7 17.5t-19.5 10t-27.5 4.5t-31 1q-11 0 -22.5 -0.5t-20.5 -0.5zM412 821q-28 -38 -53 -65q-13 1 -24 1.5t-18 0.5q-10 0 -16 -0.5
t-10 -0.5t-4 1q-9 26 -20.5 60.5t-22.5 65.5q-12 36 -25 73q11 10 22 21q11 9 23 19.5t24 20.5l67 -115q10 11 24 28t28.5 34.5t28 34t24.5 28.5q13 -11 23 -20t18 -17l16 -15q-27 -43 -54 -83q-23 -34 -51 -72z" />
    <glyph glyph-name="Rcommaaccent" unicode="&#x156;" horiz-adv-x="444" 
d="M4 -1q27 133 52 260q9 54 20 112.5t20.5 116t18 111t13.5 97.5q57 18 123 26.5t131 8.5q39 0 64.5 -9t40 -25.5t20.5 -38.5t6 -49q0 -40 -14 -78.5t-37.5 -73t-54 -63t-65.5 -46.5q18 -40 38.5 -87.5t38.5 -90.5q20 -50 41 -100l-155 -54q-20 69 -36 130q-7 25 -14 51.5
t-13 50t-10 41.5t-5 28l-13 -4q-6 -32 -14.5 -78t-15.5 -89q-9 -51 -18 -105zM239 433q19 2 46.5 16t52.5 33.5t43 40.5t18 37q0 11 -7 17.5t-19.5 10t-27.5 4.5t-31 1q-11 0 -22.5 -0.5t-20.5 -0.5zM61 -356q8 40 17 81.5t17 80t14.5 71.5t9.5 58q8 0 25.5 -0.5t26.5 -0.5
h36.5t45 1t47.5 2q-8 -37 -21.5 -87.5t-28.5 -100.5t-32 -105h-157z" />
    <glyph glyph-name="uni0210" unicode="&#x210;" horiz-adv-x="444" 
d="M4 -1q27 133 52 260q9 54 20 112.5t20.5 116t18 111t13.5 97.5q57 18 123 26.5t131 8.5q39 0 64.5 -9t40 -25.5t20.5 -38.5t6 -49q0 -40 -14 -78.5t-37.5 -73t-54 -63t-65.5 -46.5q18 -40 38.5 -87.5t38.5 -90.5q20 -50 41 -100l-155 -54q-20 69 -36 130q-7 25 -14 51.5
t-13 50t-10 41.5t-5 28l-13 -4q-6 -32 -14.5 -78t-15.5 -89q-9 -51 -18 -105zM239 433q19 2 46.5 16t52.5 33.5t43 40.5t18 37q0 11 -7 17.5t-19.5 10t-27.5 4.5t-31 1q-11 0 -22.5 -0.5t-20.5 -0.5zM333 732q-51 12 -98 24q-41 9 -84 20.5t-72 20.5q6 29 14 70.5t15 80.5
q9 46 18 94q39 -42 78 -82q33 -35 70.5 -75t65.5 -72zM622 707q-51 12 -98 24q-41 9 -84 20.5t-72 20.5q6 29 14 70.5t15 80.5q9 46 18 94q39 -42 78 -82q33 -35 70.5 -75t65.5 -72z" />
    <glyph glyph-name="uni0212" unicode="&#x212;" horiz-adv-x="444" 
d="M4 -1q27 133 52 260q9 54 20 112.5t20.5 116t18 111t13.5 97.5q57 18 123 26.5t131 8.5q39 0 64.5 -9t40 -25.5t20.5 -38.5t6 -49q0 -40 -14 -78.5t-37.5 -73t-54 -63t-65.5 -46.5q18 -40 38.5 -87.5t38.5 -90.5q20 -50 41 -100l-155 -54q-20 69 -36 130q-7 25 -14 51.5
t-13 50t-10 41.5t-5 28l-13 -4q-6 -32 -14.5 -78t-15.5 -89q-9 -51 -18 -105zM239 433q19 2 46.5 16t52.5 33.5t43 40.5t18 37q0 11 -7 17.5t-19.5 10t-27.5 4.5t-31 1q-11 0 -22.5 -0.5t-20.5 -0.5zM257 884q29 47 61.5 70t74.5 23q55 0 90.5 -56t31.5 -120q-10 -9 -22 -20
q-11 -9 -22.5 -19.5t-24.5 -20.5q2 49 -10.5 78.5t-50.5 29.5q-32 0 -48.5 -14.5t-29.5 -38.5t-33 -65q-13 11 -23 19.5t-18 16.5l-16 16q11 54 40 101z" />
    <glyph glyph-name="S" unicode="S" horiz-adv-x="430" 
d="M421.5 145.5q-21.5 -45.5 -58 -78.5t-86 -51t-106.5 -18q-40 0 -80 21.5t-77 68.5l74 145q7 -13 21 -26.5t31.5 -23.5t35 -16.5t31.5 -6.5q12 0 25 4t24 12t17.5 18.5t6.5 24.5q0 24 -15.5 44.5t-38.5 39t-50 37.5t-49.5 40t-38.5 47t-16 58q0 52 31 97t77.5 77.5
t101.5 51.5t104 19q27 0 51 -6.5t41.5 -21t28 -36.5t10.5 -55q0 -14 -2.5 -28t-4.5 -30l-145 -42q2 8 3.5 16t1.5 16q0 30 -10.5 43.5t-27.5 13.5q-8 0 -19.5 -6t-23 -15.5t-19.5 -22.5t-8 -28q0 -24 13.5 -40t33.5 -30t43.5 -28.5t43.5 -37.5t33.5 -57.5t13.5 -87.5
q0 -56 -21.5 -101.5z" />
    <glyph glyph-name="Sacute" unicode="&#x15a;" horiz-adv-x="430" 
d="M421.5 145.5q-21.5 -45.5 -58 -78.5t-86 -51t-106.5 -18q-40 0 -80 21.5t-77 68.5l74 145q7 -13 21 -26.5t31.5 -23.5t35 -16.5t31.5 -6.5q12 0 25 4t24 12t17.5 18.5t6.5 24.5q0 24 -15.5 44.5t-38.5 39t-50 37.5t-49.5 40t-38.5 47t-16 58q0 52 31 97t77.5 77.5
t101.5 51.5t104 19q27 0 51 -6.5t41.5 -21t28 -36.5t10.5 -55q0 -14 -2.5 -28t-4.5 -30l-145 -42q2 8 3.5 16t1.5 16q0 30 -10.5 43.5t-27.5 13.5q-8 0 -19.5 -6t-23 -15.5t-19.5 -22.5t-8 -28q0 -24 13.5 -40t33.5 -30t43.5 -28.5t43.5 -37.5t33.5 -57.5t13.5 -87.5
q0 -56 -21.5 -101.5zM417 796.5q-68 -24.5 -127 -46.5q-1 11 -1 20v18q0 16 0.5 32.5t0.5 34.5q68 69 128 123t112 111q5 -67 5.5 -125t8.5 -119q-59 -24 -127 -48.5z" />
    <glyph glyph-name="Scaron" unicode="&#x160;" horiz-adv-x="430" 
d="M421.5 145.5q-21.5 -45.5 -58 -78.5t-86 -51t-106.5 -18q-40 0 -80 21.5t-77 68.5l74 145q7 -13 21 -26.5t31.5 -23.5t35 -16.5t31.5 -6.5q12 0 25 4t24 12t17.5 18.5t6.5 24.5q0 24 -15.5 44.5t-38.5 39t-50 37.5t-49.5 40t-38.5 47t-16 58q0 52 31 97t77.5 77.5
t101.5 51.5t104 19q27 0 51 -6.5t41.5 -21t28 -36.5t10.5 -55q0 -14 -2.5 -28t-4.5 -30l-145 -42q2 8 3.5 16t1.5 16q0 30 -10.5 43.5t-27.5 13.5q-8 0 -19.5 -6t-23 -15.5t-19.5 -22.5t-8 -28q0 -24 13.5 -40t33.5 -30t43.5 -28.5t43.5 -37.5t33.5 -57.5t13.5 -87.5
q0 -56 -21.5 -101.5zM412 821q-28 -38 -53 -65q-13 1 -24 1.5t-18 0.5q-10 0 -16 -0.5t-10 -0.5t-4 1q-9 26 -20.5 60.5t-22.5 65.5q-12 36 -25 73q11 10 22 21q11 9 23 19.5t24 20.5l67 -115q10 11 24 28t28.5 34.5t28 34t24.5 28.5q13 -11 23 -20t18 -17l16 -15
q-27 -43 -54 -83q-23 -34 -51 -72z" />
    <glyph glyph-name="Scedilla" unicode="&#x15e;" horiz-adv-x="430" 
d="M421.5 145.5q-21.5 -45.5 -58 -78.5t-86 -51t-106.5 -18q-40 0 -80 21.5t-77 68.5l74 145q7 -13 21 -26.5t31.5 -23.5t35 -16.5t31.5 -6.5q12 0 25 4t24 12t17.5 18.5t6.5 24.5q0 24 -15.5 44.5t-38.5 39t-50 37.5t-49.5 40t-38.5 47t-16 58q0 52 31 97t77.5 77.5
t101.5 51.5t104 19q27 0 51 -6.5t41.5 -21t28 -36.5t10.5 -55q0 -14 -2.5 -28t-4.5 -30l-145 -42q2 8 3.5 16t1.5 16q0 30 -10.5 43.5t-27.5 13.5q-8 0 -19.5 -6t-23 -15.5t-19.5 -22.5t-8 -28q0 -24 13.5 -40t33.5 -30t43.5 -28.5t43.5 -37.5t33.5 -57.5t13.5 -87.5
q0 -56 -21.5 -101.5zM314.5 -106.5q-10.5 -17.5 -28.5 -30.5t-42.5 -20.5t-53.5 -7.5q-24 0 -46.5 9t-37.5 28l19 88q26 -28 53 -28q22 0 36.5 16t14.5 41q0 12 -5 30q18 -2 29.5 -4t21 -3.5t10.5 -1.5q40 -39 40 -78q0 -21 -10.5 -38.5z" />
    <glyph glyph-name="Scircumflex" unicode="&#x15c;" horiz-adv-x="430" 
d="M421.5 145.5q-21.5 -45.5 -58 -78.5t-86 -51t-106.5 -18q-40 0 -80 21.5t-77 68.5l74 145q7 -13 21 -26.5t31.5 -23.5t35 -16.5t31.5 -6.5q12 0 25 4t24 12t17.5 18.5t6.5 24.5q0 24 -15.5 44.5t-38.5 39t-50 37.5t-49.5 40t-38.5 47t-16 58q0 52 31 97t77.5 77.5
t101.5 51.5t104 19q27 0 51 -6.5t41.5 -21t28 -36.5t10.5 -55q0 -14 -2.5 -28t-4.5 -30l-145 -42q2 8 3.5 16t1.5 16q0 30 -10.5 43.5t-27.5 13.5q-8 0 -19.5 -6t-23 -15.5t-19.5 -22.5t-8 -28q0 -24 13.5 -40t33.5 -30t43.5 -28.5t43.5 -37.5t33.5 -57.5t13.5 -87.5
q0 -56 -21.5 -101.5zM384 843q-15 -16 -30 -33t-30 -33t-25 -27q-13 11 -23 20.5t-16 17.5q-9 9 -15 17q28 41 58 80q25 33 54.5 69t55.5 62q39 -6 54.5 -5t17.5 -1q8 -27 17.5 -62t18.5 -66l22 -74l-24 -20q-10 -9 -23 -18.5t-25 -18.5l-61 118q-11 -10 -26 -26z" />
    <glyph glyph-name="Scommaaccent" unicode="&#x218;" horiz-adv-x="430" 
d="M421.5 145.5q-21.5 -45.5 -58 -78.5t-86 -51t-106.5 -18q-40 0 -80 21.5t-77 68.5l74 145q7 -13 21 -26.5t31.5 -23.5t35 -16.5t31.5 -6.5q12 0 25 4t24 12t17.5 18.5t6.5 24.5q0 24 -15.5 44.5t-38.5 39t-50 37.5t-49.5 40t-38.5 47t-16 58q0 52 31 97t77.5 77.5
t101.5 51.5t104 19q27 0 51 -6.5t41.5 -21t28 -36.5t10.5 -55q0 -14 -2.5 -28t-4.5 -30l-145 -42q2 8 3.5 16t1.5 16q0 30 -10.5 43.5t-27.5 13.5q-8 0 -19.5 -6t-23 -15.5t-19.5 -22.5t-8 -28q0 -24 13.5 -40t33.5 -30t43.5 -28.5t43.5 -37.5t33.5 -57.5t13.5 -87.5
q0 -56 -21.5 -101.5zM53 -356q8 40 17 81.5t17 80t14.5 71.5t9.5 58q8 0 25.5 -0.5t26.5 -0.5h36.5t45 1t47.5 2q-8 -37 -21.5 -87.5t-28.5 -100.5t-32 -105h-157z" />
    <glyph glyph-name="uni1E9E" unicode="&#x1e9e;" horiz-adv-x="625" 
d="M611 363q24 -66 24 -116q0 -79 -31.5 -133t-80 -80t-101.5 -26q-34 0 -69 14t-60.5 35.5t-33.5 40.5l65 145q10 -37 35.5 -61.5t52.5 -24.5q29 0 48 20t19 54q0 44 -28.5 101.5t-58.5 87.5l96 84q-11 43 -41 71.5t-70 28.5q-37 0 -58.5 -27.5t-35.5 -97.5l-84 -450
l-166 -19l109 504q24 109 82 168t168 59q48 0 96 -25t82.5 -68t45.5 -92l-3 -33l-63 -46q37 -48 61 -114z" />
    <glyph glyph-name="uni018F" unicode="&#x18f;" horiz-adv-x="585" 
d="M475 718q58 -33 93.5 -104t35.5 -178q0 -110 -41.5 -211t-115.5 -163t-167 -62q-60 0 -107.5 34t-73.5 93t-26 131q0 82 35 172h325q-5 68 -28.5 108t-58.5 40q-21 0 -48.5 -23.5t-32.5 -41.5l-107 108q14 38 46 68t70.5 46t72.5 16q70 0 128 -33zM369.5 191.5
q40.5 46.5 55.5 118.5h-213q-10 -27 -10 -49q0 -52 17 -84t50 -32q60 0 100.5 46.5z" />
    <glyph glyph-name="T" unicode="T" horiz-adv-x="362" 
d="M90 -1q23 110 44 217q9 45 18 94t17.5 96.5t15 92t11.5 81.5q-23 3 -46.5 2t-46.5 6q1 16 1 37t1 42q1 23 2 49q26 -2 52 -3t52 -1q51 0 98.5 2.5t88 6t79.5 8.5l-11 -54q-5 -23 -9.5 -47t-8.5 -41q-22 -6 -44.5 -8.5t-44.5 -6.5q-7 -34 -15 -75.5t-15.5 -86t-14.5 -90.5
t-14 -88q-16 -99 -30 -205z" />
    <glyph glyph-name="Tbar" unicode="&#x166;" horiz-adv-x="362" 
d="M90 -1q23 110 44 217q9 45 18 94t17.5 96.5t15 92t11.5 81.5q-23 3 -46.5 2t-46.5 6q1 16 1 37t1 42q1 23 2 49q26 -2 52 -3t52 -1q51 0 98.5 2.5t88 6t79.5 8.5l-11 -54q-5 -23 -9.5 -47t-8.5 -41q-22 -6 -44.5 -8.5t-44.5 -6.5q-7 -34 -15 -75.5t-15.5 -86t-14.5 -90.5
t-14 -88q-16 -99 -30 -205zM365 238q-35 1 -66.5 2t-64 1.5t-54.5 0.5q-18 0 -41.5 -0.5t-47.5 -1.5t-50 -1l48 177q27 -1 51.5 -2t49.5 -1.5t42 -0.5q21 0 50 0.5t57.5 1.5t59.5 3z" />
    <glyph glyph-name="Tcaron" unicode="&#x164;" horiz-adv-x="362" 
d="M90 -1q23 110 44 217q9 45 18 94t17.5 96.5t15 92t11.5 81.5q-23 3 -46.5 2t-46.5 6q1 16 1 37t1 42q1 23 2 49q26 -2 52 -3t52 -1q51 0 98.5 2.5t88 6t79.5 8.5l-11 -54q-5 -23 -9.5 -47t-8.5 -41q-22 -6 -44.5 -8.5t-44.5 -6.5q-7 -34 -15 -75.5t-15.5 -86t-14.5 -90.5
t-14 -88q-16 -99 -30 -205zM366 821q-28 -38 -53 -65q-13 1 -24 1.5t-18 0.5q-10 0 -16 -0.5t-10 -0.5t-4 1q-9 26 -20.5 60.5t-22.5 65.5q-12 36 -25 73q11 10 22 21q11 9 23 19.5t24 20.5l67 -115q10 11 24 28t28.5 34.5t28 34t24.5 28.5q13 -11 23 -20t18 -17l16 -15
q-27 -43 -54 -83q-23 -34 -51 -72z" />
    <glyph glyph-name="uni0162" unicode="&#x162;" horiz-adv-x="362" 
d="M90 -1q23 110 44 217q9 45 18 94t17.5 96.5t15 92t11.5 81.5q-23 3 -46.5 2t-46.5 6q1 16 1 37t1 42q1 23 2 49q26 -2 52 -3t52 -1q51 0 98.5 2.5t88 6t79.5 8.5l-11 -54q-5 -23 -9.5 -47t-8.5 -41q-22 -6 -44.5 -8.5t-44.5 -6.5q-7 -34 -15 -75.5t-15.5 -86t-14.5 -90.5
t-14 -88q-16 -99 -30 -205zM281.5 -106.5q-10.5 -17.5 -28.5 -30.5t-42.5 -20.5t-53.5 -7.5q-24 0 -46.5 9t-37.5 28l19 88q26 -28 53 -28q22 0 36.5 16t14.5 41q0 12 -5 30q18 -2 29.5 -4t21 -3.5t10.5 -1.5q40 -39 40 -78q0 -21 -10.5 -38.5z" />
    <glyph glyph-name="uni021A" unicode="&#x21a;" horiz-adv-x="362" 
d="M90 -1q23 110 44 217q9 45 18 94t17.5 96.5t15 92t11.5 81.5q-23 3 -46.5 2t-46.5 6q1 16 1 37t1 42q1 23 2 49q26 -2 52 -3t52 -1q51 0 98.5 2.5t88 6t79.5 8.5l-11 -54q-5 -23 -9.5 -47t-8.5 -41q-22 -6 -44.5 -8.5t-44.5 -6.5q-7 -34 -15 -75.5t-15.5 -86t-14.5 -90.5
t-14 -88q-16 -99 -30 -205zM20 -356q8 40 17 81.5t17 80t14.5 71.5t9.5 58q8 0 25.5 -0.5t26.5 -0.5h36.5t45 1t47.5 2q-8 -37 -21.5 -87.5t-28.5 -100.5t-32 -105h-157z" />
    <glyph glyph-name="U" unicode="U" horiz-adv-x="419" 
d="M376.5 98q-25.5 -40 -60 -66t-73.5 -38t-78 -12q-23 0 -47 7.5t-43 22.5t-31.5 38t-12.5 54v8t1 8q4 41 13 99t19 121t22 126.5t21.5 115.5t16.5 86.5t9 42.5q21 2 50 5t54 5q31 3 61 6q-26 -121 -46 -219q-9 -42 -17.5 -84t-16 -77t-13 -60.5t-9 -41.5t-8 -40.5
t-4.5 -44.5q0 -16 8 -26.5t20 -10.5q17 0 28 13.5t18.5 32.5t11 38.5t6.5 30.5q6 29 13.5 64.5t15 74t15 78.5t14.5 78q17 88 33 182l152 10l-5 -26t-13 -69t-17.5 -98t-21.5 -114.5t-23.5 -117t-22.5 -105.5q-14 -57 -39.5 -97z" />
    <glyph glyph-name="Uacute" unicode="&#xda;" horiz-adv-x="419" 
d="M376.5 98q-25.5 -40 -60 -66t-73.5 -38t-78 -12q-23 0 -47 7.5t-43 22.5t-31.5 38t-12.5 54v8t1 8q4 41 13 99t19 121t22 126.5t21.5 115.5t16.5 86.5t9 42.5q21 2 50 5t54 5q31 3 61 6q-26 -121 -46 -219q-9 -42 -17.5 -84t-16 -77t-13 -60.5t-9 -41.5t-8 -40.5
t-4.5 -44.5q0 -16 8 -26.5t20 -10.5q17 0 28 13.5t18.5 32.5t11 38.5t6.5 30.5q6 29 13.5 64.5t15 74t15 78.5t14.5 78q17 88 33 182l152 10l-5 -26t-13 -69t-17.5 -98t-21.5 -114.5t-23.5 -117t-22.5 -105.5q-14 -57 -39.5 -97zM426 805.5q-68 -24.5 -127 -46.5
q-1 11 -1 20v18q0 16 0.5 32.5t0.5 34.5q68 69 128 123t112 111q5 -67 5.5 -125t8.5 -119q-59 -24 -127 -48.5z" />
    <glyph glyph-name="Ubreve" unicode="&#x16c;" horiz-adv-x="419" 
d="M376.5 98q-25.5 -40 -60 -66t-73.5 -38t-78 -12q-23 0 -47 7.5t-43 22.5t-31.5 38t-12.5 54v8t1 8q4 41 13 99t19 121t22 126.5t21.5 115.5t16.5 86.5t9 42.5q21 2 50 5t54 5q31 3 61 6q-26 -121 -46 -219q-9 -42 -17.5 -84t-16 -77t-13 -60.5t-9 -41.5t-8 -40.5
t-4.5 -44.5q0 -16 8 -26.5t20 -10.5q17 0 28 13.5t18.5 32.5t11 38.5t6.5 30.5q6 29 13.5 64.5t15 74t15 78.5t14.5 78q17 88 33 182l152 10l-5 -26t-13 -69t-17.5 -98t-21.5 -114.5t-23.5 -117t-22.5 -105.5q-14 -57 -39.5 -97zM526 872q-29 -47 -61.5 -70t-74.5 -23
q-55 0 -90.5 56t-31.5 120q10 9 22 20q11 9 22.5 19.5t24.5 20.5q-2 -49 10.5 -78.5t50.5 -29.5q32 0 48.5 14.5t29.5 38.5t33 65q13 -11 23 -19.5t18 -16.5l16 -16q-11 -54 -40 -101z" />
    <glyph glyph-name="Ucircumflex" unicode="&#xdb;" horiz-adv-x="419" 
d="M376.5 98q-25.5 -40 -60 -66t-73.5 -38t-78 -12q-23 0 -47 7.5t-43 22.5t-31.5 38t-12.5 54v8t1 8q4 41 13 99t19 121t22 126.5t21.5 115.5t16.5 86.5t9 42.5q21 2 50 5t54 5q31 3 61 6q-26 -121 -46 -219q-9 -42 -17.5 -84t-16 -77t-13 -60.5t-9 -41.5t-8 -40.5
t-4.5 -44.5q0 -16 8 -26.5t20 -10.5q17 0 28 13.5t18.5 32.5t11 38.5t6.5 30.5q6 29 13.5 64.5t15 74t15 78.5t14.5 78q17 88 33 182l152 10l-5 -26t-13 -69t-17.5 -98t-21.5 -114.5t-23.5 -117t-22.5 -105.5q-14 -57 -39.5 -97zM393 852q-15 -16 -30 -33t-30 -33t-25 -27
q-13 11 -23 20.5t-16 17.5q-9 9 -15 17q28 41 58 80q25 33 54.5 69t55.5 62q39 -6 54.5 -5t17.5 -1q8 -27 17.5 -62t18.5 -66l22 -74l-24 -20q-10 -9 -23 -18.5t-25 -18.5l-61 118q-11 -10 -26 -26z" />
    <glyph glyph-name="uni0214" unicode="&#x214;" horiz-adv-x="419" 
d="M376.5 98q-25.5 -40 -60 -66t-73.5 -38t-78 -12q-23 0 -47 7.5t-43 22.5t-31.5 38t-12.5 54v8t1 8q4 41 13 99t19 121t22 126.5t21.5 115.5t16.5 86.5t9 42.5q21 2 50 5t54 5q31 3 61 6q-26 -121 -46 -219q-9 -42 -17.5 -84t-16 -77t-13 -60.5t-9 -41.5t-8 -40.5
t-4.5 -44.5q0 -16 8 -26.5t20 -10.5q17 0 28 13.5t18.5 32.5t11 38.5t6.5 30.5q6 29 13.5 64.5t15 74t15 78.5t14.5 78q17 88 33 182l152 10l-5 -26t-13 -69t-17.5 -98t-21.5 -114.5t-23.5 -117t-22.5 -105.5q-14 -57 -39.5 -97zM342 741q-51 12 -98 24q-41 9 -84 20.5
t-72 20.5q6 29 14 70.5t15 80.5q9 46 18 94q39 -42 78 -82q33 -35 70.5 -75t65.5 -72zM631 716q-51 12 -98 24q-41 9 -84 20.5t-72 20.5q6 29 14 70.5t15 80.5q9 46 18 94q39 -42 78 -82q33 -35 70.5 -75t65.5 -72z" />
    <glyph glyph-name="Udieresis" unicode="&#xdc;" horiz-adv-x="419" 
d="M376.5 98q-25.5 -40 -60 -66t-73.5 -38t-78 -12q-23 0 -47 7.5t-43 22.5t-31.5 38t-12.5 54v8t1 8q4 41 13 99t19 121t22 126.5t21.5 115.5t16.5 86.5t9 42.5q21 2 50 5t54 5q31 3 61 6q-26 -121 -46 -219q-9 -42 -17.5 -84t-16 -77t-13 -60.5t-9 -41.5t-8 -40.5
t-4.5 -44.5q0 -16 8 -26.5t20 -10.5q17 0 28 13.5t18.5 32.5t11 38.5t6.5 30.5q6 29 13.5 64.5t15 74t15 78.5t14.5 78q17 88 33 182l152 10l-5 -26t-13 -69t-17.5 -98t-21.5 -114.5t-23.5 -117t-22.5 -105.5q-14 -57 -39.5 -97zM579 882.5q-7 -16.5 -20.5 -29.5t-33 -21.5
t-46.5 -8.5q-40 0 -60 26.5t-20 59.5q0 17 5.5 33t16.5 28t28.5 20t40.5 8q48 0 72 -25t24 -56q0 -18 -7 -34.5zM346.5 882.5q-6.5 -16.5 -20.5 -29.5t-34 -21.5t-45 -8.5q-40 0 -60 26.5t-20 59.5q0 17 5.5 33t16.5 28t28 20t40 8q49 0 72.5 -25t23.5 -56q0 -18 -6.5 -34.5
z" />
    <glyph glyph-name="uni1EE4" unicode="&#x1ee4;" horiz-adv-x="419" 
d="M376.5 98q-25.5 -40 -60 -66t-73.5 -38t-78 -12q-23 0 -47 7.5t-43 22.5t-31.5 38t-12.5 54v8t1 8q4 41 13 99t19 121t22 126.5t21.5 115.5t16.5 86.5t9 42.5q21 2 50 5t54 5q31 3 61 6q-26 -121 -46 -219q-9 -42 -17.5 -84t-16 -77t-13 -60.5t-9 -41.5t-8 -40.5
t-4.5 -44.5q0 -16 8 -26.5t20 -10.5q17 0 28 13.5t18.5 32.5t11 38.5t6.5 30.5q6 29 13.5 64.5t15 74t15 78.5t14.5 78q17 88 33 182l152 10l-5 -26t-13 -69t-17.5 -98t-21.5 -114.5t-23.5 -117t-22.5 -105.5q-14 -57 -39.5 -97zM295.5 -145.5q-6.5 -16.5 -20.5 -30
t-34 -21.5t-45 -8q-40 0 -60 26t-20 60q0 16 5.5 32t16.5 28.5t28 20.5t40 8q49 0 72.5 -25t23.5 -57q0 -17 -6.5 -33.5z" />
    <glyph glyph-name="Ugrave" unicode="&#xd9;" horiz-adv-x="419" 
d="M376.5 98q-25.5 -40 -60 -66t-73.5 -38t-78 -12q-23 0 -47 7.5t-43 22.5t-31.5 38t-12.5 54v8t1 8q4 41 13 99t19 121t22 126.5t21.5 115.5t16.5 86.5t9 42.5q21 2 50 5t54 5q31 3 61 6q-26 -121 -46 -219q-9 -42 -17.5 -84t-16 -77t-13 -60.5t-9 -41.5t-8 -40.5
t-4.5 -44.5q0 -16 8 -26.5t20 -10.5q17 0 28 13.5t18.5 32.5t11 38.5t6.5 30.5q6 29 13.5 64.5t15 74t15 78.5t14.5 78q17 88 33 182l152 10l-5 -26t-13 -69t-17.5 -98t-21.5 -114.5t-23.5 -117t-22.5 -105.5q-14 -57 -39.5 -97zM416 761q-51 12 -98 24q-41 9 -84 20.5
t-72 20.5q6 29 14 70.5t15 80.5q9 46 18 94q39 -42 78 -82q33 -35 70.5 -75t65.5 -72z" />
    <glyph glyph-name="uni1EE6" unicode="&#x1ee6;" horiz-adv-x="419" 
d="M376.5 98q-25.5 -40 -60 -66t-73.5 -38t-78 -12q-23 0 -47 7.5t-43 22.5t-31.5 38t-12.5 54v8t1 8q4 41 13 99t19 121t22 126.5t21.5 115.5t16.5 86.5t9 42.5q21 2 50 5t54 5q31 3 61 6q-26 -121 -46 -219q-9 -42 -17.5 -84t-16 -77t-13 -60.5t-9 -41.5t-8 -40.5
t-4.5 -44.5q0 -16 8 -26.5t20 -10.5q17 0 28 13.5t18.5 32.5t11 38.5t6.5 30.5q6 29 13.5 64.5t15 74t15 78.5t14.5 78q17 88 33 182l152 10l-5 -26t-13 -69t-17.5 -98t-21.5 -114.5t-23.5 -117t-22.5 -105.5q-14 -57 -39.5 -97zM360 754q0 17 4.5 31t12.5 24.5t16.5 19
t16 15t12.5 12t5 10.5q0 2 -3 5.5t-8 3.5q-7 0 -15.5 -5t-18 -12t-19.5 -15l-16 59q24 19 45.5 27.5t43.5 8.5q10 0 23 -2.5t20 -7t16 -15t12 -39.5q0 -17 -5 -28t-12.5 -19.5t-17.5 -15.5t-19 -14.5t-15.5 -17t-10.5 -21.5l-19 -2z" />
    <glyph glyph-name="Uhorn" unicode="&#x1af;" horiz-adv-x="419" 
d="M376.5 98q-25.5 -40 -60 -66t-73.5 -38t-78 -12q-23 0 -47 7.5t-43 22.5t-31.5 38t-12.5 54v8t1 8q4 41 13 99t19 121t22 126.5t21.5 115.5t16.5 86.5t9 42.5q21 2 50 5t54 5q31 3 61 6q-26 -121 -46 -219q-9 -42 -17.5 -84t-16 -77t-13 -60.5t-9 -41.5t-8 -40.5
t-4.5 -44.5q0 -16 8 -26.5t20 -10.5q17 0 28 13.5t18.5 32.5t11 38.5t6.5 30.5q6 29 13.5 64.5t15 74t15 78.5t14.5 78q17 88 33 182l152 10l-5 -26t-13 -69t-17.5 -98t-21.5 -114.5t-23.5 -117t-22.5 -105.5q-14 -57 -39.5 -97zM491 719q78 0 79.5 57.5t-0.5 106.5
q13 -10 24.5 -20.5t22.5 -19.5q12 -11 22 -20q4 -64 -30.5 -115.5t-104.5 -60.5z" />
    <glyph glyph-name="uni1EE8" unicode="&#x1ee8;" horiz-adv-x="419" 
d="M376.5 98q-25.5 -40 -60 -66t-73.5 -38t-78 -12q-23 0 -47 7.5t-43 22.5t-31.5 38t-12.5 54v8t1 8q4 41 13 99t19 121t22 126.5t21.5 115.5t16.5 86.5t9 42.5q21 2 50 5t54 5q31 3 61 6q-26 -121 -46 -219q-9 -42 -17.5 -84t-16 -77t-13 -60.5t-9 -41.5t-8 -40.5
t-4.5 -44.5q0 -16 8 -26.5t20 -10.5q17 0 28 13.5t18.5 32.5t11 38.5t6.5 30.5q6 29 13.5 64.5t15 74t15 78.5t14.5 78q17 88 33 182l152 10l-5 -26t-13 -69t-17.5 -98t-21.5 -114.5t-23.5 -117t-22.5 -105.5q-14 -57 -39.5 -97zM491 719q78 0 79.5 57.5t-0.5 106.5
q13 -10 24.5 -20.5t22.5 -19.5q12 -11 22 -20q4 -64 -30.5 -115.5t-104.5 -60.5zM380 796.5q-68 -24.5 -127 -46.5q-1 11 -1 20v18q0 16 0.5 32.5t0.5 34.5q68 69 128 123t112 111q5 -67 5.5 -125t8.5 -119q-59 -24 -127 -48.5z" />
    <glyph glyph-name="uni1EF0" unicode="&#x1ef0;" horiz-adv-x="419" 
d="M376.5 98q-25.5 -40 -60 -66t-73.5 -38t-78 -12q-23 0 -47 7.5t-43 22.5t-31.5 38t-12.5 54v8t1 8q4 41 13 99t19 121t22 126.5t21.5 115.5t16.5 86.5t9 42.5q21 2 50 5t54 5q31 3 61 6q-26 -121 -46 -219q-9 -42 -17.5 -84t-16 -77t-13 -60.5t-9 -41.5t-8 -40.5
t-4.5 -44.5q0 -16 8 -26.5t20 -10.5q17 0 28 13.5t18.5 32.5t11 38.5t6.5 30.5q6 29 13.5 64.5t15 74t15 78.5t14.5 78q17 88 33 182l152 10l-5 -26t-13 -69t-17.5 -98t-21.5 -114.5t-23.5 -117t-22.5 -105.5q-14 -57 -39.5 -97zM491 719q78 0 79.5 57.5t-0.5 106.5
q13 -10 24.5 -20.5t22.5 -19.5q12 -11 22 -20q4 -64 -30.5 -115.5t-104.5 -60.5zM295.5 -145.5q-6.5 -16.5 -20.5 -30t-34 -21.5t-45 -8q-40 0 -60 26t-20 60q0 16 5.5 32t16.5 28.5t28 20.5t40 8q49 0 72.5 -25t23.5 -57q0 -17 -6.5 -33.5z" />
    <glyph glyph-name="uni1EEA" unicode="&#x1eea;" horiz-adv-x="419" 
d="M376.5 98q-25.5 -40 -60 -66t-73.5 -38t-78 -12q-23 0 -47 7.5t-43 22.5t-31.5 38t-12.5 54v8t1 8q4 41 13 99t19 121t22 126.5t21.5 115.5t16.5 86.5t9 42.5q21 2 50 5t54 5q31 3 61 6q-26 -121 -46 -219q-9 -42 -17.5 -84t-16 -77t-13 -60.5t-9 -41.5t-8 -40.5
t-4.5 -44.5q0 -16 8 -26.5t20 -10.5q17 0 28 13.5t18.5 32.5t11 38.5t6.5 30.5q6 29 13.5 64.5t15 74t15 78.5t14.5 78q17 88 33 182l152 10l-5 -26t-13 -69t-17.5 -98t-21.5 -114.5t-23.5 -117t-22.5 -105.5q-14 -57 -39.5 -97zM491 719q78 0 79.5 57.5t-0.5 106.5
q13 -10 24.5 -20.5t22.5 -19.5q12 -11 22 -20q4 -64 -30.5 -115.5t-104.5 -60.5zM370 752q-51 12 -98 24q-41 9 -84 20.5t-72 20.5q6 29 14 70.5t15 80.5q9 46 18 94q39 -42 78 -82q33 -35 70.5 -75t65.5 -72z" />
    <glyph glyph-name="uni1EEC" unicode="&#x1eec;" horiz-adv-x="419" 
d="M376.5 98q-25.5 -40 -60 -66t-73.5 -38t-78 -12q-23 0 -47 7.5t-43 22.5t-31.5 38t-12.5 54v8t1 8q4 41 13 99t19 121t22 126.5t21.5 115.5t16.5 86.5t9 42.5q21 2 50 5t54 5q31 3 61 6q-26 -121 -46 -219q-9 -42 -17.5 -84t-16 -77t-13 -60.5t-9 -41.5t-8 -40.5
t-4.5 -44.5q0 -16 8 -26.5t20 -10.5q17 0 28 13.5t18.5 32.5t11 38.5t6.5 30.5q6 29 13.5 64.5t15 74t15 78.5t14.5 78q17 88 33 182l152 10l-5 -26t-13 -69t-17.5 -98t-21.5 -114.5t-23.5 -117t-22.5 -105.5q-14 -57 -39.5 -97zM491 719q78 0 79.5 57.5t-0.5 106.5
q13 -10 24.5 -20.5t22.5 -19.5q12 -11 22 -20q4 -64 -30.5 -115.5t-104.5 -60.5zM314 745q0 17 4.5 31t12.5 24.5t16.5 19t16 15t12.5 12t5 10.5q0 2 -3 5.5t-8 3.5q-7 0 -15.5 -5t-18 -12t-19.5 -15l-16 59q24 19 45.5 27.5t43.5 8.5q10 0 23 -2.5t20 -7t16 -15t12 -39.5
q0 -17 -5 -28t-12.5 -19.5t-17.5 -15.5t-19 -14.5t-15.5 -17t-10.5 -21.5l-19 -2z" />
    <glyph glyph-name="uni1EEE" unicode="&#x1eee;" horiz-adv-x="419" 
d="M376.5 98q-25.5 -40 -60 -66t-73.5 -38t-78 -12q-23 0 -47 7.5t-43 22.5t-31.5 38t-12.5 54v8t1 8q4 41 13 99t19 121t22 126.5t21.5 115.5t16.5 86.5t9 42.5q21 2 50 5t54 5q31 3 61 6q-26 -121 -46 -219q-9 -42 -17.5 -84t-16 -77t-13 -60.5t-9 -41.5t-8 -40.5
t-4.5 -44.5q0 -16 8 -26.5t20 -10.5q17 0 28 13.5t18.5 32.5t11 38.5t6.5 30.5q6 29 13.5 64.5t15 74t15 78.5t14.5 78q17 88 33 182l152 10l-5 -26t-13 -69t-17.5 -98t-21.5 -114.5t-23.5 -117t-22.5 -105.5q-14 -57 -39.5 -97zM491 719q78 0 79.5 57.5t-0.5 106.5
q13 -10 24.5 -20.5t22.5 -19.5q12 -11 22 -20q4 -64 -30.5 -115.5t-104.5 -60.5zM285 834.5q-14 -8.5 -26.5 -20.5t-24.5 -25t-22 -22q-13 9 -22.5 17t-17.5 14t-14 13l6 13t17 32.5t26.5 42.5t34.5 42.5t41 33t48 13.5q24 0 42.5 -14t32.5 -30t22.5 -29t13.5 -13
q15 0 29 10.5t27 25.5t25 30t22 24q12 -9 22 -17t18 -14t14 -13q-21 -49 -48 -87q-11 -17 -25 -32t-30 -27t-33.5 -19.5t-37.5 -7.5q-24 0 -36.5 10.5t-22.5 23.5t-20.5 23.5t-31.5 10.5q-15 0 -29 -8.5z" />
    <glyph glyph-name="Uhungarumlaut" unicode="&#x170;" horiz-adv-x="419" 
d="M376.5 98q-25.5 -40 -60 -66t-73.5 -38t-78 -12q-23 0 -47 7.5t-43 22.5t-31.5 38t-12.5 54v8t1 8q4 41 13 99t19 121t22 126.5t21.5 115.5t16.5 86.5t9 42.5q21 2 50 5t54 5q31 3 61 6q-26 -121 -46 -219q-9 -42 -17.5 -84t-16 -77t-13 -60.5t-9 -41.5t-8 -40.5
t-4.5 -44.5q0 -16 8 -26.5t20 -10.5q17 0 28 13.5t18.5 32.5t11 38.5t6.5 30.5q6 29 13.5 64.5t15 74t15 78.5t14.5 78q17 88 33 182l152 10l-5 -26t-13 -69t-17.5 -98t-21.5 -114.5t-23.5 -117t-22.5 -105.5q-14 -57 -39.5 -97zM537.5 798.5q-58.5 -24.5 -116.5 -46.5
q-6 14 -10 23t-8 17.5t-15.5 18t-2.5 22.5q43 64 84.5 129t86.5 128q26 -61 49.5 -122t49.5 -121q-59 -24 -117.5 -48.5zM251.5 798.5q-58.5 -24.5 -116.5 -46.5q-6 14 -10 23t-8 17.5t-8 17.5t-11 23q43 65 85 129.5t87 127.5q26 -61 49.5 -122t49.5 -121
q-59 -24 -117.5 -48.5z" />
    <glyph glyph-name="uni0216" unicode="&#x216;" horiz-adv-x="419" 
d="M376.5 98q-25.5 -40 -60 -66t-73.5 -38t-78 -12q-23 0 -47 7.5t-43 22.5t-31.5 38t-12.5 54v8t1 8q4 41 13 99t19 121t22 126.5t21.5 115.5t16.5 86.5t9 42.5q21 2 50 5t54 5q31 3 61 6q-26 -121 -46 -219q-9 -42 -17.5 -84t-16 -77t-13 -60.5t-9 -41.5t-8 -40.5
t-4.5 -44.5q0 -16 8 -26.5t20 -10.5q17 0 28 13.5t18.5 32.5t11 38.5t6.5 30.5q6 29 13.5 64.5t15 74t15 78.5t14.5 78q17 88 33 182l152 10l-5 -26t-13 -69t-17.5 -98t-21.5 -114.5t-23.5 -117t-22.5 -105.5q-14 -57 -39.5 -97zM266 893q29 47 61.5 70t74.5 23
q55 0 90.5 -56t31.5 -120q-10 -9 -22 -20q-11 -9 -22.5 -19.5t-24.5 -20.5q2 49 -10.5 78.5t-50.5 29.5q-32 0 -48.5 -14.5t-29.5 -38.5t-33 -65q-13 11 -23 19.5t-18 16.5l-16 16q11 54 40 101z" />
    <glyph glyph-name="Umacron" unicode="&#x16a;" horiz-adv-x="419" 
d="M376.5 98q-25.5 -40 -60 -66t-73.5 -38t-78 -12q-23 0 -47 7.5t-43 22.5t-31.5 38t-12.5 54v8t1 8q4 41 13 99t19 121t22 126.5t21.5 115.5t16.5 86.5t9 42.5q21 2 50 5t54 5q31 3 61 6q-26 -121 -46 -219q-9 -42 -17.5 -84t-16 -77t-13 -60.5t-9 -41.5t-8 -40.5
t-4.5 -44.5q0 -16 8 -26.5t20 -10.5q17 0 28 13.5t18.5 32.5t11 38.5t6.5 30.5q6 29 13.5 64.5t15 74t15 78.5t14.5 78q17 88 33 182l152 10l-5 -26t-13 -69t-17.5 -98t-21.5 -114.5t-23.5 -117t-22.5 -105.5q-14 -57 -39.5 -97zM357.5 788q-32.5 -2 -63.5 -4.5t-58.5 -5
t-47.5 -4.5q-5 17 -6 45t-1 54v40q0 10 1 18l374 32l16 -162q-79 -5 -151 -9q-31 -2 -63.5 -4z" />
    <glyph glyph-name="Uogonek" unicode="&#x172;" horiz-adv-x="419" 
d="M376.5 98q-25.5 -40 -60 -66t-73.5 -38t-78 -12q-23 0 -47 7.5t-43 22.5t-31.5 38t-12.5 54v8t1 8q4 41 13 99t19 121t22 126.5t21.5 115.5t16.5 86.5t9 42.5q21 2 50 5t54 5q31 3 61 6q-26 -121 -46 -219q-9 -42 -17.5 -84t-16 -77t-13 -60.5t-9 -41.5t-8 -40.5
t-4.5 -44.5q0 -16 8 -26.5t20 -10.5q17 0 28 13.5t18.5 32.5t11 38.5t6.5 30.5q6 29 13.5 64.5t15 74t15 78.5t14.5 78q17 88 33 182l152 10l-5 -26t-13 -69t-17.5 -98t-21.5 -114.5t-23.5 -117t-22.5 -105.5q-14 -57 -39.5 -97zM385.5 -125q-22.5 -9 -45.5 -9
q-30 0 -54.5 7.5t-42.5 20.5t-28 30.5t-10 38.5q0 39 40 78q1 0 10 1.5l21 3.5t29 4q-4 -18 -4 -30q0 -25 14.5 -41t35.5 -16q28 0 53 28l20 -88q-16 -19 -38.5 -28z" />
    <glyph glyph-name="Uring" unicode="&#x16e;" horiz-adv-x="419" 
d="M376.5 98q-25.5 -40 -60 -66t-73.5 -38t-78 -12q-23 0 -47 7.5t-43 22.5t-31.5 38t-12.5 54v8t1 8q4 41 13 99t19 121t22 126.5t21.5 115.5t16.5 86.5t9 42.5q21 2 50 5t54 5q31 3 61 6q-26 -121 -46 -219q-9 -42 -17.5 -84t-16 -77t-13 -60.5t-9 -41.5t-8 -40.5
t-4.5 -44.5q0 -16 8 -26.5t20 -10.5q17 0 28 13.5t18.5 32.5t11 38.5t6.5 30.5q6 29 13.5 64.5t15 74t15 78.5t14.5 78q17 88 33 182l152 10l-5 -26t-13 -69t-17.5 -98t-21.5 -114.5t-23.5 -117t-22.5 -105.5q-14 -57 -39.5 -97zM483 844.5q-8 -21.5 -24.5 -38.5t-40 -28
t-53.5 -11q-25 0 -44 9.5t-32.5 25t-19.5 35.5t-6 41t6.5 42t21.5 37t37 26t51 10q28 0 49 -9t35 -23t21 -33t7 -40q0 -22 -8 -43.5zM337 837.5q14 -17.5 39 -17.5q31 0 47.5 19.5t16.5 41.5q0 21 -14.5 37t-43.5 16q-30 0 -44.5 -18t-14.5 -40q0 -21 14 -38.5z" />
    <glyph glyph-name="Utilde" unicode="&#x168;" horiz-adv-x="419" 
d="M376.5 98q-25.5 -40 -60 -66t-73.5 -38t-78 -12q-23 0 -47 7.5t-43 22.5t-31.5 38t-12.5 54v8t1 8q4 41 13 99t19 121t22 126.5t21.5 115.5t16.5 86.5t9 42.5q21 2 50 5t54 5q31 3 61 6q-26 -121 -46 -219q-9 -42 -17.5 -84t-16 -77t-13 -60.5t-9 -41.5t-8 -40.5
t-4.5 -44.5q0 -16 8 -26.5t20 -10.5q17 0 28 13.5t18.5 32.5t11 38.5t6.5 30.5q6 29 13.5 64.5t15 74t15 78.5t14.5 78q17 88 33 182l152 10l-5 -26t-13 -69t-17.5 -98t-21.5 -114.5t-23.5 -117t-22.5 -105.5q-14 -57 -39.5 -97zM331 843.5q-14 -8.5 -26.5 -20.5t-24.5 -25
t-22 -22q-13 9 -22.5 17t-17.5 14t-14 13l6 13t17 32.5t26.5 42.5t34.5 42.5t41 33t48 13.5q24 0 42.5 -14t32.5 -30t22.5 -29t13.5 -13q15 0 29 10.5t27 25.5t25 30t22 24q12 -9 22 -17t18 -14t14 -13q-21 -49 -48 -87q-11 -17 -25 -32t-30 -27t-33.5 -19.5t-37.5 -7.5
q-24 0 -36.5 10.5t-22.5 23.5t-20.5 23.5t-31.5 10.5q-15 0 -29 -8.5z" />
    <glyph glyph-name="V" unicode="V" horiz-adv-x="379" 
d="M59 -9q13 140 24 275q5 56 9.5 118t8 122.5t5.5 117t3 103.5q24 0 51.5 1t50 2t38.5 2.5l16 1.5q-11 -116 -19 -190.5t-12.5 -121t-8 -89.5t-7.5 -80t-7 -63h18l112 532q27 1 55 3q25 2 52.5 3t50.5 4q-14 -44 -28.5 -97t-30 -110t-30 -116t-28.5 -114q-32 -129 -64 -265
z" />
    <glyph glyph-name="W" unicode="W" horiz-adv-x="601" 
d="M41 -4l76 710q47 2 88.5 9.5t82.5 10.5q0 -1 -3 -20.5t-8 -51t-11 -71t-17.5 -108.5t-30.5 -191h15q26 92 43 150.5t27.5 95t20 70.5t18 63t13.5 49h9q18 0 36.5 2t35 4.5t34.5 6.5q-2 -9 -4.5 -37t-6.5 -67.5t-8 -87t-8 -93t-7.5 -86.5t-6.5 -70h18l95 430q34 5 67 9
q29 4 60 8t55 9q-15 -42 -30 -93.5t-31 -108.5t-30.5 -115t-28.5 -112q-32 -128 -62 -263l-226 -38l44 386h-12l-99 -363z" />
    <glyph glyph-name="Wacute" unicode="&#x1e82;" horiz-adv-x="601" 
d="M41 -4l76 710q47 2 88.5 9.5t82.5 10.5q0 -1 -3 -20.5t-8 -51t-11 -71t-17.5 -108.5t-30.5 -191h15q26 92 43 150.5t27.5 95t20 70.5t18 63t13.5 49h9q18 0 36.5 2t35 4.5t34.5 6.5q-2 -9 -4.5 -37t-6.5 -67.5t-8 -87t-8 -93t-7.5 -86.5t-6.5 -70h18l95 430q34 5 67 9
q29 4 60 8t55 9q-15 -42 -30 -93.5t-31 -108.5t-30.5 -115t-28.5 -112q-32 -128 -62 -263l-226 -38l44 386h-12l-99 -363zM519 800.5q-68 -24.5 -127 -46.5q-1 11 -1 20v18q0 16 0.5 32.5t0.5 34.5q68 69 128 123t112 111q5 -67 5.5 -125t8.5 -119q-59 -24 -127 -48.5z" />
    <glyph glyph-name="Wcircumflex" unicode="&#x174;" horiz-adv-x="601" 
d="M41 -4l76 710q47 2 88.5 9.5t82.5 10.5q0 -1 -3 -20.5t-8 -51t-11 -71t-17.5 -108.5t-30.5 -191h15q26 92 43 150.5t27.5 95t20 70.5t18 63t13.5 49h9q18 0 36.5 2t35 4.5t34.5 6.5q-2 -9 -4.5 -37t-6.5 -67.5t-8 -87t-8 -93t-7.5 -86.5t-6.5 -70h18l95 430q34 5 67 9
q29 4 60 8t55 9q-15 -42 -30 -93.5t-31 -108.5t-30.5 -115t-28.5 -112q-32 -128 -62 -263l-226 -38l44 386h-12l-99 -363zM486 847q-15 -16 -30 -33t-30 -33t-25 -27q-13 11 -23 20.5t-16 17.5q-9 9 -15 17q28 41 58 80q25 33 54.5 69t55.5 62q39 -6 54.5 -5t17.5 -1
q8 -27 17.5 -62t18.5 -66l22 -74l-24 -20q-10 -9 -23 -18.5t-25 -18.5l-61 118q-11 -10 -26 -26z" />
    <glyph glyph-name="Wdieresis" unicode="&#x1e84;" horiz-adv-x="601" 
d="M41 -4l76 710q47 2 88.5 9.5t82.5 10.5q0 -1 -3 -20.5t-8 -51t-11 -71t-17.5 -108.5t-30.5 -191h15q26 92 43 150.5t27.5 95t20 70.5t18 63t13.5 49h9q18 0 36.5 2t35 4.5t34.5 6.5q-2 -9 -4.5 -37t-6.5 -67.5t-8 -87t-8 -93t-7.5 -86.5t-6.5 -70h18l95 430q34 5 67 9
q29 4 60 8t55 9q-15 -42 -30 -93.5t-31 -108.5t-30.5 -115t-28.5 -112q-32 -128 -62 -263l-226 -38l44 386h-12l-99 -363zM672 877.5q-7 -16.5 -20.5 -29.5t-33 -21.5t-46.5 -8.5q-40 0 -60 26.5t-20 59.5q0 17 5.5 33t16.5 28t28.5 20t40.5 8q48 0 72 -25t24 -56
q0 -18 -7 -34.5zM439.5 877.5q-6.5 -16.5 -20.5 -29.5t-34 -21.5t-45 -8.5q-40 0 -60 26.5t-20 59.5q0 17 5.5 33t16.5 28t28 20t40 8q49 0 72.5 -25t23.5 -56q0 -18 -6.5 -34.5z" />
    <glyph glyph-name="Wgrave" unicode="&#x1e80;" horiz-adv-x="601" 
d="M41 -4l76 710q47 2 88.5 9.5t82.5 10.5q0 -1 -3 -20.5t-8 -51t-11 -71t-17.5 -108.5t-30.5 -191h15q26 92 43 150.5t27.5 95t20 70.5t18 63t13.5 49h9q18 0 36.5 2t35 4.5t34.5 6.5q-2 -9 -4.5 -37t-6.5 -67.5t-8 -87t-8 -93t-7.5 -86.5t-6.5 -70h18l95 430q34 5 67 9
q29 4 60 8t55 9q-15 -42 -30 -93.5t-31 -108.5t-30.5 -115t-28.5 -112q-32 -128 -62 -263l-226 -38l44 386h-12l-99 -363zM509 756q-51 12 -98 24q-41 9 -84 20.5t-72 20.5q6 29 14 70.5t15 80.5q9 46 18 94q39 -42 78 -82q33 -35 70.5 -75t65.5 -72z" />
    <glyph glyph-name="X" unicode="X" horiz-adv-x="411" 
d="M412 42q-12 -3 -30 -8t-39.5 -11t-42 -12t-38.5 -11.5t-28 -9.5q-3 40 -5 78q-2 33 -4.5 66t-3.5 55q-9 -22 -23.5 -55t-28.5 -65q-17 -37 -35 -75l-170 15q50 89 100 176t92 182q-6 45 -11.5 80t-12.5 69t-15 68.5t-16 78.5l160 66q5 -47 11.5 -104t11.5 -105
q23 50 45.5 100t46.5 99l145 -39q-26 -44 -47 -81t-40 -74t-38 -75.5t-41 -85.5q6 -44 14 -83t17.5 -77t19 -76.5t20.5 -81.5q-2 -1 -14 -4z" />
    <glyph glyph-name="Y" unicode="Y" horiz-adv-x="384" 
d="M77 15l46 201q0 43 -1.5 93.5t-4.5 101.5t-6 98.5t-5 84t-4 58.5l-2 22l163 62v-122v-51t-0.5 -51t-0.5 -47v-37q13 34 31.5 84t34.5 97q19 55 39 116l155 -35q-43 -86 -84 -171q-17 -37 -36 -76.5l-38 -79t-37 -76.5t-33 -69q-5 -26 -12.5 -57t-14.5 -59q-9 -33 -19 -66
z" />
    <glyph glyph-name="Yacute" unicode="&#xdd;" horiz-adv-x="384" 
d="M77 15l46 201q0 43 -1.5 93.5t-4.5 101.5t-6 98.5t-5 84t-4 58.5l-2 22l163 62v-122v-51t-0.5 -51t-0.5 -47v-37q13 34 31.5 84t34.5 97q19 55 39 116l155 -35q-43 -86 -84 -171q-17 -37 -36 -76.5l-38 -79t-37 -76.5t-33 -69q-5 -26 -12.5 -57t-14.5 -59q-9 -33 -19 -66
zM399 796.5q-68 -24.5 -127 -46.5q-1 11 -1 20v18q0 16 0.5 32.5t0.5 34.5q68 69 128 123t112 111q5 -67 5.5 -125t8.5 -119q-59 -24 -127 -48.5z" />
    <glyph glyph-name="Ycircumflex" unicode="&#x176;" horiz-adv-x="384" 
d="M77 15l46 201q0 43 -1.5 93.5t-4.5 101.5t-6 98.5t-5 84t-4 58.5l-2 22l163 62v-122v-51t-0.5 -51t-0.5 -47v-37q13 34 31.5 84t34.5 97q19 55 39 116l155 -35q-43 -86 -84 -171q-17 -37 -36 -76.5l-38 -79t-37 -76.5t-33 -69q-5 -26 -12.5 -57t-14.5 -59q-9 -33 -19 -66
zM366 843q-15 -16 -30 -33t-30 -33t-25 -27q-13 11 -23 20.5t-16 17.5q-9 9 -15 17q28 41 58 80q25 33 54.5 69t55.5 62q39 -6 54.5 -5t17.5 -1q8 -27 17.5 -62t18.5 -66l22 -74l-24 -20q-10 -9 -23 -18.5t-25 -18.5l-61 118q-11 -10 -26 -26z" />
    <glyph glyph-name="Ydieresis" unicode="&#x178;" horiz-adv-x="384" 
d="M77 15l46 201q0 43 -1.5 93.5t-4.5 101.5t-6 98.5t-5 84t-4 58.5l-2 22l163 62v-122v-51t-0.5 -51t-0.5 -47v-37q13 34 31.5 84t34.5 97q19 55 39 116l155 -35q-43 -86 -84 -171q-17 -37 -36 -76.5l-38 -79t-37 -76.5t-33 -69q-5 -26 -12.5 -57t-14.5 -59q-9 -33 -19 -66
zM552 873.5q-7 -16.5 -20.5 -29.5t-33 -21.5t-46.5 -8.5q-40 0 -60 26.5t-20 59.5q0 17 5.5 33t16.5 28t28.5 20t40.5 8q48 0 72 -25t24 -56q0 -18 -7 -34.5zM319.5 873.5q-6.5 -16.5 -20.5 -29.5t-34 -21.5t-45 -8.5q-40 0 -60 26.5t-20 59.5q0 17 5.5 33t16.5 28t28 20
t40 8q49 0 72.5 -25t23.5 -56q0 -18 -6.5 -34.5z" />
    <glyph glyph-name="uni1EF4" unicode="&#x1ef4;" horiz-adv-x="384" 
d="M77 15l46 201q0 43 -1.5 93.5t-4.5 101.5t-6 98.5t-5 84t-4 58.5l-2 22l163 62v-122v-51t-0.5 -51t-0.5 -47v-37q13 34 31.5 84t34.5 97q19 55 39 116l155 -35q-43 -86 -84 -171q-17 -37 -36 -76.5l-38 -79t-37 -76.5t-33 -69q-5 -26 -12.5 -57t-14.5 -59q-9 -33 -19 -66
zM277.5 -145.5q-6.5 -16.5 -20.5 -30t-34 -21.5t-45 -8q-40 0 -60 26t-20 60q0 16 5.5 32t16.5 28.5t28 20.5t40 8q49 0 72.5 -25t23.5 -57q0 -17 -6.5 -33.5z" />
    <glyph glyph-name="Ygrave" unicode="&#x1ef2;" horiz-adv-x="384" 
d="M77 15l46 201q0 43 -1.5 93.5t-4.5 101.5t-6 98.5t-5 84t-4 58.5l-2 22l163 62v-122v-51t-0.5 -51t-0.5 -47v-37q13 34 31.5 84t34.5 97q19 55 39 116l155 -35q-43 -86 -84 -171q-17 -37 -36 -76.5l-38 -79t-37 -76.5t-33 -69q-5 -26 -12.5 -57t-14.5 -59q-9 -33 -19 -66
zM389 752q-51 12 -98 24q-41 9 -84 20.5t-72 20.5q6 29 14 70.5t15 80.5q9 46 18 94q39 -42 78 -82q33 -35 70.5 -75t65.5 -72z" />
    <glyph glyph-name="uni1EF6" unicode="&#x1ef6;" horiz-adv-x="384" 
d="M77 15l46 201q0 43 -1.5 93.5t-4.5 101.5t-6 98.5t-5 84t-4 58.5l-2 22l163 62v-122v-51t-0.5 -51t-0.5 -47v-37q13 34 31.5 84t34.5 97q19 55 39 116l155 -35q-43 -86 -84 -171q-17 -37 -36 -76.5l-38 -79t-37 -76.5t-33 -69q-5 -26 -12.5 -57t-14.5 -59q-9 -33 -19 -66
zM333 745q0 17 4.5 31t12.5 24.5t16.5 19t16 15t12.5 12t5 10.5q0 2 -3 5.5t-8 3.5q-7 0 -15.5 -5t-18 -12t-19.5 -15l-16 59q24 19 45.5 27.5t43.5 8.5q10 0 23 -2.5t20 -7t16 -15t12 -39.5q0 -17 -5 -28t-12.5 -19.5t-17.5 -15.5t-19 -14.5t-15.5 -17t-10.5 -21.5l-19 -2z
" />
    <glyph glyph-name="uni0232" unicode="&#x232;" horiz-adv-x="384" 
d="M77 15l46 201q0 43 -1.5 93.5t-4.5 101.5t-6 98.5t-5 84t-4 58.5l-2 22l163 62v-122v-51t-0.5 -51t-0.5 -47v-37q13 34 31.5 84t34.5 97q19 55 39 116l155 -35q-43 -86 -84 -171q-17 -37 -36 -76.5l-38 -79t-37 -76.5t-33 -69q-5 -26 -12.5 -57t-14.5 -59q-9 -33 -19 -66
zM330.5 779q-32.5 -2 -63.5 -4.5t-58.5 -5t-47.5 -4.5q-5 17 -6 45t-1 54v40q0 10 1 18l374 32l16 -162q-79 -5 -151 -9q-31 -2 -63.5 -4z" />
    <glyph glyph-name="uni1EF8" unicode="&#x1ef8;" horiz-adv-x="384" 
d="M77 15l46 201q0 43 -1.5 93.5t-4.5 101.5t-6 98.5t-5 84t-4 58.5l-2 22l163 62v-122v-51t-0.5 -51t-0.5 -47v-37q13 34 31.5 84t34.5 97q19 55 39 116l155 -35q-43 -86 -84 -171q-17 -37 -36 -76.5l-38 -79t-37 -76.5t-33 -69q-5 -26 -12.5 -57t-14.5 -59q-9 -33 -19 -66
zM304 834.5q-14 -8.5 -26.5 -20.5t-24.5 -25t-22 -22q-13 9 -22.5 17t-17.5 14t-14 13l6 13t17 32.5t26.5 42.5t34.5 42.5t41 33t48 13.5q24 0 42.5 -14t32.5 -30t22.5 -29t13.5 -13q15 0 29 10.5t27 25.5t25 30t22 24q12 -9 22 -17t18 -14t14 -13q-21 -49 -48 -87
q-11 -17 -25 -32t-30 -27t-33.5 -19.5t-37.5 -7.5q-24 0 -36.5 10.5t-22.5 23.5t-20.5 23.5t-31.5 10.5q-15 0 -29 -8.5z" />
    <glyph glyph-name="Z" unicode="Z" horiz-adv-x="431" 
d="M393 39q-29 -1 -68.5 -3t-85.5 -5t-90 -6.5t-81.5 -7.5t-59.5 -8l1 146l284 387q-17 0 -48 -3.5t-62.5 -7.5t-54.5 -8l-24 -2l19 157l409 29l-26 -138l-273 -388q20 0 53.5 2t69.5 4t78 5l-3 -152q-9 0 -38 -1z" />
    <glyph glyph-name="Zacute" unicode="&#x179;" horiz-adv-x="431" 
d="M393 39q-29 -1 -68.5 -3t-85.5 -5t-90 -6.5t-81.5 -7.5t-59.5 -8l1 146l284 387q-17 0 -48 -3.5t-62.5 -7.5t-54.5 -8l-24 -2l19 157l409 29l-26 -138l-273 -388q20 0 53.5 2t69.5 4t78 5l-3 -152q-9 0 -38 -1zM432 796.5q-68 -24.5 -127 -46.5q-1 11 -1 20v18
q0 16 0.5 32.5t0.5 34.5q68 69 128 123t112 111q5 -67 5.5 -125t8.5 -119q-59 -24 -127 -48.5z" />
    <glyph glyph-name="Zcaron" unicode="&#x17d;" horiz-adv-x="431" 
d="M393 39q-29 -1 -68.5 -3t-85.5 -5t-90 -6.5t-81.5 -7.5t-59.5 -8l1 146l284 387q-17 0 -48 -3.5t-62.5 -7.5t-54.5 -8l-24 -2l19 157l409 29l-26 -138l-273 -388q20 0 53.5 2t69.5 4t78 5l-3 -152q-9 0 -38 -1zM427 821q-28 -38 -53 -65q-13 1 -24 1.5t-18 0.5
q-10 0 -16 -0.5t-10 -0.5t-4 1q-9 26 -20.5 60.5t-22.5 65.5q-12 36 -25 73q11 10 22 21q11 9 23 19.5t24 20.5l67 -115q10 11 24 28t28.5 34.5t28 34t24.5 28.5q13 -11 23 -20t18 -17l16 -15q-27 -43 -54 -83q-23 -34 -51 -72z" />
    <glyph glyph-name="Zdotaccent" unicode="&#x17b;" horiz-adv-x="431" 
d="M393 39q-29 -1 -68.5 -3t-85.5 -5t-90 -6.5t-81.5 -7.5t-59.5 -8l1 146l284 387q-17 0 -48 -3.5t-62.5 -7.5t-54.5 -8l-24 -2l19 157l409 29l-26 -138l-273 -388q20 0 53.5 2t69.5 4t78 5l-3 -152q-9 0 -38 -1zM472.5 827.5q-6.5 -16.5 -20.5 -30t-34 -21.5t-45 -8
q-40 0 -60 26t-20 60q0 16 5.5 32t16.5 28.5t28 20.5t40 8q49 0 72.5 -25t23.5 -57q0 -17 -6.5 -33.5z" />
    <glyph glyph-name="a" unicode="a" horiz-adv-x="433" 
d="M313 11l-54 -9q4 33 8 65q3 28 5.5 56t4.5 48h-87l-40 -144q-22 -3 -52 -6.5t-56 -6.5q-32 -4 -63 -8q40 133 79 262q16 54 33.5 113t35 117.5t33.5 112.5t28 99q68 5 138.5 12t137.5 19q-3 -32 -6.5 -79.5t-6.5 -103.5t-6 -117t-6 -120q-5 -138 -11 -293q-30 -5 -60 -8
q-25 -4 -55 -9zM214 271q4 0 14.5 0.5t22 1t21.5 1t14 1.5q0 6 1.5 20.5t3 33t3.5 40.5t4 43q4 51 10 110l6 87l-15 -1l-23 -86z" />
    <glyph glyph-name="aacute" unicode="&#xe1;" horiz-adv-x="433" 
d="M313 11l-54 -9q4 33 8 65q3 28 5.5 56t4.5 48h-87l-40 -144q-22 -3 -52 -6.5t-56 -6.5q-32 -4 -63 -8q40 133 79 262q16 54 33.5 113t35 117.5t33.5 112.5t28 99q68 5 138.5 12t137.5 19q-3 -32 -6.5 -79.5t-6.5 -103.5t-6 -117t-6 -120q-5 -138 -11 -293q-30 -5 -60 -8
q-25 -4 -55 -9zM214 271q4 0 14.5 0.5t22 1t21.5 1t14 1.5q0 6 1.5 20.5t3 33t3.5 40.5t4 43q4 51 10 110l6 87l-15 -1l-23 -86zM317 811.5q-68 -24.5 -127 -46.5q-1 11 -1 20v18q0 16 0.5 32.5t0.5 34.5q68 69 128 123t112 111q5 -67 5.5 -125t8.5 -119q-59 -24 -127 -48.5
z" />
    <glyph glyph-name="abreve" unicode="&#x103;" horiz-adv-x="475" 
d="M313 11l-54 -9q4 33 8 65q3 28 5.5 56t4.5 48h-87l-40 -144q-22 -3 -52 -6.5t-56 -6.5q-32 -4 -63 -8q40 133 79 262q16 54 33.5 113t35 117.5t33.5 112.5t28 99q68 5 138.5 12t137.5 19q-3 -32 -6.5 -79.5t-6.5 -103.5t-6 -117t-6 -120q-5 -138 -11 -293q-30 -5 -60 -8
q-25 -4 -55 -9zM214 271q4 0 14.5 0.5t22 1t21.5 1t14 1.5q0 6 1.5 20.5t3 33t3.5 40.5t4 43q4 51 10 110l6 87l-15 -1l-23 -86zM466 892q-29 -47 -61.5 -70t-74.5 -23q-55 0 -90.5 56t-31.5 120q10 9 22 20q11 9 22.5 19.5t24.5 20.5q-2 -49 10.5 -78.5t50.5 -29.5
q32 0 48.5 14.5t29.5 38.5t33 65q13 -11 23 -19.5t18 -16.5l16 -16q-11 -54 -40 -101z" />
    <glyph glyph-name="uni1EAF" unicode="&#x1eaf;" horiz-adv-x="475" 
d="M313 11l-54 -9q4 33 8 65q3 28 5.5 56t4.5 48h-87l-40 -144q-22 -3 -52 -6.5t-56 -6.5q-32 -4 -63 -8q40 133 79 262q16 54 33.5 113t35 117.5t33.5 112.5t28 99q68 5 138.5 12t137.5 19q-3 -32 -6.5 -79.5t-6.5 -103.5t-6 -117t-6 -120q-5 -138 -11 -293q-30 -5 -60 -8
q-25 -4 -55 -9zM214 271q4 0 14.5 0.5t22 1t21.5 1t14 1.5q0 6 1.5 20.5t3 33t3.5 40.5t4 43q4 51 10 110l6 87l-15 -1l-23 -86zM466 892q-29 -47 -61.5 -70t-74.5 -23q-55 0 -90.5 56t-31.5 120q10 9 22 20q11 9 22.5 19.5t24.5 20.5q-2 -49 10.5 -78.5t50.5 -29.5
q32 0 48.5 14.5t29.5 38.5t33 65q13 -11 23 -19.5t18 -16.5l16 -16q-11 -54 -40 -101zM373 1099.5q-68 -24.5 -127 -46.5q-1 11 -1 20v18q0 16 0.5 32.5t0.5 34.5q68 69 128 123t112 111q5 -67 5.5 -125t8.5 -119q-59 -24 -127 -48.5z" />
    <glyph glyph-name="uni1EB7" unicode="&#x1eb7;" horiz-adv-x="475" 
d="M313 11l-54 -9q4 33 8 65q3 28 5.5 56t4.5 48h-87l-40 -144q-22 -3 -52 -6.5t-56 -6.5q-32 -4 -63 -8q40 133 79 262q16 54 33.5 113t35 117.5t33.5 112.5t28 99q68 5 138.5 12t137.5 19q-3 -32 -6.5 -79.5t-6.5 -103.5t-6 -117t-6 -120q-5 -138 -11 -293q-30 -5 -60 -8
q-25 -4 -55 -9zM214 271q4 0 14.5 0.5t22 1t21.5 1t14 1.5q0 6 1.5 20.5t3 33t3.5 40.5t4 43q4 51 10 110l6 87l-15 -1l-23 -86zM273.5 -132q-6.5 -17 -20.5 -30t-34 -21.5t-45 -8.5q-40 0 -60 26.5t-20 59.5q0 17 5.5 33t16.5 28.5t28 20t40 7.5q49 0 72.5 -25t23.5 -56
q0 -17 -6.5 -34zM466 892q-29 -47 -61.5 -70t-74.5 -23q-55 0 -90.5 56t-31.5 120q10 9 22 20q11 9 22.5 19.5t24.5 20.5q-2 -49 10.5 -78.5t50.5 -29.5q32 0 48.5 14.5t29.5 38.5t33 65q13 -11 23 -19.5t18 -16.5l16 -16q-11 -54 -40 -101z" />
    <glyph glyph-name="uni1EB1" unicode="&#x1eb1;" horiz-adv-x="475" 
d="M313 11l-54 -9q4 33 8 65q3 28 5.5 56t4.5 48h-87l-40 -144q-22 -3 -52 -6.5t-56 -6.5q-32 -4 -63 -8q40 133 79 262q16 54 33.5 113t35 117.5t33.5 112.5t28 99q68 5 138.5 12t137.5 19q-3 -32 -6.5 -79.5t-6.5 -103.5t-6 -117t-6 -120q-5 -138 -11 -293q-30 -5 -60 -8
q-25 -4 -55 -9zM214 271q4 0 14.5 0.5t22 1t21.5 1t14 1.5q0 6 1.5 20.5t3 33t3.5 40.5t4 43q4 51 10 110l6 87l-15 -1l-23 -86zM466 892q-29 -47 -61.5 -70t-74.5 -23q-55 0 -90.5 56t-31.5 120q10 9 22 20q11 9 22.5 19.5t24.5 20.5q-2 -49 10.5 -78.5t50.5 -29.5
q32 0 48.5 14.5t29.5 38.5t33 65q13 -11 23 -19.5t18 -16.5l16 -16q-11 -54 -40 -101zM496 1058q-51 12 -98 24q-41 9 -84 20.5t-72 20.5q6 29 14 70.5t15 80.5q9 46 18 94q39 -42 78 -82q33 -35 70.5 -75t65.5 -72z" />
    <glyph glyph-name="uni1EB3" unicode="&#x1eb3;" horiz-adv-x="433" 
d="M313 11l-54 -9q4 33 8 65q3 28 5.5 56t4.5 48h-87l-40 -144q-22 -3 -52 -6.5t-56 -6.5q-32 -4 -63 -8q40 133 79 262q16 54 33.5 113t35 117.5t33.5 112.5t28 99q68 5 138.5 12t137.5 19q-3 -32 -6.5 -79.5t-6.5 -103.5t-6 -117t-6 -120q-5 -138 -11 -293q-30 -5 -60 -8
q-25 -4 -55 -9zM214 271q4 0 14.5 0.5t22 1t21.5 1t14 1.5q0 6 1.5 20.5t3 33t3.5 40.5t4 43q4 51 10 110l6 87l-15 -1l-23 -86zM466 892q-29 -47 -61.5 -70t-74.5 -23q-55 0 -90.5 56t-31.5 120q10 9 22 20q11 9 22.5 19.5t24.5 20.5q-2 -49 10.5 -78.5t50.5 -29.5
q32 0 48.5 14.5t29.5 38.5t33 65q13 -11 23 -19.5t18 -16.5l16 -16q-11 -54 -40 -101zM325 1046q0 17 4.5 31t12.5 24.5t16.5 19t16 15t12.5 12t5 10.5q0 2 -3 5.5t-8 3.5q-7 0 -15.5 -5t-18 -12t-19.5 -15l-16 59q24 19 45.5 27.5t43.5 8.5q10 0 23 -2.5t20 -7t16 -15
t12 -39.5q0 -17 -5 -28t-12.5 -19.5t-17.5 -15.5t-19 -14.5t-15.5 -17t-10.5 -21.5l-19 -2z" />
    <glyph glyph-name="uni1EB5" unicode="&#x1eb5;" horiz-adv-x="433" 
d="M313 11l-54 -9q4 33 8 65q3 28 5.5 56t4.5 48h-87l-40 -144q-22 -3 -52 -6.5t-56 -6.5q-32 -4 -63 -8q40 133 79 262q16 54 33.5 113t35 117.5t33.5 112.5t28 99q68 5 138.5 12t137.5 19q-3 -32 -6.5 -79.5t-6.5 -103.5t-6 -117t-6 -120q-5 -138 -11 -293q-30 -5 -60 -8
q-25 -4 -55 -9zM214 271q4 0 14.5 0.5t22 1t21.5 1t14 1.5q0 6 1.5 20.5t3 33t3.5 40.5t4 43q4 51 10 110l6 87l-15 -1l-23 -86zM466 892q-29 -47 -61.5 -70t-74.5 -23q-55 0 -90.5 56t-31.5 120q10 9 22 20q11 9 22.5 19.5t24.5 20.5q-2 -49 10.5 -78.5t50.5 -29.5
q32 0 48.5 14.5t29.5 38.5t33 65q13 -11 23 -19.5t18 -16.5l16 -16q-11 -54 -40 -101zM327 1151.5q-14 -8.5 -26.5 -20.5t-24.5 -25t-22 -22q-13 9 -22.5 17t-17.5 14t-14 13l6 13t17 32.5t26.5 42.5t34.5 42.5t41 33t48 13.5q24 0 42.5 -14t32.5 -30t22.5 -29t13.5 -13
q15 0 29 10.5t27 25.5t25 30t22 24q12 -9 22 -17t18 -14t14 -13q-21 -49 -48 -87q-11 -17 -25 -32t-30 -27t-33.5 -19.5t-37.5 -7.5q-24 0 -36.5 10.5t-22.5 23.5t-20.5 23.5t-31.5 10.5q-15 0 -29 -8.5z" />
    <glyph glyph-name="acircumflex" unicode="&#xe2;" horiz-adv-x="433" 
d="M313 11l-54 -9q4 33 8 65q3 28 5.5 56t4.5 48h-87l-40 -144q-22 -3 -52 -6.5t-56 -6.5q-32 -4 -63 -8q40 133 79 262q16 54 33.5 113t35 117.5t33.5 112.5t28 99q68 5 138.5 12t137.5 19q-3 -32 -6.5 -79.5t-6.5 -103.5t-6 -117t-6 -120q-5 -138 -11 -293q-30 -5 -60 -8
q-25 -4 -55 -9zM214 271q4 0 14.5 0.5t22 1t21.5 1t14 1.5q0 6 1.5 20.5t3 33t3.5 40.5t4 43q4 51 10 110l6 87l-15 -1l-23 -86zM307 863q-15 -16 -30 -33t-30 -33t-25 -27q-13 11 -23 20.5t-16 17.5q-9 9 -15 17q28 41 58 80q25 33 54.5 69t55.5 62q39 -6 54.5 -5t17.5 -1
q8 -27 17.5 -62t18.5 -66l22 -74l-24 -20q-10 -9 -23 -18.5t-25 -18.5l-61 118q-11 -10 -26 -26z" />
    <glyph glyph-name="uni1EA5" unicode="&#x1ea5;" horiz-adv-x="433" 
d="M313 11l-54 -9q4 33 8 65q3 28 5.5 56t4.5 48h-87l-40 -144q-22 -3 -52 -6.5t-56 -6.5q-32 -4 -63 -8q40 133 79 262q16 54 33.5 113t35 117.5t33.5 112.5t28 99q68 5 138.5 12t137.5 19q-3 -32 -6.5 -79.5t-6.5 -103.5t-6 -117t-6 -120q-5 -138 -11 -293q-30 -5 -60 -8
q-25 -4 -55 -9zM214 271q4 0 14.5 0.5t22 1t21.5 1t14 1.5q0 6 1.5 20.5t3 33t3.5 40.5t4 43q4 51 10 110l6 87l-15 -1l-23 -86zM336 861q-15 -16 -30 -33t-30 -33t-25 -27q-13 11 -23 20.5t-16 17.5q-9 9 -15 17q28 41 58 80q25 33 54.5 69t55.5 62q39 -6 54.5 -5t17.5 -1
q8 -27 17.5 -62t18.5 -66l22 -74l-24 -20q-10 -9 -23 -18.5t-25 -18.5l-61 118q-11 -10 -26 -26zM580.5 957q-43.5 -16 -81.5 -30q-1 7 -1 13v12q0 10 0.5 20.5t0.5 22.5q43 44 82 79t72 72q4 -43 4 -80.5t6 -77.5q-39 -15 -82.5 -31z" />
    <glyph glyph-name="uni1EAD" unicode="&#x1ead;" horiz-adv-x="433" 
d="M313 11l-54 -9q4 33 8 65q3 28 5.5 56t4.5 48h-87l-40 -144q-22 -3 -52 -6.5t-56 -6.5q-32 -4 -63 -8q40 133 79 262q16 54 33.5 113t35 117.5t33.5 112.5t28 99q68 5 138.5 12t137.5 19q-3 -32 -6.5 -79.5t-6.5 -103.5t-6 -117t-6 -120q-5 -138 -11 -293q-30 -5 -60 -8
q-25 -4 -55 -9zM214 271q4 0 14.5 0.5t22 1t21.5 1t14 1.5q0 6 1.5 20.5t3 33t3.5 40.5t4 43q4 51 10 110l6 87l-15 -1l-23 -86zM273.5 -132q-6.5 -17 -20.5 -30t-34 -21.5t-45 -8.5q-40 0 -60 26.5t-20 59.5q0 17 5.5 33t16.5 28.5t28 20t40 7.5q49 0 72.5 -25t23.5 -56
q0 -17 -6.5 -34zM307 863q-15 -16 -30 -33t-30 -33t-25 -27q-13 11 -23 20.5t-16 17.5q-9 9 -15 17q28 41 58 80q25 33 54.5 69t55.5 62q39 -6 54.5 -5t17.5 -1q8 -27 17.5 -62t18.5 -66l22 -74l-24 -20q-10 -9 -23 -18.5t-25 -18.5l-61 118q-11 -10 -26 -26z" />
    <glyph glyph-name="uni1EA7" unicode="&#x1ea7;" horiz-adv-x="433" 
d="M313 11l-54 -9q4 33 8 65q3 28 5.5 56t4.5 48h-87l-40 -144q-22 -3 -52 -6.5t-56 -6.5q-32 -4 -63 -8q40 133 79 262q16 54 33.5 113t35 117.5t33.5 112.5t28 99q68 5 138.5 12t137.5 19q-3 -32 -6.5 -79.5t-6.5 -103.5t-6 -117t-6 -120q-5 -138 -11 -293q-30 -5 -60 -8
q-25 -4 -55 -9zM214 271q4 0 14.5 0.5t22 1t21.5 1t14 1.5q0 6 1.5 20.5t3 33t3.5 40.5t4 43q4 51 10 110l6 87l-15 -1l-23 -86zM330 840q-15 -16 -30 -33t-30 -33t-25 -27q-13 11 -23 20.5t-16 17.5q-9 9 -15 17q28 41 58 80q25 33 54.5 69t55.5 62q39 -6 54.5 -5t17.5 -1
q8 -27 17.5 -62t18.5 -66l22 -74l-24 -20q-10 -9 -23 -18.5t-25 -18.5l-61 118q-11 -10 -26 -26zM272 952q-33 8 -64 16q-27 6 -55 13.5t-47 13.5q4 19 9 46t10 53q6 30 12 61q25 -27 51 -53q21 -23 45.5 -49.5t43.5 -47.5z" />
    <glyph glyph-name="uni1EA9" unicode="&#x1ea9;" horiz-adv-x="433" 
d="M313 11l-54 -9q4 33 8 65q3 28 5.5 56t4.5 48h-87l-40 -144q-22 -3 -52 -6.5t-56 -6.5q-32 -4 -63 -8q40 133 79 262q16 54 33.5 113t35 117.5t33.5 112.5t28 99q68 5 138.5 12t137.5 19q-3 -32 -6.5 -79.5t-6.5 -103.5t-6 -117t-6 -120q-5 -138 -11 -293q-30 -5 -60 -8
q-25 -4 -55 -9zM214 271q4 0 14.5 0.5t22 1t21.5 1t14 1.5q0 6 1.5 20.5t3 33t3.5 40.5t4 43q4 51 10 110l6 87l-15 -1l-23 -86zM307 863q-15 -16 -30 -33t-30 -33t-25 -27q-13 11 -23 20.5t-16 17.5q-9 9 -15 17q28 41 58 80q25 33 54.5 69t55.5 62q39 -6 54.5 -5t17.5 -1
q8 -27 17.5 -62t18.5 -66l22 -74l-24 -20q-10 -9 -23 -18.5t-25 -18.5l-61 118q-11 -10 -26 -26zM353 1044q0 17 4.5 31t12.5 24.5t16.5 19t16 15t12.5 12t5 10.5q0 2 -3 5.5t-8 3.5q-7 0 -15.5 -5t-18 -12t-19.5 -15l-16 59q24 19 45.5 27.5t43.5 8.5q10 0 23 -2.5t20 -7
t16 -15t12 -39.5q0 -17 -5 -28t-12.5 -19.5t-17.5 -15.5t-19 -14.5t-15.5 -17t-10.5 -21.5l-19 -2z" />
    <glyph glyph-name="uni1EAB" unicode="&#x1eab;" horiz-adv-x="433" 
d="M313 11l-54 -9q4 33 8 65q3 28 5.5 56t4.5 48h-87l-40 -144q-22 -3 -52 -6.5t-56 -6.5q-32 -4 -63 -8q40 133 79 262q16 54 33.5 113t35 117.5t33.5 112.5t28 99q68 5 138.5 12t137.5 19q-3 -32 -6.5 -79.5t-6.5 -103.5t-6 -117t-6 -120q-5 -138 -11 -293q-30 -5 -60 -8
q-25 -4 -55 -9zM214 271q4 0 14.5 0.5t22 1t21.5 1t14 1.5q0 6 1.5 20.5t3 33t3.5 40.5t4 43q4 51 10 110l6 87l-15 -1l-23 -86zM307 863q-15 -16 -30 -33t-30 -33t-25 -27q-13 11 -23 20.5t-16 17.5q-9 9 -15 17q28 41 58 80q25 33 54.5 69t55.5 62q39 -6 54.5 -5t17.5 -1
q8 -27 17.5 -62t18.5 -66l22 -74l-24 -20q-10 -9 -23 -18.5t-25 -18.5l-61 118q-11 -10 -26 -26zM345 1149.5q-14 -8.5 -26.5 -20.5t-24.5 -25t-22 -22q-13 9 -22.5 17t-17.5 14t-14 13l6 13t17 32.5t26.5 42.5t34.5 42.5t41 33t48 13.5q24 0 42.5 -14t32.5 -30t22.5 -29
t13.5 -13q15 0 29 10.5t27 25.5t25 30t22 24q12 -9 22 -17t18 -14t14 -13q-21 -49 -48 -87q-11 -17 -25 -32t-30 -27t-33.5 -19.5t-37.5 -7.5q-24 0 -36.5 10.5t-22.5 23.5t-20.5 23.5t-31.5 10.5q-15 0 -29 -8.5z" />
    <glyph glyph-name="uni0201" unicode="&#x201;" horiz-adv-x="433" 
d="M313 11l-54 -9q4 33 8 65q3 28 5.5 56t4.5 48h-87l-40 -144q-22 -3 -52 -6.5t-56 -6.5q-32 -4 -63 -8q40 133 79 262q16 54 33.5 113t35 117.5t33.5 112.5t28 99q68 5 138.5 12t137.5 19q-3 -32 -6.5 -79.5t-6.5 -103.5t-6 -117t-6 -120q-5 -138 -11 -293q-30 -5 -60 -8
q-25 -4 -55 -9zM214 271q4 0 14.5 0.5t22 1t21.5 1t14 1.5q0 6 1.5 20.5t3 33t3.5 40.5t4 43q4 51 10 110l6 87l-15 -1l-23 -86zM282 761q-51 12 -98 24q-41 9 -84 20.5t-72 20.5q6 29 14 70.5t15 80.5q9 46 18 94q39 -42 78 -82q33 -35 70.5 -75t65.5 -72zM282 1091
q-51 12 -98 24q-41 9 -84 20.5t-72 20.5q6 29 14 70.5t15 80.5q9 46 18 94q39 -42 78 -82q33 -35 70.5 -75t65.5 -72z" />
    <glyph glyph-name="adieresis" unicode="&#xe4;" horiz-adv-x="433" 
d="M313 11l-54 -9q4 33 8 65q3 28 5.5 56t4.5 48h-87l-40 -144q-22 -3 -52 -6.5t-56 -6.5q-32 -4 -63 -8q40 133 79 262q16 54 33.5 113t35 117.5t33.5 112.5t28 99q68 5 138.5 12t137.5 19q-3 -32 -6.5 -79.5t-6.5 -103.5t-6 -117t-6 -120q-5 -138 -11 -293q-30 -5 -60 -8
q-25 -4 -55 -9zM214 271q4 0 14.5 0.5t22 1t21.5 1t14 1.5q0 6 1.5 20.5t3 33t3.5 40.5t4 43q4 51 10 110l6 87l-15 -1l-23 -86zM519 902.5q-7 -16.5 -20.5 -29.5t-33 -21.5t-46.5 -8.5q-40 0 -60 26.5t-20 59.5q0 17 5.5 33t16.5 28t28.5 20t40.5 8q48 0 72 -25t24 -56
q0 -18 -7 -34.5zM286.5 902.5q-6.5 -16.5 -20.5 -29.5t-34 -21.5t-45 -8.5q-40 0 -60 26.5t-20 59.5q0 17 5.5 33t16.5 28t28 20t40 8q49 0 72.5 -25t23.5 -56q0 -18 -6.5 -34.5z" />
    <glyph glyph-name="uni1EA1" unicode="&#x1ea1;" horiz-adv-x="433" 
d="M313 11l-54 -9q4 33 8 65q3 28 5.5 56t4.5 48h-87l-40 -144q-22 -3 -52 -6.5t-56 -6.5q-32 -4 -63 -8q40 133 79 262q16 54 33.5 113t35 117.5t33.5 112.5t28 99q68 5 138.5 12t137.5 19q-3 -32 -6.5 -79.5t-6.5 -103.5t-6 -117t-6 -120q-5 -138 -11 -293q-30 -5 -60 -8
q-25 -4 -55 -9zM214 271q4 0 14.5 0.5t22 1t21.5 1t14 1.5q0 6 1.5 20.5t3 33t3.5 40.5t4 43q4 51 10 110l6 87l-15 -1l-23 -86zM273.5 -132q-6.5 -17 -20.5 -30t-34 -21.5t-45 -8.5q-40 0 -60 26.5t-20 59.5q0 17 5.5 33t16.5 28.5t28 20t40 7.5q49 0 72.5 -25t23.5 -56
q0 -17 -6.5 -34z" />
    <glyph glyph-name="agrave" unicode="&#xe0;" horiz-adv-x="433" 
d="M313 11l-54 -9q4 33 8 65q3 28 5.5 56t4.5 48h-87l-40 -144q-22 -3 -52 -6.5t-56 -6.5q-32 -4 -63 -8q40 133 79 262q16 54 33.5 113t35 117.5t33.5 112.5t28 99q68 5 138.5 12t137.5 19q-3 -32 -6.5 -79.5t-6.5 -103.5t-6 -117t-6 -120q-5 -138 -11 -293q-30 -5 -60 -8
q-25 -4 -55 -9zM214 271q4 0 14.5 0.5t22 1t21.5 1t14 1.5q0 6 1.5 20.5t3 33t3.5 40.5t4 43q4 51 10 110l6 87l-15 -1l-23 -86zM440 770q-51 12 -98 24q-41 9 -84 20.5t-72 20.5q6 29 14 70.5t15 80.5q9 46 18 94q39 -42 78 -82q33 -35 70.5 -75t65.5 -72z" />
    <glyph glyph-name="uni1EA3" unicode="&#x1ea3;" horiz-adv-x="433" 
d="M313 11l-54 -9q4 33 8 65q3 28 5.5 56t4.5 48h-87l-40 -144q-22 -3 -52 -6.5t-56 -6.5q-32 -4 -63 -8q40 133 79 262q16 54 33.5 113t35 117.5t33.5 112.5t28 99q68 5 138.5 12t137.5 19q-3 -32 -6.5 -79.5t-6.5 -103.5t-6 -117t-6 -120q-5 -138 -11 -293q-30 -5 -60 -8
q-25 -4 -55 -9zM214 271q4 0 14.5 0.5t22 1t21.5 1t14 1.5q0 6 1.5 20.5t3 33t3.5 40.5t4 43q4 51 10 110l6 87l-15 -1l-23 -86zM279 758q0 17 4.5 31t12.5 24.5t16.5 19t16 15t12.5 12t5 10.5q0 2 -3 5.5t-8 3.5q-7 0 -15.5 -5t-18 -12t-19.5 -15l-16 59q24 19 45.5 27.5
t43.5 8.5q10 0 23 -2.5t20 -7t16 -15t12 -39.5q0 -17 -5 -28t-12.5 -19.5t-17.5 -15.5t-19 -14.5t-15.5 -17t-10.5 -21.5l-19 -2z" />
    <glyph glyph-name="uni0203" unicode="&#x203;" horiz-adv-x="447" 
d="M313 11l-54 -9q4 33 8 65q3 28 5.5 56t4.5 48h-87l-40 -144q-22 -3 -52 -6.5t-56 -6.5q-32 -4 -63 -8q40 133 79 262q16 54 33.5 113t35 117.5t33.5 112.5t28 99q68 5 138.5 12t137.5 19q-3 -32 -6.5 -79.5t-6.5 -103.5t-6 -117t-6 -120q-5 -138 -11 -293q-30 -5 -60 -8
q-25 -4 -55 -9zM214 271q4 0 14.5 0.5t22 1t21.5 1t14 1.5q0 6 1.5 20.5t3 33t3.5 40.5t4 43q4 51 10 110l6 87l-15 -1l-23 -86zM171 884q29 47 61.5 70t74.5 23q55 0 90.5 -56t31.5 -120q-10 -9 -22 -20q-11 -9 -22.5 -19.5t-24.5 -20.5q2 49 -10.5 78.5t-50.5 29.5
q-32 0 -48.5 -14.5t-29.5 -38.5t-33 -65q-13 11 -23 19.5t-18 16.5l-16 16q11 54 40 101z" />
    <glyph glyph-name="amacron" unicode="&#x101;" horiz-adv-x="433" 
d="M313 11l-54 -9q4 33 8 65q3 28 5.5 56t4.5 48h-87l-40 -144q-22 -3 -52 -6.5t-56 -6.5q-32 -4 -63 -8q40 133 79 262q16 54 33.5 113t35 117.5t33.5 112.5t28 99q68 5 138.5 12t137.5 19q-3 -32 -6.5 -79.5t-6.5 -103.5t-6 -117t-6 -120q-5 -138 -11 -293q-30 -5 -60 -8
q-25 -4 -55 -9zM214 271q4 0 14.5 0.5t22 1t21.5 1t14 1.5q0 6 1.5 20.5t3 33t3.5 40.5t4 43q4 51 10 110l6 87l-15 -1l-23 -86zM297.5 808q-32.5 -2 -63.5 -4.5t-58.5 -5t-47.5 -4.5q-5 17 -6 45t-1 54v40q0 10 1 18l374 32l16 -162q-79 -5 -151 -9q-31 -2 -63.5 -4z" />
    <glyph glyph-name="aogonek" unicode="&#x105;" horiz-adv-x="433" 
d="M313 11l-54 -9q4 33 8 65q3 28 5.5 56t4.5 48h-87l-40 -144q-22 -3 -52 -6.5t-56 -6.5q-32 -4 -63 -8q40 133 79 262q16 54 33.5 113t35 117.5t33.5 112.5t28 99q68 5 138.5 12t137.5 19q-3 -32 -6.5 -79.5t-6.5 -103.5t-6 -117t-6 -120q-5 -138 -11 -293q-30 -5 -60 -8
q-25 -4 -55 -9zM214 271q4 0 14.5 0.5t22 1t21.5 1t14 1.5q0 6 1.5 20.5t3 33t3.5 40.5t4 43q4 51 10 110l6 87l-15 -1l-23 -86zM402.5 -156q-22.5 -9 -45.5 -9q-30 0 -54.5 7.5t-42.5 20.5t-28 30.5t-10 38.5q0 39 40 78q1 0 10 1.5l21 3.5t29 4q-4 -18 -4 -30
q0 -25 14.5 -41t35.5 -16q28 0 53 28l20 -88q-16 -19 -38.5 -28z" />
    <glyph glyph-name="aring" unicode="&#xe5;" horiz-adv-x="433" 
d="M313 11l-54 -9q4 33 8 65q3 28 5.5 56t4.5 48h-87l-40 -144q-22 -3 -52 -6.5t-56 -6.5q-32 -4 -63 -8q40 133 79 262q16 54 33.5 113t35 117.5t33.5 112.5t28 99q68 5 138.5 12t137.5 19q-3 -32 -6.5 -79.5t-6.5 -103.5t-6 -117t-6 -120q-5 -138 -11 -293q-30 -5 -60 -8
q-25 -4 -55 -9zM214 271q4 0 14.5 0.5t22 1t21.5 1t14 1.5q0 6 1.5 20.5t3 33t3.5 40.5t4 43q4 51 10 110l6 87l-15 -1l-23 -86zM423 864.5q-8 -21.5 -24.5 -38.5t-40 -28t-53.5 -11q-25 0 -44 9.5t-32.5 25t-19.5 35.5t-6 41t6.5 42t21.5 37t37 26t51 10q28 0 49 -9t35 -23
t21 -33t7 -40q0 -22 -8 -43.5zM277 857.5q14 -17.5 39 -17.5q31 0 47.5 19.5t16.5 41.5q0 21 -14.5 37t-43.5 16q-30 0 -44.5 -18t-14.5 -40q0 -21 14 -38.5z" />
    <glyph glyph-name="aringacute" unicode="&#x1fb;" horiz-adv-x="433" 
d="M313 11l-54 -9q4 33 8 65q3 28 5.5 56t4.5 48h-87l-40 -144q-22 -3 -52 -6.5t-56 -6.5q-32 -4 -63 -8q40 133 79 262q16 54 33.5 113t35 117.5t33.5 112.5t28 99q68 5 138.5 12t137.5 19q-3 -32 -6.5 -79.5t-6.5 -103.5t-6 -117t-6 -120q-5 -138 -11 -293q-30 -5 -60 -8
q-25 -4 -55 -9zM214 271q4 0 14.5 0.5t22 1t21.5 1t14 1.5q0 6 1.5 20.5t3 33t3.5 40.5t4 43q4 51 10 110l6 87l-15 -1l-23 -86zM423 864.5q-8 -21.5 -24.5 -38.5t-40 -28t-53.5 -11q-25 0 -44 9.5t-32.5 25t-19.5 35.5t-6 41t6.5 42t21.5 37t37 26t51 10q28 0 49 -9t35 -23
t21 -33t7 -40q0 -22 -8 -43.5zM277 857.5q14 -17.5 39 -17.5q31 0 47.5 19.5t16.5 41.5q0 21 -14.5 37t-43.5 16q-30 0 -44.5 -18t-14.5 -40q0 -21 14 -38.5zM317 1074.5q-68 -24.5 -127 -46.5q-1 11 -1 20v18q0 16 0.5 32.5t0.5 34.5q68 69 128 123t112 111q5 -67 5.5 -125
t8.5 -119q-59 -24 -127 -48.5z" />
    <glyph glyph-name="atilde" unicode="&#xe3;" horiz-adv-x="433" 
d="M313 11l-54 -9q4 33 8 65q3 28 5.5 56t4.5 48h-87l-40 -144q-22 -3 -52 -6.5t-56 -6.5q-32 -4 -63 -8q40 133 79 262q16 54 33.5 113t35 117.5t33.5 112.5t28 99q68 5 138.5 12t137.5 19q-3 -32 -6.5 -79.5t-6.5 -103.5t-6 -117t-6 -120q-5 -138 -11 -293q-30 -5 -60 -8
q-25 -4 -55 -9zM214 271q4 0 14.5 0.5t22 1t21.5 1t14 1.5q0 6 1.5 20.5t3 33t3.5 40.5t4 43q4 51 10 110l6 87l-15 -1l-23 -86zM271 863.5q-14 -8.5 -26.5 -20.5t-24.5 -25t-22 -22q-13 9 -22.5 17t-17.5 14t-14 13l6 13t17 32.5t26.5 42.5t34.5 42.5t41 33t48 13.5
q24 0 42.5 -14t32.5 -30t22.5 -29t13.5 -13q15 0 29 10.5t27 25.5t25 30t22 24q12 -9 22 -17t18 -14t14 -13q-21 -49 -48 -87q-11 -17 -25 -32t-30 -27t-33.5 -19.5t-37.5 -7.5q-24 0 -36.5 10.5t-22.5 23.5t-20.5 23.5t-31.5 10.5q-15 0 -29 -8.5z" />
    <glyph glyph-name="ae" unicode="&#xe6;" horiz-adv-x="516" 
d="M246 -1v3h-2q7 33 13 63t11.5 58t8.5 48h-73l-52 -144q-22 -3 -53.5 -6.5t-59.5 -6.5q-33 -4 -68 -8q52 133 102 262q22 54 44.5 113t44.5 117.5t42 112.5t36 99q34 3 63.5 4t59.5 1.5t63 1.5t75 5l104 8l-39 -121q-6 1 -16 2t-22 1.5t-28 0.5l-25 -179q13 2 26 3
q11 1 24 1t24 1q-4 -28 -7.5 -55t-8.5 -55q-11 -1 -23.5 -1.5t-23.5 -1.5q-12 -1 -25 -2l-26 -183l84 6l-10 -114zM236 271q4 0 12.5 0.5l17 1l17 1t12.5 1.5q1 9 5 31t9 52t11.5 64.5l13 69t12.5 65.5t10 52l-10 -1l-33 -86z" />
    <glyph glyph-name="aeacute" unicode="&#x1fd;" horiz-adv-x="516" 
d="M246 -1v3h-2q7 33 13 63t11.5 58t8.5 48h-73l-52 -144q-22 -3 -53.5 -6.5t-59.5 -6.5q-33 -4 -68 -8q52 133 102 262q22 54 44.5 113t44.5 117.5t42 112.5t36 99q34 3 63.5 4t59.5 1.5t63 1.5t75 5l104 8l-39 -121q-6 1 -16 2t-22 1.5t-28 0.5l-25 -179q13 2 26 3
q11 1 24 1t24 1q-4 -28 -7.5 -55t-8.5 -55q-11 -1 -23.5 -1.5t-23.5 -1.5q-12 -1 -25 -2l-26 -183l84 6l-10 -114zM236 271q4 0 12.5 0.5l17 1l17 1t12.5 1.5q1 9 5 31t9 52t11.5 64.5l13 69t12.5 65.5t10 52l-10 -1l-33 -86zM459 779.5q-68 -24.5 -127 -46.5q-1 11 -1 20
v18q0 16 0.5 32.5t0.5 34.5q68 69 128 123t112 111q5 -67 5.5 -125t8.5 -119q-59 -24 -127 -48.5z" />
    <glyph glyph-name="b" unicode="b" horiz-adv-x="428" 
d="M435 175q-17 -35 -46 -63.5t-67.5 -50t-81 -36t-87 -22t-85.5 -7.5q-37 0 -69 6q48 175 76.5 352.5t54.5 357.5q52 11 108 19.5t116 8.5q25 0 53 -6t51 -22t38.5 -42t15.5 -66q0 -38 -12.5 -71t-32 -60t-44.5 -46.5t-51 -29.5q13 -7 27 -20t26 -30.5t19.5 -41.5t7.5 -54
q0 -41 -17 -76zM215.5 312.5q-3.5 -18.5 -6.5 -35.5t-6.5 -35.5t-7.5 -43.5q19 2 43 7t46 15.5t37 28t15 42.5q0 18 -9.5 30t-24 20t-31.5 11.5t-32 3.5h-8.5t-7.5 -1q-4 -24 -7.5 -42.5zM263.5 571q-2.5 -15 -5.5 -31.5t-6.5 -32.5t-5.5 -28q22 4 44 11t39.5 15.5t28 18.5
t10.5 22q0 15 -9 24.5t-23.5 15.5t-30 8.5t-27.5 2.5h-10q-2 -11 -4.5 -26z" />
    <glyph glyph-name="c" unicode="c" horiz-adv-x="414" 
d="M373.5 119.5q-29.5 -40.5 -62 -68t-65.5 -40.5t-64 -13t-56.5 14t-44.5 42t-30.5 69t-11.5 96q0 94 26 185.5t73 164.5t111.5 117.5t142.5 44.5q24 0 46 -10t38 -28t25.5 -44t9.5 -58v-12.5t-1 -13.5l-131 -35q-12 25 -28 25t-33.5 -18.5t-34.5 -48t-33 -66t-28 -73.5
t-19.5 -70.5t-7.5 -54.5q0 -32 8.5 -45t22.5 -13q11 0 25 8.5t26 22t22 30.5t14 34l114 -46q-24 -55 -53.5 -95.5z" />
    <glyph glyph-name="cacute" unicode="&#x107;" horiz-adv-x="414" 
d="M373.5 119.5q-29.5 -40.5 -62 -68t-65.5 -40.5t-64 -13t-56.5 14t-44.5 42t-30.5 69t-11.5 96q0 94 26 185.5t73 164.5t111.5 117.5t142.5 44.5q24 0 46 -10t38 -28t25.5 -44t9.5 -58v-12.5t-1 -13.5l-131 -35q-12 25 -28 25t-33.5 -18.5t-34.5 -48t-33 -66t-28 -73.5
t-19.5 -70.5t-7.5 -54.5q0 -32 8.5 -45t22.5 -13q11 0 25 8.5t26 22t22 30.5t14 34l114 -46q-24 -55 -53.5 -95.5zM374 782.5q-68 -24.5 -127 -46.5q-1 11 -1 20v18q0 16 0.5 32.5t0.5 34.5q68 69 128 123t112 111q5 -67 5.5 -125t8.5 -119q-59 -24 -127 -48.5z" />
    <glyph glyph-name="ccaron" unicode="&#x10d;" horiz-adv-x="414" 
d="M373.5 119.5q-29.5 -40.5 -62 -68t-65.5 -40.5t-64 -13t-56.5 14t-44.5 42t-30.5 69t-11.5 96q0 94 26 185.5t73 164.5t111.5 117.5t142.5 44.5q24 0 46 -10t38 -28t25.5 -44t9.5 -58v-12.5t-1 -13.5l-131 -35q-12 25 -28 25t-33.5 -18.5t-34.5 -48t-33 -66t-28 -73.5
t-19.5 -70.5t-7.5 -54.5q0 -32 8.5 -45t22.5 -13q11 0 25 8.5t26 22t22 30.5t14 34l114 -46q-24 -55 -53.5 -95.5zM418 821q-28 -38 -53 -65q-13 1 -24 1.5t-18 0.5q-10 0 -16 -0.5t-10 -0.5t-4 1q-9 26 -20.5 60.5t-22.5 65.5q-12 36 -25 73q11 10 22 21q11 9 23 19.5
t24 20.5l67 -115q10 11 24 28t28.5 34.5t28 34t24.5 28.5q13 -11 23 -20t18 -17l16 -15q-27 -43 -54 -83q-23 -34 -51 -72z" />
    <glyph glyph-name="ccedilla" unicode="&#xe7;" horiz-adv-x="414" 
d="M373.5 119.5q-29.5 -40.5 -62 -68t-65.5 -40.5t-64 -13t-56.5 14t-44.5 42t-30.5 69t-11.5 96q0 94 26 185.5t73 164.5t111.5 117.5t142.5 44.5q24 0 46 -10t38 -28t25.5 -44t9.5 -58v-12.5t-1 -13.5l-131 -35q-12 25 -28 25t-33.5 -18.5t-34.5 -48t-33 -66t-28 -73.5
t-19.5 -70.5t-7.5 -54.5q0 -32 8.5 -45t22.5 -13q11 0 25 8.5t26 22t22 30.5t14 34l114 -46q-24 -55 -53.5 -95.5zM306.5 -106.5q-10.5 -17.5 -28.5 -30.5t-42.5 -20.5t-53.5 -7.5q-24 0 -46.5 9t-37.5 28l19 88q26 -28 53 -28q22 0 36.5 16t14.5 41q0 12 -5 30
q18 -2 29.5 -4t21 -3.5t10.5 -1.5q40 -39 40 -78q0 -21 -10.5 -38.5z" />
    <glyph glyph-name="ccircumflex" unicode="&#x109;" horiz-adv-x="414" 
d="M373.5 119.5q-29.5 -40.5 -62 -68t-65.5 -40.5t-64 -13t-56.5 14t-44.5 42t-30.5 69t-11.5 96q0 94 26 185.5t73 164.5t111.5 117.5t142.5 44.5q24 0 46 -10t38 -28t25.5 -44t9.5 -58v-12.5t-1 -13.5l-131 -35q-12 25 -28 25t-33.5 -18.5t-34.5 -48t-33 -66t-28 -73.5
t-19.5 -70.5t-7.5 -54.5q0 -32 8.5 -45t22.5 -13q11 0 25 8.5t26 22t22 30.5t14 34l114 -46q-24 -55 -53.5 -95.5zM364 834q-15 -16 -30 -33t-30 -33t-25 -27q-13 11 -23 20.5t-16 17.5q-9 9 -15 17q28 41 58 80q25 33 54.5 69t55.5 62q39 -6 54.5 -5t17.5 -1
q8 -27 17.5 -62t18.5 -66l22 -74l-24 -20q-10 -9 -23 -18.5t-25 -18.5l-61 118q-11 -10 -26 -26z" />
    <glyph glyph-name="cdotaccent" unicode="&#x10b;" horiz-adv-x="414" 
d="M373.5 119.5q-29.5 -40.5 -62 -68t-65.5 -40.5t-64 -13t-56.5 14t-44.5 42t-30.5 69t-11.5 96q0 94 26 185.5t73 164.5t111.5 117.5t142.5 44.5q24 0 46 -10t38 -28t25.5 -44t9.5 -58v-12.5t-1 -13.5l-131 -35q-12 25 -28 25t-33.5 -18.5t-34.5 -48t-33 -66t-28 -73.5
t-19.5 -70.5t-7.5 -54.5q0 -32 8.5 -45t22.5 -13q11 0 25 8.5t26 22t22 30.5t14 34l114 -46q-24 -55 -53.5 -95.5zM463.5 827.5q-6.5 -16.5 -20.5 -30t-34 -21.5t-45 -8q-40 0 -60 26t-20 60q0 16 5.5 32t16.5 28.5t28 20.5t40 8q49 0 72.5 -25t23.5 -57q0 -17 -6.5 -33.5z
" />
    <glyph glyph-name="d" unicode="d" horiz-adv-x="441" 
d="M494 400.5q-15 -58.5 -42 -116t-66.5 -110t-89.5 -92t-109.5 -63.5t-126.5 -24q-14 0 -28 1.5t-28 3.5q27 138 53 269q10 55 21 114.5t21 117.5t19.5 111t15.5 96q43 8 87 15t90 7q54 0 91.5 -17t61 -47t34.5 -70t11 -85q0 -52 -15 -110.5zM250 476q-12 -54 -24 -109
t-24 -115t-23 -131q24 16 46.5 43.5t42.5 63.5t36.5 76t28.5 78t18.5 71t6.5 57q0 37 -20.5 58t-64.5 21q-11 -59 -23 -113z" />
    <glyph glyph-name="eth" unicode="&#xf0;" horiz-adv-x="445" 
d="M489.5 381q-11.5 -57 -33.5 -111t-54 -103t-72.5 -85.5t-89.5 -58t-104 -21.5q-32 0 -62.5 9.5t-60.5 30.5q8 39 17 86q8 40 19 91.5t21 111.5q-7 -1 -13.5 -1h-11.5h-11l33 106q3 -1 7 -1h16q14 74 26 144.5t20 128.5q43 8 87 15t90 7q51 0 87.5 -18.5t58.5 -51t32 -76
t10 -93.5q0 -53 -11.5 -110zM193.5 231q-9.5 -51 -22.5 -110q36 22 68 64.5t57 94.5t40 107.5t15 102.5q0 25 -5 46.5t-16 37.5t-27 25t-37 9q-10 -45 -18.5 -87t-16.5 -86q11 0 21 0.5t18 0.5t16 1l-24 -108h-15q-7 0 -15.5 0.5t-18.5 0.5q-10 -48 -19.5 -99z" />
    <glyph glyph-name="dcaron" unicode="&#x10f;" horiz-adv-x="441" 
d="M494 400.5q-15 -58.5 -42 -116t-66.5 -110t-89.5 -92t-109.5 -63.5t-126.5 -24q-14 0 -28 1.5t-28 3.5q27 138 53 269q10 55 21 114.5t21 117.5t19.5 111t15.5 96q43 8 87 15t90 7q54 0 91.5 -17t61 -47t34.5 -70t11 -85q0 -52 -15 -110.5zM250 476q-12 -54 -24 -109
t-24 -115t-23 -131q24 16 46.5 43.5t42.5 63.5t36.5 76t28.5 78t18.5 71t6.5 57q0 37 -20.5 58t-64.5 21q-11 -59 -23 -113zM378 821q-28 -38 -53 -65q-13 1 -24 1.5t-18 0.5q-10 0 -16 -0.5t-10 -0.5t-4 1q-9 26 -20.5 60.5t-22.5 65.5q-12 36 -25 73q11 10 22 21
q11 9 23 19.5t24 20.5l67 -115q10 11 24 28t28.5 34.5t28 34t24.5 28.5q13 -11 23 -20t18 -17l16 -15q-27 -43 -54 -83q-23 -34 -51 -72z" />
    <glyph glyph-name="dcroat" unicode="&#x111;" horiz-adv-x="457" 
d="M310 314q-17 2 -38 3.5t-48 2t-49 0.5q-18 0 -41.5 -0.5t-47 -1.5t-50.5 -1l48 177q27 -1 51.5 -2t49.5 -1.5t43 -0.5q20 0 29.5 0.5t39 1t47.5 1.5zM510 400.5q-15 -58.5 -42 -116t-66.5 -110t-89.5 -92t-109.5 -63.5t-126.5 -24q-14 0 -28 1.5t-28 3.5q27 138 53 269
q10 55 21 114.5t21 117.5t19.5 111t15.5 96q43 8 87 15t90 7q54 0 91.5 -17t61 -47t34.5 -70t11 -85q0 -52 -15 -110.5zM266 476q-12 -54 -24 -109t-24 -115t-23 -131q24 16 46.5 43.5t42.5 63.5t36.5 76t28.5 78t18.5 71t6.5 57q0 37 -20.5 58t-64.5 21q-11 -59 -23 -113z
" />
    <glyph glyph-name="uni01C6" unicode="&#x1c6;" horiz-adv-x="872" 
d="M494 400.5q-15 -58.5 -42 -116t-66.5 -110t-89.5 -92t-109.5 -63.5t-126.5 -24q-14 0 -28 1.5t-28 3.5q27 138 53 269q10 55 21 114.5t21 117.5t19.5 111t15.5 96q43 8 87 15t90 7q54 0 91.5 -17t61 -47t34.5 -70t11 -85q0 -52 -15 -110.5zM250 476q-12 -54 -24 -109
t-24 -115t-23 -131q24 16 46.5 43.5t42.5 63.5t36.5 76t28.5 78t18.5 71t6.5 57q0 37 -20.5 58t-64.5 21q-11 -59 -23 -113zM834 39q-29 -1 -68.5 -3t-85.5 -5t-90 -6.5t-81.5 -7.5t-59.5 -8l1 146l284 387q-17 0 -48 -3.5t-62.5 -7.5t-54.5 -8l-24 -2l19 157l409 29
l-26 -138l-273 -388q20 0 53.5 2t69.5 4t78 5l-3 -152q-9 0 -38 -1zM889 821q-28 -38 -53 -65q-13 1 -24 1.5t-18 0.5q-10 0 -16 -0.5t-10 -0.5t-4 1q-9 26 -20.5 60.5t-22.5 65.5q-12 36 -25 73q11 10 22 21q11 9 23 19.5t24 20.5l67 -115q10 11 24 28t28.5 34.5t28 34
t24.5 28.5q13 -11 23 -20t18 -17l16 -15q-27 -43 -54 -83q-23 -34 -51 -72z" />
    <glyph glyph-name="e" unicode="e" horiz-adv-x="341" 
d="M8 -1l131 711l316 27q-7 -22 -12 -45q-5 -19 -9.5 -39.5t-7.5 -36.5q-10 -1 -28.5 -1.5t-39.5 -1t-42.5 -0.5h-37.5l-35 -179q31 2 58 3q22 1 45 1t34 1q-4 -28 -7.5 -55t-8.5 -55q-10 -1 -32.5 -1.5t-45.5 -1.5q-26 -1 -57 -2l-34 -184l146 23l-10 -114z" />
    <glyph glyph-name="eacute" unicode="&#xe9;" horiz-adv-x="341" 
d="M8 -1l131 711l316 27q-7 -22 -12 -45q-5 -19 -9.5 -39.5t-7.5 -36.5q-10 -1 -28.5 -1.5t-39.5 -1t-42.5 -0.5h-37.5l-35 -179q31 2 58 3q22 1 45 1t34 1q-4 -28 -7.5 -55t-8.5 -55q-10 -1 -32.5 -1.5t-45.5 -1.5q-26 -1 -57 -2l-34 -184l146 23l-10 -114zM309 801.5
q-68 -24.5 -127 -46.5q-1 11 -1 20v18q0 16 0.5 32.5t0.5 34.5q68 69 128 123t112 111q5 -67 5.5 -125t8.5 -119q-59 -24 -127 -48.5z" />
    <glyph glyph-name="ebreve" unicode="&#x115;" horiz-adv-x="341" 
d="M8 -1l131 711l316 27q-7 -22 -12 -45q-5 -19 -9.5 -39.5t-7.5 -36.5q-10 -1 -28.5 -1.5t-39.5 -1t-42.5 -0.5h-37.5l-35 -179q31 2 58 3q22 1 45 1t34 1q-4 -28 -7.5 -55t-8.5 -55q-10 -1 -32.5 -1.5t-45.5 -1.5q-26 -1 -57 -2l-34 -184l146 23l-10 -114zM458 882
q-29 -47 -61.5 -70t-74.5 -23q-55 0 -90.5 56t-31.5 120q10 9 22 20q11 9 22.5 19.5t24.5 20.5q-2 -49 10.5 -78.5t50.5 -29.5q32 0 48.5 14.5t29.5 38.5t33 65q13 -11 23 -19.5t18 -16.5l16 -16q-11 -54 -40 -101z" />
    <glyph glyph-name="ecaron" unicode="&#x11b;" horiz-adv-x="341" 
d="M8 -1l131 711l316 27q-7 -22 -12 -45q-5 -19 -9.5 -39.5t-7.5 -36.5q-10 -1 -28.5 -1.5t-39.5 -1t-42.5 -0.5h-37.5l-35 -179q31 2 58 3q22 1 45 1t34 1q-4 -28 -7.5 -55t-8.5 -55q-10 -1 -32.5 -1.5t-45.5 -1.5q-26 -1 -57 -2l-34 -184l146 23l-10 -114zM353 840
q-28 -38 -53 -65q-13 1 -24 1.5t-18 0.5q-10 0 -16 -0.5t-10 -0.5t-4 1q-9 26 -20.5 60.5t-22.5 65.5q-12 36 -25 73q11 10 22 21q11 9 23 19.5t24 20.5l67 -115q10 11 24 28t28.5 34.5t28 34t24.5 28.5q13 -11 23 -20t18 -17l16 -15q-27 -43 -54 -83q-23 -34 -51 -72z" />
    <glyph glyph-name="ecircumflex" unicode="&#xea;" horiz-adv-x="341" 
d="M8 -1l131 711l316 27q-7 -22 -12 -45q-5 -19 -9.5 -39.5t-7.5 -36.5q-10 -1 -28.5 -1.5t-39.5 -1t-42.5 -0.5h-37.5l-35 -179q31 2 58 3q22 1 45 1t34 1q-4 -28 -7.5 -55t-8.5 -55q-10 -1 -32.5 -1.5t-45.5 -1.5q-26 -1 -57 -2l-34 -184l146 23l-10 -114zM299 853
q-15 -16 -30 -33t-30 -33t-25 -27q-13 11 -23 20.5t-16 17.5q-9 9 -15 17q28 41 58 80q25 33 54.5 69t55.5 62q39 -6 54.5 -5t17.5 -1q8 -27 17.5 -62t18.5 -66l22 -74l-24 -20q-10 -9 -23 -18.5t-25 -18.5l-61 118q-11 -10 -26 -26z" />
    <glyph glyph-name="uni1EBF" unicode="&#x1ebf;" horiz-adv-x="341" 
d="M8 -1l131 711l316 27q-7 -22 -12 -45q-5 -19 -9.5 -39.5t-7.5 -36.5q-10 -1 -28.5 -1.5t-39.5 -1t-42.5 -0.5h-37.5l-35 -179q31 2 58 3q22 1 45 1t34 1q-4 -28 -7.5 -55t-8.5 -55q-10 -1 -32.5 -1.5t-45.5 -1.5q-26 -1 -57 -2l-34 -184l146 23l-10 -114zM328 851
q-15 -16 -30 -33t-30 -33t-25 -27q-13 11 -23 20.5t-16 17.5q-9 9 -15 17q28 41 58 80q25 33 54.5 69t55.5 62q39 -6 54.5 -5t17.5 -1q8 -27 17.5 -62t18.5 -66l22 -74l-24 -20q-10 -9 -23 -18.5t-25 -18.5l-61 118q-11 -10 -26 -26zM572.5 947q-43.5 -16 -81.5 -30
q-1 7 -1 13v12q0 10 0.5 20.5t0.5 22.5q43 44 82 79t72 72q4 -43 4 -80.5t6 -77.5q-39 -15 -82.5 -31z" />
    <glyph glyph-name="uni1EC7" unicode="&#x1ec7;" horiz-adv-x="341" 
d="M8 -1l131 711l316 27q-7 -22 -12 -45q-5 -19 -9.5 -39.5t-7.5 -36.5q-10 -1 -28.5 -1.5t-39.5 -1t-42.5 -0.5h-37.5l-35 -179q31 2 58 3q22 1 45 1t34 1q-4 -28 -7.5 -55t-8.5 -55q-10 -1 -32.5 -1.5t-45.5 -1.5q-26 -1 -57 -2l-34 -184l146 23l-10 -114zM256.5 -122
q-6.5 -17 -20.5 -30t-34 -21.5t-45 -8.5q-40 0 -60 26.5t-20 59.5q0 17 5.5 33t16.5 28.5t28 20t40 7.5q49 0 72.5 -25t23.5 -56q0 -17 -6.5 -34zM299 853q-15 -16 -30 -33t-30 -33t-25 -27q-13 11 -23 20.5t-16 17.5q-9 9 -15 17q28 41 58 80q25 33 54.5 69t55.5 62
q39 -6 54.5 -5t17.5 -1q8 -27 17.5 -62t18.5 -66l22 -74l-24 -20q-10 -9 -23 -18.5t-25 -18.5l-61 118q-11 -10 -26 -26z" />
    <glyph glyph-name="uni1EC1" unicode="&#x1ec1;" horiz-adv-x="341" 
d="M8 -1l131 711l316 27q-7 -22 -12 -45q-5 -19 -9.5 -39.5t-7.5 -36.5q-10 -1 -28.5 -1.5t-39.5 -1t-42.5 -0.5h-37.5l-35 -179q31 2 58 3q22 1 45 1t34 1q-4 -28 -7.5 -55t-8.5 -55q-10 -1 -32.5 -1.5t-45.5 -1.5q-26 -1 -57 -2l-34 -184l146 23l-10 -114zM322 830
q-15 -16 -30 -33t-30 -33t-25 -27q-13 11 -23 20.5t-16 17.5q-9 9 -15 17q28 41 58 80q25 33 54.5 69t55.5 62q39 -6 54.5 -5t17.5 -1q8 -27 17.5 -62t18.5 -66l22 -74l-24 -20q-10 -9 -23 -18.5t-25 -18.5l-61 118q-11 -10 -26 -26zM264 942q-33 8 -64 16q-27 6 -55 13.5
t-47 13.5q4 19 9 46t10 53q6 30 12 61q25 -27 51 -53q21 -23 45.5 -49.5t43.5 -47.5z" />
    <glyph glyph-name="uni1EC3" unicode="&#x1ec3;" horiz-adv-x="341" 
d="M8 -1l131 711l316 27q-7 -22 -12 -45q-5 -19 -9.5 -39.5t-7.5 -36.5q-10 -1 -28.5 -1.5t-39.5 -1t-42.5 -0.5h-37.5l-35 -179q31 2 58 3q22 1 45 1t34 1q-4 -28 -7.5 -55t-8.5 -55q-10 -1 -32.5 -1.5t-45.5 -1.5q-26 -1 -57 -2l-34 -184l146 23l-10 -114zM335 845
q-15 -16 -30 -33t-30 -33t-25 -27q-13 11 -23 20.5t-16 17.5q-9 9 -15 17q28 41 58 80q25 33 54.5 69t55.5 62q39 -6 54.5 -5t17.5 -1q8 -27 17.5 -62t18.5 -66l22 -74l-24 -20q-10 -9 -23 -18.5t-25 -18.5l-61 118q-11 -10 -26 -26zM498 929q0 17 4.5 31t12.5 24.5t16.5 19
t16 15t12.5 12t5 10.5q0 2 -3 5.5t-8 3.5q-7 0 -15.5 -5t-18 -12t-19.5 -15l-16 59q24 19 45.5 27.5t43.5 8.5q10 0 23 -2.5t20 -7t16 -15t12 -39.5q0 -17 -5 -28t-12.5 -19.5t-17.5 -15.5t-19 -14.5t-15.5 -17t-10.5 -21.5l-19 -2z" />
    <glyph glyph-name="uni1EC5" unicode="&#x1ec5;" horiz-adv-x="341" 
d="M8 -1l131 711l316 27q-7 -22 -12 -45q-5 -19 -9.5 -39.5t-7.5 -36.5q-10 -1 -28.5 -1.5t-39.5 -1t-42.5 -0.5h-37.5l-35 -179q31 2 58 3q22 1 45 1t34 1q-4 -28 -7.5 -55t-8.5 -55q-10 -1 -32.5 -1.5t-45.5 -1.5q-26 -1 -57 -2l-34 -184l146 23l-10 -114zM299 853
q-15 -16 -30 -33t-30 -33t-25 -27q-13 11 -23 20.5t-16 17.5q-9 9 -15 17q28 41 58 80q25 33 54.5 69t55.5 62q39 -6 54.5 -5t17.5 -1q8 -27 17.5 -62t18.5 -66l22 -74l-24 -20q-10 -9 -23 -18.5t-25 -18.5l-61 118q-11 -10 -26 -26zM337 1139.5q-14 -8.5 -26.5 -20.5
t-24.5 -25t-22 -22q-13 9 -22.5 17t-17.5 14t-14 13l6 13t17 32.5t26.5 42.5t34.5 42.5t41 33t48 13.5q24 0 42.5 -14t32.5 -30t22.5 -29t13.5 -13q15 0 29 10.5t27 25.5t25 30t22 24q12 -9 22 -17t18 -14t14 -13q-21 -49 -48 -87q-11 -17 -25 -32t-30 -27t-33.5 -19.5
t-37.5 -7.5q-24 0 -36.5 10.5t-22.5 23.5t-20.5 23.5t-31.5 10.5q-15 0 -29 -8.5z" />
    <glyph glyph-name="uni0205" unicode="&#x205;" horiz-adv-x="341" 
d="M8 -1l131 711l316 27q-7 -22 -12 -45q-5 -19 -9.5 -39.5t-7.5 -36.5q-10 -1 -28.5 -1.5t-39.5 -1t-42.5 -0.5h-37.5l-35 -179q31 2 58 3q22 1 45 1t34 1q-4 -28 -7.5 -55t-8.5 -55q-10 -1 -32.5 -1.5t-45.5 -1.5q-26 -1 -57 -2l-34 -184l146 23l-10 -114zM274 751
q-51 12 -98 24q-41 9 -84 20.5t-72 20.5q6 29 14 70.5t15 80.5q9 46 18 94q39 -42 78 -82q33 -35 70.5 -75t65.5 -72zM563 726q-51 12 -98 24q-41 9 -84 20.5t-72 20.5q6 29 14 70.5t15 80.5q9 46 18 94q39 -42 78 -82q33 -35 70.5 -75t65.5 -72z" />
    <glyph glyph-name="edieresis" unicode="&#xeb;" horiz-adv-x="341" 
d="M8 -1l131 711l316 27q-7 -22 -12 -45q-5 -19 -9.5 -39.5t-7.5 -36.5q-10 -1 -28.5 -1.5t-39.5 -1t-42.5 -0.5h-37.5l-35 -179q31 2 58 3q22 1 45 1t34 1q-4 -28 -7.5 -55t-8.5 -55q-10 -1 -32.5 -1.5t-45.5 -1.5q-26 -1 -57 -2l-34 -184l146 23l-10 -114zM511 892.5
q-7 -16.5 -20.5 -29.5t-33 -21.5t-46.5 -8.5q-40 0 -60 26.5t-20 59.5q0 17 5.5 33t16.5 28t28.5 20t40.5 8q48 0 72 -25t24 -56q0 -18 -7 -34.5zM278.5 892.5q-6.5 -16.5 -20.5 -29.5t-34 -21.5t-45 -8.5q-40 0 -60 26.5t-20 59.5q0 17 5.5 33t16.5 28t28 20t40 8
q49 0 72.5 -25t23.5 -56q0 -18 -6.5 -34.5z" />
    <glyph glyph-name="edotaccent" unicode="&#x117;" horiz-adv-x="341" 
d="M8 -1l131 711l316 27q-7 -22 -12 -45q-5 -19 -9.5 -39.5t-7.5 -36.5q-10 -1 -28.5 -1.5t-39.5 -1t-42.5 -0.5h-37.5l-35 -179q31 2 58 3q22 1 45 1t34 1q-4 -28 -7.5 -55t-8.5 -55q-10 -1 -32.5 -1.5t-45.5 -1.5q-26 -1 -57 -2l-34 -184l146 23l-10 -114zM398.5 846.5
q-6.5 -16.5 -20.5 -30t-34 -21.5t-45 -8q-40 0 -60 26t-20 60q0 16 5.5 32t16.5 28.5t28 20.5t40 8q49 0 72.5 -25t23.5 -57q0 -17 -6.5 -33.5z" />
    <glyph glyph-name="uni1EB9" unicode="&#x1eb9;" horiz-adv-x="341" 
d="M8 -1l131 711l316 27q-7 -22 -12 -45q-5 -19 -9.5 -39.5t-7.5 -36.5q-10 -1 -28.5 -1.5t-39.5 -1t-42.5 -0.5h-37.5l-35 -179q31 2 58 3q22 1 45 1t34 1q-4 -28 -7.5 -55t-8.5 -55q-10 -1 -32.5 -1.5t-45.5 -1.5q-26 -1 -57 -2l-34 -184l146 23l-10 -114zM256.5 -122
q-6.5 -17 -20.5 -30t-34 -21.5t-45 -8.5q-40 0 -60 26.5t-20 59.5q0 17 5.5 33t16.5 28.5t28 20t40 7.5q49 0 72.5 -25t23.5 -56q0 -17 -6.5 -34z" />
    <glyph glyph-name="egrave" unicode="&#xe8;" horiz-adv-x="341" 
d="M8 -1l131 711l316 27q-7 -22 -12 -45q-5 -19 -9.5 -39.5t-7.5 -36.5q-10 -1 -28.5 -1.5t-39.5 -1t-42.5 -0.5h-37.5l-35 -179q31 2 58 3q22 1 45 1t34 1q-4 -28 -7.5 -55t-8.5 -55q-10 -1 -32.5 -1.5t-45.5 -1.5q-26 -1 -57 -2l-34 -184l146 23l-10 -114zM432 760
q-51 12 -98 24q-41 9 -84 20.5t-72 20.5q6 29 14 70.5t15 80.5q9 46 18 94q39 -42 78 -82q33 -35 70.5 -75t65.5 -72z" />
    <glyph glyph-name="uni1EBB" unicode="&#x1ebb;" horiz-adv-x="341" 
d="M8 -1l131 711l316 27q-7 -22 -12 -45q-5 -19 -9.5 -39.5t-7.5 -36.5q-10 -1 -28.5 -1.5t-39.5 -1t-42.5 -0.5h-37.5l-35 -179q31 2 58 3q22 1 45 1t34 1q-4 -28 -7.5 -55t-8.5 -55q-10 -1 -32.5 -1.5t-45.5 -1.5q-26 -1 -57 -2l-34 -184l146 23l-10 -114zM271 748
q0 17 4.5 31t12.5 24.5t16.5 19t16 15t12.5 12t5 10.5q0 2 -3 5.5t-8 3.5q-7 0 -15.5 -5t-18 -12t-19.5 -15l-16 59q24 19 45.5 27.5t43.5 8.5q10 0 23 -2.5t20 -7t16 -15t12 -39.5q0 -17 -5 -28t-12.5 -19.5t-17.5 -15.5t-19 -14.5t-15.5 -17t-10.5 -21.5l-19 -2z" />
    <glyph glyph-name="uni0207" unicode="&#x207;" horiz-adv-x="341" 
d="M8 -1l131 711l316 27q-7 -22 -12 -45q-5 -19 -9.5 -39.5t-7.5 -36.5q-10 -1 -28.5 -1.5t-39.5 -1t-42.5 -0.5h-37.5l-35 -179q31 2 58 3q22 1 45 1t34 1q-4 -28 -7.5 -55t-8.5 -55q-10 -1 -32.5 -1.5t-45.5 -1.5q-26 -1 -57 -2l-34 -184l146 23l-10 -114zM198 903
q29 47 61.5 70t74.5 23q55 0 90.5 -56t31.5 -120q-10 -9 -22 -20q-11 -9 -22.5 -19.5t-24.5 -20.5q2 49 -10.5 78.5t-50.5 29.5q-32 0 -48.5 -14.5t-29.5 -38.5t-33 -65q-13 11 -23 19.5t-18 16.5l-16 16q11 54 40 101z" />
    <glyph glyph-name="emacron" unicode="&#x113;" horiz-adv-x="341" 
d="M8 -1l131 711l316 27q-7 -22 -12 -45q-5 -19 -9.5 -39.5t-7.5 -36.5q-10 -1 -28.5 -1.5t-39.5 -1t-42.5 -0.5h-37.5l-35 -179q31 2 58 3q22 1 45 1t34 1q-4 -28 -7.5 -55t-8.5 -55q-10 -1 -32.5 -1.5t-45.5 -1.5q-26 -1 -57 -2l-34 -184l146 23l-10 -114zM289.5 798
q-32.5 -2 -63.5 -4.5t-58.5 -5t-47.5 -4.5q-5 17 -6 45t-1 54v40q0 10 1 18l374 32l16 -162q-79 -5 -151 -9q-31 -2 -63.5 -4z" />
    <glyph glyph-name="eogonek" unicode="&#x119;" horiz-adv-x="341" 
d="M8 -1l131 711l316 27q-7 -22 -12 -45q-5 -19 -9.5 -39.5t-7.5 -36.5q-10 -1 -28.5 -1.5t-39.5 -1t-42.5 -0.5h-37.5l-35 -179q31 2 58 3q22 1 45 1t34 1q-4 -28 -7.5 -55t-8.5 -55q-10 -1 -32.5 -1.5t-45.5 -1.5q-26 -1 -57 -2l-34 -184l146 23l-10 -114zM286.5 -127
q-22.5 -9 -45.5 -9q-30 0 -54.5 7.5t-42.5 20.5t-28 30.5t-10 38.5q0 39 40 78q1 0 10 1.5l21 3.5t29 4q-4 -18 -4 -30q0 -25 14.5 -41t35.5 -16q28 0 53 28l20 -88q-16 -19 -38.5 -28z" />
    <glyph glyph-name="uni1EBD" unicode="&#x1ebd;" horiz-adv-x="341" 
d="M8 -1l131 711l316 27q-7 -22 -12 -45q-5 -19 -9.5 -39.5t-7.5 -36.5q-10 -1 -28.5 -1.5t-39.5 -1t-42.5 -0.5h-37.5l-35 -179q31 2 58 3q22 1 45 1t34 1q-4 -28 -7.5 -55t-8.5 -55q-10 -1 -32.5 -1.5t-45.5 -1.5q-26 -1 -57 -2l-34 -184l146 23l-10 -114zM263 853.5
q-14 -8.5 -26.5 -20.5t-24.5 -25t-22 -22q-13 9 -22.5 17t-17.5 14t-14 13l6 13t17 32.5t26.5 42.5t34.5 42.5t41 33t48 13.5q24 0 42.5 -14t32.5 -30t22.5 -29t13.5 -13q15 0 29 10.5t27 25.5t25 30t22 24q12 -9 22 -17t18 -14t14 -13q-21 -49 -48 -87q-11 -17 -25 -32
t-30 -27t-33.5 -19.5t-37.5 -7.5q-24 0 -36.5 10.5t-22.5 23.5t-20.5 23.5t-31.5 10.5q-15 0 -29 -8.5z" />
    <glyph glyph-name="uni0259" unicode="&#x259;" horiz-adv-x="585" 
d="M475 718q58 -33 93.5 -104t35.5 -178q0 -110 -41.5 -211t-115.5 -163t-167 -62q-60 0 -107.5 34t-73.5 93t-26 131q0 82 35 172h325q-5 68 -28.5 108t-58.5 40q-21 0 -48.5 -23.5t-32.5 -41.5l-107 108q14 38 46 68t70.5 46t72.5 16q70 0 128 -33zM369.5 191.5
q40.5 46.5 55.5 118.5h-213q-10 -27 -10 -49q0 -52 17 -84t50 -32q60 0 100.5 46.5z" />
    <glyph glyph-name="f" unicode="f" horiz-adv-x="341" 
d="M62 12q-33 -7 -58 -13q12 43 23.5 96.5t23 112.5t22 119.5t20.5 116.5q21 133 42 275l335 17l-29 -123h-157l-31 -178q31 1 59 1h47t37 1q-3 -28 -7.5 -55t-8.5 -54q-13 0 -37 0.5t-49.5 1.5t-57.5 2l-46 -295q-34 -6 -67 -13q-28 -5 -61 -12z" />
    <glyph glyph-name="g" unicode="g" horiz-adv-x="499" 
d="M504 203.5q-33 -75.5 -79.5 -126.5t-100 -76t-101.5 -25q-37 0 -70.5 16t-58 48.5t-38.5 81.5t-14 115q0 129 37 225t93.5 160t121 95t120.5 31q40 0 69.5 -14t48.5 -37.5t27.5 -55t8.5 -66.5l-137 -26q-9 40 -24 57t-34 17q-25 0 -55 -35.5t-56 -91.5t-44 -123t-20 -132
q0 -62 18.5 -88.5t47.5 -26.5q20 0 41.5 10t38.5 28.5t28.5 43t12.5 53.5l-107 -16l19 99q47 6 92 12q38 5 80.5 12t74.5 13q-7 -102 -40 -177.5z" />
    <glyph glyph-name="gbreve" unicode="&#x11f;" horiz-adv-x="499" 
d="M504 203.5q-33 -75.5 -79.5 -126.5t-100 -76t-101.5 -25q-37 0 -70.5 16t-58 48.5t-38.5 81.5t-14 115q0 129 37 225t93.5 160t121 95t120.5 31q40 0 69.5 -14t48.5 -37.5t27.5 -55t8.5 -66.5l-137 -26q-9 40 -24 57t-34 17q-25 0 -55 -35.5t-56 -91.5t-44 -123t-20 -132
q0 -62 18.5 -88.5t47.5 -26.5q20 0 41.5 10t38.5 28.5t28.5 43t12.5 53.5l-107 -16l19 99q47 6 92 12q38 5 80.5 12t74.5 13q-7 -102 -40 -177.5zM568 863q-29 -47 -61.5 -70t-74.5 -23q-55 0 -90.5 56t-31.5 120q10 9 22 20q11 9 22.5 19.5t24.5 20.5q-2 -49 10.5 -78.5
t50.5 -29.5q32 0 48.5 14.5t29.5 38.5t33 65q13 -11 23 -19.5t18 -16.5l16 -16q-11 -54 -40 -101z" />
    <glyph glyph-name="gcaron" unicode="&#x1e7;" horiz-adv-x="499" 
d="M504 203.5q-33 -75.5 -79.5 -126.5t-100 -76t-101.5 -25q-37 0 -70.5 16t-58 48.5t-38.5 81.5t-14 115q0 129 37 225t93.5 160t121 95t120.5 31q40 0 69.5 -14t48.5 -37.5t27.5 -55t8.5 -66.5l-137 -26q-9 40 -24 57t-34 17q-25 0 -55 -35.5t-56 -91.5t-44 -123t-20 -132
q0 -62 18.5 -88.5t47.5 -26.5q20 0 41.5 10t38.5 28.5t28.5 43t12.5 53.5l-107 -16l19 99q47 6 92 12q38 5 80.5 12t74.5 13q-7 -102 -40 -177.5zM463 821q-28 -38 -53 -65q-13 1 -24 1.5t-18 0.5q-10 0 -16 -0.5t-10 -0.5t-4 1q-9 26 -20.5 60.5t-22.5 65.5q-12 36 -25 73
q11 10 22 21q11 9 23 19.5t24 20.5l67 -115q10 11 24 28t28.5 34.5t28 34t24.5 28.5q13 -11 23 -20t18 -17l16 -15q-27 -43 -54 -83q-23 -34 -51 -72z" />
    <glyph glyph-name="gcircumflex" unicode="&#x11d;" horiz-adv-x="499" 
d="M504 203.5q-33 -75.5 -79.5 -126.5t-100 -76t-101.5 -25q-37 0 -70.5 16t-58 48.5t-38.5 81.5t-14 115q0 129 37 225t93.5 160t121 95t120.5 31q40 0 69.5 -14t48.5 -37.5t27.5 -55t8.5 -66.5l-137 -26q-9 40 -24 57t-34 17q-25 0 -55 -35.5t-56 -91.5t-44 -123t-20 -132
q0 -62 18.5 -88.5t47.5 -26.5q20 0 41.5 10t38.5 28.5t28.5 43t12.5 53.5l-107 -16l19 99q47 6 92 12q38 5 80.5 12t74.5 13q-7 -102 -40 -177.5zM409 834q-15 -16 -30 -33t-30 -33t-25 -27q-13 11 -23 20.5t-16 17.5q-9 9 -15 17q28 41 58 80q25 33 54.5 69t55.5 62
q39 -6 54.5 -5t17.5 -1q8 -27 17.5 -62t18.5 -66l22 -74l-24 -20q-10 -9 -23 -18.5t-25 -18.5l-61 118q-11 -10 -26 -26z" />
    <glyph glyph-name="gcommaaccent" unicode="&#x123;" horiz-adv-x="499" 
d="M504 203.5q-33 -75.5 -79.5 -126.5t-100 -76t-101.5 -25q-37 0 -70.5 16t-58 48.5t-38.5 81.5t-14 115q0 129 37 225t93.5 160t121 95t120.5 31q40 0 69.5 -14t48.5 -37.5t27.5 -55t8.5 -66.5l-137 -26q-9 40 -24 57t-34 17q-25 0 -55 -35.5t-56 -91.5t-44 -123t-20 -132
q0 -62 18.5 -88.5t47.5 -26.5q20 0 41.5 10t38.5 28.5t28.5 43t12.5 53.5l-107 -16l19 99q47 6 92 12q38 5 80.5 12t74.5 13q-7 -102 -40 -177.5zM88 -356q8 40 17 81.5t17 80t14.5 71.5t9.5 58q8 0 25.5 -0.5t26.5 -0.5h36.5t45 1t47.5 2q-8 -37 -21.5 -87.5t-28.5 -100.5
t-32 -105h-157z" />
    <glyph glyph-name="gdotaccent" unicode="&#x121;" horiz-adv-x="499" 
d="M504 203.5q-33 -75.5 -79.5 -126.5t-100 -76t-101.5 -25q-37 0 -70.5 16t-58 48.5t-38.5 81.5t-14 115q0 129 37 225t93.5 160t121 95t120.5 31q40 0 69.5 -14t48.5 -37.5t27.5 -55t8.5 -66.5l-137 -26q-9 40 -24 57t-34 17q-25 0 -55 -35.5t-56 -91.5t-44 -123t-20 -132
q0 -62 18.5 -88.5t47.5 -26.5q20 0 41.5 10t38.5 28.5t28.5 43t12.5 53.5l-107 -16l19 99q47 6 92 12q38 5 80.5 12t74.5 13q-7 -102 -40 -177.5zM508.5 827.5q-6.5 -16.5 -20.5 -30t-34 -21.5t-45 -8q-40 0 -60 26t-20 60q0 16 5.5 32t16.5 28.5t28 20.5t40 8
q49 0 72.5 -25t23.5 -57q0 -17 -6.5 -33.5z" />
    <glyph glyph-name="h" unicode="h" horiz-adv-x="441" 
d="M8 -2q28 140 54 273q10 57 21 118.5t20.5 121.5t18 116.5t13.5 102.5q23 -1 42.5 -2.5t38.5 -2.5t38.5 -1.5t42.5 -0.5q-17 -71 -33.5 -142t-30.5 -143l99 11q14 71 25 137.5t29 137.5q23 4 51 6.5t52 4.5t40.5 3.5l16.5 1.5q-14 -45 -26.5 -98.5t-24.5 -111t-23 -116.5
t-20 -112q-22 -127 -41 -260l-156 -18q13 60 23 117q10 48 20.5 100t16.5 89l-97 -9q-7 -38 -16.5 -88t-17.5 -95l-22 -108z" />
    <glyph glyph-name="hbar" unicode="&#x127;" horiz-adv-x="586" 
d="M8 -2q28 140 54 273q10 57 21 118.5t20.5 121.5t18 116.5t13.5 102.5q23 -1 42.5 -2.5t38.5 -2.5t38.5 -1.5t42.5 -0.5q-17 -71 -33.5 -142t-30.5 -143l99 11q14 71 25 137.5t29 137.5q23 4 51 6.5t52 4.5t40.5 3.5l16.5 1.5q-14 -45 -26.5 -98.5t-24.5 -111t-23 -116.5
t-20 -112q-22 -127 -41 -260l-156 -18q13 60 23 117q10 48 20.5 100t16.5 89l-97 -9q-7 -38 -16.5 -88t-17.5 -95l-22 -108zM20 489l20 109l538 59l-15 -110z" />
    <glyph glyph-name="hcircumflex" unicode="&#x125;" horiz-adv-x="441" 
d="M8 -2q28 140 54 273q10 57 21 118.5t20.5 121.5t18 116.5t13.5 102.5q23 -1 42.5 -2.5t38.5 -2.5t38.5 -1.5t42.5 -0.5q-17 -71 -33.5 -142t-30.5 -143l99 11q14 71 25 137.5t29 137.5q23 4 51 6.5t52 4.5t40.5 3.5l16.5 1.5q-14 -45 -26.5 -98.5t-24.5 -111t-23 -116.5
t-20 -112q-22 -127 -41 -260l-156 -18q13 60 23 117q10 48 20.5 100t16.5 89l-97 -9q-7 -38 -16.5 -88t-17.5 -95l-22 -108zM374 843q-15 -16 -30 -33t-30 -33t-25 -27q-13 11 -23 20.5t-16 17.5q-9 9 -15 17q28 41 58 80q25 33 54.5 69t55.5 62q39 -6 54.5 -5t17.5 -1
q8 -27 17.5 -62t18.5 -66l22 -74l-24 -20q-10 -9 -23 -18.5t-25 -18.5l-61 118q-11 -10 -26 -26z" />
    <glyph glyph-name="i" unicode="i" horiz-adv-x="202" 
d="M134.5 17.5q-26.5 -2.5 -54.5 -6t-50.5 -6.5t-24.5 -4q10 43 20.5 95.5t21.5 110t21 116.5t19 114q21 128 42 263l156 25q-23 -134 -45 -263q-9 -55 -18.5 -114t-19 -117t-17.5 -112.5t-15 -98.5q-9 0 -35.5 -2.5z" />
    <glyph glyph-name="dotlessi" unicode="&#x131;" horiz-adv-x="202" 
d="M134.5 17.5q-26.5 -2.5 -54.5 -6t-50.5 -6.5t-24.5 -4q10 43 20.5 95.5t21.5 110t21 116.5t19 114q21 128 42 263l156 25q-23 -134 -45 -263q-9 -55 -18.5 -114t-19 -117t-17.5 -112.5t-15 -98.5q-9 0 -35.5 -2.5z" />
    <glyph glyph-name="iacute" unicode="&#xed;" horiz-adv-x="202" 
d="M134.5 17.5q-26.5 -2.5 -54.5 -6t-50.5 -6.5t-24.5 -4q10 43 20.5 95.5t21.5 110t21 116.5t19 114q21 128 42 263l156 25q-23 -134 -45 -263q-9 -55 -18.5 -114t-19 -117t-17.5 -112.5t-15 -98.5q-9 0 -35.5 -2.5zM227 782.5q-68 -24.5 -127 -46.5q-1 11 -1 20v18
q0 16 0.5 32.5t0.5 34.5q68 69 128 123t112 111q5 -67 5.5 -125t8.5 -119q-59 -24 -127 -48.5z" />
    <glyph glyph-name="ibreve" unicode="&#x12d;" horiz-adv-x="202" 
d="M134.5 17.5q-26.5 -2.5 -54.5 -6t-50.5 -6.5t-24.5 -4q10 43 20.5 95.5t21.5 110t21 116.5t19 114q21 128 42 263l156 25q-23 -134 -45 -263q-9 -55 -18.5 -114t-19 -117t-17.5 -112.5t-15 -98.5q-9 0 -35.5 -2.5zM376 863q-29 -47 -61.5 -70t-74.5 -23q-55 0 -90.5 56
t-31.5 120q10 9 22 20q11 9 22.5 19.5t24.5 20.5q-2 -49 10.5 -78.5t50.5 -29.5q32 0 48.5 14.5t29.5 38.5t33 65q13 -11 23 -19.5t18 -16.5l16 -16q-11 -54 -40 -101z" />
    <glyph glyph-name="icircumflex" unicode="&#xee;" horiz-adv-x="202" 
d="M134.5 17.5q-26.5 -2.5 -54.5 -6t-50.5 -6.5t-24.5 -4q10 43 20.5 95.5t21.5 110t21 116.5t19 114q21 128 42 263l156 25q-23 -134 -45 -263q-9 -55 -18.5 -114t-19 -117t-17.5 -112.5t-15 -98.5q-9 0 -35.5 -2.5zM217 834q-15 -16 -30 -33t-30 -33t-25 -27
q-13 11 -23 20.5t-16 17.5q-9 9 -15 17q28 41 58 80q25 33 54.5 69t55.5 62q39 -6 54.5 -5t17.5 -1q8 -27 17.5 -62t18.5 -66l22 -74l-24 -20q-10 -9 -23 -18.5t-25 -18.5l-61 118q-11 -10 -26 -26z" />
    <glyph glyph-name="uni0209" unicode="&#x209;" horiz-adv-x="202" 
d="M134.5 17.5q-26.5 -2.5 -54.5 -6t-50.5 -6.5t-24.5 -4q10 43 20.5 95.5t21.5 110t21 116.5t19 114q21 128 42 263l156 25q-23 -134 -45 -263q-9 -55 -18.5 -114t-19 -117t-17.5 -112.5t-15 -98.5q-9 0 -35.5 -2.5zM192 732q-51 12 -98 24q-41 9 -84 20.5t-72 20.5
q6 29 14 70.5t15 80.5q9 46 18 94q39 -42 78 -82q33 -35 70.5 -75t65.5 -72zM481 707q-51 12 -98 24q-41 9 -84 20.5t-72 20.5q6 29 14 70.5t15 80.5q9 46 18 94q39 -42 78 -82q33 -35 70.5 -75t65.5 -72z" />
    <glyph glyph-name="idieresis" unicode="&#xef;" horiz-adv-x="202" 
d="M134.5 17.5q-26.5 -2.5 -54.5 -6t-50.5 -6.5t-24.5 -4q10 43 20.5 95.5t21.5 110t21 116.5t19 114q21 128 42 263l156 25q-23 -134 -45 -263q-9 -55 -18.5 -114t-19 -117t-17.5 -112.5t-15 -98.5q-9 0 -35.5 -2.5zM429 873.5q-7 -16.5 -20.5 -29.5t-33 -21.5t-46.5 -8.5
q-40 0 -60 26.5t-20 59.5q0 17 5.5 33t16.5 28t28.5 20t40.5 8q48 0 72 -25t24 -56q0 -18 -7 -34.5zM196.5 873.5q-6.5 -16.5 -20.5 -29.5t-34 -21.5t-45 -8.5q-40 0 -60 26.5t-20 59.5q0 17 5.5 33t16.5 28t28 20t40 8q49 0 72.5 -25t23.5 -56q0 -18 -6.5 -34.5z" />
    <glyph glyph-name="i.loclTRK" horiz-adv-x="202" 
d="M134.5 17.5q-26.5 -2.5 -54.5 -6t-50.5 -6.5t-24.5 -4q10 43 20.5 95.5t21.5 110t21 116.5t19 114q21 128 42 263l156 25q-23 -134 -45 -263q-9 -55 -18.5 -114t-19 -117t-17.5 -112.5t-15 -98.5q-9 0 -35.5 -2.5zM316.5 827.5q-6.5 -16.5 -20.5 -30t-34 -21.5t-45 -8
q-40 0 -60 26t-20 60q0 16 5.5 32t16.5 28.5t28 20.5t40 8q49 0 72.5 -25t23.5 -57q0 -17 -6.5 -33.5z" />
    <glyph glyph-name="uni1ECB" unicode="&#x1ecb;" horiz-adv-x="202" 
d="M134.5 17.5q-26.5 -2.5 -54.5 -6t-50.5 -6.5t-24.5 -4q10 43 20.5 95.5t21.5 110t21 116.5t19 114q21 128 42 263l156 25q-23 -134 -45 -263q-9 -55 -18.5 -114t-19 -117t-17.5 -112.5t-15 -98.5q-9 0 -35.5 -2.5zM186.5 -122q-6.5 -17 -20.5 -30t-34 -21.5t-45 -8.5
q-40 0 -60 26.5t-20 59.5q0 17 5.5 33t16.5 28.5t28 20t40 7.5q49 0 72.5 -25t23.5 -56q0 -17 -6.5 -34z" />
    <glyph glyph-name="igrave" unicode="&#xec;" horiz-adv-x="202" 
d="M134.5 17.5q-26.5 -2.5 -54.5 -6t-50.5 -6.5t-24.5 -4q10 43 20.5 95.5t21.5 110t21 116.5t19 114q21 128 42 263l156 25q-23 -134 -45 -263q-9 -55 -18.5 -114t-19 -117t-17.5 -112.5t-15 -98.5q-9 0 -35.5 -2.5zM350 741q-51 12 -98 24q-41 9 -84 20.5t-72 20.5
q6 29 14 70.5t15 80.5q9 46 18 94q39 -42 78 -82q33 -35 70.5 -75t65.5 -72z" />
    <glyph glyph-name="uni1EC9" unicode="&#x1ec9;" horiz-adv-x="202" 
d="M134.5 17.5q-26.5 -2.5 -54.5 -6t-50.5 -6.5t-24.5 -4q10 43 20.5 95.5t21.5 110t21 116.5t19 114q21 128 42 263l156 25q-23 -134 -45 -263q-9 -55 -18.5 -114t-19 -117t-17.5 -112.5t-15 -98.5q-9 0 -35.5 -2.5zM189 729q0 17 4.5 31t12.5 24.5t16.5 19t16 15t12.5 12
t5 10.5q0 2 -3 5.5t-8 3.5q-7 0 -15.5 -5t-18 -12t-19.5 -15l-16 59q24 19 45.5 27.5t43.5 8.5q10 0 23 -2.5t20 -7t16 -15t12 -39.5q0 -17 -5 -28t-12.5 -19.5t-17.5 -15.5t-19 -14.5t-15.5 -17t-10.5 -21.5l-19 -2z" />
    <glyph glyph-name="uni020B" unicode="&#x20b;" horiz-adv-x="202" 
d="M134.5 17.5q-26.5 -2.5 -54.5 -6t-50.5 -6.5t-24.5 -4q10 43 20.5 95.5t21.5 110t21 116.5t19 114q21 128 42 263l156 25q-23 -134 -45 -263q-9 -55 -18.5 -114t-19 -117t-17.5 -112.5t-15 -98.5q-9 0 -35.5 -2.5zM116 884q29 47 61.5 70t74.5 23q55 0 90.5 -56
t31.5 -120q-10 -9 -22 -20q-11 -9 -22.5 -19.5t-24.5 -20.5q2 49 -10.5 78.5t-50.5 29.5q-32 0 -48.5 -14.5t-29.5 -38.5t-33 -65q-13 11 -23 19.5t-18 16.5l-16 16q11 54 40 101z" />
    <glyph glyph-name="ij" unicode="&#x133;" horiz-adv-x="481" 
d="M134.5 17.5q-26.5 -2.5 -54.5 -6t-50.5 -6.5t-24.5 -4q10 43 20.5 95.5t21.5 110t21 116.5t19 114q21 128 42 263l156 25q-23 -134 -45 -263q-9 -55 -18.5 -114t-19 -117t-17.5 -112.5t-15 -98.5q-9 0 -35.5 -2.5zM466 174.5q-13 -47.5 -34.5 -86t-52 -64t-72.5 -25.5
q-28 0 -60.5 12t-71.5 41l69 154q5 -10 19.5 -17.5t31.5 -7.5q12 0 21.5 20t16.5 46.5t11 54.5t6 45q19 97 36 193.5t40 192.5q45 4 88.5 12.5t87.5 20.5q-15 -51 -31 -116t-31 -133t-28.5 -133.5t-23.5 -117.5q-9 -44 -22 -91.5z" />
    <glyph glyph-name="imacron" unicode="&#x12b;" horiz-adv-x="202" 
d="M134.5 17.5q-26.5 -2.5 -54.5 -6t-50.5 -6.5t-24.5 -4q10 43 20.5 95.5t21.5 110t21 116.5t19 114q21 128 42 263l156 25q-23 -134 -45 -263q-9 -55 -18.5 -114t-19 -117t-17.5 -112.5t-15 -98.5q-9 0 -35.5 -2.5zM207.5 779q-32.5 -2 -63.5 -4.5t-58.5 -5t-47.5 -4.5
q-5 17 -6 45t-1 54v40q0 10 1 18l374 32l16 -162q-79 -5 -151 -9q-31 -2 -63.5 -4z" />
    <glyph glyph-name="iogonek" unicode="&#x12f;" horiz-adv-x="202" 
d="M134.5 17.5q-26.5 -2.5 -54.5 -6t-50.5 -6.5t-24.5 -4q10 43 20.5 95.5t21.5 110t21 116.5t19 114q21 128 42 263l156 25q-23 -134 -45 -263q-9 -55 -18.5 -114t-19 -117t-17.5 -112.5t-15 -98.5q-9 0 -35.5 -2.5zM316.5 827.5q-6.5 -16.5 -20.5 -30t-34 -21.5t-45 -8
q-40 0 -60 26t-20 60q0 16 5.5 32t16.5 28.5t28 20.5t40 8q49 0 72.5 -25t23.5 -57q0 -17 -6.5 -33.5zM143.5 -156q-22.5 -9 -45.5 -9q-30 0 -54.5 7.5t-42.5 20.5t-28 30.5t-10 38.5q0 39 40 78q1 0 10 1.5l21 3.5t29 4q-4 -18 -4 -30q0 -25 14.5 -41t35.5 -16q28 0 53 28
l20 -88q-16 -19 -38.5 -28z" />
    <glyph glyph-name="itilde" unicode="&#x129;" horiz-adv-x="202" 
d="M134.5 17.5q-26.5 -2.5 -54.5 -6t-50.5 -6.5t-24.5 -4q10 43 20.5 95.5t21.5 110t21 116.5t19 114q21 128 42 263l156 25q-23 -134 -45 -263q-9 -55 -18.5 -114t-19 -117t-17.5 -112.5t-15 -98.5q-9 0 -35.5 -2.5zM181 834.5q-14 -8.5 -26.5 -20.5t-24.5 -25t-22 -22
q-13 9 -22.5 17t-17.5 14t-14 13l6 13t17 32.5t26.5 42.5t34.5 42.5t41 33t48 13.5q24 0 42.5 -14t32.5 -30t22.5 -29t13.5 -13q15 0 29 10.5t27 25.5t25 30t22 24q12 -9 22 -17t18 -14t14 -13q-21 -49 -48 -87q-11 -17 -25 -32t-30 -27t-33.5 -19.5t-37.5 -7.5
q-24 0 -36.5 10.5t-22.5 23.5t-20.5 23.5t-31.5 10.5q-15 0 -29 -8.5z" />
    <glyph glyph-name="j" unicode="j" horiz-adv-x="279" 
d="M264 174.5q-13 -47.5 -34.5 -86t-52 -64t-72.5 -25.5q-28 0 -60.5 12t-71.5 41l69 154q5 -10 19.5 -17.5t31.5 -7.5q12 0 21.5 20t16.5 46.5t11 54.5t6 45q19 97 36 193.5t40 192.5q45 4 88.5 12.5t87.5 20.5q-15 -51 -31 -116t-31 -133t-28.5 -133.5t-23.5 -117.5
q-9 -44 -22 -91.5z" />
    <glyph glyph-name="uni0237" unicode="&#x237;" horiz-adv-x="279" 
d="M264 174.5q-13 -47.5 -34.5 -86t-52 -64t-72.5 -25.5q-28 0 -60.5 12t-71.5 41l69 154q5 -10 19.5 -17.5t31.5 -7.5q12 0 21.5 20t16.5 46.5t11 54.5t6 45q19 97 36 193.5t40 192.5q45 4 88.5 12.5t87.5 20.5q-15 -51 -31 -116t-31 -133t-28.5 -133.5t-23.5 -117.5
q-9 -44 -22 -91.5z" />
    <glyph glyph-name="jcircumflex" unicode="&#x135;" horiz-adv-x="279" 
d="M264 174.5q-13 -47.5 -34.5 -86t-52 -64t-72.5 -25.5q-28 0 -60.5 12t-71.5 41l69 154q5 -10 19.5 -17.5t31.5 -7.5q12 0 21.5 20t16.5 46.5t11 54.5t6 45q19 97 36 193.5t40 192.5q45 4 88.5 12.5t87.5 20.5q-15 -51 -31 -116t-31 -133t-28.5 -133.5t-23.5 -117.5
q-9 -44 -22 -91.5zM311 834q-15 -16 -30 -33t-30 -33t-25 -27q-13 11 -23 20.5t-16 17.5q-9 9 -15 17q28 41 58 80q25 33 54.5 69t55.5 62q39 -6 54.5 -5t17.5 -1q8 -27 17.5 -62t18.5 -66l22 -74l-24 -20q-10 -9 -23 -18.5t-25 -18.5l-61 118q-11 -10 -26 -26z" />
    <glyph glyph-name="k" unicode="k" horiz-adv-x="462" 
d="M7 -1q30 140 56 272q10 57 21 118t20.5 121t17 116.5t11.5 102.5q23 -2 52 -3.5t54 -3.5q30 -2 60 -2q-1 -4 -3 -15t-5 -26.5t-6.5 -34.5t-7.5 -38l-18 -99l6 1q10 16 28.5 44.5t38.5 60.5t39 61.5t32 50.5q50 4 100 9t100 13q-47 -63 -91 -124q-19 -26 -38.5 -54
t-38.5 -55t-35.5 -52t-29.5 -46q22 -101 52 -195t61 -192q-23 1 -47 1.5t-47 0.5q-29 0 -56 -0.5t-56 -1.5q-9 65 -19.5 136.5t-19.5 136.5l-18 -21q-7 -30 -15.5 -74t-16.5 -85q-9 -48 -19 -99z" />
    <glyph glyph-name="kcommaaccent" unicode="&#x137;" horiz-adv-x="462" 
d="M7 -1q30 140 56 272q10 57 21 118t20.5 121t17 116.5t11.5 102.5q23 -2 52 -3.5t54 -3.5q30 -2 60 -2q-1 -4 -3 -15t-5 -26.5t-6.5 -34.5t-7.5 -38l-18 -99l6 1q10 16 28.5 44.5t38.5 60.5t39 61.5t32 50.5q50 4 100 9t100 13q-47 -63 -91 -124q-19 -26 -38.5 -54
t-38.5 -55t-35.5 -52t-29.5 -46q22 -101 52 -195t61 -192q-23 1 -47 1.5t-47 0.5q-29 0 -56 -0.5t-56 -1.5q-9 65 -19.5 136.5t-19.5 136.5l-18 -21q-7 -30 -15.5 -74t-16.5 -85q-9 -48 -19 -99zM69 -356q8 40 17 81.5t17 80t14.5 71.5t9.5 58q8 0 25.5 -0.5t26.5 -0.5h36.5
t45 1t47.5 2q-8 -37 -21.5 -87.5t-28.5 -100.5t-32 -105h-157z" />
    <glyph glyph-name="kgreenlandic" unicode="&#x138;" horiz-adv-x="462" 
d="M361 356l121 -326l-205 -1l-46 209l-27 -24l-35 -187l-153 -30l53 310l49 346l166 -9l-37 -199h9l89 190l197 23z" />
    <glyph glyph-name="l" unicode="l" horiz-adv-x="302" 
d="M210.5 30q-34.5 -2 -69.5 -6t-68.5 -10.5t-60.5 -15.5q6 45 14 100t18.5 114t21 119t21.5 115q25 131 53 267l175 23q-27 -116 -52 -226q-11 -47 -22 -97.5t-21 -98.5t-18 -93t-13 -80q25 2 53.5 2.5t50.5 0.5q1 -19 3 -37.5t4.5 -33.5t4 -26.5t2.5 -15.5q-8 0 -15.5 0.5
t-15.5 0.5q-31 0 -65.5 -2z" />
    <glyph glyph-name="lacute" unicode="&#x13a;" horiz-adv-x="302" 
d="M210.5 30q-34.5 -2 -69.5 -6t-68.5 -10.5t-60.5 -15.5q6 45 14 100t18.5 114t21 119t21.5 115q25 131 53 267l175 23q-27 -116 -52 -226q-11 -47 -22 -97.5t-21 -98.5t-18 -93t-13 -80q25 2 53.5 2.5t50.5 0.5q1 -19 3 -37.5t4.5 -33.5t4 -26.5t2.5 -15.5q-8 0 -15.5 0.5
t-15.5 0.5q-31 0 -65.5 -2zM302 796.5q-68 -24.5 -127 -46.5q-1 11 -1 20v18q0 16 0.5 32.5t0.5 34.5q68 69 128 123t112 111q5 -67 5.5 -125t8.5 -119q-59 -24 -127 -48.5z" />
    <glyph glyph-name="lcaron" unicode="&#x13e;" horiz-adv-x="521" 
d="M210.5 30q-34.5 -2 -69.5 -6t-68.5 -10.5t-60.5 -15.5q6 45 14 100t18.5 114t21 119t21.5 115q25 131 53 267l175 23q-27 -116 -52 -226q-11 -47 -22 -97.5t-21 -98.5t-18 -93t-13 -80q25 2 53.5 2.5t50.5 0.5q1 -19 3 -37.5t4.5 -33.5t4 -26.5t2.5 -15.5q-8 0 -15.5 0.5
t-15.5 0.5q-31 0 -65.5 -2zM330 430q8 40 17 81.5t17 80t14.5 71.5t9.5 58q8 0 25.5 -0.5t26.5 -0.5h36.5t45 1t47.5 2q-8 -37 -21.5 -87.5t-28.5 -100.5t-32 -105h-157z" />
    <glyph glyph-name="lcommaaccent" unicode="&#x13c;" horiz-adv-x="302" 
d="M210.5 30q-34.5 -2 -69.5 -6t-68.5 -10.5t-60.5 -15.5q6 45 14 100t18.5 114t21 119t21.5 115q25 131 53 267l175 23q-27 -116 -52 -226q-11 -47 -22 -97.5t-21 -98.5t-18 -93t-13 -80q25 2 53.5 2.5t50.5 0.5q1 -19 3 -37.5t4.5 -33.5t4 -26.5t2.5 -15.5q-8 0 -15.5 0.5
t-15.5 0.5q-31 0 -65.5 -2zM-11 -356q8 40 17 81.5t17 80t14.5 71.5t9.5 58q8 0 25.5 -0.5t26.5 -0.5h36.5t45 1t47.5 2q-8 -37 -21.5 -87.5t-28.5 -100.5t-32 -105h-157z" />
    <glyph glyph-name="ldot" unicode="&#x140;" horiz-adv-x="586" 
d="M210.5 30q-34.5 -2 -69.5 -6t-68.5 -10.5t-60.5 -15.5q6 45 14 100t18.5 114t21 119t21.5 115q25 131 53 267l175 23q-27 -116 -52 -226q-11 -47 -22 -97.5t-21 -98.5t-18 -93t-13 -80q25 2 53.5 2.5t50.5 0.5q1 -19 3 -37.5t4.5 -33.5t4 -26.5t2.5 -15.5q-8 0 -15.5 0.5
t-15.5 0.5q-31 0 -65.5 -2zM513.5 346q-8.5 -19 -24.5 -33.5t-40 -23t-55 -8.5q-21 0 -38 8t-27.5 21.5t-16.5 30.5t-6 34q0 19 6 36.5t18.5 31t31 22.5t44.5 9q58 0 87 -27.5t29 -62.5q0 -19 -8.5 -38z" />
    <glyph glyph-name="uni01C9" unicode="&#x1c9;" horiz-adv-x="581" 
d="M210.5 30q-34.5 -2 -69.5 -6t-68.5 -10.5t-60.5 -15.5q6 45 14 100t18.5 114t21 119t21.5 115q25 131 53 267l175 23q-27 -116 -52 -226q-11 -47 -22 -97.5t-21 -98.5t-18 -93t-13 -80q25 2 53.5 2.5t50.5 0.5q1 -19 3 -37.5t4.5 -33.5t4 -26.5t2.5 -15.5q-8 0 -15.5 0.5
t-15.5 0.5q-31 0 -65.5 -2zM566 174.5q-13 -47.5 -34.5 -86t-52 -64t-72.5 -25.5q-28 0 -60.5 12t-71.5 41l69 154q5 -10 19.5 -17.5t31.5 -7.5q12 0 21.5 20t16.5 46.5t11 54.5t6 45q19 97 36 193.5t40 192.5q45 4 88.5 12.5t87.5 20.5q-15 -51 -31 -116t-31 -133
t-28.5 -133.5t-23.5 -117.5q-9 -44 -22 -91.5z" />
    <glyph glyph-name="lslash" unicode="&#x142;" horiz-adv-x="309" 
d="M216.5 30q-34.5 -2 -69.5 -6t-68.5 -10.5t-60.5 -15.5q8 69 22.5 157t30.5 178q-8 -4 -16 -6.5t-13 -4.5q-7 -3 -12 -5l11 124q8 2 17 5q7 2 16.5 5t20.5 7q10 54 18.5 100t16.5 81q8 40 16 74l175 23q-7 -29 -15 -63q-8 -29 -17 -69t-19 -85q16 5 33 11.5t31 11.5
q17 6 31 13l3 -120l-126 -42q-14 -71 -27 -137t-20 -115q25 2 53 2.5t51 0.5q1 -19 3 -37.5t4.5 -33.5t4 -26.5t2.5 -15.5q-8 0 -15.5 0.5t-15.5 0.5q-31 0 -65.5 -2z" />
    <glyph glyph-name="m" unicode="m" horiz-adv-x="619" 
d="M-30 6q44 133 84 261q17 54 35 113t36 117t33.5 112t27.5 100q55 0 104 6t106 11q-3 -22 -6.5 -49.5t-8 -57.5t-9.5 -62t-12 -82t-19 -125h13q29 76 48 126.5t31 82.5t24.5 62.5t24 58t21.5 48.5q25 2 47 5t44 6.5t44.5 7t49.5 8.5q-10 -58 -19 -119t-16 -121.5
t-13.5 -119.5t-11.5 -112q-12 -124 -21 -242l-174 -31q0 5 1.5 27t4 54t7 71l9 78t9.5 75.5t10 62.5h-9q-14 -42 -31 -88.5t-34.5 -94.5t-34.5 -94t-30 -88q-35 -1 -60 -2.5t-58 -3.5l32 371h-15q-2 -13 -10 -43.5t-18.5 -70t-22.5 -82t-22.5 -79t-17.5 -60t-8 -26.5z" />
    <glyph glyph-name="n" unicode="n" horiz-adv-x="452" 
d="M5 -5q30 144 57 279q10 58 21.5 120t21.5 122.5t18 116t12 100.5q13 -1 22 -1h21q14 0 34 0.5t40 1.5t43 2q14 -70 25 -135q11 -57 22.5 -117t20.5 -102q4 20 9 46.5t11 55.5t11.5 58.5t11.5 58.5q14 65 29 134l122 15q-34 -153 -60 -290q-12 -59 -23.5 -119.5
t-21.5 -116t-17 -103t-11 -79.5q-3 0 -23.5 -4.5t-47 -10.5l-53 -12t-39.5 -11q-6 80 -13 152q-3 31 -6.5 63.5t-7.5 62.5t-8 56t-8 45q-3 -19 -8 -44t-10 -53t-10 -58.5t-11 -58.5q-13 -67 -28 -140z" />
    <glyph glyph-name="nacute" unicode="&#x144;" horiz-adv-x="452" 
d="M5 -5q30 144 57 279q10 58 21.5 120t21.5 122.5t18 116t12 100.5q13 -1 22 -1h21q14 0 34 0.5t40 1.5t43 2q14 -70 25 -135q11 -57 22.5 -117t20.5 -102q4 20 9 46.5t11 55.5t11.5 58.5t11.5 58.5q14 65 29 134l122 15q-34 -153 -60 -290q-12 -59 -23.5 -119.5
t-21.5 -116t-17 -103t-11 -79.5q-3 0 -23.5 -4.5t-47 -10.5l-53 -12t-39.5 -11q-6 80 -13 152q-3 31 -6.5 63.5t-7.5 62.5t-8 56t-8 45q-3 -19 -8 -44t-10 -53t-10 -58.5t-11 -58.5q-13 -67 -28 -140zM370 782.5q-68 -24.5 -127 -46.5q-1 11 -1 20v18q0 16 0.5 32.5
t0.5 34.5q68 69 128 123t112 111q5 -67 5.5 -125t8.5 -119q-59 -24 -127 -48.5z" />
    <glyph glyph-name="napostrophe" unicode="&#x149;" horiz-adv-x="631" 
d="M49 422q14 54 27 108q12 47 25 102.5t25 106.5q6 -1 16.5 -1.5t22 -1t22 -0.5h16.5q14 0 32.5 2t36.5 5t39 7l-98 -312zM184 -5q30 144 57 279q10 58 21.5 120t21.5 122.5t18 116t12 100.5q13 -1 22 -1h21q14 0 34 0.5t40 1.5t43 2q14 -70 25 -135q11 -57 22.5 -117
t20.5 -102q4 20 9 46.5t11 55.5t11.5 58.5t11.5 58.5q14 65 29 134l122 15q-34 -153 -60 -290q-12 -59 -23.5 -119.5t-21.5 -116t-17 -103t-11 -79.5q-3 0 -23.5 -4.5t-47 -10.5l-53 -12t-39.5 -11q-6 80 -13 152q-3 31 -6.5 63.5t-7.5 62.5t-8 56t-8 45q-3 -19 -8 -44
t-10 -53t-10 -58.5t-11 -58.5q-13 -67 -28 -140z" />
    <glyph glyph-name="ncaron" unicode="&#x148;" horiz-adv-x="452" 
d="M5 -5q30 144 57 279q10 58 21.5 120t21.5 122.5t18 116t12 100.5q13 -1 22 -1h21q14 0 34 0.5t40 1.5t43 2q14 -70 25 -135q11 -57 22.5 -117t20.5 -102q4 20 9 46.5t11 55.5t11.5 58.5t11.5 58.5q14 65 29 134l122 15q-34 -153 -60 -290q-12 -59 -23.5 -119.5
t-21.5 -116t-17 -103t-11 -79.5q-3 0 -23.5 -4.5t-47 -10.5l-53 -12t-39.5 -11q-6 80 -13 152q-3 31 -6.5 63.5t-7.5 62.5t-8 56t-8 45q-3 -19 -8 -44t-10 -53t-10 -58.5t-11 -58.5q-13 -67 -28 -140zM414 821q-28 -38 -53 -65q-13 1 -24 1.5t-18 0.5q-10 0 -16 -0.5
t-10 -0.5t-4 1q-9 26 -20.5 60.5t-22.5 65.5q-12 36 -25 73q11 10 22 21q11 9 23 19.5t24 20.5l67 -115q10 11 24 28t28.5 34.5t28 34t24.5 28.5q13 -11 23 -20t18 -17l16 -15q-27 -43 -54 -83q-23 -34 -51 -72z" />
    <glyph glyph-name="ncommaaccent" unicode="&#x146;" horiz-adv-x="452" 
d="M5 -5q30 144 57 279q10 58 21.5 120t21.5 122.5t18 116t12 100.5q13 -1 22 -1h21q14 0 34 0.5t40 1.5t43 2q14 -70 25 -135q11 -57 22.5 -117t20.5 -102q4 20 9 46.5t11 55.5t11.5 58.5t11.5 58.5q14 65 29 134l122 15q-34 -153 -60 -290q-12 -59 -23.5 -119.5
t-21.5 -116t-17 -103t-11 -79.5q-3 0 -23.5 -4.5t-47 -10.5l-53 -12t-39.5 -11q-6 80 -13 152q-3 31 -6.5 63.5t-7.5 62.5t-8 56t-8 45q-3 -19 -8 -44t-10 -53t-10 -58.5t-11 -58.5q-13 -67 -28 -140zM65 -356q8 40 17 81.5t17 80t14.5 71.5t9.5 58q8 0 25.5 -0.5t26.5 -0.5
h36.5t45 1t47.5 2q-8 -37 -21.5 -87.5t-28.5 -100.5t-32 -105h-157z" />
    <glyph glyph-name="eng" unicode="&#x14b;" horiz-adv-x="453" 
d="M368 -105q-43 -78 -120 -78q-33 0 -65 14t-68 39l58 128q32 -36 55 -36q13 0 24 12.5t10 27.5l-22 232l-8 64q-1 9 -2.5 26.5t-3.5 29.5l-7 45l-8 -45q-9 -47 -10 -55q-2 -15 -11 -61q-2 -22 -10 -61l-28 -148l-146 -34l54 275q5 33 12 66l9 52q8 41 22 121q6 38 8 52
q3 17 10 62q10 63 14 102l60 4l53 3q16 1 28 2t20 2q15 -87 23 -147l10 -63q8 -42 11 -62l6 -34l4 -24l10 -48l9 48q4 23 7 38l4 20q10 50 13 62l12 63l31 146l122 15q-23 -101 -60 -284l-23 -117l-22 -115q-12 -61 -17 -101q-5 -29 -5 -28l-6 -38q-14 -94 -57 -172z" />
    <glyph glyph-name="uni0272" unicode="&#x272;" horiz-adv-x="465" 
d="M152 29q-5 -38 -24.5 -87t-56 -86t-89.5 -37q-32 0 -64 14t-68 39l57 128q16 -18 29 -27t26 -9q15 0 28.5 10t17.5 30l52 266q5 33 12 66l9 52q8 41 22 121q6 38 8 52q3 17 10 62q10 63 14 102l60 4l53 3q16 1 28 2t20 2q15 -87 23 -147l10 -63q8 -42 11 -62l6 -34l4 -24
l10 -48l9 48q4 23 7 38l4 20q10 50 13 62l12 63l31 146l122 15q-23 -101 -60 -284l-23 -117l-22 -115q-12 -61 -17 -101l-8 -56l-3 -22l-163 -38l-22 217l-8 64q-1 9 -2.5 26.5t-3.5 29.5l-7 45l-8 -45q-9 -47 -10 -55q-2 -15 -11 -61q-2 -22 -10 -61z" />
    <glyph glyph-name="uni01CC" unicode="&#x1cc;" horiz-adv-x="731" 
d="M5 -5q30 144 57 279q10 58 21.5 120t21.5 122.5t18 116t12 100.5q13 -1 22 -1h21q14 0 34 0.5t40 1.5t43 2q14 -70 25 -135q11 -57 22.5 -117t20.5 -102q4 20 9 46.5t11 55.5t11.5 58.5t11.5 58.5q14 65 29 134l122 15q-34 -153 -60 -290q-12 -59 -23.5 -119.5
t-21.5 -116t-17 -103t-11 -79.5q-3 0 -23.5 -4.5t-47 -10.5l-53 -12t-39.5 -11q-6 80 -13 152q-3 31 -6.5 63.5t-7.5 62.5t-8 56t-8 45q-3 -19 -8 -44t-10 -53t-10 -58.5t-11 -58.5q-13 -67 -28 -140zM716 174.5q-13 -47.5 -34.5 -86t-52 -64t-72.5 -25.5q-28 0 -60.5 12
t-71.5 41l69 154q5 -10 19.5 -17.5t31.5 -7.5q12 0 21.5 20t16.5 46.5t11 54.5t6 45q19 97 36 193.5t40 192.5q45 4 88.5 12.5t87.5 20.5q-15 -51 -31 -116t-31 -133t-28.5 -133.5t-23.5 -117.5q-9 -44 -22 -91.5z" />
    <glyph glyph-name="ntilde" unicode="&#xf1;" horiz-adv-x="452" 
d="M5 -5q30 144 57 279q10 58 21.5 120t21.5 122.5t18 116t12 100.5q13 -1 22 -1h21q14 0 34 0.5t40 1.5t43 2q14 -70 25 -135q11 -57 22.5 -117t20.5 -102q4 20 9 46.5t11 55.5t11.5 58.5t11.5 58.5q14 65 29 134l122 15q-34 -153 -60 -290q-12 -59 -23.5 -119.5
t-21.5 -116t-17 -103t-11 -79.5q-3 0 -23.5 -4.5t-47 -10.5l-53 -12t-39.5 -11q-6 80 -13 152q-3 31 -6.5 63.5t-7.5 62.5t-8 56t-8 45q-3 -19 -8 -44t-10 -53t-10 -58.5t-11 -58.5q-13 -67 -28 -140zM324 834.5q-14 -8.5 -26.5 -20.5t-24.5 -25t-22 -22q-13 9 -22.5 17
t-17.5 14t-14 13l6 13t17 32.5t26.5 42.5t34.5 42.5t41 33t48 13.5q24 0 42.5 -14t32.5 -30t22.5 -29t13.5 -13q15 0 29 10.5t27 25.5t25 30t22 24q12 -9 22 -17t18 -14t14 -13q-21 -49 -48 -87q-11 -17 -25 -32t-30 -27t-33.5 -19.5t-37.5 -7.5q-24 0 -36.5 10.5
t-22.5 23.5t-20.5 23.5t-31.5 10.5q-15 0 -29 -8.5z" />
    <glyph glyph-name="o" unicode="o" 
d="M542.5 386.5q-17.5 -72.5 -46.5 -133t-67.5 -108t-80.5 -81t-85 -51t-82 -17.5q-33 0 -60 12.5t-47 37t-31.5 63t-11.5 92.5q0 56 14 118t38 123t59 116t77 97.5t90 67.5t100 25q45 0 74.5 -18.5t46 -48t23.5 -66.5t7 -74q0 -82 -17.5 -154.5zM184 204q4 -12 11 -21
t17.5 -15.5t22.5 -6.5q45 0 80 31t58 76t35.5 96t12.5 93q0 12 -1.5 26t-6 26t-14 20.5t-25.5 8.5q-32 0 -59 -16t-48.5 -42.5t-37.5 -60t-27.5 -68t-16.5 -67.5t-5 -57q0 -11 4 -23z" />
    <glyph glyph-name="oacute" unicode="&#xf3;" 
d="M542.5 386.5q-17.5 -72.5 -46.5 -133t-67.5 -108t-80.5 -81t-85 -51t-82 -17.5q-33 0 -60 12.5t-47 37t-31.5 63t-11.5 92.5q0 56 14 118t38 123t59 116t77 97.5t90 67.5t100 25q45 0 74.5 -18.5t46 -48t23.5 -66.5t7 -74q0 -82 -17.5 -154.5zM184 204q4 -12 11 -21
t17.5 -15.5t22.5 -6.5q45 0 80 31t58 76t35.5 96t12.5 93q0 12 -1.5 26t-6 26t-14 20.5t-25.5 8.5q-32 0 -59 -16t-48.5 -42.5t-37.5 -60t-27.5 -68t-16.5 -67.5t-5 -57q0 -11 4 -23zM400 811.5q-68 -24.5 -127 -46.5q-1 11 -1 20v18q0 16 0.5 32.5t0.5 34.5q68 69 128 123
t112 111q5 -67 5.5 -125t8.5 -119q-59 -24 -127 -48.5z" />
    <glyph glyph-name="obreve" unicode="&#x14f;" 
d="M542.5 386.5q-17.5 -72.5 -46.5 -133t-67.5 -108t-80.5 -81t-85 -51t-82 -17.5q-33 0 -60 12.5t-47 37t-31.5 63t-11.5 92.5q0 56 14 118t38 123t59 116t77 97.5t90 67.5t100 25q45 0 74.5 -18.5t46 -48t23.5 -66.5t7 -74q0 -82 -17.5 -154.5zM184 204q4 -12 11 -21
t17.5 -15.5t22.5 -6.5q45 0 80 31t58 76t35.5 96t12.5 93q0 12 -1.5 26t-6 26t-14 20.5t-25.5 8.5q-32 0 -59 -16t-48.5 -42.5t-37.5 -60t-27.5 -68t-16.5 -67.5t-5 -57q0 -11 4 -23zM549 892q-29 -47 -61.5 -70t-74.5 -23q-55 0 -90.5 56t-31.5 120q10 9 22 20
q11 9 22.5 19.5t24.5 20.5q-2 -49 10.5 -78.5t50.5 -29.5q32 0 48.5 14.5t29.5 38.5t33 65q13 -11 23 -19.5t18 -16.5l16 -16q-11 -54 -40 -101z" />
    <glyph glyph-name="ocircumflex" unicode="&#xf4;" 
d="M542.5 386.5q-17.5 -72.5 -46.5 -133t-67.5 -108t-80.5 -81t-85 -51t-82 -17.5q-33 0 -60 12.5t-47 37t-31.5 63t-11.5 92.5q0 56 14 118t38 123t59 116t77 97.5t90 67.5t100 25q45 0 74.5 -18.5t46 -48t23.5 -66.5t7 -74q0 -82 -17.5 -154.5zM184 204q4 -12 11 -21
t17.5 -15.5t22.5 -6.5q45 0 80 31t58 76t35.5 96t12.5 93q0 12 -1.5 26t-6 26t-14 20.5t-25.5 8.5q-32 0 -59 -16t-48.5 -42.5t-37.5 -60t-27.5 -68t-16.5 -67.5t-5 -57q0 -11 4 -23zM390 863q-15 -16 -30 -33t-30 -33t-25 -27q-13 11 -23 20.5t-16 17.5q-9 9 -15 17
q28 41 58 80q25 33 54.5 69t55.5 62q39 -6 54.5 -5t17.5 -1q8 -27 17.5 -62t18.5 -66l22 -74l-24 -20q-10 -9 -23 -18.5t-25 -18.5l-61 118q-11 -10 -26 -26z" />
    <glyph glyph-name="uni1ED1" unicode="&#x1ed1;" 
d="M542.5 386.5q-17.5 -72.5 -46.5 -133t-67.5 -108t-80.5 -81t-85 -51t-82 -17.5q-33 0 -60 12.5t-47 37t-31.5 63t-11.5 92.5q0 56 14 118t38 123t59 116t77 97.5t90 67.5t100 25q45 0 74.5 -18.5t46 -48t23.5 -66.5t7 -74q0 -82 -17.5 -154.5zM184 204q4 -12 11 -21
t17.5 -15.5t22.5 -6.5q45 0 80 31t58 76t35.5 96t12.5 93q0 12 -1.5 26t-6 26t-14 20.5t-25.5 8.5q-32 0 -59 -16t-48.5 -42.5t-37.5 -60t-27.5 -68t-16.5 -67.5t-5 -57q0 -11 4 -23zM390 863q-15 -16 -30 -33t-30 -33t-25 -27q-13 11 -23 20.5t-16 17.5q-9 9 -15 17
q28 41 58 80q25 33 54.5 69t55.5 62q39 -6 54.5 -5t17.5 -1q8 -27 17.5 -62t18.5 -66l22 -74l-24 -20q-10 -9 -23 -18.5t-25 -18.5l-61 118q-11 -10 -26 -26zM474 1097.5q-68 -24.5 -127 -46.5q-1 11 -1 20v18q0 16 0.5 32.5t0.5 34.5q68 69 128 123t112 111q5 -67 5.5 -125
t8.5 -119q-59 -24 -127 -48.5z" />
    <glyph glyph-name="uni1ED9" unicode="&#x1ed9;" 
d="M542.5 386.5q-17.5 -72.5 -46.5 -133t-67.5 -108t-80.5 -81t-85 -51t-82 -17.5q-33 0 -60 12.5t-47 37t-31.5 63t-11.5 92.5q0 56 14 118t38 123t59 116t77 97.5t90 67.5t100 25q45 0 74.5 -18.5t46 -48t23.5 -66.5t7 -74q0 -82 -17.5 -154.5zM184 204q4 -12 11 -21
t17.5 -15.5t22.5 -6.5q45 0 80 31t58 76t35.5 96t12.5 93q0 12 -1.5 26t-6 26t-14 20.5t-25.5 8.5q-32 0 -59 -16t-48.5 -42.5t-37.5 -60t-27.5 -68t-16.5 -67.5t-5 -57q0 -11 4 -23zM233.5 -126q-6.5 -17 -20.5 -30t-34 -21.5t-45 -8.5q-40 0 -60 26.5t-20 59.5
q0 17 5.5 33t16.5 28.5t28 20t40 7.5q49 0 72.5 -25t23.5 -56q0 -17 -6.5 -34zM390 863q-15 -16 -30 -33t-30 -33t-25 -27q-13 11 -23 20.5t-16 17.5q-9 9 -15 17q28 41 58 80q25 33 54.5 69t55.5 62q39 -6 54.5 -5t17.5 -1q8 -27 17.5 -62t18.5 -66l22 -74l-24 -20
q-10 -9 -23 -18.5t-25 -18.5l-61 118q-11 -10 -26 -26z" />
    <glyph glyph-name="uni1ED3" unicode="&#x1ed3;" 
d="M542.5 386.5q-17.5 -72.5 -46.5 -133t-67.5 -108t-80.5 -81t-85 -51t-82 -17.5q-33 0 -60 12.5t-47 37t-31.5 63t-11.5 92.5q0 56 14 118t38 123t59 116t77 97.5t90 67.5t100 25q45 0 74.5 -18.5t46 -48t23.5 -66.5t7 -74q0 -82 -17.5 -154.5zM184 204q4 -12 11 -21
t17.5 -15.5t22.5 -6.5q45 0 80 31t58 76t35.5 96t12.5 93q0 12 -1.5 26t-6 26t-14 20.5t-25.5 8.5q-32 0 -59 -16t-48.5 -42.5t-37.5 -60t-27.5 -68t-16.5 -67.5t-5 -57q0 -11 4 -23zM413 840q-15 -16 -30 -33t-30 -33t-25 -27q-13 11 -23 20.5t-16 17.5q-9 9 -15 17
q28 41 58 80q25 33 54.5 69t55.5 62q39 -6 54.5 -5t17.5 -1q8 -27 17.5 -62t18.5 -66l22 -74l-24 -20q-10 -9 -23 -18.5t-25 -18.5l-61 118q-11 -10 -26 -26zM355 952q-33 8 -64 16q-27 6 -55 13.5t-47 13.5q4 19 9 46t10 53q6 30 12 61q25 -27 51 -53q21 -23 45.5 -49.5
t43.5 -47.5z" />
    <glyph glyph-name="uni1ED5" unicode="&#x1ed5;" 
d="M542.5 386.5q-17.5 -72.5 -46.5 -133t-67.5 -108t-80.5 -81t-85 -51t-82 -17.5q-33 0 -60 12.5t-47 37t-31.5 63t-11.5 92.5q0 56 14 118t38 123t59 116t77 97.5t90 67.5t100 25q45 0 74.5 -18.5t46 -48t23.5 -66.5t7 -74q0 -82 -17.5 -154.5zM184 204q4 -12 11 -21
t17.5 -15.5t22.5 -6.5q45 0 80 31t58 76t35.5 96t12.5 93q0 12 -1.5 26t-6 26t-14 20.5t-25.5 8.5q-32 0 -59 -16t-48.5 -42.5t-37.5 -60t-27.5 -68t-16.5 -67.5t-5 -57q0 -11 4 -23zM426 855q-15 -16 -30 -33t-30 -33t-25 -27q-13 11 -23 20.5t-16 17.5q-9 9 -15 17
q28 41 58 80q25 33 54.5 69t55.5 62q39 -6 54.5 -5t17.5 -1q8 -27 17.5 -62t18.5 -66l22 -74l-24 -20q-10 -9 -23 -18.5t-25 -18.5l-61 118q-11 -10 -26 -26zM589 939q0 17 4.5 31t12.5 24.5t16.5 19t16 15t12.5 12t5 10.5q0 2 -3 5.5t-8 3.5q-7 0 -15.5 -5t-18 -12
t-19.5 -15l-16 59q24 19 45.5 27.5t43.5 8.5q10 0 23 -2.5t20 -7t16 -15t12 -39.5q0 -17 -5 -28t-12.5 -19.5t-17.5 -15.5t-19 -14.5t-15.5 -17t-10.5 -21.5l-19 -2z" />
    <glyph glyph-name="uni1ED7" unicode="&#x1ed7;" 
d="M542.5 386.5q-17.5 -72.5 -46.5 -133t-67.5 -108t-80.5 -81t-85 -51t-82 -17.5q-33 0 -60 12.5t-47 37t-31.5 63t-11.5 92.5q0 56 14 118t38 123t59 116t77 97.5t90 67.5t100 25q45 0 74.5 -18.5t46 -48t23.5 -66.5t7 -74q0 -82 -17.5 -154.5zM184 204q4 -12 11 -21
t17.5 -15.5t22.5 -6.5q45 0 80 31t58 76t35.5 96t12.5 93q0 12 -1.5 26t-6 26t-14 20.5t-25.5 8.5q-32 0 -59 -16t-48.5 -42.5t-37.5 -60t-27.5 -68t-16.5 -67.5t-5 -57q0 -11 4 -23zM418 848q-15 -16 -30 -33t-30 -33t-25 -27q-13 11 -23 20.5t-16 17.5q-9 9 -15 17
q28 41 58 80q25 33 54.5 69t55.5 62q39 -6 54.5 -5t17.5 -1q8 -27 17.5 -62t18.5 -66l22 -74l-24 -20q-10 -9 -23 -18.5t-25 -18.5l-61 118q-11 -10 -26 -26zM436 1134.5q-14 -8.5 -26.5 -20.5t-24.5 -25t-22 -22q-13 9 -22.5 17t-17.5 14t-14 13l6 13t17 32.5t26.5 42.5
t34.5 42.5t41 33t48 13.5q24 0 42.5 -14t32.5 -30t22.5 -29t13.5 -13q15 0 29 10.5t27 25.5t25 30t22 24q12 -9 22 -17t18 -14t14 -13q-21 -49 -48 -87q-11 -17 -25 -32t-30 -27t-33.5 -19.5t-37.5 -7.5q-24 0 -36.5 10.5t-22.5 23.5t-20.5 23.5t-31.5 10.5q-15 0 -29 -8.5z
" />
    <glyph glyph-name="uni020D" unicode="&#x20d;" 
d="M542.5 386.5q-17.5 -72.5 -46.5 -133t-67.5 -108t-80.5 -81t-85 -51t-82 -17.5q-33 0 -60 12.5t-47 37t-31.5 63t-11.5 92.5q0 56 14 118t38 123t59 116t77 97.5t90 67.5t100 25q45 0 74.5 -18.5t46 -48t23.5 -66.5t7 -74q0 -82 -17.5 -154.5zM184 204q4 -12 11 -21
t17.5 -15.5t22.5 -6.5q45 0 80 31t58 76t35.5 96t12.5 93q0 12 -1.5 26t-6 26t-14 20.5t-25.5 8.5q-32 0 -59 -16t-48.5 -42.5t-37.5 -60t-27.5 -68t-16.5 -67.5t-5 -57q0 -11 4 -23zM365 761q-51 12 -98 24q-41 9 -84 20.5t-72 20.5q6 29 14 70.5t15 80.5q9 46 18 94
q39 -42 78 -82q33 -35 70.5 -75t65.5 -72zM654 736q-51 12 -98 24q-41 9 -84 20.5t-72 20.5q6 29 14 70.5t15 80.5q9 46 18 94q39 -42 78 -82q33 -35 70.5 -75t65.5 -72z" />
    </font>
</defs>
</svg>
