<?xml version="1.0" standalone="no"?>
<!DOCTYPE svg PUBLIC "-//W3C//DTD SVG 1.1//EN" "http://www.w3.org/Graphics/SVG/1.1/DTD/svg11.dtd" >
<svg xmlns="http://www.w3.org/2000/svg" xmlns:xlink="http://www.w3.org/1999/xlink" version="1.1">
<metadata>
Created by FontForge 20190801 at Fri Feb 16 14:57:33 2018
 By Jimmy Wärting
Copyright 2018 IBM Corp. All rights reserved.
</metadata>
<defs>
<font id="IBMPlexSansCond-Light" horiz-adv-x="540" >
  <font-face 
    font-family="IBM Plex Sans Condensed Light"
    font-weight="300"
    font-stretch="condensed"
    units-per-em="1000"
    panose-1="2 11 4 6 5 2 3 0 2 3"
    ascent="780"
    descent="-220"
    x-height="512"
    cap-height="698"
    bbox="-228 -233 1095 1111"
    underline-thickness="43"
    underline-position="-151"
    unicode-range="U+000D-FB02"
  />
<missing-glyph horiz-adv-x="424" 
d="M32 780h360v-780h-360v780zM349 43v694h-274v-694h274z" />
    <glyph glyph-name="fi" unicode="fi" horiz-adv-x="501" 
d="M105 464h-79v48h79v158q0 37 16.5 53.5t53.5 16.5h85v-48h-100v-180h258v-512h-55v464h-203v-464h-55v464zM391 653q-20 0 -28.5 9t-8.5 24v14q0 15 8.5 24t28.5 9t28.5 -9t8.5 -24v-14q0 -15 -8.5 -24t-28.5 -9z" />
    <glyph glyph-name=".notdef" horiz-adv-x="424" 
d="M32 780h360v-780h-360v780zM349 43v694h-274v-694h274z" />
    <glyph glyph-name=".null" horiz-adv-x="0" 
 />
    <glyph glyph-name=".null" horiz-adv-x="0" 
 />
    <glyph glyph-name="uni000D" unicode="&#xd;" horiz-adv-x="212" 
 />
    <glyph glyph-name="space" unicode=" " horiz-adv-x="212" 
 />
    <glyph glyph-name="a" unicode="a" horiz-adv-x="477" 
d="M392 0q-55 0 -55 54v28h-8q-13 -45 -48 -69.5t-88 -24.5q-72 0 -110 36.5t-38 110.5q0 73 45 112t136 39h111v68q0 65 -28 93t-87 28q-45 0 -75 -20.5t-49 -62.5l-36 31q20 45 60.5 73t101.5 28q83 0 125.5 -41t42.5 -123v-312h61v-48h-61zM205 36q28 0 52 8.5t42 24.5
t28 37.5t10 47.5v90h-112q-60 0 -91.5 -23.5t-31.5 -65.5v-32q0 -43 28.5 -65t74.5 -22z" />
    <glyph glyph-name="a.alt01" horiz-adv-x="518" 
d="M380 81h-9q-14 -47 -49 -70t-86 -23q-93 0 -141 68.5t-48 199.5t48 199.5t141 68.5q51 0 86 -23t49 -70h9v81h55v-512h-55v81zM250 37q27 0 50.5 8t41.5 23t28 36t10 47v210q0 26 -10 47t-28 36t-41.5 23t-50.5 8q-70 0 -107 -46t-37 -128v-90q0 -82 37 -128t107 -46z
" />
    <glyph glyph-name="b" unicode="b" horiz-adv-x="518" 
d="M83 740h55v-309h9q14 47 49 70t86 23q93 0 141 -68.5t48 -199.5t-48 -199.5t-141 -68.5q-51 0 -86 23t-49 70h-9v-81h-55v740zM268 37q70 0 107 46t37 128v90q0 82 -37 128t-107 46q-27 0 -50.5 -8t-41.5 -23t-28 -36t-10 -47v-210q0 -26 10 -47t28 -36t41.5 -23t50.5 -8
z" />
    <glyph glyph-name="c" unicode="c" horiz-adv-x="448" 
d="M245 -12q-94 0 -146.5 63t-52.5 205t52.5 205t146.5 63q66 0 107.5 -30t61.5 -80l-46 -23q-16 42 -45 63t-78 21q-70 0 -105 -44.5t-35 -129.5v-90q0 -85 35 -129.5t105 -44.5q51 0 83 22t51 66l41 -28q-23 -50 -66 -79.5t-109 -29.5z" />
    <glyph glyph-name="d" unicode="d" horiz-adv-x="518" 
d="M381 81h-9q-14 -47 -49 -70t-86 -23q-93 0 -141 68.5t-48 199.5t48 199.5t141 68.5q51 0 86 -23t49 -70h9v309h55v-740h-55v81zM251 37q27 0 50.5 8t41.5 23t28 36t10 47v210q0 26 -10 47t-28 36t-41.5 23t-50.5 8q-70 0 -107 -46t-37 -128v-90q0 -82 37 -128t107 -46z
" />
    <glyph glyph-name="e" unicode="e" horiz-adv-x="489" 
d="M249 -12q-45 0 -82.5 15.5t-64.5 48t-41.5 83t-14.5 121.5t14.5 121.5t41.5 83t64.5 48t82.5 15.5q91 0 142.5 -63t51.5 -200v-15h-338v-35q0 -85 37.5 -129.5t106.5 -44.5q57 0 91.5 25.5t54.5 76.5l38 -26q-22 -59 -66.5 -92t-117.5 -33zM249 477q-69 0 -106.5 -45.5
t-37.5 -130.5v-13h279v13q0 85 -33.5 130.5t-101.5 45.5z" />
    <glyph glyph-name="f" unicode="f" horiz-adv-x="280" 
d="M105 464h-79v48h79v158q0 37 16.5 53.5t53.5 16.5h85v-48h-100v-180h100v-48h-100v-464h-55v464z" />
    <glyph glyph-name="g" unicode="g" horiz-adv-x="476" 
d="M463 -60q0 -81 -54.5 -116.5t-168.5 -35.5q-108 0 -154 33.5t-46 96.5q0 45 22 70t58 33v11q-44 19 -44 69q0 32 20 55t57 27v9q-39 19 -61 58t-22 99q0 87 45.5 131t123.5 44q51 0 92 -22v30q0 23 9.5 32.5t32.5 9.5h79v-48h-93v-44q23 -22 36 -55t13 -78
q0 -87 -45.5 -130.5t-123.5 -43.5q-25 0 -50 5q-32 -8 -49 -25t-17 -40t15.5 -35t51.5 -12h117q84 0 120 -32.5t36 -95.5zM411 -63q0 39 -23 59.5t-83 20.5h-151q-63 -26 -63 -88q0 -45 29.5 -70t89.5 -25h59q69 0 105.5 24.5t36.5 78.5zM239 220q54 0 83.5 28.5t29.5 80.5
v41q0 52 -29.5 80.5t-83.5 28.5t-83.5 -28.5t-29.5 -80.5v-41q0 -52 29.5 -80.5t83.5 -28.5z" />
    <glyph glyph-name="g.alt01" horiz-adv-x="518" 
d="M436 -8q0 -103 -51.5 -153.5t-147.5 -50.5q-57 0 -96 18.5t-67 50.5l33 38q24 -29 54 -44t76 -15q69 0 106.5 36.5t37.5 119.5v89h-9q-14 -47 -49 -70t-86 -23q-93 0 -141 68.5t-48 199.5t48 199.5t141 68.5q51 0 86 -23t49 -70h9v81h55v-520zM251 37q27 0 50.5 8
t41.5 23t28 36t10 47v210q0 26 -10 47t-28 36t-41.5 23t-50.5 8q-70 0 -107 -46t-37 -128v-90q0 -82 37 -128t107 -46z" />
    <glyph glyph-name="g.alt02" horiz-adv-x="478" 
d="M463 -60q0 -81 -54.5 -116.5t-168.5 -35.5q-108 0 -154 33.5t-46 96.5q0 45 22 70t58 33v11q-44 19 -44 69q0 32 20 55t57 27v9q-39 19 -61 58t-22 99q0 87 45.5 131t123.5 44q20 0 37.5 -3.5t32.5 -8.5h145v-45h-115v-6q32 -8 50.5 -37.5t18.5 -74.5q0 -87 -45.5 -130.5
t-123.5 -43.5q-25 0 -50 5q-32 -8 -49 -25t-17 -40t15.5 -35t51.5 -12h117q84 0 120 -32.5t36 -95.5zM239 220q54 0 83.5 28.5t29.5 80.5v41q0 52 -29.5 80.5t-83.5 28.5t-83.5 -28.5t-29.5 -80.5v-41q0 -52 29.5 -80.5t83.5 -28.5zM411 -63q0 39 -23 59.5t-83 20.5h-151
q-63 -26 -63 -88q0 -45 29.5 -70t89.5 -25h59q69 0 105.5 24.5t36.5 78.5z" />
    <glyph glyph-name="h" unicode="h" horiz-adv-x="508" 
d="M83 740h55v-309h8q14 44 48.5 68.5t89.5 24.5q70 0 109 -45.5t39 -136.5v-342h-55v339q0 65 -28 100.5t-85 35.5q-26 0 -49 -8t-40 -23.5t-27 -38t-10 -50.5v-355h-55v740z" />
    <glyph glyph-name="i" unicode="i" horiz-adv-x="221" 
d="M111 653q-20 0 -28.5 9t-8.5 24v14q0 15 8.5 24t28.5 9t28.5 -9t8.5 -24v-14q0 -15 -8.5 -24t-28.5 -9zM83 512h55v-512h-55v512z" />
    <glyph glyph-name="j" unicode="j" horiz-adv-x="221" 
d="M83 512h55v-642q0 -37 -16.5 -53.5t-54.5 -16.5h-60v48h76v664zM111 653q-20 0 -28.5 9t-8.5 24v14q0 15 8.5 24t28.5 9t28.5 -9t8.5 -24v-14q0 -15 -8.5 -24t-28.5 -9z" />
    <glyph glyph-name="k" unicode="k" horiz-adv-x="463" 
d="M83 740h55v-400l-4 -95h6l72 89l151 178h66l-179 -209l198 -303h-66l-172 270l-72 -82v-188h-55v740z" />
    <glyph glyph-name="l" unicode="l" horiz-adv-x="239" 
d="M141 0q-31 0 -44.5 13.5t-13.5 44.5v682h55v-692h69v-48h-66z" />
    <glyph glyph-name="m" unicode="m" horiz-adv-x="789" 
d="M83 0v512h55v-81h8q14 44 46 68.5t86 24.5q50 0 84.5 -24.5t49.5 -73.5h10q14 48 51.5 73t91.5 25q68 0 107.5 -45.5t39.5 -136.5v-342h-55v339q0 65 -28 100.5t-82 35.5q-51 0 -86.5 -31.5t-35.5 -88.5v-355h-55v339q0 65 -28 100.5t-82 35.5q-51 0 -86.5 -31.5
t-35.5 -88.5v-355h-55z" />
    <glyph glyph-name="n" unicode="n" horiz-adv-x="508" 
d="M83 0v512h55v-81h8q14 44 48.5 68.5t89.5 24.5q70 0 109 -45.5t39 -136.5v-342h-55v339q0 65 -28 100.5t-85 35.5q-26 0 -49 -8t-40 -23.5t-27 -38t-10 -50.5v-355h-55z" />
    <glyph glyph-name="o" unicode="o" horiz-adv-x="498" 
d="M249 -12q-45 0 -82.5 15.5t-64.5 48t-41.5 83t-14.5 121.5t14.5 121.5t41.5 83t64.5 48t82.5 15.5t82.5 -15.5t64.5 -48t41.5 -83t14.5 -121.5t-14.5 -121.5t-41.5 -83t-64.5 -48t-82.5 -15.5zM249 37q69 0 106.5 44.5t37.5 129.5v90q0 85 -37.5 129.5t-106.5 44.5
t-106.5 -44.5t-37.5 -129.5v-90q0 -85 37.5 -129.5t106.5 -44.5z" />
    <glyph glyph-name="p" unicode="p" horiz-adv-x="518" 
d="M83 512h55v-82h9q14 47 48.5 70.5t85.5 23.5q94 0 142 -68.5t48 -199.5t-48 -199.5t-142 -68.5q-51 0 -85.5 23t-48.5 70h-9v-281h-55v712zM268 37q70 0 107 46t37 128v90q0 82 -37 128t-107 46q-27 0 -50.5 -8t-41.5 -23t-28 -36t-10 -47v-210q0 -26 10 -47t28 -36
t41.5 -23t50.5 -8z" />
    <glyph glyph-name="q" unicode="q" horiz-adv-x="518" 
d="M380 81h-9q-14 -47 -48.5 -70t-85.5 -23q-94 0 -142 68.5t-48 199.5t48 199.5t142 68.5q51 0 85.5 -23.5t48.5 -70.5h9v82h55v-712h-55v281zM250 37q27 0 50.5 8t41.5 23t28 36t10 47v210q0 26 -10 47t-28 36t-41.5 23t-50.5 8q-70 0 -107 -46t-37 -128v-90
q0 -82 37 -128t107 -46z" />
    <glyph glyph-name="r" unicode="r" horiz-adv-x="323" 
d="M83 0v512h55v-93h8q14 43 47 68t84 25h32v-54h-46q-55 0 -90 -30t-35 -83v-345h-55z" />
    <glyph glyph-name="s" unicode="s" horiz-adv-x="430" 
d="M215 -12q-60 0 -103 23.5t-75 71.5l39 32q28 -42 61 -60.5t78 -18.5q51 0 81 25t30 73q0 42 -20 65.5t-72 32.5l-40 7q-70 12 -105.5 44.5t-35.5 98.5q0 73 44 107.5t114 34.5q53 0 92 -18.5t68 -58.5l-36 -33q-46 62 -123 62q-51 0 -78 -23t-27 -69q0 -45 22 -66t73 -30
l39 -7q73 -13 106 -46t33 -96q0 -72 -43 -111.5t-122 -39.5z" />
    <glyph glyph-name="t" unicode="t" horiz-adv-x="303" 
d="M164 0q-31 0 -45 13.5t-14 44.5v406h-79v48h53q19 0 25 9.5t6 28.5v105h50v-143h102v-48h-102v-416h97v-48h-93z" />
    <glyph glyph-name="u" unicode="u" horiz-adv-x="508" 
d="M374 81h-8q-14 -44 -48.5 -68.5t-89.5 -24.5q-71 0 -109.5 45.5t-38.5 136.5v342h55v-339q0 -65 28 -100.5t85 -35.5q26 0 49 8t40 23.5t27 38t10 50.5v355h55v-512h-55v81z" />
    <glyph glyph-name="v" unicode="v" horiz-adv-x="431" 
d="M182 0l-164 512h55l89 -284l50 -180h8l50 180l89 284h54l-163 -512h-68z" />
    <glyph glyph-name="w" unicode="w" horiz-adv-x="681" 
d="M29 512h53l64 -262l44 -201h7l48 201l63 262h68l64 -262l48 -201h7l44 201l64 262h52l-128 -512h-72l-71 278l-38 179h-8l-39 -179l-70 -278h-73z" />
    <glyph glyph-name="x" unicode="x" horiz-adv-x="445" 
d="M23 0l170 260l-163 252h61l129 -205h8l131 205h60l-163 -250l167 -262h-62l-133 215h-8l-137 -215h-60z" />
    <glyph glyph-name="y" unicode="y" horiz-adv-x="434" 
d="M359 512h54l-212 -663q-9 -29 -22 -39t-44 -10h-67v48h83l38 128l-171 536h55l89 -284l50 -180h8l50 180z" />
    <glyph glyph-name="z" unicode="z" horiz-adv-x="404" 
d="M28 0v44l279 420h-271v48h334v-43l-278 -421h286v-48h-350z" />
    <glyph glyph-name="A" unicode="A" horiz-adv-x="565" 
d="M482 0l-68 219h-265l-67 -219h-59l221 698h76l221 -698h-59zM317 535l-32 112h-7l-33 -112l-82 -269h238z" />
    <glyph glyph-name="B" unicode="B" horiz-adv-x="576" 
d="M88 698h252q74 0 114.5 -42.5t40.5 -133.5q0 -134 -102 -150v-9q126 -9 126 -166q0 -95 -42.5 -146t-114.5 -51h-274v698zM146 51h201q56 0 83 31.5t27 88.5v47q0 57 -27 88.5t-83 31.5h-201v-287zM146 389h187q51 0 75.5 27.5t24.5 77.5v48q0 50 -24.5 77.5t-75.5 27.5
h-187v-258z" />
    <glyph glyph-name="C" unicode="C" horiz-adv-x="556" 
d="M303 -12q-57 0 -102.5 20t-78 63t-49.5 111.5t-17 166.5q0 97 17 166t49.5 112t78 63t102.5 20q84 0 133 -36.5t78 -107.5l-47 -28q-20 60 -58 90t-106 30q-88 0 -136.5 -62.5t-48.5 -183.5v-126q0 -121 48.5 -183.5t136.5 -62.5q72 0 110.5 32t58.5 95l46 -27
q-27 -74 -78.5 -113t-136.5 -39z" />
    <glyph glyph-name="D" unicode="D" horiz-adv-x="602" 
d="M88 698h209q121 0 185 -84t64 -265q0 -182 -64 -265.5t-185 -83.5h-209v698zM298 51q90 0 138 62t48 173v126q0 111 -48 173t-138 62h-152v-596h152z" />
    <glyph glyph-name="E" unicode="E" horiz-adv-x="518" 
d="M88 0v698h370v-51h-312v-267h296v-51h-296v-278h312v-51h-370z" />
    <glyph glyph-name="F" unicode="F" horiz-adv-x="496" 
d="M88 0v698h362v-51h-304v-267h282v-51h-282v-329h-58z" />
    <glyph glyph-name="G" unicode="G" horiz-adv-x="616" 
d="M496 104h-8q-14 -52 -58.5 -84t-123.5 -32q-56 0 -102 20t-79 63t-51 111.5t-18 166.5q0 97 18 166t51 112t81 63t108 20q90 0 143 -38.5t82 -105.5l-48 -28q-22 57 -65 89t-112 32q-93 0 -144.5 -63t-51.5 -184v-126q0 -121 51.5 -184t144.5 -63q40 0 73 12t57 34.5
t37 54.5t13 73v84h-146v51h202v-348h-54v104z" />
    <glyph glyph-name="H" unicode="H" horiz-adv-x="632" 
d="M485 329h-339v-329h-58v698h58v-318h339v318h58v-698h-58v329z" />
    <glyph glyph-name="I" unicode="I" horiz-adv-x="352" 
d="M56 0v48h91v602h-91v48h240v-48h-91v-602h91v-48h-240z" />
    <glyph glyph-name="J" unicode="J" horiz-adv-x="445" 
d="M364 698v-536q0 -83 -47 -128.5t-125 -45.5q-75 0 -115.5 38.5t-54.5 103.5l52 13q23 -103 118 -103q55 0 84.5 33t29.5 98v476h-218v51h276z" />
    <glyph glyph-name="K" unicode="K" horiz-adv-x="552" 
d="M248 362l-102 -128v-234h-58v698h58v-244l-4 -152h8l113 152l191 244h66l-235 -297l246 -401h-68z" />
    <glyph glyph-name="L" unicode="L" horiz-adv-x="443" 
d="M88 0v698h58v-647h275v-51h-333z" />
    <glyph glyph-name="M" unicode="M" horiz-adv-x="725" 
d="M581 490l5 140h-8l-67 -140l-148 -294l-148 294l-68 138h-7l4 -138v-490h-56v698h79l132 -267l61 -141h5l62 141l131 267h79v-698h-56v490z" />
    <glyph glyph-name="N" unicode="N" horiz-adv-x="632" 
d="M221 474l-74 155h-7l4 -155v-474h-56v698h75l248 -474l74 -155h7l-4 155v474h56v-698h-75z" />
    <glyph glyph-name="O" unicode="O" horiz-adv-x="629" 
d="M314 -12q-60 0 -108 20t-81 63t-51 111.5t-18 166.5q0 97 18 166t51 112t81 63t108 20t108 -20t81 -63t51 -112t18 -166q0 -98 -18 -166.5t-51 -111.5t-81 -63t-108 -20zM314 40q94 0 145 62.5t51 183.5v126q0 121 -51 183.5t-145 62.5t-145 -62.5t-51 -183.5v-126
q0 -121 51 -183.5t145 -62.5z" />
    <glyph glyph-name="P" unicode="P" horiz-adv-x="543" 
d="M88 0v698h254q164 0 164 -195t-164 -195h-196v-308h-58zM146 359h194q54 0 79.5 29.5t25.5 82.5v64q0 53 -25.5 82.5t-79.5 29.5h-194v-288z" />
    <glyph glyph-name="Q" unicode="Q" horiz-adv-x="629" 
d="M440 -156h-91q-30 0 -44.5 15.5t-14.5 41.5v88q-55 4 -98.5 26t-73.5 65.5t-46 109.5t-16 159q0 97 18 166t51 112t81 63t108 20t108 -20t81 -63t51 -112t18 -166q0 -92 -15.5 -157.5t-45 -108.5t-71.5 -65.5t-95 -27.5v-98h95v-48zM314 40q94 0 145 62.5t51 183.5v126
q0 121 -51 183.5t-145 62.5t-145 -62.5t-51 -183.5v-126q0 -121 51 -183.5t145 -62.5z" />
    <glyph glyph-name="R" unicode="R" horiz-adv-x="574" 
d="M146 0h-58v698h254q164 0 164 -194q0 -178 -138 -193l154 -311h-64l-147 310h-165v-310zM340 359q104 0 104 112v64q0 112 -104 112h-194v-288h194z" />
    <glyph glyph-name="S" unicode="S" horiz-adv-x="513" 
d="M256 -12q-77 0 -130 31.5t-89 85.5l43 34q32 -48 73 -74.5t103 -26.5q75 0 114.5 36t39.5 110q0 60 -30 92t-98 49l-56 14q-44 11 -76.5 26.5t-53.5 38t-31 52.5t-10 70q0 93 56 138.5t149 45.5q73 0 119.5 -26.5t79.5 -78.5l-43 -31q-28 43 -63.5 64.5t-94.5 21.5
q-70 0 -108.5 -31.5t-38.5 -102.5q0 -58 30 -87t97 -46l56 -14q46 -11 78.5 -27t53.5 -39.5t30.5 -54.5t9.5 -73q0 -99 -55.5 -148t-154.5 -49z" />
    <glyph glyph-name="T" unicode="T" horiz-adv-x="511" 
d="M285 647v-647h-58v647h-208v51h474v-51h-208z" />
    <glyph glyph-name="U" unicode="U" horiz-adv-x="602" 
d="M141 698v-450q0 -54 8 -93.5t26.5 -65t49 -37.5t76.5 -12t76.5 12t49 37.5t26.5 65t8 93.5v450h58v-441q0 -71 -11.5 -121.5t-37 -83.5t-67 -48.5t-102.5 -15.5t-102.5 15.5t-67 48.5t-37 83.5t-11.5 121.5v441h58z" />
    <glyph glyph-name="V" unicode="V" horiz-adv-x="535" 
d="M230 0l-208 698h61l135 -455l47 -192h7l47 192l135 455h59l-207 -698h-76z" />
    <glyph glyph-name="W" unicode="W" horiz-adv-x="799" 
d="M179 0l-157 698h60l98 -455l35 -186h8l36 186l101 455h80l102 -455l36 -186h7l35 186l99 455h58l-160 -698h-75l-103 455l-36 193h-8l-35 -193l-106 -455h-75z" />
    <glyph glyph-name="X" unicode="X" horiz-adv-x="535" 
d="M512 0h-67l-174 305h-9l-176 -305h-63l209 355l-202 343h67l167 -292h8l170 292h64l-203 -340z" />
    <glyph glyph-name="Y" unicode="Y" horiz-adv-x="518" 
d="M230 0v283l-216 415h65l176 -348h9l176 348h64l-216 -415v-283h-58z" />
    <glyph glyph-name="Z" unicode="Z" horiz-adv-x="515" 
d="M485 0h-451v53l373 594h-356v51h419v-52l-374 -595h389v-51z" />
    <glyph glyph-name="zero" unicode="0" 
d="M270 -12q-53 0 -93 19t-66.5 61.5t-40 111.5t-13.5 169t13.5 168.5t40 111.5t66.5 62t93 19t93 -19t66.5 -62t40 -111.5t13.5 -168.5t-13.5 -169t-40 -111.5t-66.5 -61.5t-93 -19zM270 38q79 0 116 59.5t37 175.5v152q0 116 -37 175.5t-116 59.5t-116 -59.5t-37 -175.5
v-152q0 -116 37 -175.5t116 -59.5z" />
    <glyph glyph-name="zero.alt01" 
d="M270 -12q-53 0 -93 19t-66.5 61.5t-40 111.5t-13.5 169t13.5 168.5t40 111.5t66.5 62t93 19t93 -19t66.5 -62t40 -111.5t13.5 -168.5t-13.5 -169t-40 -111.5t-66.5 -61.5t-93 -19zM270 38q79 0 116 59.5t37 175.5v152q0 116 -37 175.5t-116 59.5t-116 -59.5t-37 -175.5
v-152q0 -116 37 -175.5t116 -59.5zM270 310q-40 0 -40 31v17q0 31 40 31t40 -31v-17q0 -31 -40 -31z" />
    <glyph glyph-name="zero.alt02" 
d="M270 -12q-53 0 -93 19t-66.5 61.5t-40 111.5t-13.5 169t13.5 168.5t40 111.5t66.5 62t93 19t93 -19t66.5 -62t40 -111.5t13.5 -168.5t-13.5 -169t-40 -111.5t-66.5 -61.5t-93 -19zM135 139q16 -48 48.5 -74.5t86.5 -26.5q79 0 116 59.5t37 175.5v152q0 44 -3 82h-1
l-149 -193zM117 273q0 -45 3 -82h1l149 193l135 175q-16 48 -48.5 74.5t-86.5 26.5q-79 0 -116 -59.5t-37 -175.5v-152z" />
    <glyph glyph-name="one" unicode="1" 
d="M81 0v49h184v596l-189 -122l-25 40l207 135h63v-649h171v-49h-411z" />
    <glyph glyph-name="two" unicode="2" 
d="M476 0h-405v58l224 241q48 51 71.5 97.5t23.5 94.5v32q0 65 -30.5 101t-94.5 36q-62 0 -96.5 -32t-48.5 -88l-50 19q9 33 25 60.5t40.5 47.5t57 31.5t73.5 11.5q94 0 139 -50t45 -147q0 -35 -6.5 -65t-20.5 -59t-37.5 -59.5t-56.5 -66.5l-196 -214h343v-49z" />
    <glyph glyph-name="three" unicode="3" 
d="M241 391q65 0 101 34t36 91v22q0 61 -34 91.5t-91 30.5q-95 0 -139 -92l-42 30q53 112 184 112q41 0 74.5 -10.5t57.5 -32.5t37 -54.5t13 -77.5q0 -36 -9.5 -64.5t-26.5 -48.5t-40 -33t-50 -18v-8q30 -3 55 -15t44 -33.5t29.5 -53t10.5 -73.5q0 -96 -53.5 -148
t-150.5 -52q-130 0 -200 112l43 32q58 -94 156 -94q69 0 107 36.5t38 104.5v22q0 68 -38 104.5t-107 36.5h-79v49h74z" />
    <glyph glyph-name="four" unicode="4" 
d="M348 0v146h-311v51l280 501h86v-504h96v-48h-96v-146h-55zM91 194h257v457h-8z" />
    <glyph glyph-name="five" unicode="5" 
d="M444 648h-282l-19 -301h8q17 38 50.5 58.5t85.5 20.5q85 0 134 -53t49 -160q0 -111 -53 -168t-150 -57q-70 0 -118.5 30.5t-77.5 82.5l44 32q26 -47 61.5 -71t90.5 -24q70 0 106.5 41.5t36.5 114.5v26q0 73 -36.5 114.5t-106.5 41.5q-42 0 -72 -17.5t-52 -47.5l-50 7
l23 380h328v-50z" />
    <glyph glyph-name="six" unicode="6" 
d="M270 -12q-97 0 -151 61.5t-54 189.5q0 296 234 459h75q-53 -39 -93.5 -79t-71 -84t-51 -95t-31.5 -112h7q17 46 55 73t98 27q88 0 138 -54.5t50 -161.5t-52.5 -165.5t-152.5 -58.5zM270 39q70 0 107.5 41.5t37.5 115.5v25q0 74 -37.5 115.5t-107.5 41.5t-107.5 -41.5
t-37.5 -115.5v-25q0 -74 37.5 -115.5t107.5 -41.5z" />
    <glyph glyph-name="seven" unicode="7" 
d="M161 0l251 649h-296v-145h-52v194h406v-50l-247 -648h-62z" />
    <glyph glyph-name="eight" unicode="8" 
d="M270 -12q-104 0 -159 52t-55 146q0 80 39.5 124t98.5 52v9q-51 10 -84.5 51.5t-33.5 113.5q0 88 51 131t143 43t143 -43t51 -131q0 -72 -33.5 -113.5t-84.5 -51.5v-9q59 -8 98.5 -52t39.5 -124q0 -94 -55 -146t-159 -52zM270 39q72 0 112.5 36t40.5 101v30
q0 65 -40.5 101t-112.5 36t-112.5 -36t-40.5 -101v-30q0 -65 40.5 -101t112.5 -36zM270 391q65 0 99.5 31.5t34.5 90.5v25q0 59 -34.5 90.5t-99.5 31.5t-99.5 -31.5t-34.5 -90.5v-25q0 -59 34.5 -90.5t99.5 -31.5z" />
    <glyph glyph-name="nine" unicode="9" 
d="M475 459q0 -296 -234 -459h-75q52 39 93 79t71.5 84t51 94.5t31.5 112.5h-7q-17 -46 -55 -73t-98 -27q-88 0 -138 54.5t-50 161.5t52.5 165.5t152.5 58.5q97 0 151 -61.5t54 -189.5zM270 320q70 0 107.5 41.5t37.5 115.5v25q0 74 -37.5 115.5t-107.5 41.5t-107.5 -41.5
t-37.5 -115.5v-25q0 -74 37.5 -115.5t107.5 -41.5z" />
    <glyph glyph-name="ampersand" unicode="&#x26;" horiz-adv-x="620" 
d="M434 108h-9q-33 -120 -171 -120q-93 0 -141.5 49.5t-48.5 136.5q0 130 137 202q-88 102 -88 183q0 73 41.5 112t114.5 39t114.5 -39t41.5 -112q0 -105 -149 -192l161 -191q14 39 21 86.5t9 97.5h114v-47h-69q-5 -49 -15 -92t-26 -79l122 -142h-71zM269 664q-48 0 -75 -25
t-27 -71v-18q0 -59 79 -152q125 68 125 153v17q0 46 -27 71t-75 25zM259 35q98 0 153 94l-182 215q-110 -59 -110 -156v-27q0 -60 38 -93t101 -33z" />
    <glyph glyph-name="at" unicode="@" horiz-adv-x="799" 
d="M610 -120h-210q-78 0 -141.5 27.5t-108 80t-69 129.5t-24.5 176q0 97 24.5 174.5t70 131.5t110 82.5t144.5 28.5q78 0 140.5 -25.5t105.5 -74t66 -120.5t23 -165q0 -256 -150 -256q-45 0 -69 20.5t-29 55.5h-8q-8 -33 -35 -54.5t-68 -21.5q-35 0 -63 13t-48.5 40
t-31.5 68.5t-11 99.5q0 115 42.5 168t111.5 53q41 0 68 -22t35 -55h8v67h52v-318q0 -39 14 -56t40 -17q45 0 70 50.5t25 140.5v60q0 72 -21.5 129t-59.5 97.5t-91 62t-117 21.5q-68 0 -123.5 -25t-94.5 -69.5t-60 -107t-21 -137.5v-74q0 -75 21 -137.5t60 -107t94.5 -69.5
t123.5 -25h205v-39zM393 115q47 0 73.5 29.5t26.5 81.5v132q0 46 -26.5 76t-73.5 30q-56 0 -82 -37.5t-26 -102.5v-69q0 -65 26 -102.5t82 -37.5z" />
    <glyph glyph-name="hyphen" unicode="-" horiz-adv-x="360" 
d="M66 275v58h228v-58h-228z" />
    <glyph glyph-name="uni00AD" unicode="&#xad;" horiz-adv-x="360" 
d="M66 275v58h228v-58h-228z" />
    <glyph glyph-name="endash" unicode="&#x2013;" horiz-adv-x="528" 
d="M32 279v51h464v-51h-464z" />
    <glyph glyph-name="emdash" unicode="&#x2014;" horiz-adv-x="702" 
d="M32 279v51h638v-51h-638z" />
    <glyph glyph-name="underscore" unicode="_" horiz-adv-x="510" 
d="M27 -154v48h456v-48h-456z" />
    <glyph glyph-name="period" unicode="." horiz-adv-x="236" 
d="M118 -9q-46 0 -46 40v13q0 40 46 40t46 -40v-13q0 -40 -46 -40z" />
    <glyph glyph-name="ellipsis" unicode="&#x2026;" horiz-adv-x="698" 
d="M118 -9q-46 0 -46 40v13q0 40 46 40t46 -40v-13q0 -40 -46 -40zM349 -9q-46 0 -46 40v13q0 40 46 40t46 -40v-13q0 -40 -46 -40zM580 -9q-46 0 -46 40v13q0 40 46 40t46 -40v-13q0 -40 -46 -40z" />
    <glyph glyph-name="colon" unicode=":" horiz-adv-x="248" 
d="M124 -9q-46 0 -46 40v13q0 40 46 40t46 -40v-13q0 -40 -46 -40zM124 417q-46 0 -46 40v13q0 40 46 40t46 -40v-13q0 -40 -46 -40z" />
    <glyph glyph-name="comma" unicode="," horiz-adv-x="236" 
d="M118 85q46 0 46 -41v-13q0 -42 -22.5 -88.5t-57.5 -80.5h-45q29 33 45.5 64.5t21.5 65.5q-34 6 -34 39v13q0 41 46 41z" />
    <glyph glyph-name="semicolon" unicode=";" horiz-adv-x="248" 
d="M124 85q46 0 46 -41v-13q0 -42 -22.5 -88.5t-57.5 -80.5h-45q29 33 45.5 64.5t21.5 65.5q-34 6 -34 39v13q0 41 46 41zM124 417q-46 0 -46 40v13q0 40 46 40t46 -40v-13q0 -40 -46 -40z" />
    <glyph glyph-name="quotesingle" unicode="'" horiz-adv-x="211" 
d="M81 474v266h49v-266h-49z" />
    <glyph glyph-name="quotedbl" unicode="&#x22;" horiz-adv-x="364" 
d="M81 474v266h49v-266h-49zM234 474v266h49v-266h-49z" />
    <glyph glyph-name="quoteleft" unicode="&#x2018;" horiz-adv-x="236" 
d="M118 518q-46 0 -46 40v13q0 42 22.5 88.5t57.5 80.5h45q-29 -33 -45.5 -64.5t-21.5 -65.5q34 -4 34 -39v-13q0 -40 -46 -40z" />
    <glyph glyph-name="quoteright" unicode="&#x2019;" horiz-adv-x="236" 
d="M118 744q46 0 46 -40v-13q0 -42 -22.5 -88.5t-57.5 -80.5h-45q29 33 45.5 64.5t21.5 65.5q-34 4 -34 39v13q0 40 46 40z" />
    <glyph glyph-name="quotedblleft" unicode="&#x201c;" horiz-adv-x="405" 
d="M118 518q-46 0 -46 40v13q0 42 22.5 88.5t57.5 80.5h45q-29 -33 -45.5 -64.5t-21.5 -65.5q34 -4 34 -39v-13q0 -40 -46 -40zM286 518q-46 0 -46 40v13q0 42 22.5 88.5t57.5 80.5h45q-29 -33 -45.5 -64.5t-21.5 -65.5q34 -4 34 -39v-13q0 -40 -46 -40z" />
    <glyph glyph-name="quotedblright" unicode="&#x201d;" horiz-adv-x="405" 
d="M118 744q46 0 46 -40v-13q0 -42 -22.5 -88.5t-57.5 -80.5h-45q29 33 45.5 64.5t21.5 65.5q-34 4 -34 39v13q0 40 46 40zM286 744q46 0 46 -40v-13q0 -42 -22.5 -88.5t-57.5 -80.5h-45q29 33 45.5 64.5t21.5 65.5q-34 4 -34 39v13q0 40 46 40z" />
    <glyph glyph-name="quotesinglbase" unicode="&#x201a;" horiz-adv-x="236" 
d="M118 99q46 0 46 -40v-13q0 -42 -22.5 -88.5t-57.5 -80.5h-45q29 33 45.5 64.5t21.5 65.5q-34 4 -34 39v13q0 40 46 40z" />
    <glyph glyph-name="quotedblbase" unicode="&#x201e;" horiz-adv-x="405" 
d="M118 99q46 0 46 -40v-13q0 -42 -22.5 -88.5t-57.5 -80.5h-45q29 33 45.5 64.5t21.5 65.5q-34 4 -34 39v13q0 40 46 40zM286 99q46 0 46 -40v-13q0 -42 -22.5 -88.5t-57.5 -80.5h-45q29 33 45.5 64.5t21.5 65.5q-34 4 -34 39v13q0 40 46 40z" />
    <glyph glyph-name="guilsinglleft" unicode="&#x2039;" horiz-adv-x="270" 
d="M210 105l-178 158v51l178 158l20 -38l-141 -142v-7l141 -142z" />
    <glyph glyph-name="guilsinglright" unicode="&#x203a;" horiz-adv-x="270" 
d="M59 472l178 -158v-51l-178 -158l-20 38l141 142v7l-141 142z" />
    <glyph glyph-name="guillemotleft" unicode="&#xab;" horiz-adv-x="449" 
d="M210 105l-178 158v51l178 158l20 -38l-141 -142v-7l141 -142zM388 105l-178 158v51l178 158l20 -38l-141 -142v-7l141 -142z" />
    <glyph glyph-name="guillemotright" unicode="&#xbb;" horiz-adv-x="449" 
d="M59 472l178 -158v-51l-178 -158l-20 38l141 142v7l-141 142zM237 472l178 -158v-51l-178 -158l-20 38l141 142v7l-141 142z" />
    <glyph glyph-name="exclamdown" unicode="&#xa1;" horiz-adv-x="246" 
d="M93 -186v235l16 283h28l16 -283v-235h-60zM123 428q-46 0 -46 40v13q0 40 46 40t46 -40v-13q0 -40 -46 -40z" />
    <glyph glyph-name="exclam" unicode="!" horiz-adv-x="246" 
d="M109 180l-16 283v235h60v-235l-16 -283h-28zM123 -9q-46 0 -46 40v13q0 40 46 40t46 -40v-13q0 -40 -46 -40z" />
    <glyph glyph-name="questiondown" unicode="&#xbf;" horiz-adv-x="418" 
d="M210 -199q-177 0 -177 185q0 174 171 204v127h53v-168q-81 -4 -123.5 -42.5t-42.5 -106.5v-23q0 -58 32 -91.5t88 -33.5q108 0 137 124l50 -18q-38 -157 -188 -157zM232 428q-46 0 -46 40v13q0 40 46 40t46 -40v-13q0 -40 -46 -40z" />
    <glyph glyph-name="question" unicode="?" horiz-adv-x="423" 
d="M167 195v168q81 4 123.5 42.5t42.5 106.5v23q0 58 -32 91.5t-88 33.5q-108 0 -137 -124l-50 18q38 157 188 157q177 0 177 -185q0 -174 -171 -204v-127h-53zM192 -9q-46 0 -46 40v13q0 40 46 40t46 -40v-13q0 -40 -46 -40z" />
    <glyph glyph-name="parenleft" unicode="(" horiz-adv-x="301" 
d="M80 311q0 290 164 449h54q-83 -81 -123.5 -182t-40.5 -220v-94q0 -119 40.5 -220t123.5 -182h-54q-164 159 -164 449z" />
    <glyph glyph-name="parenright" unicode=")" horiz-adv-x="301" 
d="M221 311q0 -290 -164 -449h-54q83 81 123.5 182t40.5 220v94q0 119 -40.5 220t-123.5 182h54q164 -159 164 -449z" />
    <glyph glyph-name="bracketleft" unicode="[" horiz-adv-x="280" 
d="M88 -138v898h136v-44h-87v-810h87v-44h-136z" />
    <glyph glyph-name="bracketright" unicode="]" horiz-adv-x="280" 
d="M193 760v-898h-136v44h87v810h-87v44h136z" />
    <glyph glyph-name="braceleft" unicode="{" horiz-adv-x="300" 
d="M156 -138q-26 0 -37 11t-11 37v294q0 38 -22.5 57t-61.5 19v62q39 0 61.5 19t22.5 57v294q0 26 11 37t37 11h88v-44h-87v-298q0 -43 -26.5 -72t-71.5 -29v-12q45 0 71.5 -29t26.5 -72v-298h87v-44h-88z" />
    <glyph glyph-name="braceright" unicode="}" horiz-adv-x="300" 
d="M129 760q26 0 37 -11t11 -37v-294q0 -38 22.5 -57t61.5 -19v-62q-39 0 -61.5 -19t-22.5 -57v-294q0 -26 -11 -37t-37 -11h-88v44h87v298q0 43 26.5 72t71.5 29v12q-45 0 -71.5 29t-26.5 72v298h-87v44h88z" />
    <glyph glyph-name="slash" unicode="/" horiz-adv-x="324" 
d="M10 -151l228 891h48l-228 -891h-48z" />
    <glyph glyph-name="backslash" unicode="\" horiz-adv-x="324" 
d="M266 -151l-228 891h48l228 -891h-48z" />
    <glyph glyph-name="fraction" unicode="&#x2044;" horiz-adv-x="100" 
d="M79 434l161 264h46l-161 -264h-46zM-186 0l155 254h46l-155 -254h-46z" />
    <glyph glyph-name="percent" unicode="%" horiz-adv-x="821" 
d="M166 0l436 698h53l-436 -698h-53zM199 318q-66 0 -102 46t-36 150t36 150t102 46t102 -46t36 -150t-36 -150t-102 -46zM199 355q43 0 65.5 30t22.5 96v66q0 66 -22.5 96t-65.5 30t-65.5 -30t-22.5 -96v-66q0 -66 22.5 -96t65.5 -30zM622 -12q-66 0 -102 46t-36 150
t36 150t102 46t102 -46t36 -150t-36 -150t-102 -46zM622 25q43 0 65.5 30t22.5 96v66q0 66 -22.5 96t-65.5 30t-65.5 -30t-22.5 -96v-66q0 -66 22.5 -96t65.5 -30z" />
    <glyph glyph-name="perthousand" unicode="&#x2030;" horiz-adv-x="1156" 
d="M166 0l436 698h53l-436 -698h-53zM199 318q-66 0 -102 46t-36 150t36 150t102 46t102 -46t36 -150t-36 -150t-102 -46zM199 355q43 0 65.5 30t22.5 96v66q0 66 -22.5 96t-65.5 30t-65.5 -30t-22.5 -96v-66q0 -66 22.5 -96t65.5 -30zM622 -12q-66 0 -102 46t-36 150
t36 150t102 46t102 -46t36 -150t-36 -150t-102 -46zM622 25q43 0 65.5 30t22.5 96v66q0 66 -22.5 96t-65.5 30t-65.5 -30t-22.5 -96v-66q0 -66 22.5 -96t65.5 -30zM957 -12q-66 0 -102 46t-36 150t36 150t102 46t102 -46t36 -150t-36 -150t-102 -46zM957 25q43 0 65.5 30
t22.5 96v66q0 66 -22.5 96t-65.5 30t-65.5 -30t-22.5 -96v-66q0 -66 22.5 -96t65.5 -30z" />
    <glyph glyph-name="bar" unicode="|" horiz-adv-x="260" 
d="M107 -138v898h46v-898h-46z" />
    <glyph glyph-name="brokenbar" unicode="&#xa6;" horiz-adv-x="260" 
d="M107 404v356h46v-356h-46zM107 -138v356h46v-356h-46z" />
    <glyph glyph-name="section" unicode="&#xa7;" horiz-adv-x="519" 
d="M418 -4q0 -151 -170 -151q-92 0 -148 53l32 39q46 -44 117 -44q116 0 116 103q0 73 -100 109l-58 21q-74 27 -105 62.5t-31 93.5q0 51 26 88.5t72 53.5v9q-30 20 -48.5 50.5t-18.5 75.5q0 151 170 151q92 0 148 -53l-32 -39q-46 44 -117 44q-116 0 -116 -103
q0 -74 100 -109l58 -21q75 -26 105.5 -62t30.5 -94q0 -51 -26 -88.5t-72 -53.5v-8q30 -20 48.5 -51t18.5 -76zM395 261q0 49 -23.5 77t-84.5 48l-58 19q-9 3 -16.5 6t-15.5 7q-72 -45 -72 -124q0 -25 5.5 -43.5t18 -33.5t33 -26.5t51.5 -21.5l58 -19q9 -3 16.5 -6t15.5 -7
q33 21 52.5 50.5t19.5 73.5z" />
    <glyph glyph-name="paragraph" unicode="&#xb6;" horiz-adv-x="567" 
d="M223 312q-81 0 -129 51t-48 142t48 142t129 51h266v-47h-61v-800h-51v800h-103v-800h-51v461z" />
    <glyph glyph-name="copyright" unicode="&#xa9;" horiz-adv-x="677" 
d="M339 -12q-66 0 -121.5 23.5t-95 69.5t-62 113.5t-22.5 154.5t22.5 154.5t62 113.5t95 69.5t121.5 23.5t121.5 -23.5t95 -69.5t62 -113.5t22.5 -154.5t-22.5 -154.5t-62 -113.5t-95 -69.5t-121.5 -23.5zM339 30q57 0 103.5 20.5t79 58t50.5 89.5t18 114v74q0 62 -18 114
t-50.5 89.5t-79 58t-103.5 20.5t-103.5 -20.5t-79 -58t-50.5 -89.5t-18 -114v-74q0 -62 18 -114t50.5 -89.5t79 -58t103.5 -20.5zM343 154q-148 0 -148 194t148 194q89 0 119 -80l-39 -21q-23 57 -80 57q-94 0 -94 -122v-56q0 -122 94 -122q34 0 54 15.5t32 43.5l38 -23
q-14 -35 -44.5 -57.5t-79.5 -22.5z" />
    <glyph glyph-name="registered" unicode="&#xae;" horiz-adv-x="425" 
d="M212 298q-40 0 -73 14t-57 40.5t-37.5 64.5t-13.5 87t13.5 87t37.5 64.5t57 40.5t73 14t73 -14t57 -40.5t37.5 -64.5t13.5 -87t-13.5 -87t-37.5 -64.5t-57 -40.5t-73 -14zM212 327q69 0 107.5 44t38.5 111v44q0 67 -38.5 111t-107.5 44t-107.5 -44t-38.5 -111v-44
q0 -67 38.5 -111t107.5 -44zM175 399h-30v209h83q28 0 42.5 -13.5t14.5 -48.5q0 -28 -10 -42t-28 -18l45 -87h-33l-41 85h-43v-85zM226 508q28 0 28 28v19q0 28 -28 28h-51v-75h51z" />
    <glyph glyph-name="trademark" unicode="&#x2122;" horiz-adv-x="584" 
d="M111 424v241h-86v33h207v-33h-85v-241h-36zM284 424v274h46l65 -147h4l65 147h47v-274h-34v151l4 74h-6l-78 -167l-77 167h-6l4 -74v-151h-34z" />
    <glyph glyph-name="ordfeminine" unicode="&#xaa;" horiz-adv-x="345" 
d="M228 409q-10 -26 -33.5 -43t-61.5 -17q-48 0 -72.5 24.5t-24.5 69.5q0 51 30.5 75t96.5 24h72v43q0 42 -18 61t-57 19q-64 0 -84 -52l-30 23q31 66 117 66q57 0 86 -29t29 -85v-192h37v-40h-39q-20 0 -30.5 10t-10.5 34v9h-7zM162 510q-42 0 -62 -14t-20 -39v-20
q0 -51 64 -51q37 0 64 19t27 54v51h-73z" />
    <glyph glyph-name="ordmasculine" unicode="&#xba;" horiz-adv-x="349" 
d="M174 350q-65 0 -99.5 42.5t-34.5 133.5t34.5 133.5t99.5 42.5t99.5 -42.5t34.5 -133.5t-34.5 -133.5t-99.5 -42.5zM174 387q44 0 65 26.5t21 76.5v72q0 50 -21 76.5t-65 26.5t-65 -26.5t-21 -76.5v-72q0 -50 21 -76.5t65 -26.5z" />
    <glyph glyph-name="degree" unicode="&#xb0;" horiz-adv-x="421" 
d="M211 388q-33 0 -61 11t-49 32t-32.5 50.5t-11.5 67.5q0 37 11.5 67t32.5 51t49 32t61 11t61 -11t49 -32t32.5 -51t11.5 -67q0 -38 -11.5 -67.5t-32.5 -50.5t-49 -32t-61 -11zM211 431q48 0 77 31t29 87t-29 87t-77 31t-77 -31t-29 -87t29 -87t77 -31z" />
    <glyph glyph-name="asterisk" unicode="*" horiz-adv-x="381" 
d="M272 420l-78 123h-7l-78 -123l-41 30l93 112l-2 5l-140 38l15 47l135 -54l5 4l-9 145h51l-9 -145l5 -4l135 54l15 -47l-140 -38l-2 -5l93 -112z" />
    <glyph glyph-name="dagger" unicode="&#x2020;" horiz-adv-x="498" 
d="M225 -200v669h-178v43h178v228h48v-228h178v-43h-178v-669h-48z" />
    <glyph glyph-name="daggerdbl" unicode="&#x2021;" horiz-adv-x="499" 
d="M225 -200v228h-178v43h178v398h-178v43h178v228h48v-228h179v-43h-179v-398h179v-43h-179v-228h-48z" />
    <glyph glyph-name="numbersign" unicode="#" horiz-adv-x="639" 
d="M372 212h-152l-32 -212h-43l32 212h-121v39h128l30 196h-123v39h130l32 212h43l-32 -212h151l33 212h43l-33 -212h122v-39h-128l-30 -196h123v-39h-130l-32 -212h-43zM379 251l30 196h-152l-30 -196h152z" />
    <glyph glyph-name="asciicircum" unicode="^" 
d="M447 307l-173 341h-8l-173 -341l-43 21l189 370h62l190 -370z" />
    <glyph glyph-name="asciitilde" unicode="~" 
d="M379 244q-31 0 -56.5 9t-60.5 28q-29 16 -55 26t-49 10q-25 0 -42.5 -8t-36.5 -27l-25 31q20 26 45 39t62 13q31 0 56.5 -9t60.5 -28q29 -16 55 -26t49 -10q25 0 42.5 8t36.5 27l25 -31q-20 -26 -45 -39t-62 -13z" />
    <glyph glyph-name="plus" unicode="+" 
d="M244 88v194h-186v46h186v194h52v-194h186v-46h-186v-194h-52z" />
    <glyph glyph-name="minus" unicode="&#x2212;" 
d="M58 282v46h424v-46h-424z" />
    <glyph glyph-name="plusminus" unicode="&#xb1;" 
d="M244 157v193h-186v46h186v194h52v-194h186v-46h-186v-193h-52zM58 0v46h423v-46h-423z" />
    <glyph glyph-name="multiply" unicode="&#xd7;" 
d="M270 272l-158 -158l-33 33l158 158l-158 159l32 33l159 -159l159 159l32 -33l-158 -159l158 -158l-33 -33z" />
    <glyph glyph-name="divide" unicode="&#xf7;" 
d="M58 282v46h424v-46h-424zM270 69q-26 0 -36.5 10.5t-10.5 27.5v15q0 17 10.5 27.5t36.5 10.5t36.5 -10.5t10.5 -27.5v-15q0 -17 -10.5 -27.5t-36.5 -10.5zM270 451q-26 0 -36.5 10.5t-10.5 27.5v15q0 17 10.5 27.5t36.5 10.5t36.5 -10.5t10.5 -27.5v-15
q0 -17 -10.5 -27.5t-36.5 -10.5z" />
    <glyph glyph-name="equal" unicode="=" 
d="M58 378v46h424v-46h-424zM58 187v46h424v-46h-424z" />
    <glyph glyph-name="approxequal" unicode="&#x2248;" 
d="M379 336q-31 0 -56.5 9t-60.5 28q-29 16 -55 26t-49 10q-25 0 -42.5 -8t-36.5 -27l-25 31q20 26 45 39t62 13q31 0 56.5 -9t60.5 -28q29 -16 55 -26t49 -10q25 0 42.5 8t36.5 27l25 -31q-20 -26 -45 -39t-62 -13zM379 153q-31 0 -56.5 9t-60.5 28q-29 16 -55 26t-49 10
q-25 0 -42.5 -8t-36.5 -27l-25 31q20 26 45 39t62 13q31 0 56.5 -9t60.5 -28q29 -16 55 -26t49 -10q25 0 42.5 8t36.5 27l25 -31q-20 -26 -45 -39t-62 -13z" />
    <glyph glyph-name="notequal" unicode="&#x2260;" 
d="M130 81l55 106h-127v46h150l74 145h-224v46h247l55 107h50l-55 -107h127v-46h-150l-74 -145h224v-46h-247l-55 -106h-50z" />
    <glyph glyph-name="less" unicode="&#x3c;" 
d="M80 259v56l380 251v-58l-329 -217v-9l329 -216v-58z" />
    <glyph glyph-name="greater" unicode="&#x3e;" 
d="M80 66l329 216v9l-329 217v58l380 -251v-56l-380 -251v58z" />
    <glyph glyph-name="lessequal" unicode="&#x2264;" 
d="M80 0v46h380v-46h-380zM460 534l-329 -179v-8l329 -178v-59l-380 213v56l380 213v-58z" />
    <glyph glyph-name="greaterequal" unicode="&#x2265;" 
d="M80 169l329 178v8l-329 179v58l380 -213v-56l-380 -213v59zM80 46h380v-46h-380v46z" />
    <glyph glyph-name="periodcentered" unicode="&#xb7;" horiz-adv-x="286" 
d="M143 258q-46 0 -46 40v13q0 40 46 40t46 -40v-13q0 -40 -46 -40z" />
    <glyph glyph-name="bullet" unicode="&#x2022;" horiz-adv-x="338" 
d="M170 202q-54 0 -77.5 22.5t-23.5 60.5v38q0 38 23.5 60.5t77.5 22.5t77.5 -22.5t23.5 -60.5v-38q0 -38 -23.5 -60.5t-77.5 -22.5z" />
    <glyph glyph-name="lozenge" unicode="&#x25ca;" 
d="M243 0l-198 349l198 349h54l198 -349l-198 -349h-54zM274 53l164 296l-164 296h-9l-164 -296l164 -296h9z" />
    <glyph glyph-name="logicalnot" unicode="&#xac;" 
d="M429 88v194h-371v46h424v-240h-53z" />
    <glyph glyph-name="radical" unicode="&#x221a;" 
d="M239 0l-126 464h-90v48h131l76 -284l44 -182h7l44 182l125 471h53l-187 -699h-77z" />
    <glyph glyph-name="integral" unicode="&#x222b;" horiz-adv-x="360" 
d="M44 -152h108v821q0 38 17 54.5t54 16.5h93v-48h-109v-822q0 -37 -16.5 -53.5t-53.5 -16.5h-93v48z" />
    <glyph glyph-name="infinity" unicode="&#x221e;" horiz-adv-x="665" 
d="M174 121q-76 0 -115.5 46.5t-39.5 138.5t39.5 138.5t115.5 46.5q69 0 109 -37.5t59 -108.5h9q10 72 48 109t92 37q76 0 115.5 -46.5t39.5 -138.5t-39.5 -138.5t-115.5 -46.5q-69 0 -109 37.5t-59 108.5h-9q-10 -72 -48 -109t-92 -37zM174 167q48 0 81.5 33.5t50.5 105.5
q-18 75 -51 106.5t-81 31.5q-46 0 -73 -27t-27 -81v-61q0 -54 27 -81t73 -27zM491 168q46 0 73 27t27 81v61q0 54 -27 81t-73 27q-48 0 -81.5 -33.5t-50.5 -105.5q18 -75 51 -106.5t81 -31.5z" />
    <glyph glyph-name="uni212E" unicode="&#x212e;" horiz-adv-x="642" 
d="M134 130q25 -48 74 -77t113 -29q157 0 226 145l31 -17q-78 -164 -257 -164q-63 0 -115.5 23t-91 68t-59.5 112.5t-21 157.5t21 157.5t59.5 112.5t91 68t115.5 23t115.5 -23t91 -68t59.5 -112.5t21 -157.5h-474v-219zM508 385v187q-26 46 -74 74t-113 28q-64 0 -112.5 -28
t-74.5 -74v-187h374z" />
    <glyph glyph-name="uni2113" unicode="&#x2113;" horiz-adv-x="432" 
d="M243 -12q-133 0 -133 158v34l-54 -40l-24 34l78 58v363q0 77 27.5 117t90.5 40t90.5 -40t27.5 -117q0 -55 -13.5 -108.5t-38.5 -102t-59 -91t-75 -75.5v-65q0 -65 21 -91t66 -26q75 0 113 105l40 -22q-21 -63 -60.5 -97t-96.5 -34zM227 704q-32 0 -49.5 -20t-17.5 -76
v-333q59 57 96.5 138t37.5 171v24q0 56 -17.5 76t-49.5 20z" />
    <glyph glyph-name="uni2116" unicode="&#x2116;" horiz-adv-x="923" 
d="M749 364q-63 0 -101.5 41.5t-38.5 131.5t38.5 131.5t101.5 41.5t101.5 -41.5t38.5 -131.5t-38.5 -131.5t-101.5 -41.5zM88 0v698h77l237 -474l70 -155h8l-4 155v474h56v-698h-77l-236 474l-71 155h-8l4 -155v-474h-56zM749 401q45 0 68.5 28t23.5 76v64q0 48 -23.5 76
t-68.5 28t-68.5 -28t-23.5 -76v-64q0 -48 23.5 -76t68.5 -28zM625 264v44h249v-44h-249z" />
    <glyph glyph-name="partialdiff" unicode="&#x2202;" horiz-adv-x="527" 
d="M463 260q0 -141 -53 -206.5t-149 -65.5q-99 0 -150.5 65t-51.5 193t50.5 193t144.5 65q48 0 78.5 -22t48.5 -61h8q-20 78 -84.5 147.5t-173.5 129.5h88q65 -41 111 -85t75.5 -96.5t43.5 -115.5t14 -141zM261 37q69 0 106 41.5t37 129.5v76q0 88 -37 129.5t-106 41.5
t-106 -41.5t-37 -129.5v-76q0 -88 37 -129.5t106 -41.5z" />
    <glyph glyph-name="cent" unicode="&#xa2;" horiz-adv-x="458" 
d="M217 -114v103q-81 9 -126 72.5t-45 194.5t45 194.5t126 72.5v103h47v-103q58 -5 94.5 -34t55.5 -75l-46 -23q-14 38 -39 58.5t-66 24.5v-436q43 4 70.5 25.5t45.5 61.5l41 -28q-22 -46 -60 -75t-96 -33v-103h-47zM105 211q0 -76 28.5 -120t85.5 -52v434q-57 -8 -85.5 -52
t-28.5 -120v-90z" />
    <glyph glyph-name="Euro" unicode="&#x20ac;" horiz-adv-x="558" 
d="M299 -12q-56 0 -101 20t-76.5 63t-48.5 111.5t-17 166.5q0 97 17 166t48.5 112t76.5 63t101 20q81 0 130 -35t76 -103l-47 -28q-19 57 -56 86t-103 29q-78 0 -124.5 -52t-54.5 -154h232v-46h-234v-116h234v-46h-232q8 -102 54.5 -154t124.5 -52q69 0 107 31t57 91l47 -27
q-26 -71 -77 -108.5t-134 -37.5z" />
    <glyph glyph-name="florin" unicode="&#x192;" horiz-adv-x="437" 
d="M3 -86h140l35 393h-138l5 50h137l25 276q3 36 18.5 50.5t54.5 14.5h136l-5 -48h-148l-26 -293h165l-6 -50h-163l-34 -376q-3 -36 -18.5 -50.5t-54.5 -14.5h-128z" />
    <glyph glyph-name="sterling" unicode="&#xa3;" horiz-adv-x="530" 
d="M74 0v66q37 22 55 60t18 102q0 18 -2 34.5t-6 33.5h-83v48h69q-11 36 -21.5 74t-10.5 85q0 102 51 154.5t146 52.5q70 0 114 -27.5t72 -77.5l-43 -30q-23 40 -56 62.5t-87 22.5q-68 0 -103 -37.5t-35 -123.5q0 -45 9.5 -82.5t20.5 -72.5h192v-48h-179q8 -34 8 -66
q0 -66 -25.5 -110.5t-66.5 -61.5v-7h353v-51h-390z" />
    <glyph glyph-name="dollar" unicode="$" horiz-adv-x="521" 
d="M472 192q0 -91 -48.5 -139.5t-136.5 -53.5v-81h-46v81q-124 9 -198 111l41 36q58 -90 159 -98v291q-50 7 -84.5 22.5t-56 39t-31 54t-9.5 68.5q0 83 47.5 127t131.5 49v81h46v-81q118 -8 176 -100l-40 -31q-46 74 -137 82v-268q101 -17 143.5 -64.5t42.5 -125.5zM116 528
q0 -61 30.5 -93t96.5 -43v258q-62 -5 -94.5 -35.5t-32.5 -86.5zM418 189q0 59 -28.5 92.5t-103.5 47.5v-281q65 5 98.5 40t33.5 101z" />
    <glyph glyph-name="yen" unicode="&#xa5;" horiz-adv-x="537" 
d="M297 155v-155h-58v155h-164v46h164v115h-164v46h137l-176 336h65l164 -323h8l164 323h64l-176 -336h136v-46h-164v-115h164v-46h-164z" />
    <glyph glyph-name="uni0E3F" unicode="&#xe3f;" horiz-adv-x="567" 
d="M301 -82h-46v103h-167v656h167v103h46v-103h28q75 0 116.5 -40.5t41.5 -125.5q0 -63 -27 -99t-78 -44v-8q28 -2 51.5 -12t40.5 -28.5t27 -46.5t10 -67q0 -90 -43 -137.5t-117 -47.5h-50v-103zM257 387v240h-112v-240h112zM300 387h29q51 0 74.5 25t23.5 70v50
q0 45 -23.5 70t-74.5 25h-29v-240zM257 71v266h-112v-266h112zM300 71h37q52 0 83 27t31 79v54q0 52 -31 79t-83 27h-37v-266z" />
    <glyph glyph-name="uni20A1" unicode="&#x20a1;" horiz-adv-x="559" 
d="M289 0q-20 1 -39.5 4t-36.5 10l-9 -96h-43l12 115q-56 35 -86.5 111.5t-30.5 204.5q0 81 12.5 141t36 101.5t57.5 66t76 34.5l9 88h43l-8 -82h18q16 0 30 -1.5t28 -3.5l9 87h43l-11 -99q38 -15 64.5 -44.5t43.5 -72.5l-46 -28q-22 65 -69 91l-56 -573q53 7 83 35.5
t47 79.5l46 -27q-24 -63 -67.5 -98.5t-112.5 -42.5l-8 -83h-43zM300 647h-13t-12 -1l-58 -576q36 -18 78 -18l59 589q-24 6 -54 6zM118 287q0 -132 62 -192l53 541q-56 -20 -85.5 -76t-29.5 -148v-125z" />
    <glyph glyph-name="uni20A4" unicode="&#x20a4;" horiz-adv-x="530" 
d="M471 0h-398v66q37 22 55 60t18 102v8.5t-1 8.5h-89v46h83q-7 29 -16 57t-17 59h-50v46h41q-2 12 -3 24t-1 26q0 102 51 154.5t146 52.5q74 0 119.5 -27.5t72.5 -77.5l-43 -30q-23 41 -57.5 63t-91.5 22q-68 0 -103.5 -37.5t-35.5 -123.5q0 -24 3 -46h229v-46h-220
q8 -30 17 -58.5t15 -57.5h186v-46h-179v-15q0 -66 -25 -110.5t-67 -61.5v-7h361v-51z" />
    <glyph glyph-name="uni20A6" unicode="&#x20a6;" horiz-adv-x="620" 
d="M333 245h-186v-245h-56v245h-76v46h76v116h-76v46h76v245h75l120 -245h186v245h56v-245h76v-46h-76v-116h74v-46h-74v-245h-74zM147 289h164l-91 185l-69 155h-8l4 -155v-185zM477 69l-5 155v185h-164l91 -185l70 -155h8z" />
    <glyph glyph-name="uni20A8" unicode="&#x20a8;" horiz-adv-x="650" 
d="M88 0v698h149q82 0 115.5 -44.5t33.5 -140.5q0 -80 -22.5 -123.5t-76.5 -56.5l96 -216q20 -45 45 -63.5t64 -18.5q38 0 58 19.5t20 51.5q0 13 -2.5 24.5t-8.5 23t-16.5 24t-26.5 28.5l-24 23q-21 20 -34.5 37t-22 33t-12 32t-3.5 35q0 47 26.5 77t80.5 30q25 0 48 -6.5
t42 -23.5l-23 -39q-24 23 -65 23q-57 0 -57 -61q0 -14 2.5 -26t9.5 -24t17.5 -24.5t27.5 -27.5l22 -21q20 -20 33.5 -36.5t22 -31.5t12 -31t3.5 -36q0 -54 -33.5 -87t-99.5 -33q-60 0 -95.5 25.5t-60.5 83.5l-100 231h-90v-328h-55zM232 376q52 0 74.5 24t22.5 80v65
q0 56 -22.5 80t-74.5 24h-89v-273h89z" />
    <glyph glyph-name="uni20A9" unicode="&#x20a9;" horiz-adv-x="843" 
d="M508 245h-175l-57 -245h-75l-55 245h-110v46h100l-27 116h-73v46h63l-55 245h60l53 -245h170l55 245h79l55 -245h171l53 245h59l-57 -245h65v-46h-75l-27 -116h102v-46h-112l-57 -245h-75zM280 243l37 166h-151l36 -166l35 -186h7zM607 57l35 186l36 166h-152l37 -166
l36 -186h8zM343 289h155l-37 166l-36 193h-8l-35 -193z" />
    <glyph glyph-name="uni20AA" unicode="&#x20aa;" horiz-adv-x="697" 
d="M243 554h55v-506h160q51 0 74 27t23 78v545h55v-548q0 -74 -37.5 -112t-112.5 -38h-217v554zM88 0v698h217q75 0 112 -38t37 -112v-404h-55v401q0 51 -23 78t-74 27h-159v-650h-55z" />
    <glyph glyph-name="uni20AB" unicode="&#x20ab;" horiz-adv-x="516" 
d="M364 198h-9q-37 -82 -129 -82q-75 0 -120 52.5t-45 167.5t45 167.5t120 52.5q92 0 129 -81h9v157h-141v42h141v66h52v-66h62v-42h-62v-505h-52v71zM242 162q25 0 47.5 8t39 22.5t26 34.5t9.5 45v129q0 25 -9.5 45t-26 34.5t-39 22.5t-47.5 8q-57 0 -90.5 -34.5
t-33.5 -101.5v-77q0 -67 33.5 -101.5t90.5 -34.5zM63 0v46h381v-46h-381z" />
    <glyph glyph-name="uni20AD" unicode="&#x20ad;" horiz-adv-x="541" 
d="M148 0h-58v340h-75v48h75v310h58v-310h75l214 310h61l-164 -236l-58 -74h211v-48h-211l56 -74l178 -266h-63l-224 340h-75v-340z" />
    <glyph glyph-name="uni20AE" unicode="&#x20ae;" horiz-adv-x="538" 
d="M298 232v-232h-57v204l-128 -68v48l128 68v109l-128 -69v48l128 69v239h-209v50h474v-50h-208v-212l128 69v-48l-128 -69v-108l128 68v-48z" />
    <glyph glyph-name="uni20B1" unicode="&#x20b1;" horiz-adv-x="560" 
d="M156 0h-57v357h-75v46h75v112h-75v46h75v137h201q68 0 108.5 -32.5t55.5 -104.5h81v-46h-74q1 -13 1.5 -27t0.5 -29t-0.5 -29t-1.5 -27h74v-46h-81q-15 -72 -55.5 -104.5t-108.5 -32.5h-144v-220zM156 561h252q-8 42 -35.5 64.5t-70.5 22.5h-146v-87zM411 400v118h-255
v-118h255zM302 270q43 0 70.5 22.5t35.5 64.5h-252v-87h146z" />
    <glyph glyph-name="uni20B2" unicode="&#x20b2;" horiz-adv-x="597" 
d="M302 -2q-9 0 -18 0.5t-17 1.5l-13 -82h-46l14 91q-81 25 -123.5 107t-42.5 233q0 92 16.5 158.5t48 109t77 63t104.5 20.5h12.5t12.5 -1l12 81h46l-14 -87q53 -12 87 -44.5t54 -83.5l-46 -27q-14 41 -39 67.5t-64 37.5l-45 -295h213v-106q0 -120 -60.5 -182t-168.5 -62z
M118 286q0 -91 29 -148t84 -78l89 590q-5 1 -9 1h-9q-88 0 -136 -61t-48 -178v-126zM311 300l-38 -251q7 -1 14 -1.5t15 -0.5q82 0 128 44t46 138v71h-165z" />
    <glyph glyph-name="uni20B4" unicode="&#x20b4;" horiz-adv-x="562" 
d="M287 -12q-186 0 -186 163q0 24 7.5 48.5t21.5 45.5h-89v46h121l113 85l47 29l-2 5l-76 -3h-203v46h324q15 20 21.5 43.5t6.5 46.5q0 60 -26.5 87.5t-92.5 27.5q-42 0 -73.5 -16t-61.5 -54l-36 36q35 46 79 66t97 20q174 0 174 -161q0 -23 -8 -48.5t-22 -47.5h89v-46h-121
l-112 -85l-48 -29l3 -5l76 3h200v-46h-321q-15 -20 -21.5 -43t-6.5 -46q0 -60 30 -88t101 -28q44 0 77 16.5t65 55.5l36 -35q-38 -48 -83 -68.5t-100 -20.5z" />
    <glyph glyph-name="uni20B5" unicode="&#x20b5;" horiz-adv-x="559" 
d="M297 -2q-8 0 -16 0.5t-16 1.5l-13 -82h-46l13 91q-77 24 -120 105t-43 235q0 94 16.5 161t48 109t76 61.5t100.5 19.5h13.5t12.5 -1l13 81h47l-14 -89q48 -13 80 -44.5t52 -82.5l-46 -28q-14 40 -36.5 66.5t-57.5 38.5l-90 -592q6 -1 12.5 -1.5t13.5 -0.5q69 0 106.5 31
t55.5 91l47 -27q-26 -70 -76.5 -107t-132.5 -37zM118 286q0 -91 28.5 -148t82.5 -79l89 591q-5 1 -10.5 1h-10.5q-86 0 -132.5 -61t-46.5 -178v-126z" />
    <glyph glyph-name="uni20B8" unicode="&#x20b8;" horiz-adv-x="545" 
d="M35 651v47h474v-47h-474zM301 498v-498h-57v498h-209v47h474v-47h-208z" />
    <glyph glyph-name="uni20B9" unicode="&#x20b9;" horiz-adv-x="548" 
d="M243 310l207 -310h-67l-205 310h-124v47h198q56 0 83.5 29t27.5 84v19h-309v47h309v2q0 55 -27.5 84t-83.5 29h-198v47h459v-47h-177v-6q34 -8 55 -33t26 -76h96v-47h-94q-3 -93 -45.5 -136t-122.5 -43h-8z" />
    <glyph glyph-name="uni20BA" unicode="&#x20ba;" horiz-adv-x="548" 
d="M113 272l-99 -54v48l99 54v108l-99 -53v48l99 53v222h58v-194l190 102v-48l-190 -102v-109l190 102v-48l-190 -102v-248h102q174 0 174 247h56q0 -141 -54.5 -219.5t-175.5 -78.5h-160v272z" />
    <glyph glyph-name="uni20BD" unicode="&#x20bd;" horiz-adv-x="553" 
d="M155 146v-146h-58v146h-82v51h82v111h-82v51h82v339h253q165 0 165 -195t-165 -195h-195v-111h237v-51h-237zM155 359h194q53 0 78.5 30t25.5 83v62q0 53 -25.5 83t-78.5 30h-194v-288z" />
    <glyph glyph-name="uni20BF" unicode="&#x20bf;" horiz-adv-x="567" 
d="M306 21h-73v-103h-46v103h-99v656h99v103h46v-103h73v103h46v-104q65 -5 100 -46t35 -119q0 -63 -27 -99t-78 -44v-8q28 -2 51.5 -12t40.5 -28.5t27 -46.5t10 -67q0 -90 -43 -137.5t-116 -47.5v-103h-46v103zM145 387h184q51 0 74.5 25t23.5 70v50q0 45 -23.5 70
t-74.5 25h-184v-240zM145 71h192q52 0 83 27t31 79v54q0 52 -31 79t-83 27h-192v-266z" />
    <glyph glyph-name="fl" unicode="&#xfb02;" horiz-adv-x="519" 
d="M420 0q-31 0 -44.5 13.5t-13.5 44.5v682h55v-692h69v-48h-66zM105 464h-79v48h79v158q0 37 16.5 53.5t53.5 16.5h85v-48h-100v-180h100v-48h-100v-464h-55v464z" />
    <glyph glyph-name="aacute" unicode="&#xe1;" horiz-adv-x="477" 
d="M392 0q-55 0 -55 54v28h-8q-13 -45 -48 -69.5t-88 -24.5q-72 0 -110 36.5t-38 110.5q0 73 45 112t136 39h111v68q0 65 -28 93t-87 28q-45 0 -75 -20.5t-49 -62.5l-36 31q20 45 60.5 73t101.5 28q83 0 125.5 -41t42.5 -123v-312h61v-48h-61zM205 36q28 0 52 8.5t42 24.5
t28 37.5t10 47.5v90h-112q-60 0 -91.5 -23.5t-31.5 -65.5v-32q0 -43 28.5 -65t74.5 -22zM225 586l-35 19l85 163l50 -27z" />
    <glyph glyph-name="abreve" unicode="&#x103;" horiz-adv-x="477" 
d="M392 0q-55 0 -55 54v28h-8q-13 -45 -48 -69.5t-88 -24.5q-72 0 -110 36.5t-38 110.5q0 73 45 112t136 39h111v68q0 65 -28 93t-87 28q-45 0 -75 -20.5t-49 -62.5l-36 31q20 45 60.5 73t101.5 28q83 0 125.5 -41t42.5 -123v-312h61v-48h-61zM205 36q28 0 52 8.5t42 24.5
t28 37.5t10 47.5v90h-112q-60 0 -91.5 -23.5t-31.5 -65.5v-32q0 -43 28.5 -65t74.5 -22zM227 600q-48 0 -78 27.5t-55 94.5l33 16l16 -31q18 -36 36 -49t48 -13t48 13t36 49l16 31l33 -16q-25 -67 -55 -94.5t-78 -27.5z" />
    <glyph glyph-name="acircumflex" unicode="&#xe2;" horiz-adv-x="477" 
d="M392 0q-55 0 -55 54v28h-8q-13 -45 -48 -69.5t-88 -24.5q-72 0 -110 36.5t-38 110.5q0 73 45 112t136 39h111v68q0 65 -28 93t-87 28q-45 0 -75 -20.5t-49 -62.5l-36 31q20 45 60.5 73t101.5 28q83 0 125.5 -41t42.5 -123v-312h61v-48h-61zM205 36q28 0 52 8.5t42 24.5
t28 37.5t10 47.5v90h-112q-60 0 -91.5 -23.5t-31.5 -65.5v-32q0 -43 28.5 -65t74.5 -22zM260 756l106 -139l-30 -23l-109 122l-109 -122l-30 23l106 139h66z" />
    <glyph glyph-name="adieresis" unicode="&#xe4;" horiz-adv-x="477" 
d="M392 0q-55 0 -55 54v28h-8q-13 -45 -48 -69.5t-88 -24.5q-72 0 -110 36.5t-38 110.5q0 73 45 112t136 39h111v68q0 65 -28 93t-87 28q-45 0 -75 -20.5t-49 -62.5l-36 31q20 45 60.5 73t101.5 28q83 0 125.5 -41t42.5 -123v-312h61v-48h-61zM205 36q28 0 52 8.5t42 24.5
t28 37.5t10 47.5v90h-112q-60 0 -91.5 -23.5t-31.5 -65.5v-32q0 -43 28.5 -65t74.5 -22zM143 629q-20 0 -29.5 9t-9.5 23v14q0 14 9.5 23t29.5 9t29.5 -9t9.5 -23v-14q0 -14 -9.5 -23t-29.5 -9zM311 629q-20 0 -29.5 9t-9.5 23v14q0 14 9.5 23t29.5 9t29.5 -9t9.5 -23v-14
q0 -14 -9.5 -23t-29.5 -9z" />
    <glyph glyph-name="uni1EA1" unicode="&#x1ea1;" horiz-adv-x="477" 
d="M392 0q-55 0 -55 54v28h-8q-13 -45 -48 -69.5t-88 -24.5q-72 0 -110 36.5t-38 110.5q0 73 45 112t136 39h111v68q0 65 -28 93t-87 28q-45 0 -75 -20.5t-49 -62.5l-36 31q20 45 60.5 73t101.5 28q83 0 125.5 -41t42.5 -123v-312h61v-48h-61zM205 36q28 0 52 8.5t42 24.5
t28 37.5t10 47.5v90h-112q-60 0 -91.5 -23.5t-31.5 -65.5v-32q0 -43 28.5 -65t74.5 -22zM214 -154q-20 0 -29.5 9.5t-9.5 23.5v14q0 14 9.5 23t29.5 9t29.5 -9t9.5 -23v-14q0 -14 -9.5 -23.5t-29.5 -9.5z" />
    <glyph glyph-name="agrave" unicode="&#xe0;" horiz-adv-x="477" 
d="M392 0q-55 0 -55 54v28h-8q-13 -45 -48 -69.5t-88 -24.5q-72 0 -110 36.5t-38 110.5q0 73 45 112t136 39h111v68q0 65 -28 93t-87 28q-45 0 -75 -20.5t-49 -62.5l-36 31q20 45 60.5 73t101.5 28q83 0 125.5 -41t42.5 -123v-312h61v-48h-61zM205 36q28 0 52 8.5t42 24.5
t28 37.5t10 47.5v90h-112q-60 0 -91.5 -23.5t-31.5 -65.5v-32q0 -43 28.5 -65t74.5 -22zM129 741l49 27l86 -163l-36 -19z" />
    <glyph glyph-name="uni1EA3" unicode="&#x1ea3;" horiz-adv-x="477" 
d="M392 0q-55 0 -55 54v28h-8q-13 -45 -48 -69.5t-88 -24.5q-72 0 -110 36.5t-38 110.5q0 73 45 112t136 39h111v68q0 65 -28 93t-87 28q-45 0 -75 -20.5t-49 -62.5l-36 31q20 45 60.5 73t101.5 28q83 0 125.5 -41t42.5 -123v-312h61v-48h-61zM205 36q28 0 52 8.5t42 24.5
t28 37.5t10 47.5v90h-112q-60 0 -91.5 -23.5t-31.5 -65.5v-32q0 -43 28.5 -65t74.5 -22zM152 754h113q44 0 44 -39q0 -15 -7 -32.5t-24 -43.5l-37 -59l-32 17l57 112h-114v45z" />
    <glyph glyph-name="amacron" unicode="&#x101;" horiz-adv-x="477" 
d="M392 0q-55 0 -55 54v28h-8q-13 -45 -48 -69.5t-88 -24.5q-72 0 -110 36.5t-38 110.5q0 73 45 112t136 39h111v68q0 65 -28 93t-87 28q-45 0 -75 -20.5t-49 -62.5l-36 31q20 45 60.5 73t101.5 28q83 0 125.5 -41t42.5 -123v-312h61v-48h-61zM205 36q28 0 52 8.5t42 24.5
t28 37.5t10 47.5v90h-112q-60 0 -91.5 -23.5t-31.5 -65.5v-32q0 -43 28.5 -65t74.5 -22zM104 692h246v-46h-246v46z" />
    <glyph glyph-name="aogonek" unicode="&#x105;" horiz-adv-x="477" 
d="M470 -169q-11 -16 -32 -26t-45 -10q-41 0 -63.5 17.5t-22.5 49.5q0 36 26 67t82 64l-2 7h-21q-55 0 -55 54v28h-9q-13 -45 -48 -69.5t-87 -24.5q-72 0 -110 36.5t-38 110.5q0 73 45 112t136 39h111v68q0 65 -28 93t-87 28q-45 0 -75 -20.5t-49 -62.5l-36 31
q20 45 60.5 73t101.5 28q83 0 125.5 -41t42.5 -123v-312h61v-48q-28 -21 -47 -37.5t-31 -31.5t-17 -29t-5 -29q0 -18 11 -28.5t31 -10.5q32 0 49 23zM205 36q28 0 52 8.5t42 24.5t28 37.5t10 47.5v90h-112q-60 0 -91.5 -23.5t-31.5 -65.5v-32q0 -43 28.5 -65t74.5 -22z" />
    <glyph glyph-name="aring" unicode="&#xe5;" horiz-adv-x="477" 
d="M392 0q-55 0 -55 54v28h-8q-13 -45 -48 -69.5t-88 -24.5q-72 0 -110 36.5t-38 110.5q0 73 45 112t136 39h111v68q0 65 -28 93t-87 28q-45 0 -75 -20.5t-49 -62.5l-36 31q20 45 60.5 73t101.5 28q83 0 125.5 -41t42.5 -123v-312h61v-48h-61zM205 36q28 0 52 8.5t42 24.5
t28 37.5t10 47.5v90h-112q-60 0 -91.5 -23.5t-31.5 -65.5v-32q0 -43 28.5 -65t74.5 -22zM227 582q-47 0 -74 29t-27 76t27 76t74 29t74 -29t27 -76t-27 -76t-74 -29zM227 617q27 0 43 15.5t16 42.5v24q0 27 -16 42.5t-43 15.5t-43 -15.5t-16 -42.5v-24q0 -27 16 -42.5
t43 -15.5z" />
    <glyph glyph-name="aringacute" unicode="&#x1fb;" horiz-adv-x="477" 
d="M392 0q-55 0 -55 54v28h-8q-13 -45 -48 -69.5t-88 -24.5q-72 0 -110 36.5t-38 110.5q0 73 45 112t136 39h111v68q0 65 -28 93t-87 28q-45 0 -75 -20.5t-49 -62.5l-36 31q20 45 60.5 73t101.5 28q83 0 125.5 -41t42.5 -123v-312h61v-48h-61zM205 36q28 0 52 8.5t42 24.5
t28 37.5t10 47.5v90h-112q-60 0 -91.5 -23.5t-31.5 -65.5v-32q0 -43 28.5 -65t74.5 -22zM232 808l-28 20l74 110l41 -27zM227 576q-47 0 -74 29t-27 76t27 76t74 29t74 -29t27 -76t-27 -76t-74 -29zM227 611q27 0 43 15.5t16 42.5v24q0 27 -16 42.5t-43 15.5t-43 -15.5
t-16 -42.5v-24q0 -27 16 -42.5t43 -15.5z" />
    <glyph glyph-name="atilde" unicode="&#xe3;" horiz-adv-x="477" 
d="M392 0q-55 0 -55 54v28h-8q-13 -45 -48 -69.5t-88 -24.5q-72 0 -110 36.5t-38 110.5q0 73 45 112t136 39h111v68q0 65 -28 93t-87 28q-45 0 -75 -20.5t-49 -62.5l-36 31q20 45 60.5 73t101.5 28q83 0 125.5 -41t42.5 -123v-312h61v-48h-61zM205 36q28 0 52 8.5t42 24.5
t28 37.5t10 47.5v90h-112q-60 0 -91.5 -23.5t-31.5 -65.5v-32q0 -43 28.5 -65t74.5 -22zM293 619q-17 0 -32.5 6t-39.5 22q-22 14 -36 19.5t-25 5.5q-16 0 -28.5 -8t-26.5 -22l-23 28q32 47 79 47q17 0 32.5 -6t39.5 -22q22 -14 36 -19.5t25 -5.5q16 0 28.5 8t26.5 22
l23 -28q-32 -47 -79 -47z" />
    <glyph glyph-name="uni1EAF" unicode="&#x1eaf;" horiz-adv-x="477" 
d="M392 0q-55 0 -55 54v28h-8q-13 -45 -48 -69.5t-88 -24.5q-72 0 -110 36.5t-38 110.5q0 73 45 112t136 39h111v68q0 65 -28 93t-87 28q-45 0 -75 -20.5t-49 -62.5l-36 31q20 45 60.5 73t101.5 28q83 0 125.5 -41t42.5 -123v-312h61v-48h-61zM205 36q28 0 52 8.5t42 24.5
t28 37.5t10 47.5v90h-112q-60 0 -91.5 -23.5t-31.5 -65.5v-32q0 -43 28.5 -65t74.5 -22zM226 589q-31 0 -52.5 10t-36.5 27t-25.5 38t-18.5 44l32 15l16 -30q17 -31 35 -47t50 -16t50 16t35 47l16 30l32 -15q-8 -23 -18.5 -44.5t-25.5 -38t-36.5 -26.5t-52.5 -10zM225 698
l-34 18l89 163l46 -25z" />
    <glyph glyph-name="uni1EB7" unicode="&#x1eb7;" horiz-adv-x="477" 
d="M392 0q-55 0 -55 54v28h-8q-13 -45 -48 -69.5t-88 -24.5q-72 0 -110 36.5t-38 110.5q0 73 45 112t136 39h111v68q0 65 -28 93t-87 28q-45 0 -75 -20.5t-49 -62.5l-36 31q20 45 60.5 73t101.5 28q83 0 125.5 -41t42.5 -123v-312h61v-48h-61zM205 36q28 0 52 8.5t42 24.5
t28 37.5t10 47.5v90h-112q-60 0 -91.5 -23.5t-31.5 -65.5v-32q0 -43 28.5 -65t74.5 -22zM227 600q-48 0 -78 27.5t-55 94.5l33 16l16 -31q18 -36 36 -49t48 -13t48 13t36 49l16 31l33 -16q-25 -67 -55 -94.5t-78 -27.5zM214 -154q-20 0 -29.5 9.5t-9.5 23.5v14q0 14 9.5 23
t29.5 9t29.5 -9t9.5 -23v-14q0 -14 -9.5 -23.5t-29.5 -9.5z" />
    <glyph glyph-name="uni1EB1" unicode="&#x1eb1;" horiz-adv-x="477" 
d="M392 0q-55 0 -55 54v28h-8q-13 -45 -48 -69.5t-88 -24.5q-72 0 -110 36.5t-38 110.5q0 73 45 112t136 39h111v68q0 65 -28 93t-87 28q-45 0 -75 -20.5t-49 -62.5l-36 31q20 45 60.5 73t101.5 28q83 0 125.5 -41t42.5 -123v-312h61v-48h-61zM205 36q28 0 52 8.5t42 24.5
t28 37.5t10 47.5v90h-112q-60 0 -91.5 -23.5t-31.5 -65.5v-32q0 -43 28.5 -65t74.5 -22zM226 589q-31 0 -52.5 10t-36.5 26.5t-25.5 38t-18.5 44.5l32 15l16 -30q17 -31 35 -47t50 -16t50 16t35 47l16 30l32 -15q-8 -23 -18.5 -44t-25.5 -38t-36.5 -27t-52.5 -10zM125 855
l47 24l89 -163l-34 -18z" />
    <glyph glyph-name="uni1EB3" unicode="&#x1eb3;" horiz-adv-x="477" 
d="M392 0q-55 0 -55 54v28h-8q-13 -45 -48 -69.5t-88 -24.5q-72 0 -110 36.5t-38 110.5q0 73 45 112t136 39h111v68q0 65 -28 93t-87 28q-45 0 -75 -20.5t-49 -62.5l-36 31q20 45 60.5 73t101.5 28q83 0 125.5 -41t42.5 -123v-312h61v-48h-61zM205 36q28 0 52 8.5t42 24.5
t28 37.5t10 47.5v90h-112q-60 0 -91.5 -23.5t-31.5 -65.5v-32q0 -43 28.5 -65t74.5 -22zM226 589q-31 0 -52.5 10t-36.5 26.5t-25.5 38t-18.5 44.5l32 15l16 -30q17 -31 35 -47t50 -16t50 16t35 47l16 30l32 -15q-8 -23 -18.5 -44t-25.5 -38t-36.5 -27t-52.5 -10zM149 867
h106q45 0 45 -39q0 -15 -7 -32.5t-24 -43.5l-38 -59l-31 17l58 114h-109v43z" />
    <glyph glyph-name="uni1EB5" unicode="&#x1eb5;" horiz-adv-x="477" 
d="M392 0q-55 0 -55 54v28h-8q-13 -45 -48 -69.5t-88 -24.5q-72 0 -110 36.5t-38 110.5q0 73 45 112t136 39h111v68q0 65 -28 93t-87 28q-45 0 -75 -20.5t-49 -62.5l-36 31q20 45 60.5 73t101.5 28q83 0 125.5 -41t42.5 -123v-312h61v-48h-61zM205 36q28 0 52 8.5t42 24.5
t28 37.5t10 47.5v90h-112q-60 0 -91.5 -23.5t-31.5 -65.5v-32q0 -43 28.5 -65t74.5 -22zM226 589q-31 0 -52.5 10t-36.5 26.5t-25.5 38t-18.5 44.5l32 15l16 -30q17 -31 35 -47t50 -16t50 16t35 47l16 30l32 -15q-8 -23 -18.5 -44t-25.5 -38t-36.5 -27t-52.5 -10zM291 767
q-20 0 -37 8.5t-34 19.5q-21 13 -35 19t-25 6q-16 0 -28.5 -8t-26.5 -22l-23 28q14 20 33 33.5t46 13.5q20 0 37 -8t34 -19q40 -26 60 -26q16 0 28.5 8t26.5 22l23 -28q-14 -20 -33 -33.5t-46 -13.5z" />
    <glyph glyph-name="uni1EA5" unicode="&#x1ea5;" horiz-adv-x="477" 
d="M392 0q-55 0 -55 54v28h-8q-13 -45 -48 -69.5t-88 -24.5q-72 0 -110 36.5t-38 110.5q0 73 45 112t136 39h111v68q0 65 -28 93t-87 28q-45 0 -75 -20.5t-49 -62.5l-36 31q20 45 60.5 73t101.5 28q83 0 125.5 -41t42.5 -123v-312h61v-48h-61zM205 36q28 0 52 8.5t42 24.5
t28 37.5t10 47.5v90h-112q-60 0 -91.5 -23.5t-31.5 -65.5v-32q0 -43 28.5 -65t74.5 -22zM354 698l-35 19l85 163l50 -27zM259 741l107 -134l-30 -22l-110 115l-110 -115l-30 22l107 134h66z" />
    <glyph glyph-name="uni1EAD" unicode="&#x1ead;" horiz-adv-x="477" 
d="M392 0q-55 0 -55 54v28h-8q-13 -45 -48 -69.5t-88 -24.5q-72 0 -110 36.5t-38 110.5q0 73 45 112t136 39h111v68q0 65 -28 93t-87 28q-45 0 -75 -20.5t-49 -62.5l-36 31q20 45 60.5 73t101.5 28q83 0 125.5 -41t42.5 -123v-312h61v-48h-61zM205 36q28 0 52 8.5t42 24.5
t28 37.5t10 47.5v90h-112q-60 0 -91.5 -23.5t-31.5 -65.5v-32q0 -43 28.5 -65t74.5 -22zM260 756l106 -139l-30 -23l-109 122l-109 -122l-30 23l106 139h66zM214 -154q-20 0 -29.5 9.5t-9.5 23.5v14q0 14 9.5 23t29.5 9t29.5 -9t9.5 -23v-14q0 -14 -9.5 -23.5t-29.5 -9.5z
" />
    <glyph glyph-name="uni1EA7" unicode="&#x1ea7;" horiz-adv-x="477" 
d="M392 0q-55 0 -55 54v28h-8q-13 -45 -48 -69.5t-88 -24.5q-72 0 -110 36.5t-38 110.5q0 73 45 112t136 39h111v68q0 65 -28 93t-87 28q-45 0 -75 -20.5t-49 -62.5l-36 31q20 45 60.5 73t101.5 28q83 0 125.5 -41t42.5 -123v-312h61v-48h-61zM205 36q28 0 52 8.5t42 24.5
t28 37.5t10 47.5v90h-112q-60 0 -91.5 -23.5t-31.5 -65.5v-32q0 -43 28.5 -65t74.5 -22zM-2 853l50 27l85 -163l-35 -19zM259 741l107 -134l-30 -22l-110 115l-110 -115l-30 22l107 134h66z" />
    <glyph glyph-name="uni1EA9" unicode="&#x1ea9;" horiz-adv-x="477" 
d="M392 0q-55 0 -55 54v28h-8q-13 -45 -48 -69.5t-88 -24.5q-72 0 -110 36.5t-38 110.5q0 73 45 112t136 39h111v68q0 65 -28 93t-87 28q-45 0 -75 -20.5t-49 -62.5l-36 31q20 45 60.5 73t101.5 28q83 0 125.5 -41t42.5 -123v-312h61v-48h-61zM205 36q28 0 52 8.5t42 24.5
t28 37.5t10 47.5v90h-112q-60 0 -91.5 -23.5t-31.5 -65.5v-32q0 -43 28.5 -65t74.5 -22zM275 867h105q24 0 34.5 -9.5t10.5 -29.5q0 -15 -7 -32.5t-24 -43.5l-37 -59l-31 17l58 114h-109v43zM259 741l107 -134l-30 -22l-110 115l-110 -115l-30 22l107 134h66z" />
    <glyph glyph-name="uni1EAB" unicode="&#x1eab;" horiz-adv-x="477" 
d="M392 0q-55 0 -55 54v28h-8q-13 -45 -48 -69.5t-88 -24.5q-72 0 -110 36.5t-38 110.5q0 73 45 112t136 39h111v68q0 65 -28 93t-87 28q-45 0 -75 -20.5t-49 -62.5l-36 31q20 45 60.5 73t101.5 28q83 0 125.5 -41t42.5 -123v-312h61v-48h-61zM205 36q28 0 52 8.5t42 24.5
t28 37.5t10 47.5v90h-112q-60 0 -91.5 -23.5t-31.5 -65.5v-32q0 -43 28.5 -65t74.5 -22zM161 869q17 0 32.5 -6t39.5 -22q22 -14 36 -19.5t25 -5.5q16 0 28.5 8t26.5 22l23 -28q-32 -47 -79 -47q-17 0 -32.5 6t-39.5 22q-22 14 -36 19.5t-25 5.5q-16 0 -28.5 -8t-26.5 -22
l-23 28q32 47 79 47zM259 741l107 -134l-30 -22l-110 115l-110 -115l-30 22l107 134h66z" />
    <glyph glyph-name="aacute.alt01" horiz-adv-x="518" 
d="M380 81h-9q-14 -47 -49 -70t-86 -23q-93 0 -141 68.5t-48 199.5t48 199.5t141 68.5q51 0 86 -23t49 -70h9v81h55v-512h-55v81zM250 37q27 0 50.5 8t41.5 23t28 36t10 47v210q0 26 -10 47t-28 36t-41.5 23t-50.5 8q-70 0 -107 -46t-37 -128v-90q0 -82 37 -128t107 -46z
M248 586l-35 19l85 163l50 -27z" />
    <glyph glyph-name="abreve.alt01" horiz-adv-x="518" 
d="M380 81h-9q-14 -47 -49 -70t-86 -23q-93 0 -141 68.5t-48 199.5t48 199.5t141 68.5q51 0 86 -23t49 -70h9v81h55v-512h-55v81zM250 37q27 0 50.5 8t41.5 23t28 36t10 47v210q0 26 -10 47t-28 36t-41.5 23t-50.5 8q-70 0 -107 -46t-37 -128v-90q0 -82 37 -128t107 -46z
M250 600q-48 0 -78 27.5t-55 94.5l33 16l16 -31q18 -36 36 -49t48 -13t48 13t36 49l16 31l33 -16q-25 -67 -55 -94.5t-78 -27.5z" />
    <glyph glyph-name="acircumflex.alt01" horiz-adv-x="518" 
d="M380 81h-9q-14 -47 -49 -70t-86 -23q-93 0 -141 68.5t-48 199.5t48 199.5t141 68.5q51 0 86 -23t49 -70h9v81h55v-512h-55v81zM250 37q27 0 50.5 8t41.5 23t28 36t10 47v210q0 26 -10 47t-28 36t-41.5 23t-50.5 8q-70 0 -107 -46t-37 -128v-90q0 -82 37 -128t107 -46z
M283 756l106 -139l-30 -23l-109 122l-109 -122l-30 23l106 139h66z" />
    <glyph glyph-name="adieresis.alt01" horiz-adv-x="518" 
d="M380 81h-9q-14 -47 -49 -70t-86 -23q-93 0 -141 68.5t-48 199.5t48 199.5t141 68.5q51 0 86 -23t49 -70h9v81h55v-512h-55v81zM250 37q27 0 50.5 8t41.5 23t28 36t10 47v210q0 26 -10 47t-28 36t-41.5 23t-50.5 8q-70 0 -107 -46t-37 -128v-90q0 -82 37 -128t107 -46z
M166 629q-20 0 -29.5 9t-9.5 23v14q0 14 9.5 23t29.5 9t29.5 -9t9.5 -23v-14q0 -14 -9.5 -23t-29.5 -9zM334 629q-20 0 -29.5 9t-9.5 23v14q0 14 9.5 23t29.5 9t29.5 -9t9.5 -23v-14q0 -14 -9.5 -23t-29.5 -9z" />
    <glyph glyph-name="uni1EA1.alt01" horiz-adv-x="518" 
d="M380 81h-9q-14 -47 -49 -70t-86 -23q-93 0 -141 68.5t-48 199.5t48 199.5t141 68.5q51 0 86 -23t49 -70h9v81h55v-512h-55v81zM250 37q27 0 50.5 8t41.5 23t28 36t10 47v210q0 26 -10 47t-28 36t-41.5 23t-50.5 8q-70 0 -107 -46t-37 -128v-90q0 -82 37 -128t107 -46z
M236 -154q-20 0 -29.5 9.5t-9.5 23.5v14q0 14 9.5 23t29.5 9t29.5 -9t9.5 -23v-14q0 -14 -9.5 -23.5t-29.5 -9.5z" />
    <glyph glyph-name="agrave.alt01" horiz-adv-x="518" 
d="M380 81h-9q-14 -47 -49 -70t-86 -23q-93 0 -141 68.5t-48 199.5t48 199.5t141 68.5q51 0 86 -23t49 -70h9v81h55v-512h-55v81zM250 37q27 0 50.5 8t41.5 23t28 36t10 47v210q0 26 -10 47t-28 36t-41.5 23t-50.5 8q-70 0 -107 -46t-37 -128v-90q0 -82 37 -128t107 -46z
M152 741l49 27l86 -163l-36 -19z" />
    <glyph glyph-name="uni1EA3.alt01" horiz-adv-x="518" 
d="M380 81h-9q-14 -47 -49 -70t-86 -23q-93 0 -141 68.5t-48 199.5t48 199.5t141 68.5q51 0 86 -23t49 -70h9v81h55v-512h-55v81zM250 37q27 0 50.5 8t41.5 23t28 36t10 47v210q0 26 -10 47t-28 36t-41.5 23t-50.5 8q-70 0 -107 -46t-37 -128v-90q0 -82 37 -128t107 -46z
M175 754h113q44 0 44 -39q0 -15 -7 -32.5t-24 -43.5l-37 -59l-32 17l57 112h-114v45z" />
    <glyph glyph-name="amacron.alt01" horiz-adv-x="518" 
d="M380 81h-9q-14 -47 -49 -70t-86 -23q-93 0 -141 68.5t-48 199.5t48 199.5t141 68.5q51 0 86 -23t49 -70h9v81h55v-512h-55v81zM250 37q27 0 50.5 8t41.5 23t28 36t10 47v210q0 26 -10 47t-28 36t-41.5 23t-50.5 8q-70 0 -107 -46t-37 -128v-90q0 -82 37 -128t107 -46z
M127 692h246v-46h-246v46z" />
    <glyph glyph-name="aogonek.alt01" horiz-adv-x="518" 
d="M452 -169q-11 -16 -32 -26t-45 -10q-41 0 -63.5 17.5t-22.5 48.5q0 37 26 68t82 64l-1 7h-16v81h-9q-14 -47 -49 -70t-86 -23q-93 0 -141 68.5t-48 199.5t48 199.5t141 68.5q51 0 86 -23t49 -70h9v81h55v-512q-56 -42 -78 -70.5t-22 -57.5q0 -38 42 -38q32 0 49 23z
M250 37q27 0 50.5 8t41.5 23t28 36t10 47v210q0 26 -10 47t-28 36t-41.5 23t-50.5 8q-70 0 -107 -46t-37 -128v-90q0 -82 37 -128t107 -46z" />
    <glyph glyph-name="aring.alt01" horiz-adv-x="518" 
d="M380 81h-9q-14 -47 -49 -70t-86 -23q-93 0 -141 68.5t-48 199.5t48 199.5t141 68.5q51 0 86 -23t49 -70h9v81h55v-512h-55v81zM250 37q27 0 50.5 8t41.5 23t28 36t10 47v210q0 26 -10 47t-28 36t-41.5 23t-50.5 8q-70 0 -107 -46t-37 -128v-90q0 -82 37 -128t107 -46z
M250 582q-47 0 -74 29t-27 76t27 76t74 29t74 -29t27 -76t-27 -76t-74 -29zM250 617q27 0 43 15.5t16 42.5v24q0 27 -16 42.5t-43 15.5t-43 -15.5t-16 -42.5v-24q0 -27 16 -42.5t43 -15.5z" />
    <glyph glyph-name="aringacute.alt01" horiz-adv-x="518" 
d="M380 81h-9q-14 -47 -49 -70t-86 -23q-93 0 -141 68.5t-48 199.5t48 199.5t141 68.5q51 0 86 -23t49 -70h9v81h55v-512h-55v81zM250 37q27 0 50.5 8t41.5 23t28 36t10 47v210q0 26 -10 47t-28 36t-41.5 23t-50.5 8q-70 0 -107 -46t-37 -128v-90q0 -82 37 -128t107 -46z
M255 808l-28 20l74 110l41 -27zM250 576q-47 0 -74 29t-27 76t27 76t74 29t74 -29t27 -76t-27 -76t-74 -29zM250 611q27 0 43 15.5t16 42.5v24q0 27 -16 42.5t-43 15.5t-43 -15.5t-16 -42.5v-24q0 -27 16 -42.5t43 -15.5z" />
    <glyph glyph-name="atilde.alt01" horiz-adv-x="518" 
d="M380 81h-9q-14 -47 -49 -70t-86 -23q-93 0 -141 68.5t-48 199.5t48 199.5t141 68.5q51 0 86 -23t49 -70h9v81h55v-512h-55v81zM250 37q27 0 50.5 8t41.5 23t28 36t10 47v210q0 26 -10 47t-28 36t-41.5 23t-50.5 8q-70 0 -107 -46t-37 -128v-90q0 -82 37 -128t107 -46z
M316 619q-17 0 -32.5 6t-39.5 22q-22 14 -36 19.5t-25 5.5q-16 0 -28.5 -8t-26.5 -22l-23 28q32 47 79 47q17 0 32.5 -6t39.5 -22q22 -14 36 -19.5t25 -5.5q16 0 28.5 8t26.5 22l23 -28q-32 -47 -79 -47z" />
    <glyph glyph-name="uni1EAF.alt01" horiz-adv-x="518" 
d="M380 81h-9q-14 -47 -49 -70t-86 -23q-93 0 -141 68.5t-48 199.5t48 199.5t141 68.5q51 0 86 -23t49 -70h9v81h55v-512h-55v81zM250 37q27 0 50.5 8t41.5 23t28 36t10 47v210q0 26 -10 47t-28 36t-41.5 23t-50.5 8q-70 0 -107 -46t-37 -128v-90q0 -82 37 -128t107 -46z
M249 589q-31 0 -52.5 10t-36.5 27t-25.5 38t-18.5 44l32 15l16 -30q17 -31 35 -47t50 -16t50 16t35 47l16 30l32 -15q-8 -23 -18.5 -44.5t-25.5 -38t-36.5 -26.5t-52.5 -10zM248 698l-34 18l89 163l46 -25z" />
    <glyph glyph-name="uni1EB7.alt01" horiz-adv-x="518" 
d="M380 81h-9q-14 -47 -49 -70t-86 -23q-93 0 -141 68.5t-48 199.5t48 199.5t141 68.5q51 0 86 -23t49 -70h9v81h55v-512h-55v81zM250 37q27 0 50.5 8t41.5 23t28 36t10 47v210q0 26 -10 47t-28 36t-41.5 23t-50.5 8q-70 0 -107 -46t-37 -128v-90q0 -82 37 -128t107 -46z
M250 600q-48 0 -78 27.5t-55 94.5l33 16l16 -31q18 -36 36 -49t48 -13t48 13t36 49l16 31l33 -16q-25 -67 -55 -94.5t-78 -27.5zM236 -154q-20 0 -29.5 9.5t-9.5 23.5v14q0 14 9.5 23t29.5 9t29.5 -9t9.5 -23v-14q0 -14 -9.5 -23.5t-29.5 -9.5z" />
    <glyph glyph-name="uni1EB1.alt01" horiz-adv-x="518" 
d="M380 81h-9q-14 -47 -49 -70t-86 -23q-93 0 -141 68.5t-48 199.5t48 199.5t141 68.5q51 0 86 -23t49 -70h9v81h55v-512h-55v81zM250 37q27 0 50.5 8t41.5 23t28 36t10 47v210q0 26 -10 47t-28 36t-41.5 23t-50.5 8q-70 0 -107 -46t-37 -128v-90q0 -82 37 -128t107 -46z
M249 589q-31 0 -52.5 10t-36.5 26.5t-25.5 38t-18.5 44.5l32 15l16 -30q17 -31 35 -47t50 -16t50 16t35 47l16 30l32 -15q-8 -23 -18.5 -44t-25.5 -38t-36.5 -27t-52.5 -10zM148 855l47 24l89 -163l-34 -18z" />
    <glyph glyph-name="uni1EB3.alt01" horiz-adv-x="518" 
d="M380 81h-9q-14 -47 -49 -70t-86 -23q-93 0 -141 68.5t-48 199.5t48 199.5t141 68.5q51 0 86 -23t49 -70h9v81h55v-512h-55v81zM250 37q27 0 50.5 8t41.5 23t28 36t10 47v210q0 26 -10 47t-28 36t-41.5 23t-50.5 8q-70 0 -107 -46t-37 -128v-90q0 -82 37 -128t107 -46z
M249 589q-31 0 -52.5 10t-36.5 26.5t-25.5 38t-18.5 44.5l32 15l16 -30q17 -31 35 -47t50 -16t50 16t35 47l16 30l32 -15q-8 -23 -18.5 -44t-25.5 -38t-36.5 -27t-52.5 -10zM172 867h106q45 0 45 -39q0 -15 -7 -32.5t-24 -43.5l-38 -59l-31 17l58 114h-109v43z" />
    <glyph glyph-name="uni1EB5.alt01" horiz-adv-x="518" 
d="M380 81h-9q-14 -47 -49 -70t-86 -23q-93 0 -141 68.5t-48 199.5t48 199.5t141 68.5q51 0 86 -23t49 -70h9v81h55v-512h-55v81zM250 37q27 0 50.5 8t41.5 23t28 36t10 47v210q0 26 -10 47t-28 36t-41.5 23t-50.5 8q-70 0 -107 -46t-37 -128v-90q0 -82 37 -128t107 -46z
M249 589q-31 0 -52.5 10t-36.5 26.5t-25.5 38t-18.5 44.5l32 15l16 -30q17 -31 35 -47t50 -16t50 16t35 47l16 30l32 -15q-8 -23 -18.5 -44t-25.5 -38t-36.5 -27t-52.5 -10zM314 767q-20 0 -37 8.5t-34 19.5q-21 13 -35 19t-25 6q-16 0 -28.5 -8t-26.5 -22l-23 28
q14 20 33 33.5t46 13.5q20 0 37 -8t34 -19q40 -26 60 -26q16 0 28.5 8t26.5 22l23 -28q-14 -20 -33 -33.5t-46 -13.5z" />
    <glyph glyph-name="uni1EA5.alt01" horiz-adv-x="518" 
d="M380 81h-9q-14 -47 -49 -70t-86 -23q-93 0 -141 68.5t-48 199.5t48 199.5t141 68.5q51 0 86 -23t49 -70h9v81h55v-512h-55v81zM250 37q27 0 50.5 8t41.5 23t28 36t10 47v210q0 26 -10 47t-28 36t-41.5 23t-50.5 8q-70 0 -107 -46t-37 -128v-90q0 -82 37 -128t107 -46z
M377 698l-35 19l85 163l50 -27zM282 741l107 -134l-30 -22l-110 115l-110 -115l-30 22l107 134h66z" />
    <glyph glyph-name="uni1EAD.alt01" horiz-adv-x="518" 
d="M380 81h-9q-14 -47 -49 -70t-86 -23q-93 0 -141 68.5t-48 199.5t48 199.5t141 68.5q51 0 86 -23t49 -70h9v81h55v-512h-55v81zM250 37q27 0 50.5 8t41.5 23t28 36t10 47v210q0 26 -10 47t-28 36t-41.5 23t-50.5 8q-70 0 -107 -46t-37 -128v-90q0 -82 37 -128t107 -46z
M283 756l106 -139l-30 -23l-109 122l-109 -122l-30 23l106 139h66zM236 -154q-20 0 -29.5 9.5t-9.5 23.5v14q0 14 9.5 23t29.5 9t29.5 -9t9.5 -23v-14q0 -14 -9.5 -23.5t-29.5 -9.5z" />
    <glyph glyph-name="uni1EA7.alt01" horiz-adv-x="518" 
d="M380 81h-9q-14 -47 -49 -70t-86 -23q-93 0 -141 68.5t-48 199.5t48 199.5t141 68.5q51 0 86 -23t49 -70h9v81h55v-512h-55v81zM250 37q27 0 50.5 8t41.5 23t28 36t10 47v210q0 26 -10 47t-28 36t-41.5 23t-50.5 8q-70 0 -107 -46t-37 -128v-90q0 -82 37 -128t107 -46z
M21 853l50 27l85 -163l-35 -19zM282 741l107 -134l-30 -22l-110 115l-110 -115l-30 22l107 134h66z" />
    <glyph glyph-name="uni1EA9.alt01" horiz-adv-x="518" 
d="M380 81h-9q-14 -47 -49 -70t-86 -23q-93 0 -141 68.5t-48 199.5t48 199.5t141 68.5q51 0 86 -23t49 -70h9v81h55v-512h-55v81zM250 37q27 0 50.5 8t41.5 23t28 36t10 47v210q0 26 -10 47t-28 36t-41.5 23t-50.5 8q-70 0 -107 -46t-37 -128v-90q0 -82 37 -128t107 -46z
M298 867h105q24 0 34.5 -9.5t10.5 -29.5q0 -15 -7 -32.5t-24 -43.5l-37 -59l-31 17l58 114h-109v43zM282 741l107 -134l-30 -22l-110 115l-110 -115l-30 22l107 134h66z" />
    <glyph glyph-name="uni1EAB.alt01" horiz-adv-x="518" 
d="M380 81h-9q-14 -47 -49 -70t-86 -23q-93 0 -141 68.5t-48 199.5t48 199.5t141 68.5q51 0 86 -23t49 -70h9v81h55v-512h-55v81zM250 37q27 0 50.5 8t41.5 23t28 36t10 47v210q0 26 -10 47t-28 36t-41.5 23t-50.5 8q-70 0 -107 -46t-37 -128v-90q0 -82 37 -128t107 -46z
M184 869q17 0 32.5 -6t39.5 -22q22 -14 36 -19.5t25 -5.5q16 0 28.5 8t26.5 22l23 -28q-32 -47 -79 -47q-17 0 -32.5 6t-39.5 22q-22 14 -36 19.5t-25 5.5q-16 0 -28.5 -8t-26.5 -22l-23 28q32 47 79 47zM282 741l107 -134l-30 -22l-110 115l-110 -115l-30 22l107 134h66z
" />
    <glyph glyph-name="ae" unicode="&#xe6;" horiz-adv-x="782" 
d="M225 245q-60 0 -91.5 -23.5t-31.5 -66.5v-32q0 -43 28.5 -65t74.5 -22q30 0 55 11t43.5 30.5t29 46t10.5 58.5v63h-118zM678 287v14q0 85 -34 130.5t-101 45.5q-69 0 -107 -45.5t-38 -130.5v-14h280zM542 37q57 0 91.5 25.5t54.5 76.5l38 -26q-22 -59 -66.5 -92
t-116.5 -33q-64 0 -109 34.5t-59 97.5h-9q-14 -63 -60.5 -97.5t-112.5 -34.5q-72 0 -110 36.5t-38 110.5t45 113t136 39h117v37q0 72 -31.5 111.5t-91.5 39.5q-85 0 -122 -83l-36 31q20 45 60 73t99 28q61 0 99.5 -34.5t48.5 -97.5h8q14 63 60 97.5t106 34.5q91 0 142 -63
t51 -200v-16h-338v-34q0 -85 37.5 -129.5t106.5 -44.5z" />
    <glyph glyph-name="aeacute" unicode="&#x1fd;" horiz-adv-x="782" 
d="M225 245q-60 0 -91.5 -23.5t-31.5 -66.5v-32q0 -43 28.5 -65t74.5 -22q30 0 55 11t43.5 30.5t29 46t10.5 58.5v63h-118zM678 287v14q0 85 -34 130.5t-101 45.5q-69 0 -107 -45.5t-38 -130.5v-14h280zM542 37q57 0 91.5 25.5t54.5 76.5l38 -26q-22 -59 -66.5 -92
t-116.5 -33q-64 0 -109 34.5t-59 97.5h-9q-14 -63 -60.5 -97.5t-112.5 -34.5q-72 0 -110 36.5t-38 110.5t45 113t136 39h117v37q0 72 -31.5 111.5t-91.5 39.5q-85 0 -122 -83l-36 31q20 45 60 73t99 28q61 0 99.5 -34.5t48.5 -97.5h8q14 63 60 97.5t106 34.5q91 0 142 -63
t51 -200v-16h-338v-34q0 -85 37.5 -129.5t106.5 -44.5zM382 586l-35 19l85 163l50 -27z" />
    <glyph glyph-name="cacute" unicode="&#x107;" horiz-adv-x="448" 
d="M245 -12q-94 0 -146.5 63t-52.5 205t52.5 205t146.5 63q66 0 107.5 -30t61.5 -80l-46 -23q-16 42 -45 63t-78 21q-70 0 -105 -44.5t-35 -129.5v-90q0 -85 35 -129.5t105 -44.5q51 0 83 22t51 66l41 -28q-23 -50 -66 -79.5t-109 -29.5zM245 586l-35 19l85 163l50 -27z" />
    <glyph glyph-name="ccaron" unicode="&#x10d;" horiz-adv-x="448" 
d="M245 -12q-94 0 -146.5 63t-52.5 205t52.5 205t146.5 63q66 0 107.5 -30t61.5 -80l-46 -23q-16 42 -45 63t-78 21q-70 0 -105 -44.5t-35 -129.5v-90q0 -85 35 -129.5t105 -44.5q51 0 83 22t51 66l41 -28q-23 -50 -66 -79.5t-109 -29.5zM214 601l-106 139l30 23l109 -122
l109 122l30 -23l-106 -139h-66z" />
    <glyph glyph-name="ccedilla" unicode="&#xe7;" horiz-adv-x="448" 
d="M245 524q66 0 107.5 -30t61.5 -80l-46 -23q-16 42 -45 63t-78 21q-70 0 -105 -44.5t-35 -129.5v-90q0 -85 35 -129.5t105 -44.5q51 0 83 22t51 66l41 -28q-22 -47 -60.5 -75.5t-97.5 -32.5l-12 -62h6q5 5 12.5 8.5t19.5 3.5q28 0 44 -17t16 -50q0 -38 -26.5 -57.5
t-65.5 -19.5q-33 0 -53.5 12t-30.5 25l26 29q10 -11 24 -18.5t34 -7.5q48 0 48 39t-48 39h-44l15 76q-86 5 -133.5 68.5t-47.5 198.5q0 142 52.5 205t146.5 63z" />
    <glyph glyph-name="ccircumflex" unicode="&#x109;" horiz-adv-x="448" 
d="M245 -12q-94 0 -146.5 63t-52.5 205t52.5 205t146.5 63q66 0 107.5 -30t61.5 -80l-46 -23q-16 42 -45 63t-78 21q-70 0 -105 -44.5t-35 -129.5v-90q0 -85 35 -129.5t105 -44.5q51 0 83 22t51 66l41 -28q-23 -50 -66 -79.5t-109 -29.5zM280 756l106 -139l-30 -23l-109 122
l-109 -122l-30 23l106 139h66z" />
    <glyph glyph-name="cdotaccent" unicode="&#x10b;" horiz-adv-x="448" 
d="M245 -12q-94 0 -146.5 63t-52.5 205t52.5 205t146.5 63q66 0 107.5 -30t61.5 -80l-46 -23q-16 42 -45 63t-78 21q-70 0 -105 -44.5t-35 -129.5v-90q0 -85 35 -129.5t105 -44.5q51 0 83 22t51 66l41 -28q-23 -50 -66 -79.5t-109 -29.5zM247 627q-20 0 -29.5 9t-9.5 24v14
q0 14 9.5 23t29.5 9t29.5 -9t9.5 -23v-14q0 -15 -9.5 -24t-29.5 -9z" />
    <glyph glyph-name="dcaron" unicode="&#x10f;" horiz-adv-x="518" 
d="M381 81h-9q-14 -47 -49 -70t-86 -23q-93 0 -141 68.5t-48 199.5t48 199.5t141 68.5q51 0 86 -23t49 -70h9v309h55v-740h-55v81zM251 37q27 0 50.5 8t41.5 23t28 36t10 47v210q0 26 -10 47t-28 36t-41.5 23t-50.5 8q-70 0 -107 -46t-37 -128v-90q0 -82 37 -128t107 -46z
M536 559h-37l13 181h62z" />
    <glyph glyph-name="dcroat" unicode="&#x111;" horiz-adv-x="519" 
d="M381 81h-9q-14 -47 -49 -70t-86 -23q-93 0 -141 68.5t-48 199.5t48 199.5t141 68.5q51 0 86 -23t49 -70h9v188h-141v43h141v78h55v-78h61v-43h-61v-619h-55v81zM251 37q27 0 50.5 8t41.5 23t28 36t10 47v210q0 26 -10 47t-28 36t-41.5 23t-50.5 8q-70 0 -107 -46
t-37 -128v-90q0 -82 37 -128t107 -46z" />
    <glyph glyph-name="eth" unicode="&#xf0;" horiz-adv-x="497" 
d="M372 723l-80 -62q77 -81 117.5 -184t40.5 -218q0 -141 -53.5 -206t-149.5 -65q-99 0 -150 65t-51 192q0 128 50.5 193.5t144.5 65.5q48 0 78 -23t48 -62h8q-15 59 -47 112t-77 100l-85 -65l-22 29l80 62q-51 48 -112 83h84q31 -20 69 -53l85 65zM248 37q69 0 106 41
t37 129v78q0 88 -37 129t-106 41t-106 -41t-37 -129v-78q0 -88 37 -129t106 -41z" />
    <glyph glyph-name="eacute" unicode="&#xe9;" horiz-adv-x="489" 
d="M249 -12q-45 0 -82.5 15.5t-64.5 48t-41.5 83t-14.5 121.5t14.5 121.5t41.5 83t64.5 48t82.5 15.5q91 0 142.5 -63t51.5 -200v-15h-338v-35q0 -85 37.5 -129.5t106.5 -44.5q57 0 91.5 25.5t54.5 76.5l38 -26q-22 -59 -66.5 -92t-117.5 -33zM249 477q-69 0 -106.5 -45.5
t-37.5 -130.5v-13h279v13q0 85 -33.5 130.5t-101.5 45.5zM247 586l-35 19l85 163l50 -27z" />
    <glyph glyph-name="ebreve" unicode="&#x115;" horiz-adv-x="489" 
d="M249 -12q-45 0 -82.5 15.5t-64.5 48t-41.5 83t-14.5 121.5t14.5 121.5t41.5 83t64.5 48t82.5 15.5q91 0 142.5 -63t51.5 -200v-15h-338v-35q0 -85 37.5 -129.5t106.5 -44.5q57 0 91.5 25.5t54.5 76.5l38 -26q-22 -59 -66.5 -92t-117.5 -33zM249 477q-69 0 -106.5 -45.5
t-37.5 -130.5v-13h279v13q0 85 -33.5 130.5t-101.5 45.5zM249 600q-48 0 -78 27.5t-55 94.5l33 16l16 -31q18 -36 36 -49t48 -13t48 13t36 49l16 31l33 -16q-25 -67 -55 -94.5t-78 -27.5z" />
    <glyph glyph-name="ecaron" unicode="&#x11b;" horiz-adv-x="489" 
d="M249 -12q-45 0 -82.5 15.5t-64.5 48t-41.5 83t-14.5 121.5t14.5 121.5t41.5 83t64.5 48t82.5 15.5q91 0 142.5 -63t51.5 -200v-15h-338v-35q0 -85 37.5 -129.5t106.5 -44.5q57 0 91.5 25.5t54.5 76.5l38 -26q-22 -59 -66.5 -92t-117.5 -33zM249 477q-69 0 -106.5 -45.5
t-37.5 -130.5v-13h279v13q0 85 -33.5 130.5t-101.5 45.5zM216 601l-106 139l30 23l109 -122l109 122l30 -23l-106 -139h-66z" />
    <glyph glyph-name="ecircumflex" unicode="&#xea;" horiz-adv-x="489" 
d="M249 -12q-45 0 -82.5 15.5t-64.5 48t-41.5 83t-14.5 121.5t14.5 121.5t41.5 83t64.5 48t82.5 15.5q91 0 142.5 -63t51.5 -200v-15h-338v-35q0 -85 37.5 -129.5t106.5 -44.5q57 0 91.5 25.5t54.5 76.5l38 -26q-22 -59 -66.5 -92t-117.5 -33zM249 477q-69 0 -106.5 -45.5
t-37.5 -130.5v-13h279v13q0 85 -33.5 130.5t-101.5 45.5zM282 756l106 -139l-30 -23l-109 122l-109 -122l-30 23l106 139h66z" />
    <glyph glyph-name="edieresis" unicode="&#xeb;" horiz-adv-x="489" 
d="M249 -12q-45 0 -82.5 15.5t-64.5 48t-41.5 83t-14.5 121.5t14.5 121.5t41.5 83t64.5 48t82.5 15.5q91 0 142.5 -63t51.5 -200v-15h-338v-35q0 -85 37.5 -129.5t106.5 -44.5q57 0 91.5 25.5t54.5 76.5l38 -26q-22 -59 -66.5 -92t-117.5 -33zM249 477q-69 0 -106.5 -45.5
t-37.5 -130.5v-13h279v13q0 85 -33.5 130.5t-101.5 45.5zM165 629q-20 0 -29.5 9t-9.5 23v14q0 14 9.5 23t29.5 9t29.5 -9t9.5 -23v-14q0 -14 -9.5 -23t-29.5 -9zM333 629q-20 0 -29.5 9t-9.5 23v14q0 14 9.5 23t29.5 9t29.5 -9t9.5 -23v-14q0 -14 -9.5 -23t-29.5 -9z" />
    <glyph glyph-name="edotaccent" unicode="&#x117;" horiz-adv-x="489" 
d="M249 -12q-45 0 -82.5 15.5t-64.5 48t-41.5 83t-14.5 121.5t14.5 121.5t41.5 83t64.5 48t82.5 15.5q91 0 142.5 -63t51.5 -200v-15h-338v-35q0 -85 37.5 -129.5t106.5 -44.5q57 0 91.5 25.5t54.5 76.5l38 -26q-22 -59 -66.5 -92t-117.5 -33zM249 477q-69 0 -106.5 -45.5
t-37.5 -130.5v-13h279v13q0 85 -33.5 130.5t-101.5 45.5zM249 627q-20 0 -29.5 9t-9.5 24v14q0 14 9.5 23t29.5 9t29.5 -9t9.5 -23v-14q0 -15 -9.5 -24t-29.5 -9z" />
    <glyph glyph-name="uni1EB9" unicode="&#x1eb9;" horiz-adv-x="489" 
d="M249 -12q-45 0 -82.5 15.5t-64.5 48t-41.5 83t-14.5 121.5t14.5 121.5t41.5 83t64.5 48t82.5 15.5q91 0 142.5 -63t51.5 -200v-15h-338v-35q0 -85 37.5 -129.5t106.5 -44.5q57 0 91.5 25.5t54.5 76.5l38 -26q-22 -59 -66.5 -92t-117.5 -33zM249 477q-69 0 -106.5 -45.5
t-37.5 -130.5v-13h279v13q0 85 -33.5 130.5t-101.5 45.5zM251 -154q-20 0 -29.5 9.5t-9.5 23.5v14q0 14 9.5 23t29.5 9t29.5 -9t9.5 -23v-14q0 -14 -9.5 -23.5t-29.5 -9.5z" />
    <glyph glyph-name="egrave" unicode="&#xe8;" horiz-adv-x="489" 
d="M249 -12q-45 0 -82.5 15.5t-64.5 48t-41.5 83t-14.5 121.5t14.5 121.5t41.5 83t64.5 48t82.5 15.5q91 0 142.5 -63t51.5 -200v-15h-338v-35q0 -85 37.5 -129.5t106.5 -44.5q57 0 91.5 25.5t54.5 76.5l38 -26q-22 -59 -66.5 -92t-117.5 -33zM249 477q-69 0 -106.5 -45.5
t-37.5 -130.5v-13h279v13q0 85 -33.5 130.5t-101.5 45.5zM151 741l49 27l86 -163l-36 -19z" />
    <glyph glyph-name="uni1EBB" unicode="&#x1ebb;" horiz-adv-x="489" 
d="M249 -12q-45 0 -82.5 15.5t-64.5 48t-41.5 83t-14.5 121.5t14.5 121.5t41.5 83t64.5 48t82.5 15.5q91 0 142.5 -63t51.5 -200v-15h-338v-35q0 -85 37.5 -129.5t106.5 -44.5q57 0 91.5 25.5t54.5 76.5l38 -26q-22 -59 -66.5 -92t-117.5 -33zM249 477q-69 0 -106.5 -45.5
t-37.5 -130.5v-13h279v13q0 85 -33.5 130.5t-101.5 45.5zM174 754h113q44 0 44 -39q0 -15 -7 -32.5t-24 -43.5l-37 -59l-32 17l57 112h-114v45z" />
    <glyph glyph-name="emacron" unicode="&#x113;" horiz-adv-x="489" 
d="M249 -12q-45 0 -82.5 15.5t-64.5 48t-41.5 83t-14.5 121.5t14.5 121.5t41.5 83t64.5 48t82.5 15.5q91 0 142.5 -63t51.5 -200v-15h-338v-35q0 -85 37.5 -129.5t106.5 -44.5q57 0 91.5 25.5t54.5 76.5l38 -26q-22 -59 -66.5 -92t-117.5 -33zM249 477q-69 0 -106.5 -45.5
t-37.5 -130.5v-13h279v13q0 85 -33.5 130.5t-101.5 45.5zM126 692h246v-46h-246v46z" />
    <glyph glyph-name="eogonek" unicode="&#x119;" horiz-adv-x="489" 
d="M293 -205q-38 0 -62 16t-24 48q0 16 4.5 31t16 30.5t32 33t52.5 39.5l-1 3q-30 -8 -62 -8q-45 0 -82.5 15.5t-64.5 48t-41.5 83t-14.5 121.5t14.5 121.5t41.5 83t64.5 48t82.5 15.5q91 0 142.5 -63t51.5 -200v-15h-338v-35q0 -85 37.5 -129.5t106.5 -44.5q57 0 91.5 25.5
t54.5 76.5l38 -26q-11 -29 -27.5 -51t-37.5 -39q-35 -28 -57.5 -49.5t-35.5 -38.5t-17.5 -32t-4.5 -29q0 -40 42 -40q17 0 29 6.5t20 16.5l26 -26q-9 -14 -29.5 -25t-47.5 -11zM384 288v13q0 85 -33.5 130.5t-101.5 45.5q-69 0 -106.5 -45.5t-37.5 -130.5v-13h279z" />
    <glyph glyph-name="uni1EBD" unicode="&#x1ebd;" horiz-adv-x="489" 
d="M249 -12q-45 0 -82.5 15.5t-64.5 48t-41.5 83t-14.5 121.5t14.5 121.5t41.5 83t64.5 48t82.5 15.5q91 0 142.5 -63t51.5 -200v-15h-338v-35q0 -85 37.5 -129.5t106.5 -44.5q57 0 91.5 25.5t54.5 76.5l38 -26q-22 -59 -66.5 -92t-117.5 -33zM249 477q-69 0 -106.5 -45.5
t-37.5 -130.5v-13h279v13q0 85 -33.5 130.5t-101.5 45.5zM315 619q-17 0 -32.5 6t-39.5 22q-22 14 -36 19.5t-25 5.5q-16 0 -28.5 -8t-26.5 -22l-23 28q32 47 79 47q17 0 32.5 -6t39.5 -22q22 -14 36 -19.5t25 -5.5q16 0 28.5 8t26.5 22l23 -28q-32 -47 -79 -47z" />
    <glyph glyph-name="uni1EBF" unicode="&#x1ebf;" horiz-adv-x="489" 
d="M249 -12q-45 0 -82.5 15.5t-64.5 48t-41.5 83t-14.5 121.5t14.5 121.5t41.5 83t64.5 48t82.5 15.5q91 0 142.5 -63t51.5 -200v-15h-338v-35q0 -85 37.5 -129.5t106.5 -44.5q57 0 91.5 25.5t54.5 76.5l38 -26q-22 -59 -66.5 -92t-117.5 -33zM249 477q-69 0 -106.5 -45.5
t-37.5 -130.5v-13h279v13q0 85 -33.5 130.5t-101.5 45.5zM376 698l-35 19l85 163l50 -27zM281 741l107 -134l-30 -22l-110 115l-110 -115l-30 22l107 134h66z" />
    <glyph glyph-name="uni1EC7" unicode="&#x1ec7;" horiz-adv-x="489" 
d="M249 -12q-45 0 -82.5 15.5t-64.5 48t-41.5 83t-14.5 121.5t14.5 121.5t41.5 83t64.5 48t82.5 15.5q91 0 142.5 -63t51.5 -200v-15h-338v-35q0 -85 37.5 -129.5t106.5 -44.5q57 0 91.5 25.5t54.5 76.5l38 -26q-22 -59 -66.5 -92t-117.5 -33zM249 477q-69 0 -106.5 -45.5
t-37.5 -130.5v-13h279v13q0 85 -33.5 130.5t-101.5 45.5zM282 756l106 -139l-30 -23l-109 122l-109 -122l-30 23l106 139h66zM251 -154q-20 0 -29.5 9.5t-9.5 23.5v14q0 14 9.5 23t29.5 9t29.5 -9t9.5 -23v-14q0 -14 -9.5 -23.5t-29.5 -9.5z" />
    <glyph glyph-name="uni1EC1" unicode="&#x1ec1;" horiz-adv-x="489" 
d="M249 -12q-45 0 -82.5 15.5t-64.5 48t-41.5 83t-14.5 121.5t14.5 121.5t41.5 83t64.5 48t82.5 15.5q91 0 142.5 -63t51.5 -200v-15h-338v-35q0 -85 37.5 -129.5t106.5 -44.5q57 0 91.5 25.5t54.5 76.5l38 -26q-22 -59 -66.5 -92t-117.5 -33zM249 477q-69 0 -106.5 -45.5
t-37.5 -130.5v-13h279v13q0 85 -33.5 130.5t-101.5 45.5zM20 853l50 27l85 -163l-35 -19zM281 741l107 -134l-30 -22l-110 115l-110 -115l-30 22l107 134h66z" />
    <glyph glyph-name="uni1EC3" unicode="&#x1ec3;" horiz-adv-x="489" 
d="M249 -12q-45 0 -82.5 15.5t-64.5 48t-41.5 83t-14.5 121.5t14.5 121.5t41.5 83t64.5 48t82.5 15.5q91 0 142.5 -63t51.5 -200v-15h-338v-35q0 -85 37.5 -129.5t106.5 -44.5q57 0 91.5 25.5t54.5 76.5l38 -26q-22 -59 -66.5 -92t-117.5 -33zM249 477q-69 0 -106.5 -45.5
t-37.5 -130.5v-13h279v13q0 85 -33.5 130.5t-101.5 45.5zM297 867h105q24 0 34.5 -9.5t10.5 -29.5q0 -15 -7 -32.5t-24 -43.5l-37 -59l-31 17l58 114h-109v43zM281 741l107 -134l-30 -22l-110 115l-110 -115l-30 22l107 134h66z" />
    <glyph glyph-name="uni1EC5" unicode="&#x1ec5;" horiz-adv-x="489" 
d="M249 -12q-45 0 -82.5 15.5t-64.5 48t-41.5 83t-14.5 121.5t14.5 121.5t41.5 83t64.5 48t82.5 15.5q91 0 142.5 -63t51.5 -200v-15h-338v-35q0 -85 37.5 -129.5t106.5 -44.5q57 0 91.5 25.5t54.5 76.5l38 -26q-22 -59 -66.5 -92t-117.5 -33zM249 477q-69 0 -106.5 -45.5
t-37.5 -130.5v-13h279v13q0 85 -33.5 130.5t-101.5 45.5zM183 869q17 0 32.5 -6t39.5 -22q22 -14 36 -19.5t25 -5.5q16 0 28.5 8t26.5 22l23 -28q-32 -47 -79 -47q-17 0 -32.5 6t-39.5 22q-22 14 -36 19.5t-25 5.5q-16 0 -28.5 -8t-26.5 -22l-23 28q32 47 79 47zM281 741
l107 -134l-30 -22l-110 115l-110 -115l-30 22l107 134h66z" />
    <glyph glyph-name="uni0259" unicode="&#x259;" horiz-adv-x="489" 
d="M385 266v35q0 85 -38 130t-107 45q-57 0 -91 -26t-54 -77l-40 28q23 59 67.5 91t117.5 32q45 0 82.5 -15.5t64.5 -48t41.5 -83t14.5 -121.5t-14.5 -121.5t-41.5 -83t-64.5 -48t-82.5 -15.5q-91 0 -142.5 63.5t-51.5 199.5v15h339zM105 211q0 -85 33.5 -131t101.5 -46
q69 0 107 46t38 131v13h-280v-13z" />
    <glyph glyph-name="gbreve" unicode="&#x11f;" horiz-adv-x="476" 
d="M463 -60q0 -81 -54.5 -116.5t-168.5 -35.5q-108 0 -154 33.5t-46 96.5q0 45 22 70t58 33v11q-44 19 -44 69q0 32 20 55t57 27v9q-39 19 -61 58t-22 99q0 87 45.5 131t123.5 44q20 0 37.5 -3.5t32.5 -8.5h145v-45h-115v-6q32 -8 50.5 -37.5t18.5 -74.5q0 -87 -45.5 -130.5
t-123.5 -43.5q-25 0 -50 5q-32 -8 -49 -25t-17 -40t15.5 -35t51.5 -12h117q84 0 120 -32.5t36 -95.5zM239 220q54 0 83.5 28.5t29.5 80.5v41q0 52 -29.5 80.5t-83.5 28.5t-83.5 -28.5t-29.5 -80.5v-41q0 -52 29.5 -80.5t83.5 -28.5zM411 -63q0 39 -23 59.5t-83 20.5h-151
q-63 -26 -63 -88q0 -45 29.5 -70t89.5 -25h59q69 0 105.5 24.5t36.5 78.5zM240 600q-48 0 -78 27.5t-55 94.5l33 16l16 -31q18 -36 36 -49t48 -13t48 13t36 49l16 31l33 -16q-25 -67 -55 -94.5t-78 -27.5z" />
    <glyph glyph-name="gcircumflex" unicode="&#x11d;" horiz-adv-x="476" 
d="M463 -60q0 -81 -54.5 -116.5t-168.5 -35.5q-108 0 -154 33.5t-46 96.5q0 45 22 70t58 33v11q-44 19 -44 69q0 32 20 55t57 27v9q-39 19 -61 58t-22 99q0 87 45.5 131t123.5 44q20 0 37.5 -3.5t32.5 -8.5h145v-45h-115v-6q32 -8 50.5 -37.5t18.5 -74.5q0 -87 -45.5 -130.5
t-123.5 -43.5q-25 0 -50 5q-32 -8 -49 -25t-17 -40t15.5 -35t51.5 -12h117q84 0 120 -32.5t36 -95.5zM239 220q54 0 83.5 28.5t29.5 80.5v41q0 52 -29.5 80.5t-83.5 28.5t-83.5 -28.5t-29.5 -80.5v-41q0 -52 29.5 -80.5t83.5 -28.5zM411 -63q0 39 -23 59.5t-83 20.5h-151
q-63 -26 -63 -88q0 -45 29.5 -70t89.5 -25h59q69 0 105.5 24.5t36.5 78.5zM273 756l106 -139l-30 -23l-109 122l-109 -122l-30 23l106 139h66z" />
    <glyph glyph-name="gcommaaccent" unicode="&#x123;" horiz-adv-x="476" 
d="M463 -60q0 -81 -54.5 -116.5t-168.5 -35.5q-108 0 -154 33.5t-46 96.5q0 45 22 70t58 33v11q-44 19 -44 69q0 32 20 55t57 27v9q-39 19 -61 58t-22 99q0 87 45.5 131t123.5 44q20 0 37.5 -3.5t32.5 -8.5h145v-45h-115v-6q32 -8 50.5 -37.5t18.5 -74.5q0 -87 -45.5 -130.5
t-123.5 -43.5q-25 0 -50 5q-32 -8 -49 -25t-17 -40t15.5 -35t51.5 -12h117q84 0 120 -32.5t36 -95.5zM239 220q54 0 83.5 28.5t29.5 80.5v41q0 52 -29.5 80.5t-83.5 28.5t-83.5 -28.5t-29.5 -80.5v-41q0 -52 29.5 -80.5t83.5 -28.5zM411 -63q0 39 -23 59.5t-83 20.5h-151
q-63 -26 -63 -88q0 -45 29.5 -70t89.5 -25h59q69 0 105.5 24.5t36.5 78.5zM240 597q-20 0 -29.5 9t-9.5 24v15q0 32 15 63.5t37 54.5h40q-21 -23 -32.5 -45t-16.5 -42q19 -1 27 -9.5t8 -22.5v-14q0 -15 -9.5 -24t-29.5 -9z" />
    <glyph glyph-name="gdotaccent" unicode="&#x121;" horiz-adv-x="476" 
d="M463 -60q0 -81 -54.5 -116.5t-168.5 -35.5q-108 0 -154 33.5t-46 96.5q0 45 22 70t58 33v11q-44 19 -44 69q0 32 20 55t57 27v9q-39 19 -61 58t-22 99q0 87 45.5 131t123.5 44q20 0 37.5 -3.5t32.5 -8.5h145v-45h-115v-6q32 -8 50.5 -37.5t18.5 -74.5q0 -87 -45.5 -130.5
t-123.5 -43.5q-25 0 -50 5q-32 -8 -49 -25t-17 -40t15.5 -35t51.5 -12h117q84 0 120 -32.5t36 -95.5zM239 220q54 0 83.5 28.5t29.5 80.5v41q0 52 -29.5 80.5t-83.5 28.5t-83.5 -28.5t-29.5 -80.5v-41q0 -52 29.5 -80.5t83.5 -28.5zM411 -63q0 39 -23 59.5t-83 20.5h-151
q-63 -26 -63 -88q0 -45 29.5 -70t89.5 -25h59q69 0 105.5 24.5t36.5 78.5zM240 627q-20 0 -29.5 9t-9.5 24v14q0 14 9.5 23t29.5 9t29.5 -9t9.5 -23v-14q0 -15 -9.5 -24t-29.5 -9z" />
    <glyph glyph-name="gbreve.alt01" horiz-adv-x="518" 
d="M436 -8q0 -103 -51.5 -153.5t-147.5 -50.5q-57 0 -96 18.5t-67 50.5l33 38q24 -29 54 -44t76 -15q69 0 106.5 36.5t37.5 119.5v89h-9q-14 -47 -49 -70t-86 -23q-93 0 -141 68.5t-48 199.5t48 199.5t141 68.5q51 0 86 -23t49 -70h9v81h55v-520zM251 37q27 0 50.5 8
t41.5 23t28 36t10 47v210q0 26 -10 47t-28 36t-41.5 23t-50.5 8q-70 0 -107 -46t-37 -128v-90q0 -82 37 -128t107 -46zM250 600q-48 0 -78 27.5t-55 94.5l33 16l16 -31q18 -36 36 -49t48 -13t48 13t36 49l16 31l33 -16q-25 -67 -55 -94.5t-78 -27.5z" />
    <glyph glyph-name="gcircumflex.alt01" horiz-adv-x="518" 
d="M436 -8q0 -103 -51.5 -153.5t-147.5 -50.5q-57 0 -96 18.5t-67 50.5l33 38q24 -29 54 -44t76 -15q69 0 106.5 36.5t37.5 119.5v89h-9q-14 -47 -49 -70t-86 -23q-93 0 -141 68.5t-48 199.5t48 199.5t141 68.5q51 0 86 -23t49 -70h9v81h55v-520zM251 37q27 0 50.5 8
t41.5 23t28 36t10 47v210q0 26 -10 47t-28 36t-41.5 23t-50.5 8q-70 0 -107 -46t-37 -128v-90q0 -82 37 -128t107 -46zM283 756l106 -139l-30 -23l-109 122l-109 -122l-30 23l106 139h66z" />
    <glyph glyph-name="gcommaaccent.alt01" horiz-adv-x="518" 
d="M436 -8q0 -103 -51.5 -153.5t-147.5 -50.5q-57 0 -96 18.5t-67 50.5l33 38q24 -29 54 -44t76 -15q69 0 106.5 36.5t37.5 119.5v89h-9q-14 -47 -49 -70t-86 -23q-93 0 -141 68.5t-48 199.5t48 199.5t141 68.5q51 0 86 -23t49 -70h9v81h55v-520zM251 37q27 0 50.5 8
t41.5 23t28 36t10 47v210q0 26 -10 47t-28 36t-41.5 23t-50.5 8q-70 0 -107 -46t-37 -128v-90q0 -82 37 -128t107 -46zM250 597q-20 0 -29.5 9t-9.5 24v15q0 32 15 63.5t37 54.5h40q-21 -23 -32.5 -45t-16.5 -42q19 -1 27 -9.5t8 -22.5v-14q0 -15 -9.5 -24t-29.5 -9z" />
    <glyph glyph-name="gdotaccent.alt01" horiz-adv-x="518" 
d="M436 -8q0 -103 -51.5 -153.5t-147.5 -50.5q-57 0 -96 18.5t-67 50.5l33 38q24 -29 54 -44t76 -15q69 0 106.5 36.5t37.5 119.5v89h-9q-14 -47 -49 -70t-86 -23q-93 0 -141 68.5t-48 199.5t48 199.5t141 68.5q51 0 86 -23t49 -70h9v81h55v-520zM251 37q27 0 50.5 8
t41.5 23t28 36t10 47v210q0 26 -10 47t-28 36t-41.5 23t-50.5 8q-70 0 -107 -46t-37 -128v-90q0 -82 37 -128t107 -46zM250 627q-20 0 -29.5 9t-9.5 24v14q0 14 9.5 23t29.5 9t29.5 -9t9.5 -23v-14q0 -15 -9.5 -24t-29.5 -9z" />
    <glyph glyph-name="hbar" unicode="&#x127;" horiz-adv-x="509" 
d="M83 0v619h-62v43h62v78h55v-78h140v-43h-140v-188h8q14 44 48.5 68.5t89.5 24.5q70 0 109 -45.5t39 -136.5v-342h-55v339q0 65 -28 100.5t-85 35.5q-26 0 -49 -8t-40 -23.5t-27 -38t-10 -50.5v-355h-55z" />
    <glyph glyph-name="hcircumflex" unicode="&#x125;" horiz-adv-x="508" 
d="M83 740h55v-309h8q14 44 48.5 68.5t89.5 24.5q70 0 109 -45.5t39 -136.5v-342h-55v339q0 65 -28 100.5t-85 35.5q-26 0 -49 -8t-40 -23.5t-27 -38t-10 -50.5v-355h-55v740zM145 914l106 -139l-30 -23l-109 122l-109 -122l-30 23l106 139h66z" />
    <glyph glyph-name="dotlessi" unicode="&#x131;" horiz-adv-x="221" 
d="M83 0v512h55v-512h-55z" />
    <glyph glyph-name="iacute" unicode="&#xed;" horiz-adv-x="221" 
d="M83 0v512h55v-512h-55zM109 586l-35 19l85 163l50 -27z" />
    <glyph glyph-name="ibreve" unicode="&#x12d;" horiz-adv-x="221" 
d="M83 0v512h55v-512h-55zM111 600q-47 0 -73.5 26.5t-44.5 95.5l33 15l10 -30q12 -33 29.5 -47.5t45.5 -14.5t45.5 14.5t29.5 47.5l10 30l33 -15q-18 -69 -44.5 -95.5t-73.5 -26.5z" />
    <glyph glyph-name="icircumflex" unicode="&#xee;" horiz-adv-x="221" 
d="M83 0v512h55v-512h-55zM144 756l92 -139l-30 -23l-95 122l-95 -122l-30 23l92 139h66z" />
    <glyph glyph-name="idieresis" unicode="&#xef;" horiz-adv-x="221" 
d="M83 0v512h55v-512h-55zM32 629q-20 0 -30 9t-10 23v14q0 14 10 23t30 9t29.5 -9t9.5 -23v-14q0 -14 -9.5 -23t-29.5 -9zM190 629q-20 0 -29.5 9t-9.5 23v14q0 14 9.5 23t29.5 9t30 -9t10 -23v-14q0 -14 -10 -23t-30 -9z" />
    <glyph glyph-name="uni1ECB" unicode="&#x1ecb;" horiz-adv-x="221" 
d="M111 653q-20 0 -28.5 9t-8.5 24v14q0 15 8.5 24t28.5 9t28.5 -9t8.5 -24v-14q0 -15 -8.5 -24t-28.5 -9zM83 512h55v-512h-55v512zM110 -154q-20 0 -29.5 9.5t-9.5 23.5v14q0 14 9.5 23t29.5 9t29.5 -9t9.5 -23v-14q0 -14 -9.5 -23.5t-29.5 -9.5z" />
    <glyph glyph-name="igrave" unicode="&#xec;" horiz-adv-x="221" 
d="M83 0v512h55v-512h-55zM13 741l49 27l86 -163l-36 -19z" />
    <glyph glyph-name="uni1EC9" unicode="&#x1ec9;" horiz-adv-x="221" 
d="M83 0v512h55v-512h-55zM36 754h113q44 0 44 -39q0 -15 -7 -32.5t-24 -43.5l-37 -59l-32 17l57 112h-114v45z" />
    <glyph glyph-name="imacron" unicode="&#x12b;" horiz-adv-x="221" 
d="M83 0v512h55v-512h-55zM-7 692h236v-46h-236v46z" />
    <glyph glyph-name="iogonek" unicode="&#x12f;" horiz-adv-x="221" 
d="M111 653q-20 0 -28.5 9t-8.5 24v14q0 15 8.5 24t28.5 9t28.5 -9t8.5 -24v-14q0 -15 -8.5 -24t-28.5 -9zM155 -169q-11 -16 -32 -26t-45 -10q-41 0 -63.5 17.5t-22.5 49.5q0 36 26 68t82 63l-1 7h-16v512h55v-512q-56 -40 -78 -67.5t-22 -57.5q0 -41 42 -41q32 0 49 23z
" />
    <glyph glyph-name="itilde" unicode="&#x129;" horiz-adv-x="221" 
d="M83 0v512h55v-512h-55zM170 622q-19 0 -33.5 6.5t-31.5 17.5q-17 12 -29 17.5t-25 5.5q-15 0 -27.5 -7.5t-26.5 -21.5l-22 28q30 46 77 46q19 0 33.5 -6.5t30.5 -17.5q18 -12 30 -17.5t25 -5.5q27 0 54 29l22 -28q-32 -46 -77 -46z" />
    <glyph glyph-name="ij" unicode="&#x133;" horiz-adv-x="441" 
d="M111 653q-20 0 -28.5 9t-8.5 24v14q0 15 8.5 24t28.5 9t28.5 -9t8.5 -24v-14q0 -15 -8.5 -24t-28.5 -9zM83 512h55v-512h-55v512zM303 512h55v-642q0 -37 -16.5 -53.5t-54.5 -16.5h-60v48h76v664zM331 653q-20 0 -28.5 9t-8.5 24v14q0 15 8.5 24t28.5 9t28.5 -9t8.5 -24
v-14q0 -15 -8.5 -24t-28.5 -9z" />
    <glyph glyph-name="uni0237" unicode="&#x237;" horiz-adv-x="221" 
d="M7 -152h76v664h55v-642q0 -37 -16.5 -53.5t-54.5 -16.5h-60v48z" />
    <glyph glyph-name="jcircumflex" unicode="&#x135;" horiz-adv-x="221" 
d="M7 -152h76v664h55v-642q0 -37 -16.5 -53.5t-54.5 -16.5h-60v48zM144 756l92 -139l-30 -23l-95 122l-95 -122l-30 23l92 139h66z" />
    <glyph glyph-name="kcommaaccent" unicode="&#x137;" horiz-adv-x="463" 
d="M83 740h55v-400l-4 -95h6l72 89l151 178h66l-179 -209l198 -303h-66l-172 270l-72 -82v-188h-55v740zM257 -67q20 0 29.5 -9t9.5 -24v-15q0 -32 -15 -63.5t-37 -54.5h-40q21 23 32.5 45t16.5 42q-19 1 -27 9.5t-8 22.5v14q0 15 9.5 24t29.5 9z" />
    <glyph glyph-name="kgreenlandic" unicode="&#x138;" horiz-adv-x="463" 
d="M210 270l-72 -82v-188h-55v512h55v-172l-4 -95h6l72 89l151 178h66l-179 -209l198 -303h-66z" />
    <glyph glyph-name="lacute" unicode="&#x13a;" horiz-adv-x="239" 
d="M141 0q-31 0 -44.5 13.5t-13.5 44.5v682h55v-692h69v-48h-66zM109 786l-35 19l85 163l50 -27z" />
    <glyph glyph-name="lcaron" unicode="&#x13e;" horiz-adv-x="239" 
d="M141 0q-31 0 -44.5 13.5t-13.5 44.5v682h55v-692h69v-48h-66zM239 559h-37l13 181h62z" />
    <glyph glyph-name="lcommaaccent" unicode="&#x13c;" horiz-adv-x="239" 
d="M141 0q-31 0 -44.5 13.5t-13.5 44.5v682h55v-692h69v-48h-66zM147 -67q20 0 29.5 -9t9.5 -24v-15q0 -32 -15 -63.5t-37 -54.5h-40q21 23 32.5 45t16.5 42q-19 1 -27 9.5t-8 22.5v14q0 15 9.5 24t29.5 9z" />
    <glyph glyph-name="ldot" unicode="&#x140;" horiz-adv-x="294" 
d="M141 0q-31 0 -44.5 13.5t-13.5 44.5v682h55v-692h69v-48h-66zM259 251q-20 0 -29.5 9t-9.5 24v14q0 14 9.5 23t29.5 9t29.5 -9t9.5 -23v-14q0 -15 -9.5 -24t-29.5 -9z" />
    <glyph glyph-name="lslash" unicode="&#x142;" horiz-adv-x="244" 
d="M207 0h-66q-31 0 -44.5 13.5t-13.5 44.5v278l-62 -23v47l62 23v357h55v-338l85 31v-47l-85 -31v-307h69v-48z" />
    <glyph glyph-name="nacute" unicode="&#x144;" horiz-adv-x="508" 
d="M83 0v512h55v-81h8q14 44 48.5 68.5t89.5 24.5q70 0 109 -45.5t39 -136.5v-342h-55v339q0 65 -28 100.5t-85 35.5q-26 0 -49 -8t-40 -23.5t-27 -38t-10 -50.5v-355h-55zM257 586l-35 19l85 163l50 -27z" />
    <glyph glyph-name="ncaron" unicode="&#x148;" horiz-adv-x="508" 
d="M83 0v512h55v-81h8q14 44 48.5 68.5t89.5 24.5q70 0 109 -45.5t39 -136.5v-342h-55v339q0 65 -28 100.5t-85 35.5q-26 0 -49 -8t-40 -23.5t-27 -38t-10 -50.5v-355h-55zM226 601l-106 139l30 23l109 -122l109 122l30 -23l-106 -139h-66z" />
    <glyph glyph-name="ncommaaccent" unicode="&#x146;" horiz-adv-x="508" 
d="M83 0v512h55v-81h8q14 44 48.5 68.5t89.5 24.5q70 0 109 -45.5t39 -136.5v-342h-55v339q0 65 -28 100.5t-85 35.5q-26 0 -49 -8t-40 -23.5t-27 -38t-10 -50.5v-355h-55zM257 -67q20 0 29.5 -9t9.5 -24v-15q0 -32 -15 -63.5t-37 -54.5h-40q21 23 32.5 45t16.5 42
q-19 1 -27 9.5t-8 22.5v14q0 15 9.5 24t29.5 9z" />
    <glyph glyph-name="ntilde" unicode="&#xf1;" horiz-adv-x="508" 
d="M83 0v512h55v-81h8q14 44 48.5 68.5t89.5 24.5q70 0 109 -45.5t39 -136.5v-342h-55v339q0 65 -28 100.5t-85 35.5q-26 0 -49 -8t-40 -23.5t-27 -38t-10 -50.5v-355h-55zM325 619q-17 0 -32.5 6t-39.5 22q-22 14 -36 19.5t-25 5.5q-16 0 -28.5 -8t-26.5 -22l-23 28
q32 47 79 47q17 0 32.5 -6t39.5 -22q22 -14 36 -19.5t25 -5.5q16 0 28.5 8t26.5 22l23 -28q-32 -47 -79 -47z" />
    <glyph glyph-name="napostrophe" unicode="&#x149;" horiz-adv-x="745" 
d="M118 744q46 0 46 -40v-13q0 -42 -22.5 -88.5t-57.5 -80.5h-45q29 33 45.5 64.5t21.5 65.5q-34 4 -34 39v13q0 40 46 40zM319 0v512h55v-81h8q14 44 48.5 68.5t89.5 24.5q70 0 109 -45.5t39 -136.5v-342h-55v339q0 65 -28 100.5t-85 35.5q-26 0 -49 -8t-40 -23.5t-27 -38
t-10 -50.5v-355h-55z" />
    <glyph glyph-name="eng" unicode="&#x14b;" horiz-adv-x="508" 
d="M301 -152h76v491q0 65 -28 100.5t-85 35.5q-26 0 -49 -8t-40 -23.5t-27 -38t-10 -50.5v-355h-55v512h55v-81h8q14 44 48.5 68.5t89.5 24.5q70 0 109 -45.5t39 -136.5v-472q0 -37 -16.5 -53.5t-53.5 -16.5h-61v48z" />
    <glyph glyph-name="oacute" unicode="&#xf3;" horiz-adv-x="498" 
d="M249 -12q-45 0 -82.5 15.5t-64.5 48t-41.5 83t-14.5 121.5t14.5 121.5t41.5 83t64.5 48t82.5 15.5t82.5 -15.5t64.5 -48t41.5 -83t14.5 -121.5t-14.5 -121.5t-41.5 -83t-64.5 -48t-82.5 -15.5zM249 37q69 0 106.5 44.5t37.5 129.5v90q0 85 -37.5 129.5t-106.5 44.5
t-106.5 -44.5t-37.5 -129.5v-90q0 -85 37.5 -129.5t106.5 -44.5zM248 586l-35 19l85 163l50 -27z" />
    <glyph glyph-name="obreve" unicode="&#x14f;" horiz-adv-x="498" 
d="M249 -12q-45 0 -82.5 15.5t-64.5 48t-41.5 83t-14.5 121.5t14.5 121.5t41.5 83t64.5 48t82.5 15.5t82.5 -15.5t64.5 -48t41.5 -83t14.5 -121.5t-14.5 -121.5t-41.5 -83t-64.5 -48t-82.5 -15.5zM249 37q69 0 106.5 44.5t37.5 129.5v90q0 85 -37.5 129.5t-106.5 44.5
t-106.5 -44.5t-37.5 -129.5v-90q0 -85 37.5 -129.5t106.5 -44.5zM250 600q-48 0 -78 27.5t-55 94.5l33 16l16 -31q18 -36 36 -49t48 -13t48 13t36 49l16 31l33 -16q-25 -67 -55 -94.5t-78 -27.5z" />
    <glyph glyph-name="ocircumflex" unicode="&#xf4;" horiz-adv-x="498" 
d="M249 -12q-45 0 -82.5 15.5t-64.5 48t-41.5 83t-14.5 121.5t14.5 121.5t41.5 83t64.5 48t82.5 15.5t82.5 -15.5t64.5 -48t41.5 -83t14.5 -121.5t-14.5 -121.5t-41.5 -83t-64.5 -48t-82.5 -15.5zM249 37q69 0 106.5 44.5t37.5 129.5v90q0 85 -37.5 129.5t-106.5 44.5
t-106.5 -44.5t-37.5 -129.5v-90q0 -85 37.5 -129.5t106.5 -44.5zM283 756l106 -139l-30 -23l-109 122l-109 -122l-30 23l106 139h66z" />
    <glyph glyph-name="odieresis" unicode="&#xf6;" horiz-adv-x="498" 
d="M249 -12q-45 0 -82.5 15.5t-64.5 48t-41.5 83t-14.5 121.5t14.5 121.5t41.5 83t64.5 48t82.5 15.5t82.5 -15.5t64.5 -48t41.5 -83t14.5 -121.5t-14.5 -121.5t-41.5 -83t-64.5 -48t-82.5 -15.5zM249 37q69 0 106.5 44.5t37.5 129.5v90q0 85 -37.5 129.5t-106.5 44.5
t-106.5 -44.5t-37.5 -129.5v-90q0 -85 37.5 -129.5t106.5 -44.5zM166 629q-20 0 -29.5 9t-9.5 23v14q0 14 9.5 23t29.5 9t29.5 -9t9.5 -23v-14q0 -14 -9.5 -23t-29.5 -9zM334 629q-20 0 -29.5 9t-9.5 23v14q0 14 9.5 23t29.5 9t29.5 -9t9.5 -23v-14q0 -14 -9.5 -23t-29.5 -9
z" />
    <glyph glyph-name="uni1ECD" unicode="&#x1ecd;" horiz-adv-x="498" 
d="M249 -12q-45 0 -82.5 15.5t-64.5 48t-41.5 83t-14.5 121.5t14.5 121.5t41.5 83t64.5 48t82.5 15.5t82.5 -15.5t64.5 -48t41.5 -83t14.5 -121.5t-14.5 -121.5t-41.5 -83t-64.5 -48t-82.5 -15.5zM249 37q69 0 106.5 44.5t37.5 129.5v90q0 85 -37.5 129.5t-106.5 44.5
t-106.5 -44.5t-37.5 -129.5v-90q0 -85 37.5 -129.5t106.5 -44.5zM249 -154q-20 0 -29.5 9.5t-9.5 23.5v14q0 14 9.5 23t29.5 9t29.5 -9t9.5 -23v-14q0 -14 -9.5 -23.5t-29.5 -9.5z" />
    <glyph glyph-name="ograve" unicode="&#xf2;" horiz-adv-x="498" 
d="M249 -12q-45 0 -82.5 15.5t-64.5 48t-41.5 83t-14.5 121.5t14.5 121.5t41.5 83t64.5 48t82.5 15.5t82.5 -15.5t64.5 -48t41.5 -83t14.5 -121.5t-14.5 -121.5t-41.5 -83t-64.5 -48t-82.5 -15.5zM249 37q69 0 106.5 44.5t37.5 129.5v90q0 85 -37.5 129.5t-106.5 44.5
t-106.5 -44.5t-37.5 -129.5v-90q0 -85 37.5 -129.5t106.5 -44.5zM152 741l49 27l86 -163l-36 -19z" />
    <glyph glyph-name="uni1ECF" unicode="&#x1ecf;" horiz-adv-x="498" 
d="M249 -12q-45 0 -82.5 15.5t-64.5 48t-41.5 83t-14.5 121.5t14.5 121.5t41.5 83t64.5 48t82.5 15.5t82.5 -15.5t64.5 -48t41.5 -83t14.5 -121.5t-14.5 -121.5t-41.5 -83t-64.5 -48t-82.5 -15.5zM249 37q69 0 106.5 44.5t37.5 129.5v90q0 85 -37.5 129.5t-106.5 44.5
t-106.5 -44.5t-37.5 -129.5v-90q0 -85 37.5 -129.5t106.5 -44.5zM175 754h113q44 0 44 -39q0 -15 -7 -32.5t-24 -43.5l-37 -59l-32 17l57 112h-114v45z" />
    <glyph glyph-name="ohungarumlaut" unicode="&#x151;" horiz-adv-x="498" 
d="M249 -12q-45 0 -82.5 15.5t-64.5 48t-41.5 83t-14.5 121.5t14.5 121.5t41.5 83t64.5 48t82.5 15.5t82.5 -15.5t64.5 -48t41.5 -83t14.5 -121.5t-14.5 -121.5t-41.5 -83t-64.5 -48t-82.5 -15.5zM249 37q69 0 106.5 44.5t37.5 129.5v90q0 85 -37.5 129.5t-106.5 44.5
t-106.5 -44.5t-37.5 -129.5v-90q0 -85 37.5 -129.5t106.5 -44.5zM181 586l-33 18l86 164l47 -26zM327 586l-33 18l86 164l47 -26z" />
    <glyph glyph-name="omacron" unicode="&#x14d;" horiz-adv-x="498" 
d="M249 -12q-45 0 -82.5 15.5t-64.5 48t-41.5 83t-14.5 121.5t14.5 121.5t41.5 83t64.5 48t82.5 15.5t82.5 -15.5t64.5 -48t41.5 -83t14.5 -121.5t-14.5 -121.5t-41.5 -83t-64.5 -48t-82.5 -15.5zM249 37q69 0 106.5 44.5t37.5 129.5v90q0 85 -37.5 129.5t-106.5 44.5
t-106.5 -44.5t-37.5 -129.5v-90q0 -85 37.5 -129.5t106.5 -44.5zM127 692h246v-46h-246v46z" />
    <glyph glyph-name="oslash" unicode="&#xf8;" horiz-adv-x="498" 
d="M249 -12q-41 0 -75 12t-60 38l-52 -72l-33 23l59 82q-20 32 -31 78t-11 107q0 71 14.5 121.5t41.5 83t64.5 48t82.5 15.5q41 0 75 -12t60 -38l52 72l32 -23l-59 -81q21 -32 32 -78t11 -108q0 -71 -14.5 -121.5t-41.5 -83t-64.5 -48t-82.5 -15.5zM123 112l86 123l145 197
q-37 43 -105 43q-69 0 -106.5 -44.5t-37.5 -129.5v-84q0 -8 0.5 -23.5t2 -32t3.5 -30.5t5 -19h7zM145 80q17 -20 43.5 -31.5t60.5 -11.5q69 0 106.5 44.5t37.5 129.5v85q0 8 -0.5 23t-2 31.5t-3.5 30.5t-5 19h-7l-85 -121z" />
    <glyph glyph-name="oslashacute" unicode="&#x1ff;" horiz-adv-x="498" 
d="M249 -12q-41 0 -75 12t-60 38l-52 -72l-33 23l59 82q-20 32 -31 78t-11 107q0 71 14.5 121.5t41.5 83t64.5 48t82.5 15.5q41 0 75 -12t60 -38l52 72l32 -23l-59 -81q21 -32 32 -78t11 -108q0 -71 -14.5 -121.5t-41.5 -83t-64.5 -48t-82.5 -15.5zM123 112l86 123l145 197
q-37 43 -105 43q-69 0 -106.5 -44.5t-37.5 -129.5v-84q0 -8 0.5 -23.5t2 -32t3.5 -30.5t5 -19h7zM145 80q17 -20 43.5 -31.5t60.5 -11.5q69 0 106.5 44.5t37.5 129.5v85q0 8 -0.5 23t-2 31.5t-3.5 30.5t-5 19h-7l-85 -121zM248 586l-35 19l85 163l50 -27z" />
    <glyph glyph-name="otilde" unicode="&#xf5;" horiz-adv-x="498" 
d="M249 -12q-45 0 -82.5 15.5t-64.5 48t-41.5 83t-14.5 121.5t14.5 121.5t41.5 83t64.5 48t82.5 15.5t82.5 -15.5t64.5 -48t41.5 -83t14.5 -121.5t-14.5 -121.5t-41.5 -83t-64.5 -48t-82.5 -15.5zM249 37q69 0 106.5 44.5t37.5 129.5v90q0 85 -37.5 129.5t-106.5 44.5
t-106.5 -44.5t-37.5 -129.5v-90q0 -85 37.5 -129.5t106.5 -44.5zM316 619q-17 0 -32.5 6t-39.5 22q-22 14 -36 19.5t-25 5.5q-16 0 -28.5 -8t-26.5 -22l-23 28q32 47 79 47q17 0 32.5 -6t39.5 -22q22 -14 36 -19.5t25 -5.5q16 0 28.5 8t26.5 22l23 -28q-32 -47 -79 -47z" />
    <glyph glyph-name="ohorn" unicode="&#x1a1;" horiz-adv-x="497" 
d="M452 623v-103q0 -28 -9 -37t-37 -9h-59v-6q53 -14 79 -67.5t26 -144.5q0 -71 -14.5 -121.5t-41.5 -83t-64.5 -48t-82.5 -15.5t-82.5 15.5t-64.5 48t-41.5 83t-14.5 121.5t14.5 121.5t41.5 83t64.5 48t82.5 15.5q41 0 74 -12h81v111h48zM249 37q69 0 106.5 44.5
t37.5 129.5v90q0 85 -37.5 129.5t-106.5 44.5t-106.5 -44.5t-37.5 -129.5v-90q0 -85 37.5 -129.5t106.5 -44.5z" />
    <glyph glyph-name="uni1EDB" unicode="&#x1edb;" horiz-adv-x="497" 
d="M452 623v-103q0 -28 -9 -37t-37 -9h-59v-6q53 -14 79 -67.5t26 -144.5q0 -71 -14.5 -121.5t-41.5 -83t-64.5 -48t-82.5 -15.5t-82.5 15.5t-64.5 48t-41.5 83t-14.5 121.5t14.5 121.5t41.5 83t64.5 48t82.5 15.5q41 0 74 -12h81v111h48zM249 37q69 0 106.5 44.5
t37.5 129.5v90q0 85 -37.5 129.5t-106.5 44.5t-106.5 -44.5t-37.5 -129.5v-90q0 -85 37.5 -129.5t106.5 -44.5zM247 586l-35 19l85 163l50 -27z" />
    <glyph glyph-name="uni1EE3" unicode="&#x1ee3;" horiz-adv-x="497" 
d="M452 623v-103q0 -28 -9 -37t-37 -9h-59v-6q53 -14 79 -67.5t26 -144.5q0 -71 -14.5 -121.5t-41.5 -83t-64.5 -48t-82.5 -15.5t-82.5 15.5t-64.5 48t-41.5 83t-14.5 121.5t14.5 121.5t41.5 83t64.5 48t82.5 15.5q41 0 74 -12h81v111h48zM249 37q69 0 106.5 44.5
t37.5 129.5v90q0 85 -37.5 129.5t-106.5 44.5t-106.5 -44.5t-37.5 -129.5v-90q0 -85 37.5 -129.5t106.5 -44.5zM248 -154q-20 0 -29.5 9.5t-9.5 23.5v14q0 14 9.5 23t29.5 9t29.5 -9t9.5 -23v-14q0 -14 -9.5 -23.5t-29.5 -9.5z" />
    <glyph glyph-name="uni1EDD" unicode="&#x1edd;" horiz-adv-x="497" 
d="M452 623v-103q0 -28 -9 -37t-37 -9h-59v-6q53 -14 79 -67.5t26 -144.5q0 -71 -14.5 -121.5t-41.5 -83t-64.5 -48t-82.5 -15.5t-82.5 15.5t-64.5 48t-41.5 83t-14.5 121.5t14.5 121.5t41.5 83t64.5 48t82.5 15.5q41 0 74 -12h81v111h48zM249 37q69 0 106.5 44.5
t37.5 129.5v90q0 85 -37.5 129.5t-106.5 44.5t-106.5 -44.5t-37.5 -129.5v-90q0 -85 37.5 -129.5t106.5 -44.5zM151 741l49 27l86 -163l-36 -19z" />
    <glyph glyph-name="uni1EDF" unicode="&#x1edf;" horiz-adv-x="497" 
d="M452 623v-103q0 -28 -9 -37t-37 -9h-59v-6q53 -14 79 -67.5t26 -144.5q0 -71 -14.5 -121.5t-41.5 -83t-64.5 -48t-82.5 -15.5t-82.5 15.5t-64.5 48t-41.5 83t-14.5 121.5t14.5 121.5t41.5 83t64.5 48t82.5 15.5q41 0 74 -12h81v111h48zM249 37q69 0 106.5 44.5
t37.5 129.5v90q0 85 -37.5 129.5t-106.5 44.5t-106.5 -44.5t-37.5 -129.5v-90q0 -85 37.5 -129.5t106.5 -44.5zM174 754h113q44 0 44 -39q0 -15 -7 -32.5t-24 -43.5l-37 -59l-32 17l57 112h-114v45z" />
    <glyph glyph-name="uni1EE1" unicode="&#x1ee1;" horiz-adv-x="497" 
d="M452 623v-103q0 -28 -9 -37t-37 -9h-59v-6q53 -14 79 -67.5t26 -144.5q0 -71 -14.5 -121.5t-41.5 -83t-64.5 -48t-82.5 -15.5t-82.5 15.5t-64.5 48t-41.5 83t-14.5 121.5t14.5 121.5t41.5 83t64.5 48t82.5 15.5q41 0 74 -12h81v111h48zM249 37q69 0 106.5 44.5
t37.5 129.5v90q0 85 -37.5 129.5t-106.5 44.5t-106.5 -44.5t-37.5 -129.5v-90q0 -85 37.5 -129.5t106.5 -44.5zM308 622q-19 0 -33.5 6.5t-31.5 17.5q-17 12 -29 17.5t-25 5.5q-15 0 -27.5 -7.5t-26.5 -21.5l-22 28q30 46 77 46q19 0 33.5 -6.5t30.5 -17.5q18 -12 30 -17.5
t25 -5.5q27 0 54 29l22 -28q-32 -46 -77 -46z" />
    <glyph glyph-name="uni1ED1" unicode="&#x1ed1;" horiz-adv-x="498" 
d="M249 -12q-45 0 -82.5 15.5t-64.5 48t-41.5 83t-14.5 121.5t14.5 121.5t41.5 83t64.5 48t82.5 15.5t82.5 -15.5t64.5 -48t41.5 -83t14.5 -121.5t-14.5 -121.5t-41.5 -83t-64.5 -48t-82.5 -15.5zM249 37q69 0 106.5 44.5t37.5 129.5v90q0 85 -37.5 129.5t-106.5 44.5
t-106.5 -44.5t-37.5 -129.5v-90q0 -85 37.5 -129.5t106.5 -44.5zM377 698l-35 19l85 163l50 -27zM282 741l107 -134l-30 -22l-110 115l-110 -115l-30 22l107 134h66z" />
    <glyph glyph-name="uni1ED9" unicode="&#x1ed9;" horiz-adv-x="498" 
d="M249 -12q-45 0 -82.5 15.5t-64.5 48t-41.5 83t-14.5 121.5t14.5 121.5t41.5 83t64.5 48t82.5 15.5t82.5 -15.5t64.5 -48t41.5 -83t14.5 -121.5t-14.5 -121.5t-41.5 -83t-64.5 -48t-82.5 -15.5zM249 37q69 0 106.5 44.5t37.5 129.5v90q0 85 -37.5 129.5t-106.5 44.5
t-106.5 -44.5t-37.5 -129.5v-90q0 -85 37.5 -129.5t106.5 -44.5zM283 756l106 -139l-30 -23l-109 122l-109 -122l-30 23l106 139h66zM249 -154q-20 0 -29.5 9.5t-9.5 23.5v14q0 14 9.5 23t29.5 9t29.5 -9t9.5 -23v-14q0 -14 -9.5 -23.5t-29.5 -9.5z" />
    <glyph glyph-name="uni1ED3" unicode="&#x1ed3;" horiz-adv-x="498" 
d="M249 -12q-45 0 -82.5 15.5t-64.5 48t-41.5 83t-14.5 121.5t14.5 121.5t41.5 83t64.5 48t82.5 15.5t82.5 -15.5t64.5 -48t41.5 -83t14.5 -121.5t-14.5 -121.5t-41.5 -83t-64.5 -48t-82.5 -15.5zM249 37q69 0 106.5 44.5t37.5 129.5v90q0 85 -37.5 129.5t-106.5 44.5
t-106.5 -44.5t-37.5 -129.5v-90q0 -85 37.5 -129.5t106.5 -44.5zM21 853l50 27l85 -163l-35 -19zM282 741l107 -134l-30 -22l-110 115l-110 -115l-30 22l107 134h66z" />
    <glyph glyph-name="uni1ED5" unicode="&#x1ed5;" horiz-adv-x="498" 
d="M249 -12q-45 0 -82.5 15.5t-64.5 48t-41.5 83t-14.5 121.5t14.5 121.5t41.5 83t64.5 48t82.5 15.5t82.5 -15.5t64.5 -48t41.5 -83t14.5 -121.5t-14.5 -121.5t-41.5 -83t-64.5 -48t-82.5 -15.5zM249 37q69 0 106.5 44.5t37.5 129.5v90q0 85 -37.5 129.5t-106.5 44.5
t-106.5 -44.5t-37.5 -129.5v-90q0 -85 37.5 -129.5t106.5 -44.5zM298 867h105q24 0 34.5 -9.5t10.5 -29.5q0 -15 -7 -32.5t-24 -43.5l-37 -59l-31 17l58 114h-109v43zM282 741l107 -134l-30 -22l-110 115l-110 -115l-30 22l107 134h66z" />
    <glyph glyph-name="uni1ED7" unicode="&#x1ed7;" horiz-adv-x="498" 
d="M249 -12q-45 0 -82.5 15.5t-64.5 48t-41.5 83t-14.5 121.5t14.5 121.5t41.5 83t64.5 48t82.5 15.5t82.5 -15.5t64.5 -48t41.5 -83t14.5 -121.5t-14.5 -121.5t-41.5 -83t-64.5 -48t-82.5 -15.5zM249 37q69 0 106.5 44.5t37.5 129.5v90q0 85 -37.5 129.5t-106.5 44.5
t-106.5 -44.5t-37.5 -129.5v-90q0 -85 37.5 -129.5t106.5 -44.5zM184 869q17 0 32.5 -6t39.5 -22q22 -14 36 -19.5t25 -5.5q16 0 28.5 8t26.5 22l23 -28q-32 -47 -79 -47q-17 0 -32.5 6t-39.5 22q-22 14 -36 19.5t-25 5.5q-16 0 -28.5 -8t-26.5 -22l-23 28q32 47 79 47z
M282 741l107 -134l-30 -22l-110 115l-110 -115l-30 22l107 134h66z" />
    <glyph glyph-name="oe" unicode="&#x153;" horiz-adv-x="836" 
d="M249 37q69 0 106.5 44.5t37.5 129.5v90q0 85 -37.5 129.5t-106.5 44.5t-106.5 -44.5t-37.5 -129.5v-90q0 -85 37.5 -129.5t106.5 -44.5zM731 288v13q0 85 -33.5 130.5t-101.5 45.5q-69 0 -106.5 -45.5t-37.5 -130.5v-13h279zM596 -12q-66 0 -111 34.5t-59 97.5h-8
q-14 -63 -58.5 -97.5t-110.5 -34.5q-45 0 -82.5 15.5t-64.5 48t-41.5 83t-14.5 121.5t14.5 121.5t41.5 83t64.5 48t82.5 15.5q66 0 110.5 -34.5t58.5 -97.5h8q14 63 59 97.5t111 34.5q91 0 142.5 -63t51.5 -200v-15h-338v-35q0 -85 37.5 -129.5t106.5 -44.5q57 0 91.5 25.5
t54.5 76.5l38 -26q-22 -59 -66.5 -92t-117.5 -33z" />
    <glyph glyph-name="racute" unicode="&#x155;" horiz-adv-x="323" 
d="M83 0v512h55v-93h8q14 43 47 68t84 25h32v-54h-46q-55 0 -90 -30t-35 -83v-345h-55zM197 586l-35 19l85 163l50 -27z" />
    <glyph glyph-name="rcaron" unicode="&#x159;" horiz-adv-x="323" 
d="M83 0v512h55v-93h8q14 43 47 68t84 25h32v-54h-46q-55 0 -90 -30t-35 -83v-345h-55zM166 601l-106 139l30 23l109 -122l109 122l30 -23l-106 -139h-66z" />
    <glyph glyph-name="rcommaaccent" unicode="&#x157;" horiz-adv-x="323" 
d="M83 0v512h55v-93h8q14 43 47 68t84 25h32v-54h-46q-55 0 -90 -30t-35 -83v-345h-55zM111 -67q20 0 29.5 -9t9.5 -24v-15q0 -32 -15 -63.5t-37 -54.5h-40q21 23 32.5 45t16.5 42q-19 1 -27 9.5t-8 22.5v14q0 15 9.5 24t29.5 9z" />
    <glyph glyph-name="sacute" unicode="&#x15b;" horiz-adv-x="430" 
d="M215 -12q-60 0 -103 23.5t-75 71.5l39 32q28 -42 61 -60.5t78 -18.5q51 0 81 25t30 73q0 42 -20 65.5t-72 32.5l-40 7q-70 12 -105.5 44.5t-35.5 98.5q0 73 44 107.5t114 34.5q53 0 92 -18.5t68 -58.5l-36 -33q-46 62 -123 62q-51 0 -78 -23t-27 -69q0 -45 22 -66t73 -30
l39 -7q73 -13 106 -46t33 -96q0 -72 -43 -111.5t-122 -39.5zM209 586l-35 19l85 163l50 -27z" />
    <glyph glyph-name="scaron" unicode="&#x161;" horiz-adv-x="430" 
d="M215 -12q-60 0 -103 23.5t-75 71.5l39 32q28 -42 61 -60.5t78 -18.5q51 0 81 25t30 73q0 42 -20 65.5t-72 32.5l-40 7q-70 12 -105.5 44.5t-35.5 98.5q0 73 44 107.5t114 34.5q53 0 92 -18.5t68 -58.5l-36 -33q-46 62 -123 62q-51 0 -78 -23t-27 -69q0 -45 22 -66t73 -30
l39 -7q73 -13 106 -46t33 -96q0 -72 -43 -111.5t-122 -39.5zM178 601l-106 139l30 23l109 -122l109 122l30 -23l-106 -139h-66z" />
    <glyph glyph-name="scedilla" unicode="&#x15f;" horiz-adv-x="430" 
d="M225 -205q-33 0 -54 12t-31 25l26 29q10 -11 24 -18.5t35 -7.5q47 0 47 39t-47 39h-44l15 76q-53 3 -91.5 26.5t-67.5 67.5l39 32q29 -42 61 -60.5t78 -18.5q52 0 81.5 24t29.5 74q0 42 -20.5 65.5t-71.5 32.5l-40 7q-70 12 -105.5 44.5t-35.5 98.5q0 73 44 107.5
t114 34.5q53 0 92 -18.5t68 -58.5l-36 -33q-46 62 -123 62q-51 0 -78 -23t-27 -69q0 -45 22 -66t73 -30l39 -7q73 -13 106 -46t33 -96q0 -69 -38.5 -107.5t-110.5 -42.5l-13 -62h7q5 5 12 8.5t19 3.5q28 0 44.5 -17t16.5 -50q0 -38 -26.5 -57.5t-65.5 -19.5z" />
    <glyph glyph-name="scircumflex" unicode="&#x15d;" horiz-adv-x="430" 
d="M215 -12q-60 0 -103 23.5t-75 71.5l39 32q28 -42 61 -60.5t78 -18.5q51 0 81 25t30 73q0 42 -20 65.5t-72 32.5l-40 7q-70 12 -105.5 44.5t-35.5 98.5q0 73 44 107.5t114 34.5q53 0 92 -18.5t68 -58.5l-36 -33q-46 62 -123 62q-51 0 -78 -23t-27 -69q0 -45 22 -66t73 -30
l39 -7q73 -13 106 -46t33 -96q0 -72 -43 -111.5t-122 -39.5zM244 756l106 -139l-30 -23l-109 122l-109 -122l-30 23l106 139h66z" />
    <glyph glyph-name="scommaaccent" unicode="&#x219;" horiz-adv-x="430" 
d="M215 -12q-60 0 -103 23.5t-75 71.5l39 32q28 -42 61 -60.5t78 -18.5q51 0 81 25t30 73q0 42 -20 65.5t-72 32.5l-40 7q-70 12 -105.5 44.5t-35.5 98.5q0 73 44 107.5t114 34.5q53 0 92 -18.5t68 -58.5l-36 -33q-46 62 -123 62q-51 0 -78 -23t-27 -69q0 -45 22 -66t73 -30
l39 -7q73 -13 106 -46t33 -96q0 -72 -43 -111.5t-122 -39.5zM215 -67q20 0 29.5 -9t9.5 -24v-15q0 -32 -15 -63.5t-37 -54.5h-40q21 23 32.5 45t16.5 42q-19 1 -27 9.5t-8 22.5v14q0 15 9.5 24t29.5 9z" />
    <glyph glyph-name="germandbls" unicode="&#xdf;" horiz-adv-x="579" 
d="M549 138q0 -71 -39.5 -110.5t-117.5 -39.5q-58 0 -97.5 21t-68.5 64l41 34q26 -37 55 -53.5t73 -16.5q53 0 77 24.5t24 71.5q0 39 -17.5 61.5t-58.5 34.5l-31 9q-33 10 -56.5 21.5t-38.5 28t-22.5 38.5t-7.5 52q0 68 43.5 102.5t125.5 35.5v21q0 89 -30.5 127.5
t-104.5 38.5t-104.5 -38.5t-30.5 -127.5v-537h-55v464h-79v48h79v28q0 103 46 157.5t143 54.5t143 -54.5t46 -157.5v-69h-53q-56 0 -86 -21t-30 -69q0 -20 4 -34.5t14 -25.5t25.5 -18.5t38.5 -14.5l30 -9q62 -19 91 -50t29 -91z" />
    <glyph glyph-name="germandbls.alt01" horiz-adv-x="503" 
d="M83 0v670q0 37 16.5 53.5t53.5 16.5h113v-48h-128v-180h311v-43l-174 -261q50 -1 88 -11.5t63.5 -34t38.5 -60.5t13 -91q0 -57 -15 -97.5t-43 -65.5t-68.5 -36.5t-91.5 -11.5h-55v48h55q83 0 121 34t38 106v36q0 72 -38 105.5t-121 33.5h-37v49l168 252h-253v-464h-55z
" />
    <glyph glyph-name="tbar" unicode="&#x167;" horiz-adv-x="309" 
d="M257 0h-93q-31 0 -44.5 13.5t-13.5 44.5v204h-58v43h58v159h-80v48h53q19 0 25 9.5t6 28.5v105h50v-143h102v-48h-102v-159h87v-43h-87v-214h97v-48z" />
    <glyph glyph-name="tcaron" unicode="&#x165;" horiz-adv-x="303" 
d="M164 0q-31 0 -45 13.5t-14 44.5v406h-79v48h53q19 0 25 9.5t6 28.5v105h50v-143h102v-48h-102v-416h97v-48h-93zM262 566h-37l13 181h62z" />
    <glyph glyph-name="uni021B" unicode="&#x21b;" horiz-adv-x="303" 
d="M164 0q-31 0 -45 13.5t-14 44.5v406h-79v48h53q19 0 25 9.5t6 28.5v105h50v-143h102v-48h-102v-416h97v-48h-93zM185 -67q20 0 29.5 -9t9.5 -24v-15q0 -32 -15 -63.5t-37 -54.5h-40q21 23 32.5 45t16.5 42q-19 1 -27 9.5t-8 22.5v14q0 15 9.5 24t29.5 9z" />
    <glyph glyph-name="tcommaaccent" unicode="&#x163;" horiz-adv-x="303" 
d="M164 0q-31 0 -45 13.5t-14 44.5v406h-79v48h53q19 0 25 9.5t6 28.5v105h50v-143h102v-48h-102v-416h97v-48h-93zM185 -67q20 0 29.5 -9t9.5 -24v-15q0 -32 -15 -63.5t-37 -54.5h-40q21 23 32.5 45t16.5 42q-19 1 -27 9.5t-8 22.5v14q0 15 9.5 24t29.5 9z" />
    <glyph glyph-name="thorn" unicode="&#xfe;" horiz-adv-x="518" 
d="M83 740h55v-310h9q14 47 48.5 70.5t85.5 23.5q94 0 142 -68.5t48 -199.5t-48 -199.5t-142 -68.5q-51 0 -85.5 23t-48.5 70h-9v-281h-55v940zM268 37q70 0 107 46t37 128v90q0 82 -37 128t-107 46q-27 0 -50.5 -8t-41.5 -23t-28 -36t-10 -47v-210q0 -26 10 -47t28 -36
t41.5 -23t50.5 -8z" />
    <glyph glyph-name="uacute" unicode="&#xfa;" horiz-adv-x="508" 
d="M374 81h-8q-14 -44 -48.5 -68.5t-89.5 -24.5q-71 0 -109.5 45.5t-38.5 136.5v342h55v-339q0 -65 28 -100.5t85 -35.5q26 0 49 8t40 23.5t27 38t10 50.5v355h55v-512h-55v81zM250 586l-35 19l85 163l50 -27z" />
    <glyph glyph-name="ubreve" unicode="&#x16d;" horiz-adv-x="508" 
d="M374 81h-8q-14 -44 -48.5 -68.5t-89.5 -24.5q-71 0 -109.5 45.5t-38.5 136.5v342h55v-339q0 -65 28 -100.5t85 -35.5q26 0 49 8t40 23.5t27 38t10 50.5v355h55v-512h-55v81zM252 600q-48 0 -78 27.5t-55 94.5l33 16l16 -31q18 -36 36 -49t48 -13t48 13t36 49l16 31
l33 -16q-25 -67 -55 -94.5t-78 -27.5z" />
    <glyph glyph-name="ucircumflex" unicode="&#xfb;" horiz-adv-x="508" 
d="M374 81h-8q-14 -44 -48.5 -68.5t-89.5 -24.5q-71 0 -109.5 45.5t-38.5 136.5v342h55v-339q0 -65 28 -100.5t85 -35.5q26 0 49 8t40 23.5t27 38t10 50.5v355h55v-512h-55v81zM285 756l106 -139l-30 -23l-109 122l-109 -122l-30 23l106 139h66z" />
    <glyph glyph-name="udieresis" unicode="&#xfc;" horiz-adv-x="508" 
d="M374 81h-8q-14 -44 -48.5 -68.5t-89.5 -24.5q-71 0 -109.5 45.5t-38.5 136.5v342h55v-339q0 -65 28 -100.5t85 -35.5q26 0 49 8t40 23.5t27 38t10 50.5v355h55v-512h-55v81zM168 629q-20 0 -29.5 9t-9.5 23v14q0 14 9.5 23t29.5 9t29.5 -9t9.5 -23v-14q0 -14 -9.5 -23
t-29.5 -9zM336 629q-20 0 -29.5 9t-9.5 23v14q0 14 9.5 23t29.5 9t29.5 -9t9.5 -23v-14q0 -14 -9.5 -23t-29.5 -9z" />
    <glyph glyph-name="uni1EE5" unicode="&#x1ee5;" horiz-adv-x="508" 
d="M374 81h-8q-14 -44 -48.5 -68.5t-89.5 -24.5q-71 0 -109.5 45.5t-38.5 136.5v342h55v-339q0 -65 28 -100.5t85 -35.5q26 0 49 8t40 23.5t27 38t10 50.5v355h55v-512h-55v81zM247 -154q-20 0 -29.5 9.5t-9.5 23.5v14q0 14 9.5 23t29.5 9t29.5 -9t9.5 -23v-14
q0 -14 -9.5 -23.5t-29.5 -9.5z" />
    <glyph glyph-name="ugrave" unicode="&#xf9;" horiz-adv-x="508" 
d="M374 81h-8q-14 -44 -48.5 -68.5t-89.5 -24.5q-71 0 -109.5 45.5t-38.5 136.5v342h55v-339q0 -65 28 -100.5t85 -35.5q26 0 49 8t40 23.5t27 38t10 50.5v355h55v-512h-55v81zM154 741l49 27l86 -163l-36 -19z" />
    <glyph glyph-name="uni1EE7" unicode="&#x1ee7;" horiz-adv-x="508" 
d="M374 81h-8q-14 -44 -48.5 -68.5t-89.5 -24.5q-71 0 -109.5 45.5t-38.5 136.5v342h55v-339q0 -65 28 -100.5t85 -35.5q26 0 49 8t40 23.5t27 38t10 50.5v355h55v-512h-55v81zM177 754h113q44 0 44 -39q0 -15 -7 -32.5t-24 -43.5l-37 -59l-32 17l57 112h-114v45z" />
    <glyph glyph-name="uhungarumlaut" unicode="&#x171;" horiz-adv-x="508" 
d="M374 81h-8q-14 -44 -48.5 -68.5t-89.5 -24.5q-71 0 -109.5 45.5t-38.5 136.5v342h55v-339q0 -65 28 -100.5t85 -35.5q26 0 49 8t40 23.5t27 38t10 50.5v355h55v-512h-55v81zM183 586l-33 18l86 164l47 -26zM329 586l-33 18l86 164l47 -26z" />
    <glyph glyph-name="umacron" unicode="&#x16b;" horiz-adv-x="508" 
d="M374 81h-8q-14 -44 -48.5 -68.5t-89.5 -24.5q-71 0 -109.5 45.5t-38.5 136.5v342h55v-339q0 -65 28 -100.5t85 -35.5q26 0 49 8t40 23.5t27 38t10 50.5v355h55v-512h-55v81zM129 692h246v-46h-246v46z" />
    <glyph glyph-name="uogonek" unicode="&#x173;" horiz-adv-x="508" 
d="M446 -169q-11 -16 -32 -26t-45 -10q-41 0 -63.5 17.5t-22.5 49.5q0 36 26 68t82 63l-1 7h-16v81h-8q-14 -44 -48.5 -68.5t-89.5 -24.5q-71 0 -109.5 45.5t-38.5 136.5v342h55v-339q0 -65 28 -100.5t85 -35.5q26 0 49 8t40 23.5t27 38t10 50.5v355h55v-512
q-56 -40 -78 -67.5t-22 -57.5q0 -41 42 -41q32 0 49 23l26 -26v0z" />
    <glyph glyph-name="uring" unicode="&#x16f;" horiz-adv-x="508" 
d="M374 81h-8q-14 -44 -48.5 -68.5t-89.5 -24.5q-71 0 -109.5 45.5t-38.5 136.5v342h55v-339q0 -65 28 -100.5t85 -35.5q26 0 49 8t40 23.5t27 38t10 50.5v355h55v-512h-55v81zM252 582q-47 0 -74 29t-27 76t27 76t74 29t74 -29t27 -76t-27 -76t-74 -29zM252 617
q27 0 43 15.5t16 42.5v24q0 27 -16 42.5t-43 15.5t-43 -15.5t-16 -42.5v-24q0 -27 16 -42.5t43 -15.5z" />
    <glyph glyph-name="utilde" unicode="&#x169;" horiz-adv-x="508" 
d="M374 81h-8q-14 -44 -48.5 -68.5t-89.5 -24.5q-71 0 -109.5 45.5t-38.5 136.5v342h55v-339q0 -65 28 -100.5t85 -35.5q26 0 49 8t40 23.5t27 38t10 50.5v355h55v-512h-55v81zM318 619q-17 0 -32.5 6t-39.5 22q-22 14 -36 19.5t-25 5.5q-16 0 -28.5 -8t-26.5 -22l-23 28
q32 47 79 47q17 0 32.5 -6t39.5 -22q22 -14 36 -19.5t25 -5.5q16 0 28.5 8t26.5 22l23 -28q-32 -47 -79 -47z" />
    <glyph glyph-name="uhorn" unicode="&#x1b0;" horiz-adv-x="512" 
d="M366 81q-14 -44 -48.5 -68.5t-89.5 -24.5q-71 0 -109.5 45.5t-38.5 136.5v342h55v-339q0 -65 28 -100.5t85 -35.5q26 0 49 8t40 23.5t27 38t10 50.5v355h80v111h48v-103q0 -28 -9 -37t-37 -9h-27v-474h-55v81h-8v0z" />
    <glyph glyph-name="uni1EE9" unicode="&#x1ee9;" horiz-adv-x="512" 
d="M366 81q-14 -44 -48.5 -68.5t-89.5 -24.5q-71 0 -109.5 45.5t-38.5 136.5v342h55v-339q0 -65 28 -100.5t85 -35.5q26 0 49 8t40 23.5t27 38t10 50.5v355h80v111h48v-103q0 -28 -9 -37t-37 -9h-27v-474h-55v81h-8v0zM254 586l-35 19l85 163l50 -27z" />
    <glyph glyph-name="uni1EF1" unicode="&#x1ef1;" horiz-adv-x="512" 
d="M366 81q-14 -44 -48.5 -68.5t-89.5 -24.5q-71 0 -109.5 45.5t-38.5 136.5v342h55v-339q0 -65 28 -100.5t85 -35.5q26 0 49 8t40 23.5t27 38t10 50.5v355h80v111h48v-103q0 -28 -9 -37t-37 -9h-27v-474h-55v81h-8v0zM249 -154q-20 0 -29.5 9.5t-9.5 23.5v14q0 14 9.5 23
t29.5 9t29.5 -9t9.5 -23v-14q0 -14 -9.5 -23.5t-29.5 -9.5z" />
    <glyph glyph-name="uni1EEB" unicode="&#x1eeb;" horiz-adv-x="512" 
d="M366 81q-14 -44 -48.5 -68.5t-89.5 -24.5q-71 0 -109.5 45.5t-38.5 136.5v342h55v-339q0 -65 28 -100.5t85 -35.5q26 0 49 8t40 23.5t27 38t10 50.5v355h80v111h48v-103q0 -28 -9 -37t-37 -9h-27v-474h-55v81h-8v0zM158 741l49 27l86 -163l-36 -19z" />
    <glyph glyph-name="uni1EED" unicode="&#x1eed;" horiz-adv-x="512" 
d="M366 81q-14 -44 -48.5 -68.5t-89.5 -24.5q-71 0 -109.5 45.5t-38.5 136.5v342h55v-339q0 -65 28 -100.5t85 -35.5q26 0 49 8t40 23.5t27 38t10 50.5v355h80v111h48v-103q0 -28 -9 -37t-37 -9h-27v-474h-55v81h-8v0zM181 754h113q44 0 44 -39q0 -15 -7 -32.5t-24 -43.5
l-37 -59l-32 17l57 112h-114v45z" />
    <glyph glyph-name="uni1EEF" unicode="&#x1eef;" horiz-adv-x="512" 
d="M366 81q-14 -44 -48.5 -68.5t-89.5 -24.5q-71 0 -109.5 45.5t-38.5 136.5v342h55v-339q0 -65 28 -100.5t85 -35.5q26 0 49 8t40 23.5t27 38t10 50.5v355h80v111h48v-103q0 -28 -9 -37t-37 -9h-27v-474h-55v81h-8v0zM315 622q-19 0 -33.5 6.5t-31.5 17.5q-17 12 -29 17.5
t-25 5.5q-15 0 -27.5 -7.5t-26.5 -21.5l-22 28q30 46 77 46q19 0 33.5 -6.5t30.5 -17.5q18 -12 30 -17.5t25 -5.5q27 0 54 29l22 -28q-32 -46 -77 -46z" />
    <glyph glyph-name="wacute" unicode="&#x1e83;" horiz-adv-x="681" 
d="M29 512h53l64 -262l44 -201h7l48 201l63 262h68l64 -262l48 -201h7l44 201l64 262h52l-128 -512h-72l-71 278l-38 179h-8l-39 -179l-70 -278h-73zM338 586l-35 19l85 163l50 -27z" />
    <glyph glyph-name="wcircumflex" unicode="&#x175;" horiz-adv-x="681" 
d="M29 512h53l64 -262l44 -201h7l48 201l63 262h68l64 -262l48 -201h7l44 201l64 262h52l-128 -512h-72l-71 278l-38 179h-8l-39 -179l-70 -278h-73zM373 756l106 -139l-30 -23l-109 122l-109 -122l-30 23l106 139h66z" />
    <glyph glyph-name="wdieresis" unicode="&#x1e85;" horiz-adv-x="681" 
d="M29 512h53l64 -262l44 -201h7l48 201l63 262h68l64 -262l48 -201h7l44 201l64 262h52l-128 -512h-72l-71 278l-38 179h-8l-39 -179l-70 -278h-73zM256 629q-20 0 -29.5 9t-9.5 23v14q0 14 9.5 23t29.5 9t29.5 -9t9.5 -23v-14q0 -14 -9.5 -23t-29.5 -9zM424 629
q-20 0 -29.5 9t-9.5 23v14q0 14 9.5 23t29.5 9t29.5 -9t9.5 -23v-14q0 -14 -9.5 -23t-29.5 -9z" />
    <glyph glyph-name="wgrave" unicode="&#x1e81;" horiz-adv-x="681" 
d="M29 512h53l64 -262l44 -201h7l48 201l63 262h68l64 -262l48 -201h7l44 201l64 262h52l-128 -512h-72l-71 278l-38 179h-8l-39 -179l-70 -278h-73zM242 741l49 27l86 -163l-36 -19z" />
    <glyph glyph-name="yacute" unicode="&#xfd;" horiz-adv-x="434" 
d="M359 512h54l-212 -663q-9 -29 -22 -39t-44 -10h-67v48h83l38 128l-171 536h55l89 -284l50 -180h8l50 180zM217 586l-35 19l85 163l50 -27z" />
    <glyph glyph-name="ycircumflex" unicode="&#x177;" horiz-adv-x="434" 
d="M359 512h54l-212 -663q-9 -29 -22 -39t-44 -10h-67v48h83l38 128l-171 536h55l89 -284l50 -180h8l50 180zM252 756l106 -139l-30 -23l-109 122l-109 -122l-30 23l106 139h66z" />
    <glyph glyph-name="ydieresis" unicode="&#xff;" horiz-adv-x="434" 
d="M359 512h54l-212 -663q-9 -29 -22 -39t-44 -10h-67v48h83l38 128l-171 536h55l89 -284l50 -180h8l50 180zM135 629q-20 0 -29.5 9t-9.5 23v14q0 14 9.5 23t29.5 9t29.5 -9t9.5 -23v-14q0 -14 -9.5 -23t-29.5 -9zM303 629q-20 0 -29.5 9t-9.5 23v14q0 14 9.5 23t29.5 9
t29.5 -9t9.5 -23v-14q0 -14 -9.5 -23t-29.5 -9z" />
    <glyph glyph-name="uni1EF5" unicode="&#x1ef5;" horiz-adv-x="434" 
d="M359 512h54l-212 -663q-9 -29 -22 -39t-44 -10h-67v48h83l38 128l-171 536h55l89 -284l50 -180h8l50 180zM342 -154q-20 0 -29.5 9.5t-9.5 23.5v14q0 14 9.5 23t29.5 9t29.5 -9t9.5 -23v-14q0 -14 -9.5 -23.5t-29.5 -9.5z" />
    <glyph glyph-name="ygrave" unicode="&#x1ef3;" horiz-adv-x="434" 
d="M359 512h54l-212 -663q-9 -29 -22 -39t-44 -10h-67v48h83l38 128l-171 536h55l89 -284l50 -180h8l50 180zM121 741l49 27l86 -163l-36 -19z" />
    <glyph glyph-name="uni1EF7" unicode="&#x1ef7;" horiz-adv-x="434" 
d="M359 512h54l-212 -663q-9 -29 -22 -39t-44 -10h-67v48h83l38 128l-171 536h55l89 -284l50 -180h8l50 180zM144 754h113q44 0 44 -39q0 -15 -7 -32.5t-24 -43.5l-37 -59l-32 17l57 112h-114v45z" />
    <glyph glyph-name="uni1EF9" unicode="&#x1ef9;" horiz-adv-x="434" 
d="M359 512h54l-212 -663q-9 -29 -22 -39t-44 -10h-67v48h83l38 128l-171 536h55l89 -284l50 -180h8l50 180zM285 619q-17 0 -32.5 6t-39.5 22q-22 14 -36 19.5t-25 5.5q-16 0 -28.5 -8t-26.5 -22l-23 28q32 47 79 47q17 0 32.5 -6t39.5 -22q22 -14 36 -19.5t25 -5.5
q16 0 28.5 8t26.5 22l23 -28q-32 -47 -79 -47z" />
    <glyph glyph-name="zacute" unicode="&#x17a;" horiz-adv-x="404" 
d="M28 0v44l279 420h-271v48h334v-43l-278 -421h286v-48h-350zM201 586l-35 19l85 163l50 -27z" />
    <glyph glyph-name="zcaron" unicode="&#x17e;" horiz-adv-x="404" 
d="M28 0v44l279 420h-271v48h334v-43l-278 -421h286v-48h-350zM170 601l-106 139l30 23l109 -122l109 122l30 -23l-106 -139h-66z" />
    <glyph glyph-name="zdotaccent" unicode="&#x17c;" horiz-adv-x="404" 
d="M28 0v44l279 420h-271v48h334v-43l-278 -421h286v-48h-350zM203 627q-20 0 -29.5 9t-9.5 24v14q0 14 9.5 23t29.5 9t29.5 -9t9.5 -23v-14q0 -15 -9.5 -24t-29.5 -9z" />
    <glyph glyph-name="Aacute" unicode="&#xc1;" horiz-adv-x="565" 
d="M482 0l-68 219h-265l-67 -219h-59l221 698h76l221 -698h-59zM317 535l-32 112h-7l-33 -112l-82 -269h238zM281 760l-35 19l85 163l50 -27z" />
    <glyph glyph-name="Abreve" unicode="&#x102;" horiz-adv-x="565" 
d="M482 0l-68 219h-265l-67 -219h-59l221 698h76l221 -698h-59zM317 535l-32 112h-7l-33 -112l-82 -269h238zM283 774q-48 0 -78 27.5t-55 94.5l33 16l16 -31q18 -36 36 -49t48 -13t48 13t36 49l16 31l33 -16q-25 -67 -55 -94.5t-78 -27.5z" />
    <glyph glyph-name="Acircumflex" unicode="&#xc2;" horiz-adv-x="565" 
d="M482 0l-68 219h-265l-67 -219h-59l221 698h76l221 -698h-59zM317 535l-32 112h-7l-33 -112l-82 -269h238zM316 930l106 -139l-30 -23l-109 122l-109 -122l-30 23l106 139h66z" />
    <glyph glyph-name="Adieresis" unicode="&#xc4;" horiz-adv-x="565" 
d="M482 0l-68 219h-265l-67 -219h-59l221 698h76l221 -698h-59zM317 535l-32 112h-7l-33 -112l-82 -269h238zM199 803q-20 0 -29.5 9t-9.5 23v14q0 14 9.5 23t29.5 9t29.5 -9t9.5 -23v-14q0 -14 -9.5 -23t-29.5 -9zM367 803q-20 0 -29.5 9t-9.5 23v14q0 14 9.5 23t29.5 9
t29.5 -9t9.5 -23v-14q0 -14 -9.5 -23t-29.5 -9z" />
    <glyph glyph-name="uni1EA0" unicode="&#x1ea0;" horiz-adv-x="565" 
d="M482 0l-68 219h-265l-67 -219h-59l221 698h76l221 -698h-59zM317 535l-32 112h-7l-33 -112l-82 -269h238zM283 -154q-20 0 -29.5 9.5t-9.5 23.5v14q0 14 9.5 23t29.5 9t29.5 -9t9.5 -23v-14q0 -14 -9.5 -23.5t-29.5 -9.5z" />
    <glyph glyph-name="Agrave" unicode="&#xc0;" horiz-adv-x="565" 
d="M482 0l-68 219h-265l-67 -219h-59l221 698h76l221 -698h-59zM317 535l-32 112h-7l-33 -112l-82 -269h238zM185 915l49 27l86 -163l-36 -19z" />
    <glyph glyph-name="uni1EA2" unicode="&#x1ea2;" horiz-adv-x="565" 
d="M482 0l-68 219h-265l-67 -219h-59l221 698h76l221 -698h-59zM317 535l-32 112h-7l-33 -112l-82 -269h238zM209 928h113q44 0 44 -39q0 -15 -7 -32.5t-24 -43.5l-37 -59l-32 17l57 112h-114v45z" />
    <glyph glyph-name="Amacron" unicode="&#x100;" horiz-adv-x="565" 
d="M482 0l-68 219h-265l-67 -219h-59l221 698h76l221 -698h-59zM317 535l-32 112h-7l-33 -112l-82 -269h238zM160 866h246v-46h-246v46z" />
    <glyph glyph-name="Aogonek" unicode="&#x104;" horiz-adv-x="565" 
d="M558 -169q-11 -16 -32 -26t-45 -10q-41 0 -63.5 17.5t-22.5 49.5q0 36 26 68t82 63l-1 7h-20l-68 219h-265l-67 -219h-59l221 698h76l221 -698q-56 -40 -78 -67.5t-22 -57.5q0 -41 42 -41q32 0 49 23zM317 535l-32 112h-7l-33 -112l-82 -269h238z" />
    <glyph glyph-name="Aring" unicode="&#xc5;" horiz-adv-x="565" 
d="M482 0l-68 219h-265l-67 -219h-59l221 698h76l221 -698h-59zM317 535l-32 112h-7l-33 -112l-82 -269h238zM283 755q-47 0 -74 29t-27 76t27 76t74 29t74 -29t27 -76t-27 -76t-74 -29zM283 790q27 0 43 15.5t16 42.5v24q0 27 -16 42.5t-43 15.5t-43 -15.5t-16 -42.5v-24
q0 -27 16 -42.5t43 -15.5z" />
    <glyph glyph-name="Aringacute" unicode="&#x1fa;" horiz-adv-x="565" 
d="M482 0l-68 219h-265l-67 -219h-59l221 698h76l221 -698h-59zM317 535l-32 112h-7l-33 -112l-82 -269h238zM288 981l-28 20l74 110l41 -27zM283 749q-47 0 -74 29t-27 76t27 76t74 29t74 -29t27 -76t-27 -76t-74 -29zM283 784q27 0 43 15.5t16 42.5v24q0 27 -16 42.5
t-43 15.5t-43 -15.5t-16 -42.5v-24q0 -27 16 -42.5t43 -15.5z" />
    <glyph glyph-name="Atilde" unicode="&#xc3;" horiz-adv-x="565" 
d="M482 0l-68 219h-265l-67 -219h-59l221 698h76l221 -698h-59zM317 535l-32 112h-7l-33 -112l-82 -269h238zM349 793q-17 0 -32.5 6t-39.5 22q-22 14 -36 19.5t-25 5.5q-16 0 -28.5 -8t-26.5 -22l-23 28q32 47 79 47q17 0 32.5 -6t39.5 -22q22 -14 36 -19.5t25 -5.5
q16 0 28.5 8t26.5 22l23 -28q-32 -47 -79 -47z" />
    <glyph glyph-name="uni1EAE" unicode="&#x1eae;" horiz-adv-x="565" 
d="M482 0l-68 219h-265l-67 -219h-59l221 698h76l221 -698h-59zM317 535l-32 112h-7l-33 -112l-82 -269h238zM283 763q-31 0 -52.5 10t-36.5 27t-25.5 38t-18.5 44l32 15l16 -30q17 -31 35 -47t50 -16t50 16t35 47l16 30l32 -15q-8 -23 -18.5 -44.5t-25.5 -38t-36.5 -26.5
t-52.5 -10zM282 872l-34 18l89 163l46 -25z" />
    <glyph glyph-name="uni1EB6" unicode="&#x1eb6;" horiz-adv-x="565" 
d="M482 0l-68 219h-265l-67 -219h-59l221 698h76l221 -698h-59zM317 535l-32 112h-7l-33 -112l-82 -269h238zM283 774q-48 0 -78 27.5t-55 94.5l33 16l16 -31q18 -36 36 -49t48 -13t48 13t36 49l16 31l33 -16q-25 -67 -55 -94.5t-78 -27.5zM283 -154q-20 0 -29.5 9.5
t-9.5 23.5v14q0 14 9.5 23t29.5 9t29.5 -9t9.5 -23v-14q0 -14 -9.5 -23.5t-29.5 -9.5z" />
    <glyph glyph-name="uni1EB0" unicode="&#x1eb0;" horiz-adv-x="565" 
d="M482 0l-68 219h-265l-67 -219h-59l221 698h76l221 -698h-59zM317 535l-32 112h-7l-33 -112l-82 -269h238zM283 763q-31 0 -52.5 10t-36.5 26.5t-25.5 38t-18.5 44.5l32 15l16 -30q17 -31 35 -47t50 -16t50 16t35 47l16 30l32 -15q-8 -23 -18.5 -44t-25.5 -38t-36.5 -27
t-52.5 -10zM182 1029l47 24l89 -163l-34 -18z" />
    <glyph glyph-name="uni1EB2" unicode="&#x1eb2;" horiz-adv-x="565" 
d="M482 0l-68 219h-265l-67 -219h-59l221 698h76l221 -698h-59zM317 535l-32 112h-7l-33 -112l-82 -269h238zM206 1041h106q45 0 45 -39q0 -15 -7 -32.5t-24 -43.5l-38 -59l-31 17l58 114h-109v43zM283 763q-31 0 -52.5 10t-36.5 26.5t-25.5 38t-18.5 44.5l32 15l16 -30
q17 -31 35 -47t50 -16t50 16t35 47l16 30l32 -15q-8 -23 -18.5 -44t-25.5 -38t-36.5 -27t-52.5 -10z" />
    <glyph glyph-name="uni1EB4" unicode="&#x1eb4;" horiz-adv-x="565" 
d="M482 0l-68 219h-265l-67 -219h-59l221 698h76l221 -698h-59zM317 535l-32 112h-7l-33 -112l-82 -269h238zM348 941q-20 0 -37 8.5t-34 19.5q-21 13 -35 19t-25 6q-16 0 -28.5 -8t-26.5 -22l-23 28q14 20 33 33.5t46 13.5q20 0 37 -8t34 -19q40 -26 60 -26q16 0 28.5 8
t26.5 22l23 -28q-14 -20 -33 -33.5t-46 -13.5zM283 763q-31 0 -52.5 10t-36.5 26.5t-25.5 38t-18.5 44.5l32 15l16 -30q17 -31 35 -47t50 -16t50 16t35 47l16 30l32 -15q-8 -23 -18.5 -44t-25.5 -38t-36.5 -27t-52.5 -10z" />
    <glyph glyph-name="uni1EA4" unicode="&#x1ea4;" horiz-adv-x="565" 
d="M482 0l-68 219h-265l-67 -219h-59l221 698h76l221 -698h-59zM317 535l-32 112h-7l-33 -112l-82 -269h238zM411 872l-35 19l85 163l50 -27zM316 915l107 -134l-30 -22l-110 115l-110 -115l-30 22l107 134h66z" />
    <glyph glyph-name="uni1EAC" unicode="&#x1eac;" horiz-adv-x="565" 
d="M482 0l-68 219h-265l-67 -219h-59l221 698h76l221 -698h-59zM317 535l-32 112h-7l-33 -112l-82 -269h238zM316 930l106 -139l-30 -23l-109 122l-109 -122l-30 23l106 139h66zM283 -154q-20 0 -29.5 9.5t-9.5 23.5v14q0 14 9.5 23t29.5 9t29.5 -9t9.5 -23v-14
q0 -14 -9.5 -23.5t-29.5 -9.5z" />
    <glyph glyph-name="uni1EA6" unicode="&#x1ea6;" horiz-adv-x="565" 
d="M482 0l-68 219h-265l-67 -219h-59l221 698h76l221 -698h-59zM317 535l-32 112h-7l-33 -112l-82 -269h238zM55 1027l50 27l85 -163l-35 -19zM316 915l107 -134l-30 -22l-110 115l-110 -115l-30 22l107 134h66z" />
    <glyph glyph-name="uni1EA8" unicode="&#x1ea8;" horiz-adv-x="565" 
d="M482 0l-68 219h-265l-67 -219h-59l221 698h76l221 -698h-59zM317 535l-32 112h-7l-33 -112l-82 -269h238zM332 1041h105q24 0 34.5 -9.5t10.5 -29.5q0 -15 -7 -32.5t-24 -43.5l-37 -59l-31 17l58 114h-109v43zM316 915l107 -134l-30 -22l-110 115l-110 -115l-30 22
l107 134h66z" />
    <glyph glyph-name="uni1EAA" unicode="&#x1eaa;" horiz-adv-x="565" 
d="M482 0l-68 219h-265l-67 -219h-59l221 698h76l221 -698h-59zM317 535l-32 112h-7l-33 -112l-82 -269h238zM218 1043q17 0 32.5 -6t39.5 -22q22 -14 36 -19.5t25 -5.5q16 0 28.5 8t26.5 22l23 -28q-32 -47 -79 -47q-17 0 -32.5 6t-39.5 22q-22 14 -36 19.5t-25 5.5
q-16 0 -28.5 -8t-26.5 -22l-23 28q32 47 79 47zM316 915l107 -134l-30 -22l-110 115l-110 -115l-30 22l107 134h66z" />
    <glyph glyph-name="AE" unicode="&#xc6;" horiz-adv-x="803" 
d="M373 216h-209l-102 -216h-59l329 698h411v-51h-312v-267h296v-51h-296v-278h312v-51h-370v216zM362 648l-177 -381h188v381h-11z" />
    <glyph glyph-name="AEacute" unicode="&#x1fc;" horiz-adv-x="803" 
d="M373 216h-209l-102 -216h-59l329 698h411v-51h-312v-267h296v-51h-296v-278h312v-51h-370v216zM362 648l-177 -381h188v381h-11zM533 760l-35 19l85 163l50 -27z" />
    <glyph glyph-name="Cacute" unicode="&#x106;" horiz-adv-x="556" 
d="M303 -12q-57 0 -102.5 20t-78 63t-49.5 111.5t-17 166.5q0 97 17 166t49.5 112t78 63t102.5 20q84 0 133 -36.5t78 -107.5l-47 -28q-20 60 -58 90t-106 30q-88 0 -136.5 -62.5t-48.5 -183.5v-126q0 -121 48.5 -183.5t136.5 -62.5q72 0 110.5 32t58.5 95l46 -27
q-27 -74 -78.5 -113t-136.5 -39zM299 760l-35 19l85 163l50 -27z" />
    <glyph glyph-name="Ccaron" unicode="&#x10c;" horiz-adv-x="556" 
d="M303 -12q-57 0 -102.5 20t-78 63t-49.5 111.5t-17 166.5q0 97 17 166t49.5 112t78 63t102.5 20q84 0 133 -36.5t78 -107.5l-47 -28q-20 60 -58 90t-106 30q-88 0 -136.5 -62.5t-48.5 -183.5v-126q0 -121 48.5 -183.5t136.5 -62.5q72 0 110.5 32t58.5 95l46 -27
q-27 -74 -78.5 -113t-136.5 -39zM268 774l-106 139l30 23l109 -122l109 122l30 -23l-106 -139h-66z" />
    <glyph glyph-name="Ccedilla" unicode="&#xc7;" horiz-adv-x="556" 
d="M303 658q-88 0 -136.5 -62.5t-48.5 -183.5v-126q0 -121 48.5 -183.5t136.5 -62.5q72 0 110.5 32t58.5 95l46 -27q-27 -74 -76.5 -111.5t-125.5 -39.5l-12 -62h6q5 5 12.5 8.5t19.5 3.5q28 0 44 -17t16 -50q0 -38 -26 -57.5t-66 -19.5q-33 0 -53.5 12t-30.5 25l26 29
q10 -11 24 -18.5t34 -7.5q48 0 48 39t-48 39h-44l15 76q-52 3 -93.5 25t-71 65.5t-45 110t-15.5 159.5q0 97 17 166t49.5 112t78 63t102.5 20q84 0 133 -36.5t78 -107.5l-47 -28q-20 60 -58 90t-106 30z" />
    <glyph glyph-name="Ccircumflex" unicode="&#x108;" horiz-adv-x="556" 
d="M303 -12q-57 0 -102.5 20t-78 63t-49.5 111.5t-17 166.5q0 97 17 166t49.5 112t78 63t102.5 20q84 0 133 -36.5t78 -107.5l-47 -28q-20 60 -58 90t-106 30q-88 0 -136.5 -62.5t-48.5 -183.5v-126q0 -121 48.5 -183.5t136.5 -62.5q72 0 110.5 32t58.5 95l46 -27
q-27 -74 -78.5 -113t-136.5 -39zM334 930l106 -139l-30 -23l-109 122l-109 -122l-30 23l106 139h66z" />
    <glyph glyph-name="Cdotaccent" unicode="&#x10a;" horiz-adv-x="556" 
d="M303 -12q-57 0 -102.5 20t-78 63t-49.5 111.5t-17 166.5q0 97 17 166t49.5 112t78 63t102.5 20q84 0 133 -36.5t78 -107.5l-47 -28q-20 60 -58 90t-106 30q-88 0 -136.5 -62.5t-48.5 -183.5v-126q0 -121 48.5 -183.5t136.5 -62.5q72 0 110.5 32t58.5 95l46 -27
q-27 -74 -78.5 -113t-136.5 -39zM301 804q-20 0 -29.5 9t-9.5 24v14q0 14 9.5 23t29.5 9t29.5 -9t9.5 -23v-14q0 -15 -9.5 -24t-29.5 -9z" />
    <glyph glyph-name="Dcaron" unicode="&#x10e;" horiz-adv-x="602" 
d="M88 698h209q121 0 185 -84t64 -265q0 -182 -64 -265.5t-185 -83.5h-209v698zM298 51q90 0 138 62t48 173v126q0 111 -48 173t-138 62h-152v-596h152zM241 774l-106 139l30 23l109 -122l109 122l30 -23l-106 -139h-66z" />
    <glyph glyph-name="Dcroat" unicode="&#x110;" horiz-adv-x="604" 
d="M88 343h-65v44h65v311h209q121 0 185 -84t64 -265q0 -182 -64 -265.5t-185 -83.5h-209v343zM298 51q90 0 138 62t48 173v126q0 111 -48 173t-138 62h-152v-260h138v-44h-138v-292h152z" />
    <glyph glyph-name="Eth" unicode="&#xd0;" horiz-adv-x="604" 
d="M88 343h-65v44h65v311h209q121 0 185 -84t64 -265q0 -182 -64 -265.5t-185 -83.5h-209v343zM298 51q90 0 138 62t48 173v126q0 111 -48 173t-138 62h-152v-260h138v-44h-138v-292h152z" />
    <glyph glyph-name="Eacute" unicode="&#xc9;" horiz-adv-x="518" 
d="M88 0v698h370v-51h-312v-267h296v-51h-296v-278h312v-51h-370zM270 760l-35 19l85 163l50 -27z" />
    <glyph glyph-name="Ebreve" unicode="&#x114;" horiz-adv-x="518" 
d="M88 0v698h370v-51h-312v-267h296v-51h-296v-278h312v-51h-370zM272 774q-48 0 -78 27.5t-55 94.5l33 16l16 -31q18 -36 36 -49t48 -13t48 13t36 49l16 31l33 -16q-25 -67 -55 -94.5t-78 -27.5z" />
    <glyph glyph-name="Ecaron" unicode="&#x11a;" horiz-adv-x="518" 
d="M88 0v698h370v-51h-312v-267h296v-51h-296v-278h312v-51h-370zM239 774l-106 139l30 23l109 -122l109 122l30 -23l-106 -139h-66z" />
    <glyph glyph-name="Ecircumflex" unicode="&#xca;" horiz-adv-x="518" 
d="M88 0v698h370v-51h-312v-267h296v-51h-296v-278h312v-51h-370zM305 930l106 -139l-30 -23l-109 122l-109 -122l-30 23l106 139h66z" />
    <glyph glyph-name="Edieresis" unicode="&#xcb;" horiz-adv-x="518" 
d="M88 0v698h370v-51h-312v-267h296v-51h-296v-278h312v-51h-370zM188 803q-20 0 -29.5 9t-9.5 23v14q0 14 9.5 23t29.5 9t29.5 -9t9.5 -23v-14q0 -14 -9.5 -23t-29.5 -9zM356 803q-20 0 -29.5 9t-9.5 23v14q0 14 9.5 23t29.5 9t29.5 -9t9.5 -23v-14q0 -14 -9.5 -23
t-29.5 -9z" />
    <glyph glyph-name="Edotaccent" unicode="&#x116;" horiz-adv-x="518" 
d="M88 0v698h370v-51h-312v-267h296v-51h-296v-278h312v-51h-370zM272 804q-20 0 -29.5 9t-9.5 24v14q0 14 9.5 23t29.5 9t29.5 -9t9.5 -23v-14q0 -15 -9.5 -24t-29.5 -9z" />
    <glyph glyph-name="uni1EB8" unicode="&#x1eb8;" horiz-adv-x="518" 
d="M88 0v698h370v-51h-312v-267h296v-51h-296v-278h312v-51h-370zM272 -154q-20 0 -29.5 9.5t-9.5 23.5v14q0 14 9.5 23t29.5 9t29.5 -9t9.5 -23v-14q0 -14 -9.5 -23.5t-29.5 -9.5z" />
    <glyph glyph-name="Egrave" unicode="&#xc8;" horiz-adv-x="518" 
d="M88 0v698h370v-51h-312v-267h296v-51h-296v-278h312v-51h-370zM174 915l49 27l86 -163l-36 -19z" />
    <glyph glyph-name="uni1EBA" unicode="&#x1eba;" horiz-adv-x="518" 
d="M88 0v698h370v-51h-312v-267h296v-51h-296v-278h312v-51h-370zM198 928h113q44 0 44 -39q0 -15 -7 -32.5t-24 -43.5l-37 -59l-32 17l57 112h-114v45z" />
    <glyph glyph-name="Emacron" unicode="&#x112;" horiz-adv-x="518" 
d="M88 0v698h370v-51h-312v-267h296v-51h-296v-278h312v-51h-370zM149 866h246v-46h-246v46z" />
    <glyph glyph-name="Eogonek" unicode="&#x118;" horiz-adv-x="518" 
d="M88 698h370v-51h-312v-267h296v-51h-296v-278h312v-51q-56 -40 -78 -67.5t-22 -57.5q0 -41 42 -41q32 0 49 23l26 -26q-11 -16 -32 -26t-45 -10q-41 0 -63.5 17.5t-22.5 49.5q0 36 26 68t82 63l-2 7h-330v698z" />
    <glyph glyph-name="uni1EBC" unicode="&#x1ebc;" horiz-adv-x="518" 
d="M88 0v698h370v-51h-312v-267h296v-51h-296v-278h312v-51h-370zM338 793q-17 0 -32.5 6t-39.5 22q-22 14 -36 19.5t-25 5.5q-16 0 -28.5 -8t-26.5 -22l-23 28q32 47 79 47q17 0 32.5 -6t39.5 -22q22 -14 36 -19.5t25 -5.5q16 0 28.5 8t26.5 22l23 -28q-32 -47 -79 -47z
" />
    <glyph glyph-name="uni1EBE" unicode="&#x1ebe;" horiz-adv-x="518" 
d="M88 0v698h370v-51h-312v-267h296v-51h-296v-278h312v-51h-370zM400 872l-35 19l85 163l50 -27zM305 915l107 -134l-30 -22l-110 115l-110 -115l-30 22l107 134h66z" />
    <glyph glyph-name="uni1EC6" unicode="&#x1ec6;" horiz-adv-x="518" 
d="M88 0v698h370v-51h-312v-267h296v-51h-296v-278h312v-51h-370zM305 930l106 -139l-30 -23l-109 122l-109 -122l-30 23l106 139h66zM272 -154q-20 0 -29.5 9.5t-9.5 23.5v14q0 14 9.5 23t29.5 9t29.5 -9t9.5 -23v-14q0 -14 -9.5 -23.5t-29.5 -9.5z" />
    <glyph glyph-name="uni1EC0" unicode="&#x1ec0;" horiz-adv-x="518" 
d="M88 0v698h370v-51h-312v-267h296v-51h-296v-278h312v-51h-370zM44 1027l50 27l85 -163l-35 -19zM305 915l107 -134l-30 -22l-110 115l-110 -115l-30 22l107 134h66z" />
    <glyph glyph-name="uni1EC2" unicode="&#x1ec2;" horiz-adv-x="518" 
d="M88 0v698h370v-51h-312v-267h296v-51h-296v-278h312v-51h-370zM321 1041h105q24 0 34.5 -9.5t10.5 -29.5q0 -15 -7 -32.5t-24 -43.5l-37 -59l-31 17l58 114h-109v43zM305 915l107 -134l-30 -22l-110 115l-110 -115l-30 22l107 134h66z" />
    <glyph glyph-name="uni1EC4" unicode="&#x1ec4;" horiz-adv-x="518" 
d="M88 0v698h370v-51h-312v-267h296v-51h-296v-278h312v-51h-370zM207 1043q17 0 32.5 -6t39.5 -22q22 -14 36 -19.5t25 -5.5q16 0 28.5 8t26.5 22l23 -28q-32 -47 -79 -47q-17 0 -32.5 6t-39.5 22q-22 14 -36 19.5t-25 5.5q-16 0 -28.5 -8t-26.5 -22l-23 28q32 47 79 47z
M305 915l107 -134l-30 -22l-110 115l-110 -115l-30 22l107 134h66z" />
    <glyph glyph-name="uni018F" unicode="&#x18f;" horiz-adv-x="629" 
d="M314 -12q-60 0 -108 20t-81 63t-51 111.5t-18 166.5v13h456v50q0 121 -52 184t-146 63q-144 0 -186 -150l-49 20q24 88 83.5 134.5t151.5 46.5q60 0 108 -20t81 -63t51 -112t18 -166q0 -98 -18 -166.5t-51 -111.5t-81 -63t-108 -20zM116 286q0 -121 52 -184t146 -63
t146 63t52 184v29h-396v-29z" />
    <glyph glyph-name="Gbreve" unicode="&#x11e;" horiz-adv-x="616" 
d="M496 104h-8q-14 -52 -58.5 -84t-123.5 -32q-56 0 -102 20t-79 63t-51 111.5t-18 166.5q0 97 18 166t51 112t81 63t108 20q90 0 143 -38.5t82 -105.5l-48 -28q-22 57 -65 89t-112 32q-93 0 -144.5 -63t-51.5 -184v-126q0 -121 51.5 -184t144.5 -63q40 0 73 12t57 34.5
t37 54.5t13 73v84h-146v51h202v-348h-54v104zM315 774q-48 0 -78 27.5t-55 94.5l33 16l16 -31q18 -36 36 -49t48 -13t48 13t36 49l16 31l33 -16q-25 -67 -55 -94.5t-78 -27.5z" />
    <glyph glyph-name="Gcircumflex" unicode="&#x11c;" horiz-adv-x="616" 
d="M496 104h-8q-14 -52 -58.5 -84t-123.5 -32q-56 0 -102 20t-79 63t-51 111.5t-18 166.5q0 97 18 166t51 112t81 63t108 20q90 0 143 -38.5t82 -105.5l-48 -28q-22 57 -65 89t-112 32q-93 0 -144.5 -63t-51.5 -184v-126q0 -121 51.5 -184t144.5 -63q40 0 73 12t57 34.5
t37 54.5t13 73v84h-146v51h202v-348h-54v104zM348 930l106 -139l-30 -23l-109 122l-109 -122l-30 23l106 139h66z" />
    <glyph glyph-name="Gcommaaccent" unicode="&#x122;" horiz-adv-x="616" 
d="M496 104h-8q-14 -52 -58.5 -84t-123.5 -32q-56 0 -102 20t-79 63t-51 111.5t-18 166.5q0 97 18 166t51 112t81 63t108 20q90 0 143 -38.5t82 -105.5l-48 -28q-22 57 -65 89t-112 32q-93 0 -144.5 -63t-51.5 -184v-126q0 -121 51.5 -184t144.5 -63q40 0 73 12t57 34.5
t37 54.5t13 73v84h-146v51h202v-348h-54v104zM310 -67q20 0 29.5 -9t9.5 -24v-15q0 -32 -15 -63.5t-37 -54.5h-40q21 23 32.5 45t16.5 42q-19 1 -27 9.5t-8 22.5v14q0 15 9.5 24t29.5 9z" />
    <glyph glyph-name="Gdotaccent" unicode="&#x120;" horiz-adv-x="616" 
d="M496 104h-8q-14 -52 -58.5 -84t-123.5 -32q-56 0 -102 20t-79 63t-51 111.5t-18 166.5q0 97 18 166t51 112t81 63t108 20q90 0 143 -38.5t82 -105.5l-48 -28q-22 57 -65 89t-112 32q-93 0 -144.5 -63t-51.5 -184v-126q0 -121 51.5 -184t144.5 -63q40 0 73 12t57 34.5
t37 54.5t13 73v84h-146v51h202v-348h-54v104zM315 804q-20 0 -29.5 9t-9.5 24v14q0 14 9.5 23t29.5 9t29.5 -9t9.5 -23v-14q0 -15 -9.5 -24t-29.5 -9z" />
    <glyph glyph-name="Hbar" unicode="&#x126;" horiz-adv-x="636" 
d="M488 329h-339v-329h-58v527h-68v43h68v128h58v-128h339v128h58v-128h68v-43h-68v-527h-58v329zM488 380v147h-339v-147h339z" />
    <glyph glyph-name="Hcircumflex" unicode="&#x124;" horiz-adv-x="632" 
d="M485 329h-339v-329h-58v698h58v-318h339v318h58v-698h-58v329zM349 930l106 -139l-30 -23l-109 122l-109 -122l-30 23l106 139h66z" />
    <glyph glyph-name="Iacute" unicode="&#xcd;" horiz-adv-x="352" 
d="M56 0v48h91v602h-91v48h240v-48h-91v-602h91v-48h-240zM175 760l-35 19l85 163l50 -27z" />
    <glyph glyph-name="Ibreve" unicode="&#x12c;" horiz-adv-x="352" 
d="M56 0v48h91v602h-91v48h240v-48h-91v-602h91v-48h-240zM177 774q-48 0 -78 27.5t-55 94.5l33 16l16 -31q18 -36 36 -49t48 -13t48 13t36 49l16 31l33 -16q-25 -67 -55 -94.5t-78 -27.5z" />
    <glyph glyph-name="Icircumflex" unicode="&#xce;" horiz-adv-x="352" 
d="M56 0v48h91v602h-91v48h240v-48h-91v-602h91v-48h-240zM210 930l106 -139l-30 -23l-109 122l-109 -122l-30 23l106 139h66z" />
    <glyph glyph-name="Idieresis" unicode="&#xcf;" horiz-adv-x="352" 
d="M56 0v48h91v602h-91v48h240v-48h-91v-602h91v-48h-240zM93 803q-20 0 -29.5 9t-9.5 23v14q0 14 9.5 23t29.5 9t29.5 -9t9.5 -23v-14q0 -14 -9.5 -23t-29.5 -9zM261 803q-20 0 -29.5 9t-9.5 23v14q0 14 9.5 23t29.5 9t29.5 -9t9.5 -23v-14q0 -14 -9.5 -23t-29.5 -9z" />
    <glyph glyph-name="Idotaccent" unicode="&#x130;" horiz-adv-x="352" 
d="M56 0v48h91v602h-91v48h240v-48h-91v-602h91v-48h-240zM177 804q-20 0 -29.5 9t-9.5 24v14q0 14 9.5 23t29.5 9t29.5 -9t9.5 -23v-14q0 -15 -9.5 -24t-29.5 -9z" />
    <glyph glyph-name="uni1ECA" unicode="&#x1eca;" horiz-adv-x="352" 
d="M56 0v48h91v602h-91v48h240v-48h-91v-602h91v-48h-240zM176 -154q-20 0 -29.5 9.5t-9.5 23.5v14q0 14 9.5 23t29.5 9t29.5 -9t9.5 -23v-14q0 -14 -9.5 -23.5t-29.5 -9.5z" />
    <glyph glyph-name="Igrave" unicode="&#xcc;" horiz-adv-x="352" 
d="M56 0v48h91v602h-91v48h240v-48h-91v-602h91v-48h-240zM79 915l49 27l86 -163l-36 -19z" />
    <glyph glyph-name="uni1EC8" unicode="&#x1ec8;" horiz-adv-x="352" 
d="M56 0v48h91v602h-91v48h240v-48h-91v-602h91v-48h-240zM102 928h113q44 0 44 -39q0 -15 -7 -32.5t-24 -43.5l-37 -59l-32 17l57 112h-114v45z" />
    <glyph glyph-name="Imacron" unicode="&#x12a;" horiz-adv-x="352" 
d="M56 0v48h91v602h-91v48h240v-48h-91v-602h91v-48h-240zM54 866h246v-46h-246v46z" />
    <glyph glyph-name="Iogonek" unicode="&#x12e;" horiz-adv-x="352" 
d="M56 48h91v602h-91v48h240v-48h-91v-602h91v-48q-54 -38 -77 -66t-23 -59q0 -22 12 -31.5t30 -9.5q17 0 29 6.5t20 16.5l26 -26q-9 -14 -29.5 -25t-47.5 -11q-38 0 -62 16.5t-24 50.5q0 41 30 72.5t78 58.5l-2 7h-200v48z" />
    <glyph glyph-name="Itilde" unicode="&#x128;" horiz-adv-x="352" 
d="M56 0v48h91v602h-91v48h240v-48h-91v-602h91v-48h-240zM243 793q-17 0 -32.5 6t-39.5 22q-22 14 -36 19.5t-25 5.5q-16 0 -28.5 -8t-26.5 -22l-23 28q32 47 79 47q17 0 32.5 -6t39.5 -22q22 -14 36 -19.5t25 -5.5q16 0 28.5 8t26.5 22l23 -28q-32 -47 -79 -47z" />
    <glyph glyph-name="IJ" unicode="&#x132;" horiz-adv-x="577" 
d="M494 698v-509q0 -96 -56 -148.5t-150 -52.5q-90 0 -140 42t-64 114l51 14q12 -55 48 -86.5t105 -31.5q72 0 110 40t38 118v449h-149v51h207zM83 698h58v-408h-58v408z" />
    <glyph glyph-name="Jcircumflex" unicode="&#x134;" horiz-adv-x="445" 
d="M364 698v-536q0 -83 -47 -128.5t-125 -45.5q-75 0 -115.5 38.5t-54.5 103.5l52 13q23 -103 118 -103q55 0 84.5 33t29.5 98v476h-218v51h276zM262 930l106 -139l-30 -23l-109 122l-109 -122l-30 23l106 139h66z" />
    <glyph glyph-name="Kcommaaccent" unicode="&#x136;" horiz-adv-x="552" 
d="M248 362l-102 -128v-234h-58v698h58v-244l-4 -152h8l113 152l191 244h66l-235 -297l246 -401h-68zM296 -67q20 0 29.5 -9t9.5 -24v-15q0 -32 -15 -63.5t-37 -54.5h-40q21 23 32.5 45t16.5 42q-19 1 -27 9.5t-8 22.5v14q0 15 9.5 24t29.5 9z" />
    <glyph glyph-name="Lacute" unicode="&#x139;" horiz-adv-x="443" 
d="M88 0v698h58v-647h275v-51h-333zM116 760l-35 19l85 163l50 -27z" />
    <glyph glyph-name="Lcaron" unicode="&#x13d;" horiz-adv-x="443" 
d="M88 0v698h58v-647h275v-51h-333zM262 559h-37l13 181h62z" />
    <glyph glyph-name="Lcommaaccent" unicode="&#x13b;" horiz-adv-x="443" 
d="M88 0v698h58v-647h275v-51h-333zM265 -67q20 0 29.5 -9t9.5 -24v-15q0 -32 -15 -63.5t-37 -54.5h-40q21 23 32.5 45t16.5 42q-19 1 -27 9.5t-8 22.5v14q0 15 9.5 24t29.5 9z" />
    <glyph glyph-name="Ldot" unicode="&#x13f;" horiz-adv-x="443" 
d="M88 0v698h58v-647h275v-51h-333zM338 284q-20 0 -29.5 9t-9.5 24v14q0 14 9.5 23t29.5 9t29.5 -9t9.5 -23v-14q0 -15 -9.5 -24t-29.5 -9z" />
    <glyph glyph-name="Lslash" unicode="&#x141;" horiz-adv-x="449" 
d="M427 0h-333v284l-87 -33v47l87 33v367h58v-347l169 63v-47l-169 -63v-253h275v-51z" />
    <glyph glyph-name="Nacute" unicode="&#x143;" horiz-adv-x="632" 
d="M221 474l-74 155h-7l4 -155v-474h-56v698h75l248 -474l74 -155h7l-4 155v474h56v-698h-75zM314 760l-35 19l85 163l50 -27z" />
    <glyph glyph-name="Ncaron" unicode="&#x147;" horiz-adv-x="632" 
d="M221 474l-74 155h-7l4 -155v-474h-56v698h75l248 -474l74 -155h7l-4 155v474h56v-698h-75zM283 774l-106 139l30 23l109 -122l109 122l30 -23l-106 -139h-66z" />
    <glyph glyph-name="Ncommaaccent" unicode="&#x145;" horiz-adv-x="632" 
d="M221 474l-74 155h-7l4 -155v-474h-56v698h75l248 -474l74 -155h7l-4 155v474h56v-698h-75zM316 -67q20 0 29.5 -9t9.5 -24v-15q0 -32 -15 -63.5t-37 -54.5h-40q21 23 32.5 45t16.5 42q-19 1 -27 9.5t-8 22.5v14q0 15 9.5 24t29.5 9z" />
    <glyph glyph-name="Ntilde" unicode="&#xd1;" horiz-adv-x="632" 
d="M221 474l-74 155h-7l4 -155v-474h-56v698h75l248 -474l74 -155h7l-4 155v474h56v-698h-75zM382 793q-17 0 -32.5 6t-39.5 22q-22 14 -36 19.5t-25 5.5q-16 0 -28.5 -8t-26.5 -22l-23 28q32 47 79 47q17 0 32.5 -6t39.5 -22q22 -14 36 -19.5t25 -5.5q16 0 28.5 8t26.5 22
l23 -28q-32 -47 -79 -47z" />
    <glyph glyph-name="Eng" unicode="&#x14a;" horiz-adv-x="632" 
d="M88 0v698h75l248 -474l74 -155h7l-4 155v474h56v-828q0 -37 -16.5 -53.5t-53.5 -16.5h-61v48h76v152h-20l-248 474l-73 155h-8l4 -155v-474h-56z" />
    <glyph glyph-name="Oacute" unicode="&#xd3;" horiz-adv-x="629" 
d="M314 -12q-60 0 -108 20t-81 63t-51 111.5t-18 166.5q0 97 18 166t51 112t81 63t108 20t108 -20t81 -63t51 -112t18 -166q0 -98 -18 -166.5t-51 -111.5t-81 -63t-108 -20zM314 40q94 0 145 62.5t51 183.5v126q0 121 -51 183.5t-145 62.5t-145 -62.5t-51 -183.5v-126
q0 -121 51 -183.5t145 -62.5zM312 760l-35 19l85 163l50 -27z" />
    <glyph glyph-name="Obreve" unicode="&#x14e;" horiz-adv-x="629" 
d="M314 -12q-60 0 -108 20t-81 63t-51 111.5t-18 166.5q0 97 18 166t51 112t81 63t108 20t108 -20t81 -63t51 -112t18 -166q0 -98 -18 -166.5t-51 -111.5t-81 -63t-108 -20zM314 40q94 0 145 62.5t51 183.5v126q0 121 -51 183.5t-145 62.5t-145 -62.5t-51 -183.5v-126
q0 -121 51 -183.5t145 -62.5zM314 774q-48 0 -78 27.5t-55 94.5l33 16l16 -31q18 -36 36 -49t48 -13t48 13t36 49l16 31l33 -16q-25 -67 -55 -94.5t-78 -27.5z" />
    <glyph glyph-name="Ocircumflex" unicode="&#xd4;" horiz-adv-x="629" 
d="M314 -12q-60 0 -108 20t-81 63t-51 111.5t-18 166.5q0 97 18 166t51 112t81 63t108 20t108 -20t81 -63t51 -112t18 -166q0 -98 -18 -166.5t-51 -111.5t-81 -63t-108 -20zM314 40q94 0 145 62.5t51 183.5v126q0 121 -51 183.5t-145 62.5t-145 -62.5t-51 -183.5v-126
q0 -121 51 -183.5t145 -62.5zM347 930l106 -139l-30 -23l-109 122l-109 -122l-30 23l106 139h66z" />
    <glyph glyph-name="Odieresis" unicode="&#xd6;" horiz-adv-x="629" 
d="M314 -12q-60 0 -108 20t-81 63t-51 111.5t-18 166.5q0 97 18 166t51 112t81 63t108 20t108 -20t81 -63t51 -112t18 -166q0 -98 -18 -166.5t-51 -111.5t-81 -63t-108 -20zM314 40q94 0 145 62.5t51 183.5v126q0 121 -51 183.5t-145 62.5t-145 -62.5t-51 -183.5v-126
q0 -121 51 -183.5t145 -62.5zM230 803q-20 0 -29.5 9t-9.5 23v14q0 14 9.5 23t29.5 9t29.5 -9t9.5 -23v-14q0 -14 -9.5 -23t-29.5 -9zM398 803q-20 0 -29.5 9t-9.5 23v14q0 14 9.5 23t29.5 9t29.5 -9t9.5 -23v-14q0 -14 -9.5 -23t-29.5 -9z" />
    <glyph glyph-name="uni1ECC" unicode="&#x1ecc;" horiz-adv-x="629" 
d="M314 -12q-60 0 -108 20t-81 63t-51 111.5t-18 166.5q0 97 18 166t51 112t81 63t108 20t108 -20t81 -63t51 -112t18 -166q0 -98 -18 -166.5t-51 -111.5t-81 -63t-108 -20zM314 40q94 0 145 62.5t51 183.5v126q0 121 -51 183.5t-145 62.5t-145 -62.5t-51 -183.5v-126
q0 -121 51 -183.5t145 -62.5zM314 -154q-20 0 -29.5 9.5t-9.5 23.5v14q0 14 9.5 23t29.5 9t29.5 -9t9.5 -23v-14q0 -14 -9.5 -23.5t-29.5 -9.5z" />
    <glyph glyph-name="Ograve" unicode="&#xd2;" horiz-adv-x="629" 
d="M314 -12q-60 0 -108 20t-81 63t-51 111.5t-18 166.5q0 97 18 166t51 112t81 63t108 20t108 -20t81 -63t51 -112t18 -166q0 -98 -18 -166.5t-51 -111.5t-81 -63t-108 -20zM314 40q94 0 145 62.5t51 183.5v126q0 121 -51 183.5t-145 62.5t-145 -62.5t-51 -183.5v-126
q0 -121 51 -183.5t145 -62.5zM216 915l49 27l86 -163l-36 -19z" />
    <glyph glyph-name="uni1ECE" unicode="&#x1ece;" horiz-adv-x="629" 
d="M314 -12q-60 0 -108 20t-81 63t-51 111.5t-18 166.5q0 97 18 166t51 112t81 63t108 20t108 -20t81 -63t51 -112t18 -166q0 -98 -18 -166.5t-51 -111.5t-81 -63t-108 -20zM314 40q94 0 145 62.5t51 183.5v126q0 121 -51 183.5t-145 62.5t-145 -62.5t-51 -183.5v-126
q0 -121 51 -183.5t145 -62.5zM240 928h113q44 0 44 -39q0 -15 -7 -32.5t-24 -43.5l-37 -59l-32 17l57 112h-114v45z" />
    <glyph glyph-name="Ohungarumlaut" unicode="&#x150;" horiz-adv-x="629" 
d="M314 -12q-60 0 -108 20t-81 63t-51 111.5t-18 166.5q0 97 18 166t51 112t81 63t108 20t108 -20t81 -63t51 -112t18 -166q0 -98 -18 -166.5t-51 -111.5t-81 -63t-108 -20zM314 40q94 0 145 62.5t51 183.5v126q0 121 -51 183.5t-145 62.5t-145 -62.5t-51 -183.5v-126
q0 -121 51 -183.5t145 -62.5zM245 760l-33 18l86 164l47 -26zM391 760l-33 18l86 164l47 -26z" />
    <glyph glyph-name="Omacron" unicode="&#x14c;" horiz-adv-x="629" 
d="M314 -12q-60 0 -108 20t-81 63t-51 111.5t-18 166.5q0 97 18 166t51 112t81 63t108 20t108 -20t81 -63t51 -112t18 -166q0 -98 -18 -166.5t-51 -111.5t-81 -63t-108 -20zM314 40q94 0 145 62.5t51 183.5v126q0 121 -51 183.5t-145 62.5t-145 -62.5t-51 -183.5v-126
q0 -121 51 -183.5t145 -62.5zM191 866h246v-46h-246v46z" />
    <glyph glyph-name="Oslash" unicode="&#xd8;" horiz-adv-x="628" 
d="M314 -12q-50 0 -90.5 13t-72.5 42l-52 -82l-39 26l58 93q-30 44 -46 110t-16 159q0 97 18 166t51 112t81 63t108 20q50 0 91 -13.5t73 -42.5l52 83l39 -26l-59 -93q30 -44 46 -110t16 -159q0 -98 -17.5 -166.5t-51 -111.5t-81.5 -63t-108 -20zM153 130l162 262l134 215
q-50 52 -135 52q-93 0 -144.5 -63t-51.5 -184v-126q0 -45 7.5 -86t21.5 -70h6zM179 92q50 -53 135 -53q94 0 145.5 63t51.5 184v126q0 45 -7.5 86t-21.5 70h-6l-161 -259z" />
    <glyph glyph-name="Oslashacute" unicode="&#x1fe;" horiz-adv-x="628" 
d="M314 -12q-50 0 -90.5 13t-72.5 42l-52 -82l-39 26l58 93q-30 44 -46 110t-16 159q0 97 18 166t51 112t81 63t108 20q50 0 91 -13.5t73 -42.5l52 83l39 -26l-59 -93q30 -44 46 -110t16 -159q0 -98 -17.5 -166.5t-51 -111.5t-81.5 -63t-108 -20zM153 130l162 262l134 215
q-50 52 -135 52q-93 0 -144.5 -63t-51.5 -184v-126q0 -45 7.5 -86t21.5 -70h6zM179 92q50 -53 135 -53q94 0 145.5 63t51.5 184v126q0 45 -7.5 86t-21.5 70h-6l-161 -259zM312 760l-35 19l85 163l50 -27z" />
    <glyph glyph-name="Otilde" unicode="&#xd5;" horiz-adv-x="629" 
d="M314 -12q-60 0 -108 20t-81 63t-51 111.5t-18 166.5q0 97 18 166t51 112t81 63t108 20t108 -20t81 -63t51 -112t18 -166q0 -98 -18 -166.5t-51 -111.5t-81 -63t-108 -20zM314 40q94 0 145 62.5t51 183.5v126q0 121 -51 183.5t-145 62.5t-145 -62.5t-51 -183.5v-126
q0 -121 51 -183.5t145 -62.5zM380 793q-17 0 -32.5 6t-39.5 22q-22 14 -36 19.5t-25 5.5q-16 0 -28.5 -8t-26.5 -22l-23 28q32 47 79 47q17 0 32.5 -6t39.5 -22q22 -14 36 -19.5t25 -5.5q16 0 28.5 8t26.5 22l23 -28q-32 -47 -79 -47z" />
    <glyph glyph-name="Ohorn" unicode="&#x1a0;" horiz-adv-x="628" 
d="M575 809v-103q0 -28 -9 -37t-37 -9h-101v-7q36 -9 63 -31t45 -59t27 -90t9 -124q0 -98 -18 -166.5t-51 -111.5t-81 -63t-108 -20t-108 20t-81 63t-51 111.5t-18 166.5q0 97 18 166t51 112t81 63t108 20q48 0 87 -12h126v111h48zM314 40q94 0 145 62.5t51 183.5v126
q0 121 -51 183.5t-145 62.5t-145 -62.5t-51 -183.5v-126q0 -121 51 -183.5t145 -62.5z" />
    <glyph glyph-name="uni1EDA" unicode="&#x1eda;" horiz-adv-x="628" 
d="M575 809v-103q0 -28 -9 -37t-37 -9h-101v-7q36 -9 63 -31t45 -59t27 -90t9 -124q0 -98 -18 -166.5t-51 -111.5t-81 -63t-108 -20t-108 20t-81 63t-51 111.5t-18 166.5q0 97 18 166t51 112t81 63t108 20q48 0 87 -12h126v111h48zM314 40q94 0 145 62.5t51 183.5v126
q0 121 -51 183.5t-145 62.5t-145 -62.5t-51 -183.5v-126q0 -121 51 -183.5t145 -62.5zM312 760l-35 19l85 163l50 -27z" />
    <glyph glyph-name="uni1EE2" unicode="&#x1ee2;" horiz-adv-x="628" 
d="M575 809v-103q0 -28 -9 -37t-37 -9h-101v-7q36 -9 63 -31t45 -59t27 -90t9 -124q0 -98 -18 -166.5t-51 -111.5t-81 -63t-108 -20t-108 20t-81 63t-51 111.5t-18 166.5q0 97 18 166t51 112t81 63t108 20q48 0 87 -12h126v111h48zM314 40q94 0 145 62.5t51 183.5v126
q0 121 -51 183.5t-145 62.5t-145 -62.5t-51 -183.5v-126q0 -121 51 -183.5t145 -62.5zM314 -154q-20 0 -29.5 9.5t-9.5 23.5v14q0 14 9.5 23t29.5 9t29.5 -9t9.5 -23v-14q0 -14 -9.5 -23.5t-29.5 -9.5z" />
    <glyph glyph-name="uni1EDC" unicode="&#x1edc;" horiz-adv-x="628" 
d="M575 809v-103q0 -28 -9 -37t-37 -9h-101v-7q36 -9 63 -31t45 -59t27 -90t9 -124q0 -98 -18 -166.5t-51 -111.5t-81 -63t-108 -20t-108 20t-81 63t-51 111.5t-18 166.5q0 97 18 166t51 112t81 63t108 20q48 0 87 -12h126v111h48zM314 40q94 0 145 62.5t51 183.5v126
q0 121 -51 183.5t-145 62.5t-145 -62.5t-51 -183.5v-126q0 -121 51 -183.5t145 -62.5zM216 915l49 27l86 -163l-36 -19z" />
    <glyph glyph-name="uni1EDE" unicode="&#x1ede;" horiz-adv-x="628" 
d="M575 809v-103q0 -28 -9 -37t-37 -9h-101v-7q36 -9 63 -31t45 -59t27 -90t9 -124q0 -98 -18 -166.5t-51 -111.5t-81 -63t-108 -20t-108 20t-81 63t-51 111.5t-18 166.5q0 97 18 166t51 112t81 63t108 20q48 0 87 -12h126v111h48zM314 40q94 0 145 62.5t51 183.5v126
q0 121 -51 183.5t-145 62.5t-145 -62.5t-51 -183.5v-126q0 -121 51 -183.5t145 -62.5zM240 928h113q44 0 44 -39q0 -15 -7 -32.5t-24 -43.5l-37 -59l-32 17l57 112h-114v45z" />
    <glyph glyph-name="uni1EE0" unicode="&#x1ee0;" horiz-adv-x="628" 
d="M575 809v-103q0 -28 -9 -37t-37 -9h-101v-7q36 -9 63 -31t45 -59t27 -90t9 -124q0 -98 -18 -166.5t-51 -111.5t-81 -63t-108 -20t-108 20t-81 63t-51 111.5t-18 166.5q0 97 18 166t51 112t81 63t108 20q48 0 87 -12h126v111h48zM314 40q94 0 145 62.5t51 183.5v126
q0 121 -51 183.5t-145 62.5t-145 -62.5t-51 -183.5v-126q0 -121 51 -183.5t145 -62.5zM373 796q-19 0 -33.5 6.5t-31.5 17.5q-17 12 -29 17.5t-25 5.5q-15 0 -27.5 -7.5t-26.5 -21.5l-22 28q30 46 77 46q19 0 33.5 -6.5t30.5 -17.5q18 -12 30 -17.5t25 -5.5q27 0 54 29
l22 -28q-32 -46 -77 -46z" />
    <glyph glyph-name="uni1ED0" unicode="&#x1ed0;" horiz-adv-x="629" 
d="M314 -12q-60 0 -108 20t-81 63t-51 111.5t-18 166.5q0 97 18 166t51 112t81 63t108 20t108 -20t81 -63t51 -112t18 -166q0 -98 -18 -166.5t-51 -111.5t-81 -63t-108 -20zM314 40q94 0 145 62.5t51 183.5v126q0 121 -51 183.5t-145 62.5t-145 -62.5t-51 -183.5v-126
q0 -121 51 -183.5t145 -62.5zM442 872l-35 19l85 163l50 -27zM347 915l107 -134l-30 -22l-110 115l-110 -115l-30 22l107 134h66z" />
    <glyph glyph-name="uni1ED8" unicode="&#x1ed8;" horiz-adv-x="629" 
d="M314 -12q-60 0 -108 20t-81 63t-51 111.5t-18 166.5q0 97 18 166t51 112t81 63t108 20t108 -20t81 -63t51 -112t18 -166q0 -98 -18 -166.5t-51 -111.5t-81 -63t-108 -20zM314 40q94 0 145 62.5t51 183.5v126q0 121 -51 183.5t-145 62.5t-145 -62.5t-51 -183.5v-126
q0 -121 51 -183.5t145 -62.5zM347 930l106 -139l-30 -23l-109 122l-109 -122l-30 23l106 139h66zM314 -154q-20 0 -29.5 9.5t-9.5 23.5v14q0 14 9.5 23t29.5 9t29.5 -9t9.5 -23v-14q0 -14 -9.5 -23.5t-29.5 -9.5z" />
    <glyph glyph-name="uni1ED2" unicode="&#x1ed2;" horiz-adv-x="629" 
d="M314 -12q-60 0 -108 20t-81 63t-51 111.5t-18 166.5q0 97 18 166t51 112t81 63t108 20t108 -20t81 -63t51 -112t18 -166q0 -98 -18 -166.5t-51 -111.5t-81 -63t-108 -20zM314 40q94 0 145 62.5t51 183.5v126q0 121 -51 183.5t-145 62.5t-145 -62.5t-51 -183.5v-126
q0 -121 51 -183.5t145 -62.5zM86 1027l50 27l85 -163l-35 -19zM347 915l107 -134l-30 -22l-110 115l-110 -115l-30 22l107 134h66z" />
    <glyph glyph-name="uni1ED4" unicode="&#x1ed4;" horiz-adv-x="629" 
d="M314 -12q-60 0 -108 20t-81 63t-51 111.5t-18 166.5q0 97 18 166t51 112t81 63t108 20t108 -20t81 -63t51 -112t18 -166q0 -98 -18 -166.5t-51 -111.5t-81 -63t-108 -20zM314 40q94 0 145 62.5t51 183.5v126q0 121 -51 183.5t-145 62.5t-145 -62.5t-51 -183.5v-126
q0 -121 51 -183.5t145 -62.5zM363 1041h105q24 0 34.5 -9.5t10.5 -29.5q0 -15 -7 -32.5t-24 -43.5l-37 -59l-31 17l58 114h-109v43zM347 915l107 -134l-30 -22l-110 115l-110 -115l-30 22l107 134h66z" />
    <glyph glyph-name="uni1ED6" unicode="&#x1ed6;" horiz-adv-x="629" 
d="M314 -12q-60 0 -108 20t-81 63t-51 111.5t-18 166.5q0 97 18 166t51 112t81 63t108 20t108 -20t81 -63t51 -112t18 -166q0 -98 -18 -166.5t-51 -111.5t-81 -63t-108 -20zM314 40q94 0 145 62.5t51 183.5v126q0 121 -51 183.5t-145 62.5t-145 -62.5t-51 -183.5v-126
q0 -121 51 -183.5t145 -62.5zM249 1043q17 0 32.5 -6t39.5 -22q22 -14 36 -19.5t25 -5.5q16 0 28.5 8t26.5 22l23 -28q-32 -47 -79 -47q-17 0 -32.5 6t-39.5 22q-22 14 -36 19.5t-25 5.5q-16 0 -28.5 -8t-26.5 -22l-23 28q32 47 79 47zM347 915l107 -134l-30 -22l-110 115
l-110 -115l-30 22l107 134h66z" />
    <glyph glyph-name="OE" unicode="&#x152;" horiz-adv-x="881" 
d="M451 0q-25 -5 -56.5 -8.5t-57.5 -3.5q-69 0 -121.5 19t-88 62t-53.5 112t-18 168t18 168t53.5 112t88 62t121.5 19q26 0 57.5 -3.5t56.5 -8.5h370v-51h-312v-267h296v-51h-296v-278h312v-51h-370zM118 286q0 -121 55.5 -183.5t163.5 -62.5q67 0 114 14v590
q-47 14 -114 14q-108 0 -163.5 -62.5t-55.5 -183.5v-126z" />
    <glyph glyph-name="Racute" unicode="&#x154;" horiz-adv-x="574" 
d="M146 0h-58v698h254q164 0 164 -194q0 -178 -138 -193l154 -311h-64l-147 310h-165v-310zM340 359q104 0 104 112v64q0 112 -104 112h-194v-288h194zM274 760l-35 19l85 163l50 -27z" />
    <glyph glyph-name="Rcaron" unicode="&#x158;" horiz-adv-x="574" 
d="M146 0h-58v698h254q164 0 164 -194q0 -178 -138 -193l154 -311h-64l-147 310h-165v-310zM340 359q104 0 104 112v64q0 112 -104 112h-194v-288h194zM243 774l-106 139l30 23l109 -122l109 122l30 -23l-106 -139h-66z" />
    <glyph glyph-name="Rcommaaccent" unicode="&#x156;" horiz-adv-x="574" 
d="M146 0h-58v698h254q164 0 164 -194q0 -178 -138 -193l154 -311h-64l-147 310h-165v-310zM340 359q104 0 104 112v64q0 112 -104 112h-194v-288h194zM286 -67q20 0 29.5 -9t9.5 -24v-15q0 -32 -15 -63.5t-37 -54.5h-40q21 23 32.5 45t16.5 42q-19 1 -27 9.5t-8 22.5v14
q0 15 9.5 24t29.5 9z" />
    <glyph glyph-name="Sacute" unicode="&#x15a;" horiz-adv-x="513" 
d="M256 -12q-77 0 -130 31.5t-89 85.5l43 34q32 -48 73 -74.5t103 -26.5q75 0 114.5 36t39.5 110q0 60 -30 92t-98 49l-56 14q-44 11 -76.5 26.5t-53.5 38t-31 52.5t-10 70q0 93 56 138.5t149 45.5q73 0 119.5 -26.5t79.5 -78.5l-43 -31q-28 43 -63.5 64.5t-94.5 21.5
q-70 0 -108.5 -31.5t-38.5 -102.5q0 -58 30 -87t97 -46l56 -14q46 -11 78.5 -27t53.5 -39.5t30.5 -54.5t9.5 -73q0 -99 -55.5 -148t-154.5 -49zM252 760l-35 19l85 163l50 -27z" />
    <glyph glyph-name="Scaron" unicode="&#x160;" horiz-adv-x="513" 
d="M256 -12q-77 0 -130 31.5t-89 85.5l43 34q32 -48 73 -74.5t103 -26.5q75 0 114.5 36t39.5 110q0 60 -30 92t-98 49l-56 14q-44 11 -76.5 26.5t-53.5 38t-31 52.5t-10 70q0 93 56 138.5t149 45.5q73 0 119.5 -26.5t79.5 -78.5l-43 -31q-28 43 -63.5 64.5t-94.5 21.5
q-70 0 -108.5 -31.5t-38.5 -102.5q0 -58 30 -87t97 -46l56 -14q46 -11 78.5 -27t53.5 -39.5t30.5 -54.5t9.5 -73q0 -99 -55.5 -148t-154.5 -49zM221 774l-106 139l30 23l109 -122l109 122l30 -23l-106 -139h-66z" />
    <glyph glyph-name="Scedilla" unicode="&#x15e;" horiz-adv-x="513" 
d="M258 660q-70 0 -108.5 -31.5t-38.5 -102.5q0 -58 30 -87t97 -46l56 -14q46 -11 78.5 -27t53.5 -39.5t30.5 -54.5t9.5 -73q0 -96 -52 -145t-144 -51l-12 -62h6q5 5 12.5 8.5t19.5 3.5q28 0 44 -17t16 -50q0 -38 -26 -57.5t-65 -19.5q-34 0 -54.5 12t-30.5 25l26 29
q10 -11 24 -18.5t35 -7.5q47 0 47 39t-47 39h-45l15 76q-124 7 -198 116l43 34q36 -53 78 -77t98 -24q75 0 114.5 36t39.5 110q0 60 -29.5 92.5t-98.5 48.5l-56 14q-44 11 -76.5 26.5t-53.5 38t-31 52.5t-10 70q0 93 56 138.5t149 45.5q73 0 119.5 -26.5t79.5 -78.5l-43 -31
q-28 43 -63.5 64.5t-94.5 21.5z" />
    <glyph glyph-name="Scircumflex" unicode="&#x15c;" horiz-adv-x="513" 
d="M256 -12q-77 0 -130 31.5t-89 85.5l43 34q32 -48 73 -74.5t103 -26.5q75 0 114.5 36t39.5 110q0 60 -30 92t-98 49l-56 14q-44 11 -76.5 26.5t-53.5 38t-31 52.5t-10 70q0 93 56 138.5t149 45.5q73 0 119.5 -26.5t79.5 -78.5l-43 -31q-28 43 -63.5 64.5t-94.5 21.5
q-70 0 -108.5 -31.5t-38.5 -102.5q0 -58 30 -87t97 -46l56 -14q46 -11 78.5 -27t53.5 -39.5t30.5 -54.5t9.5 -73q0 -99 -55.5 -148t-154.5 -49zM287 930l106 -139l-30 -23l-109 122l-109 -122l-30 23l106 139h66z" />
    <glyph glyph-name="Scommaaccent" unicode="&#x218;" horiz-adv-x="513" 
d="M256 -12q-77 0 -130 31.5t-89 85.5l43 34q32 -48 73 -74.5t103 -26.5q75 0 114.5 36t39.5 110q0 60 -30 92t-98 49l-56 14q-44 11 -76.5 26.5t-53.5 38t-31 52.5t-10 70q0 93 56 138.5t149 45.5q73 0 119.5 -26.5t79.5 -78.5l-43 -31q-28 43 -63.5 64.5t-94.5 21.5
q-70 0 -108.5 -31.5t-38.5 -102.5q0 -58 30 -87t97 -46l56 -14q46 -11 78.5 -27t53.5 -39.5t30.5 -54.5t9.5 -73q0 -99 -55.5 -148t-154.5 -49zM255 -67q20 0 29.5 -9t9.5 -24v-15q0 -32 -15 -63.5t-37 -54.5h-40q21 23 32.5 45t16.5 42q-19 1 -27 9.5t-8 22.5v14
q0 15 9.5 24t29.5 9z" />
    <glyph glyph-name="uni1E9E" unicode="&#x1e9e;" horiz-adv-x="625" 
d="M577 194q0 -104 -50 -155t-140 -51q-66 0 -106 23t-69 70l40 33q23 -37 54 -55.5t81 -18.5q59 0 93.5 30t34.5 90v66q0 60 -36.5 93t-110.5 33h-55v52l165 243h-332v-647h-58v698h449v-56l-164 -237v-6q94 0 149 -51t55 -154z" />
    <glyph glyph-name="Tbar" unicode="&#x166;" horiz-adv-x="511" 
d="M285 351v-351h-58v351h-153v44h153v252h-208v51h474v-51h-208v-252h153v-44h-153z" />
    <glyph glyph-name="Tcaron" unicode="&#x164;" horiz-adv-x="511" 
d="M285 647v-647h-58v647h-208v51h474v-51h-208zM224 774l-106 139l30 23l109 -122l109 122l30 -23l-106 -139h-66z" />
    <glyph glyph-name="uni021A" unicode="&#x21a;" horiz-adv-x="511" 
d="M285 647v-647h-58v647h-208v51h474v-51h-208zM256 -67q20 0 29.5 -9t9.5 -24v-15q0 -32 -15 -63.5t-37 -54.5h-40q21 23 32.5 45t16.5 42q-19 1 -27 9.5t-8 22.5v14q0 15 9.5 24t29.5 9z" />
    <glyph glyph-name="Tcommaaccent" unicode="&#x162;" horiz-adv-x="511" 
d="M285 647v-647h-58v647h-208v51h474v-51h-208zM256 -67q20 0 29.5 -9t9.5 -24v-15q0 -32 -15 -63.5t-37 -54.5h-40q21 23 32.5 45t16.5 42q-19 1 -27 9.5t-8 22.5v14q0 15 9.5 24t29.5 9z" />
    <glyph glyph-name="Thorn" unicode="&#xde;" horiz-adv-x="543" 
d="M88 0v698h58v-148h196q164 0 164 -195t-164 -195h-196v-160h-58zM146 211h194q54 0 79.5 29.5t25.5 82.5v64q0 53 -25.5 82.5t-79.5 29.5h-194v-288z" />
    <glyph glyph-name="Uacute" unicode="&#xda;" horiz-adv-x="602" 
d="M141 698v-450q0 -54 8 -93.5t26.5 -65t49 -37.5t76.5 -12t76.5 12t49 37.5t26.5 65t8 93.5v450h58v-441q0 -71 -11.5 -121.5t-37 -83.5t-67 -48.5t-102.5 -15.5t-102.5 15.5t-67 48.5t-37 83.5t-11.5 121.5v441h58zM298 760l-35 19l85 163l50 -27z" />
    <glyph glyph-name="Ubreve" unicode="&#x16c;" horiz-adv-x="602" 
d="M141 698v-450q0 -54 8 -93.5t26.5 -65t49 -37.5t76.5 -12t76.5 12t49 37.5t26.5 65t8 93.5v450h58v-441q0 -71 -11.5 -121.5t-37 -83.5t-67 -48.5t-102.5 -15.5t-102.5 15.5t-67 48.5t-37 83.5t-11.5 121.5v441h58zM300 774q-48 0 -78 27.5t-55 94.5l33 16l16 -31
q18 -36 36 -49t48 -13t48 13t36 49l16 31l33 -16q-25 -67 -55 -94.5t-78 -27.5z" />
    <glyph glyph-name="Ucircumflex" unicode="&#xdb;" horiz-adv-x="602" 
d="M141 698v-450q0 -54 8 -93.5t26.5 -65t49 -37.5t76.5 -12t76.5 12t49 37.5t26.5 65t8 93.5v450h58v-441q0 -71 -11.5 -121.5t-37 -83.5t-67 -48.5t-102.5 -15.5t-102.5 15.5t-67 48.5t-37 83.5t-11.5 121.5v441h58zM333 930l106 -139l-30 -23l-109 122l-109 -122l-30 23
l106 139h66z" />
    <glyph glyph-name="Udieresis" unicode="&#xdc;" horiz-adv-x="602" 
d="M141 698v-450q0 -54 8 -93.5t26.5 -65t49 -37.5t76.5 -12t76.5 12t49 37.5t26.5 65t8 93.5v450h58v-441q0 -71 -11.5 -121.5t-37 -83.5t-67 -48.5t-102.5 -15.5t-102.5 15.5t-67 48.5t-37 83.5t-11.5 121.5v441h58zM216 803q-20 0 -29.5 9t-9.5 23v14q0 14 9.5 23t29.5 9
t29.5 -9t9.5 -23v-14q0 -14 -9.5 -23t-29.5 -9zM384 803q-20 0 -29.5 9t-9.5 23v14q0 14 9.5 23t29.5 9t29.5 -9t9.5 -23v-14q0 -14 -9.5 -23t-29.5 -9z" />
    <glyph glyph-name="uni1EE4" unicode="&#x1ee4;" horiz-adv-x="602" 
d="M141 698v-450q0 -54 8 -93.5t26.5 -65t49 -37.5t76.5 -12t76.5 12t49 37.5t26.5 65t8 93.5v450h58v-441q0 -71 -11.5 -121.5t-37 -83.5t-67 -48.5t-102.5 -15.5t-102.5 15.5t-67 48.5t-37 83.5t-11.5 121.5v441h58zM300 -154q-20 0 -29.5 9.5t-9.5 23.5v14q0 14 9.5 23
t29.5 9t29.5 -9t9.5 -23v-14q0 -14 -9.5 -23.5t-29.5 -9.5z" />
    <glyph glyph-name="Ugrave" unicode="&#xd9;" horiz-adv-x="602" 
d="M141 698v-450q0 -54 8 -93.5t26.5 -65t49 -37.5t76.5 -12t76.5 12t49 37.5t26.5 65t8 93.5v450h58v-441q0 -71 -11.5 -121.5t-37 -83.5t-67 -48.5t-102.5 -15.5t-102.5 15.5t-67 48.5t-37 83.5t-11.5 121.5v441h58zM202 915l49 27l86 -163l-36 -19z" />
    <glyph glyph-name="uni1EE6" unicode="&#x1ee6;" horiz-adv-x="602" 
d="M141 698v-450q0 -54 8 -93.5t26.5 -65t49 -37.5t76.5 -12t76.5 12t49 37.5t26.5 65t8 93.5v450h58v-441q0 -71 -11.5 -121.5t-37 -83.5t-67 -48.5t-102.5 -15.5t-102.5 15.5t-67 48.5t-37 83.5t-11.5 121.5v441h58zM226 928h113q44 0 44 -39q0 -15 -7 -32.5t-24 -43.5
l-37 -59l-32 17l57 112h-114v45z" />
    <glyph glyph-name="Uhungarumlaut" unicode="&#x170;" horiz-adv-x="602" 
d="M141 698v-450q0 -54 8 -93.5t26.5 -65t49 -37.5t76.5 -12t76.5 12t49 37.5t26.5 65t8 93.5v450h58v-441q0 -71 -11.5 -121.5t-37 -83.5t-67 -48.5t-102.5 -15.5t-102.5 15.5t-67 48.5t-37 83.5t-11.5 121.5v441h58zM231 760l-33 18l86 164l47 -26zM377 760l-33 18l86 164
l47 -26z" />
    <glyph glyph-name="Umacron" unicode="&#x16a;" horiz-adv-x="602" 
d="M141 698v-450q0 -54 8 -93.5t26.5 -65t49 -37.5t76.5 -12t76.5 12t49 37.5t26.5 65t8 93.5v450h58v-441q0 -71 -11.5 -121.5t-37 -83.5t-67 -48.5t-102.5 -15.5t-102.5 15.5t-67 48.5t-37 83.5t-11.5 121.5v441h58zM177 866h246v-46h-246v46z" />
    <glyph glyph-name="Uogonek" unicode="&#x172;" horiz-adv-x="602" 
d="M141 698v-450q0 -54 8 -93.5t26.5 -65t49 -37.5t76.5 -12t76.5 12t49 37.5t26.5 65t8 93.5v450h58v-441q0 -85 -16.5 -140t-53.5 -87q-39 -34 -63.5 -57.5t-37.5 -41.5t-17.5 -31.5t-4.5 -28.5q0 -19 12 -28t30 -9q17 0 29 6.5t20 16.5l26 -26q-9 -14 -29.5 -25
t-47.5 -11q-38 0 -62 16t-24 46q0 18 5.5 34.5t18.5 32t33 32.5t49 37l-1 5q-34 -10 -84 -10q-61 0 -102.5 15.5t-67 48.5t-37 83.5t-11.5 121.5v441h58z" />
    <glyph glyph-name="Uring" unicode="&#x16e;" horiz-adv-x="602" 
d="M141 698v-450q0 -54 8 -93.5t26.5 -65t49 -37.5t76.5 -12t76.5 12t49 37.5t26.5 65t8 93.5v450h58v-441q0 -71 -11.5 -121.5t-37 -83.5t-67 -48.5t-102.5 -15.5t-102.5 15.5t-67 48.5t-37 83.5t-11.5 121.5v441h58zM300 755q-47 0 -74 29t-27 76t27 76t74 29t74 -29
t27 -76t-27 -76t-74 -29zM300 790q27 0 43 15.5t16 42.5v24q0 27 -16 42.5t-43 15.5t-43 -15.5t-16 -42.5v-24q0 -27 16 -42.5t43 -15.5z" />
    <glyph glyph-name="Utilde" unicode="&#x168;" horiz-adv-x="602" 
d="M141 698v-450q0 -54 8 -93.5t26.5 -65t49 -37.5t76.5 -12t76.5 12t49 37.5t26.5 65t8 93.5v450h58v-441q0 -71 -11.5 -121.5t-37 -83.5t-67 -48.5t-102.5 -15.5t-102.5 15.5t-67 48.5t-37 83.5t-11.5 121.5v441h58zM366 793q-17 0 -32.5 6t-39.5 22q-22 14 -36 19.5
t-25 5.5q-16 0 -28.5 -8t-26.5 -22l-23 28q32 47 79 47q17 0 32.5 -6t39.5 -22q22 -14 36 -19.5t25 -5.5q16 0 28.5 8t26.5 22l23 -28q-32 -47 -79 -47z" />
    <glyph glyph-name="Uhorn" unicode="&#x1af;" horiz-adv-x="606" 
d="M519 257q0 -71 -11.5 -121.5t-37 -83.5t-67.5 -48.5t-102 -15.5q-61 0 -102.5 15.5t-67 48.5t-37 83.5t-11.5 121.5v441h57v-451q0 -54 8 -93.5t26.5 -65t49.5 -37.5t77 -12q45 0 76 12t49.5 37.5t26.5 65t8 93.5v451h80v111h48v-103q0 -28 -9 -37t-37 -9h-24v-403v0z
" />
    <glyph glyph-name="uni1EE8" unicode="&#x1ee8;" horiz-adv-x="606" 
d="M519 257q0 -71 -11.5 -121.5t-37 -83.5t-67.5 -48.5t-102 -15.5q-61 0 -102.5 15.5t-67 48.5t-37 83.5t-11.5 121.5v441h57v-451q0 -54 8 -93.5t26.5 -65t49.5 -37.5t77 -12q45 0 76 12t49.5 37.5t26.5 65t8 93.5v451h80v111h48v-103q0 -28 -9 -37t-37 -9h-24v-403v0z
M297 760l-35 19l85 163l50 -27z" />
    <glyph glyph-name="uni1EF0" unicode="&#x1ef0;" horiz-adv-x="606" 
d="M519 257q0 -71 -11.5 -121.5t-37 -83.5t-67.5 -48.5t-102 -15.5q-61 0 -102.5 15.5t-67 48.5t-37 83.5t-11.5 121.5v441h57v-451q0 -54 8 -93.5t26.5 -65t49.5 -37.5t77 -12q45 0 76 12t49.5 37.5t26.5 65t8 93.5v451h80v111h48v-103q0 -28 -9 -37t-37 -9h-24v-403v0z
M300 -154q-20 0 -29.5 9.5t-9.5 23.5v14q0 14 9.5 23t29.5 9t29.5 -9t9.5 -23v-14q0 -14 -9.5 -23.5t-29.5 -9.5z" />
    <glyph glyph-name="uni1EEA" unicode="&#x1eea;" horiz-adv-x="606" 
d="M519 257q0 -71 -11.5 -121.5t-37 -83.5t-67.5 -48.5t-102 -15.5q-61 0 -102.5 15.5t-67 48.5t-37 83.5t-11.5 121.5v441h57v-451q0 -54 8 -93.5t26.5 -65t49.5 -37.5t77 -12q45 0 76 12t49.5 37.5t26.5 65t8 93.5v451h80v111h48v-103q0 -28 -9 -37t-37 -9h-24v-403v0z
M201 915l49 27l86 -163l-36 -19z" />
    <glyph glyph-name="uni1EEC" unicode="&#x1eec;" horiz-adv-x="606" 
d="M519 257q0 -71 -11.5 -121.5t-37 -83.5t-67.5 -48.5t-102 -15.5q-61 0 -102.5 15.5t-67 48.5t-37 83.5t-11.5 121.5v441h57v-451q0 -54 8 -93.5t26.5 -65t49.5 -37.5t77 -12q45 0 76 12t49.5 37.5t26.5 65t8 93.5v451h80v111h48v-103q0 -28 -9 -37t-37 -9h-24v-403v0z
M225 928h113q44 0 44 -39q0 -15 -7 -32.5t-24 -43.5l-37 -59l-32 17l57 112h-114v45z" />
    <glyph glyph-name="uni1EEE" unicode="&#x1eee;" horiz-adv-x="606" 
d="M519 257q0 -71 -11.5 -121.5t-37 -83.5t-67.5 -48.5t-102 -15.5q-61 0 -102.5 15.5t-67 48.5t-37 83.5t-11.5 121.5v441h57v-451q0 -54 8 -93.5t26.5 -65t49.5 -37.5t77 -12q45 0 76 12t49.5 37.5t26.5 65t8 93.5v451h80v111h48v-103q0 -28 -9 -37t-37 -9h-24v-403v0z
M359 796q-19 0 -33.5 6.5t-31.5 17.5q-17 12 -29 17.5t-25 5.5q-15 0 -27.5 -7.5t-26.5 -21.5l-22 28q30 46 77 46q19 0 33.5 -6.5t30.5 -17.5q18 -12 30 -17.5t25 -5.5q27 0 54 29l22 -28q-32 -46 -77 -46z" />
    <glyph glyph-name="Wacute" unicode="&#x1e82;" horiz-adv-x="799" 
d="M179 0l-157 698h60l98 -455l35 -186h8l36 186l101 455h80l102 -455l36 -186h7l35 186l99 455h58l-160 -698h-75l-103 455l-36 193h-8l-35 -193l-106 -455h-75zM397 760l-35 19l85 163l50 -27z" />
    <glyph glyph-name="Wcircumflex" unicode="&#x174;" horiz-adv-x="799" 
d="M179 0l-157 698h60l98 -455l35 -186h8l36 186l101 455h80l102 -455l36 -186h7l35 186l99 455h58l-160 -698h-75l-103 455l-36 193h-8l-35 -193l-106 -455h-75zM432 930l106 -139l-30 -23l-109 122l-109 -122l-30 23l106 139h66z" />
    <glyph glyph-name="Wdieresis" unicode="&#x1e84;" horiz-adv-x="799" 
d="M179 0l-157 698h60l98 -455l35 -186h8l36 186l101 455h80l102 -455l36 -186h7l35 186l99 455h58l-160 -698h-75l-103 455l-36 193h-8l-35 -193l-106 -455h-75zM315 803q-20 0 -29.5 9t-9.5 23v14q0 14 9.5 23t29.5 9t29.5 -9t9.5 -23v-14q0 -14 -9.5 -23t-29.5 -9z
M483 803q-20 0 -29.5 9t-9.5 23v14q0 14 9.5 23t29.5 9t29.5 -9t9.5 -23v-14q0 -14 -9.5 -23t-29.5 -9z" />
    <glyph glyph-name="Wgrave" unicode="&#x1e80;" horiz-adv-x="799" 
d="M179 0l-157 698h60l98 -455l35 -186h8l36 186l101 455h80l102 -455l36 -186h7l35 186l99 455h58l-160 -698h-75l-103 455l-36 193h-8l-35 -193l-106 -455h-75zM301 915l49 27l86 -163l-36 -19z" />
    <glyph glyph-name="Yacute" unicode="&#xdd;" horiz-adv-x="518" 
d="M230 0v283l-216 415h65l176 -348h9l176 348h64l-216 -415v-283h-58zM259 760l-35 19l85 163l50 -27z" />
    <glyph glyph-name="Ycircumflex" unicode="&#x176;" horiz-adv-x="518" 
d="M230 0v283l-216 415h65l176 -348h9l176 348h64l-216 -415v-283h-58zM294 930l106 -139l-30 -23l-109 122l-109 -122l-30 23l106 139h66z" />
    <glyph glyph-name="uni1EF4" unicode="&#x1ef4;" horiz-adv-x="518" 
d="M230 0v283l-216 415h65l176 -348h9l176 348h64l-216 -415v-283h-58zM260 -154q-20 0 -29.5 9.5t-9.5 23.5v14q0 14 9.5 23t29.5 9t29.5 -9t9.5 -23v-14q0 -14 -9.5 -23.5t-29.5 -9.5z" />
    <glyph glyph-name="Ydieresis" unicode="&#x178;" horiz-adv-x="518" 
d="M230 0v283l-216 415h65l176 -348h9l176 348h64l-216 -415v-283h-58zM177 803q-20 0 -29.5 9t-9.5 23v14q0 14 9.5 23t29.5 9t29.5 -9t9.5 -23v-14q0 -14 -9.5 -23t-29.5 -9zM345 803q-20 0 -29.5 9t-9.5 23v14q0 14 9.5 23t29.5 9t29.5 -9t9.5 -23v-14q0 -14 -9.5 -23
t-29.5 -9z" />
    <glyph glyph-name="Ygrave" unicode="&#x1ef2;" horiz-adv-x="518" 
d="M230 0v283l-216 415h65l176 -348h9l176 348h64l-216 -415v-283h-58zM163 915l49 27l86 -163l-36 -19z" />
    <glyph glyph-name="uni1EF6" unicode="&#x1ef6;" horiz-adv-x="518" 
d="M230 0v283l-216 415h65l176 -348h9l176 348h64l-216 -415v-283h-58zM186 928h113q44 0 44 -39q0 -15 -7 -32.5t-24 -43.5l-37 -59l-32 17l57 112h-114v45z" />
    <glyph glyph-name="uni1EF8" unicode="&#x1ef8;" horiz-adv-x="518" 
d="M230 0v283l-216 415h65l176 -348h9l176 348h64l-216 -415v-283h-58zM327 793q-17 0 -32.5 6t-39.5 22q-22 14 -36 19.5t-25 5.5q-16 0 -28.5 -8t-26.5 -22l-23 28q32 47 79 47q17 0 32.5 -6t39.5 -22q22 -14 36 -19.5t25 -5.5q16 0 28.5 8t26.5 22l23 -28
q-32 -47 -79 -47z" />
    <glyph glyph-name="Zacute" unicode="&#x179;" horiz-adv-x="515" 
d="M485 0h-451v53l373 594h-356v51h419v-52l-374 -595h389v-51zM262 760l-35 19l85 163l50 -27z" />
    <glyph glyph-name="Zcaron" unicode="&#x17d;" horiz-adv-x="515" 
d="M485 0h-451v53l373 594h-356v51h419v-52l-374 -595h389v-51zM231 774l-106 139l30 23l109 -122l109 122l30 -23l-106 -139h-66z" />
    <glyph glyph-name="Zdotaccent" unicode="&#x17b;" horiz-adv-x="515" 
d="M485 0h-451v53l373 594h-356v51h419v-52l-374 -595h389v-51zM264 804q-20 0 -29.5 9t-9.5 24v14q0 14 9.5 23t29.5 9t29.5 -9t9.5 -23v-14q0 -15 -9.5 -24t-29.5 -9z" />
    <glyph glyph-name="mu" unicode="&#xb5;" horiz-adv-x="515" 
d="M83 -200v712h55v-339q0 -65 28 -100.5t85 -35.5q26 0 49 8t40 23.5t27 38t10 50.5v355h55v-512h-55v81h-8q-14 -44 -45.5 -68.5t-82.5 -24.5q-36 0 -64.5 18t-39.5 47h-7l8 -99v-154h-55z" />
    <glyph glyph-name="Delta" unicode="&#x2206;" horiz-adv-x="565" 
d="M40 49l208 649h69l207 -649v-49h-484v49zM340 455l-55 193h-7l-54 -193l-125 -404h365z" />
    <glyph glyph-name="product" unicode="&#x220f;" horiz-adv-x="637" 
d="M120 -200v847h-70v51h537v-51h-70v-847h-58v847h-281v-847h-58z" />
    <glyph glyph-name="summation" unicode="&#x2211;" horiz-adv-x="448" 
d="M415 -200h-399v48l248 397v8l-248 397v48h399v-51h-337l240 -384v-28l-240 -384h337v-51z" />
    <glyph glyph-name="Omega" unicode="&#x2126;" horiz-adv-x="645" 
d="M62 48h159v12q-159 66 -159 322q0 74 16 134.5t48.5 103.5t81.5 66.5t114 23.5t114 -23.5t81.5 -66.5t48.5 -103.5t16 -134.5q0 -255 -159 -322v-12h159v-48h-199v81q67 28 102 88t35 148v125q0 48 -14 87.5t-40 68t-62.5 44.5t-81.5 16t-81.5 -16t-62.5 -44.5t-40 -68
t-14 -87.5v-125q0 -88 35 -148t102 -88v-81h-199v48z" />
    <glyph glyph-name="pi" unicode="&#x3c0;" 
d="M427 48h81v-48h-78q-31 0 -44.5 13.5t-13.5 44.5v406h-213v-464h-55v464h-81v48h485v-48h-81v-416z" />
    <glyph glyph-name="uni2070" unicode="&#x2070;" horiz-adv-x="320" 
d="M160 323q-66 0 -96.5 46.5t-30.5 143.5q0 98 30.5 144.5t96.5 46.5t96.5 -46.5t30.5 -144.5q0 -97 -30.5 -143.5t-96.5 -46.5zM160 360q42 0 61.5 28.5t19.5 87.5v74q0 60 -19.5 88.5t-61.5 28.5t-61.5 -28.5t-19.5 -88.5v-74q0 -59 19.5 -87.5t61.5 -28.5z" />
    <glyph glyph-name="onesuperior" unicode="&#xb9;" horiz-adv-x="320" 
d="M48 329v36h104v294l-105 -61l-18 30l120 70h47v-333h93v-36h-241z" />
    <glyph glyph-name="twosuperior" unicode="&#xb2;" horiz-adv-x="320" 
d="M281 329h-239v44l116 106q35 33 50.5 56.5t15.5 46.5v24q0 26 -16 43t-52 17q-33 0 -52 -15.5t-30 -50.5l-37 15q27 89 122 89q57 0 84 -28.5t27 -78.5q0 -38 -19 -70t-66 -74l-98 -88h194v-36z" />
    <glyph glyph-name="threesuperior" unicode="&#xb3;" horiz-adv-x="320" 
d="M147 538q40 0 57.5 15.5t17.5 41.5v20q0 25 -17 38t-49 13q-30 0 -48 -9.5t-32 -33.5l-30 23q19 30 45.5 44t65.5 14q50 0 80.5 -22.5t30.5 -72.5q0 -35 -19 -57t-53 -28v-6q35 -2 56.5 -24.5t21.5 -62.5q0 -55 -32 -81.5t-89 -26.5q-41 0 -69 14t-51 47l33 25
q17 -27 35 -37.5t50 -10.5q38 0 57.5 16.5t19.5 46.5v21q0 57 -77 57h-42v36h38z" />
    <glyph glyph-name="uni2074" unicode="&#x2074;" horiz-adv-x="320" 
d="M199 329v79h-177v38l156 252h63v-256h54v-34h-54v-79h-42zM199 659h-5l-133 -217h138v217z" />
    <glyph glyph-name="uni2075" unicode="&#x2075;" horiz-adv-x="320" 
d="M263 662h-164l-11 -147h6q14 23 31.5 33t46.5 10q51 0 79.5 -28.5t28.5 -85.5t-31.5 -89t-92.5 -32q-41 0 -68.5 14.5t-48.5 46.5l31 25q19 -27 38 -37.5t50 -10.5q42 0 59 17.5t17 49.5v26q0 32 -17 49.5t-59 17.5q-30 0 -44 -8.5t-26 -22.5l-36 4l12 204h199v-36z" />
    <glyph glyph-name="uni2076" unicode="&#x2076;" horiz-adv-x="320" 
d="M162 323q-57 0 -89.5 33t-32.5 105q0 69 35 132.5t95 104.5h60q-62 -42 -97 -86t-49 -107h5q23 52 87 52q48 0 78 -27.5t30 -86.5q0 -60 -33 -90t-89 -30zM162 361q35 0 55.5 15.5t20.5 51.5v25q0 36 -20.5 51.5t-55.5 15.5t-55.5 -15.5t-20.5 -51.5v-25
q0 -36 20.5 -51.5t55.5 -15.5z" />
    <glyph glyph-name="uni2077" unicode="&#x2077;" horiz-adv-x="320" 
d="M101 329l136 333h-159v-76h-38v112h240v-36l-132 -333h-47z" />
    <glyph glyph-name="uni2078" unicode="&#x2078;" horiz-adv-x="320" 
d="M160 323q-62 0 -94.5 27t-32.5 78q0 76 80 90v5q-34 8 -51 30t-17 56q0 48 30 71.5t85 23.5t85 -23.5t30 -71.5q0 -34 -17 -56t-51 -30v-5q80 -14 80 -90q0 -51 -32.5 -78t-94.5 -27zM160 537q37 0 54.5 14t17.5 40v24q0 26 -17.5 40t-54.5 14t-54.5 -14t-17.5 -40v-24
q0 -26 17.5 -40t54.5 -14zM160 358q81 0 81 59v26q0 59 -81 59t-81 -59v-26q0 -59 81 -59z" />
    <glyph glyph-name="uni2079" unicode="&#x2079;" horiz-adv-x="320" 
d="M280 566q0 -69 -35 -132.5t-95 -104.5h-60q62 42 97 86t49 107h-5q-23 -52 -87 -52q-48 0 -78 27.5t-30 86.5q0 60 33 90t89 30q57 0 89.5 -33t32.5 -105zM158 507q35 0 55.5 15.5t20.5 51.5v25q0 36 -20.5 51.5t-55.5 15.5t-55.5 -15.5t-20.5 -51.5v-25
q0 -36 20.5 -51.5t55.5 -15.5z" />
    <glyph glyph-name="uni2080" unicode="&#x2080;" horiz-adv-x="320" 
d="M160 -6q-66 0 -96.5 46.5t-30.5 143.5q0 98 30.5 144.5t96.5 46.5t96.5 -46.5t30.5 -144.5q0 -97 -30.5 -143.5t-96.5 -46.5zM160 31q42 0 61.5 28.5t19.5 87.5v74q0 60 -19.5 88.5t-61.5 28.5t-61.5 -28.5t-19.5 -88.5v-74q0 -59 19.5 -87.5t61.5 -28.5z" />
    <glyph glyph-name="uni2081" unicode="&#x2081;" horiz-adv-x="320" 
d="M48 0v36h104v294l-105 -61l-18 30l120 70h47v-333h93v-36h-241z" />
    <glyph glyph-name="uni2082" unicode="&#x2082;" horiz-adv-x="320" 
d="M281 0h-239v44l116 106q35 33 50.5 56.5t15.5 46.5v24q0 26 -16 43t-52 17q-33 0 -52 -15.5t-30 -50.5l-37 15q27 89 122 89q57 0 84 -28.5t27 -78.5q0 -38 -19 -70t-66 -74l-98 -88h194v-36z" />
    <glyph glyph-name="uni2083" unicode="&#x2083;" horiz-adv-x="320" 
d="M147 209q40 0 57.5 15.5t17.5 41.5v20q0 25 -17 38t-49 13q-30 0 -48 -9.5t-32 -33.5l-30 23q19 30 45.5 44t65.5 14q50 0 80.5 -22.5t30.5 -72.5q0 -35 -19 -57t-53 -28v-6q35 -2 56.5 -24.5t21.5 -62.5q0 -55 -32 -81.5t-89 -26.5q-41 0 -69 14t-51 47l33 25
q17 -27 35 -37.5t50 -10.5q38 0 57.5 16.5t19.5 46.5v21q0 57 -77 57h-42v36h38z" />
    <glyph glyph-name="uni2084" unicode="&#x2084;" horiz-adv-x="320" 
d="M199 0v79h-177v38l156 252h63v-256h54v-34h-54v-79h-42zM199 330h-5l-133 -217h138v217z" />
    <glyph glyph-name="uni2085" unicode="&#x2085;" horiz-adv-x="320" 
d="M99 333l-11 -147h6q14 23 31.5 33t46.5 10q51 0 79.5 -28.5t28.5 -85.5t-31.5 -89t-92.5 -32q-41 0 -68.5 14.5t-48.5 46.5l31 25q19 -27 38 -37.5t50 -10.5q42 0 59 17.5t17 49.5v26q0 32 -17 49.5t-59 17.5q-30 0 -44 -8.5t-26 -22.5l-36 4l12 204h199v-36h-164z" />
    <glyph glyph-name="uni2086" unicode="&#x2086;" horiz-adv-x="320" 
d="M162 -6q-57 0 -89.5 33t-32.5 105q0 69 35 132.5t95 104.5h60q-62 -42 -97 -86t-49 -107h5q23 52 87 52q48 0 78 -27.5t30 -86.5q0 -60 -33 -90t-89 -30zM162 32q35 0 55.5 15.5t20.5 51.5v25q0 36 -20.5 51.5t-55.5 15.5t-55.5 -15.5t-20.5 -51.5v-25q0 -36 20.5 -51.5
t55.5 -15.5z" />
    <glyph glyph-name="uni2087" unicode="&#x2087;" horiz-adv-x="320" 
d="M101 0l136 333h-159v-76h-38v112h240v-36l-132 -333h-47z" />
    <glyph glyph-name="uni2088" unicode="&#x2088;" horiz-adv-x="320" 
d="M160 -6q-62 0 -94.5 27t-32.5 78q0 76 80 90v5q-34 8 -51 30t-17 56q0 48 30 71.5t85 23.5t85 -23.5t30 -71.5q0 -34 -17 -56t-51 -30v-5q80 -14 80 -90q0 -51 -32.5 -78t-94.5 -27zM160 29q81 0 81 59v26q0 59 -81 59t-81 -59v-26q0 -59 81 -59zM160 208q37 0 54.5 14
t17.5 40v24q0 26 -17.5 40t-54.5 14t-54.5 -14t-17.5 -40v-24q0 -26 17.5 -40t54.5 -14z" />
    <glyph glyph-name="uni2089" unicode="&#x2089;" horiz-adv-x="320" 
d="M280 237q0 -69 -35 -132.5t-95 -104.5h-60q62 42 97 86t49 107h-5q-23 -52 -87 -52q-48 0 -78 27.5t-30 86.5q0 60 33 90t89 30q57 0 89.5 -33t32.5 -105zM158 178q35 0 55.5 15.5t20.5 51.5v25q0 36 -20.5 51.5t-55.5 15.5t-55.5 -15.5t-20.5 -51.5v-25
q0 -36 20.5 -51.5t55.5 -15.5z" />
    <glyph glyph-name="onehalf" unicode="&#xbd;" horiz-adv-x="740" 
d="M48 329v36h104v294l-105 -61l-18 30l120 70h47v-333h93v-36h-241zM399 434l161 264h46l-161 -264h-46zM134 0l155 254h46l-155 -254h-46zM701 0h-239v44l116 106q35 33 50.5 56.5t15.5 46.5v24q0 26 -16 43t-52 17q-33 0 -52 -15.5t-30 -50.5l-37 15q27 89 122 89
q57 0 84 -28.5t27 -78.5q0 -38 -19 -70t-66 -74l-98 -88h194v-36z" />
    <glyph glyph-name="uni2153" unicode="&#x2153;" horiz-adv-x="740" 
d="M48 329v36h104v294l-105 -61l-18 30l120 70h47v-333h93v-36h-241zM399 434l161 264h46l-161 -264h-46zM134 0l155 254h46l-155 -254h-46zM567 209q40 0 57.5 15.5t17.5 41.5v20q0 25 -17 38t-49 13q-30 0 -48 -9.5t-32 -33.5l-30 23q19 30 45.5 44t65.5 14
q50 0 80.5 -22.5t30.5 -72.5q0 -35 -19 -57t-53 -28v-6q35 -2 56.5 -24.5t21.5 -62.5q0 -55 -32 -81.5t-89 -26.5q-41 0 -69 14t-51 47l33 25q17 -27 35 -37.5t50 -10.5q38 0 57.5 16.5t19.5 46.5v21q0 57 -77 57h-42v36h38z" />
    <glyph glyph-name="uni2154" unicode="&#x2154;" horiz-adv-x="740" 
d="M281 329h-239v44l116 106q35 33 50.5 56.5t15.5 46.5v24q0 26 -16 43t-52 17q-33 0 -52 -15.5t-30 -50.5l-37 15q27 89 122 89q57 0 84 -28.5t27 -78.5q0 -38 -19 -70t-66 -74l-98 -88h194v-36zM399 434l161 264h46l-161 -264h-46zM134 0l155 254h46l-155 -254h-46z
M567 209q40 0 57.5 15.5t17.5 41.5v20q0 25 -17 38t-49 13q-30 0 -48 -9.5t-32 -33.5l-30 23q19 30 45.5 44t65.5 14q50 0 80.5 -22.5t30.5 -72.5q0 -35 -19 -57t-53 -28v-6q35 -2 56.5 -24.5t21.5 -62.5q0 -55 -32 -81.5t-89 -26.5q-41 0 -69 14t-51 47l33 25
q17 -27 35 -37.5t50 -10.5q38 0 57.5 16.5t19.5 46.5v21q0 57 -77 57h-42v36h38z" />
    <glyph glyph-name="onequarter" unicode="&#xbc;" horiz-adv-x="740" 
d="M48 329v36h104v294l-105 -61l-18 30l120 70h47v-333h93v-36h-241zM399 434l161 264h46l-161 -264h-46zM134 0l155 254h46l-155 -254h-46zM619 0v79h-177v38l156 252h63v-256h54v-34h-54v-79h-42zM619 330h-5l-133 -217h138v217z" />
    <glyph glyph-name="threequarters" unicode="&#xbe;" horiz-adv-x="740" 
d="M147 538q40 0 57.5 15.5t17.5 41.5v20q0 25 -17 38t-49 13q-30 0 -48 -9.5t-32 -33.5l-30 23q19 30 45.5 44t65.5 14q50 0 80.5 -22.5t30.5 -72.5q0 -35 -19 -57t-53 -28v-6q35 -2 56.5 -24.5t21.5 -62.5q0 -55 -32 -81.5t-89 -26.5q-41 0 -69 14t-51 47l33 25
q17 -27 35 -37.5t50 -10.5q38 0 57.5 16.5t19.5 46.5v21q0 57 -77 57h-42v36h38zM399 434l161 264h46l-161 -264h-46zM134 0l155 254h46l-155 -254h-46zM619 0v79h-177v38l156 252h63v-256h54v-34h-54v-79h-42zM619 330h-5l-133 -217h138v217z" />
    <glyph glyph-name="uni2155" unicode="&#x2155;" horiz-adv-x="740" 
d="M48 329v36h104v294l-105 -61l-18 30l120 70h47v-333h93v-36h-241zM399 434l161 264h46l-161 -264h-46zM134 0l155 254h46l-155 -254h-46zM519 333l-11 -147h6q14 23 31.5 33t46.5 10q51 0 79.5 -28.5t28.5 -85.5t-31.5 -89t-92.5 -32q-41 0 -68.5 14.5t-48.5 46.5l31 25
q19 -27 38 -37.5t50 -10.5q42 0 59 17.5t17 49.5v26q0 32 -17 49.5t-59 17.5q-30 0 -44 -8.5t-26 -22.5l-36 4l12 204h199v-36h-164z" />
    <glyph glyph-name="uni2156" unicode="&#x2156;" horiz-adv-x="740" 
d="M281 329h-239v44l116 106q35 33 50.5 56.5t15.5 46.5v24q0 26 -16 43t-52 17q-33 0 -52 -15.5t-30 -50.5l-37 15q27 89 122 89q57 0 84 -28.5t27 -78.5q0 -38 -19 -70t-66 -74l-98 -88h194v-36zM399 434l161 264h46l-161 -264h-46zM134 0l155 254h46l-155 -254h-46z
M519 333l-11 -147h6q14 23 31.5 33t46.5 10q51 0 79.5 -28.5t28.5 -85.5t-31.5 -89t-92.5 -32q-41 0 -68.5 14.5t-48.5 46.5l31 25q19 -27 38 -37.5t50 -10.5q42 0 59 17.5t17 49.5v26q0 32 -17 49.5t-59 17.5q-30 0 -44 -8.5t-26 -22.5l-36 4l12 204h199v-36h-164z" />
    <glyph glyph-name="uni2157" unicode="&#x2157;" horiz-adv-x="740" 
d="M147 538q40 0 57.5 15.5t17.5 41.5v20q0 25 -17 38t-49 13q-30 0 -48 -9.5t-32 -33.5l-30 23q19 30 45.5 44t65.5 14q50 0 80.5 -22.5t30.5 -72.5q0 -35 -19 -57t-53 -28v-6q35 -2 56.5 -24.5t21.5 -62.5q0 -55 -32 -81.5t-89 -26.5q-41 0 -69 14t-51 47l33 25
q17 -27 35 -37.5t50 -10.5q38 0 57.5 16.5t19.5 46.5v21q0 57 -77 57h-42v36h38zM399 434l161 264h46l-161 -264h-46zM134 0l155 254h46l-155 -254h-46zM519 333l-11 -147h6q14 23 31.5 33t46.5 10q51 0 79.5 -28.5t28.5 -85.5t-31.5 -89t-92.5 -32q-41 0 -68.5 14.5
t-48.5 46.5l31 25q19 -27 38 -37.5t50 -10.5q42 0 59 17.5t17 49.5v26q0 32 -17 49.5t-59 17.5q-30 0 -44 -8.5t-26 -22.5l-36 4l12 204h199v-36h-164z" />
    <glyph glyph-name="uni2158" unicode="&#x2158;" horiz-adv-x="740" 
d="M199 329v79h-177v38l156 252h63v-256h54v-34h-54v-79h-42zM199 659h-5l-133 -217h138v217zM399 434l161 264h46l-161 -264h-46zM134 0l155 254h46l-155 -254h-46zM519 333l-11 -147h6q14 23 31.5 33t46.5 10q51 0 79.5 -28.5t28.5 -85.5t-31.5 -89t-92.5 -32
q-41 0 -68.5 14.5t-48.5 46.5l31 25q19 -27 38 -37.5t50 -10.5q42 0 59 17.5t17 49.5v26q0 32 -17 49.5t-59 17.5q-30 0 -44 -8.5t-26 -22.5l-36 4l12 204h199v-36h-164z" />
    <glyph glyph-name="uni2159" unicode="&#x2159;" horiz-adv-x="740" 
d="M48 329v36h104v294l-105 -61l-18 30l120 70h47v-333h93v-36h-241zM399 434l161 264h46l-161 -264h-46zM134 0l155 254h46l-155 -254h-46zM582 -6q-57 0 -89.5 33t-32.5 105q0 69 35 132.5t95 104.5h60q-62 -42 -97 -86t-49 -107h5q23 52 87 52q48 0 78 -27.5t30 -86.5
q0 -60 -33 -90t-89 -30zM582 32q35 0 55.5 15.5t20.5 51.5v25q0 36 -20.5 51.5t-55.5 15.5t-55.5 -15.5t-20.5 -51.5v-25q0 -36 20.5 -51.5t55.5 -15.5z" />
    <glyph glyph-name="uni215A" unicode="&#x215a;" horiz-adv-x="740" 
d="M263 662h-164l-11 -147h6q14 23 31.5 33t46.5 10q51 0 79.5 -28.5t28.5 -85.5t-31.5 -89t-92.5 -32q-41 0 -68.5 14.5t-48.5 46.5l31 25q19 -27 38 -37.5t50 -10.5q42 0 59 17.5t17 49.5v26q0 32 -17 49.5t-59 17.5q-30 0 -44 -8.5t-26 -22.5l-36 4l12 204h199v-36z
M399 434l161 264h46l-161 -264h-46zM134 0l155 254h46l-155 -254h-46zM582 -6q-57 0 -89.5 33t-32.5 105q0 69 35 132.5t95 104.5h60q-62 -42 -97 -86t-49 -107h5q23 52 87 52q48 0 78 -27.5t30 -86.5q0 -60 -33 -90t-89 -30zM582 32q35 0 55.5 15.5t20.5 51.5v25
q0 36 -20.5 51.5t-55.5 15.5t-55.5 -15.5t-20.5 -51.5v-25q0 -36 20.5 -51.5t55.5 -15.5z" />
    <glyph glyph-name="uni2150" unicode="&#x2150;" horiz-adv-x="740" 
d="M48 329v36h104v294l-105 -61l-18 30l120 70h47v-333h93v-36h-241zM399 434l161 264h46l-161 -264h-46zM134 0l155 254h46l-155 -254h-46zM521 0l136 333h-159v-76h-38v112h240v-36l-132 -333h-47z" />
    <glyph glyph-name="uni215B" unicode="&#x215b;" horiz-adv-x="740" 
d="M48 329v36h104v294l-105 -61l-18 30l120 70h47v-333h93v-36h-241zM399 434l161 264h46l-161 -264h-46zM134 0l155 254h46l-155 -254h-46zM580 -6q-62 0 -94.5 27t-32.5 78q0 76 80 90v5q-34 8 -51 30t-17 56q0 48 30 71.5t85 23.5t85 -23.5t30 -71.5q0 -34 -17 -56
t-51 -30v-5q80 -14 80 -90q0 -51 -32.5 -78t-94.5 -27zM580 29q81 0 81 59v26q0 59 -81 59t-81 -59v-26q0 -59 81 -59zM580 208q37 0 54.5 14t17.5 40v24q0 26 -17.5 40t-54.5 14t-54.5 -14t-17.5 -40v-24q0 -26 17.5 -40t54.5 -14z" />
    <glyph glyph-name="uni215C" unicode="&#x215c;" horiz-adv-x="740" 
d="M147 538q40 0 57.5 15.5t17.5 41.5v20q0 25 -17 38t-49 13q-30 0 -48 -9.5t-32 -33.5l-30 23q19 30 45.5 44t65.5 14q50 0 80.5 -22.5t30.5 -72.5q0 -35 -19 -57t-53 -28v-6q35 -2 56.5 -24.5t21.5 -62.5q0 -55 -32 -81.5t-89 -26.5q-41 0 -69 14t-51 47l33 25
q17 -27 35 -37.5t50 -10.5q38 0 57.5 16.5t19.5 46.5v21q0 57 -77 57h-42v36h38zM399 434l161 264h46l-161 -264h-46zM134 0l155 254h46l-155 -254h-46zM580 -6q-62 0 -94.5 27t-32.5 78q0 76 80 90v5q-34 8 -51 30t-17 56q0 48 30 71.5t85 23.5t85 -23.5t30 -71.5
q0 -34 -17 -56t-51 -30v-5q80 -14 80 -90q0 -51 -32.5 -78t-94.5 -27zM580 29q81 0 81 59v26q0 59 -81 59t-81 -59v-26q0 -59 81 -59zM580 208q37 0 54.5 14t17.5 40v24q0 26 -17.5 40t-54.5 14t-54.5 -14t-17.5 -40v-24q0 -26 17.5 -40t54.5 -14z" />
    <glyph glyph-name="uni215D" unicode="&#x215d;" horiz-adv-x="740" 
d="M263 662h-164l-11 -147h6q14 23 31.5 33t46.5 10q51 0 79.5 -28.5t28.5 -85.5t-31.5 -89t-92.5 -32q-41 0 -68.5 14.5t-48.5 46.5l31 25q19 -27 38 -37.5t50 -10.5q42 0 59 17.5t17 49.5v26q0 32 -17 49.5t-59 17.5q-30 0 -44 -8.5t-26 -22.5l-36 4l12 204h199v-36z
M399 434l161 264h46l-161 -264h-46zM134 0l155 254h46l-155 -254h-46zM580 -6q-62 0 -94.5 27t-32.5 78q0 76 80 90v5q-34 8 -51 30t-17 56q0 48 30 71.5t85 23.5t85 -23.5t30 -71.5q0 -34 -17 -56t-51 -30v-5q80 -14 80 -90q0 -51 -32.5 -78t-94.5 -27zM580 29q81 0 81 59
v26q0 59 -81 59t-81 -59v-26q0 -59 81 -59zM580 208q37 0 54.5 14t17.5 40v24q0 26 -17.5 40t-54.5 14t-54.5 -14t-17.5 -40v-24q0 -26 17.5 -40t54.5 -14z" />
    <glyph glyph-name="uni215E" unicode="&#x215e;" horiz-adv-x="740" 
d="M101 329l136 333h-159v-76h-38v112h240v-36l-132 -333h-47zM399 434l161 264h46l-161 -264h-46zM134 0l155 254h46l-155 -254h-46zM580 -6q-62 0 -94.5 27t-32.5 78q0 76 80 90v5q-34 8 -51 30t-17 56q0 48 30 71.5t85 23.5t85 -23.5t30 -71.5q0 -34 -17 -56t-51 -30v-5
q80 -14 80 -90q0 -51 -32.5 -78t-94.5 -27zM580 29q81 0 81 59v26q0 59 -81 59t-81 -59v-26q0 -59 81 -59zM580 208q37 0 54.5 14t17.5 40v24q0 26 -17.5 40t-54.5 14t-54.5 -14t-17.5 -40v-24q0 -26 17.5 -40t54.5 -14z" />
    <glyph glyph-name="uni2151" unicode="&#x2151;" horiz-adv-x="740" 
d="M48 329v36h104v294l-105 -61l-18 30l120 70h47v-333h93v-36h-241zM399 434l161 264h46l-161 -264h-46zM134 0l155 254h46l-155 -254h-46zM700 237q0 -69 -35 -132.5t-95 -104.5h-60q62 42 97 86t49 107h-5q-23 -52 -87 -52q-48 0 -78 27.5t-30 86.5q0 60 33 90t89 30
q57 0 89.5 -33t32.5 -105zM578 178q35 0 55.5 15.5t20.5 51.5v25q0 36 -20.5 51.5t-55.5 15.5t-55.5 -15.5t-20.5 -51.5v-25q0 -36 20.5 -51.5t55.5 -15.5z" />
    <glyph glyph-name="uni2713" unicode="&#x2713;" horiz-adv-x="788" 
d="M393 0h-61l-223 487l47 20l146 -319l55 -137h9l55 137l231 505l48 -20z" />
    <glyph glyph-name="uni274C" unicode="&#x274c;" horiz-adv-x="788" 
d="M642 5l-248 306l-248 -306l-38 29l255 315l-255 315l38 29l248 -306l248 306l38 -29l-255 -315l255 -315z" />
    <glyph glyph-name="uni2190" unicode="&#x2190;" horiz-adv-x="764" 
d="M218 542l34 -34l-78 -79l-68 -54l4 -8l97 7h530v-46h-530l-97 7l-4 -8l68 -54l78 -79l-34 -34l-191 191z" />
    <glyph glyph-name="uni2191" unicode="&#x2191;" horiz-adv-x="764" 
d="M573 519l-34 -34l-79 78l-54 68l-8 -4l7 -97v-530h-46v530l7 97l-8 4l-54 -68l-79 -78l-34 34l191 191z" />
    <glyph glyph-name="uni2193" unicode="&#x2193;" horiz-adv-x="764" 
d="M191 179l34 34l79 -78l54 -68l8 4l-7 97v530h46v-530l-7 -97l8 -4l54 68l79 78l34 -34l-191 -191z" />
    <glyph glyph-name="uni2192" unicode="&#x2192;" horiz-adv-x="764" 
d="M546 160l-34 34l78 79l68 54l-4 8l-97 -7h-530v46h530l97 -7l4 8l-68 54l-78 79l34 34l191 -191z" />
    <glyph glyph-name="uni2196" unicode="&#x2196;" horiz-adv-x="764" 
d="M395 618v-48h-111l-86 9l-3 -8l74 -64l374 -375l-32 -32l-375 374l-64 74l-8 -3l9 -86v-111h-48v270h270z" />
    <glyph glyph-name="uni2197" unicode="&#x2197;" horiz-adv-x="764" 
d="M639 348h-48v111l9 86l-8 3l-64 -74l-375 -374l-32 32l374 375l74 64l-3 8l-86 -9h-111v48h270v-270z" />
    <glyph glyph-name="uni2199" unicode="&#x2199;" horiz-adv-x="764" 
d="M125 369h48v-111l-9 -86l8 -3l64 74l375 374l32 -32l-374 -375l-74 -64l3 -8l86 9h111v-48h-270v270z" />
    <glyph glyph-name="uni2198" unicode="&#x2198;" horiz-adv-x="764" 
d="M369 99v48h111l86 -9l3 8l-74 64l-374 375l32 32l375 -374l64 -74l8 3l-9 86v111h48v-270h-270z" />
    <glyph glyph-name="uni21B0" unicode="&#x21b0;" horiz-adv-x="764" 
d="M291 710l34 -34l-78 -79l-68 -54l4 -8l97 7h304v-542h-46v496h-258l-97 7l-4 -8l68 -54l78 -79l-34 -34l-191 191z" />
    <glyph glyph-name="uni21B2" unicode="&#x21b2;" horiz-adv-x="764" 
d="M291 370l34 -34l-78 -79l-68 -54l4 -8l97 7h258v496h46v-542h-304l-97 7l-4 -8l68 -54l78 -79l-34 -34l-191 191z" />
    <glyph glyph-name="uni2B11" unicode="&#x2b11;" horiz-adv-x="764" 
d="M406 434l-34 -34l-79 78l-54 68l-8 -4l7 -97v-258h496v-46h-542v304l7 97l-8 4l-54 -68l-79 -78l-34 34l191 191z" />
    <glyph glyph-name="uni2B0F" unicode="&#x2b0f;" horiz-adv-x="764" 
d="M740 434l-34 -34l-79 78l-54 68l-8 -4l7 -97v-304h-542v46h496v258l7 97l-8 4l-54 -68l-79 -78l-34 34l191 191z" />
    <glyph glyph-name="uni2B10" unicode="&#x2b10;" horiz-adv-x="764" 
d="M24 321l34 34l79 -78l54 -68l8 4l-7 97v304h542v-46h-496v-258l-7 -97l8 -4l54 68l79 78l34 -34l-191 -191z" />
    <glyph glyph-name="uni2B0E" unicode="&#x2b0e;" horiz-adv-x="764" 
d="M358 321l34 34l79 -78l54 -68l8 4l-7 97v258h-496v46h542v-304l-7 -97l8 -4l54 68l79 78l34 -34l-191 -191z" />
    <glyph glyph-name="uni21B1" unicode="&#x21b1;" horiz-adv-x="764" 
d="M473 328l-34 34l78 79l68 54l-4 8l-97 -7h-258v-496h-46v542h304l97 -7l4 8l-68 54l-78 79l34 34l191 -191z" />
    <glyph glyph-name="uni21B3" unicode="&#x21b3;" horiz-adv-x="764" 
d="M473 -12l-34 34l78 79l68 54l-4 8l-97 -7h-304v542h46v-496h258l97 -7l4 8l-68 54l-78 79l34 34l191 -191z" />
    <glyph glyph-name="uni21C6" unicode="&#x21c6;" horiz-adv-x="764" 
d="M546 -11l-34 34l78 79l68 54l-4 8l-97 -7h-530v46h530l97 -7l4 8l-68 54l-78 79l34 34l191 -191zM218 709l34 -34l-78 -79l-68 -54l4 -8l97 7h530v-46h-530l-97 7l-4 -8l68 -54l78 -79l-34 -34l-191 191z" />
    <glyph glyph-name="uni21C4" unicode="&#x21c4;" horiz-adv-x="764" 
d="M546 327l-34 34l78 79l68 54l-4 8l-97 -7h-530v46h530l97 -7l4 8l-68 54l-78 79l34 34l191 -191zM218 371l34 -34l-78 -79l-68 -54l4 -8l97 7h530v-46h-530l-97 7l-4 -8l68 -54l78 -79l-34 -34l-191 191z" />
    <glyph glyph-name="uni2194" unicode="&#x2194;" horiz-adv-x="764" 
d="M212 542l34 -34l-78 -79l-68 -54l4 -8l97 7h363l96 -7l4 8l-68 54l-78 79l34 34l191 -191l-191 -191l-34 34l78 79l68 54l-4 8l-96 -7h-363l-97 7l-4 -8l68 -54l78 -79l-34 -34l-191 191z" />
    <glyph glyph-name="uni2195" unicode="&#x2195;" horiz-adv-x="764" 
d="M191 179l34 34l79 -78l53 -68l9 4l-7 97v363l7 96l-8 4l-54 -68l-79 -78l-34 34l191 191l191 -191l-34 -34l-79 78l-54 68l-8 -4l7 -96v-363l-7 -97l8 -4l54 68l79 78l34 -34l-191 -191z" />
    <glyph glyph-name="uni21B6" unicode="&#x21b6;" horiz-adv-x="764" 
d="M21 239l34 34l79 -78l53 -68l9 4l-7 97v164q0 58 20.5 107t57.5 85t86.5 56t108.5 20q58 0 108 -20t87 -56t57.5 -85t20.5 -107h-46q0 48 -17.5 89t-48 71t-72 47t-89.5 17t-89.5 -17t-72 -47t-48 -71t-17.5 -89v-164l-7 -97l8 -4l54 68l79 78l34 -34l-191 -191z" />
    <glyph glyph-name="uni21B7" unicode="&#x21b7;" horiz-adv-x="764" 
d="M361 239l34 34l79 -78l54 -68l8 4l-7 97v164q0 48 -17.5 89t-48 71t-72 47t-89.5 17t-89.5 -17t-72 -47t-48 -71t-17.5 -89h-46q0 58 20.5 107t57.5 85t86.5 56t108.5 20q58 0 108 -20t87 -56t57.5 -85t20.5 -107v-164l-7 -97l9 -4l53 68l79 78l34 -34l-191 -191z" />
    <glyph glyph-name="uni21A9" unicode="&#x21a9;" horiz-adv-x="764" 
d="M230 472l34 -34l-78 -79l-68 -54l4 -8l97 7h311q69 0 108.5 35.5t39.5 100.5q0 63 -39.5 96.5t-108.5 33.5v46q90 0 143 -46.5t53 -132.5t-53 -132.5t-143 -46.5h-311l-97 7l-4 -8l68 -54l78 -79l-34 -34l-191 191z" />
    <glyph glyph-name="uni21AA" unicode="&#x21aa;" horiz-adv-x="764" 
d="M534 90l-34 34l78 79l68 54l-4 8l-97 -7h-311q-90 0 -143 46.5t-53 132.5t53 132.5t143 46.5v-46q-69 0 -108.5 -33.5t-39.5 -96.5q0 -65 39.5 -100.5t108.5 -35.5h311l97 -7l4 8l-68 54l-78 79l34 34l191 -191z" />
    <glyph glyph-name="uni21BA" unicode="&#x21ba;" horiz-adv-x="764" 
d="M646 698v-48h-111l-86 9l-3 -8l72 -68q48 -45 80 -81t51.5 -70t27.5 -67t8 -72q0 -65 -23 -121t-63.5 -97t-96 -64t-120.5 -23t-120.5 23t-96 64t-63.5 97t-23 121q0 66 23 121t64 94l33 -33q-34 -34 -53 -80t-19 -102t19.5 -104t53.5 -83t80.5 -54.5t101.5 -19.5
t101.5 19.5t80.5 54.5t53.5 83t19.5 104q0 33 -6 60.5t-22 56.5t-44.5 63.5t-73.5 82.5l-68 72l-8 -4l9 -85v-111h-48v270h270z" />
    <glyph glyph-name="uni21BB" unicode="&#x21bb;" horiz-adv-x="764" 
d="M388 428h-48v111l9 85l-8 4l-68 -72q-45 -48 -73.5 -82.5t-44.5 -63.5t-22 -56.5t-6 -60.5q0 -56 19.5 -104t53.5 -83t80.5 -54.5t101.5 -19.5t101.5 19.5t80.5 54.5t53.5 83t19.5 104t-19 102t-53 80l33 33q41 -39 64 -94t23 -121q0 -65 -23 -121t-63.5 -97t-96 -64
t-120.5 -23t-120.5 23t-96 64t-63.5 97t-23 121q0 39 8 72t27.5 67t51.5 70t80 81l72 68l-3 8l-86 -9h-111v48h270v-270z" />
    <glyph glyph-name="tilde" unicode="&#x2dc;" 
d="M336 619q-17 0 -32.5 6t-39.5 22q-22 14 -36 19.5t-25 5.5q-16 0 -28.5 -8t-26.5 -22l-23 28q32 47 79 47q17 0 32.5 -6t39.5 -22q22 -14 36 -19.5t25 -5.5q16 0 28.5 8t26.5 22l23 -28q-32 -47 -79 -47z" />
    <glyph glyph-name="tilde.alt01" 
d="M329 622q-19 0 -33.5 6.5t-31.5 17.5q-17 12 -29 17.5t-25 5.5q-15 0 -27.5 -7.5t-26.5 -21.5l-22 28q30 46 77 46q19 0 33.5 -6.5t30.5 -17.5q18 -12 30 -17.5t25 -5.5q27 0 54 29l22 -28q-32 -46 -77 -46z" />
    <glyph glyph-name="macron" unicode="&#xaf;" 
d="M147 692h246v-46h-246v46z" />
    <glyph glyph-name="macron.alt01" 
d="M152 692h236v-46h-236v46z" />
    <glyph glyph-name="dotaccent" unicode="&#x2d9;" 
d="M270 627q-20 0 -29.5 9t-9.5 24v14q0 14 9.5 23t29.5 9t29.5 -9t9.5 -23v-14q0 -15 -9.5 -24t-29.5 -9z" />
    <glyph glyph-name="dieresis" unicode="&#xa8;" 
d="M186 629q-20 0 -29.5 9t-9.5 23v14q0 14 9.5 23t29.5 9t29.5 -9t9.5 -23v-14q0 -14 -9.5 -23t-29.5 -9zM354 629q-20 0 -29.5 9t-9.5 23v14q0 14 9.5 23t29.5 9t29.5 -9t9.5 -23v-14q0 -14 -9.5 -23t-29.5 -9z" />
    <glyph glyph-name="dieresis.alt01" 
d="M191 629q-20 0 -30 9t-10 23v14q0 14 10 23t30 9t29.5 -9t9.5 -23v-14q0 -14 -9.5 -23t-29.5 -9zM349 629q-20 0 -29.5 9t-9.5 23v14q0 14 9.5 23t29.5 9t30 -9t10 -23v-14q0 -14 -10 -23t-30 -9z" />
    <glyph glyph-name="hungarumlaut" unicode="&#x2dd;" 
d="M201 586l-33 18l86 164l47 -26zM347 586l-33 18l86 164l47 -26z" />
    <glyph glyph-name="acute" unicode="&#xb4;" 
d="M268 586l-35 19l85 163l50 -27z" />
    <glyph glyph-name="grave" unicode="`" 
d="M172 741l49 27l86 -163l-36 -19z" />
    <glyph glyph-name="circumflex" unicode="&#x2c6;" 
d="M303 756l106 -139l-30 -23l-109 122l-109 -122l-30 23l106 139h66z" />
    <glyph glyph-name="circumflex.alt01" 
d="M303 756l92 -139l-30 -23l-95 122l-95 -122l-30 23l92 139h66z" />
    <glyph glyph-name="caron" unicode="&#x2c7;" 
d="M237 601l-106 139l30 23l109 -122l109 122l30 -23l-106 -139h-66z" />
    <glyph glyph-name="breve" unicode="&#x2d8;" 
d="M270 600q-48 0 -78 27.5t-55 94.5l33 16l16 -31q18 -36 36 -49t48 -13t48 13t36 49l16 31l33 -16q-25 -67 -55 -94.5t-78 -27.5z" />
    <glyph glyph-name="breve.alt01" 
d="M270 600q-47 0 -73.5 26.5t-44.5 95.5l33 15l10 -30q12 -33 29.5 -47.5t45.5 -14.5t45.5 14.5t29.5 47.5l10 30l33 -15q-18 -69 -44.5 -95.5t-73.5 -26.5z" />
    <glyph glyph-name="ring" unicode="&#x2da;" 
d="M270 582q-47 0 -74 29t-27 76t27 76t74 29t74 -29t27 -76t-27 -76t-74 -29zM270 617q27 0 43 15.5t16 42.5v24q0 27 -16 42.5t-43 15.5t-43 -15.5t-16 -42.5v-24q0 -27 16 -42.5t43 -15.5z" />
    <glyph glyph-name="ringacute" 
d="M275 808l-28 20l74 110l41 -27zM270 576q-47 0 -74 29t-27 76t27 76t74 29t74 -29t27 -76t-27 -76t-74 -29zM270 611q27 0 43 15.5t16 42.5v24q0 27 -16 42.5t-43 15.5t-43 -15.5t-16 -42.5v-24q0 -27 16 -42.5t43 -15.5z" />
    <glyph glyph-name="uni02BB" unicode="&#x2bb;" 
d="M270 597q-20 0 -29.5 9t-9.5 24v15q0 32 15 63.5t37 54.5h40q-21 -23 -32.5 -45t-16.5 -42q19 -1 27 -9.5t8 -22.5v-14q0 -15 -9.5 -24t-29.5 -9z" />
    <glyph glyph-name="uni02BC" unicode="&#x2bc;" 
d="M308 559h-37l13 181h62z" />
    <glyph glyph-name="cedilla" unicode="&#xb8;" 
d="M280 -205q-34 0 -54.5 12t-30.5 25l26 29q10 -11 24 -19t35 -8q47 0 47 40q0 39 -47 39h-45l19 94h35l-16 -80h6q5 5 12.5 8.5t19.5 3.5q28 0 44 -17t16 -50q0 -38 -26 -57.5t-65 -19.5z" />
    <glyph glyph-name="ogonek" unicode="&#x2db;" 
d="M210 -205q-38 0 -62 16.5t-24 50.5q0 41 30 72.5t78 58.5v23l29 1l9 -17q-54 -38 -77 -66t-23 -59q0 -22 12 -31.5t30 -9.5q17 0 29 6.5t20 16.5l26 -26q-9 -14 -29.5 -25t-47.5 -11z" />
    <glyph glyph-name="uni0303" unicode="&#x303;" horiz-adv-x="0" 
d="M67 619q-17 0 -32.5 6t-39.5 22q-22 14 -36 19.5t-25 5.5q-16 0 -28.5 -8t-26.5 -22l-23 28q32 47 79 47q17 0 32.5 -6t39.5 -22q22 -14 36 -19.5t25 -5.5q16 0 28.5 8t26.5 22l23 -28q-32 -47 -79 -47z" />
    <glyph glyph-name="uni0304" unicode="&#x304;" horiz-adv-x="0" 
d="M-122 692h246v-46h-246v46z" />
    <glyph glyph-name="uni0307" unicode="&#x307;" horiz-adv-x="0" 
d="M1 627q-20 0 -29.5 9t-9.5 24v14q0 14 9.5 23t29.5 9t29.5 -9t9.5 -23v-14q0 -15 -9.5 -24t-29.5 -9z" />
    <glyph glyph-name="uni0308" unicode="&#x308;" horiz-adv-x="0" 
d="M-83 629q-20 0 -29.5 9t-9.5 23v14q0 14 9.5 23t29.5 9t29.5 -9t9.5 -23v-14q0 -14 -9.5 -23t-29.5 -9zM85 629q-20 0 -29.5 9t-9.5 23v14q0 14 9.5 23t29.5 9t29.5 -9t9.5 -23v-14q0 -14 -9.5 -23t-29.5 -9z" />
    <glyph glyph-name="uni030B" unicode="&#x30b;" horiz-adv-x="0" 
d="M-68 586l-33 18l86 164l47 -26zM78 586l-33 18l86 164l47 -26z" />
    <glyph glyph-name="uni0301" unicode="&#x301;" horiz-adv-x="0" 
d="M-1 586l-35 19l85 163l50 -27z" />
    <glyph glyph-name="uni0300" unicode="&#x300;" horiz-adv-x="0" 
d="M-97 741l49 27l86 -163l-36 -19z" />
    <glyph glyph-name="uni0302" unicode="&#x302;" horiz-adv-x="0" 
d="M34 756l106 -139l-30 -23l-109 122l-109 -122l-30 23l106 139h66z" />
    <glyph glyph-name="uni030C" unicode="&#x30c;" horiz-adv-x="0" 
d="M-32 601l-106 139l30 23l109 -122l109 122l30 -23l-106 -139h-66z" />
    <glyph glyph-name="uni0306" unicode="&#x306;" horiz-adv-x="0" 
d="M1 600q-48 0 -78 27.5t-55 94.5l33 16l16 -31q18 -36 36 -49t48 -13t48 13t36 49l16 31l33 -16q-25 -67 -55 -94.5t-78 -27.5z" />
    <glyph glyph-name="uni030A" unicode="&#x30a;" horiz-adv-x="0" 
d="M1 582q-47 0 -74 29t-27 76t27 76t74 29t74 -29t27 -76t-27 -76t-74 -29zM1 617q27 0 43 15.5t16 42.5v24q0 27 -16 42.5t-43 15.5t-43 -15.5t-16 -42.5v-24q0 -27 16 -42.5t43 -15.5z" />
    <glyph glyph-name="uni0309" unicode="&#x309;" horiz-adv-x="0" 
d="M-74 754h113q44 0 44 -39q0 -15 -7 -32.5t-24 -43.5l-37 -59l-32 17l57 112h-114v45z" />
    <glyph glyph-name="uni0312" unicode="&#x312;" horiz-adv-x="0" 
d="M1 597q-20 0 -29.5 9t-9.5 24v15q0 32 15 63.5t37 54.5h40q-21 -23 -32.5 -45t-16.5 -42q19 -1 27 -9.5t8 -22.5v-14q0 -15 -9.5 -24t-29.5 -9z" />
    <glyph glyph-name="uni0315" unicode="&#x315;" horiz-adv-x="0" 
d="M61 559h-37l13 181h62z" />
    <glyph glyph-name="uni031B" unicode="&#x31b;" horiz-adv-x="0" 
d="M54 520q0 -28 -9 -37t-37 -9h-78v38h76v111h48v-103z" />
    <glyph glyph-name="uni0327" unicode="&#x327;" horiz-adv-x="0" 
d="M11 -205q-34 0 -54.5 12t-30.5 25l26 29q10 -11 24 -19t35 -8q47 0 47 40q0 39 -47 39h-45l19 94h35l-16 -80h6q5 5 12.5 8.5t19.5 3.5q28 0 44 -17t16 -50q0 -38 -26 -57.5t-65 -19.5z" />
    <glyph glyph-name="uni0323" unicode="&#x323;" horiz-adv-x="0" 
d="M0 -154q-20 0 -29.5 9.5t-9.5 23.5v14q0 14 9.5 23t29.5 9t29.5 -9t9.5 -23v-14q0 -14 -9.5 -23.5t-29.5 -9.5z" />
    <glyph glyph-name="uni0326" unicode="&#x326;" horiz-adv-x="0" 
d="M0 -67q20 0 29.5 -9t9.5 -24v-15q0 -32 -15 -63.5t-37 -54.5h-40q21 23 32.5 45t16.5 42q-19 1 -27 9.5t-8 22.5v14q0 15 9.5 24t29.5 9z" />
    <glyph glyph-name="uni0328" unicode="&#x328;" horiz-adv-x="0" 
d="M-59 -205q-38 0 -62 16.5t-24 50.5q0 41 30 72.5t78 58.5v23l29 1l9 -17q-54 -38 -77 -66t-23 -59q0 -22 12 -31.5t30 -9.5q17 0 29 6.5t20 16.5l26 -26q-9 -14 -29.5 -25t-47.5 -11z" />
    <glyph glyph-name="breveacute" horiz-adv-x="0" 
d="M0 589q-31 0 -52.5 10t-36.5 27t-25.5 38t-18.5 44l32 15l16 -30q17 -31 35 -47t50 -16t50 16t35 47l16 30l32 -15q-8 -23 -18.5 -44.5t-25.5 -38t-36.5 -26.5t-52.5 -10zM-1 698l-34 18l89 163l46 -25z" />
    <glyph glyph-name="brevegrave" horiz-adv-x="0" 
d="M0 589q-31 0 -52.5 10t-36.5 26.5t-25.5 38t-18.5 44.5l32 15l16 -30q17 -31 35 -47t50 -16t50 16t35 47l16 30l32 -15q-8 -23 -18.5 -44t-25.5 -38t-36.5 -27t-52.5 -10zM-101 855l47 24l89 -163l-34 -18z" />
    <glyph glyph-name="brevehook" horiz-adv-x="0" 
d="M0 589q-31 0 -52.5 10t-36.5 26.5t-25.5 38t-18.5 44.5l32 15l16 -30q17 -31 35 -47t50 -16t50 16t35 47l16 30l32 -15q-8 -23 -18.5 -44t-25.5 -38t-36.5 -27t-52.5 -10zM-77 867h106q45 0 45 -39q0 -15 -7 -32.5t-24 -43.5l-38 -59l-31 17l58 114h-109v43z" />
    </font>
</defs>
</svg>
